a<svg width="216" height="188" viewBox="0 0 216 188" fill="none" xmlns="http://www.w3.org/2000/svg">
    <path d="M52.5244 170.3L55.7549 173.203L61.9932 166.726L58.707 163.767L52.5244 170.3Z" fill="#CE7A63"/>
    <path d="M63.7197 176.386H67.8414L68.3984 166.782H64.2767L63.7197 176.386Z" fill="#CE7A63"/>
    <path d="M68.0642 175.939H63.4412C63.2741 175.939 63.1627 176.051 63.1627 176.219L62.9399 179.904C62.9399 180.295 63.2741 180.63 63.664 180.63C65.2793 180.574 66.0591 180.518 68.0642 180.518C69.3453 180.518 74.6367 180.63 76.3634 180.63C78.0343 180.63 78.0343 178.899 77.3102 178.731C74.024 178.061 69.958 177.056 68.7883 176.163C68.5655 175.995 68.287 175.939 68.0642 175.939Z" fill="#0F264C"/>
    <path d="M56.7016 172.031L52.7469 169.351C52.5798 169.239 52.4128 169.239 52.3014 169.351L49.2379 172.422C48.9594 172.645 49.0708 173.092 49.405 173.371C51.9672 175.325 53.8052 176.833 55.1977 178.452C56.8687 180.351 57.7598 180.63 61.6588 180.63C63.4411 180.63 64.4994 179.122 63.7753 178.899C57.2585 176.833 59.0409 175.94 57.4256 172.924C57.2028 172.534 56.9801 172.254 56.7016 172.031Z" fill="#0F264C"/>
    <path d="M83.6595 38.918C83.7152 39.1413 83.8823 39.5322 83.9937 39.8672L84.3279 40.8722C84.5507 41.5423 84.8292 42.2123 85.1077 42.8265C85.6647 44.1107 86.2774 45.395 87.0014 46.6233C88.3939 49.0243 90.0092 51.2019 92.0143 52.5978L92.3485 52.8211C92.3485 52.8211 92.3485 52.877 92.4042 52.877C92.5713 52.9328 93.0169 52.8211 93.4625 52.5978C94.4094 52.1511 95.5791 51.2577 96.5816 50.3085C97.6399 49.3593 98.6425 48.2984 99.6451 47.1817C100.648 46.065 101.595 44.8924 102.541 43.7757L105.215 45.395C103.822 48.2984 102.207 51.0344 100.035 53.6029C98.921 54.8871 97.7513 56.1155 96.0804 57.1764C95.2449 57.6789 94.1866 58.1814 92.8498 58.3489C92.1814 58.4048 91.4017 58.3489 90.6776 58.1256C90.2877 58.0139 89.9535 57.8464 89.6193 57.6789L89.0066 57.3439C87.3913 56.3947 85.9989 55.1663 84.8292 53.882C83.6038 52.5978 82.6012 51.2019 81.7101 49.7502C80.8189 48.2984 80.0391 46.8467 79.3707 45.2833C79.0365 44.5016 78.758 43.7757 78.4238 42.994C78.2567 42.6032 78.1453 42.2123 78.0339 41.8214C77.9225 41.4306 77.8111 41.0397 77.644 40.5372L83.6595 38.918Z" fill="#CE7A63"/>
    <path d="M89.3969 48.8006L82.2674 52.765C82.2674 52.765 82.0446 52.43 81.7104 51.9274C81.4876 51.5366 81.1535 51.0341 80.7636 50.4199C78.647 47.0139 75.1937 40.7602 76.0849 38.1359C77.4773 34.0599 82.6016 34.1157 85.1081 38.8618C86.3891 41.3186 87.5588 44.1104 88.3386 46.0647C88.6171 46.7347 88.8399 47.293 89.007 47.7397C89.2855 48.4098 89.3969 48.8006 89.3969 48.8006Z" fill="#0053CC"/>
    <path d="M89.0628 47.7957L81.7106 51.9276C81.4878 51.5367 81.1536 51.0342 80.7637 50.42L88.3944 46.1206C88.6729 46.7348 88.8957 47.349 89.0628 47.7957Z" fill="#004DAA"/>
    <path d="M76.029 38.6386C77.6443 37.8569 79.4823 38.5269 81.3761 41.5979C83.2699 44.6131 84.9408 49.75 85.1079 51.2017L82.2673 52.7651C82.2673 52.7651 75.4163 42.7146 76.029 38.6386Z" fill="#004DAA"/>
    <path d="M102.096 44.5014L103.544 39.9229L107.22 42.6588C107.22 42.6588 105.215 46.7348 103.823 46.344L102.096 44.5014Z" fill="#CE7A63"/>
    <path d="M107.388 38.1919L109.449 40.7604L107.165 42.6588L103.489 39.9228L107.388 38.1919Z" fill="#CE7A63"/>
    <path d="M61.9928 166.726L58.818 170.077L55.5317 167.117L58.7066 163.767L61.9928 166.726Z" fill="#BC6753"/>
    <path d="M64.2765 166.838H68.3983L68.1198 171.751H63.998L64.2765 166.838Z" fill="#BC6753"/>
    <path d="M82.6013 71.3027H60.4889C60.3218 69.3484 60.7674 62.8715 60.4332 54.7194C60.2104 49.2475 59.5977 42.938 58.2609 36.6843C58.1495 36.2377 58.0381 35.791 57.9824 35.3443C57.9824 35.3443 59.0964 35.1209 60.7117 34.8976C62.0484 34.6742 63.7194 34.5067 65.3347 34.3951C68.1753 34.2834 72.2413 34.1717 74.6921 34.3951C76.1402 34.5067 77.5327 34.7859 78.6467 35.0093C80.0948 35.2884 81.0417 35.5676 81.0417 35.5676C81.0417 35.5676 86.4445 48.0191 82.6013 71.3027Z" fill="#0053CC"/>
    <path d="M60.4892 54.7195C60.2664 49.1917 59.6537 42.9381 58.3169 36.6845C59.7651 36.5728 62.3272 36.6845 62.7171 39.0854C63.1627 41.6539 62.6057 47.6842 60.4892 54.7195Z" fill="#004DAA"/>
    <path d="M82.4343 71.0796C82.4343 71.0796 86.7788 101.287 88.2826 117.703C89.4523 130.88 61.0459 170.189 61.0459 170.189L55.5317 164.996C55.5317 164.996 76.3074 129.763 74.6921 115.078C73.1326 100.84 67.8969 71.0796 67.8969 71.0796H82.4343Z" fill="#0F264C"/>
    <path d="M74.6921 115.134C73.9124 107.82 72.13 96.3174 70.5704 86.937C71.3502 85.3736 73.6339 82.1909 73.6339 82.1909C75.639 89.1704 80.0392 115.525 73.801 151.093C67.2842 161.646 61.0459 170.244 61.0459 170.244L60.2104 156.676C66.1702 145.286 75.7504 125.296 74.6921 115.134Z" fill="#0A1B35"/>
    <path d="M55.1421 164.717L61.3247 170.524L63.3298 168.402L56.2561 161.925L55.1421 164.717Z" fill="#9FC6FF"/>
    <path d="M74.5807 71.0796C74.5807 71.0796 74.9706 102.739 74.3022 114.576C73.5781 127.53 69.902 170.524 69.902 170.524H62.3269C62.3269 170.524 62.5497 128.591 62.1041 115.748C61.6028 101.789 60.3218 71.0796 60.3218 71.0796H74.5807Z" fill="#0F264C"/>
    <path d="M61.9929 170.579H70.1806L70.6262 167.676L61.603 168.122L61.9929 170.579Z" fill="#9FC6FF"/>
    <path d="M61.9931 41.3189L60.9906 42.994C60.6564 43.5524 60.3222 44.1666 60.0437 44.7807C59.431 45.9533 58.8183 47.1259 58.2056 48.3543C57.6486 49.5268 57.0916 50.7552 56.5903 51.9836C56.1448 53.212 55.6435 54.4404 55.3093 55.6129L55.2536 55.8363L55.1979 55.948C55.1979 56.0038 55.1979 55.948 55.1979 55.948C55.1979 55.948 55.1979 56.0038 55.1422 56.0596C55.1422 56.1713 55.1422 56.3388 55.1422 56.5622C55.1979 57.0088 55.3093 57.5672 55.4764 58.1256C55.8106 59.2423 56.3119 60.4707 56.8688 61.6432C57.9828 64.0442 59.3196 66.501 60.7121 68.8461L58.2613 70.7445C56.2005 68.6227 54.4181 66.4451 52.7471 63.9883C51.9673 62.76 51.1319 61.4757 50.5192 59.9682C50.185 59.2423 49.9065 58.4047 49.6837 57.4555C49.5723 57.0088 49.5166 56.4505 49.5166 55.8921C49.5166 55.6129 49.5166 55.2779 49.5723 54.9429L49.628 54.7196L49.6837 54.5521L49.7394 54.2729C50.2964 51.2019 51.3547 48.4101 52.5243 45.73C53.137 44.3899 53.7497 43.0498 54.4181 41.7656C54.7523 41.0956 55.1422 40.4814 55.4764 39.8672C55.8663 39.1971 56.2005 38.6388 56.646 37.9688L61.9931 41.3189Z" fill="#CE7A63"/>
    <path d="M63.4966 42.8821C62.5497 45.6739 61.0458 48.9682 59.9319 51.2575C59.6534 51.8717 59.3749 52.43 59.1521 52.8767C58.7622 53.6584 58.5394 54.1051 58.5394 54.1051L50.1846 49.4707C50.1846 49.4707 50.296 49.1357 50.4631 48.5215C50.6302 48.0748 50.7973 47.4606 51.0201 46.7906C52.4125 42.8262 55.2532 35.6792 58.0381 35.2884C62.1598 34.73 65.1676 37.8568 63.4966 42.8821Z" fill="#0053CC"/>
    <path d="M59.8765 51.2574C59.598 51.8716 59.3195 52.43 59.0967 52.8767L50.4077 48.5214C50.5748 48.0748 50.7419 47.4606 50.9647 46.7905L59.8765 51.2574Z" fill="#004DAA"/>
    <path d="M78.5355 37.5779C78.0899 39.0855 76.8646 41.0397 73.4669 42.0448L72.5758 42.324L71.6846 42.1564C64.7222 40.8722 62.1044 37.1312 61.6588 36.4053L60.7119 34.8419C62.0487 34.6186 63.7197 34.4511 65.3349 34.3394C68.1756 34.2277 72.2416 34.1161 74.6923 34.3394C76.1405 34.4511 77.5329 34.7302 78.6469 34.9536C78.8697 35.7911 78.814 36.6845 78.5355 37.5779Z" fill="#004DAA"/>
    <path d="M72.3527 38.3038C66.7271 37.2988 65.0005 34.3953 65.0005 34.3953C67.0613 32.3852 66.2816 26.8574 65.5575 23.8423L68.0639 25.9082L71.4616 28.7559C71.3502 29.2025 71.2945 29.7051 71.2388 30.1518C71.0717 31.9944 71.5173 33.7253 74.2465 34.3395C74.3022 34.3395 76.5301 37.0754 72.3527 38.3038Z" fill="#CE7A63"/>
    <path d="M71.5173 28.7557C71.4059 29.2024 71.3502 29.7049 71.2945 30.1516C70.0134 29.8724 68.3425 28.5323 68.1197 27.2481C68.064 26.7456 68.064 26.2989 68.064 25.9639L71.5173 28.7557Z" fill="#BC6753"/>
    <path d="M73.801 13.2331C75.8618 14.1823 76.9758 19.8776 74.358 21.1618C71.7958 22.3902 69.9578 11.5022 73.801 13.2331Z" fill="#0F264C"/>
    <path d="M64.4995 19.4869C65.3907 23.5071 65.6692 25.908 68.0643 27.7506C71.629 30.4866 76.3634 28.0856 76.6976 23.8979C77.0318 20.1569 75.5279 14.1825 71.2948 13.0657C67.1731 11.8932 63.664 15.4667 64.4995 19.4869Z" fill="#CE7A63"/>
    <path d="M59.8763 15.4667C57.9268 16.36 59.0408 19.0402 60.3775 20.7153C62.2156 23.0604 64.1651 24.1771 65.5018 23.1162C66.6715 22.502 67.507 18.9843 66.4487 16.8067C68.2868 15.5783 72.0743 17.0859 73.2997 15.1317C74.4694 13.1774 75.3048 13.3449 77.4214 14.6291C79.5379 15.9134 81.2089 10.7764 75.7504 9.82723C78.7582 11.1673 78.0898 13.8474 75.8618 11.1115C74.3023 9.21303 70.5704 7.09126 68.0083 9.9389C66.0031 12.0607 59.3193 8.82218 59.8763 15.4667Z" fill="#0F264C"/>
    <path d="M63.6083 23.6746C64.3323 24.5122 65.3349 25.0705 66.1704 25.1822C67.4515 25.4055 67.73 24.233 67.0616 23.0604C66.5046 22.0554 65.1121 20.7153 63.9982 20.9945C62.8842 21.3295 62.7728 22.6696 63.6083 23.6746Z" fill="#CE7A63"/>
    <path d="M70.8493 19.8778C70.905 20.2128 71.1278 20.4362 71.3506 20.4362C71.5734 20.4362 71.6848 20.1011 71.6291 19.7661C71.5734 19.4311 71.3506 19.2078 71.1278 19.2078C70.9607 19.2636 70.7936 19.5428 70.8493 19.8778Z" fill="#0F264C"/>
    <path d="M74.5807 19.431C74.6364 19.766 74.8593 19.9894 75.082 19.9894C75.3048 19.9894 75.4162 19.6544 75.3605 19.3193C75.3048 18.9843 75.082 18.761 74.8592 18.761C74.6921 18.8168 74.5251 19.096 74.5807 19.431Z" fill="#0F264C"/>
    <path d="M73.4111 19.7102C73.4111 19.7102 74.4694 21.5528 75.4163 22.3345C74.915 22.9487 73.8567 22.837 73.8567 22.837L73.4111 19.7102Z" fill="#BA4D3C"/>
    <path d="M72.6871 23.8978C71.3503 23.8978 70.6262 23.0603 70.6262 23.0603C70.5705 23.0045 70.5705 22.9486 70.6262 22.9486C70.6819 22.8928 70.7376 22.8928 70.7376 22.9486C70.7376 22.9486 71.5731 23.8978 73.0213 23.7303C73.077 23.7303 73.1327 23.7862 73.1327 23.842C73.1327 23.8978 73.077 23.9537 73.0213 23.9537C72.9656 23.8978 72.7985 23.8978 72.6871 23.8978Z" fill="#0F264C"/>
    <path d="M69.5123 18.8169C69.4566 18.8169 69.4566 18.8169 69.4009 18.8169C69.2895 18.7611 69.2895 18.6494 69.3452 18.5378C69.8465 17.5886 70.7934 17.5327 70.7934 17.5327C70.9048 17.5327 71.0162 17.5886 71.0162 17.7002C71.0162 17.8119 70.9605 17.9236 70.8491 17.9236C70.7934 17.9236 70.125 17.9794 69.7351 18.7053C69.6794 18.7611 69.568 18.8169 69.5123 18.8169Z" fill="#0F264C"/>
    <path d="M76.029 17.9235C75.9733 17.9235 75.9176 17.8676 75.8619 17.8118C75.3606 17.0859 74.6365 17.0859 74.6365 17.0859C74.5251 17.0859 74.4137 16.9742 74.4694 16.8626C74.4694 16.7509 74.5808 16.6951 74.6922 16.6951C74.6922 16.6951 75.6391 16.6951 76.2518 17.5884C76.3075 17.7001 76.3075 17.8118 76.1961 17.8676C76.0847 17.9235 76.029 17.9235 76.029 17.9235Z" fill="#0F264C"/>
    <path d="M69.5124 176.609C69.1226 176.609 68.7327 176.554 68.3985 176.442C68.3428 176.442 68.3428 176.386 68.3428 176.386C68.3428 176.33 68.3428 176.33 68.3985 176.274C68.5099 176.163 69.6795 175.381 70.1808 175.604C70.2922 175.66 70.3479 175.772 70.4036 175.884C70.4593 176.107 70.4036 176.274 70.2922 176.386C70.1251 176.554 69.8466 176.609 69.5124 176.609ZM68.677 176.33C69.4011 176.498 69.958 176.442 70.1251 176.274C70.1808 176.219 70.2365 176.107 70.1808 175.939C70.1808 175.884 70.1251 175.828 70.0694 175.828C69.8466 175.716 69.1783 176.051 68.677 176.33Z" fill="#407BFF"/>
    <path d="M68.4539 176.498C68.4539 176.498 68.3982 176.498 68.4539 176.498C68.3982 176.498 68.3425 176.442 68.3425 176.386C68.3425 176.33 68.2311 175.158 68.6766 174.767C68.788 174.655 68.8994 174.599 69.0665 174.655C69.2336 174.655 69.4007 174.767 69.4007 174.934C69.5121 175.381 68.8994 176.219 68.4539 176.498ZM69.0108 174.823C68.9551 174.823 68.8437 174.879 68.788 174.934C68.5653 175.158 68.5096 175.884 68.5096 176.274C68.8437 175.995 69.2893 175.325 69.2336 174.99C69.2336 174.879 69.1779 174.823 69.0108 174.823Z" fill="#407BFF"/>
    <path d="M59.3753 174.264C58.7627 174.264 57.8715 173.762 57.3145 173.482C57.2588 173.482 57.2588 173.427 57.2588 173.371C57.2588 173.315 57.3145 173.315 57.3702 173.315C57.593 173.315 59.5424 173.147 59.9323 173.594C59.988 173.65 60.0437 173.762 59.988 173.873C59.9323 174.041 59.8209 174.152 59.7095 174.208C59.5424 174.264 59.4867 174.264 59.3753 174.264ZM57.6487 173.482C58.5399 173.985 59.2639 174.208 59.5424 174.041C59.6538 173.985 59.7095 173.929 59.7095 173.817C59.7095 173.762 59.7095 173.762 59.7095 173.706C59.5424 173.482 58.4842 173.427 57.6487 173.482Z" fill="#407BFF"/>
    <path d="M57.3145 173.483C57.2588 173.483 57.2588 173.483 57.2588 173.427C57.2588 173.371 57.2588 173.371 57.2588 173.315C57.3145 173.259 58.0386 171.752 58.9854 172.198C59.2639 172.31 59.2639 172.478 59.2639 172.589C59.1525 173.092 57.9272 173.483 57.3145 173.483ZM58.6513 172.366C58.15 172.366 57.7044 173.036 57.5373 173.315C58.15 173.259 59.0411 172.868 59.0968 172.589C59.0968 172.533 59.0411 172.478 58.9298 172.422C58.8184 172.366 58.707 172.366 58.6513 172.366Z" fill="#407BFF"/>
    <path d="M59.6534 67.9524L63.7751 67.2266L61.6585 71.9726C61.6585 71.9726 57.9267 71.9726 58.0938 70.0184L59.6534 67.9524Z" fill="#CE7A63"/>
    <path d="M66.8387 69.6275L64.9449 73.4802L61.6587 72.0285L63.7753 67.2266L66.8387 69.6275Z" fill="#CE7A63"/>
    <path opacity="0.9" d="M134.123 82.5254C135.07 80.1245 137.521 78.3936 140.027 78.3936H189.154C192.106 78.3936 194.111 80.7945 193.61 83.7538L178.07 176.721C177.568 179.68 174.783 182.081 171.831 182.081H48.6812C45.7291 182.081 43.724 179.68 44.2253 176.721L57.4259 97.6012C57.9272 94.6419 60.7121 92.2409 63.6642 92.2409H120.366C126.214 92.2409 131.895 88.2207 134.123 82.5254Z" fill="#9FC6FF"/>
    <path opacity="0.9" d="M114.572 0L77.4214 129.428L162.418 153.94L199.569 24.512L114.572 0Z" fill="#DCE9FF"/>
    <path d="M146.222 34.8963C148.561 26.7468 143.867 18.2394 135.737 15.8946C127.608 13.5498 119.121 18.2555 116.782 26.4051C114.443 34.5546 119.137 43.062 127.267 45.4068C135.396 47.7516 143.883 43.0459 146.222 34.8963Z" fill="#407BFF"/>
    <path d="M143.171 34.0166C145.025 27.5563 141.304 20.8122 134.859 18.9535C128.415 17.0947 121.687 20.825 119.833 27.2854C117.979 33.7457 121.7 40.4898 128.144 42.3485C134.589 44.2073 141.316 40.477 143.171 34.0166Z" fill="white"/>
    <path d="M137.401 55.1647L110.37 47.3682L108.614 53.4852L135.645 61.2818L137.401 55.1647Z" fill="#407BFF"/>
    <path d="M110.542 102.964L95.6079 98.6567L88.8008 122.374L103.735 126.681L110.542 102.964Z" fill="#407BFF"/>
    <path d="M163.338 118.214L148.404 113.907L141.597 137.624L156.531 141.931L163.338 118.214Z" fill="#407BFF"/>
    <path d="M136.947 110.563L122.013 106.255L115.206 129.972L130.14 134.28L136.947 110.563Z" fill="#407BFF"/>
    <path d="M159.308 61.4514L141.002 56.1714L139.246 62.2885L157.552 67.5685L159.308 61.4514Z" fill="#407BFF"/>
    <path d="M173.514 79.886L106.553 60.5723L105.829 63.0942L172.791 82.408L173.514 79.886Z" fill="white"/>
    <path d="M138.321 75.5364L105.028 65.9336L104.304 68.4555L137.598 78.0584L138.321 75.5364Z" fill="white"/>
    <path d="M166.284 83.6022L144.017 77.1797L143.293 79.7016L165.56 86.1241L166.284 83.6022Z" fill="white"/>
    <path d="M157.014 86.7155L103.487 71.2769L102.763 73.7988L156.29 89.2375L157.014 86.7155Z" fill="white"/>
    <path d="M163.537 94.3614L101.982 76.6069L101.258 79.1289L162.814 96.8833L163.537 94.3614Z" fill="white"/>
    <path d="M107.551 83.9923L100.432 81.939L99.7083 84.4609L106.827 86.5143L107.551 83.9923Z" fill="white"/>
    <path d="M144.654 94.6973L113.234 85.6348L112.511 88.1567L143.931 97.2192L144.654 94.6973Z" fill="white"/>
    <path d="M165.882 106.584L98.9204 87.27L98.1966 89.792L165.158 109.106L165.882 106.584Z" fill="white"/>
    <path opacity="0.9" d="M112.957 5.75122L77.4214 129.428L159.521 153.103L192.774 25.0705L112.957 5.75122Z" fill="#DCE9FF"/>
    <path opacity="0.9" d="M104.714 4.52271L72.0742 135.179L157.85 156.732L190.49 26.0754L104.714 4.52271Z" fill="#DCE9FF"/>
    <path d="M137.518 38.3008C139.574 30.0749 134.589 21.7353 126.383 19.6737C118.178 17.6122 109.859 22.6093 107.802 30.8352C105.746 39.0611 110.731 47.4007 118.936 49.4623C127.142 51.5238 135.461 46.5267 137.518 38.3008Z" fill="#407BFF"/>
    <path d="M134.438 37.5271C136.068 31.0062 132.117 24.3952 125.612 22.7609C119.107 21.1267 112.512 25.088 110.882 31.6089C109.252 38.1298 113.203 44.7408 119.708 46.3751C126.213 48.0093 132.808 44.048 134.438 37.5271Z" fill="white"/>
    <path d="M129.402 58.8538L102.118 51.999L100.575 58.1734L127.859 65.0281L129.402 58.8538Z" fill="#407BFF"/>
    <path d="M104.239 107.573L89.1655 103.786L83.1807 127.725L98.2544 131.512L104.239 107.573Z" fill="#407BFF"/>
    <path d="M157.498 120.914L142.424 117.126L136.439 141.066L151.513 144.853L157.498 120.914Z" fill="#407BFF"/>
    <path d="M130.862 114.27L115.789 110.483L109.804 134.422L124.877 138.209L130.862 114.27Z" fill="#407BFF"/>
    <path d="M151.487 64.3917L133.009 59.7495L131.466 65.9239L149.943 70.5661L151.487 64.3917Z" fill="#407BFF"/>
    <path d="M166.369 82.345L98.7798 65.3643L98.1434 67.9098L165.732 84.8906L166.369 82.345Z" fill="white"/>
    <path d="M131.025 79.1895L97.4194 70.7466L96.783 73.2921L130.388 81.735L131.025 79.1895Z" fill="white"/>
    <path d="M159.271 86.2805L136.795 80.6338L136.159 83.1794L158.634 88.8261L159.271 86.2805Z" fill="white"/>
    <path d="M150.099 89.6821L96.0708 76.1084L95.4344 78.654L149.462 92.2277L150.099 89.6821Z" fill="white"/>
    <path d="M156.874 97.1298L94.7422 81.52L94.1058 84.0656L156.238 99.6754L156.874 97.1298Z" fill="white"/>
    <path d="M100.575 88.7184L93.3892 86.9131L92.7528 89.4587L99.9385 91.264L100.575 88.7184Z" fill="white"/>
    <path d="M138.021 98.105L106.307 90.1372L105.671 92.6828L137.385 100.651L138.021 98.105Z" fill="white"/>
    <path d="M159.636 109.258L92.0469 92.2769L91.4105 94.8224L158.999 111.803L159.636 109.258Z" fill="white"/>
    <path opacity="0.7" d="M101.372 101.957C101.483 99.8909 103.321 98.3833 105.772 98.3833H154.843C157.795 98.3833 160.636 100.449 161.193 103.018L175.897 177.503C176.454 180.071 174.505 182.137 171.552 182.137H48.4581C45.5061 182.137 42.6654 180.071 42.1084 177.503L29.9661 114.967C29.4091 112.398 31.3586 110.332 34.3106 110.332H91.012C96.8604 110.332 101.093 106.87 101.372 101.957Z" fill="#9FC6FF"/>
</svg>
