<svg width="60" height="60" viewBox="0 0 60 60" fill="none" xmlns="http://www.w3.org/2000/svg">
<rect width="60" height="60" rx="11" fill="#561BFB"/>
<path d="M23 0H49C55.0751 0 60 4.92487 60 11V24H34C27.9249 24 23 19.0751 23 13V0Z" fill="#7997FF"/>
<path d="M0 34H12C18.0751 34 23 38.9249 23 45V60H11C4.92487 60 0 55.0751 0 49V34Z" fill="#7240FF"/>
<path fill-rule="evenodd" clip-rule="evenodd" d="M32.9724 19.4298L29.7923 27.5772L31.308 30.7825L28.6834 33.0211L28.2923 41.8017C30.2566 41.3957 32.083 40.5284 33.6226 39.2951C35.7814 37.566 37.3764 35.1174 37.9975 32.2127C38.4886 29.9155 38.3071 27.6295 37.585 25.5567C36.7309 23.105 35.1206 20.9514 32.9724 19.4298Z" fill="#4310D3"/>
<path fill-rule="evenodd" clip-rule="evenodd" d="M28.5972 33.0929C28.6262 33.0693 28.655 33.0454 28.6834 33.0211L28.5972 33.0929Z" fill="#4310D3"/>
<path d="M13.3748 26.9485C11.9345 33.6853 16.2789 40.3249 23.0783 41.7786C24.8549 42.1584 26.6234 42.1466 28.2923 41.8017L28.6834 33.0211L28.5972 33.0929C27.5591 33.9366 26.1556 34.3194 24.7378 34.0162C22.2653 33.4876 20.6855 31.0732 21.2093 28.6235C21.733 26.1737 24.162 24.6164 26.6345 25.145C28.0604 25.4498 29.1925 26.3729 29.7923 27.5772L32.9724 19.4298C31.6106 18.465 30.0325 17.7543 28.294 17.3826C21.4947 15.9289 14.8151 20.2117 13.3748 26.9485Z" fill="#4310D3"/>
<path fill-rule="evenodd" clip-rule="evenodd" d="M28.6834 33.0211L28.2923 41.8017C30.2566 41.3957 32.083 40.5284 33.6226 39.2951L48.2267 26.1533C49.177 25.2982 49.2719 23.8412 48.4404 22.87V22.87C46.4232 20.514 42.8574 20.2925 40.5641 22.3807L37.458 25.2089L37.585 25.5567L31.308 30.7825L28.6834 33.0211Z" fill="#4310D3"/>
<path fill-rule="evenodd" clip-rule="evenodd" d="M37.458 25.2089L46.037 45.1088C46.5553 46.3111 46.0277 47.7079 44.844 48.2673V48.2673C42.065 49.5805 38.7516 48.3184 37.5506 45.4891L31.308 30.7825L29.7923 27.5772L32.9724 19.4298C35.1206 20.9514 36.7309 23.105 37.585 25.5567L37.458 25.2089Z" fill="#4310D3"/>
<path fill-rule="evenodd" clip-rule="evenodd" d="M31.2952 16.9139L28.1151 25.0613L29.6308 28.2667L27.0062 30.5052L26.6151 39.2858C28.5793 38.8799 30.4057 38.0125 31.9454 36.7792C34.1041 35.0501 35.6992 32.6016 36.3202 29.6968C36.8113 27.3996 36.6298 25.1137 35.9077 23.0408C35.0536 20.5892 33.4433 18.4356 31.2952 16.9139Z" fill="#EEEEEE"/>
<path fill-rule="evenodd" clip-rule="evenodd" d="M26.92 30.577C26.949 30.5535 26.9777 30.5295 27.0062 30.5052L26.92 30.577Z" fill="#EEEEEE"/>
<path d="M11.6976 24.4326C10.2573 31.1694 14.6017 37.8091 21.401 39.2627C23.1777 39.6426 24.9461 39.6307 26.6151 39.2858L27.0062 30.5052L26.92 30.577C25.8818 31.4207 24.4784 31.8035 23.0606 31.5004C20.5881 30.9718 19.0083 28.5573 19.532 26.1076C20.0558 23.6579 22.4847 22.1005 24.9572 22.6291C26.3831 22.934 27.5152 23.857 28.1151 25.0613L31.2952 16.9139C29.9333 15.9492 28.3553 15.2384 26.6168 14.8667C19.8174 13.4131 13.1379 17.6959 11.6976 24.4326Z" fill="#EEEEEE"/>
<path fill-rule="evenodd" clip-rule="evenodd" d="M27.0062 30.5052L26.6151 39.2858C28.5793 38.8799 30.4057 38.0125 31.9454 36.7792L46.5495 23.6375C47.4998 22.7823 47.5946 21.3253 46.7632 20.3542V20.3542C44.746 17.9981 41.1801 17.7766 38.8868 19.8648L35.7807 22.6931L35.9077 23.0408L29.6308 28.2667L27.0062 30.5052Z" fill="#EEEEEE"/>
<path fill-rule="evenodd" clip-rule="evenodd" d="M35.7807 22.6931L44.3597 42.5929C44.878 43.7952 44.3505 45.192 43.1667 45.7514V45.7514C40.3878 47.0647 37.0743 45.8025 35.8734 42.9732L29.6308 28.2667L28.1151 25.0613L31.2952 16.9139C33.4433 18.4356 35.0536 20.5892 35.9077 23.0408L35.7807 22.6931Z" fill="#EEEEEE"/>
</svg>
