<svg width="57" height="52" viewBox="0 0 57 52" fill="none" xmlns="http://www.w3.org/2000/svg">
    <path d="M50.9711 0H6.02886C2.70449 0 0 2.70461 0 6.02886V30.6923V34.5289C0 37.8531 2.70449 40.5577 6.02886 40.5577H20.586L18.8322 49.3269H13.1539C12.5485 49.3269 12.0577 49.8177 12.0577 50.4231C12.0577 51.0285 12.5485 51.5192 13.1539 51.5192H43.8461C44.4515 51.5192 44.9423 51.0285 44.9423 50.4231C44.9423 49.8177 44.4515 49.3269 43.8461 49.3269H38.1678L36.414 40.5577H50.9711C54.2954 40.5577 57 37.8532 57 34.5289V30.6923V6.02886C57 2.70461 54.2955 0 50.9711 0ZM21.0678 49.3269L22.8217 40.5577H34.1783L35.9322 49.3269H21.0678ZM54.8077 34.5289C54.8077 36.6443 53.0867 38.3655 50.9711 38.3655H6.02886C3.91341 38.3655 2.19227 36.6444 2.19227 34.5289V31.7885H54.8076V34.5289H54.8077ZM54.8077 29.5962H2.19227V27.404H8.76921C9.37461 27.404 9.86534 26.9132 9.86534 26.3078C9.86534 25.7024 9.37461 25.2117 8.76921 25.2117H2.19227V6.02886C2.19227 3.91341 3.91329 2.19227 6.02886 2.19227H50.9711C53.0866 2.19227 54.8077 3.91329 54.8077 6.02886V29.5962Z" fill="#561BFB"/>
    <path d="M28.5001 32.8845C27.2913 32.8845 26.3079 33.868 26.3079 35.0768C26.3079 36.2856 27.2913 37.2691 28.5001 37.2691C29.7089 37.2691 30.6924 36.2856 30.6924 35.0768C30.6924 33.868 29.7089 32.8845 28.5001 32.8845Z" fill="#561BFB"/>
    <path d="M37.4744 20.993L35.1491 18.6677L37.0869 16.73C37.3687 16.4482 37.4753 16.0358 37.3655 15.6527C37.2556 15.2697 36.9465 14.9765 36.5582 14.8867L26.4819 12.5614C26.1137 12.4767 25.7277 12.5872 25.4602 12.8545C25.1931 13.1217 25.0823 13.5077 25.1672 13.8761L27.4928 23.9523C27.5824 24.3405 27.8756 24.6497 28.2587 24.7595C28.6419 24.8693 29.0541 24.7627 29.336 24.481L31.2737 22.5432L33.599 24.8685C33.8131 25.0826 34.0936 25.1896 34.3741 25.1896C34.6545 25.1896 34.9352 25.0826 35.1491 24.8685L37.4744 22.5432C37.9024 22.1152 37.9024 21.4211 37.4744 20.993ZM34.3741 22.5432L32.0488 20.2179C31.8347 20.0038 31.5541 19.8968 31.2737 19.8968C30.9933 19.8968 30.7126 20.0038 30.4986 20.2179L29.1843 21.5324L27.698 15.0921L34.1383 16.5783L32.8238 17.8926C32.3958 18.3207 32.3958 19.0148 32.8238 19.4428L35.1491 21.7682L34.3741 22.5432Z" fill="#561BFB"/>
    <path d="M23.9879 9.83197L22.8918 8.73584C22.4637 8.30778 21.7696 8.30778 21.3416 8.73584C20.9135 9.16389 20.9135 9.85791 21.3416 10.2861L22.4378 11.3822C22.6519 11.5963 22.9324 11.7033 23.2129 11.7033C23.4933 11.7033 23.774 11.5963 23.9879 11.3822C24.416 10.9543 24.416 10.2601 23.9879 9.83197Z" fill="#561BFB"/>
    <path d="M21.8509 12.7996H20.3007C19.6953 12.7996 19.2046 13.2903 19.2046 13.8957C19.2046 14.5011 19.6953 14.9918 20.3007 14.9918H21.8509C22.4563 14.9918 22.947 14.5011 22.947 13.8957C22.947 13.2903 22.4563 12.7996 21.8509 12.7996Z" fill="#561BFB"/>
    <path d="M23.9878 16.4089C23.5599 15.9809 22.8659 15.9809 22.4377 16.4089L21.3416 17.5051C20.9135 17.9331 20.9135 18.6273 21.3416 19.0553C21.5556 19.2694 21.8362 19.3764 22.1166 19.3764C22.3971 19.3764 22.6777 19.2694 22.8917 19.0553L23.9878 17.9592C24.4159 17.5312 24.4159 16.8371 23.9878 16.4089Z" fill="#561BFB"/>
    <path d="M31.661 8.73584C31.233 8.30778 30.539 8.30778 30.1108 8.73584L29.0146 9.83197C28.5866 10.26 28.5866 10.9542 29.0146 11.3822C29.2287 11.5963 29.5093 11.7033 29.7898 11.7033C30.0704 11.7033 30.3509 11.5963 30.5649 11.3822L31.661 10.2861C32.0891 9.85814 32.0891 9.16401 31.661 8.73584Z" fill="#561BFB"/>
    <path d="M26.5014 6.59863C25.896 6.59863 25.4053 7.08937 25.4053 7.69477V9.2449C25.4053 9.85031 25.896 10.341 26.5014 10.341C27.1068 10.341 27.5975 9.85031 27.5975 9.2449V7.69477C27.5975 7.08937 27.1068 6.59863 26.5014 6.59863Z" fill="#561BFB"/>
    <path d="M13.1318 26.0939C13.1186 26.0237 13.0967 25.9547 13.0693 25.8878C13.0419 25.822 13.008 25.7584 12.9684 25.6992C12.929 25.6389 12.8829 25.583 12.8325 25.5325C12.7821 25.4821 12.7262 25.4361 12.6659 25.3966C12.6066 25.3572 12.5431 25.3231 12.4763 25.2957C12.4105 25.2684 12.3414 25.2464 12.2713 25.2333C12.1299 25.2048 11.9852 25.2048 11.8438 25.2333C11.7737 25.2464 11.7047 25.2684 11.6389 25.2957C11.5719 25.3231 11.5084 25.3571 11.4493 25.3966C11.3889 25.436 11.333 25.4821 11.2826 25.5325C11.2322 25.583 11.1862 25.6389 11.1467 25.6992C11.1073 25.7584 11.0732 25.822 11.0458 25.8878C11.0184 25.9547 10.9965 26.0237 10.9834 26.0939C10.9691 26.164 10.9614 26.2364 10.9614 26.3076C10.9614 26.3789 10.9691 26.4512 10.9834 26.5214C10.9965 26.5915 11.0184 26.6605 11.0458 26.7263C11.0732 26.7932 11.1072 26.8568 11.1467 26.9159C11.1861 26.9762 11.2322 27.0321 11.2826 27.0826C11.333 27.133 11.3889 27.179 11.4493 27.2185C11.5085 27.2579 11.5721 27.292 11.6389 27.3194C11.7047 27.3467 11.7737 27.3687 11.8438 27.3829C11.9139 27.3972 11.9863 27.4037 12.0576 27.4037C12.1288 27.4037 12.2012 27.3972 12.2713 27.3829C12.3414 27.3687 12.4105 27.3467 12.4763 27.3194C12.5432 27.292 12.6067 27.258 12.6659 27.2185C12.7262 27.1791 12.7821 27.133 12.8325 27.0826C12.8829 27.0321 12.9289 26.9762 12.9684 26.9159C13.0079 26.8567 13.0419 26.7931 13.0693 26.7263C13.0967 26.6605 13.1186 26.5915 13.1318 26.5214C13.146 26.4512 13.1537 26.3789 13.1537 26.3076C13.1537 26.2364 13.146 26.164 13.1318 26.0939Z" fill="#561BFB"/>
</svg>
