<svg width="180" height="130" viewBox="0 0 180 130" fill="none" xmlns="http://www.w3.org/2000/svg">
    <g clip-path="url(#clip0)">
        <g opacity="0.5">
            <path opacity="0.5" d="M177.676 60.6064H160.287C159.004 60.6064 157.965 61.6485 157.965 62.9338V80.3663C157.965 81.6517 159.004 82.6937 160.287 82.6937H177.676C178.958 82.6937 179.998 81.6517 179.998 80.3663V62.9338C179.998 61.6485 178.958 60.6064 177.676 60.6064Z" fill="#D0D2D5"/>
            <path opacity="0.1" d="M165.858 66.9541H172.106C172.106 66.9541 177.368 71.5693 172.106 76.3494H165.858C165.858 76.3494 160.596 72.0638 165.858 66.9541Z" fill="black"/>
            <path opacity="0.5" d="M167.338 69.5898H166.516V72.0623H167.338V69.5898Z" fill="#3F3D56"/>
            <path opacity="0.5" d="M171.447 69.2598H170.625V72.2267H171.447V69.2598Z" fill="#3F3D56"/>
            <path opacity="0.5" d="M168.983 73.5454C169.244 73.5454 169.495 73.6496 169.68 73.8351C169.865 74.0205 169.969 74.2721 169.969 74.5344V75.3585H167.996V74.5344C167.996 74.2721 168.1 74.0205 168.285 73.8351C168.47 73.6496 168.721 73.5454 168.983 73.5454Z" fill="#3F3D56"/>
        </g>
        <path d="M102.236 39.3056C102.757 39.2941 103.277 39.3337 103.796 39.3056C104.271 39.2826 104.743 39.2051 105.219 39.1573C106.031 39.0765 106.85 39.0831 107.665 39.0485C108.201 39.0254 108.767 38.9727 109.201 38.6562C109.609 38.3612 109.836 37.8799 110.199 37.5304C111.679 36.1046 112.693 34.1975 114.009 32.6152C114.338 32.213 114.681 31.8124 114.979 31.3822C115.549 30.5581 115.952 29.6235 116.353 28.7005C116.512 28.3583 116.644 28.0045 116.748 27.6422C116.822 27.3521 116.86 27.0522 116.959 26.7686C117.162 26.1884 117.652 25.6808 117.712 25.0692L117.643 25.0791C118.241 24.316 118.149 22.9858 118.445 22.0083C118.634 21.4278 118.863 20.8611 119.131 20.3122L120.231 17.9107C120.42 17.4986 120.617 17.0733 120.944 16.7569C121.34 16.3728 121.893 16.1816 122.291 15.7992C122.528 15.5637 122.705 15.2749 122.807 14.9569L122.842 14.9899C123.052 15.1959 123.217 15.4481 123.422 15.6607C123.864 16.119 124.478 16.381 124.928 16.831C125.158 17.0601 125.348 17.3387 125.625 17.5052C125.767 17.5829 125.93 17.614 126.09 17.5942C126.251 17.5744 126.401 17.5046 126.52 17.3947C127.327 16.6827 128.531 16.6167 129.404 15.9887C129.646 15.814 129.856 15.6014 130.083 15.4102C130.625 14.9774 131.213 14.607 131.837 14.3058C132.204 14.3118 132.568 14.3639 132.921 14.4608C133.427 14.6009 133.922 14.8333 134.449 14.8234C134.918 14.8002 135.368 14.6269 135.733 14.3289C136.001 14.1212 136.246 13.8344 136.285 13.5048C136.295 13.3356 136.265 13.1664 136.196 13.0115C136.127 12.8566 136.023 12.7205 135.891 12.6147C135.854 12.5833 135.817 12.5553 135.779 12.5273C135.768 12.3794 135.727 12.2352 135.659 12.1035C135.591 11.9718 135.497 11.8553 135.382 11.7608C135.116 11.5517 134.812 11.3962 134.486 11.3026C134.305 11.2313 134.115 11.188 133.921 11.1741C133.618 11.1906 133.321 11.2603 133.043 11.3801C132.483 11.5607 131.906 11.6823 131.321 11.7427C131.218 11.7526 131.007 11.7312 130.828 11.7295L130.767 11.5548C130.083 11.8713 129.287 11.6109 128.537 11.6125C128.172 11.6125 127.809 11.6768 127.446 11.6999C127.043 11.7158 126.64 11.707 126.239 11.6735L125.024 11.596C124.505 11.5693 123.988 11.5143 123.475 11.4312C123.338 11.1526 123.202 10.8741 123.049 10.607C122.791 10.1582 122.489 9.73679 122.146 9.34938C122.284 9.23053 122.429 9.12043 122.58 9.01972L122.61 9.00159C122.648 8.98016 122.694 8.95708 122.745 8.93401C123.219 9.1601 123.743 9.26223 124.267 9.2309C124.791 9.19956 125.299 9.03577 125.743 8.75478C126.187 8.47379 126.553 8.08473 126.807 7.62383C127.06 7.16292 127.194 6.64514 127.194 6.11871C127.284 6.08397 127.372 6.04379 127.457 5.99838C127.506 5.97201 127.556 5.94399 127.603 5.91267L127.674 5.86487C127.719 5.83074 127.762 5.79385 127.802 5.75443C127.822 5.73465 127.842 5.71487 127.86 5.69345C127.896 5.65076 127.927 5.60434 127.954 5.55499C127.964 5.53521 127.973 5.51708 127.982 5.4973C127.99 5.47752 127.982 5.48246 127.99 5.47422C127.998 5.46598 128.001 5.44455 128.006 5.43136C128.011 5.41818 128.006 5.41158 128.015 5.4017L128.024 5.36214C128.025 5.35171 128.025 5.34124 128.024 5.33082C128.024 5.31763 128.024 5.30445 128.024 5.29291V5.25829C128.024 5.24622 128.024 5.2341 128.024 5.22203C128.025 5.20996 128.025 5.19784 128.024 5.18577C128.024 5.17423 128.024 5.16104 128.024 5.14951C128.025 5.13743 128.025 5.12532 128.024 5.11324V5.06874C128.025 5.05611 128.025 5.04345 128.024 5.03083C128.024 5.01929 128.024 5.00775 128.024 4.99621V4.95665V4.92369C128.024 4.90885 128.024 4.89402 128.024 4.88083C128.025 4.87096 128.025 4.86104 128.024 4.85116C128.025 4.83579 128.025 4.82038 128.024 4.80501C128.024 4.79512 128.024 4.78688 128.024 4.77864C128.024 4.7704 128.024 4.74567 128.013 4.72919V4.70611L127.998 4.65337V4.63359C127.998 4.61546 127.987 4.59732 127.982 4.57919V4.56271L127.962 4.50337V4.49348C127.962 4.46546 127.944 4.43579 127.934 4.40777C127.811 4.05174 127.677 3.69735 127.536 3.34791C127.433 3.0555 127.278 2.78412 127.079 2.54684C126.788 2.23695 126.37 2.08201 126.022 1.83477C125.611 1.54467 125.303 1.13424 124.955 0.768317C124.606 0.402394 124.183 0.0710846 123.682 0.0100974C123.284 -0.0131885 122.885 0.0597319 122.521 0.222729C119.501 1.34028 117.028 3.54241 114.32 5.28961C113.266 5.97036 112.085 6.60825 110.837 6.52089L111.939 8.27469C111.991 8.3604 112.046 8.43952 112.103 8.52853C112.161 8.61753 112.218 8.69336 112.279 8.77577C112.434 8.98936 112.63 9.16979 112.856 9.30652C112.913 9.33968 112.972 9.36834 113.034 9.39224C113.087 9.4125 113.142 9.42956 113.198 9.44333C113.591 9.53729 114.02 9.45817 114.418 9.37905C114.555 9.35268 114.691 9.32466 114.826 9.29334L114.99 9.24719H115.017C115.017 9.25708 115.017 9.26532 115.017 9.27356C114.925 9.43839 114.837 9.58838 114.76 9.75157C114.506 10.3422 114.31 10.956 114.173 11.5845C113.862 12.8207 113.55 14.0833 113.632 15.3525C113.66 15.7811 113.733 16.2195 113.609 16.6316C113.55 16.8343 113.445 17.042 113.501 17.2431C113.559 17.3592 113.61 17.4793 113.652 17.6024C113.678 17.7936 113.527 17.9585 113.418 18.1167C113.31 18.2749 113.254 18.5271 113.409 18.6376C113.252 18.6925 113.114 18.7904 113.01 18.9201C112.907 19.0497 112.841 19.206 112.822 19.3711C112.825 19.4681 112.806 19.5646 112.766 19.6529C112.72 19.7126 112.664 19.7644 112.601 19.8062C112.434 19.9466 112.325 20.1438 112.294 20.36C111.976 20.36 111.708 20.6699 111.419 20.8545C111.166 20.983 110.898 21.0805 110.622 21.1446C109.827 21.3985 109.142 21.921 108.522 22.4715C108.177 22.7732 107.828 23.1061 107.677 23.538C107.627 23.6797 107.601 23.8281 107.558 23.9715C107.47 24.2492 107.341 24.5124 107.177 24.7528C106.862 25.2392 106.473 25.674 106.026 26.0417C105.799 26.2245 105.6 26.4388 105.434 26.678C105.182 27.0423 104.671 27.1511 104.401 27.5021C104.304 27.6751 104.194 27.8404 104.073 27.9966C103.864 28.1944 103.548 28.2109 103.282 28.3263C102.658 28.5851 102.371 29.3153 101.815 29.701C101.784 29.7269 101.745 29.7399 101.705 29.7372C101.657 29.7372 101.629 29.6795 101.588 29.6515C101.507 29.5971 101.401 29.6383 101.305 29.6631C101.21 29.6878 101.082 29.6779 101.057 29.5823C99.7169 28.768 98.3998 27.8845 97.0581 27.0703L96.4465 26.6994L93.1744 24.7116C93.1357 24.6873 93.091 24.6744 93.0453 24.6744C92.9997 24.6744 92.9549 24.6873 92.9162 24.7116L92.8143 24.7824C92.6499 24.6077 92.4674 24.4528 92.3588 24.3242C92.3144 24.2731 92.2701 24.222 92.224 24.1726C92.2539 24.1737 92.2837 24.168 92.3112 24.1561C92.3479 24.1361 92.3757 24.1028 92.3888 24.063C92.402 24.0232 92.3995 23.9798 92.3819 23.9418C92.3469 23.8667 92.2952 23.8007 92.2306 23.749C92.0875 23.61 91.9561 23.4595 91.8376 23.299C91.7099 23.0979 91.5652 22.9082 91.4052 22.732C91.3243 22.6438 91.2247 22.575 91.1137 22.5307C91.0026 22.4865 90.8831 22.468 90.7639 22.4765C90.6315 22.5019 90.5053 22.5528 90.3923 22.6265C89.9426 22.8884 89.5282 23.2069 89.1591 23.5742C89.1428 23.5859 89.1294 23.6012 89.12 23.619C89.1106 23.6367 89.1054 23.6564 89.1049 23.6764C89.1049 23.7094 89.1377 23.7341 89.141 23.7654C89.1419 23.796 89.1307 23.8256 89.1098 23.8479C88.8884 24.1232 88.6261 24.3628 88.332 24.5583C87.9144 24.8714 87.5061 25.1967 87.1071 25.5341C86.8573 25.7121 86.6597 25.954 86.5349 26.2346C86.4478 26.5601 86.4836 26.9063 86.6352 27.2071C86.9081 27.8516 87.3866 28.3856 87.8601 28.9015C87.9378 29.0077 88.0482 29.0853 88.1742 29.1224C88.2743 29.1362 88.376 29.1115 88.4587 29.0532C88.7497 28.862 88.7974 28.4664 88.8188 28.1203C88.827 27.9554 88.8368 27.8038 88.8467 27.6455C88.846 27.6138 88.8522 27.5823 88.8648 27.5532C88.8899 27.5173 88.9247 27.4893 88.9651 27.4725L89.4173 27.2335C89.4041 27.212 89.3893 27.1906 89.3745 27.1692C89.7156 27.0409 90.0869 27.0168 90.4416 27.1C90.6817 27.1708 90.902 27.3142 91.1322 27.4032C91.0956 27.7108 91.153 28.0224 91.2966 28.2966C92.1402 28.384 92.8998 28.7598 93.6545 29.1389C94.263 29.4412 94.8547 29.7763 95.427 30.1427C95.8918 30.446 96.3467 30.763 96.7917 31.0938C97.4231 31.5619 98.0332 32.058 98.6366 32.5591C99.0289 32.9061 99.4509 33.2178 99.8978 33.4904C101.085 34.158 102.677 34.1811 103.767 33.3487C105.141 32.2987 106.891 31.7531 108.371 30.8449C108.81 30.5984 109.212 30.2891 109.563 29.9268C109.559 29.9696 109.553 30.012 109.543 30.0537C109.454 30.4641 109.101 30.7608 108.967 31.1762C108.864 31.5059 108.902 31.8866 108.701 32.1652C108.548 32.3778 108.262 32.5295 108.254 32.7915C108.254 32.8641 108.275 32.9366 108.275 33.0091C108.267 33.1009 108.24 33.1901 108.196 33.2712C108.032 33.6421 107.848 34.0311 107.511 34.2602C107.379 34.3508 107.211 34.4333 107.182 34.5898C107.18 34.6353 107.168 34.6797 107.147 34.7201C107.091 34.7975 106.968 34.7563 106.879 34.7893C106.756 34.8354 106.736 34.9953 106.687 35.1189C106.642 35.2216 106.566 35.3075 106.469 35.3643C106.373 35.4211 106.261 35.446 106.149 35.4354C105.026 35.2986 103.923 35.8079 102.792 35.7783C102.402 35.7667 102.014 35.7272 101.623 35.7239C100.422 35.714 99.2466 36.0535 98.0907 36.3832C97.9619 36.6113 97.8823 36.864 97.8572 37.1249C97.4623 37.2266 97.0502 37.2424 96.6487 37.1711C96.5488 37.1514 96.4477 37.1376 96.3462 37.1299C96.3752 37.0555 96.3843 36.9748 96.3725 36.8958C95.9002 37.0459 95.4462 37.2488 95.0192 37.5007C94.7381 37.6656 94.4405 37.8963 94.4142 38.2211C94.4103 38.3462 94.4281 38.4712 94.4668 38.5903L94.6197 39.1721C94.6384 39.2798 94.6855 39.3806 94.7562 39.4639C94.8071 39.5133 94.8745 39.543 94.9206 39.5957C94.9653 39.6581 94.9956 39.7296 95.0094 39.8051L95.1376 40.3095C95.1855 40.4773 95.2196 40.6487 95.2396 40.8221C95.2544 40.9869 95.2396 41.1385 95.2511 41.2968C95.2684 41.5576 95.3063 41.8167 95.3645 42.0715L95.547 42.9846C95.5879 43.2399 95.6602 43.489 95.7624 43.7264C95.8397 43.8912 95.9433 44.033 96.0058 44.1978C96.0551 44.3247 96.0781 44.4599 96.1373 44.5802C96.2439 44.7757 96.4114 44.9308 96.6142 45.0219C96.6848 45.0637 96.7642 45.0886 96.846 45.0945C97.0795 45.0945 97.2472 44.8769 97.3557 44.6692C97.5721 44.2916 97.6892 43.8651 97.6961 43.4297C97.6961 43.255 97.6616 43.0819 97.6468 42.9072C97.6073 42.4127 97.7487 41.9314 97.7487 41.4385C97.754 41.3725 97.7365 41.3066 97.6991 41.2519C97.6617 41.1973 97.6066 41.1573 97.5432 41.1385C97.558 40.7199 97.5563 40.2765 97.7767 39.9188C97.8859 39.7524 98.0214 39.6048 98.1779 39.482C98.2387 39.6765 98.3061 39.8694 98.3817 40.0573C99.633 39.6913 100.925 39.3386 102.236 39.3056ZM128.97 13.9926C128.881 14.0256 128.791 14.0586 128.699 14.0883C127.932 14.3437 127.054 14.5926 126.262 14.4179C126.022 14.3484 125.796 14.2368 125.594 14.0883L125.537 14.052C126.653 13.8558 127.819 13.9036 128.97 13.9926Z" fill="url(#paint0_linear)"/>
        <path d="M133.418 12.2965C133.694 12.1776 133.99 12.1089 134.291 12.0938C134.484 12.1084 134.673 12.1523 134.853 12.224C135.178 12.319 135.482 12.4757 135.748 12.6855C135.879 12.792 135.983 12.9281 136.052 13.0828C136.121 13.2375 136.153 13.4064 136.144 13.5756C136.106 13.9052 135.863 14.1904 135.596 14.3997C135.235 14.6974 134.787 14.8708 134.32 14.8942C133.797 14.9025 133.304 14.6667 132.799 14.5266C132.432 14.4225 132.053 14.3671 131.671 14.3618C131.479 14.3722 131.287 14.36 131.098 14.3256C131.003 14.3076 130.913 14.2675 130.837 14.2085C130.76 14.1495 130.699 14.0733 130.657 13.986C130.609 13.8246 130.609 13.6529 130.657 13.4915C130.695 13.2871 130.688 12.8025 130.869 12.6805C131.014 12.5816 131.527 12.6608 131.704 12.6459C132.286 12.5907 132.86 12.4735 133.418 12.2965Z" fill="#FBBEBE"/>
        <path d="M121.681 8.97852C122.179 9.46683 122.608 10.0215 122.956 10.6268C123.534 11.6389 123.903 12.8158 124.774 13.5938C125.006 13.7892 125.251 13.9671 125.509 14.1262C125.711 14.2746 125.937 14.3862 126.177 14.4558C126.959 14.6322 127.837 14.3866 128.6 14.1262C129.356 13.8544 130.088 13.5238 130.792 13.1372C130.797 13.4556 130.885 13.7672 131.049 14.0405C131.231 14.2992 131.604 14.4509 131.871 14.2877C131.196 14.6055 130.56 14.9998 129.975 15.4629C129.75 15.6541 129.541 15.8651 129.301 16.0382C128.434 16.6629 127.236 16.7255 126.435 17.4343C126.316 17.5428 126.167 17.6115 126.007 17.6307C125.848 17.6499 125.686 17.6187 125.545 17.5414C125.267 17.3766 125.078 17.0931 124.85 16.864C124.399 16.4124 123.788 16.1486 123.345 15.6888C123.14 15.4761 122.975 15.2239 122.765 15.0162C122.464 14.7196 122.073 14.5218 121.796 14.1921C121.591 13.9498 121.468 13.6547 121.275 13.396C121.111 13.1718 120.917 12.9756 120.77 12.7366C120.412 12.1647 120.415 11.418 120.621 10.7768C120.826 10.1356 121.298 9.53729 121.681 8.97852Z" fill="#F86D70"/>
        <path opacity="0.1" d="M121.681 8.97852C122.179 9.46683 122.608 10.0215 122.956 10.6268C123.534 11.6389 123.903 12.8158 124.774 13.5938C125.006 13.7892 125.251 13.9671 125.509 14.1262C125.711 14.2746 125.937 14.3862 126.177 14.4558C126.959 14.6322 127.837 14.3866 128.6 14.1262C129.356 13.8544 130.088 13.5238 130.792 13.1372C130.797 13.4556 130.885 13.7672 131.049 14.0405C131.231 14.2992 131.604 14.4509 131.871 14.2877C131.196 14.6055 130.56 14.9998 129.975 15.4629C129.75 15.6541 129.541 15.8651 129.301 16.0382C128.434 16.6629 127.236 16.7255 126.435 17.4343C126.316 17.5428 126.167 17.6115 126.007 17.6307C125.848 17.6499 125.686 17.6187 125.545 17.5414C125.267 17.3766 125.078 17.0931 124.85 16.864C124.399 16.4124 123.788 16.1486 123.345 15.6888C123.14 15.4761 122.975 15.2239 122.765 15.0162C122.464 14.7196 122.073 14.5218 121.796 14.1921C121.591 13.9498 121.468 13.6547 121.275 13.396C121.111 13.1718 120.917 12.9756 120.77 12.7366C120.412 12.1647 120.415 11.418 120.621 10.7768C120.826 10.1356 121.298 9.53729 121.681 8.97852Z" fill="black"/>
        <path d="M92.4568 24.2004C92.3294 24.0328 92.1722 23.8903 91.9931 23.7801C91.721 23.6591 91.4175 23.6279 91.1266 23.6911C90.3932 23.8032 89.7125 24.1394 89.068 24.5152C88.5484 24.8136 88.0321 25.1449 87.6605 25.6146C87.5381 25.7563 87.4528 25.9262 87.4122 26.1091C87.3911 26.2601 87.404 26.4138 87.45 26.5591C87.483 26.7227 87.5532 26.8764 87.655 27.0085C87.7567 27.1405 87.8875 27.2473 88.037 27.3206C88.3807 27.4558 88.7638 27.3124 89.1091 27.1805C89.5728 27.0009 90.0825 26.8344 90.5593 26.9761C90.9128 27.0816 91.217 27.3503 91.5903 27.3602C92.0293 27.3734 92.3845 27.0173 92.664 26.6778C92.9057 26.3811 93.4351 25.8454 93.4006 25.4284C93.3661 25.0114 92.7166 24.4987 92.4568 24.2004Z" fill="#FBBEBE"/>
        <path d="M97.9958 37.0289C97.5935 37.1364 97.1725 37.1538 96.7626 37.08C96.5127 37.0339 96.2069 36.9745 96.0474 37.1707C95.996 37.2434 95.9617 37.3268 95.9471 37.4146C95.5377 39.0943 95.9126 40.8761 96.6048 42.4667C96.6136 42.4935 96.6295 42.5175 96.6508 42.5359C96.6952 42.5689 96.7561 42.5458 96.807 42.5244C96.9745 42.4569 97.1313 42.3653 97.2724 42.2524C97.588 41.9656 97.6555 41.4991 97.6703 41.0722C97.6851 40.6453 97.6785 40.1937 97.8988 39.8278C98.175 39.3745 98.7522 39.1536 98.9791 38.6739C99.1616 38.2833 99.0662 37.8201 98.9051 37.4212C98.8508 37.2828 98.8295 36.9267 98.7012 36.8592C98.573 36.7916 98.1422 36.9894 97.9958 37.0289Z" fill="#FBBEBE"/>
        <path d="M92.4086 24.0325C92.4451 24.0122 92.4725 23.9788 92.4853 23.939C92.4982 23.8992 92.4954 23.856 92.4777 23.8182C92.4424 23.7428 92.3907 23.6764 92.3264 23.6237C92.183 23.4849 92.0521 23.3338 91.9351 23.1721C91.8059 22.972 91.6613 22.7824 91.5026 22.605C91.422 22.517 91.3227 22.4481 91.212 22.4036C91.1013 22.3591 90.982 22.3401 90.863 22.3479C90.7309 22.3716 90.605 22.4221 90.4931 22.4962C90.0458 22.7561 89.634 23.073 89.2681 23.4391C89.2401 23.4671 89.2089 23.5017 89.2155 23.5413C89.2221 23.5808 89.2484 23.5973 89.2517 23.6303C89.2527 23.66 89.2421 23.689 89.2221 23.711C89.0024 23.9853 88.7417 24.2238 88.4493 24.4182C88.0349 24.7302 87.6293 25.0544 87.2325 25.3907C86.9843 25.5677 86.7883 25.8086 86.6652 26.0879C86.5812 26.4134 86.618 26.7584 86.7688 27.0588C87.0434 27.7049 87.5219 28.2389 87.9938 28.7581C88.0728 28.864 88.1834 28.942 88.3095 28.9807C88.4091 28.9942 88.5101 28.9695 88.5923 28.9114C88.8801 28.7219 88.9212 28.3263 88.9458 27.9818L88.9721 27.5054C88.9715 27.4743 88.9776 27.4433 88.9902 27.4148C89.015 27.3785 89.0499 27.3504 89.0905 27.334L89.5378 27.0967C89.401 26.8737 89.2064 26.6921 88.9747 26.5714C88.743 26.4506 88.483 26.3952 88.2223 26.411C88.1032 26.4394 87.9778 26.4223 87.8705 26.3632C87.8186 26.3091 87.7897 26.2371 87.7897 26.1621C87.7897 26.0871 87.8186 26.015 87.8705 25.961C87.9794 25.8571 88.113 25.7828 88.2585 25.7451C89.4375 25.3115 90.5029 24.616 91.6473 24.0967C91.7726 24.0332 91.9114 24.0009 92.0518 24.0028C92.1669 24.011 92.3018 24.0786 92.4086 24.0325Z" fill="#F86D70"/>
        <path d="M97.054 41.2932C97.0014 41.3921 96.9833 41.5075 96.9257 41.6047C96.8682 41.702 96.7432 41.7696 96.6462 41.7201C96.5951 41.6843 96.557 41.6328 96.5377 41.5734C96.039 40.4303 95.8986 39.1622 96.1348 37.9373C96.1676 37.7369 96.2268 37.5418 96.3108 37.3571C96.3979 37.179 96.5245 36.9977 96.4883 36.8032C96.0189 36.9517 95.5676 37.1529 95.1434 37.4032C94.8638 37.568 94.5695 37.7972 94.5432 38.1202C94.5407 38.2455 94.559 38.3702 94.5975 38.4894L94.752 39.0713C94.7707 39.1793 94.8184 39.2802 94.8901 39.363C94.9395 39.4125 95.0069 39.4438 95.0546 39.4965C95.0997 39.558 95.1301 39.6291 95.1434 39.7042L95.2732 40.2086C95.3216 40.3769 95.3563 40.5489 95.3768 40.7229C95.3916 40.8877 95.3768 41.0394 95.39 41.1976C95.4086 41.4579 95.4471 41.7163 95.5051 41.9707L95.6909 42.8838C95.7328 43.139 95.8057 43.3881 95.9079 43.6255C95.9852 43.7904 96.0888 43.9321 96.1529 44.0986C96.2006 44.2255 96.2253 44.3607 96.2845 44.481C96.3913 44.6761 96.5579 44.8316 96.7596 44.9244C96.8305 44.966 96.9097 44.9913 96.9915 44.9986C97.2233 45.0068 97.3894 44.781 97.4979 44.5733C97.7099 44.1957 97.8231 43.7704 97.8268 43.3371C97.8268 43.1624 97.7906 42.9893 97.7758 42.8146C97.7347 42.3201 97.8728 41.8404 97.8712 41.3476C97.8745 40.8861 97.2233 40.9734 97.054 41.2932Z" fill="#F86D70"/>
        <path d="M121.177 12.5748C120.665 12.3385 120.215 11.9857 119.862 11.5446C119.681 11.312 119.516 11.0669 119.369 10.8111C118.744 9.75455 118.208 8.64807 117.766 7.50294C118.466 7.64634 119.201 7.77656 119.89 7.57876C120.249 7.46897 120.584 7.29103 120.877 7.0546C121.251 6.74583 121.599 6.4056 121.916 6.0376C122.155 6.49784 122.43 6.93872 122.738 7.35624C122.914 7.5936 123.509 8.07655 123.465 8.39962C123.42 8.72268 122.763 8.88422 122.496 9.03751L122.468 9.05564C122.075 9.30455 121.732 9.62488 121.457 10.0001C120.941 10.7353 120.761 11.7605 121.177 12.5748Z" fill="#FBBEBE"/>
        <path opacity="0.1" d="M122.51 9.0311C122.115 8.83656 121.766 8.55935 121.486 8.21815C121.207 7.87696 121.004 7.4797 120.891 7.05314C121.265 6.74437 121.613 6.40414 121.93 6.03613C122.169 6.49638 122.444 6.93725 122.752 7.35478C122.928 7.59213 123.523 8.07509 123.479 8.39815C123.434 8.72122 122.777 8.87781 122.51 9.0311Z" fill="black"/>
        <path d="M123.99 9.27318C125.691 9.27318 127.07 7.89096 127.07 6.1859C127.07 4.48085 125.691 3.09863 123.99 3.09863C122.289 3.09863 120.91 4.48085 120.91 6.1859C120.91 7.89096 122.289 9.27318 123.99 9.27318Z" fill="#FBBEBE"/>
        <path d="M117.254 25.4165C117.041 25.5447 116.798 25.6152 116.55 25.6213C116.301 25.6273 116.056 25.5687 115.837 25.4512C115.608 25.3102 115.402 25.1364 115.225 24.9352C114.214 23.8952 113.252 22.7924 112.576 21.5018C112.419 21.2295 112.317 20.9287 112.277 20.6167C112.258 20.4608 112.277 20.3026 112.332 20.1556C112.387 20.0086 112.477 19.8773 112.594 19.7728C112.657 19.7311 112.712 19.6793 112.758 19.6195C112.798 19.5316 112.817 19.4356 112.813 19.3393C112.831 19.1748 112.895 19.019 112.998 18.8897C113.101 18.7605 113.239 18.6632 113.395 18.6091C113.23 18.497 113.296 18.2481 113.403 18.0882C113.51 17.9283 113.66 17.7585 113.633 17.5739C113.591 17.4508 113.541 17.3307 113.482 17.2146C113.423 17.0135 113.53 16.8058 113.587 16.6047C113.707 16.1926 113.635 15.7542 113.605 15.3256C113.518 14.0564 113.826 12.7971 114.13 11.5626C114.264 10.9356 114.458 10.323 114.709 9.73295C114.786 9.56812 114.873 9.40329 114.962 9.25659C115.272 8.75216 115.618 8.27022 115.996 7.81432C116.173 7.54612 116.416 7.32813 116.701 7.18137C116.728 7.16977 116.756 7.15986 116.784 7.1517C116.989 7.09865 117.201 7.08247 117.412 7.1039C117.967 7.13852 118.551 7.26873 118.947 7.66103C119.344 8.05333 119.472 8.60386 119.651 9.13461C119.708 9.31225 119.777 9.48574 119.858 9.65383C120.12 10.1747 120.546 10.5901 120.965 10.9939L121.42 11.434C121.649 11.6549 122.045 11.5988 122.261 11.8312C122.348 11.9405 122.414 12.0659 122.453 12.2005C122.696 12.795 122.838 13.4263 122.872 14.068C122.874 14.2107 122.866 14.3533 122.848 14.4949C122.792 14.9917 122.573 15.4557 122.224 15.8135C121.83 16.1943 121.281 16.3822 120.888 16.7646C120.559 17.0811 120.368 17.5047 120.181 17.9184C119.819 18.7162 119.457 19.5151 119.094 20.315C118.831 20.8624 118.605 21.4269 118.418 22.0046C118.076 23.1567 118.27 24.782 117.254 25.4165Z" fill="#F86D70"/>
        <path d="M107.759 38.9987C106.946 39.0317 106.132 39.0218 105.323 39.0993C104.852 39.1454 104.381 39.2229 103.908 39.2427C103.391 39.2658 102.874 39.2245 102.356 39.2344C101.052 39.2625 99.7659 39.6102 98.5113 39.9696C98.1572 39.1025 97.9724 38.1753 97.9671 37.2383C97.9638 37.1763 97.9638 37.1141 97.9671 37.0521C97.99 36.7868 98.069 36.5294 98.1989 36.2972C99.3499 35.9675 100.517 35.6378 101.713 35.6543C102.102 35.6543 102.489 35.7005 102.877 35.712C104.003 35.7466 105.098 35.2406 106.216 35.3823C106.327 35.3933 106.439 35.3688 106.535 35.3122C106.631 35.2556 106.706 35.1699 106.751 35.0675C106.798 34.9455 106.818 34.7857 106.941 34.7379C107.03 34.7049 107.152 34.7461 107.208 34.6703C107.228 34.6296 107.239 34.5853 107.242 34.5401C107.275 34.3752 107.441 34.3011 107.571 34.2104C107.9 33.9829 108.086 33.5939 108.25 33.2214C108.293 33.1408 108.32 33.0522 108.328 32.961C108.328 32.8885 108.305 32.8159 108.306 32.7418C108.306 32.4813 108.597 32.3313 108.748 32.1187C108.947 31.8385 108.913 31.4594 109.01 31.1297C109.141 30.7144 109.492 30.4193 109.579 30.0105C109.589 29.9688 109.595 29.9264 109.599 29.8836C109.25 30.2442 108.85 30.5518 108.413 30.7968C106.953 31.6984 105.207 32.2374 103.844 33.2808C102.762 34.1049 101.177 34.0802 99.9928 33.4093C99.5464 33.1355 99.1249 32.8228 98.7333 32.4747C98.1315 31.9803 97.5231 31.4742 96.8934 31.0028C96.4549 30.6731 96.0005 30.355 95.5303 30.0484C94.9609 29.6709 94.3714 29.3248 93.7644 29.0117C93.0113 28.6293 92.2533 28.2501 91.4147 28.1595C91.3069 27.9389 91.2471 27.6979 91.2392 27.4524C91.2313 27.2069 91.2754 26.9625 91.3687 26.7354C91.5602 26.2835 91.8197 25.8638 92.1382 25.4909C92.3765 25.1405 92.6749 24.8353 93.0195 24.5893C93.0579 24.5649 93.1024 24.552 93.1478 24.552C93.1932 24.552 93.2376 24.5649 93.276 24.5893L96.5349 26.5952L97.1449 26.9694C98.4817 27.7936 99.7971 28.6754 101.134 29.4946C101.159 29.5886 101.288 29.6001 101.382 29.5754C101.476 29.5507 101.583 29.5111 101.663 29.5655C101.703 29.5919 101.731 29.6413 101.78 29.6512C101.819 29.6525 101.858 29.6397 101.889 29.6149C102.441 29.2342 102.724 28.5023 103.344 28.2468C103.609 28.1381 103.923 28.1216 104.13 27.9172C104.252 27.7614 104.362 27.596 104.459 27.4227C104.727 27.0716 105.235 26.9661 105.483 26.5985C105.647 26.3605 105.845 26.1473 106.07 25.9656C106.518 25.6001 106.906 25.1669 107.221 24.6816C107.384 24.442 107.51 24.1799 107.597 23.9036C107.64 23.7602 107.667 23.6118 107.714 23.4701C107.864 23.0382 108.208 22.7069 108.551 22.4069C109.174 21.8597 109.847 21.3405 110.636 21.0883C110.911 21.0244 111.178 20.9275 111.43 20.7998C111.748 20.6053 112.039 20.2443 112.402 20.3284C112.54 20.3712 112.664 20.4497 112.762 20.5559C113.208 20.9904 113.618 21.4606 113.987 21.9619C114.574 22.7102 115.159 23.4591 115.745 24.2085C115.929 24.478 116.163 24.7101 116.434 24.8925C116.826 25.095 117.277 25.1534 117.708 25.0574C117.65 25.6689 117.165 26.1733 116.965 26.7535C116.868 27.0353 116.83 27.3353 116.758 27.6238C116.656 27.9857 116.525 28.339 116.368 28.6803C115.973 29.6017 115.575 30.5281 115.01 31.3555C114.717 31.7858 114.38 32.1797 114.05 32.5835C112.746 34.161 111.748 36.0631 110.268 37.4823C109.909 37.8301 109.682 38.3064 109.281 38.6048C108.845 38.9278 108.283 38.9773 107.759 38.9987Z" fill="#434175"/>
        <path opacity="0.1" d="M113.954 18.085C113.809 18.0921 113.668 18.1345 113.543 18.2086C113.844 18.1031 114.211 18.385 114.488 18.2514C114.618 18.1888 114.599 18.1707 114.488 18.1328C114.322 18.0767 114.122 18.1278 113.954 18.085Z" fill="black"/>
        <path d="M165.863 72.5547L153.777 76.8569L154.548 79.0315L166.633 74.7293L165.863 72.5547Z" fill="#D0D2D5"/>
        <path d="M157.82 81.3662L168.822 77.4501C169.109 77.3477 169.426 77.364 169.701 77.4955C169.977 77.627 170.189 77.8629 170.291 78.1513C170.393 78.4396 170.377 78.7569 170.246 79.0332C170.115 79.3095 169.879 79.5223 169.592 79.6247L158.591 83.5408L157.82 81.3662Z" fill="#D0D2D5"/>
        <path d="M147.338 74.6021L150.019 73.6478C152.402 72.7994 155.025 72.9348 157.308 74.0244C159.592 75.114 161.351 77.0684 162.197 79.4578L163.149 82.1449C163.48 83.0792 163.427 84.1071 163.002 85.0024C162.577 85.8976 161.815 86.587 160.883 86.9187L152.729 89.8211C151.797 90.1529 150.772 90.0999 149.879 89.6738C148.986 89.2478 148.298 88.4835 147.967 87.5492L145.072 79.3759C144.741 78.4415 144.794 77.4137 145.219 76.5184C145.644 75.6232 146.406 74.9338 147.338 74.6021Z" fill="#3F3D56"/>
        <path opacity="0.1" d="M113.807 19.6938C113.695 19.6546 113.575 19.6472 113.46 19.6724C113.288 19.6907 113.128 19.7695 113.008 19.8949C113.04 19.9092 113.074 19.9166 113.109 19.9166C113.144 19.9166 113.178 19.9092 113.21 19.8949C113.317 19.8676 113.428 19.8554 113.539 19.8586C113.634 19.8586 113.919 19.9641 113.993 19.918C114.101 19.8471 113.881 19.7218 113.807 19.6938Z" fill="black"/>
        <path opacity="0.1" d="M122.849 14.4954C122.601 14.4115 122.365 14.2975 122.145 14.1559C121.568 13.7883 121.083 13.2889 120.512 12.9131C120.224 12.7316 119.926 12.5665 119.619 12.4186L117.694 11.4296C117.547 11.3459 117.39 11.2816 117.227 11.2384C116.913 11.1692 116.559 11.3801 116.24 11.3356C116.075 11.3052 115.918 11.2399 115.78 11.1442C115.641 11.0484 115.525 10.9243 115.438 10.7802C115.264 10.4921 115.142 10.1758 115.076 9.84556C115.027 9.65083 114.99 9.45319 114.966 9.25382C114.938 9.04678 114.934 8.83707 114.955 8.62912C114.988 8.21611 115.183 7.8331 115.497 7.56431C115.726 7.40179 115.986 7.28945 116.26 7.23465C116.433 7.19075 116.61 7.16152 116.788 7.14729C116.889 7.13905 116.991 7.13905 117.092 7.14729C117.819 7.20498 118.434 7.69947 118.919 8.24341C119.174 8.53022 119.412 8.83845 119.656 9.1302C119.713 9.30784 119.782 9.48132 119.863 9.64942C120.124 10.1703 120.55 10.5857 120.969 10.9895L121.425 11.4296C121.653 11.6505 122.05 11.5944 122.265 11.8268C122.353 11.936 122.418 12.0615 122.457 12.196C122.7 12.7923 122.841 13.4254 122.873 14.0685C122.875 14.2112 122.867 14.3539 122.849 14.4954Z" fill="black"/>
        <path opacity="0.1" d="M107.873 35.5903L97.9648 37.0523C97.9877 36.787 98.0668 36.5297 98.1967 36.2974C99.3477 35.9677 100.515 35.6381 101.71 35.6546C102.1 35.6546 102.487 35.7007 102.875 35.7123C104.001 35.7469 105.096 35.2408 106.214 35.3826C106.325 35.3936 106.436 35.369 106.532 35.3124C106.628 35.2559 106.704 35.1702 106.748 35.0678C106.796 34.9458 106.816 34.7859 106.939 34.7381C107.028 34.7051 107.15 34.7463 107.206 34.6705C107.225 34.6298 107.237 34.5856 107.24 34.5403C107.273 34.3755 107.439 34.3013 107.569 34.2107C107.898 33.9832 108.084 33.5942 108.248 33.2217C108.291 33.1411 108.318 33.0524 108.325 32.9612C108.325 32.8887 108.302 32.8162 108.304 32.742C108.304 32.4816 108.595 32.3316 108.746 32.119C108.945 31.8387 108.911 31.4596 109.008 31.13C109.139 30.7146 109.489 30.4196 109.577 30.0108L109.619 29.9547L111.306 29.2954L107.873 35.5903Z" fill="black"/>
        <path opacity="0.1" d="M69.8809 115.657C108.475 115.657 139.762 113.221 139.762 110.217C139.762 107.213 108.475 104.778 69.8809 104.778C31.2867 104.778 0 107.213 0 110.217C0 113.221 31.2867 115.657 69.8809 115.657Z" fill="#6C63FF"/>
        <path opacity="0.1" d="M131.658 130C156.631 130 176.875 127.36 176.875 124.104C176.875 120.848 156.631 118.208 131.658 118.208C106.686 118.208 86.4414 120.848 86.4414 124.104C86.4414 127.36 106.686 130 131.658 130Z" fill="#6C63FF"/>
        <path d="M78.1445 105.813L78.1906 103.479C80.3829 103.353 82.5752 103.27 84.7676 103.228C86.0402 103.205 87.3293 103.197 88.5609 103.517C89.4143 103.739 90.2216 104.115 91.0634 104.379C92.7406 104.903 94.5164 104.972 96.2774 105.02C97.9858 105.068 99.7698 105.084 101.304 104.328C103.959 103.009 105.076 99.7699 105.206 96.8046C105.336 93.8394 104.747 90.851 105.156 87.9038" stroke="#3F3D56" stroke-width="12" stroke-miterlimit="10"/>
        <path d="M84.1545 110.38L54.8555 110.005L54.941 109.251L56.3583 96.8247H82.0876L83.9818 109.251L84.1265 110.192L84.1545 110.38Z" fill="#D0D2D5"/>
        <path opacity="0.1" d="M84.1265 110.192H69.5041L54.8555 110.004L54.941 109.251H83.9818L84.1265 110.192Z" fill="black"/>
        <path d="M88.8511 109.439H49.9727V110.38H88.8511V109.439Z" fill="#D0D2D5"/>
        <path d="M125.945 22.1893C125.947 21.8665 125.887 21.5465 125.766 21.2474C125.645 20.9483 125.466 20.6761 125.24 20.4463C125.014 20.2166 124.745 20.0339 124.448 19.9087C124.151 19.7835 123.833 19.7183 123.511 19.7168H14.9375C14.6156 19.7185 14.2973 19.7839 14.0007 19.9092C13.704 20.0344 13.435 20.2171 13.2089 20.4468C12.9829 20.6765 12.8043 20.9486 12.6833 21.2476C12.5623 21.5466 12.5014 21.8666 12.504 22.1893V88.1642H125.945V22.1893Z" fill="#3F3D56"/>
        <path d="M12.5039 87.5054V95.2343C12.5039 95.8813 12.7603 96.5018 13.2167 96.9592C13.673 97.4167 14.292 97.6738 14.9374 97.6738H123.511C124.156 97.6738 124.775 97.4167 125.232 96.9592C125.688 96.5018 125.944 95.8813 125.944 95.2343V87.5054H12.5039Z" fill="#D0D2D5"/>
        <path d="M121.812 23.8677H17.1992V83.1753H121.812V23.8677Z" fill="#2F2E41"/>
        <path d="M69.7885 94.7409C70.1726 94.741 70.5517 94.6536 70.8972 94.4855C71.2427 94.3173 71.5456 94.0727 71.783 93.7701C71.8555 93.6776 71.9214 93.5801 71.9803 93.4783L70.5893 93.2492L72.0938 93.2607C72.2381 92.9459 72.3167 92.6049 72.3249 92.2586C72.3331 91.9122 72.2707 91.5678 72.1415 91.2465L70.124 92.2965L71.9853 90.9251C71.8135 90.6181 71.5801 90.3502 71.2997 90.1383C71.0193 89.9265 70.6981 89.7754 70.3564 89.6945C70.0147 89.6136 69.6599 89.6048 69.3146 89.6685C68.9693 89.7322 68.641 89.8672 68.3504 90.0647C68.0598 90.2623 67.8134 90.5182 67.6266 90.8163C67.4399 91.1144 67.3169 91.448 67.2656 91.7962C67.2142 92.1444 67.2355 92.4995 67.3282 92.839C67.4209 93.1785 67.5829 93.495 67.8039 93.7684C68.0399 94.0703 68.3411 94.3146 68.6849 94.4831C69.0286 94.6515 69.4059 94.7397 69.7885 94.7409Z" fill="#6C63FF"/>
        <path opacity="0.1" d="M72.3242 97.6719L84.0132 109.439L82.2194 97.6719H72.3242Z" fill="black"/>
        <path d="M122.528 23.3843L128.806 15.0455C129.181 14.551 129.567 14.0351 130.082 13.6791C131.562 12.6538 133.731 13.2604 134.969 14.5741C136.207 15.8878 136.726 17.7158 137.106 19.4827C137.991 23.5498 138.386 27.7084 138.284 31.8697C138.231 34.0603 138.035 36.274 137.34 38.3525C136.284 41.514 134.145 44.176 132.529 47.0885C129.926 51.7812 128.836 58.0398 132.131 62.2743C133.204 63.654 134.666 64.7089 135.658 66.1495C136.777 67.7764 137.213 69.7659 137.631 71.6977C138.254 74.6152 138.879 77.5508 138.994 80.5326C139.366 90.1735 133.882 99.8062 125.414 104.392C119.536 107.576 112.424 108.499 107.312 112.818C105.504 114.339 103.945 116.576 104.389 118.894C104.751 120.774 106.398 122.203 108.207 122.825C110.016 123.446 111.977 123.395 113.884 123.286C118.466 123.024 123.025 122.459 127.532 121.597C131.351 120.865 135.164 120.234 138.494 118.219C138.828 118.042 139.113 117.786 139.324 117.473C139.54 117.112 139.576 116.675 139.606 116.255C139.696 115.017 139.782 113.733 139.346 112.571C138.838 111.212 137.679 110.184 137.123 108.845C136.567 107.507 136.667 105.966 137.027 104.56C137.471 102.823 138.279 101.204 139.091 99.6067C139.882 98.0507 140.684 96.4997 141.615 95.0245C144.236 90.8773 147.817 87.4423 151.36 84.055" stroke="#3F3D56" stroke-width="12" stroke-miterlimit="10"/>
        <path d="M132.916 11.4308C133.192 11.3103 133.488 11.2416 133.789 11.228C133.981 11.243 134.171 11.2864 134.351 11.3566C134.676 11.4522 134.98 11.6094 135.246 11.8198C135.377 11.9261 135.482 12.0622 135.551 12.2169C135.62 12.3717 135.651 12.5406 135.642 12.7099C135.604 13.0395 135.361 13.323 135.094 13.534C134.733 13.8322 134.286 14.0056 133.818 14.0285C133.295 14.0285 132.802 13.801 132.297 13.6593C131.93 13.5552 131.551 13.4997 131.169 13.4944C130.977 13.5043 130.785 13.4916 130.596 13.4565C130.501 13.4389 130.412 13.3991 130.335 13.3404C130.258 13.2817 130.197 13.2057 130.155 13.1186C130.11 12.9597 130.11 12.7913 130.155 12.6324C130.194 12.428 130.188 11.9417 130.369 11.8198C130.513 11.7225 131.026 11.8016 131.204 11.7868C131.785 11.7277 132.359 11.6084 132.916 11.4308Z" fill="#FBBEBE"/>
        <path d="M130.636 11.5959C129.955 11.9091 129.156 11.6486 128.416 11.647C128.053 11.647 127.691 11.708 127.33 11.7294C126.929 11.7437 126.527 11.7332 126.128 11.6981L124.924 11.6157C124.215 11.5921 123.51 11.4949 122.821 11.3256C122.232 10.63 121.277 10.3234 120.567 9.75639C119.998 9.30146 119.59 8.68169 119.105 8.13611C118.62 7.59052 118.005 7.09768 117.28 7.03998C116.999 7.02593 116.718 7.05597 116.446 7.12899C116.172 7.1827 115.912 7.29514 115.685 7.45865C115.529 7.5915 115.401 7.75398 115.308 7.93672C115.214 8.11947 115.158 8.31887 115.142 8.52346C115.112 8.93284 115.153 9.34434 115.262 9.7399C115.328 10.0707 115.45 10.3875 115.624 10.6761C115.712 10.8198 115.829 10.9434 115.968 11.039C116.106 11.1347 116.263 11.2003 116.428 11.2316C116.746 11.2745 117.097 11.0668 117.415 11.1327C117.578 11.1759 117.735 11.2402 117.882 11.3239L119.809 12.3129C120.115 12.4612 120.412 12.6263 120.7 12.8074C121.272 13.1832 121.756 13.6826 122.333 14.0502C122.91 14.4178 123.638 14.6486 124.279 14.4079C126.253 13.6711 128.476 14.014 130.569 14.1969C130.556 14.1574 130.641 14.1211 130.666 14.0881C130.925 13.7319 131.042 13.2918 130.995 12.8535C130.944 12.42 130.779 12.0113 130.636 11.5959Z" fill="#F86D70"/>
        <path d="M127.324 6.04254C127.529 5.9481 127.701 5.79421 127.818 5.60079C128.005 5.253 127.89 4.82609 127.762 4.44698C127.633 4.06787 127.504 3.73656 127.36 3.38712C127.258 3.0939 127.103 2.82187 126.903 2.5844C126.612 2.27287 126.196 2.11628 125.849 1.87068C125.438 1.57893 125.131 1.16521 124.784 0.800934C124.437 0.436659 124.013 0.0987577 123.513 0.0377705C123.128 0.0183796 122.744 0.0900909 122.392 0.247105C119.389 1.35312 116.934 3.54371 114.246 5.28102C113.2 5.95848 112.026 6.58977 110.793 6.49912L111.896 8.25621C112.177 8.70619 112.493 9.18256 112.986 9.37541C113.422 9.54024 113.909 9.45782 114.366 9.37541C114.73 9.32258 115.084 9.21593 115.417 9.05893C116.074 8.70125 116.497 7.95787 117.204 7.69908C117.732 7.50623 118.32 7.62491 118.848 7.80952C119.376 7.99413 119.894 8.24467 120.45 8.32049C121.436 8.454 122.423 8.00732 123.245 7.43041C123.738 7.08756 124.187 6.69362 124.725 6.44143C125.129 6.23103 125.588 6.14991 126.04 6.20902C126.538 6.27824 126.831 6.30132 127.324 6.04254Z" fill="#2F2E41"/>
        <path opacity="0.1" d="M127.819 5.60107C128.003 5.25987 127.895 4.8412 127.77 4.47363C127.81 4.68423 127.781 4.90232 127.688 5.09504C127.57 5.2875 127.398 5.44109 127.194 5.53679C126.701 5.79722 126.402 5.77414 125.895 5.69008C125.443 5.63204 124.985 5.71309 124.58 5.92249C124.045 6.18127 123.593 6.58181 123.1 6.91147C122.278 7.48838 121.291 7.93342 120.305 7.79991C119.747 7.72573 119.233 7.47025 118.703 7.28893C118.174 7.10762 117.584 6.98565 117.059 7.1785C116.354 7.43728 115.936 8.18231 115.273 8.53835C114.941 8.69512 114.587 8.80176 114.223 8.85482C113.764 8.94383 113.277 9.03119 112.843 8.85482C112.35 8.66362 112.034 8.18561 111.751 7.73562L110.97 6.49116C110.908 6.49116 110.844 6.49116 110.781 6.49116L111.885 8.24825C112.166 8.69823 112.481 9.17459 112.975 9.36744C113.41 9.53228 113.897 9.44986 114.354 9.36744C114.718 9.31462 115.072 9.20797 115.405 9.05097C116.063 8.69329 116.485 7.9499 117.192 7.69112C117.72 7.49827 118.309 7.61695 118.836 7.80156C119.364 7.98617 119.882 8.23671 120.438 8.31253C121.425 8.44604 122.411 7.99935 123.233 7.42245C123.726 7.0796 124.175 6.68566 124.713 6.43347C125.118 6.22306 125.577 6.14195 126.028 6.20105C126.535 6.28347 126.834 6.30655 127.326 6.04776C127.531 5.952 127.703 5.79633 127.819 5.60107Z" fill="black"/>
        <path d="M136.321 118.35C136.417 118.198 136.539 118.063 136.679 117.951C137.397 117.272 137.731 116.273 137.909 115.294C138.086 114.315 138.137 113.316 138.422 112.358C138.576 111.867 138.769 111.389 139.001 110.929C139.165 110.576 139.371 109.884 139.673 109.638C139.732 109.587 139.804 109.552 139.88 109.538C140.022 109.234 140.224 108.964 140.476 108.743C140.946 108.316 141.52 107.977 141.834 107.425C141.92 107.233 142.026 107.051 142.151 106.882C142.363 106.647 142.699 106.553 142.894 106.304C143.149 105.984 143.092 105.527 143.059 105.119C143.026 104.71 143.059 104.224 143.411 104.011C143.621 103.881 143.892 103.892 144.111 103.779C144.44 103.614 144.57 103.197 144.563 102.826C144.557 102.455 144.441 102.094 144.412 101.725C144.32 100.545 145.096 99.371 144.795 98.2271C144.682 97.7936 144.423 97.4161 144.231 97.0139C144.165 96.879 144.11 96.739 144.067 96.5953C143.554 96.7993 143.016 96.9297 142.467 96.9826C143.373 94.9453 143.143 92.5767 143.565 90.3894L143.511 90.3136C143.083 89.7504 142.841 89.0678 142.817 88.3603C142.817 87.5362 143.197 86.7829 143.368 85.9868C143.512 85.3077 143.508 84.6006 143.697 83.9346C143.829 83.521 144.004 83.1222 144.218 82.7446C144.423 82.3622 144.639 81.988 144.864 81.6188C145.075 80.9199 145.286 80.221 145.497 79.5221C145.793 78.5332 146.097 77.5442 146.673 76.697C146.883 76.3854 146.947 75.7574 147.271 75.5695C147.534 75.4323 147.833 75.3799 148.126 75.4195C148.583 75.1624 148.985 74.7915 149.042 74.2838C149.048 74.1729 149.037 74.0618 149.009 73.9542H148.953C148.228 73.8866 147.863 73.2471 147.487 72.6883C146.877 71.7801 147.11 70.5537 147.487 69.5235C147.58 69.1979 147.749 68.899 147.98 68.6516C148.508 68.1571 149.343 68.2659 150.024 68.0269C150.244 67.9301 150.47 67.8449 150.7 67.7714C151.152 67.6642 151.625 67.8142 152.04 68.0219C152.454 68.2296 152.84 68.5032 153.274 68.6681C153.708 68.8329 154.245 68.9631 154.351 69.4098C154.382 69.5604 154.369 69.7164 154.314 69.8598C154.214 70.1456 154.039 70.3991 153.807 70.5933C153.992 70.9754 154.092 71.3932 154.1 71.8178C154.108 72.2424 154.025 72.6637 153.855 73.0527C153.685 73.4418 153.433 73.7893 153.116 74.0712C152.799 74.3532 152.425 74.5629 152.02 74.686C151.895 74.8855 151.778 75.0915 151.671 75.3008C151.481 75.6701 151.319 76.1052 151.384 76.5008C151.503 76.6266 151.613 76.761 151.712 76.903C152.184 77.5623 152.452 78.337 152.699 79.1084C153.032 80.0931 153.298 81.0992 153.495 82.1199C153.896 82.9737 154.386 83.7912 154.677 84.6896C155.198 84.6908 155.717 84.6215 156.219 84.4835L157.607 84.1671C158.089 84.0583 158.594 83.9396 158.972 83.6198C159.172 83.455 159.329 83.2358 159.532 83.0709C159.736 82.9061 160.146 82.7165 160.369 82.8517C160.41 82.8766 160.448 82.9059 160.483 82.9391C160.685 82.527 161.979 84.2132 161.094 84.3797L161.152 84.5445C161.269 84.8857 161.517 85.3011 161.455 85.6571L155.279 87.7818C154.883 87.9427 154.463 88.0358 154.036 88.0571C153.869 88.0557 153.703 88.0335 153.542 87.9911V88.3076V88.3191C153.526 90.4932 153.871 92.6542 153.935 94.8266C153.947 95.2222 153.935 95.6508 153.685 95.9607C153.406 96.3002 152.909 96.3661 152.477 96.2903C152.374 96.2737 152.272 96.2511 152.171 96.2227C152.025 96.7691 151.919 97.3255 151.855 97.8875L151.446 100.815C151.393 101.116 151.371 101.422 151.382 101.728C151.43 102.417 151.793 103.037 152.056 103.675C152.319 104.313 152.475 105.076 152.128 105.671C152.021 105.855 151.872 106.014 151.775 106.205C151.652 106.5 151.595 106.82 151.61 107.139C151.585 108.03 151.561 108.919 151.538 109.806C151.61 109.796 151.683 109.811 151.745 109.849C152.087 110.115 152.049 111.387 152.074 111.781C152.1 112.44 152.074 113.113 152.11 113.779C152.155 114.679 152.303 115.571 152.551 116.438C152.61 116.719 152.74 116.98 152.927 117.197C153.12 117.364 153.348 117.484 153.595 117.545C154.415 117.802 155.272 117.919 156.13 117.891C156.477 117.88 156.839 117.847 157.161 117.979C157.484 118.111 157.744 118.473 157.627 118.803C157.526 119.08 157.222 119.212 156.948 119.315C156.32 119.536 155.715 119.816 155.139 120.15C154.917 120.301 154.683 120.434 154.439 120.547C154.205 120.631 153.964 120.691 153.718 120.725L150.805 121.219C150.208 121.323 149.489 121.384 149.11 120.89C148.904 120.623 148.874 120.26 148.884 119.922C148.901 119.263 149.032 118.592 148.945 117.933C148.881 117.542 148.78 117.159 148.641 116.789L147.766 114.197C147.473 113.329 147.178 112.454 147.064 111.544C147.023 111.214 147.026 110.84 147.278 110.634C147.341 110.582 147.415 110.543 147.495 110.522C147.505 109.727 147.608 108.931 147.564 108.137C147.552 107.939 147.533 107.739 147.516 107.542C147.362 107.686 147.226 107.847 147.108 108.023C146.829 108.463 146.725 109.047 146.296 109.342C145.931 109.592 145.39 109.579 145.134 109.942C145.051 110.081 144.989 110.231 144.95 110.388C144.8 110.776 144.576 111.132 144.292 111.435C144.193 111.796 144.057 112.147 143.886 112.48C143.643 112.991 143.402 113.502 143.162 114.013C142.904 114.56 142.644 115.107 142.34 115.625C142.109 115.953 141.924 116.312 141.789 116.69C141.557 117.504 141.934 118.397 142.534 118.997C143.134 119.597 143.922 119.942 144.698 120.263C144.781 120.29 144.856 120.335 144.92 120.395C144.987 120.475 145.022 120.577 145.019 120.682C145.019 121.063 144.708 121.389 144.349 121.506C143.983 121.605 143.599 121.619 143.226 121.547C141.125 121.292 139.03 120.778 137.172 119.754C136.894 119.621 136.648 119.431 136.449 119.195C136.355 119.078 136.294 118.938 136.271 118.79C136.249 118.641 136.266 118.489 136.321 118.35Z" fill="url(#paint1_linear)"/>
        <path d="M145.202 81.3867C144.853 81.9252 144.524 82.4779 144.216 83.0449C144.001 83.4188 143.826 83.8144 143.694 84.2251C143.502 84.8844 143.509 85.5899 143.366 86.2624C143.201 87.0536 142.816 87.8085 142.816 88.6178C142.841 89.3212 143.083 89.9994 143.51 90.5579C143.936 91.1107 144.423 91.6138 144.961 92.0579C146.202 88.8334 146.896 85.423 147.013 81.9686C147.029 81.4906 147.031 80.9961 146.858 80.551C146.749 80.2708 146.238 79.5027 145.908 79.8044C145.788 79.9148 145.756 80.4126 145.682 80.5774C145.544 80.8594 145.383 81.13 145.202 81.3867Z" fill="#F86D70"/>
        <path opacity="0.1" d="M145.202 81.3867C144.853 81.9252 144.524 82.4779 144.216 83.0449C144.001 83.4188 143.826 83.8144 143.694 84.2251C143.502 84.8844 143.509 85.5899 143.366 86.2624C143.201 87.0536 142.816 87.8085 142.816 88.6178C142.841 89.3212 143.083 89.9994 143.51 90.5579C143.936 91.1107 144.423 91.6138 144.961 92.0579C146.202 88.8334 146.896 85.423 147.013 81.9686C147.029 81.4906 147.031 80.9961 146.858 80.551C146.749 80.2708 146.238 79.5027 145.908 79.8044C145.788 79.9148 145.756 80.4126 145.682 80.5774C145.544 80.8594 145.383 81.13 145.202 81.3867Z" fill="black"/>
        <path d="M162.852 83.1881C163.495 83.0809 164.209 83.1337 164.709 83.5507C165.01 83.8075 165.201 84.1713 165.241 84.566C165.284 85.0243 165.019 85.5649 164.562 85.6012C164.452 85.6024 164.342 85.5952 164.233 85.5797C163.945 85.5779 163.656 85.6017 163.372 85.6506C162.812 85.7033 162.247 85.6206 161.725 85.4095C161.203 85.1985 160.74 84.8651 160.373 84.4375C159.981 83.9529 160.498 83.7303 160.963 83.6314C161.598 83.4963 162.218 83.2968 162.852 83.1881Z" fill="#FBBEBE"/>
        <path d="M151.857 98.0756L151.45 100.98C151.397 101.279 151.376 101.583 151.387 101.887C151.435 102.571 151.797 103.185 152.06 103.818C152.323 104.451 152.481 105.208 152.134 105.796C152.027 105.981 151.876 106.136 151.78 106.325C151.657 106.619 151.601 106.937 151.616 107.255L151.504 111.376C150.235 111.462 148.961 111.455 147.693 111.354C147.643 111.359 147.593 111.346 147.551 111.318C147.518 111.275 147.501 111.222 147.503 111.168C147.448 110.204 147.615 109.238 147.561 108.274C147.541 107.921 147.49 107.57 147.485 107.215C147.464 105.78 148.173 104.374 147.959 102.953C147.892 102.595 147.804 102.242 147.696 101.895C147.02 99.4223 147.163 96.8229 147.311 94.2713C147.31 94.2304 147.321 94.19 147.344 94.156C147.369 94.1319 147.4 94.1149 147.434 94.1065C148.154 93.8908 148.915 93.8517 149.652 93.9926C150.39 94.1334 151.083 94.4501 151.673 94.9158C151.852 95.0609 152.305 95.201 152.423 95.3724C152.587 95.6147 152.37 95.8537 152.277 96.1108C152.067 96.7488 151.927 97.4075 151.857 98.0756Z" fill="#3F3D56"/>
        <path opacity="0.1" d="M151.857 98.0756L151.45 100.98C151.397 101.279 151.376 101.583 151.387 101.887C151.435 102.571 151.797 103.185 152.06 103.818C152.323 104.451 152.481 105.208 152.134 105.796C152.027 105.981 151.876 106.136 151.78 106.325C151.657 106.619 151.601 106.937 151.616 107.255L151.504 111.376C150.235 111.462 148.961 111.455 147.693 111.354C147.643 111.359 147.593 111.346 147.551 111.318C147.518 111.275 147.501 111.222 147.503 111.168C147.448 110.204 147.615 109.238 147.561 108.274C147.541 107.921 147.49 107.57 147.485 107.215C147.464 105.78 148.173 104.374 147.959 102.953C147.892 102.595 147.804 102.242 147.696 101.895C147.02 99.4223 147.163 96.8229 147.311 94.2713C147.31 94.2304 147.321 94.19 147.344 94.156C147.369 94.1319 147.4 94.1149 147.434 94.1065C148.154 93.8908 148.915 93.8517 149.652 93.9926C150.39 94.1334 151.083 94.4501 151.673 94.9158C151.852 95.0609 152.305 95.201 152.423 95.3724C152.587 95.6147 152.37 95.8537 152.277 96.1108C152.067 96.7488 151.927 97.4075 151.857 98.0756Z" fill="black"/>
        <path d="M144.232 97.199C144.424 97.5995 144.682 97.9737 144.796 98.4039C145.097 99.5396 144.322 100.711 144.414 101.875C144.444 102.243 144.557 102.6 144.565 102.968C144.574 103.336 144.439 103.744 144.113 103.912C143.895 104.026 143.62 104.015 143.414 104.143C143.068 104.354 143.028 104.839 143.063 105.243C143.097 105.647 143.153 106.101 142.898 106.42C142.702 106.665 142.367 106.759 142.157 106.992C142.031 107.159 141.924 107.34 141.838 107.531C141.524 108.079 140.951 108.417 140.481 108.849C140.011 109.281 139.613 109.914 139.823 110.511C139.978 110.951 140.412 111.221 140.83 111.427C141.592 111.805 142.396 112.09 143.225 112.276C143.314 112.302 143.409 112.307 143.5 112.289C143.592 112.255 143.675 112.198 143.74 112.124C144.225 111.648 144.727 111.149 144.95 110.507C144.99 110.352 145.052 110.202 145.134 110.064C145.391 109.705 145.93 109.716 146.297 109.469C146.724 109.177 146.828 108.597 147.107 108.16C147.372 107.748 147.796 107.465 148.094 107.079C148.587 106.439 148.72 105.587 149.081 104.857C149.233 104.545 149.429 104.257 149.551 103.932C149.674 103.546 149.749 103.145 149.776 102.741C150.008 100.815 150.598 98.8769 150.227 96.9715C150.144 96.5512 150.018 96.1473 149.965 95.7155C149.873 94.9672 150.018 94.204 149.908 93.4573C149.905 93.364 149.882 93.2724 149.839 93.1896C149.795 93.1068 149.734 93.0349 149.659 92.9793C149.57 92.9397 149.474 92.9194 149.377 92.92C148.402 92.8691 147.424 92.8917 146.453 92.9875C145.96 93.0353 145.406 93.1359 145.111 93.5397C144.86 93.8842 144.873 94.349 144.782 94.7694C144.684 95.2853 144.422 95.5688 144.148 95.9743C143.873 96.3797 144.029 96.7819 144.232 97.199Z" fill="#3F3D56"/>
        <path d="M148.024 110.593C147.764 110.593 147.477 110.578 147.276 110.743C147.026 110.947 147.021 111.325 147.062 111.648C147.177 112.55 147.472 113.418 147.766 114.285L148.641 116.858C148.779 117.225 148.881 117.605 148.945 117.992C149.032 118.652 148.901 119.311 148.884 119.97C148.884 120.3 148.906 120.666 149.111 120.931C149.483 121.409 150.208 121.353 150.805 121.251L153.717 120.756C153.962 120.723 154.203 120.664 154.437 120.58C154.68 120.468 154.914 120.335 155.136 120.184C155.712 119.854 156.317 119.578 156.944 119.36C157.217 119.258 157.523 119.126 157.622 118.851C157.738 118.521 157.479 118.16 157.156 118.027C156.834 117.893 156.474 117.928 156.125 117.939C155.268 117.967 154.412 117.851 153.593 117.595C153.346 117.536 153.117 117.417 152.926 117.25C152.737 117.036 152.607 116.777 152.548 116.497C152.301 115.638 152.153 114.753 152.107 113.86C152.074 113.201 152.097 112.541 152.071 111.882C152.054 111.491 152.092 110.234 151.742 109.965C151.48 109.764 150.403 110.319 150.052 110.4C149.386 110.549 148.705 110.614 148.024 110.593Z" fill="#2F2E41"/>
        <path d="M138.43 112.426C138.147 113.372 138.101 114.369 137.919 115.34C137.736 116.311 137.409 117.303 136.69 117.977C136.55 118.088 136.43 118.222 136.334 118.373C136.273 118.514 136.252 118.669 136.274 118.821C136.296 118.973 136.359 119.117 136.457 119.235C136.655 119.469 136.901 119.659 137.179 119.79C139.035 120.806 141.125 121.317 143.231 121.571C143.603 121.642 143.986 121.628 144.353 121.531C144.711 121.409 145.028 121.086 145.022 120.707C145.025 120.603 144.99 120.502 144.923 120.423C144.859 120.365 144.783 120.32 144.701 120.293C143.925 119.973 143.136 119.624 142.537 119.036C141.939 118.447 141.561 117.552 141.792 116.751C141.928 116.376 142.113 116.021 142.342 115.694C142.643 115.176 142.917 114.642 143.164 114.096L143.887 112.574C144.098 112.131 144.313 111.673 144.348 111.18C143.439 111.221 142.532 111.076 141.682 110.753C141.285 110.59 140.915 110.368 140.586 110.093C140.306 109.859 140.051 109.424 139.675 109.729C139.372 109.973 139.181 110.659 139.002 111.008C138.775 111.465 138.584 111.939 138.43 112.426Z" fill="#2F2E41"/>
        <path d="M149.029 74.6498C148.957 75.2811 148.345 75.6998 147.762 75.9487L151.455 77.1322C151.216 76.6739 151.41 76.1135 151.647 75.6487C151.84 75.2812 152.06 74.9286 152.305 74.5938C152.341 74.5427 152.382 74.4768 152.356 74.4191C152.332 74.3803 152.295 74.3516 152.252 74.3383C151.493 73.9988 150.71 73.6477 149.88 73.524C149.639 73.4878 149.186 73.3922 149.006 73.6378C148.827 73.8834 149.069 74.3581 149.029 74.6498Z" fill="#FBBEBE"/>
        <path opacity="0.1" d="M149.029 74.6498C148.957 75.2811 148.345 75.6998 147.762 75.9487L151.455 77.1322C151.216 76.6739 151.41 76.1135 151.647 75.6487C151.84 75.2812 152.06 74.9286 152.305 74.5938C152.341 74.5427 152.382 74.4768 152.356 74.4191C152.332 74.3803 152.295 74.3516 152.252 74.3383C151.493 73.9988 150.71 73.6477 149.88 73.524C149.639 73.4878 149.186 73.3922 149.006 73.6378C148.827 73.8834 149.069 74.3581 149.029 74.6498Z" fill="black"/>
        <path d="M151.182 75.1626C152.782 75.1626 154.08 73.8623 154.08 72.2583C154.08 70.6543 152.782 69.354 151.182 69.354C149.582 69.354 148.285 70.6543 148.285 72.2583C148.285 73.8623 149.582 75.1626 151.182 75.1626Z" fill="#FBBEBE"/>
        <path d="M153.686 96.1539C153.406 96.4836 152.911 96.5561 152.479 96.4836C151.468 96.3187 150.639 95.572 149.651 95.3034C148.437 94.9737 147.152 95.3973 146.007 95.9149C144.863 96.4325 143.722 97.0605 142.469 97.1594C143.602 94.6276 142.954 91.5799 144.036 89.0266C144.302 88.4036 144.672 87.8003 144.731 87.1261C144.805 86.2871 144.388 85.4778 144.323 84.6421C144.264 83.8988 144.488 83.1587 144.7 82.4515L145.494 79.839C145.79 78.8665 146.094 77.8759 146.668 77.0369C146.879 76.7286 146.944 76.1056 147.267 75.9177C147.97 75.5122 149.038 76.0248 149.8 76.0528C150.563 76.0809 151.259 76.6248 151.705 77.2396C152.176 77.889 152.444 78.6621 152.691 79.4269C153.085 80.5654 153.379 81.7364 153.569 82.9263C153.594 83.1043 153.615 83.2823 153.632 83.462C153.796 85.1548 153.556 86.8575 153.543 88.5569C153.543 88.5569 153.543 88.5569 153.543 88.57C153.528 90.726 153.872 92.8705 153.937 95.0265C153.947 95.427 153.937 95.8572 153.686 96.1539Z" fill="#F86D70"/>
        <path opacity="0.1" d="M153.539 88.5715C152.972 88.4281 152.457 88.0622 152.018 87.66C151.637 87.3198 151.298 86.9352 151.009 86.5144C150.644 85.9394 150.352 85.3216 150.139 84.6749C149.53 82.958 149.143 81.1698 148.988 79.3542C148.945 78.8597 148.932 78.3306 149.226 77.9383C149.391 77.7257 149.623 77.5752 149.884 77.5114C150.145 77.4477 150.419 77.4744 150.663 77.5872C151.053 77.7784 151.305 78.1625 151.536 78.5284C152 79.2586 152.465 79.9954 152.763 80.8064C152.895 81.1657 152.992 81.5366 153.12 81.8975C153.25 82.2536 153.401 82.6019 153.57 82.9409C153.595 83.1189 153.616 83.297 153.633 83.4766C153.786 85.1612 153.552 86.8639 153.539 88.5715Z" fill="black"/>
        <path d="M149.233 77.6187C148.94 78.0094 148.953 78.5451 148.995 79.0346C149.15 80.8497 149.537 82.6373 150.146 84.3537C150.358 85.0009 150.65 85.6189 151.015 86.1932C151.305 86.6143 151.644 86.9989 152.025 87.3388C152.584 87.8514 153.265 88.308 154.023 88.3146C154.449 88.2936 154.869 88.2017 155.266 88.0426L161.433 85.9427C161.496 85.5883 161.248 85.1779 161.131 84.8383L160.802 83.8592C160.708 83.5905 160.598 83.2988 160.355 83.1521C160.111 83.0054 159.722 83.2065 159.518 83.3697C159.314 83.5329 159.158 83.7471 158.959 83.9136C158.577 84.2301 158.076 84.3471 157.594 84.4559L156.208 84.7691C155.705 84.9057 155.187 84.9744 154.666 84.9735C154.279 83.7916 153.544 82.7499 153.128 81.5763C153 81.217 152.901 80.8461 152.77 80.4868C152.472 79.6758 152.007 78.939 151.545 78.2088C151.313 77.8413 151.061 77.4572 150.672 77.2676C150.428 77.155 150.153 77.1284 149.891 77.1921C149.63 77.2558 149.398 77.4062 149.233 77.6187Z" fill="#F86D70"/>
        <path d="M150.257 72.9126C150.279 72.7222 150.339 72.5379 150.432 72.3703C150.48 72.2862 150.554 72.2197 150.643 72.1803C150.731 72.1409 150.83 72.1307 150.925 72.1511C151.214 72.2417 151.311 72.6917 151.614 72.7066C151.818 72.7165 151.964 72.5088 152.028 72.3126C152.092 72.1165 152.127 71.8972 152.28 71.7588C152.386 71.6786 152.508 71.6224 152.638 71.594C153.34 71.3714 154.065 70.9594 154.299 70.2588C154.353 70.117 154.366 69.9628 154.337 69.8138C154.23 69.3704 153.679 69.2369 153.26 69.0753C152.84 68.9138 152.438 68.6435 152.026 68.4358C151.615 68.2281 151.139 68.0798 150.686 68.1853C150.457 68.2576 150.231 68.3424 150.011 68.4391C149.33 68.6748 148.495 68.566 147.967 69.0572C147.737 69.3028 147.568 69.5993 147.474 69.9226C147.104 70.9462 146.872 72.1643 147.482 73.0642C147.857 73.6197 148.223 74.2543 148.947 74.3203C149.789 74.3961 150.124 73.6247 150.257 72.9126Z" fill="#2F2E41"/>
        <g opacity="0.1">
            <path opacity="0.1" d="M151.544 71.963C151.608 71.7685 151.643 71.5477 151.794 71.4092C151.901 71.3299 152.023 71.2738 152.152 71.2444C152.856 71.0219 153.58 70.6114 153.815 69.9093C153.868 69.7673 153.881 69.613 153.851 69.4642C153.835 69.3938 153.805 69.3272 153.764 69.2681C154.032 69.3834 154.265 69.54 154.331 69.8137C154.36 69.9626 154.347 70.1169 154.293 70.2587C154.06 70.9592 153.335 71.3713 152.633 71.5938C152.503 71.6222 152.38 71.6784 152.274 71.7586C152.121 71.8971 152.087 72.118 152.023 72.3125C151.958 72.507 151.812 72.7163 151.608 72.7064C151.404 72.6965 151.306 72.5103 151.176 72.3537C151.355 72.3306 151.483 72.1427 151.544 71.963Z" fill="black"/>
            <path opacity="0.1" d="M148.465 73.9673C149.31 74.0448 149.644 73.2751 149.781 72.563C149.803 72.3725 149.862 72.1883 149.955 72.0207C150.003 71.9367 150.077 71.8704 150.166 71.8313C150.255 71.7922 150.353 71.7823 150.448 71.8031C150.604 71.8509 150.705 72.0059 150.811 72.1328C150.736 72.14 150.663 72.1646 150.599 72.2046C150.534 72.2447 150.48 72.299 150.44 72.3635C150.347 72.5312 150.288 72.7154 150.266 72.9058C150.132 73.6179 149.797 74.3893 148.95 74.3102C148.615 74.2743 148.305 74.1138 148.082 73.8602C148.203 73.9166 148.332 73.9528 148.465 73.9673Z" fill="black"/>
        </g>
        <path d="M28.0821 107.187L31.2292 105.331C30.8027 104.604 30.2588 103.952 29.6195 103.403L23.6821 105.254L28.3419 102.511C27.19 101.878 25.8937 101.557 24.5805 101.58C23.2673 101.602 21.9825 101.967 20.8526 102.638C19.7226 103.309 18.7865 104.263 18.1363 105.407C17.4862 106.551 17.1443 107.845 17.1445 109.162C17.1445 113.349 20.5301 113.495 24.7081 113.495C28.8862 113.495 32.2717 113.349 32.2717 109.162C32.2708 108.102 32.0467 107.054 31.614 106.086L28.0821 107.187Z" fill="#6C63FF"/>
        <path opacity="0.1" d="M28.8827 111.259C28.5477 110.922 28.1734 110.627 27.7679 110.38C27.1957 110 26.6054 109.611 25.9312 109.482C25.3393 109.368 24.7293 109.464 24.1225 109.431C23.0756 109.367 22.0902 108.914 21.3586 108.16C20.9294 107.715 20.5907 107.171 20.0744 106.827C19.517 106.461 18.81 106.382 18.149 106.472C17.9573 106.501 17.7673 106.54 17.5801 106.589C17.2833 107.415 17.132 108.285 17.1328 109.162C17.1328 113.349 20.5183 113.496 24.6964 113.496C26.7238 113.496 28.5637 113.461 29.9218 112.947L29.6949 112.522C29.4785 112.068 29.2056 111.644 28.8827 111.259Z" fill="black"/>
        <path d="M96.0171 117.788L91.8423 115.327C92.4081 114.361 93.1305 113.496 93.9799 112.769L101.854 115.223L95.6833 111.587C97.2107 110.748 98.9297 110.322 100.671 110.352C102.412 110.381 104.116 110.864 105.615 111.754C107.113 112.644 108.355 113.91 109.217 115.427C110.079 116.943 110.533 118.659 110.533 120.405C110.533 125.958 106.042 126.151 100.503 126.151C94.9631 126.151 90.4727 125.958 90.4727 120.405C90.471 119 90.764 117.61 91.3326 116.326L96.0171 117.788Z" fill="#6C63FF"/>
        <path opacity="0.1" d="M94.9548 123.186C95.3995 122.739 95.8963 122.348 96.4346 122.021C97.1926 121.516 97.9769 121.002 98.8697 120.831C99.6541 120.681 100.463 120.808 101.26 120.761C102.649 120.676 103.956 120.076 104.927 119.078C105.496 118.487 105.945 117.76 106.631 117.31C107.369 116.815 108.306 116.718 109.183 116.84C109.438 116.876 109.69 116.928 109.939 116.995C110.332 118.089 110.532 119.243 110.531 120.405C110.531 125.958 106.04 126.151 100.501 126.151C97.8125 126.151 95.3724 126.107 93.5703 125.424L93.8712 124.861C94.1853 124.272 94.5042 123.681 94.9548 123.186Z" fill="black"/>
    </g>
    <defs>
        <linearGradient id="paint0_linear" x1="90.0814" y1="34.3604" x2="133.595" y2="8.61899" gradientUnits="userSpaceOnUse">
            <stop stop-color="#808080" stop-opacity="0.25"/>
            <stop offset="0.54" stop-color="#808080" stop-opacity="0.12"/>
            <stop offset="1" stop-color="#808080" stop-opacity="0.1"/>
        </linearGradient>
        <linearGradient id="paint1_linear" x1="-35915.3" y1="42872.9" x2="-35206.2" y2="25187.2" gradientUnits="userSpaceOnUse">
            <stop stop-color="#808080" stop-opacity="0.25"/>
            <stop offset="0.54" stop-color="#808080" stop-opacity="0.12"/>
            <stop offset="1" stop-color="#808080" stop-opacity="0.1"/>
        </linearGradient>
        <clipPath id="clip0">
            <rect width="180" height="130" fill="white"/>
        </clipPath>
    </defs>
</svg>
