<svg width="130" height="98" viewBox="0 0 130 98" fill="none" xmlns="http://www.w3.org/2000/svg">
    <g clip-path="url(#clip0)">
        <path d="M62.8964 86.6455C34.9155 84.5312 1.54707 63.0033 3.24591 40.8368C4.94474 18.6704 37.2625 -1.96476 65.2433 0.149582C93.2241 2.26392 109.331 43.6893 107.632 65.8558C105.933 88.0223 90.8772 88.7599 62.8964 86.6455Z" fill="#FBC006"/>
        <path d="M65.2412 90.206C97.4997 90.206 123.65 88.6152 123.65 86.6528C123.65 84.6904 97.4997 83.0996 65.2412 83.0996C32.9827 83.0996 6.83203 84.6904 6.83203 86.6528C6.83203 88.6152 32.9827 90.206 65.2412 90.206Z" fill="#3F3D56"/>
        <path opacity="0.1" d="M65.2399 88.945C92.717 88.945 114.992 87.893 114.992 86.5953C114.992 85.2976 92.717 84.2456 65.2399 84.2456C37.7629 84.2456 15.4883 85.2976 15.4883 86.5953C15.4883 87.893 37.7629 88.945 65.2399 88.945Z" fill="black"/>
        <path d="M24.4942 98.0002C38.0219 98.0002 48.9883 97.0508 48.9883 95.8797C48.9883 94.7086 38.0219 93.7593 24.4942 93.7593C10.9664 93.7593 0 94.7086 0 95.8797C0 97.0508 10.9664 98.0002 24.4942 98.0002Z" fill="#3F3D56"/>
        <path opacity="0.1" d="M24.4964 97.2474C36.0191 97.2474 45.36 96.6196 45.36 95.8451C45.36 95.0707 36.0191 94.4429 24.4964 94.4429C12.9738 94.4429 3.63281 95.0707 3.63281 95.8451C3.63281 96.6196 12.9738 97.2474 24.4964 97.2474Z" fill="black"/>
        <path d="M109.454 18.5684H22.6484V86.1941H109.454V18.5684Z" fill="#3F3D56"/>
        <path d="M65.062 27.8101H43.6472C43.613 27.8101 43.5791 27.8035 43.5475 27.7906C43.5159 27.7777 43.4872 27.7587 43.463 27.7347C43.4388 27.7107 43.4197 27.6822 43.4066 27.6509C43.3935 27.6195 43.3867 27.5859 43.3867 27.552C43.3867 27.5181 43.3935 27.4845 43.4066 27.4531C43.4197 27.4218 43.4388 27.3933 43.463 27.3693C43.4872 27.3454 43.5159 27.3264 43.5475 27.3134C43.5791 27.3005 43.613 27.2939 43.6472 27.2939H65.062C65.1309 27.2941 65.1968 27.3213 65.2455 27.3697C65.2941 27.4181 65.3214 27.4837 65.3214 27.552C65.3214 27.6204 65.2941 27.6859 65.2455 27.7343C65.1968 27.7827 65.1309 27.8099 65.062 27.8101Z" fill="#F2F2F2"/>
        <path d="M88.504 30.6484H54.8224C54.7535 30.6484 54.6874 30.6213 54.6386 30.5729C54.5899 30.5245 54.5625 30.4588 54.5625 30.3904C54.5625 30.3219 54.5899 30.2563 54.6386 30.2079C54.6874 30.1595 54.7535 30.1323 54.8224 30.1323H88.504C88.5382 30.1323 88.572 30.139 88.6035 30.152C88.635 30.1649 88.6637 30.1839 88.6878 30.2079C88.712 30.2319 88.7311 30.2603 88.7442 30.2916C88.7572 30.3229 88.7639 30.3565 88.7639 30.3904C88.7639 30.4243 88.7572 30.4578 88.7442 30.4891C88.7311 30.5204 88.712 30.5489 88.6878 30.5729C88.6637 30.5968 88.635 30.6158 88.6035 30.6288C88.572 30.6418 88.5382 30.6484 88.504 30.6484Z" fill="#F2F2F2"/>
        <path d="M65.1669 33.4873H43.7521C43.6832 33.4873 43.617 33.4601 43.5683 33.4117C43.5196 33.3633 43.4922 33.2977 43.4922 33.2292C43.4922 33.1608 43.5196 33.0952 43.5683 33.0468C43.617 32.9984 43.6832 32.9712 43.7521 32.9712H65.1669C65.2359 32.9712 65.302 32.9984 65.3507 33.0468C65.3995 33.0952 65.4268 33.1608 65.4268 33.2292C65.4268 33.2977 65.3995 33.3633 65.3507 33.4117C65.302 33.4601 65.2359 33.4873 65.1669 33.4873Z" fill="#F2F2F2"/>
        <path d="M88.5068 33.5391H67.0919C67.023 33.5391 66.9569 33.5119 66.9082 33.4635C66.8594 33.4151 66.832 33.3495 66.832 33.281C66.832 33.2126 66.8594 33.1469 66.9082 33.0985C66.9569 33.0501 67.023 33.0229 67.0919 33.0229H88.5068C88.5757 33.0229 88.6418 33.0501 88.6906 33.0985C88.7393 33.1469 88.7667 33.2126 88.7667 33.281C88.7667 33.3495 88.7393 33.4151 88.6906 33.4635C88.6418 33.5119 88.5757 33.5391 88.5068 33.5391Z" fill="#F2F2F2"/>
        <path d="M65.2177 36.3262H43.8029C43.7339 36.3262 43.6678 36.299 43.6191 36.2506C43.5704 36.2022 43.543 36.1366 43.543 36.0681C43.543 35.9997 43.5704 35.934 43.6191 35.8856C43.6678 35.8372 43.7339 35.8101 43.8029 35.8101H65.2177C65.2867 35.8101 65.3528 35.8372 65.4015 35.8856C65.4502 35.934 65.4776 35.9997 65.4776 36.0681C65.4776 36.1366 65.4502 36.2022 65.4015 36.2506C65.3528 36.299 65.2867 36.3262 65.2177 36.3262Z" fill="#F2F2F2"/>
        <path d="M65.2685 39.1646H43.8536C43.7847 39.1646 43.7186 39.1374 43.6699 39.089C43.6211 39.0406 43.5938 38.9749 43.5938 38.9065C43.5938 38.8381 43.6211 38.7724 43.6699 38.724C43.7186 38.6756 43.7847 38.6484 43.8536 38.6484H65.2685C65.3374 38.6484 65.4035 38.6756 65.4522 38.724C65.501 38.7724 65.5284 38.8381 65.5284 38.9065C65.5284 38.9749 65.501 39.0406 65.4522 39.089C65.4035 39.1374 65.3374 39.1646 65.2685 39.1646Z" fill="#F2F2F2"/>
        <path d="M74.9909 27.8618H68.8575C68.7886 27.8618 68.7225 27.8346 68.6738 27.7862C68.625 27.7378 68.5977 27.6722 68.5977 27.6038C68.5977 27.5353 68.625 27.4697 68.6738 27.4213C68.7225 27.3729 68.7886 27.3457 68.8575 27.3457H74.9909C75.0599 27.3457 75.126 27.3729 75.1747 27.4213C75.2234 27.4697 75.2508 27.5353 75.2508 27.6038C75.2508 27.6722 75.2234 27.7378 75.1747 27.7862C75.126 27.8346 75.0599 27.8618 74.9909 27.8618Z" fill="#F2F2F2"/>
        <path d="M74.9909 36.3262H68.8575C68.7886 36.3262 68.7225 36.299 68.6738 36.2506C68.625 36.2022 68.5977 36.1366 68.5977 36.0681C68.5977 35.9997 68.625 35.934 68.6738 35.8856C68.7225 35.8372 68.7886 35.8101 68.8575 35.8101H74.9909C75.0599 35.8101 75.126 35.8372 75.1747 35.8856C75.2234 35.934 75.2508 35.9997 75.2508 36.0681C75.2508 36.1366 75.2234 36.2022 75.1747 36.2506C75.126 36.299 75.0599 36.3262 74.9909 36.3262Z" fill="#F2F2F2"/>
        <path d="M74.9915 39.1133H68.8581C68.8239 39.1134 68.7901 39.1067 68.7585 39.0938C68.7269 39.0809 68.6982 39.0619 68.674 39.0379C68.6498 39.0139 68.6306 38.9855 68.6175 38.9541C68.6044 38.9228 68.5977 38.8892 68.5977 38.8552C68.5977 38.8213 68.6044 38.7877 68.6175 38.7563C68.6306 38.725 68.6498 38.6965 68.674 38.6726C68.6982 38.6486 68.7269 38.6296 68.7585 38.6167C68.7901 38.6037 68.8239 38.5971 68.8581 38.5972H74.9915C75.0257 38.5971 75.0595 38.6037 75.0911 38.6167C75.1227 38.6296 75.1514 38.6486 75.1756 38.6726C75.1998 38.6965 75.219 38.725 75.2321 38.7563C75.2452 38.7877 75.2519 38.8213 75.2519 38.8552C75.2519 38.8892 75.2452 38.9228 75.2321 38.9541C75.219 38.9855 75.1998 39.0139 75.1756 39.0379C75.1514 39.0619 75.1227 39.0809 75.0911 39.0938C75.0595 39.1067 75.0257 39.1134 74.9915 39.1133Z" fill="#F2F2F2"/>
        <path d="M85.2834 39.1133H79.15C79.0811 39.1131 79.0152 39.0859 78.9666 39.0375C78.9179 38.9891 78.8906 38.9236 78.8906 38.8552C78.8906 38.7869 78.9179 38.7213 78.9666 38.6729C79.0152 38.6246 79.0811 38.5973 79.15 38.5972H85.2834C85.3176 38.5971 85.3514 38.6037 85.383 38.6167C85.4146 38.6296 85.4433 38.6486 85.4675 38.6726C85.4917 38.6965 85.5109 38.725 85.524 38.7563C85.5371 38.7877 85.5438 38.8213 85.5438 38.8552C85.5438 38.8892 85.5371 38.9228 85.524 38.9541C85.5109 38.9855 85.4917 39.0139 85.4675 39.0379C85.4433 39.0619 85.4146 39.0809 85.383 39.0938C85.3514 39.1067 85.3176 39.1134 85.2834 39.1133Z" fill="#F2F2F2"/>
        <path d="M49.7292 30.6484H43.5958C43.5269 30.6484 43.4608 30.6213 43.4121 30.5729C43.3633 30.5245 43.3359 30.4588 43.3359 30.3904C43.3359 30.3219 43.3633 30.2563 43.4121 30.2079C43.4608 30.1595 43.5269 30.1323 43.5958 30.1323H49.7292C49.7981 30.1323 49.8642 30.1595 49.913 30.2079C49.9617 30.2563 49.9891 30.3219 49.9891 30.3904C49.9891 30.4588 49.9617 30.5245 49.913 30.5729C49.8642 30.6213 49.7981 30.6484 49.7292 30.6484Z" fill="#F2F2F2"/>
        <path d="M65.0889 69.6157H43.674C43.605 69.6157 43.5389 69.5885 43.4902 69.5402C43.4414 69.4918 43.4141 69.4261 43.4141 69.3577C43.4141 69.2892 43.4414 69.2236 43.4902 69.1752C43.5389 69.1268 43.605 69.0996 43.674 69.0996H65.0889C65.1578 69.0996 65.2239 69.1268 65.2726 69.1752C65.3214 69.2236 65.3488 69.2892 65.3488 69.3577C65.3488 69.4261 65.3214 69.4918 65.2726 69.5402C65.2239 69.5885 65.1578 69.6157 65.0889 69.6157Z" fill="#F2F2F2"/>
        <path d="M64.9834 75.293H43.5685C43.4996 75.293 43.4335 75.2658 43.3847 75.2174C43.336 75.169 43.3086 75.1034 43.3086 75.0349C43.3086 74.9665 43.336 74.9008 43.3847 74.8524C43.4335 74.804 43.4996 74.7769 43.5685 74.7769H64.9834C65.0523 74.7769 65.1184 74.804 65.1671 74.8524C65.2159 74.9008 65.2432 74.9665 65.2432 75.0349C65.2432 75.1034 65.2159 75.169 65.1671 75.2174C65.1184 75.2658 65.0523 75.293 64.9834 75.293Z" fill="#F2F2F2"/>
        <path d="M65.0386 78.1313H43.6237C43.5895 78.1314 43.5557 78.1248 43.5241 78.1119C43.4925 78.0989 43.4638 78.0799 43.4396 78.056C43.4154 78.032 43.3962 78.0035 43.3831 77.9722C43.37 77.9408 43.3633 77.9072 43.3633 77.8733C43.3633 77.8394 43.37 77.8058 43.3831 77.7744C43.3962 77.7431 43.4154 77.7146 43.4396 77.6906C43.4638 77.6667 43.4925 77.6477 43.5241 77.6347C43.5557 77.6218 43.5895 77.6152 43.6237 77.6152H65.0386C65.0728 77.6152 65.1066 77.6218 65.1382 77.6347C65.1698 77.6477 65.1985 77.6667 65.2227 77.6906C65.2469 77.7146 65.2661 77.7431 65.2792 77.7744C65.2923 77.8058 65.299 77.8394 65.299 77.8733C65.299 77.9072 65.2923 77.9408 65.2792 77.9722C65.2661 78.0035 65.2469 78.032 65.2227 78.056C65.1985 78.0799 65.1698 78.0989 65.1382 78.1119C65.1066 78.1248 65.0728 78.1314 65.0386 78.1313Z" fill="#F2F2F2"/>
        <path d="M74.1862 75.3447H68.0529C67.9839 75.3447 67.9178 75.3175 67.8691 75.2691C67.8203 75.2207 67.793 75.1551 67.793 75.0867C67.793 75.0182 67.8203 74.9526 67.8691 74.9042C67.9178 74.8558 67.9839 74.8286 68.0529 74.8286H74.1862C74.2552 74.8286 74.3213 74.8558 74.37 74.9042C74.4188 74.9526 74.4461 75.0182 74.4461 75.0867C74.4461 75.1551 74.4188 75.2207 74.37 75.2691C74.3213 75.3175 74.2552 75.3447 74.1862 75.3447Z" fill="#F2F2F2"/>
        <path d="M74.1862 78.1313H68.0529C67.9839 78.1313 67.9178 78.1042 67.8691 78.0558C67.8203 78.0074 67.793 77.9417 67.793 77.8733C67.793 77.8049 67.8203 77.7392 67.8691 77.6908C67.9178 77.6424 67.9839 77.6152 68.0529 77.6152H74.1862C74.2552 77.6152 74.3213 77.6424 74.37 77.6908C74.4188 77.7392 74.4461 77.8049 74.4461 77.8733C74.4461 77.9417 74.4188 78.0074 74.37 78.0558C74.3213 78.1042 74.2552 78.1313 74.1862 78.1313Z" fill="#F2F2F2"/>
        <path d="M84.4753 75.3447H78.3419C78.273 75.3447 78.2069 75.3175 78.1582 75.2691C78.1094 75.2207 78.082 75.1551 78.082 75.0867C78.082 75.0182 78.1094 74.9526 78.1582 74.9042C78.2069 74.8558 78.273 74.8286 78.3419 74.8286H84.4753C84.5442 74.8286 84.6103 74.8558 84.659 74.9042C84.7078 74.9526 84.7352 75.0182 84.7352 75.0867C84.7352 75.1551 84.7078 75.2207 84.659 75.2691C84.6103 75.3175 84.5442 75.3447 84.4753 75.3447Z" fill="#F2F2F2"/>
        <path d="M88.5314 72.4541H54.8497C54.7808 72.4541 54.7147 72.4269 54.666 72.3785C54.6172 72.3301 54.5898 72.2645 54.5898 72.1961C54.5898 72.1276 54.6172 72.062 54.666 72.0136C54.7147 71.9652 54.7808 71.938 54.8497 71.938H88.5314C88.6003 71.938 88.6664 71.9652 88.7152 72.0136C88.7639 72.062 88.7913 72.1276 88.7913 72.1961C88.7913 72.2645 88.7639 72.3301 88.7152 72.3785C88.6664 72.4269 88.6003 72.4541 88.5314 72.4541Z" fill="#F2F2F2"/>
        <path d="M49.7566 72.4541H43.6232C43.5542 72.4541 43.4881 72.4269 43.4394 72.3785C43.3907 72.3301 43.3633 72.2645 43.3633 72.1961C43.3633 72.1276 43.3907 72.062 43.4394 72.0136C43.4881 71.9652 43.5542 71.938 43.6232 71.938H49.7566C49.8255 71.938 49.8916 71.9652 49.9404 72.0136C49.9891 72.062 50.0165 72.1276 50.0165 72.1961C50.0165 72.2645 49.9891 72.3301 49.9404 72.3785C49.8916 72.4269 49.8255 72.4541 49.7566 72.4541Z" fill="#F2F2F2"/>
        <path d="M88.5319 81.022H54.8503C54.8161 81.0221 54.7823 81.0154 54.7507 81.0025C54.7191 80.9896 54.6903 80.9706 54.6662 80.9466C54.642 80.9226 54.6228 80.8942 54.6097 80.8628C54.5966 80.8315 54.5898 80.7979 54.5898 80.7639C54.5898 80.73 54.5966 80.6964 54.6097 80.665C54.6228 80.6337 54.642 80.6052 54.6662 80.5813C54.6903 80.5573 54.7191 80.5383 54.7507 80.5254C54.7823 80.5124 54.8161 80.5058 54.8503 80.5059H88.5319C88.6008 80.5059 88.667 80.533 88.7157 80.5814C88.7644 80.6298 88.7918 80.6955 88.7918 80.7639C88.7918 80.8324 88.7644 80.898 88.7157 80.9464C88.667 80.9948 88.6008 81.022 88.5319 81.022Z" fill="#F2F2F2"/>
        <path d="M49.7571 81.022H43.6237C43.5895 81.0221 43.5557 81.0154 43.5241 81.0025C43.4925 80.9896 43.4638 80.9706 43.4396 80.9466C43.4154 80.9226 43.3962 80.8942 43.3831 80.8628C43.37 80.8315 43.3633 80.7979 43.3633 80.7639C43.3633 80.73 43.37 80.6964 43.3831 80.665C43.3962 80.6337 43.4154 80.6052 43.4396 80.5813C43.4638 80.5573 43.4925 80.5383 43.5241 80.5254C43.5557 80.5124 43.5895 80.5058 43.6237 80.5059H49.7571C49.7913 80.5058 49.8251 80.5124 49.8567 80.5254C49.8883 80.5383 49.917 80.5573 49.9412 80.5813C49.9654 80.6052 49.9846 80.6337 49.9977 80.665C50.0108 80.6964 50.0175 80.73 50.0175 80.7639C50.0175 80.7979 50.0108 80.8315 49.9977 80.8628C49.9846 80.8942 49.9654 80.9226 49.9412 80.9466C49.917 80.9706 49.8883 80.9896 49.8567 81.0025C49.8251 81.0154 49.7913 81.0221 49.7571 81.022Z" fill="#F2F2F2"/>
        <path d="M59.918 45.9775L51.6016 54.1322L59.918 62.2868L61.7892 60.4288L55.5 54.1838L61.8411 47.8871L59.918 45.9775Z" fill="#6C63FF"/>
        <path d="M72.1848 45.9775L80.5013 54.1322L72.1848 62.2868L70.3137 60.4288L76.603 54.1838L70.2617 47.8871L72.1848 45.9775Z" fill="#6C63FF"/>
        <path d="M24.9569 21.3195C25.5306 21.3195 25.9958 20.8577 25.9958 20.2879C25.9958 19.7182 25.5306 19.2563 24.9569 19.2563C24.3831 19.2563 23.918 19.7182 23.918 20.2879C23.918 20.8577 24.3831 21.3195 24.9569 21.3195Z" fill="#6C63FF"/>
        <path d="M27.7264 21.3195C28.3002 21.3195 28.7653 20.8577 28.7653 20.2879C28.7653 19.7182 28.3002 19.2563 27.7264 19.2563C27.1526 19.2563 26.6875 19.7182 26.6875 20.2879C26.6875 20.8577 27.1526 21.3195 27.7264 21.3195Z" fill="#6C63FF"/>
        <path d="M30.4959 21.3195C31.0697 21.3195 31.5348 20.8577 31.5348 20.2879C31.5348 19.7182 31.0697 19.2563 30.4959 19.2563C29.9222 19.2563 29.457 19.7182 29.457 20.2879C29.457 20.8577 29.9222 21.3195 30.4959 21.3195Z" fill="#6C63FF"/>
        <path opacity="0.1" d="M109.454 22.0068H22.6484V22.3507H109.454V22.0068Z" fill="black"/>
        <path d="M130.002 69.6263C130.002 76.9357 125.626 79.4879 120.228 79.4879C114.829 79.4879 110.453 76.9357 110.453 69.6263C110.453 62.3168 120.228 53.0181 120.228 53.0181C120.228 53.0181 130.002 62.3168 130.002 69.6263Z" fill="#FBC006"/>
        <path d="M119.87 78.3697L119.97 72.2523L124.136 64.6843L119.986 71.2927L120.031 68.5421L122.902 63.0668L120.043 67.8142L120.124 62.8671L123.198 58.508L120.136 62.0892L120.187 53.0181L119.869 65.0267L119.895 64.5313L116.769 59.7802L119.845 65.4823L119.554 71.0073L119.545 70.8606L115.941 65.8608L119.534 71.3787L119.498 72.0696L119.491 72.08L119.494 72.1368L118.755 86.1543H119.742L119.861 78.914L123.445 73.4095L119.87 78.3697Z" fill="#3F3D56"/>
        <path d="M14.1557 86.09C13.8558 86.2558 13.5394 86.3903 13.2116 86.4914C12.6254 86.6505 11.9988 86.5921 11.4066 86.7279C11.1641 86.7835 10.9003 86.8997 10.8232 87.1346C10.7666 87.3069 10.8281 87.493 10.8871 87.6645C11.5414 89.5695 11.9358 91.5921 12.9793 93.3176C13.4179 94.0423 13.9622 94.6985 14.5945 95.2647C14.8317 95.4771 15.1006 95.6847 15.4182 95.7181C15.5645 95.7334 15.7124 95.7101 15.8468 95.6506C15.9812 95.5911 16.0975 95.4974 16.1838 95.379C16.2701 95.2607 16.3234 95.1218 16.3384 94.9764C16.3533 94.831 16.3294 94.6843 16.269 94.551C16.1754 94.3446 16.0015 94.1847 15.8893 93.9876C15.7677 93.7365 15.6964 93.4644 15.6793 93.1863C15.5762 92.3715 15.4769 91.52 15.7612 90.7489C15.9519 90.2317 16.3017 89.7908 16.593 89.3222C16.8844 88.8535 17.1265 88.3167 17.0617 87.7697C17.0175 87.3965 16.8341 87.0549 16.6404 86.732C16.4463 86.4084 16.0627 85.539 15.6727 85.431C15.2679 85.3189 14.5087 85.9103 14.1557 86.09Z" fill="#2F2E41"/>
        <path d="M24.8239 92.6703C24.83 92.8546 24.8041 93.0386 24.7473 93.2142C24.6252 93.5343 24.3224 93.7536 24.1659 94.0586C23.9483 94.4828 24.047 94.9955 24.1911 95.4495C24.2815 95.7341 24.4001 96.0302 24.6428 96.2063C24.8503 96.334 25.0863 96.4091 25.33 96.4249C27.412 96.711 29.5269 96.5468 31.6279 96.6068C32.0108 96.6177 32.4162 96.631 32.7505 96.4452C33.0848 96.2594 33.2914 95.7922 33.0641 95.4861C32.8599 95.2111 32.4563 95.2137 32.1127 95.1975C31.2179 95.1524 30.3658 94.8038 29.6986 94.2101C29.567 94.0984 29.4529 93.968 29.36 93.823C29.2886 93.6944 29.2293 93.5594 29.1829 93.4199C28.8884 92.6277 28.538 91.8571 28.1344 91.1139C28.0214 90.9058 27.8934 90.6892 27.6835 90.5779C27.5298 90.5085 27.363 90.4723 27.1941 90.4718C26.6705 90.4381 25.3145 90.2611 24.9096 90.6654C24.5355 91.039 24.8321 92.1958 24.8239 92.6703Z" fill="#2F2E41"/>
        <path d="M28.0478 46.5006C29.895 46.5006 31.3925 45.0137 31.3925 43.1795C31.3925 41.3453 29.895 39.8584 28.0478 39.8584C26.2006 39.8584 24.7031 41.3453 24.7031 43.1795C24.7031 45.0137 26.2006 46.5006 28.0478 46.5006Z" fill="#FBBEBE"/>
        <path d="M25.0274 45.9218C24.8285 46.4506 24.491 46.9473 24 47.2319L28.6259 48.1689C28.4581 47.4985 28.436 46.8003 28.5611 46.1207C28.607 45.9562 28.6164 45.7838 28.5887 45.6154C28.5018 45.2821 28.124 45.1217 27.7859 45.0452C26.9416 44.8541 26.195 44.7516 25.4104 44.3813C25.1706 44.789 25.2042 45.4518 25.0274 45.9218Z" fill="#FBBEBE"/>
        <path d="M23.9597 45.9884C24.4573 45.7648 24.9995 45.656 25.5456 45.6702C26.0916 45.6843 26.6273 45.8211 27.1125 46.0702C27.7056 46.3805 28.1967 46.849 28.6791 47.3111C29.1238 47.7371 29.5983 48.2249 29.6298 48.8377C29.6451 49.1346 29.5518 49.4249 29.5047 49.7184C29.42 50.3255 29.5276 50.9437 29.8126 51.4873C30.0977 52.031 30.5459 52.4731 31.0953 52.7524C31.4628 53.3602 31.5387 54.0967 31.5443 54.8057C31.5657 57.4919 30.7121 60.2113 31.3215 62.8285C31.4646 63.443 31.6864 64.0382 31.81 64.6569C31.9701 65.4582 31.9622 66.2821 32.046 67.0948C32.1368 67.9749 32.335 68.8407 32.6362 69.6732C32.4349 69.9912 32.0159 70.1131 31.6386 70.0873C31.2613 70.0616 30.9085 69.899 30.5718 69.7279C28.9415 68.8995 27.4483 67.8072 25.7597 67.1032C24.6426 66.6374 23.4525 66.3473 22.3688 65.8093C21.285 65.2714 20.2771 64.4176 19.9458 63.2604C19.8025 62.76 19.7937 62.2328 19.7859 61.7127C19.7529 59.5219 19.7223 57.3071 20.2026 55.1686C20.6261 53.2827 21.4425 51.4785 21.6206 49.5544C21.6786 48.9281 21.6798 48.2576 22.0322 47.735C22.5303 46.9963 23.6059 46.805 23.9597 45.9884Z" fill="#2F2E41"/>
        <path d="M26.1466 43.2265C26.3437 42.9712 26.7238 42.9364 27.0387 43.0119C27.3535 43.0874 27.6439 43.2486 27.9618 43.3098C28.0341 43.3301 28.1099 43.3353 28.1843 43.3249C28.2587 43.3146 28.3301 43.2889 28.3939 43.2495C28.5051 43.1408 28.5716 42.995 28.5804 42.8403C28.6918 42.1822 28.7178 41.5127 28.6579 40.8481C28.6413 40.7549 28.6476 40.6591 28.6762 40.5688C28.7549 40.3804 28.9951 40.3356 29.1913 40.2751C29.5149 40.1665 29.7929 39.9539 29.9813 39.6709C30.1697 39.388 30.2578 39.0507 30.2316 38.7125C30.2267 38.5503 30.1581 38.3964 30.0404 38.2838C29.9047 38.174 29.7149 38.1673 29.5399 38.1659C28.6408 38.1587 27.7417 38.1589 26.8426 38.1665C26.5098 38.1693 26.1604 38.1775 25.8719 38.3422C25.6586 38.464 25.5 38.66 25.3085 38.8135C24.8091 39.2136 24.1336 39.295 23.5261 39.5001C23.2295 39.584 22.9602 39.7434 22.7449 39.9627C22.5428 40.1919 22.4457 40.5327 22.5726 40.81C22.6377 40.9256 22.7105 41.0368 22.7904 41.1429C23.1488 41.7119 22.9102 42.4499 22.9637 43.1189C23.0305 43.9543 24.2756 45.3094 25.1199 45.5071C26.4829 45.8263 25.6954 43.7748 26.1466 43.2265Z" fill="#2F2E41"/>
        <path d="M24.256 79.8539C24.342 80.4639 24.4523 81.0759 24.4229 81.6912C24.3817 82.5501 24.0697 83.3776 24.0121 84.2356C23.969 84.8765 24.0686 85.5242 23.979 86.1603C23.9216 86.5675 23.7879 86.9601 23.7051 87.3631C23.5739 88.0197 23.5776 88.6958 23.7159 89.351C23.8542 90.0062 24.1243 90.6269 24.51 91.1759C24.5666 91.2699 24.6472 91.3474 24.7435 91.4007C24.836 91.4347 24.9349 91.4477 25.033 91.4388C26.0065 91.4191 26.9774 91.3315 27.9385 91.1766C28.0089 91.1737 28.0755 91.1445 28.1251 91.0948C28.1467 91.0619 28.1606 91.0245 28.1656 90.9855C28.3438 90.0759 27.9374 89.1638 27.8341 88.2428C27.7237 87.2594 27.9614 86.2739 28.1972 85.3126C28.3042 84.8383 28.4378 84.3704 28.5975 83.911C28.7115 83.6019 28.8492 83.3012 28.948 82.9869C29.088 82.4931 29.1732 81.9857 29.2022 81.4736C29.2708 80.6655 29.3072 79.8556 29.3113 79.0438C29.3346 78.2745 29.2701 77.5051 29.119 76.7502C28.9023 75.7945 28.4583 74.9071 28.0183 74.0303C27.783 74.0863 27.5621 74.1905 27.3698 74.3363C26.8027 74.701 26.2107 75.0258 25.5979 75.3084C25.1862 75.4983 24.3833 75.6331 24.122 76.0288C23.8643 76.4191 24.0306 77.2152 24.0503 77.6456C24.0841 78.3844 24.1527 79.1204 24.256 79.8539Z" fill="#2F2E41"/>
        <path opacity="0.1" d="M24.256 79.8539C24.342 80.4639 24.4523 81.0759 24.4229 81.6912C24.3817 82.5501 24.0697 83.3776 24.0121 84.2356C23.969 84.8765 24.0686 85.5242 23.979 86.1603C23.9216 86.5675 23.7879 86.9601 23.7051 87.3631C23.5739 88.0197 23.5776 88.6958 23.7159 89.351C23.8542 90.0062 24.1243 90.6269 24.51 91.1759C24.5666 91.2699 24.6472 91.3474 24.7435 91.4007C24.836 91.4347 24.9349 91.4477 25.033 91.4388C26.0065 91.4191 26.9774 91.3315 27.9385 91.1766C28.0089 91.1737 28.0755 91.1445 28.1251 91.0948C28.1467 91.0619 28.1606 91.0245 28.1656 90.9855C28.3438 90.0759 27.9374 89.1638 27.8341 88.2428C27.7237 87.2594 27.9614 86.2739 28.1972 85.3126C28.3042 84.8383 28.4378 84.3704 28.5975 83.911C28.7115 83.6019 28.8492 83.3012 28.948 82.9869C29.088 82.4931 29.1732 81.9857 29.2022 81.4736C29.2708 80.6655 29.3072 79.8556 29.3113 79.0438C29.3346 78.2745 29.2701 77.5051 29.119 76.7502C28.9023 75.7945 28.4583 74.9071 28.0183 74.0303C27.783 74.0863 27.5621 74.1905 27.3698 74.3363C26.8027 74.701 26.2107 75.0258 25.5979 75.3084C25.1862 75.4983 24.3833 75.6331 24.122 76.0288C23.8643 76.4191 24.0306 77.2152 24.0503 77.6456C24.0841 78.3844 24.1527 79.1204 24.256 79.8539Z" fill="black"/>
        <path d="M19.7355 66.8252C19.2913 68.0126 19.9442 69.2957 20.5114 70.4302C21.9089 73.2254 22.8793 76.2079 23.8445 79.1777C23.9168 79.4002 23.989 79.6428 23.9084 79.8625C23.8388 80.0185 23.7258 80.1516 23.5827 80.2461C22.9172 80.748 22.0698 80.9268 21.277 81.1894C20.5108 81.4433 19.777 81.7849 19.0904 82.2072C18.5159 82.5607 17.9777 82.9687 17.4406 83.3761L15.7308 84.6727C15.6201 84.747 15.5234 84.8399 15.445 84.9474C15.2801 85.2043 15.3477 85.5397 15.4298 85.8332C15.6472 86.6104 15.9271 87.369 16.2669 88.1018C16.3228 88.2624 16.4292 88.4009 16.5705 88.4968C16.8374 88.6392 17.1638 88.4504 17.3676 88.2278C17.5714 88.0052 17.7476 87.7282 18.0349 87.6326C18.3218 87.5371 18.6376 87.6527 18.9373 87.611C19.422 87.5434 19.7438 87.1001 20.0931 86.7597C21.5205 85.3692 23.9036 85.4701 25.4737 84.2407C25.7007 84.039 25.941 83.8527 26.193 83.6828C26.4584 83.527 26.7595 83.4415 27.0349 83.3038C27.8725 82.8849 28.3991 82.0191 28.6812 81.1309C28.9633 80.2428 29.0438 79.3053 29.2465 78.396C29.3513 77.926 29.4892 77.461 29.5358 76.9818C29.5658 76.5361 29.5561 76.0886 29.5066 75.6446L28.9401 68.6855C28.8939 68.1189 28.8477 67.5516 28.7582 66.9901C27.0756 67.0499 25.3941 67.1171 23.7105 67.1369C22.3709 67.1526 21.0066 67.2456 19.7355 66.8252Z" fill="#2F2E41"/>
        <path d="M19.1156 68.4532C19.3439 68.8177 19.8994 68.8101 20.282 68.6103C20.6645 68.4104 20.9617 68.0747 21.3452 67.8766C21.8605 67.6103 22.4702 67.6204 23.0509 67.6366C23.9701 67.6624 24.9007 67.6899 25.7851 67.94C26.6999 68.1987 27.5904 68.6969 28.5363 68.5975C28.7009 68.5802 28.8809 68.5333 28.9705 68.3951C29.023 68.295 29.0477 68.1828 29.042 68.0701L29.0729 67.2495C29.0919 67.1076 29.0691 66.9633 29.0072 66.834C28.9278 66.7264 28.819 66.6437 28.6937 66.5956C27.3473 65.9485 25.8119 65.828 24.317 65.7771C23.5571 65.7513 22.7969 65.7406 22.0363 65.7452C21.3909 65.7491 20.6162 65.6564 19.9887 65.8276C19.1466 66.0575 18.6884 67.7709 19.1156 68.4532Z" fill="#2F2E41"/>
        <path d="M27.5692 46.9628C25.8051 46.9473 24.2065 45.7911 22.4426 45.7629C22.2295 45.7483 22.0159 45.7849 21.8201 45.8696C21.5743 45.9925 21.4127 46.2302 21.226 46.431C20.7044 46.9918 19.9492 47.2913 19.4133 47.8387C18.9109 48.3519 18.6315 49.1166 18.8299 49.8047C19.0282 50.4929 19.7768 51.0207 20.4781 50.8552C20.7607 49.9471 21.3439 49.1604 22.1331 48.6225C22.5437 48.361 22.9765 48.1354 23.4266 47.9483C24.2193 47.5917 25.1058 47.2282 25.9335 47.4955C26.2387 47.61 26.5266 47.7658 26.7888 47.9586L28.1686 48.879C28.0079 48.2493 27.8633 47.5431 27.5692 46.9628Z" fill="#6C63FF"/>
        <path d="M20.2748 50.2463C20.0406 50.5364 20.378 50.9569 20.3264 51.3252C20.292 51.5699 20.0892 51.7568 20.0048 51.9892C19.9173 52.23 19.9637 52.4966 19.9305 52.7504C19.8972 52.935 19.8479 53.1164 19.7833 53.2925C19.6347 53.8188 19.5309 54.3566 19.4732 54.9002L19.1644 57.1898C19.1108 57.5343 19.0782 57.8818 19.0668 58.2303C19.0823 58.4907 19.0648 58.7521 19.0146 59.0082C18.9462 59.2584 18.7948 59.4773 18.693 59.716C18.5911 59.9547 18.5439 60.2435 18.6815 60.4638C18.2207 60.8449 18.0837 61.5933 18.4059 62.0954C18.4672 62.1737 18.5152 62.2614 18.5479 62.3551C18.5657 62.486 18.544 62.6193 18.4854 62.7379L18.1732 63.564C18.0932 63.7754 18.068 64.0973 18.2902 64.1456C18.1061 64.3354 17.9627 64.5602 17.8687 64.8066C17.823 64.9303 17.8094 65.0633 17.829 65.1936C17.8486 65.3239 17.9009 65.4472 17.9809 65.5522C18.0585 65.6198 18.1246 65.6994 18.1765 65.7879C18.2071 65.9113 18.1992 66.0409 18.1539 66.1597C18.1072 66.3401 18.0982 66.528 18.1275 66.712C18.1567 66.896 18.2236 67.0721 18.3239 67.2295C18.4279 67.3847 18.5752 67.5065 18.7478 67.5799C18.9204 67.6534 19.1108 67.6753 19.2957 67.6431C19.9203 67.5032 20.4815 67.2824 21.1112 67.3971C22.4671 67.6442 23.8273 67.8923 25.1405 68.3086C26.6393 68.7837 28.0905 69.4805 29.6569 69.6268C29.76 69.6477 29.8672 69.6311 29.959 69.5801C30.0388 69.505 30.0884 69.4037 30.0987 69.295C30.26 68.5437 30.4214 67.7923 30.5828 67.041C30.7779 66.2082 30.9264 65.3653 31.0278 64.5162C31.0829 63.9682 31.0986 63.4171 31.1143 62.8666L31.2391 58.4845C31.2975 57.8387 31.2108 57.188 30.9851 56.5796L30.2674 54.3046C29.8578 53.0063 28.9183 51.855 28.5837 50.5357C28.372 49.7007 28.2156 48.8046 27.6478 48.1538C26.8384 47.2259 25.4379 47.0816 24.2121 47.2411C23.6583 47.3132 23.0998 47.4376 22.6208 47.7227C22.067 48.0525 21.6589 48.5719 21.2642 49.0794C20.9388 49.4977 20.6077 49.8339 20.2748 50.2463Z" fill="#6C63FF"/>
        <path d="M23.1379 63.1354C23.2389 63.5678 23.451 63.9665 23.5808 64.3913C23.7983 65.1029 23.7799 65.8694 23.997 66.5812C24.0881 66.8799 24.2201 67.1668 24.2855 67.4721C24.438 68.1839 24.2154 68.9204 23.9388 69.5944C23.6622 70.2683 23.3254 70.9329 23.2357 71.6552C23.1724 72.1639 23.2633 72.7384 23.6582 73.0685C24.0682 73.4113 24.664 73.388 25.1979 73.3424C25.3896 73.3371 25.5789 73.298 25.7568 73.2269C26.1651 73.0351 26.3371 72.5552 26.4326 72.1168C26.7525 70.6475 26.6611 69.1245 26.5681 67.6241L26.325 63.7002C26.2782 62.9447 26.2281 62.1736 25.9936 61.4483C25.9084 61.1844 25.7597 60.6512 25.517 60.4828C25.2766 60.3159 24.5901 60.3085 24.2924 60.2946C22.8959 60.2295 22.9116 62.1649 23.1379 63.1354Z" fill="#FBBEBE"/>
        <path d="M24.6861 48.6472C24.4009 48.4989 24.0416 48.5629 23.7659 48.728C23.4997 48.9089 23.2666 49.1337 23.0765 49.3926C22.4602 50.1395 21.8078 50.9966 21.8992 51.958C21.9335 52.3184 22.0725 52.6595 22.1667 53.0093C22.5799 54.5429 22.123 56.1648 22.1754 57.7514C22.2057 58.6683 22.4067 59.57 22.6067 60.4656C22.6476 60.6483 22.713 60.8599 22.891 60.9215C23.0248 60.9677 23.1693 60.9082 23.3016 60.8583C23.7948 60.6773 24.3246 60.6169 24.8463 60.6822C25.368 60.7475 25.8661 60.9365 26.2986 61.2333C26.6294 61.0581 26.5054 60.5041 26.4313 60.1392C26.211 59.0552 26.51 57.9369 26.8732 56.8914C27.2364 55.846 27.6709 54.8019 27.7311 53.6976C27.7993 52.4464 27.3815 51.2252 26.9693 50.0409C26.8793 49.7824 26.7809 49.5113 26.5723 49.3327C26.3937 49.2008 26.189 49.108 25.9717 49.0603C25.5339 48.9318 25.0906 48.8575 24.6861 48.6472Z" fill="#2F2E41"/>
    </g>
    <defs>
        <clipPath id="clip0">
            <rect width="130" height="98" fill="white"/>
        </clipPath>
    </defs>
</svg>
