<svg width="199" height="142" viewBox="0 0 199 142" fill="none" xmlns="http://www.w3.org/2000/svg">
    <g clip-path="url(#clip0)">
        <path opacity="0.1" d="M195.848 95.4656C191.233 104.958 181.861 111.306 172.149 115.492C159.073 121.129 144.674 123.365 130.473 122.419C127.985 122.254 125.503 121.99 123.03 121.628C114.439 120.378 106.063 117.946 98.1419 114.402C95.8559 113.376 93.6162 112.255 91.4227 111.041C87.7592 109.016 84.2489 106.727 80.9201 104.193C80.0828 103.555 79.2571 102.902 78.4429 102.232C77.8784 101.768 77.319 101.293 76.751 100.833C75.5524 99.8612 74.319 98.9381 72.9432 98.2471C72.5281 98.0384 72.1025 97.8511 71.6681 97.6859C67.3114 96.0337 62.2877 96.6572 57.752 97.9457C54.3021 98.926 50.939 100.268 47.4925 101.226C45.9595 101.665 44.3975 101.996 42.8179 102.217C39.2914 102.662 35.7101 102.348 32.3153 101.297L32.0252 101.207C31.5388 101.054 31.0564 100.888 30.5781 100.706L30.288 100.596C29.8248 100.418 29.3714 100.227 28.9279 100.022L28.6378 99.8906C28.1745 99.6759 27.7212 99.449 27.2776 99.21C27.1178 99.1269 26.9597 99.0368 26.8034 98.9519C24.2798 97.5467 21.9859 95.7661 20.0008 93.6714C19.9435 93.6142 19.8896 93.5554 19.8271 93.4982C19.5509 93.2003 19.2799 92.8972 19.0176 92.5872C18.9203 92.4729 18.823 92.3586 18.7275 92.2408C18.4159 91.8621 18.1154 91.4748 17.8259 91.0787C17.7825 91.0216 17.7408 90.9627 17.6991 90.9055C16.5129 89.2695 15.5295 87.4964 14.7703 85.625C14.746 85.5678 14.7234 85.5089 14.7025 85.4518C14.4709 84.8572 14.2596 84.2527 14.0685 83.6385C13.9903 83.3822 13.9156 83.1189 13.8496 82.8626C13.827 82.7864 13.8062 82.7085 13.7871 82.6323C12.8282 78.8689 12.7188 74.9565 12.7188 71.0667C12.7188 70.6129 12.7188 70.1597 12.7188 69.7071C12.7465 63.4151 12.8438 57.0158 13.7749 50.8104C13.7749 50.7671 13.7871 50.7238 13.794 50.6822C14.1057 48.5932 14.5296 46.5223 15.0639 44.4786C15.6231 42.3341 16.3378 40.233 17.2023 38.1918C19.3442 33.1693 22.4588 28.5988 25.9174 24.3626C34.6291 13.7027 46.0542 4.75402 59.4266 1.40453C73.8361 -2.20301 89.8506 1.25386 101.474 10.4797C105.017 13.2923 108.202 16.6227 112.181 18.7789C115.656 20.6563 119.722 21.4339 123.443 19.9566C126.518 18.7356 128.519 18.1295 131.972 18.3148C139.122 18.718 146.17 20.1898 152.881 22.6809C153.152 22.7796 153.423 22.8818 153.692 22.984C171.186 29.657 186.225 42.9147 194.042 59.9513C194.249 60.4016 194.45 60.8554 194.645 61.3126C199.305 72.1664 200.99 84.8872 195.848 95.4656Z" fill="#6C63FF"/>
        <path opacity="0.1" d="M20.8979 128.678C29.3673 128.678 36.2332 127.579 36.2332 126.222C36.2332 124.866 29.3673 123.767 20.8979 123.767C12.4284 123.767 5.5625 124.866 5.5625 126.222C5.5625 127.579 12.4284 128.678 20.8979 128.678Z" fill="#6C63FF"/>
        <path opacity="0.1" d="M158.472 142C173.49 142 185.664 140.821 185.664 139.367C185.664 137.913 173.49 136.735 158.472 136.735C143.455 136.735 131.281 137.913 131.281 139.367C131.281 140.821 143.455 142 158.472 142Z" fill="#6C63FF"/>
        <path d="M183.09 18.6611H22.3455C21.1472 18.6611 20.1758 19.6296 20.1758 20.8243V109.731C20.1758 110.926 21.1472 111.894 22.3455 111.894H183.09C184.289 111.894 185.26 110.926 185.26 109.731V20.8243C185.26 19.6296 184.289 18.6611 183.09 18.6611Z" fill="url(#paint0_linear)"/>
        <path d="M182.847 19.9722H22.6072C21.4089 19.9722 20.4375 20.9406 20.4375 22.1353V109.421C20.4375 110.616 21.4089 111.584 22.6072 111.584H182.847C184.045 111.584 185.016 110.616 185.016 109.421V22.1353C185.016 20.9406 184.045 19.9722 182.847 19.9722Z" fill="white"/>
        <path d="M182.847 19.9722H22.6072C21.4089 19.9722 20.4375 20.9406 20.4375 22.1353V109.421C20.4375 110.616 21.4089 111.584 22.6072 111.584H182.847C184.045 111.584 185.016 110.616 185.016 109.421V22.1353C185.016 20.9406 184.045 19.9722 182.847 19.9722Z" fill="white"/>
        <path opacity="0.04" d="M182.847 19.9722H22.6072C21.4089 19.9722 20.4375 20.9406 20.4375 22.1353V109.421C20.4375 110.616 21.4089 111.584 22.6072 111.584H182.847C184.045 111.584 185.016 110.616 185.016 109.421V22.1353C185.016 20.9406 184.045 19.9722 182.847 19.9722Z" fill="white"/>
        <path d="M184.181 18.9209H21.2731C21.0515 18.9209 20.8389 19.0087 20.6822 19.1649C20.5255 19.3211 20.4375 19.533 20.4375 19.7539V23.2749H185.009V19.7539C185.009 19.5342 184.922 19.3234 184.767 19.1673C184.612 19.0113 184.401 18.9227 184.181 18.9209Z" fill="#5A5773"/>
        <path d="M23.7229 22.2236C24.3465 22.2236 24.852 21.7196 24.852 21.0979C24.852 20.4762 24.3465 19.9722 23.7229 19.9722C23.0993 19.9722 22.5938 20.4762 22.5938 21.0979C22.5938 21.7196 23.0993 22.2236 23.7229 22.2236Z" fill="white"/>
        <path d="M26.7619 22.2236C27.3855 22.2236 27.8911 21.7196 27.8911 21.0979C27.8911 20.4762 27.3855 19.9722 26.7619 19.9722C26.1383 19.9722 25.6328 20.4762 25.6328 21.0979C25.6328 21.7196 26.1383 22.2236 26.7619 22.2236Z" fill="white"/>
        <path d="M29.8049 22.2236C30.4285 22.2236 30.934 21.7196 30.934 21.0979C30.934 20.4762 30.4285 19.9722 29.8049 19.9722C29.1813 19.9722 28.6758 20.4762 28.6758 21.0979C28.6758 21.7196 29.1813 22.2236 29.8049 22.2236Z" fill="white"/>
        <path opacity="0.2" d="M78.1586 31.4634H33.9922V35.2008H78.1586V31.4634Z" fill="#6C63FF"/>
        <path opacity="0.1" d="M171.461 46.4497H33.9922V103.942H171.461V46.4497Z" fill="#5A5773"/>
        <path opacity="0.1" d="M114.483 50.1992H112.129V45.6408C112.129 40.4971 108.016 36.221 102.856 36.1431C101.612 36.1301 100.378 36.3626 99.2245 36.8274C98.071 37.2921 97.0211 37.9799 96.1354 38.851C95.2497 39.7221 94.5457 40.7594 94.0639 41.903C93.5821 43.0466 93.3321 44.274 93.3283 45.5144V50.1992H90.9797C89.9418 50.2024 88.9473 50.6149 88.2134 51.3466C87.4794 52.0783 87.0657 53.0698 87.0625 54.1046V72.8472C87.0657 73.882 87.4794 74.8735 88.2134 75.6052C88.9473 76.3369 89.9418 76.7494 90.9797 76.7526H114.483C115.521 76.7494 116.515 76.3369 117.249 75.6051C117.982 74.8734 118.396 73.8818 118.399 72.8472V54.1046C118.396 53.07 117.982 52.0785 117.249 51.3467C116.515 50.6149 115.521 50.2024 114.483 50.1992ZM104.104 62.3831V69.0959C104.106 69.4514 103.973 69.7944 103.731 70.0555C103.489 70.3166 103.156 70.4763 102.801 70.5022C102.615 70.5109 102.43 70.4819 102.256 70.4171C102.082 70.3522 101.923 70.2528 101.788 70.1249C101.654 69.997 101.547 69.8433 101.473 69.673C101.4 69.5026 101.363 69.3193 101.363 69.134V62.3796C100.727 62.0706 100.215 61.556 99.9109 60.9198C99.6065 60.2836 99.5274 59.5633 99.6864 58.8764C99.8454 58.1896 100.233 57.5768 100.787 57.138C101.34 56.6991 102.026 56.4602 102.733 56.4602C103.44 56.4602 104.126 56.6991 104.68 57.138C105.233 57.5768 105.621 58.1896 105.78 58.8764C105.939 59.5633 105.86 60.2836 105.555 60.9198C105.251 61.556 104.739 62.0706 104.104 62.3796V62.3831ZM109.392 50.1992H96.0695V45.5144C96.0695 43.7538 96.771 42.0653 98.0197 40.8204C99.2684 39.5754 100.962 38.876 102.728 38.876C104.494 38.876 106.187 39.5754 107.436 40.8204C108.685 42.0653 109.386 43.7538 109.386 45.5144L109.392 50.1992Z" fill="black"/>
        <path d="M114.483 49.8525H112.129V45.2941C112.129 40.1504 108.016 35.8744 102.856 35.7964C101.612 35.7834 100.378 36.0159 99.2245 36.4807C98.071 36.9455 97.0211 37.6332 96.1354 38.5043C95.2497 39.3754 94.5457 40.4127 94.0639 41.5563C93.5821 42.6999 93.3321 43.9273 93.3283 45.1677V49.8525H90.9797C89.9418 49.8557 88.9473 50.2682 88.2134 50.9999C87.4794 51.7316 87.0657 52.7231 87.0625 53.7579V72.5005C87.0657 73.5353 87.4794 74.5268 88.2134 75.2585C88.9473 75.9903 89.9418 76.4027 90.9797 76.4059H114.483C115.521 76.4027 116.515 75.9902 117.249 75.2584C117.982 74.5267 118.396 73.5352 118.399 72.5005V53.7579C118.396 52.7233 117.982 51.7318 117.249 51C116.515 50.2682 115.521 49.8557 114.483 49.8525ZM104.104 62.0364V68.7492C104.106 69.1047 103.973 69.4477 103.731 69.7088C103.489 69.9699 103.156 70.1296 102.801 70.1555C102.615 70.1642 102.43 70.1352 102.256 70.0704C102.082 70.0055 101.923 69.9062 101.788 69.7783C101.654 69.6504 101.547 69.4966 101.473 69.3263C101.4 69.156 101.363 68.9726 101.363 68.7873V62.0329C100.727 61.7239 100.215 61.2094 99.9109 60.5731C99.6065 59.9369 99.5274 59.2166 99.6864 58.5298C99.8454 57.8429 100.233 57.2301 100.787 56.7913C101.34 56.3524 102.026 56.1135 102.733 56.1135C103.44 56.1135 104.126 56.3524 104.68 56.7913C105.233 57.2301 105.621 57.8429 105.78 58.5298C105.939 59.2166 105.86 59.9369 105.555 60.5731C105.251 61.2094 104.739 61.7239 104.104 62.0329V62.0364ZM109.392 49.8525H96.0695V45.1677C96.0695 43.4071 96.771 41.7186 98.0197 40.4737C99.2684 39.2288 100.962 38.5294 102.728 38.5294C104.494 38.5294 106.187 39.2288 107.436 40.4737C108.685 41.7186 109.386 43.4071 109.386 45.1677L109.392 49.8525Z" fill="#6C63FF"/>
        <path opacity="0.1" d="M171.461 40.916H157.547V44.191H171.461V40.916Z" fill="#5A5773"/>
        <path d="M176.197 140.161C176.105 139.702 175.948 139.258 175.731 138.843L173.647 135.739H173.659C173.659 135.739 173.331 134.181 173.659 133.415C173.987 132.65 172.488 130.767 172.488 130.767C172.488 130.767 172.306 130.294 172.782 129.712C173.258 129.13 172.488 127.426 172.488 127.426C172.488 127.426 172.123 123.867 172.087 123.323C172.05 122.78 171.757 119.766 171.757 119.766L171.062 113.377L169.825 96.4444L169.802 96.1274C169.955 96.053 170.037 96.0062 170.037 96.0062L169.79 86.6436L170.004 86.4513C171.87 84.7679 176.172 80.8712 176.129 80.7863C176.086 80.7014 175.608 74.2796 175.552 72.6723C175.505 71.5302 175.254 70.4055 174.812 69.3506C174.705 69.1375 174.394 67.733 174.265 67.1389C174.23 66.9761 174.208 66.874 174.208 66.874C174.208 66.874 172.947 64.477 173.056 63.3876C173.166 62.2983 173.384 61.4826 170.695 61.1015C170.695 61.1015 168.437 60.7656 167.093 59.8494C166.297 59.3006 165.428 58.8668 164.511 58.5609C164.511 58.5609 163.757 57.1753 163.233 57.6447C163.01 57.1503 162.844 56.6327 162.738 56.1016L162.722 56.0046C163.718 55.3123 164.434 54.2896 164.744 53.1192C164.761 53.0534 164.775 52.9859 164.791 52.9201C164.843 52.9377 164.897 52.9476 164.952 52.9495C165.409 52.9495 165.691 52.4421 166.118 52.281C166.292 52.2134 166.505 52.2031 166.639 52.0662C166.683 52.0135 166.716 51.9524 166.736 51.8866C166.756 51.8208 166.762 51.7517 166.754 51.6835C166.758 51.6362 166.758 51.5887 166.754 51.5415C166.755 51.5247 166.755 51.508 166.754 51.4912V51.5086C166.637 50.8782 166.148 50.3188 166.201 49.678C166.253 49.0753 166.785 48.5453 166.742 47.9582C166.741 47.9118 166.737 47.8654 166.729 47.8196V47.8404C166.665 47.6112 166.546 47.4009 166.382 47.2273C166.195 46.9733 165.95 46.7678 165.666 46.6281C165.425 46.5224 165.145 46.4982 164.919 46.3718C164.256 46.0115 164.258 45.0728 163.863 44.432C163.694 44.1645 163.454 43.9487 163.17 43.8085C162.886 43.6682 162.569 43.6089 162.253 43.6371C161.76 43.6856 161.313 43.9471 160.825 44.032C160.158 44.1497 159.479 43.9332 158.846 43.6856C158.214 43.4379 157.573 43.166 156.894 43.166C156.215 43.166 155.48 43.5124 155.275 44.1515C155.165 44.4978 155.219 44.8702 155.136 45.2218C154.986 45.8418 154.441 46.2852 153.876 46.5934C153.529 46.7857 153.116 47.0056 153.008 47.3693C153.008 47.3589 153.008 47.3503 153.008 47.3416C153 47.3706 152.994 47.4001 152.991 47.4299C152.987 47.4685 152.987 47.5074 152.991 47.546C152.991 47.7954 153.123 48.0326 153.211 48.2699C153.376 48.7213 153.373 49.2169 153.201 49.6658C153.072 49.9949 152.853 50.2841 152.728 50.6114C152.669 50.7639 152.631 50.9235 152.614 51.086V51.0583C152.609 51.1321 152.609 51.2061 152.614 51.28C152.611 51.5329 152.671 51.7825 152.787 52.0073C152.867 52.1626 152.977 52.3004 153.111 52.4125C153.245 52.5246 153.4 52.6089 153.567 52.6603C153.915 52.7399 154.132 52.4005 154.498 52.4871C154.564 52.5028 154.628 52.5231 154.691 52.5477C154.703 52.6256 154.715 52.7036 154.729 52.7798C154.951 53.9454 155.574 54.9972 156.491 55.7534C156.491 55.795 156.505 55.8366 156.51 55.8799C156.621 56.5704 156.669 57.2694 156.654 57.9685C156.654 57.9685 156.107 57.1701 155.356 58.7115C155.356 58.7115 153.399 59.8373 152.723 59.9654C152.047 60.0936 149.648 60.9266 149.648 60.9266C149.286 61.1875 148.851 61.3275 148.405 61.3267C147.656 61.3267 147.034 62.9599 147.124 63.8483C147.215 64.7368 147.07 65.3915 146.374 65.4278C145.677 65.4642 146.058 66.8722 146.063 66.8965L145.999 67.1996C145.863 67.8196 145.568 69.1497 145.464 69.3575C145.022 70.4125 144.771 71.5371 144.722 72.6793C144.668 74.2865 144.201 80.6841 144.147 80.7932C144.11 80.8642 147.058 83.5504 149.131 85.4278L149.431 85.6979L148.477 94.5791C148.505 94.9213 148.607 95.2534 148.776 95.5524C148.946 95.8514 149.178 96.1103 149.457 96.311C149.457 96.4149 149.457 96.5206 149.447 96.6297C149.405 97.6688 149.322 98.9262 149.155 99.2552C148.863 99.8372 148.936 102.958 148.936 102.958C148.936 102.958 148.642 109.311 148.278 110.002C147.913 110.693 147.838 112.142 147.948 112.426C148.057 112.71 147.581 120.339 147.581 120.339L147.216 123.753C147.216 123.753 147.326 127.019 146.996 127.092C146.666 127.165 146.483 129.416 146.483 129.416C146.483 129.416 145.314 131.013 145.825 131.593C146.336 132.173 145.75 132.43 145.696 132.573C145.642 132.717 144.581 133.266 145.349 135.296C145.356 135.316 145.364 135.336 145.373 135.355C144.654 136.351 142.375 139.563 142.514 140.052C142.616 140.363 142.834 140.623 143.122 140.779C143.659 141.1 144.579 141.249 146.044 140.779C148.476 139.998 148.302 139.435 148.302 139.435C148.314 139.172 148.428 138.924 148.618 138.741C148.809 138.559 149.063 138.456 149.327 138.455C150.333 138.382 151.083 137.457 151.083 137.457L150.965 137.019L150.803 136.413C150.823 136.24 150.946 135.937 151.498 135.769C152.341 135.514 152.12 133.917 152.12 133.917C152.12 133.917 152.047 132.248 152.412 132.03C152.777 131.811 152.633 129.053 152.633 129.053C152.633 129.053 153.036 127.056 153.619 125.712C154.203 124.368 154.901 116.384 154.901 116.384C154.901 116.384 155.376 112.463 155.815 111.337C156.255 110.211 156.658 107.054 156.658 107.054C156.658 107.054 159.366 101.825 159.401 100.663C159.401 100.663 159.748 99.5739 160.095 100.772C160.443 101.971 161.419 104.839 161.419 104.839L162.369 108.36L163.504 113.623L164.237 118.053C164.237 118.053 164.125 119.723 164.41 120.305C164.695 120.887 165.105 122.227 164.886 122.482C164.667 122.736 165.324 123.935 165.508 124.188C165.692 124.44 165.508 129.815 165.508 129.815C165.508 129.815 166.349 134.389 167.556 135.183C167.641 135.239 167.73 135.285 167.824 135.322C167.806 135.817 167.789 136.481 167.812 136.827C167.809 136.904 167.822 136.982 167.85 137.054C167.959 137.199 169.203 138.18 169.46 138.18C169.717 138.18 170.629 138.815 170.668 139.124C170.706 139.432 173.341 140.738 173.714 140.776C174.088 140.814 175.898 141.138 176.146 140.63C176.208 140.482 176.225 140.319 176.197 140.161ZM169.723 74.7437L169.91 74.9048C169.91 74.9048 170.103 76.4029 170.24 76.8514C170.377 77.3 170.212 78.1729 170.212 78.1729C170.225 78.4986 170.29 78.8203 170.405 79.1254C170.568 79.4527 170.075 80.1645 170.075 80.1645H169.636L169.498 74.5567L169.723 74.7437ZM156.654 57.9997V57.9668C156.651 57.9772 156.649 57.9893 156.649 57.9997H156.654ZM149.905 79.5878C149.838 79.4427 149.828 79.2775 149.878 79.1254C149.917 79.0432 149.947 78.9573 149.97 78.8691C150.024 78.6416 150.057 78.4097 150.07 78.1763C150.071 78.1734 150.071 78.1705 150.07 78.1677C150.055 78.0845 149.914 77.2809 150.044 76.8549C150.175 76.4288 150.373 74.9082 150.373 74.9082L150.498 74.8026L150.788 74.5515C150.788 74.5515 150.788 74.4579 150.809 74.3038C150.869 75.62 150.918 77.0748 150.84 77.1476C150.694 77.2913 150.162 78.7063 150.291 78.7617C150.333 78.7808 150.275 79.3471 150.178 80.1091C150.069 79.9455 149.977 79.7708 149.905 79.5878Z" fill="url(#paint1_linear)"/>
        <path d="M163.906 59.3834V61.5378L159.473 63.7599C159.473 63.7599 155.071 61.1049 156.157 60.0484C156.851 59.3799 156.718 57.5441 156.53 56.2815C156.421 55.5472 156.294 55.0086 156.294 55.0086C156.294 55.0086 164.201 52.7571 163.006 54.4665C162.607 55.038 162.575 55.7775 162.709 56.5101C162.98 57.9632 163.906 59.3834 163.906 59.3834Z" fill="#C37098"/>
        <path d="M151.764 80.4518L151.193 87.4694C151.193 87.4694 150.336 86.6952 149.228 85.6873C147.173 83.8186 144.255 81.1462 144.289 81.0752C144.343 80.9661 144.811 74.5997 144.861 72.9994C144.908 71.8635 145.157 70.7449 145.594 69.6949C145.698 69.4871 145.992 68.1639 146.115 67.5457C146.157 67.3534 146.183 67.2287 146.183 67.2287L147.142 66.8442C147.142 66.8442 151.137 71.2883 151.137 71.3697C151.137 71.4511 150.864 74.8647 150.864 74.8647L150.581 75.1106L150.458 75.2162C150.458 75.2162 150.267 76.7074 150.131 77.1542C149.996 77.6011 150.142 78.3769 150.157 78.4601C150.145 78.6934 150.111 78.9252 150.058 79.1528C150.036 79.2404 150.005 79.3256 149.966 79.4074C149.917 79.559 149.927 79.7234 149.994 79.8681C150.071 80.0689 150.172 80.2601 150.293 80.4379L151.764 80.4518Z" fill="#3F3D56"/>
        <path d="M175.977 81.0754C176.019 81.1603 171.758 85.038 169.911 86.7127L169.074 87.4696L168.508 80.4519H169.976C169.976 80.4519 170.466 79.747 170.302 79.4214C170.188 79.1179 170.124 78.798 170.113 78.4741C170.113 78.4741 170.274 77.6082 170.139 77.1596C170.003 76.711 169.812 75.2216 169.812 75.2216L169.627 75.0623L169.406 74.87C169.406 74.87 169.133 71.4565 169.133 71.3751C169.133 71.2937 173.129 66.8496 173.129 66.8496L174.08 67.2289C174.08 67.2289 174.101 67.3311 174.136 67.4939C174.265 68.0845 174.572 69.4821 174.678 69.6951C175.115 70.745 175.364 71.8637 175.411 72.9996C175.456 74.5998 175.922 80.9663 175.977 81.0754Z" fill="#3F3D56"/>
        <path d="M175.993 140.642C175.738 141.148 173.945 140.816 173.575 140.788C173.205 140.76 170.592 139.449 170.556 139.143C170.519 138.836 169.614 138.204 169.361 138.204C169.107 138.204 167.876 137.227 167.766 137.083C167.738 137.012 167.726 136.935 167.73 136.858C167.691 136.264 167.766 134.735 167.766 134.735L173.021 135.024L175.575 138.853C175.79 139.266 175.945 139.708 176.037 140.164C176.068 140.325 176.053 140.49 175.993 140.642Z" fill="#3F3D56"/>
        <path opacity="0.1" d="M175.993 140.642C175.738 141.148 173.945 140.816 173.575 140.788C173.205 140.76 170.592 139.449 170.556 139.143C170.519 138.836 169.614 138.204 169.361 138.204C169.107 138.204 167.876 137.227 167.766 137.083C167.738 137.012 167.726 136.935 167.73 136.858C167.691 136.264 167.766 134.735 167.766 134.735L173.021 135.024L175.575 138.853C175.79 139.266 175.945 139.708 176.037 140.164C176.068 140.325 176.053 140.49 175.993 140.642Z" fill="black"/>
        <path opacity="0.1" d="M175.995 140.642C175.739 141.148 173.947 140.815 173.577 140.788C173.207 140.76 170.594 139.449 170.557 139.142C170.521 138.836 169.616 138.204 169.362 138.204C169.109 138.204 167.877 137.227 167.768 137.083C167.74 137.011 167.727 136.935 167.731 136.858L169.433 137.932C169.433 137.932 170.521 138.624 170.811 139.035C171.101 139.445 173.387 140.299 173.577 140.317C173.717 140.33 175.218 140.043 176.038 140.164C176.069 140.324 176.054 140.49 175.995 140.642Z" fill="black"/>
        <path d="M151.151 137.481C151.151 137.481 150.408 138.403 149.414 138.474C149.152 138.476 148.9 138.578 148.712 138.759C148.523 138.941 148.411 139.188 148.4 139.449C148.4 139.449 148.573 140.01 146.171 140.788C144.72 141.253 143.808 141.106 143.277 140.788C142.992 140.631 142.776 140.372 142.674 140.064C142.511 139.487 145.717 135.097 145.717 135.097L148.636 134.923L150.72 135.862L151.04 137.052L151.151 137.481Z" fill="#3F3D56"/>
        <path opacity="0.1" d="M151.151 137.481C151.151 137.481 150.408 138.403 149.414 138.474C149.152 138.476 148.9 138.578 148.712 138.759C148.523 138.941 148.411 139.188 148.4 139.449C148.4 139.449 148.573 140.01 146.171 140.788C144.72 141.253 143.808 141.106 143.277 140.788C142.992 140.631 142.776 140.372 142.674 140.064C142.511 139.487 145.717 135.097 145.717 135.097L148.636 134.923L150.72 135.862L151.04 137.052L151.151 137.481Z" fill="black"/>
        <path opacity="0.1" d="M151.152 137.481C151.152 137.481 150.408 138.403 149.415 138.474C149.152 138.476 148.901 138.578 148.712 138.759C148.523 138.941 148.412 139.188 148.4 139.449C148.4 139.449 148.574 140.01 146.171 140.788C144.721 141.253 143.809 141.106 143.277 140.788C144.644 140.646 147.665 139.785 147.968 139.487C148.331 139.125 148.784 138.131 149.091 138.114C149.305 138.1 150.391 137.448 151.042 137.045L151.152 137.481Z" fill="black"/>
        <path d="M173.528 133.453C173.202 134.212 173.528 135.765 173.528 135.765C173.528 135.765 168.664 136.018 167.476 135.223C166.288 134.428 165.447 129.875 165.447 129.875C165.447 129.875 165.621 124.528 165.447 124.276C165.274 124.023 164.613 122.831 164.831 122.578C165.048 122.325 164.657 120.988 164.36 120.41C164.063 119.832 164.186 118.171 164.186 118.171L163.46 113.761L162.338 108.524L161.384 105.019C161.384 105.019 160.406 102.164 160.074 100.973C159.743 99.7814 159.392 100.864 159.392 100.864C159.357 102.021 156.675 107.223 156.675 107.223C156.675 107.223 156.275 110.367 155.841 111.486C155.407 112.604 154.934 116.508 154.934 116.508C154.934 116.508 154.239 124.456 153.666 125.793C153.093 127.13 152.698 129.116 152.698 129.116C152.698 129.116 152.844 131.863 152.481 132.08C152.118 132.296 152.177 133.959 152.177 133.959C152.177 133.959 152.394 135.547 151.561 135.801C150.727 136.056 150.866 136.596 150.866 136.596C150.866 136.596 146.228 137.355 145.467 135.33C144.706 133.306 145.757 132.767 145.814 132.622C145.872 132.476 146.45 132.225 145.943 131.645C145.436 131.065 146.594 129.478 146.594 129.478C146.594 129.478 146.777 127.239 147.101 127.166C147.426 127.093 147.32 123.843 147.32 123.843L147.682 120.446C147.682 120.446 148.154 112.859 148.045 112.57C147.935 112.28 148.008 110.838 148.371 110.145C148.734 109.452 149.023 103.134 149.023 103.134C149.023 103.134 148.95 100.029 149.24 99.4506C149.414 99.1233 149.487 97.8642 149.528 96.8371C149.559 96.0526 149.566 95.4031 149.566 95.4031L153.624 93.886L158.836 92.2251L163.22 94.3207L169.635 95.5486L169.715 96.6518L170.94 113.505L171.635 119.863C171.635 119.863 171.925 122.861 171.961 123.403C171.998 123.945 172.359 127.487 172.359 127.487C172.359 127.487 173.12 129.184 172.649 129.762C172.179 130.341 172.359 130.801 172.359 130.801C172.359 130.801 173.855 132.694 173.528 133.453Z" fill="#3F3D56"/>
        <path opacity="0.1" d="M163.009 54.4666C162.61 55.0381 162.578 55.7776 162.712 56.5102C161.799 57.1523 160.7 57.4775 159.584 57.4359C158.467 57.3943 157.395 56.9881 156.533 56.2799C156.424 55.5455 156.297 55.0069 156.297 55.0069C156.297 55.0069 164.204 52.7589 163.009 54.4666Z" fill="black"/>
        <path d="M164.859 52.2566C164.859 53.2603 164.561 54.2414 164.001 55.0759C163.442 55.9104 162.647 56.5608 161.717 56.9448C160.787 57.3289 159.764 57.4294 158.776 57.2336C157.789 57.0378 156.882 56.5545 156.17 55.8448C155.459 55.1352 154.974 54.231 154.777 53.2466C154.581 52.2623 154.682 51.242 155.067 50.3147C155.452 49.3875 156.105 48.595 156.942 48.0374C157.779 47.4798 158.763 47.1822 159.769 47.1822C160.439 47.179 161.102 47.308 161.721 47.5619C162.34 47.8158 162.902 48.1895 163.376 48.6613C163.849 49.1332 164.224 49.6938 164.478 50.3109C164.733 50.9281 164.862 51.5894 164.859 52.2566Z" fill="#C37098"/>
        <path opacity="0.1" d="M165.92 60.689L164.252 90.2957L155.193 88.3993L153.398 76.5306L155.176 60.5972L156.513 60.7686L158.872 61.0682L161.209 61.212L163.741 60.9314L165.92 60.689Z" fill="black"/>
        <path d="M165.92 60.9055L164.252 90.5123L155.193 88.6158L153.398 76.7471L155.176 60.8154L156.513 60.9852L158.872 61.2848L161.209 61.4285L163.741 61.148L165.92 60.9055Z" fill="#6C63FF"/>
        <path d="M158.473 61.7007L161.735 61.8098L160.818 63.0897C160.818 63.0897 160.882 65.6754 161.318 66.4166C161.754 67.1579 161.626 78.6092 161.626 78.6092L160.757 80.2528L159.272 78.41L159.291 63.2906L158.473 61.7007Z" fill="#3F3D56"/>
        <path opacity="0.1" d="M158.473 61.7007L161.735 61.8098L160.818 63.0897C160.818 63.0897 160.882 65.6754 161.318 66.4166C161.754 67.1579 161.626 78.6092 161.626 78.6092L160.757 80.2528L159.272 78.41L159.291 63.2906L158.473 61.7007Z" fill="black"/>
        <path opacity="0.1" d="M163.579 58.3408L160.535 61.7007L162.274 63.5071L165.156 60.7066L163.579 58.3408Z" fill="black"/>
        <path d="M163.579 58.124L160.535 61.4839L162.274 63.2903L165.156 60.4898L163.579 58.124Z" fill="#6C63FF"/>
        <path opacity="0.1" d="M159.251 61.5379L156.169 58.4673L155.879 60.0745L157.293 63.5972L159.251 61.5379Z" fill="black"/>
        <path d="M159.358 61.3211L156.278 58.2505L155.988 59.8577L157.402 63.3804L159.358 61.3211Z" fill="#6C63FF"/>
        <path opacity="0.1" d="M169.732 96.6572C168.253 97.3598 166.669 97.8167 165.042 98.0098C162.052 98.3891 160.096 94.5962 160.096 94.5962L158.955 96.077C158.592 97.6496 153.066 98.0462 150.82 97.4504C150.354 97.3356 149.916 97.1289 149.531 96.8425C149.563 96.058 149.569 95.4085 149.569 95.4085L153.627 93.8914L158.839 92.2305L163.223 94.3261L169.638 95.554L169.732 96.6572Z" fill="black"/>
        <path opacity="0.1" d="M165.919 60.9072L164.253 90.5123L155.192 88.6159L153.395 76.7489L155.17 60.8154L156.507 60.9886C156.473 61.569 156.408 62.1472 156.311 62.7205C156.094 63.7337 157.435 70.9228 157.435 70.9228C157.435 70.9228 159.983 78.9848 161.13 77.8227C162.276 76.6606 163.909 70.5244 163.909 70.5244C165.016 68.2487 163.928 61.865 163.847 61.7368C163.79 61.548 163.755 61.3533 163.743 61.1566L165.919 60.9072Z" fill="black"/>
        <path opacity="0.1" d="M169.833 83.8167L169.91 86.7177L169.072 87.4745L168.508 80.4517H169.759L169.833 83.8167Z" fill="black"/>
        <path opacity="0.1" d="M150.155 78.4653C150.142 78.6987 150.109 78.9305 150.056 79.1581C150.056 79.094 150.056 79.0576 150.042 79.0524C149.99 79.0386 150.053 78.7736 150.155 78.4653Z" fill="black"/>
        <path opacity="0.1" d="M151.763 80.4516L151.191 87.4693C151.191 87.4693 150.335 86.6951 149.227 85.6871L149.359 84.4436C149.359 84.4436 149.826 81.3886 149.996 79.8818C150.073 80.0826 150.174 80.2738 150.295 80.4516H151.763Z" fill="black"/>
        <path d="M156.677 58.358C156.677 58.358 156.135 57.563 155.392 59.0975C155.392 59.0975 153.453 60.218 152.786 60.3445C152.119 60.4709 149.746 61.3022 149.746 61.3022C149.388 61.5605 148.957 61.6993 148.515 61.6988C147.771 61.6988 147.154 63.325 147.245 64.21C147.335 65.095 147.191 65.7462 146.503 65.7826C145.815 65.819 146.194 67.2443 146.194 67.2443L150.778 72.4833C150.778 72.4833 151.068 77.3067 150.924 77.4521C150.78 77.5976 150.254 79.0108 150.38 79.0593C150.507 79.1078 149.685 84.4421 149.685 84.4421L148.581 94.7936C148.581 94.7936 148.581 96.5255 150.828 97.123C153.076 97.7205 158.606 97.3257 158.962 95.7531L160.103 94.2706C160.103 94.2706 162.059 98.0652 165.049 97.6859C168.038 97.3066 169.942 96.2225 169.942 96.2225L169.615 83.8169L169.398 74.8751L174.066 67.2287C174.066 67.2287 172.815 64.8439 172.925 63.7649C173.034 62.686 173.25 61.8685 170.587 61.4892C170.587 61.4892 168.34 61.155 167.017 60.2423C166.23 59.6977 165.37 59.2663 164.463 58.9607C164.463 58.9607 163.716 57.5751 163.197 58.0497C163.197 58.0497 163.718 60.0085 163.675 60.3012C163.631 60.5938 163.756 61.917 163.838 62.0538C163.919 62.1907 165.007 68.5658 163.9 70.8415C163.9 70.8415 162.276 76.9776 161.121 78.1397C159.966 79.3018 157.426 71.2398 157.426 71.2398C157.426 71.2398 156.085 64.049 156.302 63.0375C156.519 62.0261 156.677 58.358 156.677 58.358Z" fill="#3F3D56"/>
        <path d="M160.555 82.0416C160.996 82.0416 161.353 81.6856 161.353 81.2466C161.353 80.8076 160.996 80.4517 160.555 80.4517C160.115 80.4517 159.758 80.8076 159.758 81.2466C159.758 81.6856 160.115 82.0416 160.555 82.0416Z" fill="#3F3D56"/>
        <path d="M160.555 85.7896C160.996 85.7896 161.353 85.4337 161.353 84.9947C161.353 84.5556 160.996 84.1997 160.555 84.1997C160.115 84.1997 159.758 84.5556 159.758 84.9947C159.758 85.4337 160.115 85.7896 160.555 85.7896Z" fill="#3F3D56"/>
        <path opacity="0.1" d="M160.555 82.0416C160.996 82.0416 161.353 81.6856 161.353 81.2466C161.353 80.8076 160.996 80.4517 160.555 80.4517C160.115 80.4517 159.758 80.8076 159.758 81.2466C159.758 81.6856 160.115 82.0416 160.555 82.0416Z" fill="black"/>
        <path opacity="0.1" d="M160.555 85.7896C160.996 85.7896 161.353 85.4337 161.353 84.9947C161.353 84.5556 160.996 84.1997 160.555 84.1997C160.115 84.1997 159.758 84.5556 159.758 84.9947C159.758 85.4337 160.115 85.7896 160.555 85.7896Z" fill="black"/>
        <path opacity="0.1" d="M167.719 132.369C167.719 132.369 170.992 132.622 171.316 132.875C171.641 133.128 167.719 132.369 167.719 132.369Z" fill="black" stroke="#6C63FF" stroke-miterlimit="10"/>
        <path opacity="0.1" d="M148.234 129.804C148.234 129.804 148.929 130.67 148.634 131.068C148.339 131.467 148.234 129.804 148.234 129.804Z" fill="black" stroke="#6C63FF" stroke-miterlimit="10"/>
        <path opacity="0.1" d="M149.066 132.927C149.066 132.927 150.335 132.096 150.842 132.648C151.349 133.2 149.066 132.927 149.066 132.927Z" fill="black" stroke="#6C63FF" stroke-miterlimit="10"/>
        <path opacity="0.1" d="M164.86 52.2568C164.861 52.6898 164.806 53.1211 164.696 53.5401C164.589 53.4914 164.5 53.4112 164.439 53.3103C164.379 53.2094 164.351 53.0926 164.359 52.9755C164.382 52.7694 164.519 52.5806 164.49 52.3763C164.446 52.0611 164.064 51.9329 163.863 51.6835C163.614 51.3822 163.668 50.944 163.689 50.5543C163.71 50.1646 163.611 49.6884 163.244 49.555C163.135 49.5152 163.015 49.5117 162.909 49.4667C162.621 49.3454 162.532 48.9887 162.339 48.7427C161.953 48.2474 161.187 48.2578 160.602 48.4934C160.347 48.6152 160.086 48.7238 159.82 48.819C159.687 48.8658 159.546 48.8846 159.405 48.8741C159.264 48.8637 159.127 48.8243 159.002 48.7583C158.887 48.6856 158.795 48.5851 158.677 48.5124C158.285 48.2769 157.77 48.5124 157.43 48.8155C157.09 49.1186 156.817 49.5256 156.388 49.7109C156.195 49.7975 155.957 49.8494 155.867 50.0365C155.822 50.1383 155.803 50.2495 155.811 50.3603C155.811 51.0341 155.891 51.7182 155.75 52.378C155.66 52.8023 155.361 53.2838 154.929 53.2318C154.875 53.2239 154.822 53.2105 154.77 53.192C154.64 52.4984 154.657 51.7853 154.818 51.0983C154.98 50.4113 155.284 49.7655 155.71 49.2022C156.137 48.6388 156.676 48.1704 157.294 47.8267C157.913 47.4829 158.596 47.2716 159.301 47.206C160.005 47.1405 160.716 47.2222 161.387 47.446C162.059 47.6698 162.676 48.0307 163.199 48.5057C163.723 48.9806 164.141 49.5593 164.428 50.2046C164.714 50.8498 164.862 51.5476 164.863 52.2533L164.86 52.2568Z" fill="black"/>
        <path d="M154.541 52.9045C154.672 52.934 154.795 53.0015 154.929 53.0189C155.361 53.0708 155.66 52.5893 155.75 52.165C155.891 51.5052 155.818 50.8211 155.813 50.1474C155.803 50.0366 155.822 49.9252 155.867 49.8235C155.966 49.6365 156.204 49.5845 156.388 49.4979C156.808 49.3109 157.083 48.9125 157.43 48.6025C157.778 48.2925 158.283 48.0639 158.676 48.2994C158.792 48.3687 158.886 48.4726 159 48.5454C159.126 48.6104 159.263 48.6493 159.404 48.6597C159.545 48.6701 159.687 48.6518 159.82 48.606C160.09 48.5263 160.342 48.386 160.6 48.2804C161.181 48.0448 161.948 48.0362 162.337 48.528C162.53 48.7757 162.619 49.1307 162.907 49.252C163.013 49.297 163.133 49.3022 163.243 49.342C163.609 49.4789 163.703 49.9517 163.687 50.3413C163.672 50.731 163.619 51.1692 163.861 51.4705C164.062 51.7165 164.445 51.8446 164.488 52.1633C164.516 52.3677 164.38 52.5582 164.358 52.7625C164.353 52.8385 164.363 52.9147 164.387 52.9868C164.412 53.0589 164.451 53.1253 164.501 53.1824C164.552 53.2394 164.613 53.2859 164.682 53.319C164.751 53.3522 164.825 53.3714 164.901 53.3756C165.353 53.3756 165.633 52.8716 166.055 52.7106C166.229 52.643 166.439 52.6326 166.576 52.4958C166.627 52.43 166.663 52.354 166.682 52.273C166.7 52.1919 166.701 52.1078 166.684 52.0265C166.599 51.3632 166.065 50.7864 166.123 50.1214C166.177 49.484 166.769 48.9281 166.644 48.3012C166.58 48.07 166.461 47.8578 166.296 47.6829C166.11 47.4313 165.867 47.2266 165.588 47.0854C165.346 46.9815 165.067 46.9572 164.846 46.8308C164.189 46.4723 164.191 45.5371 163.804 44.8997C163.637 44.6363 163.402 44.4236 163.122 44.2849C162.843 44.1462 162.53 44.0869 162.219 44.1134C161.731 44.1619 161.288 44.42 160.805 44.5066C160.144 44.6243 159.473 44.4079 158.846 44.1602C158.219 43.9125 157.585 43.6406 156.912 43.6406C156.24 43.6406 155.512 43.987 155.307 44.6209C155.2 44.9673 155.253 45.3379 155.17 45.686C155.024 46.3043 154.475 46.7442 153.923 47.0507C153.542 47.262 153.086 47.5045 153.04 47.9357C153.011 48.2094 153.162 48.4553 153.258 48.7203C153.42 49.1686 153.416 49.66 153.247 50.1058C153.12 50.4331 152.908 50.7206 152.78 51.0462C152.689 51.2672 152.645 51.505 152.653 51.7438C152.661 51.9827 152.72 52.2171 152.825 52.4317C152.906 52.5882 153.018 52.7265 153.155 52.8382C153.291 52.9499 153.449 53.0326 153.619 53.0812C153.961 53.1626 154.176 52.8249 154.541 52.9045Z" fill="#3F3D56"/>
        <g opacity="0.1">
            <path opacity="0.1" d="M155.751 51.7869C155.661 52.2112 155.36 52.6926 154.927 52.6407C154.794 52.6234 154.672 52.5558 154.54 52.5264C154.177 52.4467 153.962 52.7862 153.619 52.6996C153.449 52.651 153.291 52.5683 153.154 52.4567C153.018 52.345 152.905 52.2066 152.824 52.0501C152.733 51.8738 152.678 51.6814 152.662 51.4838C152.628 51.7904 152.684 52.1005 152.824 52.3757C152.905 52.5322 153.018 52.6706 153.154 52.7822C153.291 52.8939 153.449 52.9766 153.619 53.0252C153.967 53.1048 154.177 52.7654 154.54 52.852C154.667 52.8961 154.797 52.9337 154.927 52.9646C155.36 53.0182 155.661 52.5368 155.751 52.1125C155.822 51.7376 155.85 51.3558 155.834 50.9746C155.833 51.2474 155.805 51.5194 155.751 51.7869Z" fill="black"/>
            <path opacity="0.1" d="M153.371 49.1787C153.393 48.8949 153.354 48.6097 153.256 48.3422C153.177 48.1643 153.111 47.9815 153.056 47.7949C153.049 47.824 153.043 47.8535 153.039 47.8832C153.009 48.1552 153.162 48.4028 153.256 48.6678C153.317 48.8323 153.355 49.0041 153.371 49.1787Z" fill="black"/>
            <path opacity="0.1" d="M166.642 48.2661C166.56 48.758 166.16 49.2204 166.121 49.7382C166.111 49.8269 166.111 49.9163 166.121 50.0049C166.207 49.4005 166.744 48.8653 166.642 48.2661Z" fill="black"/>
            <path opacity="0.1" d="M166.672 51.9204C166.657 51.9928 166.623 52.0599 166.573 52.1144C166.444 52.2512 166.225 52.2616 166.052 52.3291C165.63 52.4902 165.357 52.9994 164.898 52.9942C164.781 52.9876 164.668 52.9456 164.575 52.8739C164.482 52.8022 164.413 52.704 164.377 52.5924C164.366 52.6299 164.358 52.6681 164.353 52.7067C164.348 52.7825 164.358 52.8586 164.383 52.9304C164.407 53.0023 164.446 53.0686 164.497 53.1254C164.547 53.1823 164.609 53.2286 164.677 53.2616C164.746 53.2947 164.82 53.3139 164.896 53.3181C165.35 53.3181 165.628 52.8141 166.05 52.6547C166.224 52.5872 166.436 52.5768 166.571 52.44C166.622 52.3742 166.658 52.2982 166.677 52.2171C166.695 52.1361 166.696 52.052 166.679 51.9706C166.677 51.9499 166.674 51.936 166.672 51.9204Z" fill="black"/>
            <path opacity="0.1" d="M164.495 51.7764C164.451 51.4612 164.069 51.3331 163.868 51.0837C163.744 50.9199 163.677 50.7206 163.677 50.5156C163.663 50.8378 163.668 51.1668 163.868 51.4093C164.067 51.6518 164.371 51.7557 164.469 52.0051C164.493 51.9315 164.502 51.8536 164.495 51.7764Z" fill="black"/>
            <path opacity="0.1" d="M163.688 49.9634C163.702 49.5737 163.608 49.0974 163.241 48.9641C163.134 48.9243 163.014 48.9191 162.908 48.8758C162.619 48.7545 162.529 48.3978 162.338 48.1518C161.951 47.6582 161.185 47.6669 160.601 47.9024C160.34 48.0081 160.092 48.1484 159.821 48.228C159.688 48.2749 159.546 48.2937 159.405 48.2832C159.265 48.2728 159.127 48.2334 159.003 48.1674C158.888 48.0947 158.794 47.9942 158.678 47.9215C158.284 47.6859 157.769 47.9215 157.431 48.2246C157.092 48.5276 156.817 48.9329 156.388 49.12C156.194 49.2066 155.958 49.2585 155.857 49.4456C155.813 49.5475 155.794 49.6587 155.803 49.7694C155.803 49.837 155.803 49.9045 155.803 49.972C155.805 49.9023 155.822 49.8338 155.853 49.7712C155.954 49.5841 156.19 49.5322 156.385 49.4456C156.805 49.2585 157.08 48.8602 157.427 48.5502C157.775 48.2402 158.28 48.0115 158.674 48.2471C158.791 48.3164 158.885 48.4203 158.999 48.4913C159.124 48.5576 159.261 48.5973 159.402 48.6077C159.543 48.6182 159.684 48.5991 159.817 48.5519C160.083 48.4577 160.343 48.3496 160.597 48.228C161.179 47.9925 161.945 47.9821 162.335 48.4757C162.526 48.7216 162.616 49.0784 162.904 49.1996C163.01 49.2447 163.13 49.2499 163.238 49.2897C163.535 49.4005 163.653 49.7331 163.679 50.0621L163.688 49.9634Z" fill="black"/>
        </g>
        <g opacity="0.1">
            <path opacity="0.1" d="M155.129 51.7767C155.139 51.4892 155.243 51.2127 155.424 50.9888C155.605 50.7649 155.854 50.6056 156.133 50.5349C156.908 50.3461 157.721 50.3828 158.475 50.6405C160.124 51.1844 158.267 53.1414 158.267 53.1414C158.267 53.1414 157.032 54.3537 155.88 53.5068C155.54 53.2505 155.302 52.8824 155.208 52.4677C155.151 52.2418 155.125 52.0094 155.129 51.7767Z" fill="black"/>
            <path opacity="0.1" d="M164.192 51.7769C164.182 51.4892 164.078 51.2126 163.897 50.9886C163.716 50.7647 163.466 50.6055 163.186 50.5351C162.412 50.3467 161.6 50.3834 160.846 50.6408C159.198 51.1846 161.055 53.1417 161.055 53.1417C161.055 53.1417 162.288 54.354 163.442 53.5071C163.782 53.2507 164.02 52.8826 164.114 52.4679C164.17 52.242 164.197 52.0097 164.192 51.7769Z" fill="black"/>
            <path opacity="0.1" d="M158.164 50.4814V50.5628H161.175V50.4658L158.164 50.4814Z" fill="black"/>
            <path opacity="0.1" d="M159.126 51.349H159.222V51.0736C159.222 51.0736 159.528 50.8363 160.035 51.0736V51.3195H160.209V51.1585H160.123C160.123 51.1585 160.158 50.8242 159.592 50.8779C159.592 50.8779 159.137 50.8346 159.147 51.1221H159.043L159.126 51.349Z" fill="black"/>
        </g>
        <path d="M155.129 51.6644C155.139 51.377 155.243 51.1005 155.424 50.8766C155.605 50.6526 155.854 50.4934 156.134 50.4226C156.908 50.2351 157.721 50.2718 158.475 50.5283C160.124 51.0738 158.267 53.0292 158.267 53.0292C158.267 53.0292 157.032 54.2415 155.88 53.3946C155.539 53.1389 155.301 52.7705 155.208 52.3555C155.151 52.1296 155.125 51.8972 155.129 51.6644Z" fill="#6C63FF"/>
        <path d="M164.192 51.664C164.182 51.3763 164.078 51.0996 163.897 50.8757C163.716 50.6517 163.466 50.4926 163.186 50.4222C162.412 50.2346 161.6 50.2713 160.846 50.5278C159.198 51.0734 161.055 53.0287 161.055 53.0287C161.055 53.0287 162.288 54.241 163.442 53.3941C163.782 53.1384 164.021 52.77 164.114 52.355C164.17 52.1291 164.197 51.8967 164.192 51.664Z" fill="#6C63FF"/>
        <path d="M158.164 50.372V50.4552H161.175V50.3564L158.164 50.372Z" fill="#6C63FF"/>
        <path d="M159.126 51.2398H159.222V50.9644C159.222 50.9644 159.528 50.7289 160.035 50.9644V51.2121H160.209V51.0493H160.123C160.123 51.0493 160.158 50.7167 159.592 50.7687C159.592 50.7687 159.137 50.7271 159.147 51.0129H159.043L159.126 51.2398Z" fill="#6C63FF"/>
        <path d="M21.389 79.1807H20.4023V101.332H21.389V79.1807Z" fill="#535461"/>
        <path d="M27.5917 101.264L27.5291 102.262L27.4423 103.67L27.4058 104.257L27.3189 105.667L27.2807 106.254L27.1939 107.662L26.1985 123.677C26.156 124.366 25.8515 125.013 25.347 125.486C24.8425 125.959 24.176 126.222 23.4834 126.223H18.3102C17.6178 126.222 16.9515 125.959 16.4472 125.486C15.943 125.013 15.6388 124.366 15.5968 123.677L14.5962 107.662L14.5094 106.254L14.4729 105.667L14.3878 104.253L14.3513 103.666L14.2644 102.258L14.2019 101.261C14.19 101.069 14.2176 100.877 14.283 100.697C14.3484 100.517 14.4501 100.351 14.5819 100.212C14.7138 100.072 14.8729 99.9607 15.0495 99.8846C15.2262 99.8086 15.4166 99.7694 15.609 99.7695H26.1863C26.379 99.7694 26.5696 99.8086 26.7464 99.8849C26.9232 99.9612 27.0824 100.073 27.2142 100.213C27.3459 100.353 27.4474 100.519 27.5123 100.699C27.5773 100.88 27.6043 101.073 27.5917 101.264Z" fill="#3F3D56"/>
        <path d="M27.5321 102.262L27.4452 103.67H14.3525L14.2656 102.262H27.5321Z" fill="#9D9CB5"/>
        <path d="M27.4065 104.257L27.3196 105.667H14.4753L14.3867 104.257H27.4065Z" fill="#9D9CB5"/>
        <path d="M27.2813 106.254L27.1945 107.662H14.6003L14.5117 106.254H27.2813Z" fill="#9D9CB5"/>
        <path d="M12.7591 87.4833C18.5056 91.6277 20.8993 98.1119 20.8993 98.1119C20.8993 98.1119 13.9734 97.8746 8.2183 93.7302C2.4632 89.5858 0.078125 83.1016 0.078125 83.1016C0.078125 83.1016 7.011 83.3388 12.7591 87.4833Z" fill="#6C63FF"/>
        <path d="M0.0859375 83.1016C0.0859375 83.1016 7.27417 87.0849 9.57933 90.3755C11.8845 93.6661 20.8984 98.1137 20.8984 98.1137" stroke="#535461" stroke-width="2" stroke-miterlimit="10"/>
        <path d="M16.4667 79.1407C19.5935 81.3921 20.8981 84.9252 20.8981 84.9252C20.8981 84.9252 17.1286 84.7971 14 82.5404C10.8714 80.2837 9.57031 76.7559 9.57031 76.7559C9.57031 76.7559 13.3399 76.8754 16.4667 79.1407Z" fill="#6C63FF"/>
        <path d="M9.57031 76.7476C9.57031 76.7476 13.4823 78.9124 14.7365 80.7049C15.9907 82.4974 20.8981 84.9169 20.8981 84.9169" stroke="#535461" stroke-width="2" stroke-miterlimit="10"/>
        <path d="M25.4431 84.7382C21.849 88.6748 21.0898 93.8185 21.0898 93.8185C21.0898 93.8185 26.1553 92.5802 29.7477 88.6436C33.3401 84.707 34.1009 79.5615 34.1009 79.5615C34.1009 79.5615 29.0355 80.7998 25.4431 84.7382Z" fill="#6C63FF"/>
        <path d="M34.1009 79.5615C34.1009 79.5615 29.4211 83.5968 28.2312 86.3783C27.0412 89.1597 21.0898 93.8254 21.0898 93.8254" stroke="#535461" stroke-width="2" stroke-miterlimit="10"/>
    </g>
    <defs>
        <linearGradient id="paint0_linear" x1="102.717" y1="111.894" x2="102.717" y2="18.6611" gradientUnits="userSpaceOnUse">
            <stop stop-color="#808080" stop-opacity="0.25"/>
            <stop offset="0.54" stop-color="#808080" stop-opacity="0.12"/>
            <stop offset="1" stop-color="#808080" stop-opacity="0.1"/>
        </linearGradient>
        <linearGradient id="paint1_linear" x1="31969" y1="83725.6" x2="31969" y2="28368.1" gradientUnits="userSpaceOnUse">
            <stop stop-color="#808080" stop-opacity="0.25"/>
            <stop offset="0.54" stop-color="#808080" stop-opacity="0.12"/>
            <stop offset="1" stop-color="#808080" stop-opacity="0.1"/>
        </linearGradient>
        <clipPath id="clip0">
            <rect width="199" height="142" fill="white"/>
        </clipPath>
    </defs>
</svg>
