<svg width="173" height="136" viewBox="0 0 173 136" fill="none" xmlns="http://www.w3.org/2000/svg">
    <g clip-path="url(#clip0)">
        <path opacity="0.1" d="M84.4707 11.9288C78.2768 11.1855 72.4833 8.9023 66.6367 6.97166C60.1339 4.83504 53.5002 3.11979 46.7769 1.83657C39.6141 0.466329 32.2302 -0.426657 25.0491 0.211903C17.868 0.850462 10.8613 3.14695 6.28111 7.34581C-1.47835 14.4681 -0.823557 25.2637 1.73911 34.7789C4.78041 46.0685 10.0387 57.2283 18.6457 66.8433C24.7632 73.6779 32.4396 79.5945 40.0478 85.468C44.3489 88.7822 48.6898 92.1196 53.7137 94.7254C58.387 97.1466 63.5472 98.8827 68.6709 100.594C74.1419 102.423 79.6262 104.262 85.2751 105.661C103.305 110.124 122.286 109.984 140.844 109.587C147.376 109.449 154.203 109.221 159.682 106.668C163.952 104.673 166.995 101.44 169.3 97.9931C172.316 93.4766 174.221 88.0871 172.078 83.0501C168.921 75.6202 158.098 71.2434 154.495 63.9265C149.879 54.5377 158.846 44.6134 156.308 34.8405C155.253 30.7746 152.277 27.0996 149.122 23.6723C141.599 15.5008 131.599 8.05754 118.159 9.14509C106.78 10.063 96.4016 13.3622 84.4707 11.9288Z" fill="#6C63FF"/>
        <path d="M56.7261 7.36182H108.744C110.107 7.36181 111.415 7.90264 112.381 8.86581C113.347 9.82897 113.892 11.1359 113.896 12.5002V126.467C113.892 127.831 113.347 129.138 112.381 130.101C111.415 131.064 110.107 131.605 108.744 131.605H56.7261C55.3626 131.605 54.0547 131.064 53.089 130.101C52.1233 129.138 51.5786 127.831 51.5742 126.467V12.4986C51.5791 11.1345 52.124 9.82803 53.0896 8.86522C54.0553 7.90241 55.3629 7.36181 56.7261 7.36182Z" fill="url(#paint0_linear)"/>
        <path d="M56.5125 131.129H108.952C111.419 131.129 113.418 129.129 113.418 126.661L113.418 12.7813C113.418 10.3135 111.419 8.31302 108.952 8.31302H56.5125C54.0462 8.31302 52.0469 10.3135 52.0469 12.7813L52.0469 126.661C52.0469 129.129 54.0462 131.129 56.5125 131.129Z" fill="#4E5A86"/>
        <path d="M56.5665 119.705H108.898L108.898 19.7388H56.5665L56.5665 119.705Z" fill="white"/>
        <path d="M88.9167 14.5005C89.1792 14.5005 89.392 14.2876 89.392 14.0249C89.392 13.7622 89.1792 13.5493 88.9167 13.5493C88.6542 13.5493 88.4414 13.7622 88.4414 14.0249C88.4414 14.2876 88.6542 14.5005 88.9167 14.5005Z" fill="white"/>
        <path d="M76.2346 14.5005L86.369 14.5005C86.4607 14.5005 86.5352 14.426 86.5352 14.3342V13.7139C86.5352 13.6221 86.4607 13.5476 86.369 13.5476L76.2346 13.5476C76.1428 13.5476 76.0684 13.6221 76.0684 13.7139V14.3342C76.0684 14.426 76.1428 14.5005 76.2346 14.5005Z" fill="white"/>
        <path d="M82.9711 127.797C84.8105 127.797 86.3016 126.305 86.3016 124.464C86.3016 122.624 84.8105 121.132 82.9711 121.132C81.1317 121.132 79.6406 122.624 79.6406 124.464C79.6406 126.305 81.1317 127.797 82.9711 127.797Z" fill="white"/>
        <path opacity="0.1" d="M80.2399 136C103.553 136 122.452 132.352 122.452 127.852C122.452 123.352 103.553 119.704 80.2399 119.704C56.9265 119.704 38.0273 123.352 38.0273 127.852C38.0273 132.352 56.9265 136 80.2399 136Z" fill="#6C63FF"/>
        <path opacity="0.1" d="M102.924 35.2271H62.5391V89.2719H102.924V35.2271Z" fill="#6C63FF"/>
        <path d="M97.1189 61.4265C97.0191 61.3134 96.9178 61.2037 96.8131 61.0939C97.6158 60.1826 98.4484 59.2464 98.4401 58.0757C98.4318 56.6506 97.1687 55.5581 96.6967 54.2111C96.0552 52.3819 96.946 50.4163 97.3116 48.5123C97.5969 46.9647 97.5372 45.3732 97.1367 43.8514C96.7362 42.3297 96.0049 40.9151 94.9949 39.7088C94.6243 39.2698 94.1939 38.8458 93.6405 38.6728C92.8012 38.4068 91.9071 38.7759 91.0329 38.884C88.1429 39.2399 85.5137 36.7488 82.6104 36.9717C82.418 36.979 82.2287 37.0219 82.052 37.098C81.6764 37.2776 81.4736 37.6734 81.2409 38.016C80.3385 39.3463 78.8245 40.0115 77.3172 40.6766C77.1282 40.7332 76.948 40.816 76.782 40.9227C76.33 41.1339 75.8846 41.3534 75.4641 41.6029C73.3701 42.86 73.0378 44.4714 73.6909 45.815C73.9393 46.3105 74.2853 46.7505 74.708 47.1088C74.6922 47.1901 74.6722 47.2706 74.6481 47.3499C74.221 48.8865 72.7253 50.265 72.9979 51.8631C73.0578 52.1741 73.1702 52.4727 73.3303 52.7461C73.774 53.5493 74.5085 54.2427 74.7911 55.1141C74.8202 55.2024 74.844 55.2923 74.8625 55.3835C75.0154 56.1451 74.7728 56.8701 74.4387 57.5902C71.2545 58.3268 67.6581 59.6838 67.3789 62.08C66.8903 66.2473 65.4212 77.758 65.4212 77.758C65.4212 77.758 64.4374 83.0794 66.8072 83.7279C67.5534 83.9308 68.6354 83.6664 70.1876 82.6204L70.1045 82.8665C70.0862 82.9214 70.0679 82.9746 70.0513 83.0328C69.3727 85.0733 68.8297 87.1565 68.4259 89.2687H91.2938C91.1016 87.9405 90.8032 86.6297 90.4014 85.3492C90.3731 85.2561 90.3449 85.1713 90.32 85.0915C90.9696 85.371 91.6356 85.6109 92.3143 85.8099C93.1569 86.0626 93.8333 86.0593 94.3767 85.898C96.356 85.3077 96.5654 82.6254 96.5654 82.6254L97.4163 76.0868L98.4334 66.3371C98.5837 65.9144 98.6596 65.4688 98.6578 65.0201C98.6578 64.0805 98.3387 62.8167 97.1189 61.4265ZM79.7552 55.287C79.7668 55.1739 79.7751 55.0592 79.7818 54.9461L79.8117 54.9661C79.8117 55.0742 79.8001 55.1823 79.7884 55.2887C79.7884 55.2887 79.7884 55.3003 79.7884 55.307C79.7563 55.647 79.6837 55.9819 79.5724 56.3047C79.6606 55.971 79.7217 55.6306 79.7552 55.287ZM91.2955 78.8705C90.7853 79.1033 90.1056 78.7691 90.1056 78.7691C90.1638 78.8755 90.2186 78.9786 90.2718 79.0817C90.2723 79.0856 90.2723 79.0895 90.2718 79.0933L90.2352 79.0734L89.8447 78.8738C90.004 78.0831 90.2619 77.3154 90.6125 76.589C90.91 75.9838 91.1752 75.3632 91.4069 74.7298C91.5049 74.4505 91.5863 74.1944 91.6528 73.9582C91.6411 75.0057 91.6915 76.053 91.8041 77.0945C91.9503 78.227 91.6694 78.7026 91.2955 78.8705Z" fill="url(#paint1_linear)"/>
        <path d="M75.667 42.3127C75.1236 42.6836 74.5535 43.1126 74.3608 43.7428C74.0483 44.7589 74.8327 45.7782 74.9092 46.8392C75.0505 48.7665 72.8717 50.3596 73.1924 52.2669C73.4118 53.574 74.7513 54.462 75.0089 55.7591C75.3845 57.6548 73.332 59.326 73.4932 61.2467C73.5797 62.2727 74.2926 63.1441 75.1003 63.7793C76.2358 64.6688 77.5948 65.227 79.0274 65.3924C78.9327 63.7444 77.7095 62.2428 77.9206 60.6048C78.0652 59.4823 78.8546 58.5628 79.3116 57.5268C80.1143 55.7075 79.8567 53.6023 79.3764 51.6733C78.8961 49.7443 78.1998 47.8369 78.1649 45.8531C78.1433 44.6558 78.705 42.8981 78.2928 41.7623C77.7926 40.3854 76.5994 41.6775 75.667 42.3127Z" fill="#B0605D"/>
        <path opacity="0.1" d="M75.835 41.9802C75.2915 42.351 74.7215 42.7801 74.5287 43.4103C74.2163 44.4264 75.0007 45.4457 75.0772 46.5067C75.2184 48.434 73.0397 50.0271 73.3604 51.9344C73.5798 53.2415 74.9193 54.1295 75.1769 55.4265C75.5525 57.3223 73.5 58.9935 73.6612 60.9142C73.7476 61.9402 74.4606 62.8116 75.2683 63.4468C76.4038 64.3362 77.7628 64.8944 79.1954 65.0598C79.1006 63.4119 77.8775 61.9103 78.0885 60.2723C78.2331 59.1498 79.0225 58.2302 79.4796 57.1942C80.2823 55.375 80.0247 53.2697 79.5444 51.3408C79.0641 49.4118 78.3677 47.5044 78.3328 45.5206C78.3112 44.3233 78.873 42.5655 78.4608 41.4298C77.9606 40.0529 76.7673 41.345 75.835 41.9802Z" fill="black"/>
        <path d="M77.5921 66.9771C77.5921 66.9771 68.784 57.9973 75.4316 58.6625C76.939 58.8138 77.9594 58.5444 78.6358 58.0389C79.4069 57.4635 79.731 56.5822 79.8208 55.6626C80.0036 53.8334 79.254 51.8379 79.254 51.8379C79.254 51.8379 88.2284 44.6873 86.4003 53.6671C86.1995 54.5796 86.0827 55.5086 86.0513 56.4425C86.0213 58.3482 86.6479 59.0782 87.527 59.3775C89.0095 59.8847 91.2131 59.1747 92.2169 60.8176C94.045 63.8175 77.5921 66.9771 77.5921 66.9771Z" fill="#FFB9B9"/>
        <path opacity="0.05" d="M86.4001 53.6738C86.1994 54.5864 86.0826 55.5154 86.0511 56.4492C85.812 56.5321 85.5684 56.6015 85.3215 56.6571C84.3846 56.8685 83.4148 56.8891 82.4697 56.7177C81.5247 56.5463 80.6238 56.1863 79.8206 55.6593C80.0034 53.8301 79.2539 51.8346 79.2539 51.8346C79.2539 51.8346 88.2282 44.6941 86.4001 53.6738Z" fill="black"/>
        <path d="M90.8862 49.3502C90.8862 51.2467 90.1333 53.0654 88.7931 54.4064C87.4529 55.7474 85.6353 56.5008 83.74 56.5008C81.8447 56.5008 80.027 55.7474 78.6868 54.4064C77.3467 53.0654 76.5938 51.2467 76.5938 49.3502C76.5937 49.2172 76.5938 49.0842 76.6054 48.9528C76.7114 47.0956 77.5365 45.3528 78.9057 44.0944C80.2749 42.836 82.0803 42.161 83.9387 42.2127C85.797 42.2644 87.5621 43.0388 88.8593 44.3714C90.1564 45.704 90.8835 47.49 90.8862 49.3502Z" fill="#FFB9B9"/>
        <path opacity="0.05" d="M77.5921 66.9772C77.5921 66.9772 68.784 57.9975 75.4316 58.6627C76.939 58.814 77.9594 58.5446 78.6358 58.0391C77.3578 60.1742 75.902 64.0089 82.4117 63.6514C88.3696 63.3188 88.2682 60.9442 87.527 59.3844C89.0095 59.8916 91.2131 59.1815 92.2169 60.8244C94.045 63.8177 77.5921 66.9772 77.5921 66.9772Z" fill="black"/>
        <path d="M98.0246 66.6231C97.9833 66.7454 97.9316 66.8639 97.8701 66.9773L95.6115 68.7018L95.324 68.9229L91.5564 71.7998C91.5564 71.7998 91.9021 72.4051 91.4085 74.1777C91.1469 75.076 90.8071 75.9496 90.3931 76.7885C90.0507 77.5098 89.7985 78.2705 89.6419 79.0534C89.6427 79.065 89.6427 79.0767 89.6419 79.0883C89.6137 79.233 89.5887 79.376 89.5688 79.5174C89.3588 80.9308 89.3999 82.3703 89.6901 83.7695C89.693 83.7885 89.6969 83.8074 89.7018 83.826C89.7815 84.2051 89.8563 84.4629 89.8862 84.5593L89.9012 84.6042C89.9012 84.6042 89.981 84.8171 90.1006 85.1896L90.1106 85.2228C90.5345 86.5445 90.8491 87.8988 91.0512 89.272H68.7467C69.1497 87.1541 69.691 85.0649 70.3671 83.0178L70.4485 82.775C70.3122 82.8681 70.1793 82.9563 70.0513 83.0361C68.5057 84.0072 67.4803 84.1087 66.8073 83.7345C64.9343 82.6919 65.7951 77.9526 65.7951 77.9526C65.7951 77.9526 67.2294 66.5366 67.7063 62.4043C67.9806 60.028 71.4905 58.6827 74.5983 57.951C76.1764 57.5851 77.777 57.3241 79.3896 57.1694H79.4228C79.4228 57.1694 79.3763 57.226 79.2982 57.3357L79.2882 57.349C79.23 57.4255 79.1553 57.5236 79.0722 57.6434C78.5226 58.395 78.0666 59.2109 77.7144 60.0729C77.1992 61.4298 77.1111 62.9115 78.6185 63.6648C79.378 64.0456 80.5413 64.2418 82.2564 64.147C84.9071 64.0007 86.3596 63.4469 87.0892 62.7419C87.3995 62.4543 87.6097 62.075 87.6892 61.6593C87.8803 60.6483 87.2654 59.584 86.8383 58.9887C86.7203 58.8248 86.5938 58.6671 86.4594 58.5164L90.8169 58.8274C92.9517 58.9676 94.9592 59.8935 96.4524 61.4265C96.5555 61.5313 96.6552 61.641 96.7516 61.7591C98.6561 63.9691 98.3005 65.8648 98.0246 66.6231Z" fill="#FFD6EF"/>
        <path opacity="0.05" d="M71.9419 66.312C71.9419 66.312 72.2742 68.9727 71.6095 69.8041C70.9447 70.6356 70.7785 74.4603 71.6095 76.7884L71.9419 66.312Z" fill="black"/>
        <path d="M83.4512 71.9644H73.3967C73.0525 71.9644 72.7734 72.2435 72.7734 72.5879V75.9969C72.7734 76.3413 73.0525 76.6205 73.3967 76.6205H83.4512C83.7954 76.6205 84.0744 76.3413 84.0744 75.9969V72.5879C84.0744 72.2435 83.7954 71.9644 83.4512 71.9644Z" fill="#CDD0DB"/>
        <path opacity="0.05" d="M83.4512 71.9644H73.3967C73.0525 71.9644 72.7734 72.2435 72.7734 72.5879V75.9969C72.7734 76.3413 73.0525 76.6205 73.3967 76.6205H83.4512C83.7954 76.6205 84.0744 76.3413 84.0744 75.9969V72.5879C84.0744 72.2435 83.7954 71.9644 83.4512 71.9644Z" fill="black"/>
        <path d="M83.4512 72.1309H73.3967C73.0525 72.1309 72.7734 72.4101 72.7734 72.7545V76.1634C72.7734 76.5078 73.0525 76.787 73.3967 76.787H83.4512C83.7954 76.787 84.0744 76.5078 84.0744 76.1634V72.7545C84.0744 72.4101 83.7954 72.1309 83.4512 72.1309Z" fill="#CDD0DB"/>
        <path d="M81.6626 74.8747C81.938 74.8747 82.1612 74.6514 82.1612 74.3758C82.1612 74.1003 81.938 73.877 81.6626 73.877C81.3873 73.877 81.1641 74.1003 81.1641 74.3758C81.1641 74.6514 81.3873 74.8747 81.6626 74.8747Z" fill="#9DA7C0"/>
        <path opacity="0.05" d="M67.9657 79.3392C68.1157 78.8923 68.3615 78.4837 68.6859 78.1418C69.0103 77.8 69.4055 77.5333 69.8437 77.3603C70.4121 77.1241 71.1051 76.6951 71.4557 75.9119C72.1105 74.4601 73.2739 72.9635 76.2653 73.9613C79.2568 74.959 75.4344 75.6242 75.4344 75.6242C75.4344 75.6242 82.2482 74.6264 79.5891 76.6219C76.9301 78.6175 73.6063 79.7815 73.6063 79.7815L71.9693 81.5159C70.9721 82.5752 69.2404 82.5702 68.3131 81.4428C67.8976 80.9339 67.6799 80.2488 67.9657 79.3392Z" fill="black"/>
        <path d="M67.7978 79.0066C67.9478 78.5598 68.1936 78.1511 68.518 77.8093C68.8423 77.4675 69.2375 77.2008 69.6757 77.0278C70.2441 76.7916 70.9371 76.3626 71.2878 75.5794C71.9426 74.1276 73.1059 72.631 76.0973 73.6288C79.0888 74.6265 75.2664 75.2917 75.2664 75.2917C75.2664 75.2917 82.0802 74.2939 79.4211 76.2894C76.7621 78.2849 73.4383 79.449 73.4383 79.449L71.8013 81.1834C70.8042 82.2427 69.0724 82.2377 68.1451 81.1102C67.7296 80.6014 67.5119 79.9163 67.7978 79.0066Z" fill="#FFB9B9"/>
        <path opacity="0.05" d="M91.2204 82.4427L90.057 85.2696L88.5613 84.1738L84.4065 81.1123L81.5813 79.2831C77.5927 76.2899 81.5813 75.791 81.5813 75.791C80.0856 75.1259 81.5813 74.4607 81.5813 74.4607C86.8994 73.2966 85.9023 77.6202 85.9023 77.6202L89.271 79.3679L90.3894 79.9483L91.2204 82.4427Z" fill="black"/>
        <path d="M91.5524 82.1097L90.3891 84.9366L88.8934 83.8408L84.7386 80.7793L81.9133 78.9501C77.9247 75.9569 81.9133 75.458 81.9133 75.458C80.4176 74.7928 81.9133 74.1277 81.9133 74.1277C87.2314 72.9636 86.2343 77.2872 86.2343 77.2872L89.603 79.0349L90.7215 79.6153L91.5524 82.1097Z" fill="#FFB9B9"/>
        <path opacity="0.05" d="M91.5536 82.1099L90.3903 84.9369L88.8945 83.841C90.2423 83.8892 91.8345 83.2374 89.5975 79.0352L90.716 79.6155L91.5536 82.1099Z" fill="black"/>
        <path d="M97.7037 65.3145L98.0245 66.6232L97.0389 76.2897L96.208 82.7751C96.208 82.7751 95.8756 87.0987 92.0532 85.9346C88.2308 84.7706 87.8984 83.6065 87.8984 83.6065C87.8984 83.6065 93.3827 85.4357 89.8927 78.9504C89.8927 78.9504 91.887 79.9481 91.5546 77.2875C91.2223 74.6268 91.5546 69.9706 91.5546 69.9706L97.7037 65.3145Z" fill="#FFD6EF"/>
        <path opacity="0.05" d="M90.8907 49.3502C90.8909 50.972 90.3401 52.5456 89.3288 53.8129C88.3174 55.0802 86.9056 55.9658 85.3249 56.3245C85.0856 55.6327 84.9161 54.9443 85.0906 54.2442C85.423 52.8856 86.9952 51.8945 86.8207 50.506C86.8035 50.3489 86.7463 50.1988 86.6545 50.0703C86.3038 49.608 85.5892 49.8375 85.0208 49.9522C83.5517 50.2449 81.9429 49.2521 81.5441 47.807C80.9058 48.4352 80.1064 48.8747 79.2342 49.0768C78.362 49.279 77.4509 49.2361 76.6016 48.9528C76.7076 47.0956 77.5327 45.3528 78.9019 44.0944C80.2711 42.836 82.0764 42.161 83.9348 42.2127C85.7932 42.2644 87.5583 43.0388 88.8555 44.3714C90.1526 45.704 90.8797 47.49 90.8824 49.3502H90.8907Z" fill="black"/>
        <path d="M81.7189 47.4745C82.1161 48.9196 83.7265 49.9124 85.194 49.618C85.7623 49.505 86.4769 49.2755 86.8276 49.7378C86.9172 49.8662 86.9716 50.0158 86.9855 50.1718C87.1617 51.562 85.5945 52.5514 85.2571 53.9117C84.9098 55.3119 85.9219 56.6638 86.1462 58.0889C86.2642 58.8689 86.1462 59.6637 86.1462 60.452C86.1462 61.2402 86.3324 62.0883 86.9174 62.6137C87.5024 63.1392 88.5793 63.1492 88.9731 62.4641C90.8428 63.4535 90.0966 66.5183 91.5159 68.0864C92.2986 68.9511 93.5866 69.159 94.7483 69.0492C95.0203 69.0449 95.2848 68.9592 95.5078 68.8031C95.6998 68.6135 95.8297 68.3699 95.8801 68.1047C96.1733 66.9945 96.1229 65.8215 95.7355 64.7406C95.5493 64.2234 95.2818 63.7013 95.3516 63.1575C95.4047 62.7318 95.659 62.361 95.9282 62.0267C96.8207 60.9192 98.0389 59.8483 98.0306 58.4249C98.0223 57.0014 96.7891 55.9305 96.3288 54.6001C95.7022 52.7826 96.5714 50.8353 96.9287 48.9462C97.2079 47.414 97.1502 45.8393 96.7596 44.3316C96.369 42.8239 95.6548 41.4195 94.6669 40.2159C94.3046 39.7802 93.8841 39.3595 93.3373 39.1866C92.518 38.9238 91.6455 39.2897 90.7896 39.3961C87.9644 39.7503 85.4034 37.2792 82.5681 37.5004C82.3803 37.5076 82.1954 37.5499 82.023 37.6251C81.6557 37.803 81.458 38.1971 81.2303 38.5364C79.9789 40.4071 77.5192 40.9409 75.5914 42.1017C69.9692 45.489 77.4112 51.6219 81.7189 47.4745Z" fill="#B0605D"/>
        <path d="M116.01 129.746C116.01 129.746 113.603 117.547 118.559 109.186C120.66 105.692 121.571 101.611 121.157 97.5551C120.943 95.6311 120.554 93.7308 119.994 91.8779" stroke="#535461" stroke-width="2" stroke-miterlimit="10"/>
        <path d="M123.088 86.5896C122.955 88.0447 119.931 92.0241 119.931 92.0241C119.931 92.0241 117.684 87.5608 117.818 86.1041C117.843 85.7527 117.938 85.4099 118.097 85.0957C118.256 84.7815 118.476 84.5022 118.745 84.2741C119.013 84.0461 119.324 83.8739 119.66 83.7677C119.995 83.6615 120.349 83.6234 120.699 83.6556C121.05 83.6878 121.39 83.7897 121.701 83.9553C122.012 84.1208 122.286 84.3468 122.509 84.6199C122.731 84.893 122.897 85.2077 122.996 85.5457C123.095 85.8836 123.126 86.238 123.087 86.588L123.088 86.5896Z" fill="#6C63FF"/>
        <path d="M126.706 95.0522C125.804 96.2013 121.105 97.8991 121.105 97.8991C121.105 97.8991 121.644 92.9303 122.546 91.7813C122.991 91.2636 123.618 90.9377 124.296 90.8714C124.975 90.8051 125.653 91.0037 126.189 91.4257C126.725 91.8476 127.078 92.4604 127.173 93.1361C127.268 93.8118 127.099 94.4983 126.701 95.0522H126.706Z" fill="#6C63FF"/>
        <path d="M125.247 108.815C123.888 109.35 118.977 108.442 118.977 108.442C118.977 108.442 121.948 104.424 123.308 103.889C123.958 103.645 124.678 103.666 125.312 103.948C125.947 104.23 126.445 104.75 126.7 105.397C126.955 106.043 126.945 106.764 126.673 107.403C126.401 108.043 125.889 108.55 125.247 108.815Z" fill="#6C63FF"/>
        <path d="M121.806 118.98C120.557 119.738 115.562 119.674 115.562 119.674C115.562 119.674 117.813 115.212 119.062 114.454C119.36 114.267 119.691 114.14 120.037 114.083C120.384 114.025 120.738 114.037 121.08 114.118C121.422 114.199 121.744 114.347 122.028 114.553C122.312 114.76 122.552 115.021 122.734 115.321C122.916 115.622 123.037 115.955 123.089 116.303C123.14 116.65 123.123 117.005 123.036 117.345C122.95 117.686 122.797 118.006 122.586 118.286C122.374 118.567 122.11 118.803 121.806 118.98Z" fill="#6C63FF"/>
        <path d="M115.548 97.6731C116.499 98.7839 121.263 100.281 121.263 100.281C121.263 100.281 120.515 95.3384 119.566 94.2292C119.342 93.9595 119.067 93.737 118.756 93.5748C118.445 93.4126 118.105 93.3139 117.755 93.2843C117.406 93.2548 117.054 93.295 116.72 93.4027C116.387 93.5104 116.078 93.6834 115.811 93.9116C115.545 94.1398 115.327 94.4187 115.169 94.7322C115.012 95.0456 114.918 95.3872 114.893 95.7372C114.869 96.0872 114.914 96.4386 115.026 96.7709C115.139 97.1032 115.316 97.4099 115.548 97.6731Z" fill="#6C63FF"/>
        <path d="M111.669 109.611C112.907 110.386 117.903 110.388 117.903 110.388C117.903 110.388 115.713 105.898 114.473 105.121C114.178 104.931 113.849 104.802 113.504 104.741C113.158 104.679 112.805 104.687 112.463 104.764C112.121 104.84 111.797 104.984 111.511 105.187C111.225 105.389 110.982 105.647 110.797 105.944C110.611 106.242 110.486 106.573 110.429 106.919C110.373 107.265 110.385 107.619 110.466 107.96C110.548 108.301 110.696 108.623 110.902 108.906C111.109 109.19 111.369 109.429 111.669 109.611Z" fill="#6C63FF"/>
        <path d="M109.491 121.734C110.581 122.707 115.503 123.555 115.503 123.555C115.503 123.555 114.102 118.757 113.011 117.784C112.752 117.547 112.449 117.363 112.12 117.244C111.79 117.124 111.439 117.072 111.089 117.089C110.739 117.107 110.395 117.194 110.079 117.345C109.762 117.496 109.479 117.709 109.245 117.971C109.012 118.233 108.833 118.539 108.719 118.871C108.604 119.203 108.557 119.554 108.58 119.904C108.602 120.255 108.694 120.597 108.851 120.911C109.007 121.226 109.224 121.506 109.489 121.735L109.491 121.734Z" fill="#6C63FF"/>
        <path d="M74.0886 26.224C74.0886 24.5543 73.4257 22.9529 72.2457 21.7722C71.0657 20.5915 69.4653 19.9282 67.7966 19.9282H33.5147C31.8459 19.9282 30.2455 20.5915 29.0655 21.7722C27.8856 22.9529 27.2227 24.5543 27.2227 26.224C27.2227 27.8938 27.8856 29.4951 29.0655 30.6758C30.2455 31.8565 31.8459 32.5198 33.5147 32.5198L62.1776 32.465L68.7705 38.2203V32.435C70.2512 32.2039 71.6008 31.4511 72.5759 30.3123C73.551 29.1735 74.0875 27.7236 74.0886 26.224Z" fill="#6C63FF"/>
        <path opacity="0.2" d="M34.6001 28.6121C35.7989 28.6121 36.7706 27.6398 36.7706 26.4403C36.7706 25.2409 35.7989 24.2686 34.6001 24.2686C33.4014 24.2686 32.4297 25.2409 32.4297 26.4403C32.4297 27.6398 33.4014 28.6121 34.6001 28.6121Z" fill="white"/>
        <path opacity="0.2" d="M41.9751 28.6121C43.1739 28.6121 44.1456 27.6398 44.1456 26.4403C44.1456 25.2409 43.1739 24.2686 41.9751 24.2686C40.7764 24.2686 39.8047 25.2409 39.8047 26.4403C39.8047 27.6398 40.7764 28.6121 41.9751 28.6121Z" fill="white"/>
        <path opacity="0.2" d="M49.3541 28.6121C50.5528 28.6121 51.5245 27.6398 51.5245 26.4403C51.5245 25.2409 50.5528 24.2686 49.3541 24.2686C48.1553 24.2686 47.1836 25.2409 47.1836 26.4403C47.1836 27.6398 48.1553 28.6121 49.3541 28.6121Z" fill="white"/>
        <path d="M79.7409 97.9189H62.457V103.074H79.7409V97.9189Z" fill="#6C63FF"/>
        <path opacity="0.1" d="M102.842 97.9189H85.5586V103.074H102.842V97.9189Z" fill="#6C63FF"/>
    </g>
    <defs>
        <linearGradient id="paint0_linear" x1="82.7334" y1="131.605" x2="82.7334" y2="7.36182" gradientUnits="userSpaceOnUse">
            <stop stop-color="#808080" stop-opacity="0.25"/>
            <stop offset="0.54" stop-color="#808080" stop-opacity="0.12"/>
            <stop offset="1" stop-color="#808080" stop-opacity="0.1"/>
        </linearGradient>
        <linearGradient id="paint1_linear" x1="19210.8" y1="30268.7" x2="19210.8" y2="13812.6" gradientUnits="userSpaceOnUse">
            <stop stop-color="#808080" stop-opacity="0.25"/>
            <stop offset="0.54" stop-color="#808080" stop-opacity="0.12"/>
            <stop offset="1" stop-color="#808080" stop-opacity="0.1"/>
        </linearGradient>
        <clipPath id="clip0">
            <rect width="173" height="136" fill="white"/>
        </clipPath>
    </defs>
</svg>
