<svg width="155" height="124" viewBox="0 0 155 124" fill="none" xmlns="http://www.w3.org/2000/svg">
    <path d="M77.6635 105.508C67.1613 105.508 56.9841 101.869 48.8659 95.2104C40.7476 88.5517 35.1907 79.2857 33.1418 68.9912C31.093 58.6968 32.679 48.0108 37.6297 38.7541C42.5804 29.4973 50.5894 22.2426 60.2921 18.2259C69.9949 14.2092 80.7909 13.6791 90.8408 16.726C100.891 19.7729 109.573 26.2082 115.407 34.9354C121.242 43.6626 123.868 54.1418 122.839 64.5873C121.81 75.0329 117.188 84.7986 109.762 92.2205C105.557 96.4465 100.554 99.7969 95.0445 102.078C89.5348 104.359 83.6271 105.525 77.6635 105.508ZM77.6635 15.1211C52.8256 15.1211 32.6184 35.3167 32.6184 60.1404C32.6184 84.9642 52.8256 105.16 77.6635 105.16C102.501 105.16 122.709 84.9642 122.709 60.1404C122.709 35.3167 102.501 15.1211 77.6635 15.1211Z" fill="#CCCCCC"/>
    <path d="M94.5195 112.312V66.6064H60.4824V112.312H94.5195Z" fill="#2F2E41"/>
    <path d="M100.365 65.2104H54.6328V83.3532H100.365V65.2104Z" fill="#3F3D56"/>
    <path d="M100.365 85.4468H54.6328V103.59H100.365V85.4468Z" fill="#3F3D56"/>
    <path d="M100.365 105.683H54.6328V123.826H100.365V105.683Z" fill="#3F3D56"/>
    <path d="M100.365 72.9028H54.6328V75.694H100.365V72.9028Z" fill="#FBC006"/>
    <path d="M100.365 93.1392H54.6328V95.9304H100.365V93.1392Z" fill="#FBC006"/>
    <path d="M100.365 113.375H54.6328V116.167H100.365V113.375Z" fill="#FBC006"/>
    <path d="M91.4653 68.8742C92.0437 68.8742 92.5126 68.4055 92.5126 67.8275C92.5126 67.2494 92.0437 66.7808 91.4653 66.7808C90.8869 66.7808 90.418 67.2494 90.418 67.8275C90.418 68.4055 90.8869 68.8742 91.4653 68.8742Z" fill="#FBC006"/>
    <path d="M95.1293 68.8742C95.7077 68.8742 96.1766 68.4055 96.1766 67.8275C96.1766 67.2494 95.7077 66.7808 95.1293 66.7808C94.5509 66.7808 94.082 67.2494 94.082 67.8275C94.082 68.4055 94.5509 68.8742 95.1293 68.8742Z" fill="#FBC006"/>
    <path d="M98.7934 68.8742C99.3718 68.8742 99.8407 68.4055 99.8407 67.8275C99.8407 67.2494 99.3718 66.7808 98.7934 66.7808C98.215 66.7808 97.7461 67.2494 97.7461 67.8275C97.7461 68.4055 98.215 68.8742 98.7934 68.8742Z" fill="#FBC006"/>
    <path d="M91.4653 88.7614C92.0437 88.7614 92.5126 88.2927 92.5126 87.7147C92.5126 87.1366 92.0437 86.668 91.4653 86.668C90.8869 86.668 90.418 87.1366 90.418 87.7147C90.418 88.2927 90.8869 88.7614 91.4653 88.7614Z" fill="#FBC006"/>
    <path d="M95.1293 88.7614C95.7077 88.7614 96.1766 88.2927 96.1766 87.7147C96.1766 87.1366 95.7077 86.668 95.1293 86.668C94.5509 86.668 94.082 87.1366 94.082 87.7147C94.082 88.2927 94.5509 88.7614 95.1293 88.7614Z" fill="#FBC006"/>
    <path d="M98.7934 88.7614C99.3718 88.7614 99.8407 88.2927 99.8407 87.7147C99.8407 87.1366 99.3718 86.668 98.7934 86.668C98.215 86.668 97.7461 87.1366 97.7461 87.7147C97.7461 88.2927 98.215 88.7614 98.7934 88.7614Z" fill="#FBC006"/>
    <path d="M91.4653 108.649C92.0437 108.649 92.5126 108.18 92.5126 107.602C92.5126 107.024 92.0437 106.555 91.4653 106.555C90.8869 106.555 90.418 107.024 90.418 107.602C90.418 108.18 90.8869 108.649 91.4653 108.649Z" fill="#FBC006"/>
    <path d="M95.1293 108.649C95.7077 108.649 96.1766 108.18 96.1766 107.602C96.1766 107.024 95.7077 106.555 95.1293 106.555C94.5509 106.555 94.082 107.024 94.082 107.602C94.082 108.18 94.5509 108.649 95.1293 108.649Z" fill="#FBC006"/>
    <path d="M98.7934 108.649C99.3718 108.649 99.8407 108.18 99.8407 107.602C99.8407 107.024 99.3718 106.555 98.7934 106.555C98.215 106.555 97.7461 107.024 97.7461 107.602C97.7461 108.18 98.215 108.649 98.7934 108.649Z" fill="#FBC006"/>
    <path d="M155 123.651H0V124H155V123.651Z" fill="#3F3D56"/>
    <path d="M42.2198 47.2871V79.7333C42.2196 80.4121 41.9498 81.0631 41.4695 81.5431C40.9893 82.023 40.3379 82.2928 39.6587 82.2929H27.0426C26.3632 82.293 25.7116 82.0234 25.2312 81.5434C24.7507 81.0634 24.4807 80.4123 24.4805 79.7333V47.2871C24.4807 46.6081 24.7507 45.9571 25.2312 45.4771C25.7116 44.9971 26.3632 44.7275 27.0426 44.7275H28.573C28.4979 44.9122 28.4693 45.1126 28.4897 45.3109C28.5102 45.5092 28.5791 45.6995 28.6903 45.865C28.8016 46.0305 28.9518 46.1661 29.1278 46.26C29.3039 46.3539 29.5002 46.4031 29.6997 46.4033H36.8926C37.0921 46.4031 37.2885 46.3539 37.4645 46.26C37.6405 46.1661 37.7908 46.0305 37.902 45.865C38.0133 45.6995 38.0822 45.5092 38.1027 45.3109C38.1231 45.1126 38.0945 44.9122 38.0194 44.7275H39.6587C40.3379 44.7277 40.9893 44.9974 41.4695 45.4774C41.9498 45.9574 42.2196 46.6083 42.2198 47.2871Z" fill="#E6E6E6"/>
    <path d="M41.3789 50.9233H25.3203V73.2529H41.3789V50.9233Z" fill="white"/>
    <path d="M36.2883 66.2783H29.8789V66.6443H36.2883V66.2783Z" fill="#E6E6E6"/>
    <path d="M39.7924 67.6221H29.875V67.9881H39.7924V67.6221Z" fill="#6C63FF"/>
    <path d="M37.6579 68.8882H29.875V69.2542H37.6579V68.8882Z" fill="#E6E6E6"/>
    <path d="M34.4532 70.1548H29.875V70.5208H34.4532V70.1548Z" fill="#E6E6E6"/>
    <path d="M36.7422 71.4209H29.875V71.787H36.7422V71.4209Z" fill="#E6E6E6"/>
    <path d="M27.7052 66.1729H26.9727V66.905H27.7052V66.1729Z" fill="#E6E6E6"/>
    <path d="M27.7052 67.4395H26.9727V68.1715H27.7052V67.4395Z" fill="#6C63FF"/>
    <path d="M27.7052 68.7051H26.9727V69.4372H27.7052V68.7051Z" fill="#E6E6E6"/>
    <path d="M27.7052 69.9717H26.9727V70.7037H27.7052V69.9717Z" fill="#E6E6E6"/>
    <path d="M27.7052 71.2378H26.9727V71.9698H27.7052V71.2378Z" fill="#E6E6E6"/>
    <path d="M36.6102 53.7148H30.1523V60.169H36.6102V53.7148Z" fill="#E6E6E6"/>
    <path d="M98.9697 0.0244141H56.0508V27.4959H98.9697V0.0244141Z" fill="#E6E6E6"/>
    <path d="M94.869 7.70996H59.2852V21.1487H94.869V7.70996Z" fill="white"/>
    <path d="M74.3097 10.0381H65.7695V10.5258H74.3097V10.0381Z" fill="#E6E6E6"/>
    <path d="M78.9761 11.8291H65.7617V12.3168H78.9761V11.8291Z" fill="#6C63FF"/>
    <path d="M76.1319 13.5161H65.7617V14.0038H76.1319V13.5161Z" fill="#E6E6E6"/>
    <path d="M71.8618 15.2031H65.7617V15.6908H71.8618V15.2031Z" fill="#E6E6E6"/>
    <path d="M74.9119 16.8906H65.7617V17.3783H74.9119V16.8906Z" fill="#E6E6E6"/>
    <path d="M62.8706 9.89795H61.8945V10.8734H62.8706V9.89795Z" fill="#E6E6E6"/>
    <path d="M62.8706 11.585H61.8945V12.5604H62.8706V11.585Z" fill="#6C63FF"/>
    <path d="M62.8706 13.2725H61.8945V14.2479H62.8706V13.2725Z" fill="#E6E6E6"/>
    <path d="M62.8706 14.9595H61.8945V15.9349H62.8706V14.9595Z" fill="#E6E6E6"/>
    <path d="M62.8706 16.6465H61.8945V17.6219H62.8706V16.6465Z" fill="#E6E6E6"/>
    <path d="M93.1245 9.39355H84.3867V18.1263H93.1245V9.39355Z" fill="#E6E6E6"/>
    <path d="M98.9501 0H56.0312V1.82231H98.9501V0Z" fill="#6C63FF"/>
    <path d="M57.3855 1.29751C57.5877 1.29751 57.7515 1.13374 57.7515 0.931714C57.7515 0.72969 57.5877 0.565918 57.3855 0.565918C57.1834 0.565918 57.0195 0.72969 57.0195 0.931714C57.0195 1.13374 57.1834 1.29751 57.3855 1.29751Z" fill="white"/>
    <path d="M58.6707 1.29751C58.8728 1.29751 59.0367 1.13374 59.0367 0.931714C59.0367 0.72969 58.8728 0.565918 58.6707 0.565918C58.4686 0.565918 58.3047 0.72969 58.3047 0.931714C58.3047 1.13374 58.4686 1.29751 58.6707 1.29751Z" fill="white"/>
    <path d="M59.9519 1.29751C60.1541 1.29751 60.3179 1.13374 60.3179 0.931714C60.3179 0.72969 60.1541 0.565918 59.9519 0.565918C59.7498 0.565918 59.5859 0.72969 59.5859 0.931714C59.5859 1.13374 59.7498 1.29751 59.9519 1.29751Z" fill="white"/>
    <path d="M127.707 51.4292H117.234V56.8371H127.707V51.4292Z" fill="#E6E6E6"/>
    <path d="M127.707 70.793H117.234V76.2009H127.707V70.793Z" fill="#E6E6E6"/>
    <path d="M122.474 72.5377C127.294 72.5377 131.201 68.6325 131.201 63.8153C131.201 58.998 127.294 55.0928 122.474 55.0928C117.654 55.0928 113.746 58.998 113.746 63.8153C113.746 68.6325 117.654 72.5377 122.474 72.5377Z" fill="#E6E6E6"/>
    <path d="M122.471 70.6188C126.231 70.6188 129.279 67.5728 129.279 63.8153C129.279 60.0578 126.231 57.0117 122.471 57.0117C118.712 57.0117 115.664 60.0578 115.664 63.8153C115.664 67.5728 118.712 70.6188 122.471 70.6188Z" fill="white"/>
    <path d="M125.522 61.9507H120.242V62.2522H125.522V61.9507Z" fill="#E2E2E2"/>
    <path d="M128.407 63.0581H120.238V63.3596H128.407V63.0581Z" fill="#6C63FF"/>
    <path d="M126.649 64.1011H120.238V64.4026H126.649V64.1011Z" fill="#E2E2E2"/>
    <path d="M124.009 65.144H120.238V65.4456H124.009V65.144Z" fill="#E2E2E2"/>
    <path d="M125.895 66.187H120.238V66.4886H125.895V66.187Z" fill="#E2E2E2"/>
    <path d="M118.451 61.8643H117.848V62.4673H118.451V61.8643Z" fill="#E2E2E2"/>
    <path d="M118.451 62.9072H117.848V63.5103H118.451V62.9072Z" fill="#6C63FF"/>
    <path d="M118.451 63.9502H117.848V64.5532H118.451V63.9502Z" fill="#E2E2E2"/>
    <path d="M118.451 64.9932H117.848V65.5962H118.451V64.9932Z" fill="#E2E2E2"/>
    <path d="M118.451 66.0361H117.848V66.6392H118.451V66.0361Z" fill="#E2E2E2"/>
</svg>
