<svg width="177" height="177" viewBox="0 0 177 177" fill="none" xmlns="http://www.w3.org/2000/svg">
<circle cx="88.5" cy="88.5" r="87" fill="white" stroke="#E5E5E5" stroke-width="3"/>
<path d="M124.974 92.5494V73.3419C125.762 72.5631 126.252 71.4833 126.252 70.2902V62.5214C126.252 57.7224 122.412 53.8062 117.644 53.6771V43.693C117.644 39.0123 113.836 35.2045 109.155 35.2045H73.2976C65.6105 35.2045 59.3564 41.4585 59.3564 49.146V53.6771C54.5881 53.8062 50.7482 57.7224 50.7482 62.5214V70.2902C50.7482 71.4812 51.2365 72.5596 52.0226 73.338V92.5504C46.1735 95.727 42.1934 101.926 42.1934 109.038V140.401C42.1934 141.171 42.818 141.796 43.5884 141.796H133.412C134.183 141.796 134.807 141.171 134.807 140.401V109.038C134.807 101.926 130.825 95.7256 124.974 92.5494ZM132.017 114.91H126.333V108.705H132.009C132.011 108.816 132.017 114.91 132.017 114.91ZM122.184 91.3235C120.263 90.6577 118.204 90.2911 116.06 90.2911H110.448C114.126 85.9616 116.553 80.539 117.153 74.5821C117.153 74.5821 122.109 74.5747 122.184 74.5709V91.3235ZM88.4988 45.6622C102.841 45.6622 114.51 57.3308 114.51 71.6734C114.51 86.016 102.841 97.6846 88.4988 97.6846C74.1562 97.6846 62.4876 86.016 62.4876 71.6734C62.4876 57.3308 74.1562 45.6622 88.4988 45.6622ZM69.2561 93.0812C74.3606 97.6741 81.1082 100.475 88.4988 100.475C95.8895 100.475 102.637 97.6741 107.742 93.0812H112.419C106.455 100 97.7062 104.059 88.4999 104.059C79.2914 104.059 70.5409 100 64.5767 93.0812H69.2561ZM63.174 95.7019C69.3269 102.404 77.9567 106.442 87.1048 106.816V139.005H63.174V95.7019ZM89.8953 106.817C99.0434 106.442 107.674 102.403 113.826 95.6977V139.006H89.8953V106.817ZM123.462 62.5214V70.2902C123.462 71.1181 122.788 71.792 121.96 71.792H117.297C117.297 71.7522 117.3 71.7131 117.3 71.6734C117.3 66.0914 115.699 60.8791 112.939 56.461H117.402C120.744 56.461 123.462 59.1796 123.462 62.5214ZM73.2976 37.9946H109.155C112.297 37.9946 114.854 40.551 114.854 43.693V53.6709H110.956C105.673 47.0935 97.5719 42.8721 88.4988 42.8721C79.4257 42.8721 71.3239 47.0939 66.0408 53.6709H62.1566L62.1465 49.146C62.1465 42.9973 67.1489 37.9946 73.2976 37.9946ZM53.538 62.5214C53.538 59.1796 56.2566 56.4613 59.5981 56.4613H64.0585C61.2987 60.8791 59.6972 66.0918 59.6972 71.6737C59.6972 71.7135 59.6999 71.7525 59.7003 71.7923H55.0398C54.2118 71.7923 53.5383 71.1185 53.5383 70.2905V62.5214H53.538ZM54.8124 74.5706C54.888 74.5744 59.844 74.5821 59.844 74.5821C60.4442 80.539 62.8713 85.9616 66.5493 90.2911H60.9363C58.7921 90.2911 56.733 90.658 54.8124 91.3242V74.5706ZM44.9831 109.038C44.9831 100.425 51.8426 93.3878 60.3839 93.0952V139.006H44.9831V109.038ZM116.616 139.006V93.0952C124.098 93.3533 130.287 98.7832 131.708 105.915H124.938C124.168 105.915 123.543 106.54 123.543 107.31V116.305C123.543 117.076 124.168 117.701 124.938 117.701H132.017V139.006H116.616Z" fill="#E6E6E6"/>
<path d="M108.922 116.443H94.8621C94.0917 116.443 93.467 117.068 93.467 117.838V123.854C93.467 124.625 94.0917 125.25 94.8621 125.25H108.922C109.693 125.25 110.317 124.625 110.317 123.854V117.838C110.317 117.068 109.693 116.443 108.922 116.443ZM107.527 122.46H96.2572V119.234H107.527V122.46Z" fill="#E6E6E6"/>
<path d="M106.417 48.2719H111.895C112.666 48.2719 113.29 47.6473 113.29 46.8769V44.4209C113.29 41.7225 111.095 39.5273 108.397 39.5273H106.417C105.647 39.5273 105.022 40.152 105.022 40.9224V46.8769C105.022 47.6473 105.647 48.2719 106.417 48.2719ZM107.812 42.3175H108.397C109.557 42.3175 110.5 43.2612 110.5 44.4209V45.4818H107.812V42.3175Z" fill="#E6E6E6"/>
<path d="M88.4989 94.8283C100.975 94.8283 111.126 84.9345 111.126 72.7738C111.126 66.9634 108.769 62.2467 104.31 59.1343C100.384 56.3937 94.9168 54.9449 88.4989 54.9449C82.0806 54.9449 76.613 56.3937 72.6873 59.1343C68.2287 62.2467 65.8721 66.963 65.8721 72.7734C65.8721 84.9345 76.0225 94.8283 88.4989 94.8283ZM74.2843 61.4219C77.7395 59.0098 82.6546 57.7347 88.4989 57.7347C94.3428 57.7347 99.2582 59.0098 102.713 61.4219C106.444 64.0261 108.336 67.845 108.336 72.7734C108.336 83.3961 99.4368 92.0378 88.4989 92.0378C77.5609 92.0378 68.6622 83.3958 68.6622 72.7734C68.6622 67.8454 70.5535 64.0261 74.2843 61.4219Z" fill="#E6E6E6"/>
<path d="M92.1116 62.7091C92.4014 62.7506 92.6898 62.7981 92.9776 62.8514C93.0637 62.8675 93.1495 62.8752 93.2342 62.8752C93.8934 62.8752 94.4793 62.4064 94.6042 61.735C94.7451 60.9775 94.2453 60.2493 93.4878 60.1084C93.1621 60.0477 92.8353 59.9944 92.5074 59.9473C91.7433 59.8374 91.0377 60.3675 90.9286 61.1303C90.8194 61.8927 91.3488 62.5996 92.1116 62.7091Z" fill="#E6E6E6"/>
<path d="M97.3928 64.2967C102.085 66.36 103.07 70.586 103.071 73.7678C103.071 74.5382 103.696 75.1625 104.466 75.1625H104.466C105.237 75.1625 105.861 74.5375 105.861 73.7671C105.86 68.0955 103.251 63.8252 98.5158 61.7424C97.8106 61.432 96.9875 61.7525 96.6771 62.4577C96.3671 63.1633 96.6876 63.9863 97.3928 64.2967Z" fill="#E6E6E6"/>
</svg>
