<svg width="53" height="69" viewBox="0 0 53 69" fill="none" xmlns="http://www.w3.org/2000/svg">
    <path d="M42.3594 33.1562H41.2656V16.2031C41.2648 15.4782 40.9764 14.7832 40.4638 14.2706C39.9512 13.758 39.2562 13.4696 38.5312 13.4688H14.4688C13.7438 13.4696 13.0488 13.758 12.5362 14.2706C12.0236 14.7832 11.7352 15.4782 11.7344 16.2031V33.1562H10.6406C10.4956 33.1562 10.3565 33.2139 10.2539 33.3164C10.1514 33.419 10.0938 33.5581 10.0938 33.7031V35.8906C10.0938 36.3257 10.2666 36.743 10.5743 37.0507C10.882 37.3584 11.2993 37.5312 11.7344 37.5312H41.2656C41.7007 37.5312 42.118 37.3584 42.4257 37.0507C42.7334 36.743 42.9062 36.3257 42.9062 35.8906V33.7031C42.9062 33.5581 42.8486 33.419 42.7461 33.3164C42.6435 33.2139 42.5044 33.1562 42.3594 33.1562ZM12.8281 16.2031C12.8281 15.768 13.001 15.3507 13.3087 15.043C13.6163 14.7354 14.0336 14.5625 14.4688 14.5625H38.5312C38.9664 14.5625 39.3837 14.7354 39.6913 15.043C39.999 15.3507 40.1719 15.768 40.1719 16.2031V33.1562H12.8281V16.2031ZM41.8125 35.8906C41.8125 36.0357 41.7549 36.1748 41.6523 36.2773C41.5498 36.3799 41.4107 36.4375 41.2656 36.4375H11.7344C11.5893 36.4375 11.4502 36.3799 11.3477 36.2773C11.2451 36.1748 11.1875 36.0357 11.1875 35.8906V34.25H41.8125V35.8906Z" fill="white"/>
    <path d="M28.6875 34.7969H24.3125V35.8906H28.6875V34.7969Z" fill="white"/>
    <path d="M36.3416 28.2343C35.9166 28.2346 35.5085 28.4008 35.2041 28.6975L33.5034 27.8471C33.6046 27.502 33.6326 27.1396 33.5855 26.783C33.5384 26.4264 33.4173 26.0837 33.2299 25.7767L35.0078 24.1956C35.2479 24.3318 35.5188 24.4043 35.7948 24.4062C36.1479 24.4075 36.4921 24.2952 36.7765 24.086C37.061 23.8767 37.2707 23.5816 37.3746 23.2441C37.4785 22.9066 37.4711 22.5446 37.3536 22.2116C37.2361 21.8786 37.0146 21.5922 36.7219 21.3946C36.4292 21.1971 36.0807 21.0989 35.7279 21.1145C35.3751 21.1302 35.0367 21.2588 34.7626 21.4814C34.4885 21.7041 34.2933 22.009 34.2057 22.3511C34.118 22.6932 34.1427 23.0544 34.2761 23.3813L32.5031 24.9585C32.2173 24.7407 31.8909 24.582 31.543 24.492C31.1951 24.402 30.8327 24.3823 30.477 24.4342C30.1214 24.4862 29.7798 24.6086 29.4721 24.7943C29.1644 24.98 28.897 25.2253 28.6854 25.5158L25.8301 24.182C25.9547 23.7391 25.9834 23.2748 25.9143 22.82C25.8453 22.3652 25.6801 21.9303 25.4298 21.5444L27.9159 19.2836C28.1517 19.4135 28.4162 19.4825 28.6854 19.4843C29.0378 19.4844 29.3809 19.371 29.6638 19.1609C29.9467 18.9508 30.1545 18.6551 30.2563 18.3178C30.3582 17.9804 30.3486 17.6192 30.2292 17.2876C30.1097 16.9561 29.8867 16.6718 29.5931 16.4769C29.2995 16.2819 28.951 16.1867 28.599 16.2054C28.2471 16.224 27.9105 16.3554 27.6391 16.5802C27.3677 16.805 27.1759 17.1112 27.0921 17.4535C27.0083 17.7959 27.037 18.156 27.1738 18.4808L24.6932 20.735C24.117 20.2797 23.4041 20.0321 22.6698 20.0321C21.9354 20.0321 21.2225 20.2797 20.6463 20.735L18.1668 18.4808C18.3274 18.1165 18.3535 17.7071 18.2406 17.3253C18.1278 16.9436 17.8831 16.6142 17.5503 16.3958C17.2174 16.1774 16.8179 16.0842 16.4228 16.1326C16.0276 16.1811 15.6625 16.3681 15.3922 16.6604C15.122 16.9528 14.9642 17.3315 14.9469 17.7292C14.9296 18.1269 15.0539 18.5179 15.2977 18.8326C15.5416 19.1473 15.8891 19.3653 16.2786 19.4479C16.668 19.5305 17.0741 19.4723 17.4247 19.2836L19.9108 21.5444C19.5225 22.1459 19.343 22.8585 19.3999 23.5722C19.4568 24.2859 19.747 24.961 20.2258 25.4934L18.8312 27.2379C18.6592 27.1753 18.4778 27.1424 18.2948 27.1406C17.9703 27.1406 17.6531 27.2368 17.3833 27.4171C17.1135 27.5973 16.9032 27.8536 16.779 28.1534C16.6548 28.4531 16.6224 28.783 16.6857 29.1013C16.749 29.4195 16.9052 29.7118 17.1347 29.9413C17.3641 30.1707 17.6564 30.327 17.9747 30.3903C18.2929 30.4536 18.6228 30.4211 18.9226 30.2969C19.2224 30.1728 19.4786 29.9625 19.6589 29.6927C19.8392 29.4229 19.9354 29.1057 19.9354 28.7812C19.9345 28.4763 19.8477 28.1777 19.6849 27.9199L21.0773 26.1792C21.7896 26.576 22.6244 26.6928 23.4182 26.5064C24.2121 26.3201 24.9078 25.8442 25.3691 25.1718L28.2205 26.5035C28.168 26.7118 28.1404 26.9257 28.1385 27.1406C28.1363 27.7089 28.312 28.2637 28.6409 28.7272C28.9698 29.1908 29.4355 29.5398 29.9727 29.7253C30.5099 29.9109 31.0917 29.9238 31.6366 29.7621C32.1814 29.6005 32.6621 29.2724 33.0112 28.8239L34.7207 29.6786C34.6817 30.0083 34.744 30.3421 34.8992 30.6355C35.0544 30.929 35.2952 31.1683 35.5897 31.3217C35.8841 31.4751 36.2182 31.5353 36.5477 31.4943C36.8771 31.4533 37.1863 31.3131 37.4342 31.0922C37.682 30.8714 37.8569 30.5803 37.9354 30.2578C38.014 29.9352 37.9926 29.5964 37.874 29.2863C37.7555 28.9762 37.5454 28.7095 37.2717 28.5216C36.998 28.3337 36.6736 28.2335 36.3416 28.2343ZM28.6854 17.2968C28.7935 17.2968 28.8993 17.3289 28.9892 17.389C29.0791 17.4491 29.1492 17.5345 29.1906 17.6344C29.232 17.7343 29.2428 17.8443 29.2217 17.9504C29.2006 18.0565 29.1486 18.1539 29.0721 18.2304C28.9956 18.3069 28.8982 18.359 28.7921 18.3801C28.686 18.4012 28.576 18.3903 28.4761 18.3489C28.3762 18.3075 28.2908 18.2375 28.2307 18.1475C28.1706 18.0576 28.1385 17.9519 28.1385 17.8437C28.1385 17.6987 28.1961 17.5596 28.2987 17.457C28.4012 17.3544 28.5403 17.2968 28.6854 17.2968ZM16.6541 18.3906C16.546 18.3906 16.4402 18.3585 16.3503 18.2984C16.2604 18.2383 16.1903 18.1529 16.1489 18.053C16.1075 17.953 16.0967 17.8431 16.1178 17.737C16.1389 17.6309 16.191 17.5335 16.2674 17.457C16.3439 17.3805 16.4414 17.3284 16.5474 17.3073C16.6535 17.2862 16.7635 17.2971 16.8634 17.3384C16.9633 17.3798 17.0487 17.4499 17.1088 17.5399C17.1689 17.6298 17.201 17.7355 17.201 17.8437C17.201 17.9887 17.1434 18.1278 17.0408 18.2304C16.9383 18.3329 16.7992 18.3906 16.6541 18.3906ZM18.2948 29.3281C18.1866 29.3281 18.0809 29.296 17.9909 29.2359C17.901 29.1758 17.8309 29.0904 17.7895 28.9905C17.7481 28.8905 17.7373 28.7806 17.7584 28.6745C17.7795 28.5684 17.8316 28.471 17.9081 28.3945C17.9845 28.318 18.082 28.2659 18.1881 28.2448C18.2941 28.2237 18.4041 28.2346 18.504 28.2759C18.604 28.3173 18.6894 28.3874 18.7495 28.4774C18.8096 28.5673 18.8416 28.673 18.8416 28.7812C18.8416 28.9262 18.784 29.0653 18.6815 29.1679C18.5789 29.2705 18.4398 29.3281 18.2948 29.3281ZM22.6698 25.4999C22.2371 25.4999 21.8142 25.3716 21.4544 25.1313C21.0947 24.8909 20.8143 24.5493 20.6488 24.1496C20.4832 23.7498 20.4399 23.31 20.5243 22.8857C20.6087 22.4613 20.817 22.0716 21.123 21.7656C21.4289 21.4597 21.8187 21.2514 22.243 21.167C22.6673 21.0826 23.1072 21.1259 23.5069 21.2915C23.9066 21.457 24.2482 21.7374 24.4886 22.0971C24.729 22.4569 24.8573 22.8798 24.8573 23.3124C24.8573 23.8926 24.6268 24.449 24.2166 24.8592C23.8063 25.2695 23.2499 25.4999 22.6698 25.4999ZM35.7948 22.2187C35.9029 22.2187 36.0086 22.2508 36.0986 22.3109C36.1885 22.3709 36.2586 22.4564 36.3 22.5563C36.3414 22.6562 36.3522 22.7662 36.3311 22.8723C36.31 22.9783 36.2579 23.0758 36.1815 23.1523C36.105 23.2287 36.0075 23.2808 35.9014 23.3019C35.7954 23.323 35.6854 23.3122 35.5855 23.2708C35.4855 23.2294 35.4001 23.1593 35.34 23.0694C35.28 22.9795 35.2479 22.8737 35.2479 22.7656C35.2479 22.6205 35.3055 22.4814 35.4081 22.3789C35.5106 22.2763 35.6497 22.2187 35.7948 22.2187ZM30.8729 28.7812C30.5484 28.7812 30.2312 28.685 29.9614 28.5047C29.6916 28.3244 29.4813 28.0682 29.3571 27.7684C29.233 27.4686 29.2005 27.1388 29.2638 26.8205C29.3271 26.5022 29.4833 26.2099 29.7128 25.9805C29.9422 25.751 30.2346 25.5948 30.5528 25.5315C30.8711 25.4682 31.2009 25.5007 31.5007 25.6248C31.8005 25.749 32.0567 25.9593 32.237 26.2291C32.4173 26.4989 32.5135 26.8161 32.5135 27.1406C32.5135 27.5757 32.3407 27.993 32.033 28.3007C31.7253 28.6083 31.308 28.7812 30.8729 28.7812ZM36.3416 30.4218C36.2335 30.4218 36.1277 30.3897 36.0378 30.3297C35.9479 30.2696 35.8778 30.1842 35.8364 30.0842C35.795 29.9843 35.7842 29.8743 35.8053 29.7683C35.8264 29.6622 35.8785 29.5647 35.9549 29.4882C36.0314 29.4118 36.1289 29.3597 36.2349 29.3386C36.341 29.3175 36.451 29.3283 36.5509 29.3697C36.6508 29.4111 36.7363 29.4812 36.7963 29.5711C36.8564 29.6611 36.8885 29.7668 36.8885 29.8749C36.8885 30.02 36.8309 30.1591 36.7283 30.2616C36.6258 30.3642 36.4867 30.4218 36.3416 30.4218Z" fill="white"/>
    <path d="M17.75 22.7656H16.6562V23.8594H17.75V22.7656Z" fill="white"/>
    <path d="M22.6719 29.875H21.5781V30.9688H22.6719V29.875Z" fill="white"/>
    <path d="M27.0469 28.7812H25.9531V29.875H27.0469V28.7812Z" fill="white"/>
    <path d="M30.875 21.125H29.7812V22.2188H30.875V21.125Z" fill="white"/>
    <path d="M34.1562 17.8438H33.0625V18.9375H34.1562V17.8438Z" fill="white"/>
    <path d="M22.6719 23.3125H21.5781V24.4062H22.6719V23.3125Z" fill="white"/>
    <path d="M23.7656 21.6719H22.6719V22.7656H23.7656V21.6719Z" fill="white"/>
    <path d="M31.4219 26.5938H30.3281V27.6875H31.4219V26.5938Z" fill="white"/>
    <path d="M1 0V42.5L26.5 68L52 42.5V0" stroke="#F3FDFC"/>
</svg>
