<svg width="281" height="218" viewBox="0 0 281 218" fill="none" xmlns="http://www.w3.org/2000/svg">
    <g clip-path="url(#clip0)">
        <g clip-path="url(#clip1)">
            <path opacity="0.1" d="M50.0129 155.896C48.798 158.358 50.5481 161.015 49.9353 163.557C49.1754 166.764 44.8162 169.261 40.1198 170.854C35.4235 172.447 30.1786 173.414 25.6 175.13C23.6197 175.871 21.5565 177.236 22.5868 178.493C22.9427 178.928 23.6117 179.233 24.262 179.519C37.5937 185.335 54.0751 188.494 70.5565 188.393C87.9718 188.283 105.028 184.651 122.43 185.068C144.877 185.602 166.584 192.835 188.776 190.75C198.198 189.866 206.951 187.342 216.122 185.768C229.614 183.451 243.805 183.218 257.776 182.456C268.269 181.884 280.254 180.401 285.272 174.825C288.895 170.795 287.375 165.47 282.269 162.057C277.164 158.644 269.007 157.185 261.469 157.847C257.418 158.203 253.39 159.125 249.342 158.759C246.989 158.545 244.811 157.909 242.673 157.284C226.082 152.419 208.878 147.565 190.451 146.859C160.467 145.702 132.701 155.56 103.503 159.823C98.954 160.486 94.0195 160.996 89.7245 159.884C85.1968 158.711 82.2318 155.939 77.7013 154.771C75.5605 154.215 73.1522 154.055 71.0355 153.451C65.2205 151.788 67.9126 149.503 59.8552 151.045C55.6272 151.85 51.3697 153.149 50.0129 155.896Z" fill="#6C63FF"/>
            <path d="M204.688 73.7919C204.688 73.7919 224.618 42.4982 227.027 29.134C229.435 15.7697 233.984 3.47461 233.984 3.47461" stroke="#535461" stroke-width="2" stroke-miterlimit="10"/>
            <path d="M238.53 30.2031L225.953 31.2723C225.953 31.2723 232.643 42.7655 238.53 30.2031Z" fill="#6C63FF"/>
            <path d="M216.589 23.2539L226.549 31.2217C226.549 31.2217 213.645 36.3509 216.589 23.2539Z" fill="#6C63FF"/>
            <path d="M240.137 19.2446L228.812 20.7601C228.812 20.7601 238.799 28.8669 240.137 19.2446Z" fill="#6C63FF"/>
            <path d="M221.405 15.2354L228.882 20.4768C228.882 20.4768 219.8 24.323 221.405 15.2354Z" fill="#6C63FF"/>
            <path d="M231.656 10.4749C231.656 10.4749 240.939 8.0186 242.277 8.55317C243.615 9.08774 242.812 14.968 239.066 15.2353C235.32 15.5026 231.656 10.4749 231.656 10.4749Z" fill="#6C63FF"/>
            <path d="M225.418 3.47461C225.418 3.47461 231.305 9.08759 231.573 10.424C231.84 11.7604 226.756 14.9679 224.08 10.424C221.404 5.88017 225.418 3.47461 225.418 3.47461Z" fill="#6C63FF"/>
            <path d="M236.391 6.68212C237.869 6.68212 239.067 5.48545 239.067 4.00927C239.067 2.5331 237.869 1.33643 236.391 1.33643C234.913 1.33643 233.715 2.5331 233.715 4.00927C233.715 5.48545 234.913 6.68212 236.391 6.68212Z" fill="#FFD037"/>
            <path d="M231.574 5.3457C233.052 5.3457 234.25 4.14902 234.25 2.67285C234.25 1.19667 233.052 0 231.574 0C230.097 0 228.898 1.19667 228.898 2.67285C228.898 4.14902 230.097 5.3457 231.574 5.3457Z" fill="#FFD037"/>
            <path d="M56.6338 165.332C56.6338 165.332 48.1189 143.008 54.8115 125.573C57.6213 118.255 58.119 110.247 55.9729 102.707C54.9474 99.1351 53.5966 95.6646 51.9375 92.3389" stroke="#535461" stroke-width="2" stroke-miterlimit="10"/>
            <path d="M56.0872 81.316C56.304 84.1171 51.8618 92.6301 51.8618 92.6301C51.8618 92.6301 46.154 84.9056 45.9372 82.1045C45.8325 80.7597 46.267 79.4285 47.1449 78.4037C48.0229 77.3789 49.2725 76.7444 50.6188 76.6398C51.9652 76.5353 53.2979 76.9692 54.324 77.8461C55.35 78.7231 55.9852 79.9712 56.0899 81.316H56.0872Z" fill="#6C63FF"/>
            <path d="M65.6861 96.1747C64.3481 98.6444 55.983 103.378 55.983 103.378C55.983 103.378 55.3969 93.7959 56.7376 91.3261C57.3813 90.1405 58.4702 89.2589 59.7647 88.8752C61.0592 88.4915 62.4533 88.6371 63.6403 89.2801C64.8273 89.923 65.71 91.0106 66.0941 92.3036C66.4783 93.5966 66.3325 94.9891 65.6888 96.1747H65.6861Z" fill="#6C63FF"/>
            <path d="M67.3823 122.705C64.974 124.159 55.3672 124.042 55.3672 124.042C55.3672 124.042 59.705 115.473 62.108 114.019C62.6799 113.673 63.3144 113.443 63.9754 113.342C64.6363 113.241 65.3107 113.271 65.96 113.43C66.6093 113.589 67.2208 113.875 67.7596 114.27C68.2984 114.666 68.754 115.163 69.1003 115.735C69.4466 116.306 69.6769 116.94 69.778 117.6C69.8791 118.26 69.849 118.933 69.6895 119.582C69.53 120.231 69.2441 120.841 68.8482 121.38C68.4524 121.918 67.9543 122.373 67.3823 122.719V122.705Z" fill="#6C63FF"/>
            <path d="M64.1387 143.069C62.0139 144.908 52.5195 146.402 52.5195 146.402C52.5195 146.402 55.3454 137.224 57.4674 135.385C57.9726 134.947 58.5591 134.614 59.1934 134.402C59.8277 134.191 60.4975 134.107 61.1645 134.154C61.8314 134.202 62.4825 134.38 63.0805 134.679C63.6785 134.977 64.2117 135.391 64.6498 135.895C65.0878 136.4 65.4221 136.986 65.6334 137.619C65.8448 138.253 65.9292 138.922 65.8817 139.588C65.8343 140.254 65.6559 140.905 65.3568 141.502C65.0577 142.099 64.6438 142.632 64.1387 143.069Z" fill="#6C63FF"/>
            <path d="M45.3668 104.746C47.5289 106.542 57.0528 107.836 57.0528 107.836C57.0528 107.836 54.0369 98.7188 51.8721 96.9254C50.8338 96.0634 49.4951 95.6487 48.1507 95.7725C46.8063 95.8963 45.5661 96.5485 44.7031 97.5856C43.8401 98.6227 43.4249 99.9597 43.5489 101.303C43.6728 102.645 44.3258 103.884 45.3641 104.746H45.3668Z" fill="#6C63FF"/>
            <path d="M41.8765 128.609C44.4775 129.678 53.9532 128.075 53.9532 128.075C53.9532 128.075 48.3336 120.278 45.7433 119.212C44.4942 118.699 43.0925 118.704 41.8467 119.224C40.6009 119.744 39.6129 120.737 39.1001 121.985C38.5874 123.232 38.5918 124.632 39.1125 125.877C39.6331 127.121 40.6274 128.108 41.8765 128.62V128.609Z" fill="#6C63FF"/>
            <path d="M41.6707 152.267C44.055 153.756 53.6672 153.769 53.6672 153.769C53.6672 153.769 49.4552 145.136 47.0735 143.658C45.9291 142.942 44.547 142.71 43.2311 143.012C41.9153 143.314 40.7736 144.126 40.0571 145.27C39.3407 146.413 39.1082 147.793 39.4108 149.107C39.7134 150.422 40.5263 151.562 41.6707 152.278V152.267Z" fill="#6C63FF"/>
            <path d="M56.0872 81.316C56.304 84.1171 51.8618 92.6301 51.8618 92.6301C51.8618 92.6301 46.154 84.9056 45.9372 82.1045C45.8325 80.7597 46.267 79.4285 47.1449 78.4037C48.0229 77.3789 49.2725 76.7444 50.6188 76.6398C51.9652 76.5353 53.2979 76.9692 54.324 77.8461C55.35 78.7231 55.9852 79.9712 56.0899 81.316H56.0872Z" fill="#6C63FF"/>
            <path d="M65.6861 96.1747C64.3481 98.6444 55.983 103.378 55.983 103.378C55.983 103.378 55.3969 93.7959 56.7376 91.3261C57.3813 90.1405 58.4702 89.2589 59.7647 88.8752C61.0592 88.4915 62.4533 88.6371 63.6403 89.2801C64.8273 89.923 65.71 91.0106 66.0941 92.3036C66.4783 93.5966 66.3325 94.9891 65.6888 96.1747H65.6861Z" fill="#6C63FF"/>
            <path d="M67.3823 122.705C64.974 124.159 55.3672 124.042 55.3672 124.042C55.3672 124.042 59.705 115.473 62.108 114.019C62.6799 113.673 63.3144 113.443 63.9754 113.342C64.6363 113.241 65.3107 113.271 65.96 113.43C66.6093 113.589 67.2208 113.875 67.7596 114.27C68.2984 114.666 68.754 115.163 69.1003 115.735C69.4466 116.306 69.6769 116.94 69.778 117.6C69.8791 118.26 69.849 118.933 69.6895 119.582C69.53 120.231 69.2441 120.841 68.8482 121.38C68.4524 121.918 67.9543 122.373 67.3823 122.719V122.705Z" fill="#6C63FF"/>
            <path d="M64.1387 143.069C62.0139 144.908 52.5195 146.402 52.5195 146.402C52.5195 146.402 55.3454 137.224 57.4674 135.385C57.9726 134.947 58.5591 134.614 59.1934 134.402C59.8277 134.191 60.4975 134.107 61.1645 134.154C61.8314 134.202 62.4825 134.38 63.0805 134.679C63.6785 134.977 64.2117 135.391 64.6498 135.895C65.0878 136.4 65.4221 136.986 65.6334 137.619C65.8448 138.253 65.9292 138.922 65.8817 139.588C65.8343 140.254 65.6559 140.905 65.3568 141.502C65.0577 142.099 64.6438 142.632 64.1387 143.069Z" fill="#6C63FF"/>
            <path d="M45.3668 104.746C47.5289 106.542 57.0528 107.836 57.0528 107.836C57.0528 107.836 54.0369 98.7188 51.8721 96.9254C50.8338 96.0634 49.4951 95.6487 48.1507 95.7725C46.8063 95.8963 45.5661 96.5485 44.7031 97.5856C43.8401 98.6227 43.4249 99.9597 43.5489 101.303C43.6728 102.645 44.3258 103.884 45.3641 104.746H45.3668Z" fill="#6C63FF"/>
            <path d="M41.8765 128.609C44.4775 129.678 53.9532 128.075 53.9532 128.075C53.9532 128.075 48.3336 120.278 45.7433 119.212C44.4942 118.699 43.0925 118.704 41.8467 119.224C40.6009 119.744 39.6129 120.737 39.1001 121.985C38.5874 123.232 38.5918 124.632 39.1125 125.877C39.6331 127.121 40.6274 128.108 41.8765 128.62V128.609Z" fill="#6C63FF"/>
            <path d="M41.6707 152.267C44.055 153.756 53.6672 153.769 53.6672 153.769C53.6672 153.769 49.4552 145.136 47.0735 143.658C45.9291 142.942 44.547 142.71 43.2311 143.012C41.9153 143.314 40.7736 144.126 40.0571 145.27C39.3407 146.413 39.1082 147.793 39.4108 149.107C39.7134 150.422 40.5263 151.562 41.6707 152.278V152.267Z" fill="#6C63FF"/>
            <path d="M73.422 161.312C73.422 161.312 66.9622 160.534 65.1265 158.973C63.2908 157.412 55.4367 155.039 54.7517 157.222C54.0666 159.406 44.029 167.427 51.3345 168.141C58.6399 168.855 68.4367 168.515 70.4784 167.505C72.5202 166.494 73.422 161.312 73.422 161.312Z" fill="#A8A8A8"/>
            <path opacity="0.2" d="M51.2836 167.353C58.5917 168.063 68.3751 167.729 70.4303 166.719C71.9957 165.949 72.8761 162.763 73.2079 161.285L73.4247 161.312C73.4247 161.312 72.547 166.492 70.4811 167.505C68.4152 168.518 58.6426 168.841 51.3345 168.138C49.2258 167.933 48.5621 167.117 48.7013 166C48.9448 166.708 49.7128 167.2 51.2836 167.353Z" fill="black"/>
            <path opacity="0.1" d="M293.175 123.419C282.685 137.777 286.164 158.273 292.212 174.601C294.24 180.067 296.544 185.849 295.493 191.796C294.208 199.066 288.171 204.513 281.896 207.48C270.456 212.887 256.943 212.024 246.71 205.211C237.879 199.33 231.663 189.558 222.66 183.959C207.595 174.59 188.036 178.776 171.268 185.929C159.406 190.988 146.411 197.505 134.851 192.833C126.716 189.545 121.238 181.176 118.356 172.23C116.965 167.911 115.991 163.223 113.218 159.842C111.57 157.832 109.392 156.431 107.152 155.26C86.7099 144.569 60.4157 151.251 40.5974 139.322C27.2175 131.266 18.8898 115.633 15.4298 99.1975C11.9697 82.7621 12.8261 65.4126 14.2042 48.3599C15.1836 36.2412 16.733 23.2912 24.0277 13.7679C31.7426 3.69657 44.6729 -0.307359 56.2358 1.2723C67.7987 2.85195 78.1628 9.2748 87.2344 16.9192C98.5779 26.4773 109.014 38.4703 123.122 42.0894C132.731 44.5591 142.94 42.811 152.93 42.0386C169.628 40.7503 186.267 42.2337 202.805 43.9096C218.636 45.5133 234.577 47.3041 249.57 52.5616C260.18 56.2822 268.591 63.3145 278.581 68.1202C285.091 71.2528 292.255 71.9798 298.383 76.0265C305.945 81.0114 312.78 89.8425 310.561 100.44C308.466 110.514 298.741 115.799 293.175 123.419Z" fill="#6C63FF"/>
            <path d="M243.47 21.7759H68.7551C66.9437 21.7745 65.2058 22.4917 63.9237 23.7698C62.6415 25.0479 61.9201 26.7823 61.918 28.5916V130.294C61.9201 132.103 62.6415 133.837 63.9237 135.115C65.2058 136.394 66.9437 137.111 68.7551 137.109H139.112V162.173H132.492C132.059 162.173 131.644 162.344 131.338 162.649C131.032 162.954 130.86 163.368 130.859 163.8V167.179H182.206V163.795C182.205 163.363 182.033 162.949 181.727 162.644C181.421 162.339 181.006 162.167 180.574 162.167H172.12V137.101H243.47C245.28 137.103 247.017 136.387 248.299 135.11C249.58 133.834 250.303 132.101 250.307 130.294V28.5916C250.305 26.7823 249.583 25.0479 248.301 23.7698C247.019 22.4917 245.281 21.7745 243.47 21.7759Z" fill="url(#paint0_linear)"/>
            <path d="M171.995 132.354H139.543V163.632H171.995V132.354Z" fill="#474059"/>
            <path opacity="0.1" d="M171.995 160.857H139.543V163.632H171.995V160.857Z" fill="black"/>
            <path d="M133.035 161.173H180.307C180.732 161.173 181.141 161.342 181.442 161.643C181.743 161.943 181.912 162.351 181.912 162.777V166.112H131.43V162.777C131.43 162.351 131.599 161.943 131.9 161.643C132.201 161.342 132.609 161.173 133.035 161.173Z" fill="#474059"/>
            <path d="M242.144 22.8447H70.3705C66.658 22.8447 63.6484 25.8508 63.6484 29.5589V129.753C63.6484 133.461 66.658 136.468 70.3705 136.468H242.144C245.857 136.468 248.867 133.461 248.867 129.753V29.5589C248.867 25.8508 245.857 22.8447 242.144 22.8447Z" fill="#474059"/>
            <path d="M244.576 36.1152H67.5469V128.938H244.576V36.1152Z" fill="white"/>
            <path d="M156.064 32.8599C156.926 32.8599 157.624 32.1706 157.624 31.3203C157.624 30.47 156.926 29.7808 156.064 29.7808C155.202 29.7808 154.504 30.47 154.504 31.3203C154.504 32.1706 155.202 32.8599 156.064 32.8599Z" fill="white"/>
            <path opacity="0.1" d="M171.959 136.545H139.609V137.155H171.959V136.545Z" fill="black"/>
            <path d="M166.798 57.7925C161.631 62.0673 157.727 67.6674 155.507 73.9913C153.286 80.3152 152.833 87.1238 154.195 93.6858C155.556 100.248 158.682 106.315 163.237 111.236C167.791 116.158 173.602 119.746 180.044 121.617L190.363 86.1915L166.798 57.7925Z" fill="#D6D6E3"/>
            <path d="M191.166 49.3062C182.559 49.2935 174.22 52.2965 167.602 57.7925L191.166 86.1915L210.68 54.8737C204.827 51.2254 198.065 49.296 191.166 49.3062Z" fill="#D6D6E3"/>
            <path d="M191.166 86.1914L180.848 121.615C186.298 123.196 192.041 123.501 197.629 122.507C203.217 121.513 208.5 119.247 213.07 115.884C217.639 112.52 221.372 108.151 223.977 103.114C226.583 98.0778 227.992 92.5093 228.095 86.8409L191.166 86.1914Z" fill="#8499F0"/>
            <path d="M96.7041 68.2832H83.3242V76.3018H96.7041V68.2832Z" fill="#8499F0"/>
            <path d="M96.7041 82.1821H83.3242V90.2007H96.7041V82.1821Z" fill="#FC6681"/>
            <path d="M96.7041 96.0811H83.3242V104.1H96.7041V96.0811Z" fill="#6C63FF"/>
            <path d="M129.084 70.689H103.93V73.8964H129.084V70.689Z" fill="#D6D6E3"/>
            <path d="M129.084 84.5879H103.93V87.7953H129.084V84.5879Z" fill="#D6D6E3"/>
            <path d="M129.084 98.4863H103.93V101.694H129.084V98.4863Z" fill="#D6D6E3"/>
            <path d="M244.685 35.9419H67.5352V39.1493H244.685V35.9419Z" fill="#D6D6E3"/>
            <path d="M69.6778 38.3474C70.1212 38.3474 70.4806 37.9884 70.4806 37.5455C70.4806 37.1027 70.1212 36.7437 69.6778 36.7437C69.2344 36.7437 68.875 37.1027 68.875 37.5455C68.875 37.9884 69.2344 38.3474 69.6778 38.3474Z" fill="#FC6681"/>
            <path d="M71.8184 38.3474C72.2618 38.3474 72.6212 37.9884 72.6212 37.5455C72.6212 37.1027 72.2618 36.7437 71.8184 36.7437C71.375 36.7437 71.0156 37.1027 71.0156 37.5455C71.0156 37.9884 71.375 38.3474 71.8184 38.3474Z" fill="#FFC74C"/>
            <path d="M73.959 38.3474C74.4024 38.3474 74.7618 37.9884 74.7618 37.5455C74.7618 37.1027 74.4024 36.7437 73.959 36.7437C73.5157 36.7437 73.1562 37.1027 73.1562 37.5455C73.1562 37.9884 73.5157 38.3474 73.959 38.3474Z" fill="#85D459"/>
            <path d="M256.976 144.606C256.976 144.606 258.253 146.274 256.388 148.792C254.523 151.31 252.984 153.435 253.605 155.007C253.605 155.007 256.42 150.329 258.713 150.265C261.006 150.201 259.5 147.418 256.976 144.606Z" fill="#6C63FF"/>
            <path opacity="0.1" d="M256.976 144.606C257.091 144.771 257.181 144.951 257.244 145.141C259.481 147.766 260.672 150.219 258.523 150.276C256.521 150.332 254.118 153.908 253.543 154.819C253.561 154.889 253.584 154.958 253.61 155.025C253.61 155.025 256.425 150.348 258.718 150.284C261.012 150.219 259.5 147.418 256.976 144.606Z" fill="black"/>
            <path d="M259.349 146.731C259.349 147.319 259.282 147.8 259.202 147.8C259.122 147.8 259.055 147.325 259.055 146.731C259.055 146.138 259.138 146.421 259.218 146.421C259.298 146.421 259.349 146.143 259.349 146.731Z" fill="#FFD037"/>
            <path d="M260.166 147.431C259.65 147.712 259.2 147.883 259.163 147.811C259.125 147.739 259.511 147.453 260.027 147.172C260.543 146.891 260.34 147.095 260.378 147.172C260.415 147.25 260.683 147.151 260.166 147.431Z" fill="#FFD037"/>
            <path d="M250.234 144.606C250.234 144.606 248.958 146.274 250.823 148.792C252.688 151.31 254.227 153.435 253.606 155.007C253.606 155.007 250.791 150.329 248.498 150.265C246.204 150.201 247.714 147.418 250.234 144.606Z" fill="#6C63FF"/>
            <path opacity="0.1" d="M250.234 144.606C250.12 144.771 250.029 144.951 249.967 145.141C247.73 147.766 246.539 150.219 248.688 150.276C250.689 150.332 253.092 153.908 253.668 154.819C253.649 154.889 253.627 154.958 253.601 155.025C253.601 155.025 250.786 150.348 248.492 150.284C246.199 150.219 247.713 147.418 250.234 144.606Z" fill="black"/>
            <path d="M247.859 146.731C247.859 147.319 247.926 147.8 248.007 147.8C248.087 147.8 248.154 147.325 248.154 146.731C248.154 146.138 248.071 146.421 247.991 146.421C247.91 146.421 247.859 146.143 247.859 146.731Z" fill="#FFD037"/>
            <path d="M247.048 147.431C247.565 147.712 248.014 147.883 248.052 147.811C248.089 147.739 247.704 147.453 247.187 147.172C246.671 146.891 246.874 147.095 246.837 147.172C246.799 147.25 246.532 147.151 247.048 147.431Z" fill="#FFD037"/>
            <path d="M262.35 155.386C262.35 155.386 258.839 154.686 257.902 153.75C256.966 152.815 252.751 151.179 252.283 152.347C251.814 153.515 245.962 157.492 249.941 158.193C253.92 158.893 259.307 159.128 260.477 158.66C261.646 158.193 262.35 155.386 262.35 155.386Z" fill="#A8A8A8"/>
            <path opacity="0.2" d="M249.941 157.757C253.92 158.457 259.307 158.692 260.476 158.224C261.367 157.869 261.988 156.158 262.232 155.362L262.349 155.386C262.349 155.386 261.648 158.192 260.476 158.66C259.304 159.128 253.92 158.893 249.941 158.192C248.793 157.989 248.464 157.513 248.587 156.912C248.686 157.302 249.087 157.607 249.941 157.757Z" fill="black"/>
            <path d="M237.194 109.849C237.198 103.035 235.461 96.3328 232.149 90.3761C228.836 84.4195 224.058 79.4052 218.265 75.8071L197.055 109.849L237.194 110.554C237.194 110.322 237.194 110.086 237.194 109.849Z" fill="url(#paint1_linear)"/>
            <path d="M235.589 108.517C235.592 102.249 233.994 96.0831 230.947 90.6031C227.899 85.1231 223.503 80.5099 218.173 77.1997L198.66 108.517L235.589 109.178C235.589 108.95 235.589 108.734 235.589 108.517Z" fill="#6C63FF"/>
            <path d="M289.376 69.7961C289.376 69.6927 289.366 69.5938 289.347 69.4994C289.327 69.4049 289.309 69.2962 289.293 69.1733C289.254 68.9595 289.21 68.7528 289.162 68.5532C289.137 68.4534 289.111 68.3554 289.085 68.2592C288.791 67.1547 288.262 66.1264 287.535 65.2442L287.409 65.0999C287.326 65.0072 287.244 64.9181 287.163 64.8326C287.083 64.747 287.004 64.6704 286.925 64.6027C286.847 64.5306 286.77 64.4637 286.698 64.4023C286.55 64.2793 286.414 64.1777 286.291 64.0922C286.168 64.0067 286.117 63.9746 286.045 63.9318C285.869 63.8251 285.671 63.7593 285.467 63.7394L284.193 63.6111L282.47 63.44L276.245 60.9864L275.999 61.0746C275.817 60.5657 275.664 60.0473 275.539 59.5216C275.728 59.4386 275.896 59.3144 276.031 59.1581C276.178 59.0411 276.294 58.8896 276.368 58.7171C276.524 58.3509 276.224 57.5651 276.285 57.1134C276.384 56.3944 276.754 55.6995 277.051 55.0473C277.69 53.6467 278.156 52.1285 278.081 50.5916C278.006 49.0548 277.316 47.4938 276.037 46.6358C275.376 46.1921 274.597 45.9543 273.912 45.548C273.377 45.2326 272.906 44.821 272.394 44.4655C271.148 43.62 269.7 43.1173 268.196 43.008C266.693 42.8987 265.188 43.1866 263.831 43.8427C262.539 44.4895 261.436 45.4464 260.216 46.2322C258.996 47.018 257.559 47.6034 256.133 47.3762C256.112 47.4344 256.098 47.4943 256.09 47.5553L255.969 47.5392C255.723 48.2208 256.325 48.8917 256.882 49.3568C257.936 50.2388 259.13 51.1182 260.505 51.1503C261.04 51.1503 261.597 51.0487 262.081 51.2705C262.187 51.3205 262.286 51.3833 262.376 51.4576C262.066 52.698 262.101 53.9991 262.476 55.2212C262.851 56.4433 263.553 57.5401 264.506 58.3937L261.329 57.2337C261.329 57.2337 261.196 57.3032 260.992 57.4341L256.579 54.4539C256.579 54.4539 247.735 51.177 245.279 56.2554C242.822 61.3338 255.927 58.7011 255.927 58.7011L258.731 60.2647C258.638 60.8515 258.747 61.4524 259.039 61.97L266.684 66.7677C265.14 67.2515 262.6 68.024 262.151 68.024C261.495 68.024 259.694 68.6788 258.546 71.2955C257.398 73.9122 253.304 86.6751 249.702 88.8C246.1 90.9249 236.59 105.161 236.59 105.161L236.633 105.273C236.463 105.317 236.297 105.367 236.135 105.422C233.759 106.208 232.158 107.863 231.198 109.205C231.035 109.431 230.934 109.695 230.904 109.972C230.875 110.249 230.918 110.529 231.03 110.784C231.142 111.039 231.318 111.261 231.542 111.427C231.766 111.594 232.029 111.699 232.306 111.733C236.052 112.214 238.104 110.461 239.089 109.135C239.153 109.05 239.212 108.964 239.269 108.884C239.561 109.011 239.891 109.027 240.194 108.927L244.786 105.169C244.786 105.169 241.209 108.75 243.301 112.019L243.141 112.246C239.584 117.402 236.979 123.152 235.45 129.224C235.45 129.224 233.483 130.697 233.309 136.585C233.135 142.473 231.168 151.965 231.168 151.965C231.168 151.965 229.857 163.252 230.676 166.689C230.676 166.689 230.77 166.826 230.944 167.034C230.882 167.109 230.815 167.187 230.74 167.27C230.026 168.053 228.736 169.14 227.235 168.814C224.941 168.323 224.941 172.415 228.217 172.741C230.325 172.952 234.473 173.909 237.157 174.564C237.453 174.636 237.761 174.637 238.057 174.565C238.353 174.493 238.627 174.351 238.856 174.151C239.085 173.951 239.263 173.699 239.374 173.415C239.485 173.132 239.526 172.827 239.493 172.524C239.333 171.06 239.041 169.285 238.511 168.023C238.479 167.946 238.444 167.868 238.41 167.793C238.506 167.702 238.602 167.609 238.699 167.507C238.699 167.507 238.699 160.309 239.844 158.345C239.844 158.345 242.956 143.457 242.787 139.694C242.659 136.754 250.861 125.284 254.431 120.449L254.401 120.265C255.346 119.014 255.927 118.265 255.927 118.265L258.712 136.099C258.712 136.099 260.023 140.025 261.656 142.153C261.656 142.153 268.699 155.731 269.518 159.986C270.139 163.212 271.418 165.118 272.001 165.853C271.934 165.922 271.862 165.992 271.787 166.061C271.043 166.756 269.941 167.451 268.699 167.187C266.406 166.695 266.406 170.787 269.681 171.113C271.79 171.324 275.938 172.281 278.622 172.936C278.917 173.009 279.226 173.009 279.522 172.937C279.817 172.865 280.091 172.723 280.321 172.523C280.55 172.323 280.727 172.071 280.838 171.788C280.949 171.505 280.99 171.199 280.958 170.897C280.773 169.194 280.406 167.077 279.7 165.818C279.639 165.713 279.577 165.614 279.513 165.521C279.763 165.419 279.985 165.26 280.163 165.056C280.163 165.056 275.905 154.75 275.905 151.959C275.905 151.959 274.104 141.324 268.043 137.398C268.043 137.398 268.616 124.098 270.342 116.697C270.385 116.518 270.429 116.34 270.473 116.162C272.082 115.906 273.678 115.569 275.252 115.152L275.416 110.244L276.235 114.171L285.408 108.445C285.408 108.445 285.328 107.414 285.172 105.831C285.095 105.03 284.998 104.113 284.883 103.105C284.792 102.303 284.688 101.445 284.573 100.571C284.544 100.352 284.515 100.133 284.485 99.9137C284.364 99.0317 284.233 98.1389 284.091 97.2676C284.038 96.9397 283.982 96.6154 283.925 96.2947C283.85 95.867 283.773 95.4474 283.692 95.0411C283.651 94.838 283.61 94.6375 283.569 94.4397C283.528 94.2419 283.486 94.0477 283.444 93.857C283.401 93.6664 283.357 93.4802 283.312 93.2984L283.246 93.0311C283.201 92.8529 283.156 92.6801 283.109 92.5126C282.917 91.8148 282.806 91.0974 282.777 90.3743C282.767 90.0857 282.767 89.7979 282.777 89.511C282.788 89.2241 282.815 88.9372 282.858 88.6503C282.877 88.5078 282.9 88.3652 282.927 88.2227C283.033 87.6533 283.189 87.0942 283.393 86.5521C283.494 86.2795 283.609 86.0122 283.735 85.7503C284.032 85.1329 284.351 84.462 284.677 83.7564C284.841 83.4 285.007 83.0391 285.175 82.6738C285.343 82.3086 285.51 81.9344 285.678 81.5513C287.284 77.9456 288.846 73.9256 289.267 71.2848C289.312 71.0176 289.341 70.7503 289.36 70.499C289.381 70.2653 289.386 70.0305 289.376 69.7961Z" fill="url(#paint2_linear)"/>
            <path d="M262.006 59.7303L256.603 56.0792C256.603 56.0792 248.024 52.9065 245.632 57.8246C243.239 62.7426 255.958 60.2061 255.958 60.2061L261.361 63.221L262.006 59.7303Z" fill="#F7BBC3"/>
            <path d="M277.987 170.993C275.381 170.359 271.361 169.429 269.314 169.226C266.138 168.908 266.138 164.949 268.361 165.417C269.568 165.684 270.636 165 271.359 164.327C271.584 164.116 271.795 163.891 271.99 163.653C272.252 163.334 272.614 163.113 273.018 163.025C274.208 162.758 276.689 162.373 278.214 163.193C278.566 163.412 278.851 163.724 279.036 164.094C279.721 165.308 280.077 167.36 280.256 169.012C280.288 169.306 280.249 169.603 280.141 169.878C280.033 170.153 279.861 170.399 279.638 170.593C279.415 170.787 279.149 170.925 278.862 170.995C278.574 171.064 278.274 171.064 277.987 170.993Z" fill="#B77983"/>
            <path d="M237.796 172.581C235.189 171.947 231.17 171.017 229.123 170.814C225.946 170.496 225.946 166.537 228.17 167.005C229.626 167.318 230.878 166.267 231.571 165.508C231.654 165.415 231.732 165.326 231.799 165.241C232.061 164.922 232.423 164.701 232.826 164.613C234.017 164.346 236.498 163.961 238.023 164.781C238.47 165.022 238.826 165.551 239.112 166.233C239.626 167.457 239.915 169.173 240.065 170.6C240.097 170.894 240.057 171.191 239.95 171.466C239.842 171.741 239.67 171.986 239.447 172.181C239.224 172.375 238.958 172.513 238.67 172.583C238.383 172.652 238.083 172.652 237.796 172.581Z" fill="#B77983"/>
            <path opacity="0.1" d="M239.109 166.233C235.314 170.138 232.063 166.16 231.57 165.503C231.653 165.409 231.731 165.321 231.798 165.236C232.06 164.917 232.422 164.695 232.825 164.607C234.016 164.34 236.497 163.955 238.022 164.776C238.466 165.022 238.825 165.551 239.109 166.233Z" fill="black"/>
            <path opacity="0.1" d="M279.034 164.094C277.391 165.217 271.857 164.939 271.857 164.939C271.676 164.746 271.51 164.541 271.359 164.324C271.584 164.114 271.795 163.889 271.991 163.651C272.253 163.332 272.615 163.11 273.018 163.022C274.209 162.755 276.69 162.37 278.215 163.191C278.567 163.411 278.85 163.723 279.034 164.094Z" fill="black"/>
            <path d="M279.325 163.354C278.212 164.781 271.859 164.466 271.859 164.466C271.859 164.466 269.954 162.562 269.159 158.436C268.365 154.309 261.546 141.137 261.546 141.137C259.957 139.073 258.686 135.257 258.686 135.257L255.986 117.961C255.986 117.961 242.946 135.104 243.103 138.758C243.261 142.412 240.243 156.848 240.243 156.848C239.13 158.751 239.13 165.735 239.13 165.735C234.998 170.012 231.503 164.933 231.503 164.933C230.7 161.6 231.979 150.652 231.979 150.652C231.979 150.652 233.885 141.45 234.045 135.735C234.206 130.021 236.124 128.601 236.124 128.601C237.609 122.714 240.135 117.14 243.585 112.142C244.546 110.768 245.191 110.036 245.191 110.036L270.912 113.051C270.418 114.141 270.047 115.283 269.804 116.456C268.132 123.635 267.575 136.537 267.575 136.537C273.462 140.346 275.202 150.66 275.202 150.66C275.194 153.357 279.325 163.354 279.325 163.354Z" fill="#605D82"/>
            <g opacity="0.05">
                <path opacity="0.05" d="M254.552 120.083L254.223 117.969C254.223 117.969 241.207 135.104 241.354 138.758C241.502 142.412 238.494 156.848 238.494 156.848C237.381 158.751 237.381 165.735 237.381 165.735C236.716 166.489 235.855 167.044 234.895 167.339C236.147 167.668 237.667 167.427 239.289 165.735C239.289 165.735 239.289 158.754 240.402 156.848C240.402 156.848 243.42 142.415 243.262 138.758C243.137 135.906 251.092 124.779 254.552 120.083Z" fill="black"/>
                <path opacity="0.05" d="M275.352 150.658C275.352 150.658 273.605 140.343 267.725 136.534C267.725 136.534 268.282 123.635 269.955 116.453C270.197 115.281 270.569 114.139 271.062 113.048L245.325 110.033L245.156 110.236L269.157 113.048C268.663 114.139 268.292 115.281 268.049 116.453C266.377 123.633 265.82 136.534 265.82 136.534C271.707 140.343 273.447 150.658 273.447 150.658C273.447 153.355 277.578 163.354 277.578 163.354C276.923 164.196 274.445 164.423 272.523 164.482C274.049 164.522 278.566 164.535 279.481 163.354C279.473 163.354 275.352 153.357 275.352 150.658Z" fill="black"/>
            </g>
            <path d="M240.404 107.812C240.212 108.282 239.959 108.724 239.652 109.127C238.696 110.413 236.708 112.113 233.071 111.648C232.804 111.613 232.55 111.509 232.334 111.347C232.119 111.185 231.949 110.97 231.841 110.723C231.733 110.476 231.691 110.206 231.719 109.938C231.747 109.67 231.844 109.413 232.001 109.194C232.935 107.895 234.487 106.289 236.791 105.527C237.448 105.309 238.129 105.171 238.819 105.115L240.404 107.812Z" fill="#F7BBC3"/>
            <path d="M273.953 63.4347L261.212 58.7812C261.212 58.7812 257.557 60.6843 258.989 63.3839L271.381 71.1592L273.953 63.4347Z" fill="#D9D9EA"/>
            <path opacity="0.1" d="M273.953 63.4347L261.212 58.7812C261.212 58.7812 257.557 60.6843 258.989 63.3839L271.381 71.1592L273.953 63.4347Z" fill="black"/>
            <path d="M274.392 55.7636C274.392 55.7636 274.234 63.2208 277.568 65.76C280.902 68.2992 267.876 69.7265 267.876 69.7265C267.876 69.7265 269.942 62.1089 267.876 58.1424C265.81 54.1759 274.392 55.7636 274.392 55.7636Z" fill="#F7BBC3"/>
            <path opacity="0.1" d="M270.911 113.051C270.417 114.141 270.045 115.283 269.803 116.456C254.437 118.8 243.744 112.414 243.744 112.414C243.685 112.324 243.629 112.23 243.578 112.147C244.539 110.773 245.184 110.041 245.184 110.041L270.911 113.051Z" fill="black"/>
            <path opacity="0.1" d="M240.404 107.812C240.213 108.282 239.96 108.724 239.652 109.127C238.181 108.884 237.006 106.075 236.789 105.527C237.446 105.309 238.127 105.171 238.817 105.115L240.404 107.812Z" fill="black"/>
            <path d="M275.671 62.4297L269.953 64.4931L267.568 67.6658C267.568 67.6658 262.644 69.2535 262.008 69.2535C261.371 69.2535 259.623 69.8869 258.513 72.4261C257.402 74.9653 253.428 87.3433 249.934 89.4067C246.439 91.4702 237.223 105.275 237.223 105.275C237.223 105.275 238.812 109.552 240.717 108.927L245.168 105.275C245.168 105.275 241.673 108.766 243.739 111.942C243.739 111.942 256.765 119.717 274.719 114.957L274.876 110.196L275.679 114.005L284.558 108.448C284.558 108.448 283.755 98.2058 282.326 92.991C281.732 90.7998 281.949 88.4676 282.939 86.4238C285.246 81.6127 288.805 73.5942 288.371 70.6781C287.86 67.2328 285.909 65.736 285.16 65.2816C284.99 65.1794 284.799 65.1164 284.601 65.0972L281.708 64.8085L275.671 62.4297Z" fill="#D9D9EA"/>
            <path opacity="0.05" d="M265.904 78.376C265.904 78.376 262.725 93.1408 259.23 95.5143C255.735 97.8878 246.361 105.511 246.043 106.78" fill="black"/>
            <path d="M264.472 77.9058C264.472 77.9058 261.295 92.6599 257.801 95.0387C254.306 97.4176 244.932 105.035 244.613 106.305" fill="#D9D9EA"/>
            <path opacity="0.1" d="M267.488 67.5854C267.488 67.5854 278.46 63.9343 281.628 64.8885L267.488 67.5854Z" fill="black"/>
            <g opacity="0.05">
                <path opacity="0.05" d="M282.956 86.4267C285.262 81.6155 288.821 73.597 288.388 70.6809C287.877 67.2356 285.926 65.7388 285.177 65.2844C285.006 65.1822 284.815 65.1192 284.617 65.1L283.381 64.9771C283.51 65.008 283.634 65.0585 283.748 65.1267C284.492 65.5811 286.443 67.0752 286.959 70.5232C287.392 73.4473 283.833 81.4659 281.527 86.269C280.537 88.3127 280.319 90.6449 280.914 92.8362C282.348 98.0482 283.146 108.293 283.146 108.293L275.484 113.075L275.68 114.005L284.561 108.448C284.561 108.448 283.759 98.2059 282.33 92.9912C281.74 90.7991 281.962 88.468 282.956 86.4267Z" fill="black"/>
                <path opacity="0.05" d="M280.28 64.6508L281.655 64.7898L275.672 62.4297L275.137 62.6221L280.28 64.6508Z" fill="black"/>
            </g>
            <path opacity="0.05" d="M264.469 93.2929C264.469 93.2929 269.393 90.596 270.982 91.2295C272.572 91.8629 278.448 91.0718 278.448 91.0718" fill="black"/>
            <path opacity="0.05" d="M273.853 57.747C273.671 56.1433 274.41 56.4106 274.41 56.4106C274.41 56.4106 265.825 54.8123 267.886 58.7787C268.409 59.8723 268.709 61.0589 268.769 62.2695H268.849C271.231 62.2695 272.622 59.6073 273.853 57.747Z" fill="black"/>
            <path d="M268.84 61.6359C272.613 61.6359 275.671 58.5807 275.671 54.8121C275.671 51.0434 272.613 47.9883 268.84 47.9883C265.067 47.9883 262.008 51.0434 262.008 54.8121C262.008 58.5807 265.067 61.6359 268.84 61.6359Z" fill="#F7BBC3"/>
            <path opacity="0.1" d="M276.295 56.83C276.916 55.4722 277.365 53.9995 277.293 52.508C277.221 51.0166 276.549 49.5038 275.31 48.6698C274.668 48.2395 273.913 48.007 273.25 47.6141C272.731 47.3067 272.273 46.9084 271.778 46.5636C270.567 45.7416 269.161 45.253 267.701 45.1469C266.24 45.0409 264.778 45.3212 263.461 45.9596C262.206 46.5877 261.138 47.5232 259.955 48.2769C258.773 49.0307 257.378 49.6134 255.992 49.3862C255.754 50.0464 256.337 50.6985 256.878 51.1502C257.9 52.0056 259.059 52.8609 260.392 52.8903C260.908 52.8903 261.462 52.7914 261.92 53.0079C262.236 53.1815 262.504 53.4303 262.701 53.7322C263.342 54.5836 263.885 55.5044 264.32 56.4772C264.499 56.8755 264.679 57.3085 265.045 57.5464C265.658 57.9393 266.455 57.6132 267.186 57.5838C268.318 57.541 269.327 58.252 270.172 59.0111C271.018 59.7702 271.807 60.6415 272.864 61.0425C273.667 61.3418 275.233 61.3311 275.634 60.3903C275.787 60.0348 275.495 59.273 275.554 58.84C275.647 58.1264 275.995 57.4635 276.295 56.83Z" fill="black"/>
            <path d="M276.451 56.6723C277.072 55.3145 277.522 53.8418 277.449 52.3503C277.377 50.8589 276.706 49.346 275.467 48.5121C274.824 48.0818 274.07 47.8493 273.406 47.4563C272.887 47.149 272.429 46.7507 271.934 46.4059C270.723 45.5839 269.317 45.0952 267.857 44.9892C266.397 44.8831 264.934 45.1634 263.617 45.8019C262.362 46.43 261.294 47.3655 260.112 48.1192C258.929 48.873 257.535 49.4556 256.149 49.2284C255.91 49.8886 256.494 50.5408 257.034 50.9925C258.057 51.8478 259.215 52.7031 260.548 52.7325C261.064 52.7325 261.618 52.6337 262.076 52.8502C262.392 53.0238 262.66 53.2726 262.857 53.5745C263.502 54.4245 264.049 55.3444 264.487 56.3168C264.666 56.7151 264.845 57.1481 265.212 57.386C265.825 57.7789 266.622 57.4528 267.353 57.4234C268.485 57.3806 269.494 58.0916 270.339 58.8507C271.185 59.6098 271.974 60.4811 273.031 60.8821C273.834 61.1814 275.4 61.1707 275.801 60.2299C275.954 59.8744 275.662 59.1126 275.721 58.6796C275.804 57.9767 276.162 57.3031 276.451 56.6723Z" fill="#A1616A"/>
        </g>
    </g>
    <defs>
        <linearGradient id="paint0_linear" x1="156.113" y1="167.179" x2="156.113" y2="21.7759" gradientUnits="userSpaceOnUse">
            <stop stop-color="#808080" stop-opacity="0.25"/>
            <stop offset="0.54" stop-color="#808080" stop-opacity="0.12"/>
            <stop offset="1" stop-color="#808080" stop-opacity="0.1"/>
        </linearGradient>
        <linearGradient id="paint1_linear" x1="32549.6" y1="16308.2" x2="32549.6" y2="11791.1" gradientUnits="userSpaceOnUse">
            <stop stop-color="#808080" stop-opacity="0.25"/>
            <stop offset="0.54" stop-color="#808080" stop-opacity="0.12"/>
            <stop offset="1" stop-color="#808080" stop-opacity="0.1"/>
        </linearGradient>
        <linearGradient id="paint2_linear" x1="61239" y1="93082.6" x2="61239" y2="28261.2" gradientUnits="userSpaceOnUse">
            <stop stop-color="#808080" stop-opacity="0.25"/>
            <stop offset="0.54" stop-color="#808080" stop-opacity="0.12"/>
            <stop offset="1" stop-color="#808080" stop-opacity="0.1"/>
        </linearGradient>
        <clipPath id="clip0">
            <path d="M0 0H266C274.284 0 281 6.71573 281 15V218H0V0Z" fill="white"/>
        </clipPath>
        <clipPath id="clip1">
            <rect width="298" height="211" fill="white" transform="translate(13)"/>
        </clipPath>
    </defs>
</svg>
