<svg width="29" height="29" viewBox="0 0 29 29" fill="none" xmlns="http://www.w3.org/2000/svg">
    <g clip-path="url(#clip0)">
        <path d="M11.177 9.66674H2.11451C0.948509 9.66674 0 8.71823 0 7.55201V2.11451C0 0.948509 0.948509 0 2.11451 0H11.177C12.3432 0 13.2917 0.948509 13.2917 2.11451V7.55201C13.2917 8.71823 12.3432 9.66674 11.177 9.66674ZM2.11451 1.8125C1.94791 1.8125 1.8125 1.94791 1.8125 2.11451V7.55201C1.8125 7.71883 1.94791 7.85424 2.11451 7.85424H11.177C11.3438 7.85424 11.4792 7.71883 11.4792 7.55201V2.11451C11.4792 1.94791 11.3438 1.8125 11.177 1.8125H2.11451Z" fill="#561BFB"/>
        <path d="M11.177 29H2.11451C0.948509 29 0 28.0515 0 26.8855V14.198C0 13.0318 0.948509 12.0833 2.11451 12.0833H11.177C12.3432 12.0833 13.2917 13.0318 13.2917 14.198V26.8855C13.2917 28.0515 12.3432 29 11.177 29ZM2.11451 13.8958C1.94791 13.8958 1.8125 14.0312 1.8125 14.198V26.8855C1.8125 27.0521 1.94791 27.1875 2.11451 27.1875H11.177C11.3438 27.1875 11.4792 27.0521 11.4792 26.8855V14.198C11.4792 14.0312 11.3438 13.8958 11.177 13.8958H2.11451Z" fill="#561BFB"/>
        <path d="M26.8855 29H17.823C16.6568 29 15.7083 28.0515 15.7083 26.8855V21.448C15.7083 20.2818 16.6568 19.3333 17.823 19.3333H26.8855C28.0515 19.3333 29 20.2818 29 21.448V26.8855C29 28.0515 28.0515 29 26.8855 29ZM17.823 21.1458C17.6562 21.1458 17.5208 21.2812 17.5208 21.448V26.8855C17.5208 27.0521 17.6562 27.1875 17.823 27.1875H26.8855C27.0521 27.1875 27.1875 27.0521 27.1875 26.8855V21.448C27.1875 21.2812 27.0521 21.1458 26.8855 21.1458H17.823Z" fill="#561BFB"/>
        <path d="M26.8855 16.9167H17.823C16.6568 16.9167 15.7083 15.9682 15.7083 14.802V2.11451C15.7083 0.948509 16.6568 0 17.823 0H26.8855C28.0515 0 29 0.948509 29 2.11451V14.802C29 15.9682 28.0515 16.9167 26.8855 16.9167ZM17.823 1.8125C17.6562 1.8125 17.5208 1.94791 17.5208 2.11451V14.802C17.5208 14.9688 17.6562 15.1042 17.823 15.1042H26.8855C27.0521 15.1042 27.1875 14.9688 27.1875 14.802V2.11451C27.1875 1.94791 27.0521 1.8125 26.8855 1.8125H17.823Z" fill="#561BFB"/>
    </g>
    <defs>
        <clipPath id="clip0">
            <rect width="29" height="29" fill="white"/>
        </clipPath>
    </defs>
</svg>
