<svg width="49" height="49" viewBox="0 0 49 49" fill="none" xmlns="http://www.w3.org/2000/svg">
    <path d="M24.2708 0L45.29 12.1354V36.4062L24.2708 48.5416L3.25167 36.4062V12.1354L24.2708 0Z" fill="url(#paint0_linear)"/>
    <path d="M24.6233 13.9379L19.8795 18.6817C19.8297 18.7315 19.7513 18.7315 19.7015 18.6817C19.6516 18.6318 19.6516 18.5535 19.7015 18.5036L24.4453 13.7598C24.4951 13.7099 24.5735 13.7099 24.6233 13.7598C24.6732 13.8097 24.6732 13.888 24.6233 13.9379Z" fill="#E1FFFF"/>
    <path d="M19.9455 18.7312C20.0289 18.6477 20.0289 18.5124 19.9455 18.429C19.862 18.3455 19.7267 18.3455 19.6433 18.429C19.5598 18.5124 19.5598 18.6477 19.6433 18.7312C19.7267 18.8146 19.862 18.8146 19.9455 18.7312Z" fill="#E1FFFF"/>
    <path opacity="0.49" d="M20.013 18.7966C20.1326 18.677 20.1326 18.4831 20.013 18.3635C19.8934 18.2439 19.6995 18.2439 19.5799 18.3635C19.4602 18.4831 19.4602 18.677 19.5799 18.7967C19.6995 18.9163 19.8934 18.9163 20.013 18.7966Z" fill="#E1FFFF"/>
    <path d="M19.7998 18.7179C19.8747 18.7179 19.9355 18.6572 19.9355 18.5822C19.9355 18.5073 19.8747 18.4465 19.7998 18.4465C19.7248 18.4465 19.6641 18.5073 19.6641 18.5822C19.6641 18.6572 19.7248 18.7179 19.7998 18.7179Z" fill="#E1FFFF"/>
    <path d="M25.1429 8.95887L20.3991 13.7027C20.3492 13.7525 20.2708 13.7525 20.221 13.7027C20.1711 13.6528 20.1711 13.5745 20.221 13.5246L24.9648 8.7808C25.0147 8.73094 25.093 8.73094 25.1429 8.7808C25.1927 8.83066 25.1927 8.90901 25.1429 8.95887Z" fill="#E1FFFF"/>
    <path d="M20.4689 13.7546C20.5524 13.6712 20.5524 13.5359 20.4689 13.4524C20.3855 13.369 20.2502 13.369 20.1667 13.4524C20.0833 13.5359 20.0833 13.6712 20.1667 13.7546C20.2502 13.8381 20.3855 13.8381 20.4689 13.7546Z" fill="#E1FFFF"/>
    <path opacity="0.49" d="M20.5364 13.8203C20.656 13.7007 20.656 13.5068 20.5364 13.3872C20.4168 13.2676 20.2229 13.2676 20.1033 13.3872C19.9837 13.5068 19.9837 13.7007 20.1033 13.8203C20.2229 13.9399 20.4168 13.9399 20.5364 13.8203Z" fill="#E1FFFF"/>
    <path d="M20.3232 13.7389C20.3981 13.7389 20.4589 13.6782 20.4589 13.6032C20.4589 13.5283 20.3981 13.4675 20.3232 13.4675C20.2483 13.4675 20.1875 13.5283 20.1875 13.6032C20.1875 13.6782 20.2483 13.7389 20.3232 13.7389Z" fill="#E1FFFF"/>
    <path d="M12.2291 18.6177C14.4872 18.6177 16.3176 16.7872 16.3176 14.5292C16.3176 12.2712 14.4872 10.4407 12.2291 10.4407C9.97111 10.4407 8.14062 12.2712 8.14062 14.5292C8.14062 16.7872 9.97111 18.6177 12.2291 18.6177Z" fill="url(#paint1_linear)"/>
    <path d="M9.85543 15.1562C10.3904 15.1562 10.8241 14.7225 10.8241 14.1875C10.8241 13.6525 10.3904 13.2188 9.85543 13.2188C9.32042 13.2188 8.88672 13.6525 8.88672 14.1875C8.88672 14.7225 9.32042 15.1562 9.85543 15.1562Z" fill="url(#paint2_linear)"/>
    <path d="M14.6038 13.5748C15.0365 13.5748 15.3873 13.224 15.3873 12.7913C15.3873 12.3586 15.0365 12.0078 14.6038 12.0078C14.1711 12.0078 13.8203 12.3586 13.8203 12.7913C13.8203 13.224 14.1711 13.5748 14.6038 13.5748Z" fill="url(#paint3_linear)"/>
    <path d="M12.6126 12.606C12.8171 12.606 12.983 12.4402 12.983 12.2356C12.983 12.0311 12.8171 11.8652 12.6126 11.8652C12.408 11.8652 12.2422 12.0311 12.2422 12.2356C12.2422 12.4402 12.408 12.606 12.6126 12.606Z" fill="url(#paint4_linear)"/>
    <path d="M12.011 16.0608C12.2156 16.0608 12.3814 15.895 12.3814 15.6905C12.3814 15.4859 12.2156 15.3201 12.011 15.3201C11.8065 15.3201 11.6406 15.4859 11.6406 15.6905C11.6406 15.895 11.8065 16.0608 12.011 16.0608Z" fill="url(#paint5_linear)"/>
    <path d="M14.2238 15.4053C14.3733 15.4053 14.4945 15.2842 14.4945 15.1347C14.4945 14.9852 14.3733 14.864 14.2238 14.864C14.0743 14.864 13.9531 14.9852 13.9531 15.1347C13.9531 15.2842 14.0743 15.4053 14.2238 15.4053Z" fill="url(#paint6_linear)"/>
    <path d="M11.1116 12.5357C11.1905 12.5357 11.2544 12.4717 11.2544 12.3928C11.2544 12.314 11.1905 12.25 11.1116 12.25C11.0327 12.25 10.9688 12.314 10.9688 12.3928C10.9688 12.4717 11.0327 12.5357 11.1116 12.5357Z" fill="url(#paint7_linear)"/>
    <path d="M10.5335 11.802C10.6124 11.802 10.6763 11.7381 10.6763 11.6592C10.6763 11.5803 10.6124 11.5164 10.5335 11.5164C10.4546 11.5164 10.3906 11.5803 10.3906 11.6592C10.3906 11.7381 10.4546 11.802 10.5335 11.802Z" fill="url(#paint8_linear)"/>
    <path d="M43.543 28.6743L43.7649 29.5419L42.9781 30.359L42.7461 29.4813L43.543 28.6743Z" fill="url(#paint9_linear)"/>
    <path d="M42.7441 29.4812L42.9761 30.3588L41.8665 30.0663L41.6445 29.1987L42.7441 29.4812Z" fill="url(#paint10_linear)"/>
    <path d="M43.541 28.6743L42.7441 29.4813L41.6445 29.1989L42.4314 28.3918L43.541 28.6743Z" fill="url(#paint11_linear)"/>
    <path d="M34.491 36.3532C36.87 36.3532 38.7985 34.4247 38.7985 32.0457C38.7985 29.6668 36.87 27.7383 34.491 27.7383C32.1121 27.7383 30.1836 29.6668 30.1836 32.0457C30.1836 34.4247 32.1121 36.3532 34.491 36.3532Z" fill="url(#paint12_linear)"/>
    <path d="M38.7928 31.9951C38.7827 32.0758 38.7827 32.1968 38.7726 32.338C40.9919 32.9837 42.4546 33.599 42.384 33.9218C42.2831 34.406 38.7423 34.0328 34.4954 33.0946C30.2384 32.1565 26.8792 31.0166 26.9801 30.5323C27.0406 30.2398 28.4024 30.26 30.4301 30.5424L30.5713 30.2196C27.2323 29.7455 24.8516 29.7657 24.7204 30.3609C24.5388 31.1981 28.816 32.8424 34.2836 34.0429C39.741 35.2433 44.3208 35.5358 44.5024 34.6986C44.6436 34.0832 42.2831 33.0038 38.7928 31.9951Z" fill="url(#paint13_linear)"/>
    <path d="M25.2491 42.3048C25.7059 42.3048 26.0763 41.9344 26.0763 41.4776C26.0763 41.0207 25.7059 40.6504 25.2491 40.6504C24.7922 40.6504 24.4219 41.0207 24.4219 41.4776C24.4219 41.9344 24.7922 42.3048 25.2491 42.3048Z" fill="url(#paint14_radial)"/>
    <path d="M7.15921 34.1184L7.32946 34.444C7.39756 34.5468 7.48269 34.6496 7.58484 34.701L7.90832 34.8724C7.92534 34.8724 7.92534 34.8895 7.90832 34.9066L7.58484 35.078C7.48269 35.1465 7.38054 35.2322 7.32946 35.335L7.15921 35.6606C7.15921 35.6777 7.14218 35.6777 7.12516 35.6606L6.95491 35.335C6.88681 35.2322 6.80168 35.1294 6.69953 35.078L6.37605 34.9066C6.35902 34.9066 6.35902 34.8895 6.37605 34.8724L6.69953 34.701C6.80168 34.6325 6.90383 34.5468 6.95491 34.444L7.12516 34.1184C7.14218 34.1184 7.15921 34.1184 7.15921 34.1184Z" fill="#EFEFEF"/>
    <path d="M25.3584 27.1784L25.5287 27.504C25.5968 27.6068 25.6819 27.7096 25.7841 27.761L26.1075 27.9323C26.1246 27.9323 26.1246 27.9495 26.1075 27.9666L25.7841 28.138C25.6819 28.2065 25.5798 28.2922 25.5287 28.395L25.3584 28.7206C25.3584 28.7377 25.3414 28.7377 25.3244 28.7206L25.1541 28.395C25.086 28.2922 25.0009 28.1894 24.8987 28.138L24.5753 27.9666C24.5582 27.9666 24.5582 27.9495 24.5753 27.9323L24.8987 27.761C25.0009 27.6924 25.1031 27.6068 25.1541 27.504L25.3244 27.1784C25.3244 27.1612 25.3414 27.1612 25.3584 27.1784Z" fill="#EFEFEF"/>
    <path d="M36.5799 33.6215L36.648 33.7414C36.665 33.7757 36.6991 33.81 36.7501 33.8443L36.8693 33.9128V33.9299L36.7501 33.9985C36.7161 34.0156 36.682 34.0499 36.648 34.1013L36.5799 34.2212H36.5629L36.4948 34.1013C36.4777 34.067 36.4437 34.0327 36.3926 33.9985L36.2734 33.9299V33.9128L36.3926 33.8443C36.4267 33.8271 36.4607 33.7928 36.4948 33.7414L36.5799 33.6215C36.5629 33.6044 36.5799 33.6044 36.5799 33.6215Z" fill="#EFEFEF"/>
    <path d="M37.3963 13.1619L37.4644 13.2818C37.4814 13.3161 37.5155 13.3504 37.5666 13.3846L37.6857 13.4532V13.4703L37.5666 13.5388C37.5325 13.556 37.4984 13.5902 37.4644 13.6417L37.3963 13.7445H37.3793L37.3112 13.6245C37.2941 13.5902 37.2601 13.556 37.209 13.5217L37.0898 13.4532V13.436L37.209 13.3675C37.2431 13.3504 37.2771 13.3161 37.3112 13.2647L37.3963 13.1619C37.3793 13.1619 37.3963 13.1619 37.3963 13.1619Z" fill="#EFEFEF"/>
    <path d="M13.8667 30.657L13.9519 30.8112C13.9859 30.8626 14.02 30.914 14.071 30.9311L14.2243 31.0168V31.034L14.071 31.1196C14.02 31.1539 13.9689 31.1882 13.9519 31.2396L13.8667 31.3938H13.8497L13.7646 31.2396C13.7305 31.1882 13.6965 31.1368 13.6454 31.1196L13.4922 31.034V31.0168L13.6454 30.9311C13.6965 30.8969 13.7476 30.8626 13.7646 30.8112L13.8667 30.657C13.8497 30.657 13.8667 30.657 13.8667 30.657Z" fill="#EFEFEF"/>
    <path d="M20.7613 31.5139L20.8464 31.6681C20.8805 31.7195 20.9145 31.7709 20.9656 31.7881L21.1188 31.8738V31.8909L20.9656 31.9766C20.9145 32.0108 20.8634 32.0451 20.8464 32.0965L20.7613 32.2507H20.7442L20.6591 32.0965C20.6251 32.0451 20.591 31.9937 20.5399 31.9766L20.3867 31.8909V31.8738L20.5399 31.7881C20.591 31.7538 20.6421 31.7195 20.6591 31.6681L20.7613 31.5139C20.7442 31.5139 20.7442 31.5139 20.7613 31.5139Z" fill="#EFEFEF"/>
    <path d="M20.0839 13.2132L20.203 13.4359C20.2371 13.5045 20.3052 13.573 20.3903 13.6244L20.6117 13.7444V13.7615L20.3903 13.8815C20.3222 13.9157 20.2541 13.9843 20.203 14.0699L20.0839 14.2927H20.0668L19.9477 14.0528C19.9136 13.9843 19.8455 13.9157 19.7604 13.8643L19.5391 13.7444V13.7272L19.7604 13.6073C19.8285 13.573 19.8966 13.5045 19.9477 13.4188L20.0668 13.196C20.0668 13.196 20.0839 13.196 20.0839 13.2132Z" fill="#EFEFEF"/>
    <path d="M25.9402 40.2709C26.0345 40.2709 26.1109 40.1939 26.1109 40.0991C26.1109 40.0042 26.0345 39.9272 25.9402 39.9272C25.846 39.9272 25.7695 40.0042 25.7695 40.0991C25.7695 40.1939 25.846 40.2709 25.9402 40.2709Z" fill="#EFEFEF"/>
    <path d="M14.2254 13.6254C14.3197 13.6254 14.3961 13.5484 14.3961 13.4536C14.3961 13.3587 14.3197 13.2817 14.2254 13.2817C14.1311 13.2817 14.0547 13.3587 14.0547 13.4536C14.0547 13.5484 14.1311 13.6254 14.2254 13.6254Z" fill="#EFEFEF"/>
    <path d="M6.97149 21.2848C7.06577 21.2848 7.1422 21.2079 7.1422 21.113C7.1422 21.0181 7.06577 20.9412 6.97149 20.9412C6.87721 20.9412 6.80078 21.0181 6.80078 21.113C6.80078 21.2079 6.87721 21.2848 6.97149 21.2848Z" fill="#EFEFEF"/>
    <path d="M30.4871 29.9896C30.5814 29.9896 30.6578 29.9127 30.6578 29.8178C30.6578 29.7229 30.5814 29.646 30.4871 29.646C30.3928 29.646 30.3164 29.7229 30.3164 29.8178C30.3164 29.9127 30.3928 29.9896 30.4871 29.9896Z" fill="#EFEFEF"/>
    <path d="M22.4168 22.7755C22.5111 22.7755 22.5875 22.6986 22.5875 22.6037C22.5875 22.5088 22.5111 22.4319 22.4168 22.4319C22.3225 22.4319 22.2461 22.5088 22.2461 22.6037C22.2461 22.6986 22.3225 22.7755 22.4168 22.7755Z" fill="#EFEFEF"/>
    <path d="M6.78891 44.8459C6.86433 44.8459 6.92548 44.7844 6.92548 44.7085C6.92548 44.6326 6.86433 44.571 6.78891 44.571C6.71349 44.571 6.65234 44.6326 6.65234 44.7085C6.65234 44.7844 6.71349 44.8459 6.78891 44.8459Z" fill="#EFEFEF"/>
    <path d="M37.2264 20.5479C37.3018 20.5479 37.363 20.4863 37.363 20.4104C37.363 20.3345 37.3018 20.2729 37.2264 20.2729C37.151 20.2729 37.0898 20.3345 37.0898 20.4104C37.0898 20.4863 37.151 20.5479 37.2264 20.5479Z" fill="#EFEFEF"/>
    <path d="M6.40012 45.0445C6.44726 44.9852 6.43775 44.8987 6.37887 44.8513C6.32 44.8039 6.23406 44.8134 6.18692 44.8727C6.13978 44.9319 6.14929 45.0184 6.20816 45.0659C6.26704 45.1133 6.35298 45.1038 6.40012 45.0445Z" fill="#EFEFEF"/>
    <path d="M30.2957 43.9037C30.39 43.9037 30.4664 43.8268 30.4664 43.7319C30.4664 43.637 30.39 43.5601 30.2957 43.5601C30.2014 43.5601 30.125 43.637 30.125 43.7319C30.125 43.8268 30.2014 43.9037 30.2957 43.9037Z" fill="#EFEFEF"/>
    <path d="M26.1111 38.9676C26.1487 38.9676 26.1792 38.937 26.1792 38.8991C26.1792 38.8613 26.1487 38.8306 26.1111 38.8306C26.0735 38.8306 26.043 38.8613 26.043 38.8991C26.043 38.937 26.0735 38.9676 26.1111 38.9676Z" fill="#EFEFEF"/>
    <path d="M29.7165 43.3029C29.7541 43.3029 29.7846 43.2722 29.7846 43.2343C29.7846 43.1965 29.7541 43.1658 29.7165 43.1658C29.6789 43.1658 29.6484 43.1965 29.6484 43.2343C29.6484 43.2722 29.6789 43.3029 29.7165 43.3029Z" fill="#EFEFEF"/>
    <path d="M30.7947 42.806C30.8323 42.806 30.8628 42.7753 30.8628 42.7375C30.8628 42.6996 30.8323 42.6689 30.7947 42.6689C30.7571 42.6689 30.7266 42.6996 30.7266 42.7375C30.7266 42.7753 30.7571 42.806 30.7947 42.806Z" fill="#EFEFEF"/>
    <path d="M36.8689 38.9676C36.9065 38.9676 36.937 38.937 36.937 38.8991C36.937 38.8613 36.9065 38.8306 36.8689 38.8306C36.8313 38.8306 36.8008 38.8613 36.8008 38.8991C36.8008 38.937 36.8313 38.9676 36.8689 38.9676Z" fill="#EFEFEF"/>
    <path d="M38.8259 14.3614C38.8635 14.3614 38.894 14.3308 38.894 14.2929C38.894 14.2551 38.8635 14.2244 38.8259 14.2244C38.7883 14.2244 38.7578 14.2551 38.7578 14.2929C38.7578 14.3308 38.7883 14.3614 38.8259 14.3614Z" fill="#EFEFEF"/>
    <path d="M5.79857 44.6393C5.83618 44.6393 5.86667 44.6086 5.86667 44.5707C5.86667 44.5329 5.83618 44.5022 5.79857 44.5022C5.76096 44.5022 5.73047 44.5329 5.73047 44.5707C5.73047 44.6086 5.76096 44.6393 5.79857 44.6393Z" fill="#EFEFEF"/>
    <path d="M30.0272 14.5508C30.1026 14.5508 30.1638 14.4892 30.1638 14.4133C30.1638 14.3374 30.1026 14.2759 30.0272 14.2759C29.9518 14.2759 29.8906 14.3374 29.8906 14.4133C29.8906 14.4892 29.9518 14.5508 30.0272 14.5508Z" fill="#EFEFEF"/>
    <path d="M29.6345 14.7608C29.6816 14.7016 29.6721 14.6151 29.6133 14.5676C29.5544 14.5202 29.4684 14.5297 29.4213 14.589C29.3742 14.6483 29.3837 14.7348 29.4425 14.7822C29.5014 14.8296 29.5874 14.8201 29.6345 14.7608Z" fill="#EFEFEF"/>
    <path d="M11.1501 28.0164C11.1973 27.9572 11.1878 27.8707 11.1289 27.8232C11.07 27.7758 10.9841 27.7854 10.9369 27.8446C10.8898 27.9039 10.8993 27.9904 10.9582 28.0378C11.017 28.0853 11.103 28.0757 11.1501 28.0164Z" fill="#EFEFEF"/>
    <path d="M8.615 13.2432C8.66214 13.184 8.65262 13.0974 8.59373 13.05C8.53485 13.0026 8.4489 13.0121 8.40176 13.0714C8.35462 13.1307 8.36414 13.2172 8.42302 13.2646C8.48191 13.3121 8.56786 13.3025 8.615 13.2432Z" fill="#EFEFEF"/>
    <path d="M25.3375 33.826C25.4198 33.7226 25.4032 33.5716 25.3004 33.4888C25.1976 33.406 25.0477 33.4227 24.9654 33.5261C24.8831 33.6295 24.8997 33.7805 25.0025 33.8633C25.1052 33.9461 25.2552 33.9294 25.3375 33.826Z" fill="#EFEFEF"/>
    <path d="M29.0525 14.3614C29.0901 14.3614 29.1206 14.3308 29.1206 14.2929C29.1206 14.2551 29.0901 14.2244 29.0525 14.2244C29.0149 14.2244 28.9844 14.2551 28.9844 14.2929C28.9844 14.3308 29.0149 14.3614 29.0525 14.3614Z" fill="#EFEFEF"/>
    <path d="M30.7244 19.2965C30.762 19.2965 30.7925 19.2658 30.7925 19.228C30.7925 19.1901 30.762 19.1594 30.7244 19.1594C30.6867 19.1594 30.6562 19.1901 30.6562 19.228C30.6562 19.2658 30.6867 19.2965 30.7244 19.2965Z" fill="#EFEFEF"/>
    <path d="M25.7869 18.5939C25.8245 18.5939 25.855 18.5632 25.855 18.5253C25.855 18.4875 25.8245 18.4568 25.7869 18.4568C25.7492 18.4568 25.7188 18.4875 25.7188 18.5253C25.7188 18.5632 25.7492 18.5939 25.7869 18.5939Z" fill="#EFEFEF"/>
    <path d="M11.3142 27.2643C11.3518 27.2643 11.3823 27.2336 11.3823 27.1957C11.3823 27.1579 11.3518 27.1272 11.3142 27.1272C11.2766 27.1272 11.2461 27.1579 11.2461 27.1957C11.2461 27.2336 11.2766 27.2643 11.3142 27.2643Z" fill="#EFEFEF"/>
    <path d="M8.57591 14.2755C8.61352 14.2755 8.64401 14.2448 8.64401 14.207C8.64401 14.1691 8.61352 14.1384 8.57591 14.1384C8.5383 14.1384 8.50781 14.1691 8.50781 14.207C8.50781 14.2448 8.5383 14.2755 8.57591 14.2755Z" fill="#EFEFEF"/>
    <path d="M5.86498 13.6932C5.90259 13.6932 5.93308 13.6625 5.93308 13.6247C5.93308 13.5868 5.90259 13.5562 5.86498 13.5562C5.82736 13.5562 5.79688 13.5868 5.79688 13.6247C5.79688 13.6625 5.82736 13.6932 5.86498 13.6932Z" fill="#EFEFEF"/>
    <path d="M25.1561 35.1643C25.2315 35.1643 25.2927 35.1028 25.2927 35.0269C25.2927 34.9509 25.2315 34.8894 25.1561 34.8894C25.0807 34.8894 25.0195 34.9509 25.0195 35.0269C25.0195 35.1028 25.0807 35.1643 25.1561 35.1643Z" fill="#EFEFEF"/>
    <path d="M7.97435 20.5128C8.01196 20.5128 8.04245 20.4821 8.04245 20.4443C8.04245 20.4064 8.01196 20.3757 7.97435 20.3757C7.93674 20.3757 7.90625 20.4064 7.90625 20.4443C7.90625 20.4821 7.93674 20.5128 7.97435 20.5128Z" fill="#EFEFEF"/>
    <path d="M37.4314 20.9242C37.469 20.9242 37.4995 20.8935 37.4995 20.8557C37.4995 20.8178 37.469 20.7871 37.4314 20.7871C37.3938 20.7871 37.3633 20.8178 37.3633 20.8557C37.3633 20.8935 37.3938 20.9242 37.4314 20.9242Z" fill="#EFEFEF"/>
    <g clip-path="url(#clip0)">
        <path d="M21.3592 32.6578L15.8359 27.6035L16.8648 26.4622L22.3881 31.5709L21.3592 32.6578Z" fill="url(#paint15_linear)"/>
        <path d="M28.0187 26.6797L28.6685 32.821C28.7226 33.2014 28.5602 33.5275 28.2894 33.7449L23.8492 37.3319C23.6326 37.4949 23.3618 37.2775 23.4701 37.0058L24.8239 34.071L22.8203 30.9188L28.0187 26.6797Z" fill="url(#paint16_linear)"/>
        <path d="M21.0891 20.2667L14.9702 20.158C14.5911 20.158 14.2662 20.321 14.1038 20.5927L10.9089 25.321C10.7465 25.5384 11.0172 25.8101 11.2338 25.7014L13.9955 24.071L17.2445 25.8101L21.0891 20.2667Z" fill="url(#paint17_linear)"/>
        <path d="M34.7884 12.3318C25.4746 9.77749 15.8359 25.9731 15.8359 25.9731L19.3015 29.1796L22.7671 32.3862C22.8213 32.3862 38.0915 21.4623 34.7884 12.3318Z" fill="url(#paint18_linear)"/>
        <path d="M17.0828 31.7341C16.9203 31.5711 16.9203 31.3537 17.0828 31.1906L23.6891 23.9624C23.8515 23.7993 24.0681 23.7993 24.2306 23.9624C24.393 24.1254 24.393 24.3428 24.2306 24.5058L17.6243 31.6798C17.516 31.8428 17.2452 31.8428 17.0828 31.7341Z" fill="url(#paint19_linear)"/>
        <path d="M28.0201 23.0926C29.7248 23.0926 31.1067 21.7057 31.1067 19.9948C31.1067 18.2839 29.7248 16.897 28.0201 16.897C26.3155 16.897 24.9336 18.2839 24.9336 19.9948C24.9336 21.7057 26.3155 23.0926 28.0201 23.0926Z" fill="url(#paint20_linear)"/>
        <path d="M28.0198 22.3319C29.3058 22.3319 30.3483 21.2856 30.3483 19.9949C30.3483 18.7042 29.3058 17.658 28.0198 17.658C26.7339 17.658 25.6914 18.7042 25.6914 19.9949C25.6914 21.2856 26.7339 22.3319 28.0198 22.3319Z" fill="url(#paint21_linear)"/>
    </g>
    <defs>
        <linearGradient id="paint0_linear" x1="13.266" y1="11.1555" x2="42.5116" y2="27.7381" gradientUnits="userSpaceOnUse">
            <stop stop-color="#481F85"/>
            <stop offset="0.99842" stop-color="#5E2397"/>
        </linearGradient>
        <linearGradient id="paint1_linear" x1="8.14067" y1="14.5323" x2="16.3128" y2="14.5323" gradientUnits="userSpaceOnUse">
            <stop stop-color="#FFE900"/>
            <stop offset="0.1684" stop-color="#FFCB1B"/>
            <stop offset="0.5369" stop-color="#FF7D60"/>
            <stop offset="1" stop-color="#FF13BD"/>
        </linearGradient>
        <linearGradient id="paint2_linear" x1="9.34766" y1="15.0769" x2="10.7328" y2="12.6529" gradientUnits="userSpaceOnUse">
            <stop stop-color="#E7FFF9"/>
            <stop offset="1" stop-color="#FF5668"/>
        </linearGradient>
        <linearGradient id="paint3_linear" x1="14.6447" y1="13.3279" x2="14.5062" y2="11.5826" gradientUnits="userSpaceOnUse">
            <stop stop-color="#E7FFF9"/>
            <stop offset="1" stop-color="#FF5668"/>
        </linearGradient>
        <linearGradient id="paint4_linear" x1="12.571" y1="12.4439" x2="12.6957" y2="11.7929" gradientUnits="userSpaceOnUse">
            <stop stop-color="#E7FFF9"/>
            <stop offset="1" stop-color="#FF5668"/>
        </linearGradient>
        <linearGradient id="paint5_linear" x1="11.6415" y1="15.689" x2="12.3816" y2="15.689" gradientUnits="userSpaceOnUse">
            <stop stop-color="#E7FFF9"/>
            <stop offset="1" stop-color="#FF5668"/>
        </linearGradient>
        <linearGradient id="paint6_linear" x1="13.9591" y1="15.1328" x2="14.4937" y2="15.1328" gradientUnits="userSpaceOnUse">
            <stop stop-color="#E7FFF9"/>
            <stop offset="1" stop-color="#FF5668"/>
        </linearGradient>
        <linearGradient id="paint7_linear" x1="11.0484" y1="12.4497" x2="11.3572" y2="12.174" gradientUnits="userSpaceOnUse">
            <stop stop-color="#E7FFF9"/>
            <stop offset="1" stop-color="#FF5668"/>
        </linearGradient>
        <linearGradient id="paint8_linear" x1="10.5097" y1="11.8164" x2="10.5648" y2="11.48" gradientUnits="userSpaceOnUse">
            <stop stop-color="#E7FFF9"/>
            <stop offset="1" stop-color="#FF5668"/>
        </linearGradient>
        <linearGradient id="paint9_linear" x1="43.0256" y1="28.673" x2="43.4512" y2="30.2042" gradientUnits="userSpaceOnUse">
            <stop stop-color="#CD22FF"/>
            <stop offset="1" stop-color="#423BD7"/>
        </linearGradient>
        <linearGradient id="paint10_linear" x1="41.8261" y1="29.9109" x2="42.7902" y2="29.6429" gradientUnits="userSpaceOnUse">
            <stop stop-color="#CD22FF"/>
            <stop offset="1" stop-color="#423BD7"/>
        </linearGradient>
        <linearGradient id="paint11_linear" x1="41.6415" y1="29.1999" x2="43.5393" y2="28.6724" gradientUnits="userSpaceOnUse">
            <stop stop-color="#BDF7A3"/>
            <stop offset="1" stop-color="#009EE0"/>
        </linearGradient>
        <linearGradient id="paint12_linear" x1="30.2036" y1="32.4675" x2="38.7705" y2="31.6299" gradientUnits="userSpaceOnUse">
            <stop stop-color="#FFE900"/>
            <stop offset="1" stop-color="#FF13BD"/>
        </linearGradient>
        <linearGradient id="paint13_linear" x1="24.7126" y1="30.4225" x2="44.4932" y2="34.7662" gradientUnits="userSpaceOnUse">
            <stop stop-color="#BDF7A3"/>
            <stop offset="1" stop-color="#009EE0"/>
        </linearGradient>
        <radialGradient id="paint14_radial" cx="0" cy="0" r="1" gradientUnits="userSpaceOnUse" gradientTransform="translate(24.8394 41.1089) scale(1.48564)">
            <stop stop-color="#FFEC41"/>
            <stop offset="0.1968" stop-color="#FFB44E"/>
            <stop offset="0.4868" stop-color="#FF6860"/>
            <stop offset="0.7268" stop-color="#FF306E"/>
            <stop offset="0.9043" stop-color="#FF0D76"/>
            <stop offset="1" stop-color="#FF0079"/>
        </radialGradient>
        <linearGradient id="paint15_linear" x1="25.9921" y1="24.2373" x2="17.1726" y2="31.0041" gradientUnits="userSpaceOnUse">
            <stop stop-color="#FFE900"/>
            <stop offset="0.1684" stop-color="#FFCB1B"/>
            <stop offset="0.5369" stop-color="#FF7D60"/>
            <stop offset="1" stop-color="#FF13BD"/>
        </linearGradient>
        <linearGradient id="paint16_linear" x1="32.2106" y1="30.1259" x2="22.76" y2="32.9536" gradientUnits="userSpaceOnUse">
            <stop stop-color="#FFE900"/>
            <stop offset="0.1684" stop-color="#FFCB1B"/>
            <stop offset="0.5369" stop-color="#FF7D60"/>
            <stop offset="1" stop-color="#FF13BD"/>
        </linearGradient>
        <linearGradient id="paint17_linear" x1="17.3534" y1="16.3771" x2="15.278" y2="26.0541" gradientUnits="userSpaceOnUse">
            <stop stop-color="#FFE900"/>
            <stop offset="0.1684" stop-color="#FFCB1B"/>
            <stop offset="0.5369" stop-color="#FF7D60"/>
            <stop offset="1" stop-color="#FF13BD"/>
        </linearGradient>
        <linearGradient id="paint18_linear" x1="40.4158" y1="17.454" x2="19.1551" y2="24.9836" gradientUnits="userSpaceOnUse">
            <stop stop-color="#BDF7A3"/>
            <stop offset="1" stop-color="#009EE0"/>
        </linearGradient>
        <linearGradient id="paint19_linear" x1="24.3248" y1="25.7541" x2="16.2459" y2="30.3001" gradientUnits="userSpaceOnUse">
            <stop stop-color="#FFE900"/>
            <stop offset="0.1684" stop-color="#FFCB1B"/>
            <stop offset="0.5369" stop-color="#FF7D60"/>
            <stop offset="1" stop-color="#FF13BD"/>
        </linearGradient>
        <linearGradient id="paint20_linear" x1="29.4191" y1="17.0231" x2="25.2244" y2="25.9273" gradientUnits="userSpaceOnUse">
            <stop stop-color="#0E216D"/>
            <stop offset="0.094865" stop-color="#152171"/>
            <stop offset="0.2312" stop-color="#28217D"/>
            <stop offset="0.3926" stop-color="#472191"/>
            <stop offset="0.5733" stop-color="#7221AD"/>
            <stop offset="0.7699" stop-color="#AA22D0"/>
            <stop offset="0.977" stop-color="#ED22FA"/>
            <stop offset="1" stop-color="#F522FF"/>
        </linearGradient>
        <linearGradient id="paint21_linear" x1="29.7105" y1="19.0279" x2="26.0136" y2="21.1081" gradientUnits="userSpaceOnUse">
            <stop stop-color="#FFE900"/>
            <stop offset="0.1684" stop-color="#FFCB1B"/>
            <stop offset="0.5369" stop-color="#FF7D60"/>
            <stop offset="1" stop-color="#FF13BD"/>
        </linearGradient>
        <clipPath id="clip0">
            <rect x="10.8555" y="12.0601" width="24.4216" height="25.3261" fill="white"/>
        </clipPath>
    </defs>
</svg>
