<svg width="49" height="49" viewBox="0 0 49 49" fill="none" xmlns="http://www.w3.org/2000/svg">
    <mask id="mask0" mask-type="alpha" maskUnits="userSpaceOnUse" x="3" y="0" width="43" height="49">
        <path d="M24.2708 0L45.29 12.1354V36.4062L24.2708 48.5416L3.25167 36.4062V12.1354L24.2708 0Z" fill="url(#paint0_linear)"/>
    </mask>
    <g mask="url(#mask0)">
        <path d="M50.4465 -2.71338H-1.72266V49.415H50.4465V-2.71338Z" fill="url(#paint1_linear)"/>
        <path d="M17.4129 47.5184H32.4107C35.6126 45.1944 37.6985 41.4218 37.6985 37.1698C37.6985 30.1145 31.9727 24.3931 24.9118 24.3931C17.8509 24.3931 12.125 30.1145 12.125 37.1698C12.1146 41.4322 14.2005 45.1944 17.4129 47.5184Z" fill="url(#paint2_linear)"/>
        <path d="M34.8039 19.0258H34.7309C34.7726 18.9842 34.7726 18.9216 34.7309 18.8799L33.9696 18.1192L34.5745 17.3271C34.5745 17.3271 34.5745 17.3167 34.5849 17.3167C34.5849 17.3063 34.5953 17.3063 34.5953 17.2959C34.5953 17.2855 34.5953 17.2855 34.5953 17.275V17.2646C34.5953 17.2646 34.5953 17.2646 34.5953 17.2542C34.5953 17.2438 34.5953 17.2438 34.5953 17.2334C34.5953 17.2229 34.5953 17.2229 34.5849 17.2125C34.5849 17.2021 34.5745 17.2021 34.5745 17.2021C34.5745 17.1917 34.5641 17.1917 34.5641 17.1812C34.5641 17.1812 34.5536 17.1812 34.5536 17.1708C34.5432 17.1708 34.5432 17.1604 34.5328 17.1604C34.5223 17.1604 34.5223 17.1604 34.5119 17.1604H34.5015H32.9787H31.3204C31.31 17.1604 31.31 17.1604 31.2996 17.1604C31.2891 17.1604 31.2891 17.1604 31.2787 17.1604C31.2683 17.1604 31.2683 17.1708 31.2579 17.1708C31.2474 17.1708 31.2474 17.1812 31.2474 17.1812L31.237 17.1917C31.237 17.2021 31.2266 17.2021 31.2266 17.2125C31.2266 17.2229 31.2266 17.2229 31.2266 17.2334V17.2438V19.1092C31.2266 19.1718 31.2683 19.2134 31.3309 19.2134H34.8039C34.8665 19.2134 34.9082 19.1718 34.9082 19.1092C34.9082 19.0467 34.8665 19.0258 34.8039 19.0258ZM34.5849 19.0258H33.2708L33.8444 18.2859L34.5849 19.0258ZM31.4247 17.4939C31.5603 17.6294 31.7689 17.8482 32.0088 18.1088L31.4247 18.6924V17.4939ZM31.5812 17.3688H32.7284L32.1444 17.9629C31.9253 17.7232 31.7272 17.5147 31.5812 17.3688ZM32.9787 17.4105L33.6984 18.1296L33.0622 18.9633C32.8119 18.6819 32.5407 18.3797 32.2904 18.1088L32.9787 17.4105ZM33.2291 17.3688H34.2824L33.8235 17.9629L33.2291 17.3688ZM31.4247 18.9946L32.1444 18.2651C32.3738 18.5152 32.6241 18.7862 32.8327 19.0258H31.4247V18.9946Z" fill="#4F348C"/>
        <path d="M38.9358 38.5559C38.9358 38.5559 38.9358 38.5455 38.9358 38.5559V19.2448C38.9358 19.1823 38.8941 19.1406 38.8316 19.1406H36.1824C36.1198 19.1406 36.0781 19.1823 36.0781 19.2448V38.5455V38.5559C36.0781 38.5663 36.0781 38.5663 36.0781 38.5767C36.0781 38.5872 36.0781 38.5872 36.0886 38.5976C36.0886 38.608 36.099 38.608 36.099 38.6184C36.099 38.6288 36.1094 38.6288 36.1094 38.6393C36.1094 38.6393 36.1094 38.6393 36.1198 38.6497H36.1303C36.1407 38.6497 36.1407 38.6601 36.1511 38.6601C36.1616 38.6601 36.1616 38.6601 36.172 38.6601H36.1824H38.8316C38.842 38.6601 38.8524 38.6601 38.8628 38.6497H38.8733H38.8837C38.8837 38.6497 38.8837 38.6497 38.8941 38.6393C38.9046 38.6393 38.9046 38.6288 38.9046 38.6288C38.9046 38.6288 38.915 38.6184 38.915 38.608C38.915 38.5976 38.9254 38.5976 38.9254 38.5872C38.9254 38.5663 38.9254 38.5663 38.9358 38.5559ZM37.5487 36.3465L36.3076 34.6061L37.5487 32.9074L38.7064 34.6061L37.5487 36.3465ZM37.5487 21.4646L38.7064 23.1633L37.5487 24.9037L36.3076 23.1633L37.5487 21.4646ZM38.7273 23.5072V26.6337L37.6843 25.0913L38.7273 23.5072ZM37.5487 25.2789L38.7064 26.9776L37.5487 28.718L36.3076 26.9776L37.5487 25.2789ZM38.7273 27.3215V30.448L37.6843 28.9056L38.7273 27.3215ZM37.5487 29.0932L38.7064 30.7919L37.5487 32.5323L36.3076 30.7919L37.5487 29.0932ZM37.6739 32.7198L38.7168 31.1358V34.2622L37.6739 32.7198ZM38.7273 22.8298L37.6843 21.2875L38.7273 19.7034V22.8298ZM37.5487 21.0999L36.3076 19.3491H38.7064L37.5487 21.0999ZM37.4235 21.277L36.2867 22.8403V19.6825L37.4235 21.277ZM37.4235 25.0913L36.2867 26.6545V23.4864L37.4235 25.0913ZM37.4235 28.9056L36.2867 30.4688V27.3007L37.4235 28.9056ZM37.4235 32.7198L36.2867 34.2831V31.1149L37.4235 32.7198ZM37.4548 36.5758L36.2867 38.2224V34.9292L37.4548 36.5758ZM37.5487 36.8051L38.6334 38.4412H36.3806L37.5487 36.8051ZM37.653 36.5758L38.7273 34.95V38.2016L37.653 36.5758Z" fill="#4F348C"/>
        <path d="M40.0812 16.0349H38.0266C37.9849 16.0349 37.9536 16.0558 37.9327 16.087L37.2026 17.1187H35.1063C34.5848 17.1187 34.4492 17.5565 34.4492 17.7857V18.5152C34.4492 18.807 34.5952 19.3594 35.1376 19.3594H40.0812C40.1438 19.3594 40.196 19.3073 40.196 19.2447V16.1495C40.196 16.087 40.1438 16.0349 40.0812 16.0349Z" fill="url(#paint3_linear)"/>
        <path d="M39.352 16.6602H38.4134C38.3716 16.6602 38.3404 16.681 38.3195 16.7123L37.6624 17.671C37.6416 17.7023 37.6311 17.7544 37.652 17.7857C37.6729 17.8274 37.7146 17.8482 37.7563 17.8482H39.352C39.4146 17.8482 39.4668 17.7961 39.4668 17.7336V16.7748C39.4668 16.7123 39.4146 16.6602 39.352 16.6602Z" fill="#AED8F5"/>
        <path d="M33.0267 38.7331C33.1727 38.681 33.3187 38.6289 33.4543 38.5768C35.8636 37.7326 38.4919 37.5346 41.0054 38.0036L42.8932 38.7748L37.9599 40.7966H32.4844L33.0267 38.7331Z" fill="#473975"/>
        <path d="M37.9629 40.9007H32.4873C32.456 40.9007 32.4247 40.8903 32.4039 40.859C32.383 40.8382 32.3726 40.7965 32.383 40.7652L32.9149 38.7018C32.9253 38.6705 32.9462 38.6392 32.9775 38.6288C33.1235 38.5767 33.2695 38.5142 33.4155 38.4725C35.8561 37.6179 38.4843 37.4199 41.0187 37.8889C41.0292 37.8889 41.0292 37.8889 41.0396 37.8993L42.9274 38.6705C42.9691 38.6913 42.9899 38.7226 42.9899 38.7643C42.9899 38.806 42.9691 38.8477 42.9274 38.8581L37.9941 40.8798C37.9837 40.8903 37.9733 40.9007 37.9629 40.9007ZM32.6229 40.6923H37.942L42.6249 38.7747L40.977 38.1077C38.4843 37.6388 35.8978 37.8368 33.499 38.6809C33.3738 38.7226 33.2487 38.7747 33.1235 38.8164L32.6229 40.6923Z" fill="#473975"/>
        <path d="M-1.60156 35.6799C-0.881917 35.4402 -0.0162559 35.5027 0.724249 35.6799C1.46475 35.8571 2.17397 36.1384 2.90405 36.3469C3.58197 36.5449 4.93783 37.1076 5.64704 37.1702C5.64704 37.1702 7.1802 37.3161 8.04586 37.1702C8.91152 37.0243 4.03045 40.2654 4.03045 40.2654H-1.60156V35.6799Z" fill="#473975"/>
        <path d="M4.02928 40.3692H-1.60273C-1.66531 40.3692 -1.70703 40.3275 -1.70703 40.265V35.6795C-1.70703 35.6378 -1.67574 35.5962 -1.63402 35.5857C-0.757933 35.2939 0.232884 35.4607 0.754366 35.5857C1.19241 35.6899 1.63046 35.8358 2.05807 35.9713C2.3501 36.0651 2.64213 36.1693 2.94459 36.2527C3.17404 36.3152 3.46607 36.4195 3.78939 36.5341C4.45689 36.7634 5.20783 37.0343 5.66673 37.076C5.68759 37.076 7.19989 37.2219 8.03426 37.076C8.18028 37.0552 8.23242 37.1073 8.25328 37.1594C8.295 37.274 8.34715 37.4095 6.19864 38.9206C5.16611 39.6501 4.11271 40.3484 4.10228 40.3588C4.07099 40.3588 4.05014 40.3692 4.02928 40.3692ZM-1.49844 40.1608H3.99799C5.71888 39.0144 7.5545 37.7117 7.96125 37.2844C7.08516 37.4095 5.68759 37.274 5.63544 37.274C5.14525 37.2323 4.38388 36.9614 3.70596 36.7217C3.39307 36.607 3.09061 36.5028 2.87159 36.4403C2.56913 36.3569 2.26667 36.2527 1.98506 36.1589C1.56788 36.0234 1.14026 35.8775 0.702218 35.7733C0.222454 35.6587 -0.695355 35.5128 -1.49844 35.7525V40.1608Z" fill="#473975"/>
        <path d="M14.5864 38.9832C13.8772 38.9728 13.2097 38.608 12.5735 38.2537C12.4588 38.1912 12.3441 38.1286 12.2189 38.0661C9.75751 36.7634 6.95193 36.4195 4.53225 37.1177C3.96905 37.2741 3.41628 37.4929 2.88437 37.7118C1.85183 38.1182 0.777579 38.5455 -0.338394 38.5455C-0.348824 38.5455 -0.359253 38.5455 -0.359253 38.5455C-0.400972 38.5455 -0.44269 38.5767 -0.45312 38.608C-0.46355 38.6497 -0.45312 38.6914 -0.421831 38.7226L1.11133 40.0462C1.13219 40.067 1.15305 40.067 1.18434 40.067C1.18434 40.067 1.18434 40.067 1.19476 40.067L14.6177 39.1812C14.6699 39.1812 14.7116 39.1291 14.7116 39.077C14.6907 39.0249 14.6386 38.9832 14.5864 38.9832Z" fill="url(#paint4_linear)"/>
        <path d="M37.5105 9.01099L37.3019 8.11474C37.3019 8.10432 37.2915 8.0939 37.2915 8.08347L33.9853 2.43502C33.9644 2.39333 33.9018 2.37249 33.8601 2.39333C33.808 2.41417 33.7871 2.46628 33.7975 2.50797L34.0478 3.67518L31.357 0.507039C31.3257 0.465353 31.2631 0.454932 31.2214 0.486196C31.1797 0.517461 31.1693 0.57999 31.1901 0.621676L33.2969 4.25878L32.2539 3.85234C32.2122 3.8315 32.1601 3.85234 32.1288 3.89403C32.0975 3.93572 32.1079 3.98782 32.1392 4.01909L36.5092 8.71919C36.5197 8.72961 36.5301 8.74003 36.5405 8.74003L37.3645 9.12563C37.3749 9.13605 37.3958 9.13605 37.4062 9.13605C37.427 9.13605 37.4479 9.12563 37.4688 9.1152C37.5105 9.09436 37.5209 9.05268 37.5105 9.01099Z" fill="url(#paint5_linear)"/>
        <path d="M37.406 9.89712C37.8783 9.89712 38.2612 9.51451 38.2612 9.04255C38.2612 8.57059 37.8783 8.18799 37.406 8.18799C36.9337 8.18799 36.5508 8.57059 36.5508 9.04255C36.5508 9.51451 36.9337 9.89712 37.406 9.89712Z" fill="#F7F7F7"/>
        <path d="M31.8972 38.6465L32.8672 38.6465L32.8672 37.8857L31.8972 37.8857L31.8972 38.6465Z" fill="#4C3987"/>
        <path d="M32.8711 38.7539H31.9012C31.8386 38.7539 31.7969 38.7122 31.7969 38.6496V37.8889C31.7969 37.8264 31.8386 37.7847 31.9012 37.7847H32.8711C32.9337 37.7847 32.9754 37.8264 32.9754 37.8889V38.6496C32.9754 38.7122 32.9233 38.7539 32.8711 38.7539ZM32.0055 38.5454H32.7668V37.9931H32.0055V38.5454Z" fill="#4C3987"/>
        <path opacity="0.3" d="M45.1571 25.7687C45.105 25.6019 44.9381 25.456 44.7504 25.3726C44.5314 25.2788 44.2915 25.2476 43.9995 25.2684C44.1455 24.268 43.332 23.4342 42.4246 23.1216C41.5485 22.8298 40.4847 22.9757 39.9945 23.9553C39.5147 23.6427 38.9828 23.5593 38.4926 23.7365C37.9815 23.9136 37.5852 24.3618 37.4496 24.8828C36.7196 24.664 35.8643 24.8411 35.2907 25.3414C35.1655 25.4456 35.0195 25.654 35.0195 25.8625C35.0195 25.9771 35.0717 26.0709 35.1551 26.1438C35.2594 26.2272 35.3846 26.3106 35.5097 26.3106C36.1459 26.3106 36.7821 26.321 37.4184 26.321C38.2944 26.321 39.1705 26.321 40.0258 26.3106C41.5068 26.3002 43.0399 26.3002 44.5418 26.3106C44.6774 26.3106 44.9694 26.3106 45.105 26.0813C45.178 25.9875 45.1884 25.8729 45.1571 25.7687Z" fill="white"/>
        <path opacity="0.3" d="M15.0986 33.4701C15.0464 33.3033 14.8795 33.1574 14.6918 33.0741C14.4728 32.9803 14.2329 32.949 13.9409 32.9698C14.0869 31.9694 13.2734 31.1357 12.366 30.823C11.4899 30.5312 10.4261 30.6771 9.93588 31.6567C9.45612 31.3441 8.9242 31.2607 8.43401 31.4379C7.92296 31.615 7.52663 32.0632 7.39105 32.5842C6.66097 32.3654 5.80574 32.5426 5.23211 33.0428C5.10695 33.147 4.96094 33.3554 4.96094 33.5639C4.96094 33.6785 5.01309 33.7723 5.09652 33.8452C5.20082 33.9286 5.32597 34.012 5.45113 34.012C6.08734 34.012 6.72355 34.0224 7.35976 34.0224C8.23585 34.0224 9.11194 34.0224 9.96717 34.012C11.4482 34.0016 12.9813 34.0016 14.4832 34.012C14.6188 34.012 14.9108 34.012 15.0464 33.7827C15.1298 33.6993 15.1403 33.5847 15.0986 33.4701Z" fill="white"/>
        <path opacity="0.3" d="M4.94189 29.9164C4.86888 29.6871 4.63943 29.4683 4.36826 29.3641C4.05537 29.239 3.72162 29.1869 3.31486 29.2182C3.52346 27.8113 2.3762 26.6336 1.10378 26.2063C0.154681 25.8833 -0.950862 25.9458 -1.72266 26.6128V30.6772C0.196399 30.6667 2.15717 30.6667 4.09709 30.6772C4.28482 30.6772 4.70201 30.6772 4.88974 30.3541C4.98361 30.229 4.99404 30.0727 4.94189 29.9164Z" fill="white"/>
        <path opacity="0.3" d="M50.4381 28.395C49.6872 28.5097 48.9884 28.9161 48.5816 29.729C47.9141 29.2913 47.1528 29.1766 46.4748 29.4163C45.7552 29.6664 45.192 30.3022 45.0042 31.0317C43.9717 30.7294 42.7827 30.9691 41.9692 31.6778C41.7919 31.8341 41.5938 32.1155 41.5938 32.4073C41.5938 32.5636 41.6668 32.6991 41.7815 32.7929C41.9379 32.9179 42.1048 33.0326 42.2821 33.0326C43.1791 33.043 44.076 33.043 44.973 33.043C46.2037 33.043 47.4344 33.043 48.6338 33.0326C49.2283 33.0326 49.8227 33.0326 50.4277 33.0222V28.395H50.4381Z" fill="white"/>
        <path d="M40.7664 37.8575C42.8523 37.055 45.1677 36.8466 47.3579 37.2947C48.4739 37.524 49.3187 37.92 50.4451 37.7637V49.3107H-1.70312V38.2014C-0.827034 38.2326 0.737413 38.3889 1.6135 38.4202C6.31728 38.6078 11.021 38.7954 15.7144 38.4827C17.2058 38.3889 18.6973 38.243 20.1887 38.316C21.6489 38.3889 23.0882 38.6808 24.5379 38.8162C26.1753 38.9726 27.8128 38.9309 29.4502 38.8475C30.9938 38.7641 32.527 38.6495 34.0601 38.5036C36.5007 38.2639 38.5762 38.7016 40.7664 37.8575Z" fill="url(#paint6_linear)"/>
        <path d="M50.5533 48.4559C46.6005 47.4138 42.4182 48.7269 38.3402 48.4559C36.5776 48.3413 34.8358 47.9349 33.0732 48.0287C31.8217 48.1016 30.5806 48.4247 29.329 48.4143C28.0357 48.4038 26.7633 48.0391 25.4805 47.8411C21.6215 47.2575 17.6999 48.2475 13.8097 48.112C8.63657 47.9349 3.55733 45.7985 -1.57406 46.455L-1.69922 49.3105H50.449L50.5533 48.4559Z" fill="#6C5AA6"/>
        <path d="M50.4479 49.4147H-1.70039C-1.73168 49.4147 -1.75254 49.4043 -1.7734 49.3835C-1.79426 49.3626 -1.80469 49.3418 -1.80469 49.3105L-1.68996 46.455C-1.68996 46.4029 -1.64824 46.3612 -1.59609 46.3508C1.4285 45.9652 4.47396 46.5592 7.42555 47.122C9.51148 47.518 11.66 47.9349 13.7981 48.0078C15.4147 48.0599 17.0626 47.9245 18.6583 47.789C20.9007 47.6014 23.216 47.4034 25.4793 47.7369C25.9069 47.7994 26.3241 47.8828 26.7413 47.9661C27.5756 48.1329 28.4517 48.2996 29.307 48.3101C30.0162 48.3205 30.7254 48.2163 31.4138 48.112C31.9457 48.0391 32.4984 47.9557 33.0512 47.9245C34.1776 47.8619 35.304 48.0078 36.3991 48.1433C37.0353 48.2267 37.6924 48.3101 38.339 48.3517C39.9661 48.456 41.6452 48.3101 43.2618 48.1642C45.6815 47.9453 48.1846 47.7265 50.573 48.3517C50.6252 48.3622 50.6565 48.4143 50.646 48.4664L50.5417 49.3209C50.5417 49.3835 50.5 49.4147 50.4479 49.4147ZM-1.59609 49.2063H50.354L50.4374 48.5393C48.1116 47.9453 45.6607 48.1642 43.2931 48.383C41.6661 48.5289 39.9765 48.6748 38.339 48.5706C37.682 48.5289 37.0249 48.4455 36.3887 48.3622C35.304 48.2267 34.188 48.0808 33.0825 48.1433C32.5402 48.1746 31.9978 48.2475 31.4659 48.3309C30.7671 48.4351 30.0475 48.5393 29.3278 48.5289C28.4413 48.5185 27.5652 48.3517 26.7204 48.185C26.3137 48.1016 25.886 48.0183 25.4689 47.9557C23.2265 47.6222 20.9215 47.8098 18.7 48.0078C17.0938 48.1433 15.4355 48.2892 13.8085 48.2267C11.66 48.1537 9.50105 47.7369 7.40469 47.3304C4.49482 46.7677 1.49108 46.1945 -1.47094 46.5488L-1.59609 49.2063Z" fill="#6C5AA6"/>
        <path d="M40.0156 42.6724C40.4954 42.3285 41.0064 42.0367 41.5384 41.797C41.9973 41.599 42.5083 41.4323 42.9881 41.5886C43.4783 41.7553 43.7912 42.2139 44.0623 42.6516" fill="#6C5AA6"/>
        <path d="M40.0157 42.7765C39.9844 42.7765 39.9531 42.766 39.9323 42.7348C39.901 42.6931 39.9114 42.6201 39.9531 42.5889C40.4329 42.245 40.9544 41.9427 41.4967 41.703C41.9243 41.5154 42.4875 41.3174 43.0194 41.4946C43.5305 41.6718 43.8434 42.1199 44.1458 42.6097C44.1771 42.6618 44.1563 42.7243 44.1145 42.7556C44.0624 42.7869 43.9998 42.766 43.9685 42.7243C43.6869 42.2762 43.3949 41.8489 42.9569 41.703C42.498 41.5467 41.9869 41.7343 41.5906 41.901C41.0587 42.1407 40.5476 42.4325 40.0783 42.766C40.0678 42.7765 40.0366 42.7765 40.0157 42.7765Z" fill="#6C5AA6"/>
        <path d="M45.115 42.8388H38.5965C38.5339 42.8388 38.4922 42.7971 38.4922 42.7346C38.4922 42.6721 38.5339 42.6304 38.5965 42.6304H45.115C45.1776 42.6304 45.2193 42.6721 45.2193 42.7346C45.2193 42.7971 45.1776 42.8388 45.115 42.8388Z" fill="#33205B"/>
        <path d="M43.3303 42.2555C43.299 42.2555 43.2573 42.2451 43.226 42.2242C42.8922 41.9429 42.5376 41.922 42.5376 41.922C42.4542 41.922 42.3812 41.8386 42.3916 41.7553C42.3916 41.6719 42.4751 41.6094 42.5585 41.6094C42.5794 41.6094 43.0174 41.6406 43.4346 41.9846C43.4972 42.0367 43.5076 42.1409 43.4554 42.2034C43.4137 42.2347 43.372 42.2555 43.3303 42.2555Z" fill="#8A73D4"/>
        <path d="M25.4375 44.4961C25.9694 44.1313 26.543 43.8395 27.148 43.6207C27.367 43.5373 27.6173 43.4748 27.8468 43.5269C28.0136 43.5686 28.1492 43.6728 28.2848 43.777C28.6916 44.0792 29.0983 44.3814 29.5051 44.6837" fill="#6C5AA6"/>
        <path d="M29.498 44.7774C29.4772 44.7774 29.4563 44.767 29.4354 44.7565L28.2152 43.8499C28.09 43.7561 27.9649 43.6623 27.8188 43.6206C27.6103 43.5685 27.3808 43.6414 27.1826 43.704C26.5881 43.9228 26.0145 44.2042 25.5035 44.569C25.4513 44.6002 25.3887 44.5898 25.3574 44.5377C25.3262 44.4856 25.3366 44.4231 25.3887 44.3918C25.9206 44.0166 26.5047 43.7248 27.1201 43.506C27.3599 43.4226 27.6207 43.3496 27.8814 43.4122C28.0692 43.4643 28.2152 43.5789 28.3508 43.6727L29.571 44.5794C29.6127 44.6106 29.6232 44.6836 29.5919 44.7253C29.5606 44.767 29.5293 44.7774 29.498 44.7774Z" fill="#6C5AA6"/>
        <path d="M30.7283 44.767H24.2098C24.1472 44.767 24.1055 44.7253 24.1055 44.6628C24.1055 44.6003 24.1472 44.5586 24.2098 44.5586H30.7283C30.7909 44.5586 30.8326 44.6003 30.8326 44.6628C30.8326 44.7253 30.7804 44.767 30.7283 44.767Z" fill="#33205B"/>
        <path d="M28.2717 44.3085C28.2404 44.3085 28.1987 44.2981 28.1674 44.2772C27.8337 43.9958 27.479 43.975 27.479 43.975C27.3956 43.975 27.3226 43.8916 27.333 43.8083C27.333 43.7249 27.406 43.6624 27.4999 43.6624C27.5208 43.6624 27.9588 43.6936 28.376 44.0375C28.4386 44.0896 28.449 44.1938 28.3969 44.2564C28.3551 44.2981 28.3134 44.3085 28.2717 44.3085Z" fill="#8A73D4"/>
        <path d="M7.66406 42.7346C8.25855 41.8801 9.4371 41.4945 10.4175 41.8384C10.7617 41.953 11.0641 42.151 11.3666 42.3386C11.5126 42.4324 11.6586 42.5262 11.8151 42.62" fill="#6C5AA6"/>
        <path d="M7.66615 42.8389C7.6453 42.8389 7.62444 42.8285 7.60358 42.8181C7.55143 42.7868 7.541 42.7243 7.57229 42.6722C8.18764 41.7759 9.42876 41.3799 10.4509 41.7342C10.8055 41.8593 11.1184 42.0573 11.4208 42.2449L11.8693 42.5263C11.9215 42.5575 11.9319 42.62 11.9006 42.6722C11.8693 42.7243 11.8067 42.7347 11.7546 42.7034L11.3061 42.422C11.0141 42.2345 10.7012 42.0469 10.3779 41.9218C9.43919 41.5883 8.30236 41.9635 7.73916 42.7764C7.72873 42.8181 7.69744 42.8389 7.66615 42.8389Z" fill="#6C5AA6"/>
        <path d="M12.7166 42.8388H6.19805C6.13547 42.8388 6.09375 42.7971 6.09375 42.7346C6.09375 42.6721 6.13547 42.6304 6.19805 42.6304H12.7166C12.7792 42.6304 12.8209 42.6721 12.8209 42.7346C12.8209 42.7971 12.7687 42.8388 12.7166 42.8388Z" fill="#33205B"/>
        <path d="M10.552 42.3805C10.5207 42.3805 10.4894 42.37 10.4686 42.3596C10.1035 42.1199 9.74891 42.1303 9.74891 42.1303C9.66547 42.1303 9.59246 42.0678 9.58203 41.9844C9.58203 41.9011 9.64461 41.8281 9.72805 41.8177C9.74891 41.8177 10.187 41.7968 10.6354 42.0991C10.7084 42.1512 10.7293 42.245 10.6771 42.3179C10.6459 42.3596 10.6041 42.3805 10.552 42.3805Z" fill="#8A73D4"/>
        <path d="M8.22788 8.87557C9.39143 8.87557 10.3347 7.93307 10.3347 6.77043C10.3347 5.60779 9.39143 4.66528 8.22788 4.66528C7.06434 4.66528 6.12109 5.60779 6.12109 6.77043C6.12109 7.93307 7.06434 8.87557 8.22788 8.87557Z" fill="url(#paint7_linear)"/>
        <path d="M11.6061 7.26044C11.4079 6.71853 10.4275 6.34335 10.3128 6.30167C10.3024 6.30167 10.2919 6.29124 10.2711 6.29124C10.3024 6.4163 10.3128 6.55178 10.3232 6.68726C10.6883 6.84358 11.1785 7.12497 11.2723 7.37508C11.2932 7.43761 11.2932 7.48972 11.2515 7.55225C10.9073 8.15669 9.09253 7.92742 8.0287 7.63562L7.96612 7.61478C6.9023 7.34382 5.21269 6.64558 5.21269 5.94733C5.21269 5.87438 5.23355 5.8327 5.2857 5.78059C5.48387 5.61385 6.02621 5.60343 6.4121 5.64511C6.48511 5.53047 6.56855 5.41584 6.65199 5.32204H6.64156C6.52683 5.3012 5.48386 5.14488 5.04582 5.50963C4.91023 5.62427 4.84766 5.77017 4.84766 5.94733C4.84766 7.14581 7.55937 7.88574 7.86183 7.95869L7.9244 7.97953C8.10171 8.03164 9.11338 8.29217 10.0312 8.29217C10.6883 8.29217 11.2932 8.15669 11.5435 7.72941C11.6478 7.59393 11.6687 7.42719 11.6061 7.26044Z" fill="#F7F7F7"/>
        <path d="M10.6915 13.6999C10.8124 13.6978 10.9087 13.5981 10.9066 13.4773C10.9045 13.3564 10.8048 13.2602 10.6838 13.2623C10.5629 13.2644 10.4666 13.3641 10.4687 13.4849C10.4708 13.6058 10.5705 13.702 10.6915 13.6999Z" fill="#F7F7F7" stroke="#F7F7F7" stroke-miterlimit="10" stroke-linecap="round" stroke-linejoin="round"/>
        <path d="M45.9239 1.02771C45.7987 0.871392 45.8404 0.57959 45.7987 0.57959C45.757 0.57959 45.7987 0.871392 45.6736 1.02771C45.538 1.19446 45.3815 1.14235 45.3711 1.16319C45.3815 1.18404 45.5484 1.13193 45.6736 1.29867C45.7987 1.455 45.757 1.7468 45.7987 1.7468C45.83 1.7468 45.7987 1.455 45.9239 1.29867C46.0595 1.13193 46.2159 1.18404 46.2263 1.16319C46.2263 1.14235 46.0595 1.19446 45.9239 1.02771Z" fill="#F7F7F7" stroke="#F7F7F7" stroke-miterlimit="10"/>
        <path d="M45.8027 1.76798C45.7609 1.76798 45.7609 1.72629 45.7505 1.64292C45.7401 1.54913 45.7296 1.3928 45.6566 1.30943C45.5628 1.19479 45.4585 1.19479 45.4063 1.19479C45.3855 1.19479 45.3542 1.19479 45.3438 1.17395C45.3438 1.16353 45.3438 1.15311 45.3438 1.15311C45.3542 1.13226 45.3855 1.13226 45.4168 1.13226C45.4689 1.13226 45.5732 1.12184 45.6566 1.01763C45.7296 0.923835 45.7401 0.777934 45.7505 0.68414C45.7609 0.600768 45.7609 0.569504 45.8027 0.559082C45.8027 0.559082 45.8027 0.559082 45.8131 0.559082C45.8548 0.559082 45.8548 0.600768 45.8652 0.68414C45.8757 0.777934 45.8861 0.934256 45.9591 1.01763C46.053 1.13226 46.1468 1.13226 46.2094 1.13226C46.2303 1.13226 46.272 1.13226 46.272 1.16353C46.272 1.17395 46.272 1.17395 46.272 1.18437C46.2616 1.20522 46.2407 1.20522 46.2094 1.20522C46.1573 1.20522 46.053 1.21564 45.9591 1.31985C45.8861 1.41365 45.8757 1.55955 45.8652 1.66376C45.8548 1.73671 45.8444 1.76798 45.8027 1.76798ZM45.5315 1.16353C45.5836 1.18437 45.6462 1.21564 45.7088 1.28859C45.7714 1.36154 45.7922 1.46575 45.8027 1.54913C45.8131 1.45533 45.8339 1.36154 45.8965 1.28859C45.9487 1.21564 46.0112 1.18437 46.0738 1.16353C46.0217 1.14269 45.9591 1.11142 45.8965 1.03847C45.8339 0.965521 45.8131 0.861306 45.8027 0.777933C45.7922 0.871727 45.7714 0.965521 45.7088 1.03847C45.6566 1.11142 45.5941 1.14269 45.5315 1.16353Z" fill="#F7F7F7" stroke="#F7F7F7" stroke-miterlimit="10"/>
        <path d="M4.89844 11.4806C4.82544 11.4806 4.70028 11.4702 4.59598 11.3347C4.50212 11.2201 4.49169 11.0325 4.48126 10.9179C4.47083 10.8137 4.47083 10.772 4.41868 10.772H4.40825C4.3561 10.772 4.3561 10.8241 4.34567 10.9179C4.33524 11.0429 4.32481 11.2201 4.23095 11.3347C4.12665 11.4702 4.00149 11.4702 3.93892 11.4806C3.90763 11.4806 3.86591 11.4806 3.85548 11.5119C3.84505 11.5223 3.84505 11.5327 3.85548 11.5432C3.86591 11.564 3.8972 11.564 3.92849 11.564C4.00149 11.564 4.12665 11.5744 4.24138 11.7099C4.33524 11.8245 4.34567 12.0017 4.3561 12.1268C4.36653 12.231 4.36653 12.2727 4.41868 12.2727C4.47083 12.2727 4.47083 12.231 4.48126 12.1268C4.49169 12.0017 4.50212 11.8245 4.59598 11.7099C4.71071 11.5744 4.83587 11.564 4.89844 11.564C4.92973 11.564 4.96102 11.564 4.97145 11.5432C4.97145 11.5327 4.98188 11.5327 4.97145 11.5223C4.97145 11.4806 4.92973 11.4806 4.89844 11.4806Z" fill="#F7F7F7" stroke="#F7F7F7" stroke-miterlimit="10" stroke-linecap="round" stroke-linejoin="round"/>
        <path d="M18.1367 1.70549C18.0637 1.70549 17.9386 1.69507 17.8343 1.55959C17.7404 1.44495 17.73 1.25736 17.7195 1.14273C17.7091 1.03851 17.7091 0.996826 17.657 0.996826H17.6465C17.5944 0.996826 17.5944 1.04893 17.584 1.14273C17.5735 1.26778 17.5631 1.44495 17.4692 1.55959C17.3649 1.69507 17.2398 1.69507 17.1772 1.70549C17.1459 1.70549 17.1042 1.70549 17.0938 1.73675C17.0833 1.74717 17.0833 1.7576 17.0938 1.76802C17.1042 1.78886 17.1355 1.78886 17.1668 1.78886C17.2398 1.78886 17.3649 1.79928 17.4797 1.93476C17.5735 2.0494 17.584 2.22656 17.5944 2.35162C17.6048 2.45584 17.6048 2.49752 17.657 2.49752C17.7091 2.49752 17.7091 2.45584 17.7195 2.35162C17.73 2.22656 17.7404 2.0494 17.8343 1.93476C17.949 1.79928 18.0741 1.78886 18.1367 1.78886C18.168 1.78886 18.1993 1.78886 18.2097 1.76802C18.2097 1.7576 18.2202 1.7576 18.2097 1.74717C18.2097 1.70549 18.168 1.70549 18.1367 1.70549Z" fill="#F7F7F7" stroke="#F7F7F7" stroke-miterlimit="10" stroke-linecap="round" stroke-linejoin="round"/>
        <path d="M17.4297 7.18673C17.5507 7.18462 17.647 7.08495 17.6449 6.9641C17.6428 6.84326 17.543 6.747 17.4221 6.74911C17.3012 6.75122 17.2048 6.85089 17.2069 6.97174C17.2091 7.09258 17.3088 7.18884 17.4297 7.18673Z" fill="#F7F7F7" stroke="#F7F7F7" stroke-miterlimit="10" stroke-linecap="round" stroke-linejoin="round"/>
        <path d="M32.2149 11.0217C32.3358 11.0196 32.4322 10.9199 32.4301 10.7991C32.428 10.6782 32.3282 10.582 32.2073 10.5841C32.0863 10.5862 31.99 10.6859 31.9921 10.8067C31.9942 10.9275 32.094 11.0238 32.2149 11.0217Z" fill="#F7F7F7" stroke="#F7F7F7" stroke-miterlimit="10" stroke-linecap="round" stroke-linejoin="round"/>
        <path d="M3.78912 1.12178C3.91006 1.11968 4.00639 1.02 4.00428 0.899159C4.00217 0.778314 3.90242 0.682061 3.78148 0.68417C3.66054 0.686279 3.56421 0.785952 3.56632 0.906796C3.56843 1.02764 3.66818 1.12389 3.78912 1.12178Z" fill="#F7F7F7" stroke="#F7F7F7" stroke-miterlimit="10" stroke-linecap="round" stroke-linejoin="round"/>
        <path d="M15.0156 11.9914C14.9426 11.9914 14.8175 11.981 14.7132 11.8455C14.6193 11.7308 14.6089 11.5433 14.5984 11.4286C14.588 11.3244 14.588 11.2827 14.5359 11.2827H14.5254C14.4733 11.2827 14.4733 11.3348 14.4629 11.4286C14.4524 11.5537 14.442 11.7308 14.3481 11.8455C14.2438 11.981 14.1187 11.981 14.0561 11.9914C14.0248 11.9914 13.9831 11.9914 13.9727 12.0226C13.9622 12.0331 13.9622 12.0435 13.9727 12.0539C13.9831 12.0748 14.0144 12.0748 14.0457 12.0748C14.1187 12.0748 14.2438 12.0852 14.3586 12.2207C14.4524 12.3353 14.4629 12.5125 14.4733 12.6375C14.4837 12.7417 14.4837 12.7834 14.5359 12.7834C14.588 12.7834 14.588 12.7417 14.5984 12.6375C14.6089 12.5125 14.6193 12.3353 14.7132 12.2207C14.8279 12.0852 14.9531 12.0748 15.0156 12.0748C15.0469 12.0748 15.0782 12.0748 15.0886 12.0539C15.0886 12.0435 15.0991 12.0435 15.0886 12.0331C15.0886 11.9914 15.0469 11.9914 15.0156 11.9914Z" fill="#F7F7F7" stroke="#F7F7F7" stroke-miterlimit="10" stroke-linecap="round" stroke-linejoin="round"/>
        <path d="M42.3711 13.4401C42.2981 13.4401 42.1729 13.4297 42.0686 13.2942C41.9748 13.1796 41.9643 12.992 41.9539 12.8773C41.9435 12.7731 41.9435 12.7314 41.8913 12.7314H41.8809C41.8288 12.7314 41.8288 12.7836 41.8183 12.8773C41.8079 13.0024 41.7975 13.1796 41.7036 13.2942C41.5993 13.4297 41.4741 13.4297 41.4116 13.4401C41.3803 13.4401 41.3386 13.4401 41.3281 13.4714C41.3177 13.4818 41.3177 13.4922 41.3281 13.5026C41.3386 13.5235 41.3699 13.5235 41.4011 13.5235C41.4741 13.5235 41.5993 13.5339 41.714 13.6694C41.8079 13.784 41.8183 13.9612 41.8288 14.0862C41.8392 14.1905 41.8392 14.2321 41.8913 14.2321C41.9435 14.2321 41.9435 14.1905 41.9539 14.0862C41.9643 13.9612 41.9748 13.784 42.0686 13.6694C42.1834 13.5339 42.3085 13.5235 42.3711 13.5235C42.4024 13.5235 42.4337 13.5235 42.4441 13.5026C42.4441 13.4922 42.4545 13.4922 42.4441 13.4818C42.4441 13.4505 42.4024 13.4505 42.3711 13.4401Z" fill="#F7F7F7" stroke="#F7F7F7" stroke-miterlimit="10" stroke-linecap="round" stroke-linejoin="round"/>
        <path d="M38.2774 1.98653C38.3983 1.98442 38.4947 1.88475 38.4926 1.76391C38.4904 1.64306 38.3907 1.54681 38.2698 1.54892C38.1488 1.55102 38.0525 1.6507 38.0546 1.77154C38.0567 1.89239 38.1565 1.98864 38.2774 1.98653Z" fill="#F7F7F7" stroke="#F7F7F7" stroke-miterlimit="10" stroke-linecap="round" stroke-linejoin="round"/>
        <path d="M4.69928 15.3256C4.82022 15.3235 4.91655 15.2239 4.91444 15.103C4.91232 14.9822 4.81257 14.8859 4.69164 14.888C4.5707 14.8901 4.47437 14.9898 4.47648 15.1107C4.47859 15.2315 4.57834 15.3278 4.69928 15.3256Z" fill="#F7F7F7" stroke="#F7F7F7" stroke-miterlimit="10" stroke-linecap="round" stroke-linejoin="round"/>
        <path d="M24.2579 1.21529C24.3788 1.21318 24.4751 1.11351 24.473 0.992665C24.4709 0.871821 24.3712 0.775567 24.2502 0.777676C24.1293 0.779785 24.033 0.879458 24.0351 1.0003C24.0372 1.12115 24.1369 1.2174 24.2579 1.21529Z" fill="#F7F7F7" stroke="#F7F7F7" stroke-miterlimit="10" stroke-linecap="round" stroke-linejoin="round"/>
        <path d="M13.1992 0.434004C13.1262 0.434004 13.0011 0.423583 12.8968 0.288103C12.8029 0.173467 12.7925 -0.0141205 12.782 -0.128757C12.7716 -0.232972 12.7716 -0.274658 12.7195 -0.274658H12.709C12.6569 -0.274658 12.6569 -0.222551 12.6465 -0.128757C12.636 -0.003699 12.6256 0.173467 12.5317 0.288103C12.4274 0.423583 12.3023 0.423583 12.2397 0.434004C12.2084 0.434004 12.1667 0.434004 12.1563 0.465269C12.1458 0.47569 12.1458 0.486112 12.1563 0.496533C12.1667 0.517376 12.198 0.517377 12.2293 0.517377C12.3023 0.517377 12.4274 0.527798 12.5422 0.663278C12.636 0.777914 12.6465 0.95508 12.6569 1.08014C12.6673 1.18435 12.6673 1.22604 12.7195 1.22604C12.7716 1.22604 12.7716 1.18435 12.782 1.08014C12.7925 0.95508 12.8029 0.777914 12.8968 0.663278C13.0115 0.527798 13.1366 0.517377 13.1992 0.517377C13.2305 0.517377 13.2618 0.517376 13.2722 0.496533C13.2722 0.486112 13.2827 0.486112 13.2722 0.475691C13.2722 0.434004 13.2305 0.434004 13.1992 0.434004Z" fill="#F7F7F7" stroke="#F7F7F7" stroke-miterlimit="10" stroke-linecap="round" stroke-linejoin="round"/>
        <path d="M45.1797 12.9494C45.3007 12.9473 45.397 12.8476 45.3949 12.7268C45.3928 12.606 45.293 12.5097 45.1721 12.5118C45.0512 12.5139 44.9548 12.6136 44.9569 12.7344C44.9591 12.8553 45.0588 12.9515 45.1797 12.9494Z" fill="#F7F7F7" stroke="#F7F7F7" stroke-miterlimit="10" stroke-linecap="round" stroke-linejoin="round"/>
        <path d="M11.1367 19.9223C11.0637 19.9223 10.9386 19.9119 10.8343 19.7764C10.7404 19.6617 10.73 19.4742 10.7195 19.3595C10.7091 19.2553 10.7091 19.2136 10.657 19.2136H10.6465C10.5944 19.2136 10.5944 19.2657 10.584 19.3595C10.5735 19.4846 10.5631 19.6617 10.4692 19.7764C10.3649 19.9119 10.2398 19.9119 10.1772 19.9223C10.1459 19.9223 10.1042 19.9223 10.0938 19.9536C10.0833 19.964 10.0833 19.9744 10.0938 19.9848C10.1042 20.0057 10.1355 20.0057 10.1668 20.0057C10.2398 20.0057 10.3649 20.0161 10.4797 20.1516C10.5735 20.2662 10.584 20.4434 10.5944 20.5684C10.6048 20.6726 10.6048 20.7143 10.657 20.7143C10.7091 20.7143 10.7091 20.6726 10.7195 20.5684C10.73 20.4434 10.7404 20.2662 10.8343 20.1516C10.949 20.0161 11.0741 20.0057 11.1367 20.0057C11.168 20.0057 11.1993 20.0057 11.2097 19.9848C11.2097 19.9744 11.2202 19.9744 11.2097 19.964C11.2097 19.9327 11.168 19.9223 11.1367 19.9223Z" fill="#F7F7F7" stroke="#F7F7F7" stroke-miterlimit="10" stroke-linecap="round" stroke-linejoin="round"/>
        <path d="M9.39637 2.10186C9.45989 2.10075 9.51048 2.0484 9.50937 1.98493C9.50826 1.92146 9.45587 1.87091 9.39235 1.87202C9.32884 1.87313 9.27824 1.92548 9.27935 1.98894C9.28046 2.05241 9.33285 2.10297 9.39637 2.10186Z" fill="#F7F7F7" stroke="#F7F7F7" stroke-miterlimit="10" stroke-linecap="round" stroke-linejoin="round"/>
        <path d="M12.8261 8.1043C12.8896 8.1032 12.9402 8.05085 12.9391 7.98738C12.9379 7.92391 12.8856 7.87335 12.822 7.87446C12.7585 7.87557 12.7079 7.92792 12.709 7.99139C12.7101 8.05486 12.7625 8.10541 12.8261 8.1043Z" fill="#F7F7F7" stroke="#F7F7F7" stroke-miterlimit="10" stroke-linecap="round" stroke-linejoin="round"/>
        <path d="M7.65418 13.815C7.7177 13.8139 7.76829 13.7615 7.76718 13.6981C7.76608 13.6346 7.71368 13.584 7.65017 13.5852C7.58665 13.5863 7.53605 13.6386 7.53716 13.7021C7.53827 13.7655 7.59066 13.8161 7.65418 13.815Z" fill="#F7F7F7" stroke="#F7F7F7" stroke-miterlimit="10" stroke-linecap="round" stroke-linejoin="round"/>
        <path d="M15.8925 17.6397C15.956 17.6386 16.0066 17.5862 16.0055 17.5228C16.0044 17.4593 15.952 17.4088 15.8884 17.4099C15.8249 17.411 15.7743 17.4633 15.7754 17.5268C15.7766 17.5903 15.8289 17.6408 15.8925 17.6397Z" fill="#F7F7F7" stroke="#F7F7F7" stroke-miterlimit="10" stroke-linecap="round" stroke-linejoin="round"/>
        <path d="M18.2089 10.7305C18.2724 10.7294 18.323 10.6771 18.3219 10.6136C18.3208 10.5501 18.2684 10.4996 18.2049 10.5007C18.1413 10.5018 18.0907 10.5541 18.0919 10.6176C18.093 10.6811 18.1453 10.7316 18.2089 10.7305Z" fill="#F7F7F7" stroke="#F7F7F7" stroke-miterlimit="10" stroke-linecap="round" stroke-linejoin="round"/>
        <path d="M42.244 11.2723C42.3075 11.2712 42.3581 11.2188 42.357 11.1553C42.3559 11.0919 42.3035 11.0413 42.24 11.0424C42.1765 11.0435 42.1259 11.0959 42.127 11.1594C42.1281 11.2228 42.1805 11.2734 42.244 11.2723Z" fill="#F7F7F7" stroke="#F7F7F7" stroke-miterlimit="10" stroke-linecap="round" stroke-linejoin="round"/>
        <path d="M42.244 11.2723C42.3075 11.2712 42.3581 11.2188 42.357 11.1553C42.3559 11.0919 42.3035 11.0413 42.24 11.0424C42.1765 11.0435 42.1259 11.0959 42.127 11.1594C42.1281 11.2228 42.1805 11.2734 42.244 11.2723Z" fill="#F7F7F7" stroke="#F7F7F7" stroke-miterlimit="10" stroke-linecap="round" stroke-linejoin="round"/>
        <path d="M6.1034 17.6395C6.16692 17.6383 6.21751 17.586 6.2164 17.5225C6.2153 17.4591 6.1629 17.4085 6.09939 17.4096C6.03587 17.4107 5.98527 17.4631 5.98638 17.5265C5.98749 17.59 6.03988 17.6406 6.1034 17.6395Z" fill="#F7F7F7" stroke="#F7F7F7" stroke-miterlimit="10" stroke-linecap="round" stroke-linejoin="round"/>
        <path d="M42.3612 5.22808C42.4247 5.22697 42.4753 5.17462 42.4742 5.11115C42.4731 5.04768 42.4207 4.99713 42.3572 4.99824C42.2937 4.99935 42.2431 5.0517 42.2442 5.11517C42.2453 5.17863 42.2977 5.22919 42.3612 5.22808Z" fill="#F7F7F7" stroke="#F7F7F7" stroke-miterlimit="10" stroke-linecap="round" stroke-linejoin="round"/>
        <path d="M24.6071 4.83203C22.9592 4.83203 21.2383 11.4705 21.2383 14.399V35.5234C21.2383 35.6067 21.3113 35.6797 21.3947 35.6797H22.7714C22.8549 35.6797 22.9279 35.6067 22.9279 35.5234H26.2967C26.2967 35.6067 26.3697 35.6797 26.4531 35.6797H27.8298C27.9133 35.6797 27.9863 35.6067 27.9863 35.5234V14.399C27.9758 11.4705 26.2445 4.83203 24.6071 4.83203Z" fill="url(#paint8_linear)"/>
        <path d="M27.9445 13.6382C27.7046 10.4596 26.1193 4.83203 24.607 4.83203C23.0947 4.83203 21.5094 10.4596 21.2695 13.6382H27.9445Z" fill="url(#paint9_linear)"/>
        <path opacity="0.16" d="M24.6055 4.83203V35.5234H26.2951C26.2951 35.6067 26.3681 35.6797 26.4515 35.6797H27.8282C27.9117 35.6797 27.9847 35.6067 27.9847 35.5234V14.399C27.9743 11.4705 26.2429 4.83203 24.6055 4.83203Z" fill="#F7F7F7"/>
        <path d="M25.579 36.67H26.4133V30.1461C26.4133 29.1457 25.5373 26.2798 24.609 26.1443C23.6808 26.2798 22.8047 29.1457 22.8047 30.1461V36.67H23.6391" fill="url(#paint10_linear)"/>
        <path opacity="0.16" d="M24.6367 26.1548V36.6701H25.5754H26.4098V30.1462C26.4098 29.1562 25.5545 26.3528 24.6367 26.1548Z" fill="#F7F7F7"/>
        <path d="M26.4591 31.7926H22.84C22.7566 31.7926 22.6836 31.7197 22.6836 31.6363C22.6836 31.5529 22.7566 31.48 22.84 31.48H26.4591C26.5426 31.48 26.6156 31.5529 26.6156 31.6363C26.6156 31.7197 26.5426 31.7926 26.4591 31.7926Z" fill="#72B5E3"/>
        <path d="M26.4591 32.6264H22.84C22.7566 32.6264 22.6836 32.5534 22.6836 32.47C22.6836 32.3867 22.7566 32.3137 22.84 32.3137H26.4591C26.5426 32.3137 26.6156 32.3867 26.6156 32.47C26.6156 32.5534 26.5426 32.6264 26.4591 32.6264Z" fill="#72B5E3"/>
        <path d="M24.3602 35.1067H23.7344V38.2644H24.3602V35.1067Z" fill="#4C3987"/>
        <path d="M24.359 38.3686H23.7332C23.6706 38.3686 23.6289 38.3269 23.6289 38.2644V35.1067C23.6289 35.0441 23.6706 35.0024 23.7332 35.0024H24.359C24.4216 35.0024 24.4633 35.0441 24.4633 35.1067V38.2644C24.4633 38.3165 24.4216 38.3686 24.359 38.3686ZM23.8375 38.1602H24.2547V35.2109H23.8375V38.1602Z" fill="#4C3987"/>
        <path d="M24.8508 38.2593L25.4766 38.2593L25.4766 35.1016L24.8508 35.1016L24.8508 38.2593Z" fill="#4C3987"/>
        <path d="M25.4762 38.3686H24.8504C24.7878 38.3686 24.7461 38.3269 24.7461 38.2644V35.1067C24.7461 35.0441 24.7878 35.0024 24.8504 35.0024H25.4762C25.5388 35.0024 25.5805 35.0441 25.5805 35.1067V38.2644C25.5805 38.3165 25.5388 38.3686 25.4762 38.3686ZM24.9547 38.1602H25.3719V35.2109H24.9547V38.1602Z" fill="#4C3987"/>
        <path d="M24.6063 21.0586C25.5625 21.0586 26.3376 20.284 26.3376 19.3286C26.3376 18.3732 25.5625 17.5986 24.6063 17.5986C23.6501 17.5986 22.875 18.3732 22.875 19.3286C22.875 20.284 23.6501 21.0586 24.6063 21.0586Z" fill="#584599"/>
        <path d="M24.908 17.6299C24.0945 17.7758 23.4688 18.4844 23.4688 19.339C23.4688 20.1936 24.0945 20.9022 24.908 21.0481C25.7216 20.9022 26.3473 20.1936 26.3473 19.339C26.3473 18.474 25.7216 17.7654 24.908 17.6299Z" fill="url(#paint11_linear)"/>
        <path d="M25.741 19.1724C25.6785 19.1724 25.6159 19.1307 25.595 19.0577C25.522 18.8285 25.4177 18.6513 25.2613 18.5262C25.1987 18.4741 25.1883 18.3699 25.2404 18.3074C25.2926 18.2449 25.3969 18.2344 25.4594 18.2865C25.6576 18.4533 25.8036 18.6826 25.8975 18.9639C25.9183 19.0473 25.8766 19.1307 25.7932 19.1619C25.7723 19.1724 25.7515 19.1724 25.741 19.1724Z" fill="white"/>
        <path d="M24.9096 18.2663C24.8992 18.2558 24.8783 18.2558 24.8678 18.2454C24.826 18.2349 24.7841 18.2036 24.7632 18.1618C24.7319 18.0991 24.7423 18.005 24.8051 17.9632C24.9096 17.8796 25.0247 17.9737 25.056 18.005C25.1188 18.0573 25.1292 18.1618 25.077 18.2245C25.0351 18.2767 24.9724 18.2871 24.9096 18.2663Z" fill="white"/>
        <path d="M27.822 13.7948H21.3869C21.3035 13.7948 21.2305 13.7219 21.2305 13.6385C21.2305 13.5551 21.3035 13.4822 21.3869 13.4822H27.822C27.9054 13.4822 27.9785 13.5551 27.9785 13.6385C27.9785 13.7219 27.9054 13.7948 27.822 13.7948Z" fill="#72B5E3"/>
        <path d="M27.822 14.3888H21.3869C21.3035 14.3888 21.2305 14.3159 21.2305 14.2325C21.2305 14.1491 21.3035 14.0762 21.3869 14.0762H27.822C27.9054 14.0762 27.9785 14.1491 27.9785 14.2325C27.9785 14.3159 27.9054 14.3888 27.822 14.3888Z" fill="#72B5E3"/>
        <path d="M27.7869 24.2685H21.3518C21.2683 24.2685 21.1953 24.1955 21.1953 24.1121C21.1953 24.0288 21.2683 23.9558 21.3518 23.9558H27.7869C27.8703 23.9558 27.9433 24.0288 27.9433 24.1121C27.9433 24.1955 27.8807 24.2685 27.7869 24.2685Z" fill="#72B5E3"/>
        <path d="M27.7869 24.8625H21.3518C21.2683 24.8625 21.1953 24.7895 21.1953 24.7061C21.1953 24.6228 21.2683 24.5498 21.3518 24.5498H27.7869C27.8703 24.5498 27.9433 24.6228 27.9433 24.7061C27.9433 24.7895 27.8807 24.8625 27.7869 24.8625Z" fill="#72B5E3"/>
        <path d="M22.1447 19.3286C22.0613 19.3286 21.9883 19.2557 21.9883 19.1723C21.9883 17.7862 23.073 16.6503 24.4497 16.5669V14.3992C24.4497 14.3159 24.5227 14.2429 24.6061 14.2429C24.6896 14.2429 24.7626 14.3159 24.7626 14.3992V16.7128C24.7626 16.7962 24.6896 16.8691 24.6061 16.8691C23.3337 16.8691 22.3012 17.9009 22.3012 19.1723C22.3012 19.2557 22.2282 19.3286 22.1447 19.3286Z" fill="#72B5E3"/>
        <path d="M24.5119 24.2581C24.4285 24.2581 24.3555 24.1851 24.3555 24.1017V21.7882C24.3555 21.7048 24.4285 21.6318 24.5119 21.6318C25.7843 21.6318 26.8169 20.6001 26.8169 19.3287C26.8169 19.2453 26.8899 19.1724 26.9733 19.1724C27.0567 19.1724 27.1298 19.2453 27.1298 19.3287C27.1298 20.7147 26.0451 21.8507 24.6684 21.9341V24.1017C24.6684 24.1955 24.5954 24.2581 24.5119 24.2581Z" fill="#72B5E3"/>
        <path d="M24.6057 13.7427C24.5222 13.7427 24.4492 13.6698 24.4492 13.5864V7.35432C24.4492 7.27095 24.5222 7.198 24.6057 7.198C24.6891 7.198 24.7621 7.27095 24.7621 7.35432V13.5968C24.7621 13.6802 24.6891 13.7427 24.6057 13.7427Z" fill="#72B5E3"/>
        <path d="M23.72 29.4789C23.7095 29.4789 23.6887 29.4789 23.6782 29.4789C23.5635 29.458 23.4905 29.3434 23.5114 29.2287C23.5844 28.864 23.6991 28.4888 23.8451 28.1136C23.8868 28.0094 24.012 27.9573 24.1163 27.999C24.2206 28.0407 24.2727 28.1658 24.231 28.27C24.0954 28.6243 23.9911 28.9682 23.9181 29.3121C23.8973 29.4059 23.8138 29.4789 23.72 29.4789Z" fill="white"/>
        <path d="M24.3157 27.7906C24.2844 27.7906 24.2531 27.7802 24.2218 27.7698C24.1175 27.7176 24.0758 27.5926 24.1279 27.4884C24.1801 27.3946 24.2635 27.207 24.4512 27.2904C24.5451 27.332 24.6077 27.4363 24.566 27.5717C24.5555 27.5926 24.5451 27.6134 24.5242 27.6343C24.5138 27.6447 24.5138 27.6551 24.5034 27.676C24.4617 27.7489 24.3887 27.7906 24.3157 27.7906Z" fill="white"/>
        <path d="M22.5884 10.72C22.578 10.72 22.5676 10.72 22.5571 10.72C22.4424 10.6992 22.3694 10.5949 22.3903 10.4803C22.5154 9.7508 22.724 9.00045 23.0056 8.23968C23.0473 8.13546 23.1621 8.07293 23.2768 8.11462C23.3811 8.15631 23.4437 8.27094 23.4019 8.38558C23.1308 9.12551 22.9326 9.85501 22.8075 10.5533C22.7762 10.647 22.6823 10.72 22.5884 10.72Z" fill="white"/>
        <path d="M23.61 7.67725C23.5787 7.67725 23.5474 7.66683 23.5265 7.6564C23.4222 7.6043 23.3805 7.48966 23.4222 7.38545C23.5265 7.16659 23.5995 6.99985 23.7873 7.0728C23.7977 7.0728 23.975 7.14575 23.902 7.3646C23.8916 7.39587 23.8707 7.42713 23.8499 7.44797C23.8394 7.46882 23.8186 7.5105 23.7977 7.56261C23.7664 7.63556 23.683 7.67725 23.61 7.67725Z" fill="white"/>
        <path d="M19.4313 31.0525C19.2853 31.0525 19.1602 31.1775 19.1602 31.3234V36.5342H19.7129V31.3234C19.7025 31.1775 19.5773 31.0525 19.4313 31.0525Z" fill="#4C3987"/>
        <path d="M19.7039 36.6486H19.1512C19.0886 36.6486 19.0469 36.607 19.0469 36.5444V31.3337C19.0469 31.1252 19.2137 30.9585 19.4223 30.9585C19.6309 30.9585 19.7978 31.1252 19.7978 31.3337V36.5444C19.8082 36.5965 19.7561 36.6486 19.7039 36.6486ZM19.2555 36.4402H19.5996V31.3337C19.5996 31.2399 19.5266 31.1669 19.4328 31.1669C19.3389 31.1669 19.2659 31.2399 19.2659 31.3337V36.4402H19.2555Z" fill="#4C3987"/>
        <path d="M21.5295 31.3035L17.7227 33.9297V36.6705L21.5295 33.7942" fill="url(#paint12_linear)"/>
        <path d="M17.4192 37.9941H16.4492V38.7549H17.4192V37.9941Z" fill="#4C3987"/>
        <path d="M17.418 38.8584H16.448C16.3855 38.8584 16.3438 38.8167 16.3438 38.7541V37.9934C16.3438 37.9308 16.3855 37.8892 16.448 37.8892H17.418C17.4806 37.8892 17.5223 37.9308 17.5223 37.9934V38.7541C17.5223 38.8167 17.4806 38.8584 17.418 38.8584ZM16.5523 38.6499H17.3137V38.0976H16.5523V38.6499Z" fill="#4C3987"/>
        <path d="M16.9735 30.2397C17.5262 30.2397 17.8391 33.6893 17.8287 34.1061V37.5556C17.8287 37.6599 17.8287 37.9933 17.4428 37.9933C17.2238 37.9933 16.9422 37.9933 16.9422 37.9933C16.9422 37.9933 16.6606 37.9933 16.4416 37.9933C16.0557 37.9933 16.0557 37.6703 16.0557 37.5556V34.1061C16.0348 33.6788 16.3477 30.2397 16.9109 30.2397" fill="url(#paint13_linear)"/>
        <path d="M17.8162 34.2624H16.0432C15.9597 34.2624 15.8867 34.1894 15.8867 34.106C15.8867 34.0227 15.9597 33.9497 16.0432 33.9497H17.8162C17.8996 33.9497 17.9726 34.0227 17.9726 34.106C17.9726 34.1894 17.9101 34.2624 17.8162 34.2624Z" fill="#72B5E3"/>
        <path d="M17.8162 34.8461H16.0432C15.9597 34.8461 15.8867 34.7731 15.8867 34.6898C15.8867 34.6064 15.9597 34.5334 16.0432 34.5334H17.8162C17.8996 34.5334 17.9726 34.6064 17.9726 34.6898C17.9726 34.7731 17.9101 34.8461 17.8162 34.8461Z" fill="#72B5E3"/>
        <path d="M16.6884 32.2824C16.6779 32.2824 16.6675 32.2824 16.6571 32.2824C16.5423 32.2615 16.4589 32.1573 16.4798 32.0427C16.5111 31.7926 16.5632 31.5633 16.6154 31.3548C16.6466 31.2402 16.7614 31.1777 16.8761 31.2089C16.9908 31.2402 17.0534 31.3548 17.0221 31.4695C16.97 31.6571 16.9282 31.8655 16.897 32.1052C16.8761 32.199 16.7927 32.2824 16.6884 32.2824Z" fill="white"/>
        <path d="M29.9144 31.0527C30.0604 31.0527 30.1856 31.1778 30.1856 31.3237V36.5344H29.6328V31.3237C29.6432 31.1778 29.7684 31.0527 29.9144 31.0527Z" fill="#4C3987"/>
        <path d="M30.1922 36.6489H29.6395C29.5769 36.6489 29.5352 36.6072 29.5352 36.5447V31.3339C29.5352 31.1255 29.702 30.9587 29.9106 30.9587C30.1192 30.9587 30.2861 31.1255 30.2861 31.3339V36.5447C30.2965 36.5968 30.2444 36.6489 30.1922 36.6489ZM29.7437 36.4405H30.0879V31.3339C30.0879 31.2401 30.0149 31.1672 29.9211 31.1672C29.8272 31.1672 29.7542 31.2401 29.7542 31.3339V36.4405H29.7437Z" fill="#4C3987"/>
        <path d="M27.9492 31.3035L31.756 34.5133V36.6705L27.9492 33.7942" fill="url(#paint14_linear)"/>
        <path d="M32.3438 30.2397C31.791 30.2397 31.4781 33.6893 31.4885 34.1061V37.5556C31.4885 37.6599 31.4885 37.9933 31.8744 37.9933C32.0935 37.9933 32.3751 37.9933 32.3751 37.9933C32.3751 37.9933 32.6567 37.9933 32.8757 37.9933C33.2616 37.9933 33.2616 37.6703 33.2616 37.5556V34.1061C33.2824 33.6788 32.9695 30.2397 32.4063 30.2397" fill="url(#paint15_linear)"/>
        <path d="M33.2615 34.2624H31.4885C31.405 34.2624 31.332 34.1894 31.332 34.106C31.332 34.0227 31.405 33.9497 31.4885 33.9497H33.2615C33.345 33.9497 33.418 34.0227 33.418 34.106C33.418 34.1894 33.345 34.2624 33.2615 34.2624Z" fill="#72B5E3"/>
        <path d="M33.2615 34.8461H31.4885C31.405 34.8461 31.332 34.7731 31.332 34.6898C31.332 34.6064 31.405 34.5334 31.4885 34.5334H33.2615C33.345 34.5334 33.418 34.6064 33.418 34.6898C33.418 34.7731 33.345 34.8461 33.2615 34.8461Z" fill="#72B5E3"/>
        <path d="M32.1024 32.3136C32.092 32.3136 32.0816 32.3136 32.0711 32.3136C31.9564 32.2928 31.873 32.1886 31.8938 32.0739C31.9251 31.8238 31.9773 31.5945 32.0294 31.3861C32.0607 31.2715 32.1754 31.2089 32.2902 31.2402C32.4049 31.2715 32.4675 31.3861 32.4362 31.5007C32.384 31.6883 32.3423 31.9072 32.311 32.1364C32.2902 32.2407 32.1963 32.3136 32.1024 32.3136Z" fill="white"/>
        <path d="M9.26468 30.8018L9.43493 31.1273C9.50303 31.2301 9.58816 31.333 9.69031 31.3844L10.0138 31.5557C10.0308 31.5557 10.0308 31.5729 10.0138 31.59L9.69031 31.7613C9.58816 31.8299 9.48601 31.9156 9.43493 32.0184L9.26468 32.3439C9.26468 32.3611 9.24765 32.3611 9.23063 32.3439L9.06038 32.0184C8.99227 31.9156 8.90715 31.8127 8.805 31.7613L8.48152 31.59C8.46449 31.59 8.46449 31.5729 8.48152 31.5557L8.805 31.3844C8.90715 31.3158 9.0093 31.2301 9.06038 31.1273L9.23063 30.8018C9.24765 30.8018 9.26468 30.8018 9.26468 30.8018Z" fill="#EFEFEF"/>
        <path d="M27.4639 23.8617L27.6341 24.1873C27.7023 24.2901 27.7874 24.3929 27.8895 24.4443L28.213 24.6157C28.23 24.6157 28.23 24.6328 28.213 24.65L27.8895 24.8213C27.7874 24.8898 27.6852 24.9755 27.6341 25.0783L27.4639 25.4039C27.4639 25.421 27.4469 25.421 27.4298 25.4039L27.2596 25.0783C27.1915 24.9755 27.1064 24.8727 27.0042 24.8213L26.6807 24.65C26.6637 24.65 26.6637 24.6328 26.6807 24.6157L27.0042 24.4443C27.1064 24.3758 27.2085 24.2901 27.2596 24.1873L27.4298 23.8617C27.4298 23.8446 27.4469 23.8446 27.4639 23.8617Z" fill="#EFEFEF"/>
        <path d="M38.6854 30.3048L38.7535 30.4248C38.7705 30.4591 38.8045 30.4933 38.8556 30.5276L38.9748 30.5961V30.6133L38.8556 30.6818C38.8216 30.699 38.7875 30.7332 38.7535 30.7846L38.6854 30.9046H38.6683L38.6002 30.7846C38.5832 30.7504 38.5492 30.7161 38.4981 30.6818L38.3789 30.6133V30.5961L38.4981 30.5276C38.5321 30.5105 38.5662 30.4762 38.6002 30.4248L38.6854 30.3048C38.6683 30.2877 38.6854 30.2877 38.6854 30.3048Z" fill="#EFEFEF"/>
        <path d="M39.5018 9.84521L39.5699 9.96516C39.5869 9.99943 39.6209 10.0337 39.672 10.068L39.7912 10.1365V10.1537L39.672 10.2222C39.638 10.2393 39.6039 10.2736 39.5699 10.325L39.5018 10.4278H39.4847L39.4166 10.3079C39.3996 10.2736 39.3656 10.2393 39.3145 10.2051L39.1953 10.1365V10.1194L39.3145 10.0508C39.3485 10.0337 39.3826 9.99943 39.4166 9.94803L39.5018 9.84521C39.4847 9.84521 39.5018 9.84521 39.5018 9.84521Z" fill="#EFEFEF"/>
        <path d="M15.9722 27.3403L16.0573 27.4946C16.0914 27.546 16.1254 27.5974 16.1765 27.6145L16.3297 27.7002V27.7173L16.1765 27.803C16.1254 27.8373 16.0744 27.8715 16.0573 27.9229L15.9722 28.0772H15.9552L15.8701 27.9229C15.836 27.8715 15.802 27.8201 15.7509 27.803L15.5977 27.7173V27.7002L15.7509 27.6145C15.802 27.5802 15.853 27.546 15.8701 27.4946L15.9722 27.3403C15.9552 27.3403 15.9722 27.3403 15.9722 27.3403Z" fill="#EFEFEF"/>
        <path d="M22.8667 28.1973L22.9519 28.3515C22.9859 28.4029 23.02 28.4543 23.071 28.4714L23.2243 28.5571V28.5742L23.071 28.6599C23.02 28.6942 22.9689 28.7285 22.9519 28.7799L22.8667 28.9341H22.8497L22.7646 28.7799C22.7305 28.7285 22.6965 28.6771 22.6454 28.6599L22.4922 28.5742V28.5571L22.6454 28.4714C22.6965 28.4372 22.7476 28.4029 22.7646 28.3515L22.8667 28.1973C22.8497 28.1973 22.8497 28.1973 22.8667 28.1973Z" fill="#EFEFEF"/>
        <path d="M22.1893 9.89653L22.3085 10.1193C22.3426 10.1878 22.4107 10.2564 22.4958 10.3078L22.7171 10.4277V10.4449L22.4958 10.5648C22.4277 10.5991 22.3596 10.6676 22.3085 10.7533L22.1893 10.9761H22.1723L22.0531 10.7362C22.0191 10.6676 21.951 10.5991 21.8659 10.5477L21.6445 10.4277V10.4106L21.8659 10.2906C21.934 10.2564 22.0021 10.1878 22.0531 10.1022L22.1723 9.87939C22.1723 9.87939 22.1893 9.87939 22.1893 9.89653Z" fill="#EFEFEF"/>
        <path d="M28.0457 36.9542C28.14 36.9542 28.2164 36.8773 28.2164 36.7824C28.2164 36.6875 28.14 36.6106 28.0457 36.6106C27.9514 36.6106 27.875 36.6875 27.875 36.7824C27.875 36.8773 27.9514 36.9542 28.0457 36.9542Z" fill="#EFEFEF"/>
        <path d="M16.3309 10.3087C16.4251 10.3087 16.5016 10.2318 16.5016 10.1369C16.5016 10.042 16.4251 9.96509 16.3309 9.96509C16.2366 9.96509 16.1602 10.042 16.1602 10.1369C16.1602 10.2318 16.2366 10.3087 16.3309 10.3087Z" fill="#EFEFEF"/>
        <path d="M9.07696 17.9681C9.17124 17.9681 9.24767 17.8912 9.24767 17.7963C9.24767 17.7014 9.17124 17.6245 9.07696 17.6245C8.98268 17.6245 8.90625 17.7014 8.90625 17.7963C8.90625 17.8912 8.98268 17.9681 9.07696 17.9681Z" fill="#EFEFEF"/>
        <path d="M32.5926 26.673C32.6869 26.673 32.7633 26.596 32.7633 26.5012C32.7633 26.4063 32.6869 26.3293 32.5926 26.3293C32.4983 26.3293 32.4219 26.4063 32.4219 26.5012C32.4219 26.596 32.4983 26.673 32.5926 26.673Z" fill="#EFEFEF"/>
        <path d="M24.5223 19.4589C24.6166 19.4589 24.693 19.3819 24.693 19.287C24.693 19.1922 24.6166 19.1152 24.5223 19.1152C24.428 19.1152 24.3516 19.1922 24.3516 19.287C24.3516 19.3819 24.428 19.4589 24.5223 19.4589Z" fill="#EFEFEF"/>
        <path d="M8.89438 41.5291C8.9698 41.5291 9.03095 41.4675 9.03095 41.3916C9.03095 41.3157 8.9698 41.2542 8.89438 41.2542C8.81896 41.2542 8.75781 41.3157 8.75781 41.3916C8.75781 41.4675 8.81896 41.5291 8.89438 41.5291Z" fill="#EFEFEF"/>
        <path d="M39.3319 17.2312C39.4073 17.2312 39.4684 17.1697 39.4684 17.0937C39.4684 17.0178 39.4073 16.9563 39.3319 16.9563C39.2565 16.9563 39.1953 17.0178 39.1953 17.0937C39.1953 17.1697 39.2565 17.2312 39.3319 17.2312Z" fill="#EFEFEF"/>
        <path d="M8.50559 41.7278C8.55273 41.6686 8.54322 41.5821 8.48434 41.5346C8.42547 41.4872 8.33953 41.4968 8.29239 41.556C8.24525 41.6153 8.25476 41.7018 8.31363 41.7492C8.37251 41.7967 8.45845 41.7871 8.50559 41.7278Z" fill="#EFEFEF"/>
        <path d="M32.4012 40.587C32.4955 40.587 32.5719 40.5101 32.5719 40.4152C32.5719 40.3203 32.4955 40.2434 32.4012 40.2434C32.3069 40.2434 32.2305 40.3203 32.2305 40.4152C32.2305 40.5101 32.3069 40.587 32.4012 40.587Z" fill="#EFEFEF"/>
        <path d="M28.2165 35.651C28.2541 35.651 28.2846 35.6203 28.2846 35.5825C28.2846 35.5446 28.2541 35.5139 28.2165 35.5139C28.1789 35.5139 28.1484 35.5446 28.1484 35.5825C28.1484 35.6203 28.1789 35.651 28.2165 35.651Z" fill="#EFEFEF"/>
        <path d="M31.822 39.9862C31.8596 39.9862 31.8901 39.9555 31.8901 39.9177C31.8901 39.8798 31.8596 39.8491 31.822 39.8491C31.7844 39.8491 31.7539 39.8798 31.7539 39.9177C31.7539 39.9555 31.7844 39.9862 31.822 39.9862Z" fill="#EFEFEF"/>
        <path d="M32.9001 39.4894C32.9377 39.4894 32.9682 39.4587 32.9682 39.4208C32.9682 39.383 32.9377 39.3523 32.9001 39.3523C32.8625 39.3523 32.832 39.383 32.832 39.4208C32.832 39.4587 32.8625 39.4894 32.9001 39.4894Z" fill="#EFEFEF"/>
        <path d="M38.9743 35.651C39.012 35.651 39.0425 35.6203 39.0425 35.5825C39.0425 35.5446 39.012 35.5139 38.9743 35.5139C38.9367 35.5139 38.9062 35.5446 38.9062 35.5825C38.9062 35.6203 38.9367 35.651 38.9743 35.651Z" fill="#EFEFEF"/>
        <path d="M40.9314 11.0448C40.969 11.0448 40.9995 11.0141 40.9995 10.9763C40.9995 10.9384 40.969 10.9077 40.9314 10.9077C40.8938 10.9077 40.8633 10.9384 40.8633 10.9763C40.8633 11.0141 40.8938 11.0448 40.9314 11.0448Z" fill="#EFEFEF"/>
        <path d="M7.90404 41.3226C7.94165 41.3226 7.97214 41.2919 7.97214 41.2541C7.97214 41.2162 7.94165 41.1855 7.90404 41.1855C7.86643 41.1855 7.83594 41.2162 7.83594 41.2541C7.83594 41.2919 7.86643 41.3226 7.90404 41.3226Z" fill="#EFEFEF"/>
        <path d="M32.1327 11.2341C32.2081 11.2341 32.2692 11.1726 32.2692 11.0967C32.2692 11.0208 32.2081 10.9592 32.1327 10.9592C32.0572 10.9592 31.9961 11.0208 31.9961 11.0967C31.9961 11.1726 32.0572 11.2341 32.1327 11.2341Z" fill="#EFEFEF"/>
        <path d="M31.74 11.4442C31.7871 11.3849 31.7776 11.2984 31.7187 11.251C31.6598 11.2035 31.5739 11.2131 31.5268 11.2723C31.4796 11.3316 31.4891 11.4181 31.548 11.4655C31.6069 11.513 31.6928 11.5034 31.74 11.4442Z" fill="#EFEFEF"/>
        <path d="M13.2556 24.6998C13.3027 24.6405 13.2932 24.554 13.2343 24.5066C13.1755 24.4591 13.0895 24.4687 13.0424 24.528C12.9952 24.5872 13.0048 24.6737 13.0636 24.7212C13.1225 24.7686 13.2085 24.759 13.2556 24.6998Z" fill="#EFEFEF"/>
        <path d="M10.7205 9.92657C10.7676 9.8673 10.7581 9.7808 10.6992 9.73335C10.6403 9.68591 10.5544 9.69549 10.5072 9.75475C10.4601 9.81402 10.4696 9.90052 10.5285 9.94797C10.5874 9.99541 10.6733 9.98583 10.7205 9.92657Z" fill="#EFEFEF"/>
        <path d="M27.443 30.5093C27.5252 30.4059 27.5086 30.2549 27.4059 30.1721C27.3031 30.0893 27.1531 30.106 27.0708 30.2095C26.9886 30.3129 27.0052 30.4639 27.1079 30.5467C27.2107 30.6295 27.3607 30.6128 27.443 30.5093Z" fill="#EFEFEF"/>
        <path d="M31.1579 11.0448C31.1956 11.0448 31.226 11.0141 31.226 10.9763C31.226 10.9384 31.1956 10.9077 31.1579 10.9077C31.1203 10.9077 31.0898 10.9384 31.0898 10.9763C31.0898 11.0141 31.1203 11.0448 31.1579 11.0448Z" fill="#EFEFEF"/>
        <path d="M32.8298 15.9799C32.8674 15.9799 32.8979 15.9492 32.8979 15.9113C32.8979 15.8735 32.8674 15.8428 32.8298 15.8428C32.7922 15.8428 32.7617 15.8735 32.7617 15.9113C32.7617 15.9492 32.7922 15.9799 32.8298 15.9799Z" fill="#EFEFEF"/>
        <path d="M27.8923 15.2772C27.9299 15.2772 27.9604 15.2465 27.9604 15.2087C27.9604 15.1708 27.9299 15.1401 27.8923 15.1401C27.8547 15.1401 27.8242 15.1708 27.8242 15.2087C27.8242 15.2465 27.8547 15.2772 27.8923 15.2772Z" fill="#EFEFEF"/>
        <path d="M13.4197 23.9476C13.4573 23.9476 13.4878 23.9169 13.4878 23.8791C13.4878 23.8412 13.4573 23.8105 13.4197 23.8105C13.3821 23.8105 13.3516 23.8412 13.3516 23.8791C13.3516 23.9169 13.3821 23.9476 13.4197 23.9476Z" fill="#EFEFEF"/>
        <path d="M10.6814 10.9589C10.719 10.9589 10.7495 10.9282 10.7495 10.8903C10.7495 10.8525 10.719 10.8218 10.6814 10.8218C10.6438 10.8218 10.6133 10.8525 10.6133 10.8903C10.6133 10.9282 10.6438 10.9589 10.6814 10.9589Z" fill="#EFEFEF"/>
        <path d="M7.97044 10.3766C8.00806 10.3766 8.03855 10.3459 8.03855 10.308C8.03855 10.2702 8.00806 10.2395 7.97044 10.2395C7.93283 10.2395 7.90234 10.2702 7.90234 10.308C7.90234 10.3459 7.93283 10.3766 7.97044 10.3766Z" fill="#EFEFEF"/>
        <path d="M27.2616 31.8477C27.337 31.8477 27.3981 31.7861 27.3981 31.7102C27.3981 31.6343 27.337 31.5728 27.2616 31.5728C27.1861 31.5728 27.125 31.6343 27.125 31.7102C27.125 31.7861 27.1861 31.8477 27.2616 31.8477Z" fill="#EFEFEF"/>
        <path d="M10.0798 17.1962C10.1174 17.1962 10.1479 17.1655 10.1479 17.1276C10.1479 17.0898 10.1174 17.0591 10.0798 17.0591C10.0422 17.0591 10.0117 17.0898 10.0117 17.1276C10.0117 17.1655 10.0422 17.1962 10.0798 17.1962Z" fill="#EFEFEF"/>
        <path d="M39.5369 17.6075C39.5745 17.6075 39.605 17.5769 39.605 17.539C39.605 17.5011 39.5745 17.4705 39.5369 17.4705C39.4992 17.4705 39.4688 17.5011 39.4688 17.539C39.4688 17.5769 39.4992 17.6075 39.5369 17.6075Z" fill="#EFEFEF"/>
    </g>
    <defs>
        <linearGradient id="paint0_linear" x1="11.9093" y1="28.9441" x2="25.9291" y2="1.809" gradientUnits="userSpaceOnUse">
            <stop stop-color="#481F85"/>
            <stop offset="1" stop-color="#5F2497"/>
        </linearGradient>
        <linearGradient id="paint1_linear" x1="24.376" y1="-2.71083" x2="24.35" y2="49.4219" gradientUnits="userSpaceOnUse">
            <stop stop-color="#FFA800"/>
            <stop offset="0.610416" stop-color="#FF00C7"/>
            <stop offset="0.844791" stop-color="#38437C"/>
            <stop offset="1" stop-color="#04000D"/>
        </linearGradient>
        <linearGradient id="paint2_linear" x1="24.91" y1="24.3878" x2="24.91" y2="47.5216" gradientUnits="userSpaceOnUse">
            <stop stop-color="#FFC7CE"/>
            <stop offset="1" stop-color="#EA2C75"/>
        </linearGradient>
        <linearGradient id="paint3_linear" x1="37.3214" y1="19.3632" x2="37.3214" y2="16.0349" gradientUnits="userSpaceOnUse">
            <stop stop-color="#6C5AA6"/>
            <stop offset="1" stop-color="#5AA6DA"/>
        </linearGradient>
        <linearGradient id="paint4_linear" x1="7.10987" y1="40.071" x2="7.10987" y2="36.7572" gradientUnits="userSpaceOnUse">
            <stop stop-color="#33205B"/>
            <stop offset="1" stop-color="#7E69C2"/>
        </linearGradient>
        <linearGradient id="paint5_linear" x1="34.346" y1="0.472273" x2="34.346" y2="9.14152" gradientUnits="userSpaceOnUse">
            <stop stop-color="#FFC7CE"/>
            <stop offset="0.1181" stop-color="#FFC0CD"/>
            <stop offset="0.2903" stop-color="#FEADCA"/>
            <stop offset="0.4956" stop-color="#FC8DC5"/>
            <stop offset="0.7263" stop-color="#FA60BE"/>
            <stop offset="0.9756" stop-color="#F728B5"/>
            <stop offset="1" stop-color="#F722B4"/>
        </linearGradient>
        <linearGradient id="paint6_linear" x1="24.371" y1="49.3142" x2="24.371" y2="37.066" gradientUnits="userSpaceOnUse">
            <stop stop-color="#33205B"/>
            <stop offset="1" stop-color="#7E69C2"/>
        </linearGradient>
        <linearGradient id="paint7_linear" x1="8.22269" y1="4.66081" x2="8.22269" y2="8.86983" gradientUnits="userSpaceOnUse">
            <stop stop-color="#FFA1C4"/>
            <stop offset="1" stop-color="#EA208C"/>
        </linearGradient>
        <linearGradient id="paint8_linear" x1="24.6048" y1="35.6797" x2="24.6048" y2="4.83203" gradientUnits="userSpaceOnUse">
            <stop stop-color="#4F33A6"/>
            <stop offset="0.1544" stop-color="#5039A9"/>
            <stop offset="0.3609" stop-color="#514AB0"/>
            <stop offset="0.597" stop-color="#5466BD"/>
            <stop offset="0.8531" stop-color="#588CCE"/>
            <stop offset="1" stop-color="#5AA6DA"/>
        </linearGradient>
        <linearGradient id="paint9_linear" x1="24.6048" y1="13.6382" x2="24.6048" y2="4.83203" gradientUnits="userSpaceOnUse">
            <stop stop-color="#618AC7"/>
            <stop offset="0.5715" stop-color="#8DB6E0"/>
            <stop offset="1" stop-color="#B0D9F5"/>
        </linearGradient>
        <linearGradient id="paint10_linear" x1="24.6068" y1="36.67" x2="24.6068" y2="26.1443" gradientUnits="userSpaceOnUse">
            <stop stop-color="#6C5AA6"/>
            <stop offset="1" stop-color="#5AA6DA"/>
        </linearGradient>
        <linearGradient id="paint11_linear" x1="24.9063" y1="17.6261" x2="24.9063" y2="21.0385" gradientUnits="userSpaceOnUse">
            <stop stop-color="#FF9CC0"/>
            <stop offset="1" stop-color="#EA528C"/>
        </linearGradient>
        <linearGradient id="paint12_linear" x1="18.9368" y1="32.7979" x2="20.3093" y2="35.177" gradientUnits="userSpaceOnUse">
            <stop stop-color="#6C5AA6"/>
            <stop offset="1" stop-color="#33205B"/>
        </linearGradient>
        <linearGradient id="paint13_linear" x1="16.9356" y1="37.9899" x2="16.9356" y2="30.241" gradientUnits="userSpaceOnUse">
            <stop stop-color="#6C5AA6"/>
            <stop offset="1" stop-color="#5AA6DA"/>
        </linearGradient>
        <linearGradient id="paint14_linear" x1="28.1466" y1="31.1923" x2="31.4203" y2="36.867" gradientUnits="userSpaceOnUse">
            <stop stop-color="#6C5AA6"/>
            <stop offset="1" stop-color="#33205B"/>
        </linearGradient>
        <linearGradient id="paint15_linear" x1="32.3772" y1="37.9899" x2="32.3772" y2="30.241" gradientUnits="userSpaceOnUse">
            <stop stop-color="#6C5AA6"/>
            <stop offset="1" stop-color="#5AA6DA"/>
        </linearGradient>
    </defs>
</svg>
