<svg width="49" height="50" viewBox="0 0 49 50" fill="none" xmlns="http://www.w3.org/2000/svg">
    <path d="M24.3372 0.946289L45.3564 13.0817V37.3525L24.3372 49.4879L3.31808 37.3525V13.0817L24.3372 0.946289Z" fill="url(#paint0_linear)"/>
    <g clip-path="url(#clip0)">
        <path d="M29.6789 10.5216C29.5996 10.6998 29.6393 10.9177 29.7383 11.0761C29.7978 11.1554 29.877 11.2346 29.9563 11.294C30.0554 11.3534 30.1544 11.4128 30.2733 11.4128C30.4913 11.4326 30.7092 11.2742 30.8876 11.1356C30.947 11.0761 31.0263 11.0365 31.0461 10.9573C31.0659 10.8979 31.0659 10.8385 31.0659 10.7593C31.0461 10.5612 30.9272 10.3632 30.7489 10.2641C30.3922 10.0463 29.8374 10.1255 29.6789 10.5216Z" fill="url(#paint1_radial)"/>
        <path d="M14.342 37.8925C14.4212 38.1103 14.6194 38.2688 14.8373 38.3282C14.9562 38.348 15.0751 38.348 15.194 38.3282C15.3327 38.3084 15.4714 38.2688 15.5705 38.1697C15.7884 37.9915 15.8479 37.6944 15.8875 37.4369C15.9073 37.3379 15.9073 37.2389 15.8875 37.1399C15.8677 37.0606 15.8082 37.0012 15.7488 36.9616C15.5507 36.8032 15.2931 36.7438 15.0553 36.7834C14.5797 36.8824 14.1438 37.3973 14.342 37.8925Z" fill="url(#paint2_radial)"/>
        <path d="M29.9772 12.9181C29.898 13.1162 29.9178 13.334 30.0367 13.5123C30.0961 13.6113 30.1754 13.6707 30.2745 13.7302C30.3735 13.7896 30.4924 13.849 30.6113 13.8688C30.8491 13.8886 31.067 13.7302 31.2652 13.5717C31.3246 13.5123 31.4039 13.4529 31.4435 13.3737C31.4633 13.3142 31.4633 13.235 31.4633 13.1756C31.4435 12.9577 31.3048 12.7597 31.1265 12.6409C30.7302 12.4032 30.1556 12.5022 29.9772 12.9181Z" fill="url(#paint3_radial)"/>
        <path d="M28.0944 38.0707C28.0152 38.2688 28.035 38.4866 28.1539 38.6649C28.2133 38.7639 28.2926 38.8233 28.3916 38.8827C28.4907 38.9422 28.6096 39.0016 28.7285 39.0214C28.9663 39.0412 29.1842 38.8827 29.3824 38.7243C29.4418 38.6649 29.5211 38.6055 29.5607 38.5262C29.5805 38.4668 29.5805 38.3876 29.5805 38.3282C29.5607 38.1103 29.422 37.9123 29.2437 37.7935C28.8474 37.5558 28.2728 37.6548 28.0944 38.0707Z" fill="url(#paint4_radial)"/>
        <path d="M33.8003 16.6612C33.721 16.681 33.6418 16.7206 33.6021 16.7998C33.5823 16.8394 33.5823 16.879 33.5625 16.9186C33.5625 16.9781 33.5625 17.0177 33.5823 17.0573C33.6219 17.1563 33.721 17.1959 33.8201 17.2355C33.8597 17.2553 33.8795 17.2553 33.9192 17.2553C33.939 17.2553 33.9786 17.2355 33.9984 17.2157C34.0777 17.1563 34.1173 17.0771 34.1173 16.9781C34.1569 16.8196 33.9984 16.6414 33.8003 16.6612Z" fill="url(#paint5_radial)"/>
        <path d="M38.3589 27.0193C38.2796 27.0391 38.2004 27.0787 38.1607 27.1579C38.1409 27.1975 38.1409 27.2371 38.1211 27.2768C38.1211 27.3362 38.1211 27.3758 38.1409 27.4154C38.1805 27.5144 38.2796 27.554 38.3787 27.5936C38.4183 27.6134 38.4381 27.6134 38.4778 27.6134C38.4976 27.6134 38.5372 27.5936 38.557 27.5738C38.6363 27.5144 38.6759 27.4352 38.6759 27.3362C38.7155 27.1777 38.557 26.9797 38.3589 27.0193Z" fill="url(#paint6_radial)"/>
        <path d="M37.7417 24.5636C37.6624 24.5834 37.5832 24.623 37.5435 24.7023C37.5237 24.7419 37.5237 24.7815 37.5039 24.8211C37.5039 24.8805 37.5039 24.9201 37.5237 24.9597C37.5634 25.0588 37.6624 25.0984 37.7615 25.138C37.8011 25.1578 37.8209 25.1578 37.8606 25.1578C37.8804 25.1578 37.92 25.138 37.9398 25.1182C38.0191 25.0588 38.0587 24.9795 38.0587 24.8805C38.0983 24.7419 37.9398 24.5438 37.7417 24.5636Z" fill="url(#paint7_radial)"/>
        <path d="M35.6011 15.8691C35.5218 15.8889 35.4425 15.9286 35.4029 16.0078C35.3831 16.0474 35.3831 16.087 35.3633 16.1266C35.3633 16.186 35.3633 16.2256 35.3831 16.2652C35.4227 16.3643 35.5218 16.4039 35.6209 16.4435C35.6605 16.4633 35.6803 16.4633 35.7199 16.4633C35.7398 16.4633 35.7794 16.4435 35.7992 16.4237C35.8785 16.3643 35.9181 16.285 35.9181 16.186C35.9379 16.0276 35.7992 15.8295 35.6011 15.8691Z" fill="url(#paint8_radial)"/>
        <path d="M36.1987 30.3665C36.1195 30.3863 36.0402 30.4259 36.0006 30.5051C35.9808 30.5447 35.9808 30.5843 35.9609 30.6239C35.9609 30.6833 35.9609 30.7229 35.9808 30.7626C36.0204 30.8616 36.1195 30.9012 36.2185 30.9408C36.2582 30.9606 36.278 30.9606 36.3176 30.9606C36.3374 30.9606 36.377 30.9408 36.3969 30.921C36.4761 30.8616 36.5157 30.7824 36.5157 30.6833C36.5554 30.5249 36.3969 30.3268 36.1987 30.3665Z" fill="url(#paint9_radial)"/>
        <path d="M37.1289 16.6415C37.1091 16.7207 37.1289 16.8197 37.1685 16.8791C37.1883 16.9187 37.2279 16.9385 37.2676 16.9584C37.3072 16.9782 37.3666 16.998 37.4063 16.998C37.5053 16.998 37.5846 16.9187 37.6639 16.8593C37.6837 16.8395 37.7233 16.7999 37.7233 16.7801C37.7233 16.7603 37.7233 16.7207 37.7233 16.7009C37.7035 16.6217 37.644 16.5424 37.5648 16.483C37.4261 16.4236 37.1883 16.4632 37.1289 16.6415Z" fill="url(#paint10_radial)"/>
        <path d="M8.41582 23.2761C8.27712 23.2959 8.13842 23.395 8.07897 23.5336C8.03935 23.6128 8.01953 23.6722 8.01953 23.7515C8.01953 23.8307 8.01953 23.9297 8.05916 24.0089C8.13842 24.1674 8.31675 24.2466 8.47526 24.306C8.53471 24.3258 8.59415 24.3456 8.65359 24.3456C8.71304 24.3456 8.75267 24.306 8.79229 24.2862C8.91118 24.1872 8.99044 24.0287 9.01025 23.8703C9.01025 23.5732 8.73285 23.2365 8.41582 23.2761Z" fill="url(#paint11_radial)"/>
        <path d="M10.8729 32.8025C10.7342 32.8223 10.5954 32.9214 10.536 33.06C10.4964 33.1392 10.4766 33.1986 10.4766 33.2779C10.4766 33.3571 10.4766 33.4561 10.5162 33.5353C10.5954 33.6938 10.7738 33.773 10.9323 33.8324C10.9917 33.8522 11.0512 33.872 11.1106 33.872C11.1701 33.872 11.2097 33.8324 11.2493 33.8126C11.3682 33.7136 11.4475 33.5551 11.4673 33.3967C11.4871 33.0798 11.2097 32.7431 10.8729 32.8025Z" fill="url(#paint12_radial)"/>
        <path d="M10.7947 22.1077C10.656 22.1275 10.5173 22.2265 10.4579 22.3652C10.4183 22.4444 10.3984 22.5038 10.3984 22.583C10.3984 22.6622 10.3984 22.7613 10.4381 22.8405C10.5173 22.9989 10.6957 23.0782 10.8542 23.1376C10.9136 23.1574 10.9731 23.1772 11.0325 23.1772C11.0919 23.1772 11.1316 23.1376 11.1712 23.1178C11.2901 23.0187 11.3693 22.8603 11.3892 22.7019C11.409 22.385 11.1316 22.0483 10.7947 22.1077Z" fill="url(#paint13_radial)"/>
        <path d="M35.2068 33.8521C35.1077 33.8719 35.0285 33.9313 34.9888 34.0105C34.969 34.0501 34.9492 34.1096 34.9492 34.1492C34.9492 34.2086 34.9492 34.268 34.969 34.3274C35.0285 34.4264 35.1275 34.4859 35.2464 34.5255C35.2861 34.5453 35.3257 34.5651 35.3653 34.5453C35.405 34.5453 35.4248 34.5255 35.4446 34.5057C35.5238 34.4462 35.5833 34.3472 35.5833 34.2482C35.6031 34.0501 35.4248 33.8323 35.2068 33.8521Z" fill="url(#paint14_radial)"/>
        <path d="M36.158 17.9287C36.0193 17.9485 35.8806 18.0476 35.8212 18.1862C35.7815 18.2654 35.7617 18.3248 35.7617 18.4041C35.7617 18.4833 35.7617 18.5823 35.8013 18.6615C35.8806 18.82 36.0589 18.8992 36.2174 18.9586C36.2769 18.9784 36.3363 18.9982 36.3958 18.9982C36.4552 18.9982 36.4949 18.9586 36.5345 18.9388C36.6534 18.8398 36.7326 18.6813 36.7524 18.5229C36.7524 18.2258 36.475 17.8891 36.158 17.9287Z" fill="url(#paint15_radial)"/>
        <path d="M36.8533 26.8609C36.7146 26.8807 36.5759 26.9797 36.5165 27.1183C36.4768 27.1976 36.457 27.257 36.457 27.3362C36.457 27.4154 36.457 27.5145 36.4967 27.5937C36.5759 27.7521 36.7542 27.8313 36.9128 27.8908C36.9722 27.9106 37.0317 27.9304 37.0911 27.9304C37.1505 27.9304 37.1902 27.8908 37.2298 27.8709C37.3487 27.7719 37.4279 27.6135 37.4478 27.455C37.4676 27.1381 37.1902 26.8015 36.8533 26.8609Z" fill="url(#paint16_radial)"/>
        <path d="M39.129 22.8208C39.0894 22.7416 39.03 22.6822 38.9507 22.6624C38.9111 22.6624 38.8714 22.6624 38.812 22.6624C38.7724 22.6624 38.7129 22.6822 38.6733 22.7218C38.594 22.7812 38.5742 22.9 38.5742 22.999C38.5742 23.0387 38.5742 23.0783 38.5742 23.0981C38.594 23.1179 38.6138 23.1377 38.6337 23.1575C38.7129 23.2169 38.7922 23.2367 38.8912 23.2169C39.0498 23.1971 39.2083 22.999 39.129 22.8208Z" fill="url(#paint17_radial)"/>
        <path d="M41.3478 21.6521C41.3081 21.5729 41.2487 21.5135 41.1694 21.4937C41.1298 21.4937 41.0902 21.4937 41.0307 21.4937C40.9911 21.4937 40.9317 21.5135 40.892 21.5531C40.8128 21.6125 40.793 21.7313 40.793 21.8303C40.793 21.87 40.793 21.9096 40.793 21.9294C40.8128 21.9492 40.8326 21.969 40.8524 21.9888C40.9317 22.0482 41.0109 22.068 41.11 22.0482C41.2685 22.0086 41.427 21.8105 41.3478 21.6521Z" fill="url(#paint18_radial)"/>
        <path d="M37.6642 20.345C37.6246 20.2657 37.5651 20.2063 37.4859 20.1865C37.4462 20.1865 37.4066 20.1865 37.3472 20.1865C37.3075 20.1865 37.2481 20.2063 37.2084 20.2459C37.1292 20.3054 37.1094 20.4242 37.1094 20.5232C37.1094 20.5628 37.1094 20.6024 37.1094 20.6222C37.1292 20.642 37.149 20.6618 37.1688 20.6817C37.2481 20.7411 37.3273 20.7609 37.4264 20.7411C37.5849 20.7015 37.7434 20.5232 37.6642 20.345Z" fill="url(#paint19_radial)"/>
        <path d="M37.0299 22.4444C36.9902 22.3652 36.911 22.2859 36.8119 22.2661C36.7525 22.2463 36.7128 22.2661 36.6534 22.2661C36.594 22.2859 36.5345 22.2859 36.4949 22.3255C36.4156 22.4048 36.3958 22.5236 36.376 22.6424C36.376 22.682 36.3562 22.7216 36.376 22.7613C36.3958 22.8009 36.4156 22.8207 36.4354 22.8405C36.5147 22.8999 36.6336 22.9395 36.7327 22.8999C36.9308 22.8801 37.1091 22.6622 37.0299 22.4444Z" fill="url(#paint20_radial)"/>
        <path d="M38.9328 21.3353C38.8734 21.1967 38.7545 21.0977 38.6158 21.0581C38.5366 21.0383 38.4573 21.0383 38.378 21.0581C38.2988 21.0779 38.1997 21.0977 38.1403 21.1571C38.0016 21.2759 37.9817 21.4542 37.9619 21.6324C37.9619 21.6918 37.9421 21.7711 37.9619 21.8107C37.9817 21.8503 38.0214 21.8899 38.061 21.9295C38.1799 22.0285 38.3582 22.0681 38.4969 22.0285C38.7941 21.9889 39.0517 21.6324 38.9328 21.3353Z" fill="url(#paint21_radial)"/>
        <path d="M9.20846 30.822C9.24809 30.8814 9.30753 30.9408 9.38679 30.9408C9.42642 30.9408 9.46605 30.9408 9.52549 30.9408C9.56512 30.9408 9.62456 30.921 9.66419 30.9012C9.74345 30.8418 9.76327 30.7626 9.78308 30.6833C9.78308 30.6635 9.78308 30.6239 9.78308 30.6041C9.76327 30.5843 9.74345 30.5645 9.72364 30.5447C9.64438 30.5051 9.56512 30.4853 9.46605 30.5051C9.28772 30.5447 9.1292 30.6833 9.20846 30.822Z" fill="url(#paint22_radial)"/>
        <path d="M8.39559 32.0698C8.43522 32.1292 8.49466 32.1886 8.57392 32.1886C8.61355 32.1886 8.65318 32.1886 8.71262 32.1886C8.77206 32.1886 8.81169 32.1688 8.85132 32.149C8.93058 32.0896 8.95039 32.0104 8.97021 31.9311C8.97021 31.9113 8.97021 31.8717 8.97021 31.8519C8.95039 31.8321 8.93058 31.8123 8.91077 31.7925C8.83151 31.7529 8.75225 31.7331 8.65318 31.7529C8.49466 31.7727 8.33615 31.9311 8.39559 32.0698Z" fill="url(#paint23_radial)"/>
        <path d="M10.8748 30.8815C10.8947 30.9409 10.9739 30.9805 11.0334 31.0003C11.073 31.0003 11.1126 31.0003 11.1522 31.0003C11.1919 31.0003 11.2315 30.9805 11.2711 30.9607C11.3306 30.9211 11.3504 30.8419 11.3702 30.7626C11.3702 30.7428 11.3702 30.7032 11.3702 30.6834C11.3702 30.6636 11.3504 30.6438 11.3306 30.6438C11.2711 30.6042 11.1919 30.5844 11.1126 30.6042C10.9343 30.624 10.8154 30.7626 10.8748 30.8815Z" fill="url(#paint24_radial)"/>
        <path d="M8.4173 28.2671C8.49656 28.2671 8.59563 28.2473 8.63526 28.1879C8.67489 28.1681 8.6947 28.1285 8.6947 28.0889C8.71452 28.0493 8.71452 28.0097 8.71452 27.9701C8.6947 27.8908 8.59563 27.8314 8.51637 27.7918C8.47674 27.772 8.45693 27.7522 8.4173 27.7522C8.39748 27.7522 8.35786 27.7522 8.33804 27.772C8.25878 27.8116 8.19934 27.871 8.17953 27.9304C8.12008 28.0691 8.23897 28.2473 8.4173 28.2671Z" fill="url(#paint25_radial)"/>
        <path d="M10.5399 28.386C10.5993 28.4851 10.7182 28.5841 10.8569 28.6039C10.9362 28.6237 11.0154 28.6237 11.0947 28.6039C11.174 28.5841 11.273 28.5643 11.3325 28.5247C11.4712 28.4454 11.5108 28.287 11.5306 28.1484C11.5306 28.089 11.5504 28.0493 11.5306 27.9899C11.5108 27.9503 11.4712 27.9305 11.4315 27.8909C11.3127 27.8117 11.1343 27.7721 10.9956 27.8117C10.6984 27.8711 10.421 28.1286 10.5399 28.386Z" fill="url(#paint26_radial)"/>
        <path d="M9.16973 35.0999C9.03103 35.1197 8.89232 35.2187 8.83288 35.3573C8.79325 35.4366 8.77344 35.496 8.77344 35.5752C8.77344 35.6544 8.77344 35.7534 8.81307 35.8327C8.89232 35.9911 9.07065 36.0703 9.22917 36.1297C9.28861 36.1495 9.34806 36.1693 9.4075 36.1693C9.46694 36.1693 9.50657 36.1297 9.5462 36.1099C9.66509 36.0109 9.74434 35.8525 9.76416 35.694C9.76416 35.3969 9.48676 35.0603 9.16973 35.0999Z" fill="url(#paint27_radial)"/>
        <path d="M8.06086 20.9589C8.00142 20.9589 7.94197 20.9985 7.92216 21.058C7.90234 21.0778 7.90234 21.1174 7.90234 21.157C7.90234 21.1966 7.90234 21.2362 7.92216 21.256C7.94197 21.3154 8.02123 21.355 8.10049 21.3748C8.1203 21.3748 8.15993 21.3946 8.17975 21.3946C8.19956 21.3946 8.21937 21.3748 8.23919 21.3748C8.29863 21.3352 8.31845 21.2758 8.31845 21.2164C8.31845 21.0778 8.19956 20.9391 8.06086 20.9589Z" fill="url(#paint28_radial)"/>
        <path d="M12.9945 34.9811C12.935 34.9811 12.8756 35.0208 12.8558 35.0802C12.8359 35.1 12.8359 35.1396 12.8359 35.1792C12.8359 35.2188 12.8359 35.2584 12.8558 35.2782C12.8954 35.3376 12.9548 35.3772 13.0341 35.3971C13.0539 35.3971 13.0935 35.4169 13.1133 35.4169C13.1332 35.4169 13.153 35.3971 13.1728 35.3971C13.2322 35.3574 13.252 35.298 13.252 35.2386C13.2322 35.1 13.1332 34.9613 12.9945 34.9811Z" fill="url(#paint29_radial)"/>
        <path d="M26.0512 12.7993C26.4871 12.9181 26.9428 12.8983 27.359 12.72C27.8741 12.5022 28.3299 11.9872 28.2704 11.4327C28.2506 11.2544 28.1713 11.0762 28.0921 10.9178C27.676 10.1652 26.7051 9.571 25.8134 9.70964C24.9218 9.84828 24.7236 10.8781 24.9218 11.6307C25.0803 12.1853 25.4964 12.621 26.0512 12.7993Z" fill="url(#paint30_radial)"/>
        <path d="M33.0659 36.9219C32.729 36.9417 32.3922 37.0803 32.1346 37.318C31.8176 37.6151 31.6194 38.1102 31.7977 38.5063C31.8572 38.6251 31.9563 38.744 32.0553 38.843C32.5507 39.2985 33.4225 39.4768 34.0368 39.1401C34.651 38.8034 34.552 38.0112 34.1953 37.4962C33.9377 37.1199 33.5216 36.9219 33.0659 36.9219Z" fill="url(#paint31_radial)"/>
        <path d="M16.1477 38.9421C16.0685 39.3184 16.1279 39.7145 16.3062 40.0512C16.5242 40.4869 16.9997 40.8236 17.4555 40.7246C17.614 40.7048 17.7527 40.6255 17.8716 40.5463C18.4858 40.1502 18.9217 39.2788 18.7434 38.546C18.5651 37.7934 17.6933 37.6944 17.0592 37.9122C16.5836 38.0707 16.2468 38.4668 16.1477 38.9421Z" fill="url(#paint32_radial)"/>
        <path d="M23.5567 37.6548C30.2758 37.6548 35.7228 32.2104 35.7228 25.4944C35.7228 18.7784 30.2758 13.334 23.5567 13.334C16.8376 13.334 11.3906 18.7784 11.3906 25.4944C11.3906 32.2104 16.8376 37.6548 23.5567 37.6548Z" fill="url(#paint33_radial)"/>
        <path d="M20.882 33.3174C20.7037 34.0898 21.4566 34.7434 22.1897 35.0009C22.7842 35.1989 23.5966 35.1791 23.8541 34.6246C24.1117 34.0898 23.6758 33.4957 23.2597 33.06C22.7842 32.5648 22.1105 32.0499 21.516 32.3668C21.1594 32.545 21.0207 32.9411 20.882 33.3174Z" fill="#FF6326"/>
        <path d="M23.1594 33.377C23.1396 33.3374 23.1 33.3176 23.0802 33.278C22.7433 32.9215 22.2282 32.5254 21.7922 32.763C21.5346 32.9017 21.4158 33.1987 21.3167 33.476C21.2969 33.5552 21.2969 33.6345 21.2969 33.6939C21.3365 33.5949 21.3761 33.4958 21.4356 33.4166C21.8319 32.9611 22.5848 33.1393 23.1594 33.377Z" fill="#E52112"/>
        <path d="M22.2876 34.7435C22.7235 34.902 23.3378 34.8821 23.5161 34.4662C23.6944 34.1097 23.4368 33.6938 23.1594 33.3968C22.5848 33.1591 21.8319 32.961 21.4356 33.4364C21.3761 33.5156 21.3167 33.6146 21.2969 33.7136C21.3365 34.189 21.8121 34.5851 22.2876 34.7435Z" fill="#E53C12"/>
        <path d="M16.9804 27.5937C16.7624 27.158 16.1284 27.1184 15.6726 27.2768C15.2962 27.4154 14.9197 27.7323 14.9989 28.1284C15.098 28.4849 15.5339 28.6037 15.9104 28.6632C16.3265 28.7226 16.8813 28.7028 17.0398 28.3067C17.1389 28.0888 17.0596 27.8313 16.9804 27.5937Z" fill="#FF6326"/>
        <path d="M15.832 28.465C15.8518 28.465 15.8915 28.465 15.9113 28.4848C16.2283 28.5046 16.6246 28.5046 16.7435 28.2075C16.8228 28.0491 16.7435 27.851 16.6841 27.6728C16.6642 27.6332 16.6444 27.5936 16.6048 27.554C16.6246 27.6134 16.6444 27.6728 16.6444 27.752C16.6642 28.1481 16.2085 28.3462 15.832 28.465Z" fill="#E52112"/>
        <path d="M15.7339 27.4556C15.4565 27.5546 15.1791 27.7923 15.2386 28.0893C15.298 28.327 15.5754 28.426 15.833 28.4656C16.2095 28.3666 16.6652 28.1487 16.6652 27.7724C16.6652 27.713 16.6454 27.6338 16.6256 27.5744C16.4076 27.3565 16.0312 27.3367 15.7339 27.4556Z" fill="#E53C12"/>
        <path d="M30.8478 23.1772C32.2348 22.4841 33.4237 23.7516 33.3643 25.0191C33.9389 23.5932 32.6113 21.7909 30.9865 22.5831C30.511 22.8208 30.0354 23.3555 30.0949 23.91C30.2534 23.5932 30.5506 23.3357 30.8478 23.1772Z" fill="#E53C12"/>
        <path d="M31.0454 24.8806C31.3823 25.1578 31.62 25.6728 31.9767 25.8708C32.3333 26.0887 32.7891 25.851 33.0467 25.5341C33.1854 25.3757 33.2844 25.1974 33.3439 25.039C33.4231 23.7715 32.2343 22.5039 30.8274 23.1971C30.5302 23.3358 30.233 23.613 30.0547 23.9299C30.0547 24.0289 30.0745 24.1082 30.1141 24.2072C30.3123 24.5835 30.7482 24.6231 31.0454 24.8806Z" fill="#FF6326"/>
        <path d="M32.1933 29.3168C32.2132 30.01 31.48 30.2675 30.9648 29.9902C31.4404 30.4854 32.4311 30.2873 32.4113 29.4753C32.4113 29.2376 32.2726 28.9405 32.0348 28.8613C32.1339 29 32.1933 29.1584 32.1933 29.3168Z" fill="#E53C12"/>
        <path d="M31.46 29.0792C31.2817 29.1584 31.0241 29.1584 30.8656 29.2773C30.7071 29.3763 30.7269 29.614 30.8062 29.7724C30.8458 29.8516 30.9052 29.9308 30.9647 29.9902C31.4799 30.2675 32.213 30.0101 32.1932 29.3169C32.1932 29.1584 32.1337 29 32.0347 28.8614C31.995 28.8416 31.9554 28.8416 31.9158 28.8416C31.7176 28.8416 31.6186 29 31.46 29.0792Z" fill="#FF6326"/>
        <path d="M24.8426 27.1977C25.1992 26.9006 25.6352 27.1977 25.6946 27.5739C25.7739 27.1184 25.2785 26.6827 24.8426 26.9996C24.7237 27.0986 24.6048 27.2769 24.6642 27.4353C24.7039 27.3561 24.7633 27.2769 24.8426 27.1977Z" fill="#E53C12"/>
        <path d="M25.0009 27.6934C25.1198 27.7528 25.2189 27.8914 25.3378 27.931C25.4566 27.9706 25.5755 27.8716 25.635 27.7726C25.6548 27.7132 25.6746 27.6537 25.6944 27.6141C25.635 27.2378 25.2189 26.9408 24.8424 27.2378C24.7631 27.2973 24.6839 27.3963 24.6641 27.4953C24.6641 27.5151 24.6839 27.5547 24.7037 27.5745C24.783 27.6537 24.9018 27.6339 25.0009 27.6934Z" fill="#FF6326"/>
        <path d="M17.1572 24.7615C17.0779 24.306 17.5336 24.0684 17.8903 24.1872C17.5336 23.9099 16.8996 24.1476 16.9987 24.6823C17.0185 24.8408 17.1374 25.019 17.3157 25.0388C17.2364 24.9794 17.177 24.8606 17.1572 24.7615Z" fill="#E53C12"/>
        <path d="M17.6532 24.8407C17.7522 24.7615 17.9306 24.7417 18.0098 24.6426C18.0891 24.5634 18.0693 24.405 17.99 24.306C17.9504 24.2465 17.9108 24.2069 17.8711 24.1871C17.5145 24.0683 17.0587 24.306 17.138 24.7615C17.1578 24.8605 17.2172 24.9595 17.2965 25.0387C17.3163 25.0387 17.3559 25.0387 17.3758 25.0387C17.5145 25.0387 17.5739 24.9199 17.6532 24.8407Z" fill="#FF6326"/>
        <path d="M30.1323 30.8815C30.489 30.9806 30.489 31.3767 30.2908 31.5747C30.6079 31.4163 30.6475 30.9013 30.2512 30.7825C30.1323 30.7429 29.9738 30.7825 29.8945 30.8815C29.9738 30.8617 30.0729 30.8617 30.1323 30.8815Z" fill="#E53C12"/>
        <path d="M29.9169 31.1993C29.9367 31.2983 29.8971 31.4171 29.9367 31.5162C29.9764 31.6152 30.0754 31.635 30.1745 31.6152C30.2141 31.6152 30.2736 31.5954 30.3132 31.5756C30.5114 31.3577 30.4915 30.9616 30.1547 30.8824C30.0754 30.8626 29.9962 30.8626 29.9169 30.9022C29.8971 30.922 29.8971 30.9418 29.8971 30.9616C29.8377 31.0408 29.9169 31.1201 29.9169 31.1993Z" fill="#FF6326"/>
        <path d="M27.0258 22.6028C26.8079 21.9294 27.4419 21.4739 27.9967 21.5927C27.4023 21.256 26.5107 21.7314 26.7682 22.5038C26.8475 22.7216 27.0655 22.9791 27.3032 22.9791C27.1645 22.8999 27.0655 22.7612 27.0258 22.6028Z" fill="#E53C12"/>
        <path d="M27.7993 22.6229C27.938 22.4843 28.1757 22.4051 28.2946 22.2664C28.4135 22.1278 28.3342 21.91 28.2154 21.7713C28.1559 21.7119 28.0767 21.6525 28.0172 21.6129C27.4624 21.5138 26.8085 21.9496 27.0463 22.6229C27.0859 22.7616 27.2048 22.92 27.3237 23.019C27.3633 23.019 27.403 23.019 27.4426 22.9992C27.6209 22.9398 27.6606 22.7418 27.7993 22.6229Z" fill="#FF6326"/>
        <path d="M32.0987 18.7011C32.3761 18.206 32.9903 18.5427 33.2281 19.0576C33.1092 18.4041 32.3364 17.8693 32.0194 18.4437C31.9203 18.6021 31.9005 18.8992 32.0194 19.117C31.9996 18.9586 32.0392 18.8002 32.0987 18.7011Z" fill="#E53C12"/>
        <path d="M32.5159 19.3355C32.6744 19.395 32.8527 19.5534 33.0112 19.593C33.1499 19.6326 33.249 19.4544 33.2688 19.2959C33.2688 19.2167 33.2688 19.1375 33.249 19.0385C33.0112 18.5235 32.397 18.1868 32.1196 18.682C32.0601 18.781 32.0205 18.9394 32.0403 19.0979C32.0601 19.1375 32.0799 19.1573 32.1196 19.1969C32.2385 19.3355 32.3772 19.2959 32.5159 19.3355Z" fill="#FF6326"/>
        <path d="M25.1624 16.7998C25.6379 16.9384 26.1531 16.9781 26.5296 17.2949C27.1042 17.7901 27.0646 18.7209 27.5005 19.3547C27.9562 20.0281 29.0064 20.2063 29.6603 19.7112C30.2943 19.2557 30.4727 18.3446 30.2151 17.6118C29.9575 16.879 29.3432 16.3245 28.6497 15.968C27.9562 15.6115 27.1835 15.4531 26.4305 15.2748C25.8559 15.156 24.7463 14.9381 24.3698 15.6313C24.033 16.2651 24.6076 16.6414 25.1624 16.7998Z" fill="#FF6326"/>
        <path d="M26.4098 15.8887C27.1627 16.0472 27.9355 16.2254 28.629 16.5819C29.3225 16.9384 29.9367 17.493 30.1943 18.2258C30.234 18.3446 30.2538 18.4634 30.2736 18.6021C30.3132 18.2852 30.2934 17.9485 30.1943 17.6316C29.9367 16.8988 29.3225 16.3443 28.629 15.9878C27.9355 15.6313 27.1627 15.4728 26.4098 15.2946C25.8352 15.1757 24.7255 14.9579 24.3491 15.6511C24.2104 15.9085 24.2302 16.1066 24.3293 16.2848C24.3293 16.265 24.3491 16.265 24.3491 16.2452C24.7255 15.552 25.8352 15.7501 26.4098 15.8887Z" fill="#E53C12"/>
        <path d="M25.16 16.7999C25.6356 16.9385 26.1508 16.9781 26.5272 17.295C27.1019 17.7901 27.0622 18.721 27.4982 19.3548C27.9539 20.0281 29.0041 20.2064 29.6579 19.7113C30.0146 19.434 30.2325 19.0181 30.292 18.5824C30.2722 18.4635 30.2524 18.3249 30.2127 18.2061C29.9551 17.4733 29.3409 16.9187 28.6474 16.5622C27.9539 16.2057 27.1811 16.0473 26.4282 15.869C25.8536 15.7502 24.7439 15.5324 24.3675 16.2255C24.3675 16.2453 24.3477 16.2453 24.3477 16.2651C24.4864 16.5226 24.8232 16.7009 25.16 16.7999Z" fill="#FF6326"/>
        <path d="M16.1051 20.3449C16.8977 20.642 17.2345 21.7709 16.7392 22.4641C16.442 22.88 15.907 23.1177 15.6098 23.5336C15.3918 23.8703 15.2729 24.306 14.9361 24.504C14.4407 24.7615 13.8463 24.3258 13.5887 23.8307C13.1528 23.0186 13.1528 22.0086 13.5292 21.157C14.0444 19.929 15.0153 19.929 16.1051 20.3449Z" fill="#E53C12"/>
        <path d="M13.7307 21.7709C14.2657 20.543 15.2168 20.543 16.3264 20.9589C16.584 21.0579 16.8019 21.256 16.9605 21.4936C16.901 20.9985 16.584 20.5232 16.1084 20.3449C15.0186 19.929 14.0477 19.9092 13.5127 21.157C13.1561 21.9888 13.1561 22.9592 13.5524 23.7712C13.3939 23.0979 13.4731 22.4047 13.7307 21.7709Z" fill="#E52112"/>
        <path d="M14.9176 24.504C15.2742 24.306 15.3733 23.8703 15.5912 23.5336C15.8885 23.0979 16.4235 22.88 16.7207 22.4641C16.9188 22.1868 16.9783 21.8501 16.9386 21.5134C16.7801 21.2758 16.582 21.0777 16.3046 20.9787C15.2346 20.543 14.2637 20.543 13.7287 21.7709C13.4711 22.3849 13.3918 23.0979 13.5504 23.7514C13.5702 23.7712 13.5702 23.791 13.59 23.8307C13.8476 24.3258 14.442 24.7615 14.9176 24.504Z" fill="#E53C12"/>
        <path d="M14.6616 32.0301C14.8795 32.5451 15.2362 33.0204 15.7315 33.2779C15.9495 33.3967 16.2071 33.4561 16.4449 33.4363C16.7421 33.3967 16.9997 33.2382 17.2176 33.06C17.6734 32.6639 17.9904 32.0895 18.0102 31.4756C18.0498 30.8616 17.7526 30.2477 17.2573 29.911C16.9006 29.6733 16.4647 29.6139 16.0288 29.5941C14.3643 29.5149 14.1266 30.7032 14.6616 32.0301Z" fill="#FF6326"/>
        <path d="M15.1148 31.8914C15.2535 32.2677 15.5309 32.5846 15.8677 32.7629C16.0262 32.8421 16.2046 32.9015 16.3829 32.8817C16.581 32.8619 16.7792 32.7431 16.9179 32.6044C17.2349 32.3272 17.4727 31.9112 17.4925 31.4953C17.5123 31.0596 17.3142 30.6239 16.9575 30.3862C16.6999 30.2278 16.3829 30.1684 16.0857 30.1486C14.9166 30.109 14.7383 30.9408 15.1148 31.8914Z" fill="#E53C12"/>
        <path d="M16.226 30.6438C16.5628 30.6636 16.8798 30.723 17.1572 30.8815C17.2761 30.9607 17.3554 31.0399 17.4545 31.1587C17.395 30.8419 17.2167 30.5448 16.9393 30.3863C16.6817 30.2279 16.3647 30.1685 16.0674 30.1487C15.0371 30.1091 14.7795 30.7626 14.9975 31.5549C15.0371 31.0003 15.3938 30.6042 16.226 30.6438Z" fill="#E52112"/>
        <path d="M15.8716 32.763C16.0301 32.8422 16.2084 32.9016 16.3867 32.8818C16.5849 32.862 16.783 32.7432 16.9217 32.6045C17.2387 32.3272 17.4765 31.9113 17.4963 31.4954C17.4963 31.3964 17.4963 31.2776 17.4765 31.1785C17.3973 31.0795 17.2982 30.9805 17.1793 30.9013C16.9019 30.723 16.5651 30.6636 16.248 30.6636C15.4158 30.624 15.0592 31.0201 15.0195 31.5747C15.0393 31.6737 15.079 31.7925 15.1186 31.8915C15.2573 32.248 15.5149 32.5847 15.8716 32.763Z" fill="#E53C12"/>
        <path opacity="0.19" d="M26.8039 34.5652C20.384 34.5652 15.1728 29.3564 15.1728 22.9395C15.1728 20.147 16.1635 17.5921 17.7883 15.5918C14.3802 17.6119 12.1016 21.3353 12.1016 25.5934C12.1016 32.0103 17.3128 37.2191 23.7326 37.2191C27.3587 37.2191 30.6082 35.5555 32.7284 32.9412C30.9847 33.971 28.9636 34.5652 26.8039 34.5652Z" fill="#FF5E1F"/>
        <path d="M27.837 30.7427C28.1342 31.0002 28.372 31.3171 28.6098 31.634C29.0853 32.3073 29.5807 33.0599 29.5014 33.872C29.4024 34.8226 28.5107 35.5158 27.5992 35.7534C27.3218 35.8327 27.0048 35.8723 26.7472 35.7336C26.6085 35.6544 26.4896 35.5356 26.3707 35.4168C26.0735 35.0405 25.9348 34.5453 25.9745 34.07C25.9943 33.7333 26.1132 33.3966 25.9745 33.0995C25.5584 32.2083 23.8741 32.6638 24.5478 31.2577C25.1224 30.0495 26.9256 29.9901 27.837 30.7427Z" fill="#FF6326"/>
        <path d="M26.7089 31.5943C27.3826 31.5349 28.0761 31.9706 28.6309 32.5252C28.2148 31.8518 27.343 31.0002 26.5108 31.0596C25.7974 31.119 25.7776 31.5547 25.9361 32.03C26.0154 31.7924 26.2532 31.6339 26.7089 31.5943Z" fill="#E52112"/>
        <path d="M26.608 34.3078C26.5882 34.189 26.5287 34.0305 26.4494 33.8721C26.4296 34.2484 26.4098 34.6049 26.608 34.8821C26.6278 34.9019 26.6278 34.9019 26.6476 34.9217C26.6674 34.7237 26.6476 34.5058 26.608 34.3078Z" fill="#E53C12"/>
        <path d="M27.8556 35.1593C28.1132 35.0801 28.3708 34.9414 28.5689 34.7434C29.1039 34.2086 29.0643 33.2778 28.6878 32.6044C28.668 32.5648 28.6482 32.5252 28.6284 32.4856C28.0736 31.9509 27.38 31.5151 26.7064 31.5547C26.2506 31.5944 26.0129 31.7528 25.9336 31.9905C26.0723 32.4262 26.3497 32.9015 26.429 33.1788C26.4686 33.3768 26.4686 33.6145 26.4488 33.8323C26.528 33.9908 26.5875 34.1492 26.6073 34.2681C26.6469 34.4661 26.6469 34.684 26.6469 34.882C26.9243 35.2583 27.4395 35.2979 27.8556 35.1593Z" fill="#E53C12"/>
        <path d="M19.1597 30.0101C19.338 30.1488 19.5163 30.3072 19.7343 30.3468C20.1306 30.4458 20.5071 30.228 20.9034 30.1686C21.478 30.0695 22.0922 30.3072 22.647 30.1289C23.2811 29.9111 23.6378 29.1783 23.5585 28.5049C23.4792 27.8514 23.0433 27.2572 22.5281 26.8413C21.3987 25.9104 19.5163 25.5936 18.3077 26.5838C16.9999 27.6335 18.2482 29.2575 19.1597 30.0101Z" fill="#FF6326"/>
        <path d="M23.0419 28.3464C22.9824 28.0889 22.8239 27.8512 22.6456 27.6532C22.1502 27.1185 21.4963 26.8412 20.8028 26.762C20.5651 26.8214 20.3669 26.96 20.1886 27.1185C19.7725 27.4551 19.4554 28.2077 19.0195 28.4652C19.0988 28.6435 19.1979 28.8019 19.2771 28.9801C19.4158 29.2574 19.4753 29.5941 19.7527 29.7327C20.1093 29.9308 20.5056 29.6535 20.8821 29.5149C21.2784 29.3564 21.7143 29.3366 22.1106 29.4753C22.3285 29.5545 22.5861 29.6535 22.7645 29.4951C22.8239 29.4357 22.8635 29.3564 22.9032 29.2772C22.9824 28.9603 23.0815 28.6435 23.0419 28.3464Z" fill="#E53C12"/>
        <path d="M20.1528 27.0988C20.3311 26.9404 20.5491 26.8017 20.767 26.7423C20.3707 26.7027 19.9546 26.7027 19.5584 26.7819C18.4487 26.98 18.6271 27.7128 18.9639 28.4456C19.4196 28.1881 19.7565 27.4355 20.1528 27.0988Z" fill="#E52112"/>
        <path d="M28.1942 27.8908C28.1149 27.871 28.0357 27.8512 27.9366 27.871C27.7979 27.9106 27.6988 28.0492 27.58 28.1483C27.4016 28.2869 27.1638 28.3067 27.0053 28.485C26.827 28.6632 26.8468 28.9801 27.0053 29.1781C27.144 29.3762 27.4016 29.495 27.6394 29.5346C28.1744 29.6337 28.8481 29.396 29.0859 28.8613C29.3434 28.2869 28.6301 27.9898 28.1942 27.8908Z" fill="#FF6326"/>
        <path d="M27.2253 29.139C27.2848 29.2183 27.3839 29.2579 27.4829 29.2975C27.7405 29.3767 28.0179 29.3569 28.2557 29.2579C28.3151 29.1985 28.3548 29.1192 28.3944 29.0202C28.4737 28.842 28.434 28.5251 28.5331 28.3666C28.4737 28.327 28.4142 28.2874 28.3548 28.2478C28.2557 28.1884 28.1764 28.0894 28.0576 28.0894C27.899 28.0894 27.8198 28.2478 27.7207 28.3666C27.6216 28.4855 27.4829 28.5647 27.3244 28.6043C27.2452 28.6241 27.1263 28.6241 27.1065 28.7231C27.0866 28.7627 27.1065 28.7825 27.1065 28.8222C27.1263 28.9212 27.1461 29.0598 27.2253 29.139Z" fill="#E53C12"/>
        <path d="M28.3926 29.0396C28.353 29.1188 28.3133 29.198 28.2539 29.2772C28.3926 29.2178 28.5313 29.1386 28.6502 29.0396C28.987 28.7623 28.7889 28.5642 28.5511 28.386C28.4521 28.5444 28.4719 28.8415 28.3926 29.0396Z" fill="#E52112"/>
        <path d="M17.1768 17.1762C16.9787 17.7109 17.0976 18.3645 17.474 18.8002C17.5731 18.8992 17.6722 18.9982 17.7911 19.0577C18.0883 19.1963 18.4449 19.0577 18.7818 19.1171C19.0196 19.1567 19.2375 19.2953 19.4753 19.3349C20.0301 19.434 20.5453 19.0379 20.9614 18.6616C21.0803 18.5625 21.1793 18.4635 21.2586 18.3447C21.5162 17.9486 21.3973 17.394 21.1397 16.9781C20.2877 15.5917 17.7911 15.4135 17.1768 17.1762Z" fill="#FF7D4A"/>
        <path d="M20.5068 17.196C19.7737 16.9187 18.9414 16.8791 18.1885 17.1167C18.0696 17.1564 17.9705 17.196 17.8715 17.2356C17.713 17.5921 17.6535 18.008 17.8318 18.3051C18.0498 18.6616 18.3866 18.5229 18.7631 18.6616C19.1 18.8002 19.3576 19.1171 19.7538 19.0973C19.952 19.0973 20.1501 18.9784 20.3086 18.8398C20.8238 18.3447 20.804 17.6911 20.5068 17.196Z" fill="#FF6326"/>
        <path d="M20.5064 17.1961C20.1101 16.5425 19.2581 16.1068 18.4853 16.5029C18.2476 16.6415 18.0098 16.9188 17.8711 17.2357C17.9702 17.1961 18.0692 17.1565 18.1881 17.1169C18.9411 16.8792 19.7733 16.899 20.5064 17.1961Z" fill="#FF4700"/>
        <path opacity="0.34" d="M26.3899 21.256C27.7769 22.5236 29.5404 23.4544 31.4029 23.6129C31.8587 23.6525 32.3342 23.6327 32.6909 23.3752C33.2457 22.9791 33.3249 22.2067 33.3249 21.5333C33.3249 20.4242 33.206 19.2953 32.7107 18.3249C32.2153 17.3544 31.3633 16.6216 30.4915 15.9681C28.7478 14.6609 26.2314 13.2151 23.9527 13.532C21.2778 13.9083 22.8233 16.6018 23.6951 17.9684C24.4679 19.1567 25.3397 20.3054 26.3899 21.256Z" fill="#FFFF00"/>
        <path opacity="0.34" d="M20.9986 16.2057C20.8599 17.4336 21.2958 18.6417 21.8704 19.731C23.3763 22.7018 25.8135 25.1576 28.7064 26.8213C29.499 27.2768 30.351 27.6729 31.2625 27.7917C32.1739 27.9106 33.1647 27.7125 33.8383 27.0986C34.5517 26.445 34.8291 25.4349 34.8687 24.4645C34.9281 23.0187 34.5319 21.5531 33.7591 20.345C33.2835 19.6122 32.6891 18.9784 32.0749 18.3843C30.1529 16.5028 21.6327 10.1849 20.9986 16.2057Z" fill="#FFA600"/>
        <path opacity="0.41" d="M13.809 21.2759C12.9966 23.7515 13.0164 26.4847 13.9081 28.9405C14.3836 30.2476 15.1366 31.535 16.3254 32.248C17.4549 32.9214 18.8221 33.0402 20.0506 33.4957C21.0611 33.872 21.9726 34.4662 22.9831 34.8227C23.8946 35.1593 24.8853 35.298 25.8562 35.2386C27.0054 35.1593 28.3132 34.6048 28.4915 33.4759C28.65 32.4856 27.8574 31.5944 27.0649 30.9804C25.8166 30.01 24.4494 29.2178 23.2209 28.2275C21.9924 27.2373 20.9026 25.9697 20.5261 24.4447C20.1893 23.098 20.4667 21.6522 20.9422 20.345C21.3385 19.3152 21.8735 18.2457 21.6753 17.1564C21.2989 15.1363 18.9608 14.7204 17.5738 15.8493C15.8301 17.2554 14.5025 19.1567 13.809 21.2759Z" fill="#FF6326"/>
    </g>
    <path d="M12.1899 15.2865L12.0033 15.603C11.952 15.7151 11.9096 15.8417 11.9199 15.9556L11.9452 16.3208C11.9542 16.3352 11.9397 16.3443 11.9161 16.3389L11.5998 16.1547C11.4876 16.1041 11.3609 16.0626 11.2467 16.0736L10.8803 16.1009C10.8657 16.11 10.8567 16.0955 10.8623 16.072L11.0489 15.7555C11.1002 15.6434 11.1425 15.5168 11.1323 15.4029L11.1069 15.0377C11.0979 15.0233 11.1125 15.0142 11.136 15.0196L11.4524 15.2038C11.5645 15.2544 11.6912 15.2959 11.8055 15.2849L12.1719 15.2576C12.1809 15.272 12.1899 15.2865 12.1899 15.2865Z" fill="#EFEFEF"/>
    <path d="M27.6946 27.077L27.508 27.3935C27.4567 27.5056 27.4143 27.6322 27.4246 27.7461L27.4499 28.1113C27.4589 28.1257 27.4444 28.1348 27.4208 28.1294L27.1045 27.9452C26.9924 27.8946 26.8657 27.8531 26.7514 27.864L26.385 27.8914C26.3704 27.9004 26.3615 27.886 26.367 27.8625L26.5536 27.546C26.6049 27.4338 26.6473 27.3073 26.637 27.1934L26.6116 26.8282C26.6027 26.8137 26.6172 26.8047 26.6407 26.8101L26.9571 26.9943C27.0692 27.0448 27.1959 27.0863 27.3102 27.0754L27.6766 27.048C27.6911 27.039 27.7001 27.0535 27.6946 27.077Z" fill="#EFEFEF"/>
    <path d="M28.1509 40.007L28.085 40.1282C28.0649 40.1607 28.0538 40.2078 28.0517 40.2692L28.0564 40.4066L28.0419 40.4157L27.9207 40.3507C27.8882 40.3308 27.8411 40.32 27.7795 40.3182L27.6416 40.3237L27.6327 40.3093L27.6985 40.1881C27.7187 40.1556 27.7298 40.1085 27.7319 40.0471L27.7272 39.9097L27.7417 39.9006L27.8629 39.9656C27.8954 39.9855 27.9425 39.9963 28.0041 39.9981L28.1509 40.007C28.1565 39.9835 28.1655 39.998 28.1509 40.007Z" fill="#EFEFEF"/>
    <path d="M45.9587 29.896L45.8928 30.0172C45.8727 30.0497 45.8616 30.0967 45.8595 30.1582L45.8642 30.2956L45.8496 30.3046L45.7285 30.2396C45.696 30.2198 45.6489 30.209 45.5873 30.2072L45.464 30.2037L45.455 30.1892L45.5209 30.068C45.541 30.0355 45.5521 29.9885 45.5542 29.927L45.5495 29.7896L45.5641 29.7805L45.6852 29.8455C45.7177 29.8654 45.7648 29.8762 45.8265 29.878L45.9587 29.896C45.9497 29.8815 45.9587 29.896 45.9587 29.896Z" fill="#EFEFEF"/>
    <path d="M18.6744 19.155L18.5884 19.3087C18.5627 19.3648 18.537 19.4208 18.5494 19.4733L18.5576 19.6486L18.5431 19.6577L18.3894 19.5728C18.3333 19.5475 18.2772 19.5223 18.2246 19.5349L18.0487 19.5441L18.0397 19.5296L18.1257 19.3759C18.1514 19.3198 18.177 19.2638 18.1646 19.2114L18.1564 19.036L18.171 19.0269L18.3247 19.1118C18.3807 19.1371 18.4368 19.1624 18.4895 19.1497L18.6744 19.155C18.6654 19.1405 18.6744 19.155 18.6744 19.155Z" fill="#EFEFEF"/>
    <path d="M21.5884 25.4626L21.5024 25.6163C21.4768 25.6724 21.4511 25.7285 21.4635 25.7809L21.4717 25.9562L21.4571 25.9653L21.3034 25.8804C21.2474 25.8551 21.1913 25.8299 21.1387 25.8426L20.9627 25.8517L20.9537 25.8373L21.0397 25.6835C21.0654 25.6275 21.0911 25.5714 21.0787 25.519L21.0705 25.3436L21.0851 25.3346L21.2387 25.4194C21.2948 25.4447 21.3509 25.47 21.4035 25.4573L21.5884 25.4626C21.5794 25.4481 21.5794 25.4481 21.5884 25.4626Z" fill="#EFEFEF"/>
    <path d="M36.7693 15.2197L36.643 15.4386C36.6028 15.5037 36.5806 15.5977 36.5819 15.6972L36.5969 15.9484L36.5824 15.9575L36.3636 15.8329C36.2985 15.7932 36.2044 15.7715 36.1047 15.7734L35.8526 15.7898L35.8436 15.7754L35.9843 15.5475C36.0246 15.4824 36.0468 15.3884 36.0455 15.2889L36.0305 15.0376L36.045 15.0286L36.2638 15.1532C36.3288 15.1929 36.423 15.2145 36.5227 15.2127L36.7748 15.1962C36.7748 15.1962 36.7838 15.2107 36.7693 15.2197Z" fill="#EFEFEF"/>
    <path d="M16.8843 34.4832C16.9341 34.5632 17.0398 34.5875 17.1203 34.5374C17.2009 34.4873 17.2259 34.3818 17.1761 34.3017C17.1263 34.2216 17.0206 34.1974 16.94 34.2475C16.8595 34.2976 16.8345 34.4031 16.8843 34.4832Z" fill="#EFEFEF"/>
    <path d="M33.3296 10.4649C33.3794 10.5449 33.4851 10.5692 33.5657 10.5191C33.6462 10.469 33.6712 10.3634 33.6214 10.2834C33.5716 10.2033 33.4659 10.1791 33.3854 10.2292C33.3048 10.2793 33.2798 10.3848 33.3296 10.4649Z" fill="#EFEFEF"/>
    <path d="M22.9937 8.3506C23.0435 8.43066 23.1491 8.45494 23.2297 8.40483C23.3103 8.35472 23.3353 8.24919 23.2855 8.16913C23.2357 8.08907 23.13 8.06479 23.0494 8.11491C22.9688 8.16502 22.9439 8.27054 22.9937 8.3506Z" fill="#EFEFEF"/>
    <path d="M28.0171 32.9136C28.0669 32.9937 28.1726 33.0179 28.2532 32.9678C28.3337 32.9177 28.3587 32.8122 28.3089 32.7321C28.2591 32.6521 28.1534 32.6278 28.0729 32.6779C27.9923 32.728 27.9673 32.8335 28.0171 32.9136Z" fill="#EFEFEF"/>
    <path d="M29.8804 22.251C29.9302 22.3311 30.0359 22.3553 30.1164 22.3052C30.197 22.2551 30.222 22.1496 30.1722 22.0695C30.1224 21.9895 30.0167 21.9652 29.9361 22.0153C29.8556 22.0654 29.8306 22.1709 29.8804 22.251Z" fill="#EFEFEF"/>
    <path d="M2.88556 20.6344C2.92539 20.6985 3.00994 20.7179 3.0744 20.6778C3.13886 20.6377 3.15883 20.5533 3.119 20.4893C3.07917 20.4252 2.99462 20.4058 2.93016 20.4459C2.86569 20.486 2.84573 20.5704 2.88556 20.6344Z" fill="#EFEFEF"/>
    <path d="M39.5926 33.6525C39.6324 33.7166 39.717 33.736 39.7814 33.6959C39.8459 33.6558 39.8659 33.5714 39.826 33.5073C39.7862 33.4433 39.7016 33.4239 39.6372 33.4639C39.5727 33.504 39.5528 33.5885 39.5926 33.6525Z" fill="#EFEFEF"/>
    <path d="M2.51304 20.4097C2.58826 20.4184 2.65668 20.3646 2.66588 20.2896C2.67508 20.2145 2.62156 20.1466 2.54634 20.1379C2.47113 20.1292 2.4027 20.1829 2.3935 20.258C2.38431 20.333 2.43783 20.4009 2.51304 20.4097Z" fill="#EFEFEF"/>
    <path d="M16.0991 40.1023C16.1489 40.1824 16.2546 40.2066 16.3352 40.1565C16.4158 40.1064 16.4407 40.0009 16.3909 39.9208C16.3411 39.8408 16.2355 39.8165 16.1549 39.8666C16.0743 39.9167 16.0493 40.0223 16.0991 40.1023Z" fill="#EFEFEF"/>
    <path d="M18.0836 33.9388C18.1035 33.9708 18.1456 33.9804 18.1778 33.9604C18.2099 33.9405 18.2199 33.8984 18.2 33.8664C18.1802 33.8345 18.138 33.8248 18.1059 33.8448C18.0737 33.8648 18.0638 33.9069 18.0836 33.9388Z" fill="#EFEFEF"/>
    <path d="M16.3063 39.2933C16.3261 39.3252 16.3683 39.3349 16.4004 39.3149C16.4326 39.295 16.4425 39.2529 16.4227 39.2209C16.4028 39.189 16.3607 39.1793 16.3285 39.1993C16.2964 39.2193 16.2864 39.2614 16.3063 39.2933Z" fill="#EFEFEF"/>
    <path d="M17.2946 39.9417C17.3144 39.9737 17.3566 39.9834 17.3887 39.9634C17.4209 39.9434 17.4308 39.9013 17.411 39.8694C17.3911 39.8374 17.3489 39.8277 17.3168 39.8477C17.2847 39.8677 17.2747 39.9098 17.2946 39.9417Z" fill="#EFEFEF"/>
    <path d="M23.7633 43.076C23.7832 43.108 23.8253 43.1176 23.8575 43.0977C23.8896 43.0777 23.8996 43.0356 23.8797 43.0036C23.8599 42.9717 23.8177 42.962 23.7855 42.982C23.7534 43.002 23.7434 43.0441 23.7633 43.076Z" fill="#EFEFEF"/>
    <path d="M45.693 31.7437C45.7129 31.7757 45.755 31.7854 45.7872 31.7654C45.8193 31.7454 45.8293 31.7033 45.8094 31.6714C45.7895 31.6394 45.7474 31.6297 45.7152 31.6497C45.6831 31.6697 45.6731 31.7118 45.693 31.7437Z" fill="#EFEFEF"/>
    <path d="M2.54065 19.6866C2.56051 19.7186 2.60267 19.7282 2.63482 19.7083C2.66696 19.6883 2.67692 19.6462 2.65706 19.6142C2.6372 19.5823 2.59503 19.5726 2.56289 19.5926C2.53074 19.6126 2.52079 19.6547 2.54065 19.6866Z" fill="#EFEFEF"/>
    <path d="M40.8856 24.3698C40.9254 24.4338 41.0099 24.4533 41.0744 24.4132C41.1389 24.3731 41.1588 24.2887 41.119 24.2246C41.0792 24.1606 40.9946 24.1411 40.9302 24.1812C40.8657 24.2213 40.8457 24.3057 40.8856 24.3698Z" fill="#EFEFEF"/>
    <path d="M40.4974 24.1477C40.5726 24.1564 40.6411 24.1027 40.6503 24.0276C40.6595 23.9526 40.6059 23.8847 40.5307 23.8759C40.4555 23.8672 40.3871 23.9209 40.3779 23.996C40.3687 24.0711 40.4222 24.139 40.4974 24.1477Z" fill="#EFEFEF"/>
    <path d="M19.4779 15.4507C19.5531 15.4594 19.6215 15.4057 19.6307 15.3306C19.6399 15.2556 19.5864 15.1876 19.5112 15.1789C19.436 15.1702 19.3675 15.2239 19.3583 15.299C19.3492 15.374 19.4027 15.442 19.4779 15.4507Z" fill="#EFEFEF"/>
    <path d="M30.6888 5.50027C30.7641 5.509 30.8325 5.45523 30.8417 5.38017C30.8509 5.30511 30.7974 5.23719 30.7221 5.22846C30.6469 5.21973 30.5785 5.27349 30.5693 5.34855C30.5601 5.42361 30.6136 5.49154 30.6888 5.50027Z" fill="#EFEFEF"/>
    <path d="M22.0389 30.5684C22.1702 30.5836 22.2896 30.4898 22.3057 30.3588C22.3217 30.2278 22.2283 30.1093 22.0971 30.094C21.9658 30.0788 21.8464 30.1726 21.8303 30.3036C21.8143 30.4346 21.9077 30.5531 22.0389 30.5684Z" fill="#EFEFEF"/>
    <path d="M40.5328 23.4449C40.5527 23.4769 40.5949 23.4865 40.627 23.4666C40.6592 23.4466 40.6691 23.4045 40.6492 23.3725C40.6294 23.3406 40.5872 23.3309 40.5551 23.3509C40.5229 23.3709 40.513 23.413 40.5328 23.4449Z" fill="#EFEFEF"/>
    <path d="M37.2203 27.4684C37.2402 27.5003 37.2824 27.51 37.3145 27.49C37.3467 27.47 37.3566 27.4279 37.3367 27.396C37.3169 27.364 37.2747 27.3543 37.2426 27.3743C37.2104 27.3943 37.2005 27.4364 37.2203 27.4684Z" fill="#EFEFEF"/>
    <path d="M35.2125 22.9046C35.2324 22.9366 35.2745 22.9463 35.3067 22.9263C35.3388 22.9063 35.3488 22.8642 35.3289 22.8322C35.3091 22.8003 35.2669 22.7906 35.2348 22.8106C35.2026 22.8306 35.1927 22.8727 35.2125 22.9046Z" fill="#EFEFEF"/>
    <path d="M20.2086 15.1949C20.2285 15.2269 20.2706 15.2365 20.3028 15.2166C20.3349 15.1966 20.3449 15.1545 20.325 15.1225C20.3052 15.0906 20.263 15.0809 20.2309 15.1009C20.1987 15.1209 20.1888 15.163 20.2086 15.1949Z" fill="#EFEFEF"/>
    <path d="M29.7907 6.00742C29.8105 6.03936 29.8527 6.04905 29.8848 6.02905C29.917 6.00906 29.9269 5.96697 29.9071 5.93503C29.8872 5.90309 29.845 5.8934 29.8129 5.91339C29.7807 5.93339 29.7708 5.97548 29.7907 6.00742Z" fill="#EFEFEF"/>
    <path d="M28.8532 3.40146C28.873 3.4334 28.9152 3.44309 28.9473 3.4231C28.9795 3.40311 28.9894 3.36101 28.9696 3.32907C28.9497 3.29713 28.9075 3.28745 28.8754 3.30744C28.8432 3.32743 28.8333 3.36953 28.8532 3.40146Z" fill="#EFEFEF"/>
    <path d="M20.8074 31.121C20.8473 31.1851 20.9318 31.2045 20.9963 31.1644C21.0607 31.1243 21.0807 31.0399 21.0409 30.9758C21.001 30.9118 20.9165 30.8924 20.852 30.9325C20.7876 30.9725 20.7676 31.057 20.8074 31.121Z" fill="#EFEFEF"/>
    <path d="M24.1774 8.79551C24.1972 8.82745 24.2394 8.83713 24.2715 8.81714C24.3037 8.79715 24.3136 8.75505 24.2938 8.72311C24.2739 8.69117 24.2318 8.68149 24.1996 8.70148C24.1675 8.72147 24.1575 8.76357 24.1774 8.79551Z" fill="#EFEFEF"/>
    <path d="M39.3844 34.024C39.4043 34.056 39.4464 34.0656 39.4786 34.0457C39.5107 34.0257 39.5207 33.9836 39.5008 33.9516C39.4809 33.9197 39.4388 33.91 39.4066 33.93C39.3745 33.95 39.3645 33.9921 39.3844 34.024Z" fill="#EFEFEF"/>
    <path d="M24.6897 14.8842L19.9459 19.628C19.8961 19.6778 19.8177 19.6778 19.7679 19.628C19.718 19.5781 19.718 19.4998 19.7679 19.4499L24.5117 14.7061C24.5615 14.6562 24.6399 14.6562 24.6897 14.7061C24.7396 14.756 24.7396 14.8343 24.6897 14.8842Z" fill="#E1FFFF"/>
    <path d="M20.0119 19.6775C20.0953 19.594 20.0953 19.4587 20.0119 19.3753C19.9284 19.2918 19.7931 19.2918 19.7097 19.3753C19.6262 19.4587 19.6262 19.594 19.7097 19.6775C19.7931 19.7609 19.9284 19.7609 20.0119 19.6775Z" fill="#E1FFFF"/>
    <path opacity="0.49" d="M20.0794 19.7429C20.199 19.6233 20.199 19.4294 20.0794 19.3098C19.9598 19.1902 19.7659 19.1902 19.6463 19.3098C19.5267 19.4294 19.5267 19.6233 19.6463 19.7429C19.7659 19.8625 19.9598 19.8625 20.0794 19.7429Z" fill="#E1FFFF"/>
    <path d="M19.8662 19.6642C19.9411 19.6642 20.0019 19.6035 20.0019 19.5285C20.0019 19.4536 19.9411 19.3928 19.8662 19.3928C19.7912 19.3928 19.7305 19.4536 19.7305 19.5285C19.7305 19.6035 19.7912 19.6642 19.8662 19.6642Z" fill="#E1FFFF"/>
    <path d="M25.2093 9.90541L20.4655 14.6492C20.4156 14.6991 20.3373 14.6991 20.2874 14.6492C20.2375 14.5994 20.2375 14.521 20.2874 14.4711L25.0312 9.72734C25.0811 9.67748 25.1594 9.67748 25.2093 9.72734C25.2591 9.7772 25.2591 9.85555 25.2093 9.90541Z" fill="#E1FFFF"/>
    <path d="M20.5353 14.7014C20.6188 14.6179 20.6188 14.4826 20.5353 14.3992C20.4519 14.3157 20.3166 14.3157 20.2331 14.3992C20.1497 14.4826 20.1497 14.6179 20.2331 14.7014C20.3166 14.7848 20.4519 14.7848 20.5353 14.7014Z" fill="#E1FFFF"/>
    <path opacity="0.49" d="M20.6028 14.7669C20.7225 14.6473 20.7225 14.4533 20.6028 14.3337C20.4832 14.2141 20.2893 14.2141 20.1697 14.3337C20.0501 14.4533 20.0501 14.6473 20.1697 14.7669C20.2893 14.8865 20.4832 14.8865 20.6028 14.7669Z" fill="#E1FFFF"/>
    <path d="M20.3896 14.6855C20.4645 14.6855 20.5253 14.6247 20.5253 14.5498C20.5253 14.4748 20.4645 14.4141 20.3896 14.4141C20.3147 14.4141 20.2539 14.4748 20.2539 14.5498C20.2539 14.6247 20.3147 14.6855 20.3896 14.6855Z" fill="#E1FFFF"/>
    <defs>
        <linearGradient id="paint0_linear" x1="13.3324" y1="12.1018" x2="54.6381" y2="35.0159" gradientUnits="userSpaceOnUse">
            <stop stop-color="#00FF85"/>
            <stop offset="0.99842" stop-color="#00D1FF"/>
        </linearGradient>
        <radialGradient id="paint1_radial" cx="0" cy="0" r="1" gradientUnits="userSpaceOnUse" gradientTransform="translate(31.8236 10.0465) scale(3.9937 3.99184)">
            <stop offset="0.1736" stop-color="#FF9226"/>
            <stop offset="0.6708" stop-color="#FFAF26"/>
        </radialGradient>
        <radialGradient id="paint2_radial" cx="0" cy="0" r="1" gradientUnits="userSpaceOnUse" gradientTransform="translate(15.8505 35.7025) rotate(-42.6362) scale(4.82927 4.82909)">
            <stop offset="0.1736" stop-color="#FF9226"/>
            <stop offset="0.6708" stop-color="#FFAF26"/>
        </radialGradient>
        <radialGradient id="paint3_radial" cx="0" cy="0" r="1" gradientUnits="userSpaceOnUse" gradientTransform="translate(32.2696 12.4086) scale(4.27258 4.2706)">
            <stop offset="0.1736" stop-color="#FF9226"/>
            <stop offset="0.6708" stop-color="#FFAF26"/>
        </radialGradient>
        <radialGradient id="paint4_radial" cx="0" cy="0" r="1" gradientUnits="userSpaceOnUse" gradientTransform="translate(30.3868 37.5611) scale(4.27258 4.27059)">
            <stop offset="0.1736" stop-color="#FF9226"/>
            <stop offset="0.6708" stop-color="#FFAF26"/>
        </radialGradient>
        <radialGradient id="paint5_radial" cx="0" cy="0" r="1" gradientUnits="userSpaceOnUse" gradientTransform="translate(34.466 17.3742) rotate(59.857) scale(1.75904 1.75944)">
            <stop offset="0.1736" stop-color="#FF9226"/>
            <stop offset="0.6708" stop-color="#FFAF26"/>
        </radialGradient>
        <radialGradient id="paint6_radial" cx="0" cy="0" r="1" gradientUnits="userSpaceOnUse" gradientTransform="translate(39.0237 27.726) rotate(59.8566) scale(1.75903 1.75945)">
            <stop offset="0.1736" stop-color="#FF9226"/>
            <stop offset="0.6708" stop-color="#FFAF26"/>
        </radialGradient>
        <radialGradient id="paint7_radial" cx="0" cy="0" r="1" gradientUnits="userSpaceOnUse" gradientTransform="translate(38.4069 25.284) rotate(59.8569) scale(1.75903 1.75944)">
            <stop offset="0.1736" stop-color="#FF9226"/>
            <stop offset="0.6708" stop-color="#FFAF26"/>
        </radialGradient>
        <radialGradient id="paint8_radial" cx="0" cy="0" r="1" gradientUnits="userSpaceOnUse" gradientTransform="translate(36.2622 16.5709) rotate(59.8572) scale(1.75903 1.75943)">
            <stop offset="0.1736" stop-color="#FF9226"/>
            <stop offset="0.6708" stop-color="#FFAF26"/>
        </radialGradient>
        <radialGradient id="paint9_radial" cx="0" cy="0" r="1" gradientUnits="userSpaceOnUse" gradientTransform="translate(36.8622 31.0723) rotate(59.8572) scale(1.75904 1.75944)">
            <stop offset="0.1736" stop-color="#FF9226"/>
            <stop offset="0.6708" stop-color="#FFAF26"/>
        </radialGradient>
        <radialGradient id="paint10_radial" cx="0" cy="0" r="1" gradientUnits="userSpaceOnUse" gradientTransform="translate(38.0643 16.3728) rotate(-3.83973) scale(1.75964 1.75883)">
            <stop offset="0.1736" stop-color="#FF9226"/>
            <stop offset="0.6708" stop-color="#FFAF26"/>
        </radialGradient>
        <radialGradient id="paint11_radial" cx="0" cy="0" r="1" gradientUnits="userSpaceOnUse" gradientTransform="translate(9.56329 24.5261) rotate(59.8569) scale(3.08899 3.08971)">
            <stop offset="0.1736" stop-color="#FF9226"/>
            <stop offset="0.6708" stop-color="#FFAF26"/>
        </radialGradient>
        <radialGradient id="paint12_radial" cx="0" cy="0" r="1" gradientUnits="userSpaceOnUse" gradientTransform="translate(12.0329 34.0436) rotate(59.8569) scale(3.08899 3.08971)">
            <stop offset="0.1736" stop-color="#FF9226"/>
            <stop offset="0.6708" stop-color="#FFAF26"/>
        </radialGradient>
        <radialGradient id="paint13_radial" cx="0" cy="0" r="1" gradientUnits="userSpaceOnUse" gradientTransform="translate(11.9581 23.3489) rotate(59.8569) scale(3.08897 3.08969)">
            <stop offset="0.1736" stop-color="#FF9226"/>
            <stop offset="0.6708" stop-color="#FFAF26"/>
        </radialGradient>
        <radialGradient id="paint14_radial" cx="0" cy="0" r="1" gradientUnits="userSpaceOnUse" gradientTransform="translate(35.9591 34.672) rotate(59.8568) scale(2.01678 2.01725)">
            <stop offset="0.1736" stop-color="#FF9226"/>
            <stop offset="0.6708" stop-color="#FFAF26"/>
        </radialGradient>
        <radialGradient id="paint15_radial" cx="0" cy="0" r="1" gradientUnits="userSpaceOnUse" gradientTransform="translate(37.3055 19.1787) rotate(59.857) scale(3.08899 3.0897)">
            <stop offset="0.1736" stop-color="#FF9226"/>
            <stop offset="0.6708" stop-color="#FFAF26"/>
        </radialGradient>
        <radialGradient id="paint16_radial" cx="0" cy="0" r="1" gradientUnits="userSpaceOnUse" gradientTransform="translate(38.0167 28.1021) rotate(59.857) scale(3.08899 3.0897)">
            <stop offset="0.1736" stop-color="#FF9226"/>
            <stop offset="0.6708" stop-color="#FFAF26"/>
        </radialGradient>
        <radialGradient id="paint17_radial" cx="0" cy="0" r="1" gradientUnits="userSpaceOnUse" gradientTransform="translate(38.5965 23.6348) rotate(135.961) scale(1.75924)">
            <stop offset="0.1736" stop-color="#FF9226"/>
            <stop offset="0.6708" stop-color="#FFAF26"/>
        </radialGradient>
        <radialGradient id="paint18_radial" cx="0" cy="0" r="1" gradientUnits="userSpaceOnUse" gradientTransform="translate(40.8199 22.4514) rotate(135.961) scale(1.75924)">
            <stop offset="0.1736" stop-color="#FF9226"/>
            <stop offset="0.6708" stop-color="#FFAF26"/>
        </radialGradient>
        <radialGradient id="paint19_radial" cx="0" cy="0" r="1" gradientUnits="userSpaceOnUse" gradientTransform="translate(37.1395 21.1488) rotate(135.961) scale(1.75928)">
            <stop offset="0.1736" stop-color="#FF9226"/>
            <stop offset="0.6708" stop-color="#FFAF26"/>
        </radialGradient>
        <radialGradient id="paint20_radial" cx="0" cy="0" r="1" gradientUnits="userSpaceOnUse" gradientTransform="translate(36.4137 23.38) rotate(135.961) scale(2.01705)">
            <stop offset="0.1736" stop-color="#FF9226"/>
            <stop offset="0.6708" stop-color="#FFAF26"/>
        </radialGradient>
        <radialGradient id="paint21_radial" cx="0" cy="0" r="1" gradientUnits="userSpaceOnUse" gradientTransform="translate(37.9909 22.7479) rotate(135.962) scale(3.08938)">
            <stop offset="0.1736" stop-color="#FF9226"/>
            <stop offset="0.6708" stop-color="#FFAF26"/>
        </radialGradient>
        <radialGradient id="paint22_radial" cx="0" cy="0" r="1" gradientUnits="userSpaceOnUse" gradientTransform="translate(9.74708 30.1908) rotate(-36.9961) scale(1.59732 1.5374)">
            <stop offset="0.1736" stop-color="#FF9226"/>
            <stop offset="0.6708" stop-color="#FFAF26"/>
        </radialGradient>
        <radialGradient id="paint23_radial" cx="0" cy="0" r="1" gradientUnits="userSpaceOnUse" gradientTransform="translate(8.94217 31.4257) rotate(-36.9963) scale(1.59732 1.53741)">
            <stop offset="0.1736" stop-color="#FF9226"/>
            <stop offset="0.6708" stop-color="#FFAF26"/>
        </radialGradient>
        <radialGradient id="paint24_radial" cx="0" cy="0" r="1" gradientUnits="userSpaceOnUse" gradientTransform="translate(11.3439 30.3165) rotate(-36.9956) scale(1.40363 1.35097)">
            <stop offset="0.1736" stop-color="#FF9226"/>
            <stop offset="0.6708" stop-color="#FFAF26"/>
        </radialGradient>
        <radialGradient id="paint25_radial" cx="0" cy="0" r="1" gradientUnits="userSpaceOnUse" gradientTransform="translate(7.93865 27.5997) rotate(-111.396) scale(1.43114 1.71597)">
            <stop offset="0.1736" stop-color="#FF9226"/>
            <stop offset="0.6708" stop-color="#FFAF26"/>
        </radialGradient>
        <radialGradient id="paint26_radial" cx="0" cy="0" r="1" gradientUnits="userSpaceOnUse" gradientTransform="translate(11.4933 27.2616) rotate(-36.9958) scale(2.805 2.69978)">
            <stop offset="0.1736" stop-color="#FF9226"/>
            <stop offset="0.6708" stop-color="#FFAF26"/>
        </radialGradient>
        <radialGradient id="paint27_radial" cx="0" cy="0" r="1" gradientUnits="userSpaceOnUse" gradientTransform="translate(10.3161 36.3564) rotate(59.8568) scale(3.08898 3.0897)">
            <stop offset="0.1736" stop-color="#FF9226"/>
            <stop offset="0.6708" stop-color="#FFAF26"/>
        </radialGradient>
        <radialGradient id="paint28_radial" cx="0" cy="0" r="1" gradientUnits="userSpaceOnUse" gradientTransform="translate(8.54105 21.4666) rotate(59.857) scale(1.26833 1.26863)">
            <stop offset="0.1736" stop-color="#FF9226"/>
            <stop offset="0.6708" stop-color="#FFAF26"/>
        </radialGradient>
        <radialGradient id="paint29_radial" cx="0" cy="0" r="1" gradientUnits="userSpaceOnUse" gradientTransform="translate(13.4699 35.5008) rotate(59.8568) scale(1.26832 1.26862)">
            <stop offset="0.1736" stop-color="#FF9226"/>
            <stop offset="0.6708" stop-color="#FFAF26"/>
        </radialGradient>
        <radialGradient id="paint30_radial" cx="0" cy="0" r="1" gradientUnits="userSpaceOnUse" gradientTransform="translate(28.678 11.545) scale(5.31699 5.31451)">
            <stop offset="0.1736" stop-color="#FF9226"/>
            <stop offset="0.6708" stop-color="#FFAF26"/>
        </radialGradient>
        <radialGradient id="paint31_radial" cx="0" cy="0" r="1" gradientUnits="userSpaceOnUse" gradientTransform="translate(31.4614 38.513) rotate(160.908) scale(4.12816 4.12665)">
            <stop offset="0.1736" stop-color="#FF9226"/>
            <stop offset="0.6708" stop-color="#FFAF26"/>
        </radialGradient>
        <radialGradient id="paint32_radial" cx="0" cy="0" r="1" gradientUnits="userSpaceOnUse" gradientTransform="translate(17.3728 41.0899) rotate(85.5817) scale(4.51966 4.52174)">
            <stop offset="0.1736" stop-color="#FF9226"/>
            <stop offset="0.6708" stop-color="#FFAF26"/>
        </radialGradient>
        <radialGradient id="paint33_radial" cx="0" cy="0" r="1" gradientUnits="userSpaceOnUse" gradientTransform="translate(17.8789 33.9458) scale(23.1957 23.1849)">
            <stop offset="0.1736" stop-color="#FF9226"/>
            <stop offset="0.6708" stop-color="#FFAF26"/>
        </radialGradient>
        <clipPath id="clip0">
            <rect x="7.90234" y="9.68994" width="33.4666" height="31.0546" fill="white"/>
        </clipPath>
    </defs>
</svg>
