<svg width="50" height="49" viewBox="0 0 50 49" fill="none" xmlns="http://www.w3.org/2000/svg">
    <path d="M24.7982 0L45.8173 12.1354V36.4062L24.7982 48.5416L3.77902 36.4062V12.1354L24.7982 0Z" fill="url(#paint0_linear)"/>
    <path d="M26.053 13.9379L21.3092 18.6817C21.2594 18.7315 21.181 18.7315 21.1311 18.6817C21.0813 18.6318 21.0813 18.5535 21.1311 18.5036L25.875 13.7598C25.9248 13.7099 26.0032 13.7099 26.053 13.7598C26.1029 13.8097 26.1029 13.888 26.053 13.9379Z" fill="#E1FFFF"/>
    <path d="M21.3752 18.7312C21.4586 18.6477 21.4586 18.5124 21.3752 18.429C21.2917 18.3455 21.1564 18.3455 21.073 18.429C20.9895 18.5124 20.9895 18.6477 21.073 18.7312C21.1564 18.8146 21.2917 18.8146 21.3752 18.7312Z" fill="#E1FFFF"/>
    <path opacity="0.49" d="M21.4427 18.7966C21.5623 18.677 21.5623 18.4831 21.4427 18.3635C21.3231 18.2439 21.1292 18.2439 21.0095 18.3635C20.8899 18.4831 20.8899 18.677 21.0095 18.7967C21.1292 18.9163 21.3231 18.9163 21.4427 18.7966Z" fill="#E1FFFF"/>
    <path d="M21.2294 18.7179C21.3044 18.7179 21.3651 18.6572 21.3651 18.5822C21.3651 18.5073 21.3044 18.4465 21.2294 18.4465C21.1545 18.4465 21.0938 18.5073 21.0938 18.5822C21.0938 18.6572 21.1545 18.7179 21.2294 18.7179Z" fill="#E1FFFF"/>
    <path d="M26.5765 8.95887L21.8327 13.7027C21.7828 13.7525 21.7044 13.7525 21.6546 13.7027C21.6047 13.6528 21.6047 13.5745 21.6546 13.5246L26.3984 8.7808C26.4483 8.73094 26.5266 8.73094 26.5765 8.7808C26.6263 8.83066 26.6263 8.90901 26.5765 8.95887Z" fill="#E1FFFF"/>
    <path d="M21.9025 13.7546C21.986 13.6712 21.986 13.5359 21.9025 13.4524C21.8191 13.369 21.6838 13.369 21.6003 13.4524C21.5169 13.5359 21.5169 13.6712 21.6003 13.7546C21.6838 13.8381 21.8191 13.8381 21.9025 13.7546Z" fill="#E1FFFF"/>
    <path opacity="0.49" d="M21.97 13.8203C22.0896 13.7007 22.0896 13.5068 21.97 13.3872C21.8504 13.2676 21.6565 13.2676 21.5369 13.3872C21.4173 13.5068 21.4173 13.7007 21.5369 13.8203C21.6565 13.9399 21.8504 13.9399 21.97 13.8203Z" fill="#E1FFFF"/>
    <path d="M21.7568 13.7389C21.8317 13.7389 21.8925 13.6782 21.8925 13.6032C21.8925 13.5283 21.8317 13.4675 21.7568 13.4675C21.6818 13.4675 21.6211 13.5283 21.6211 13.6032C21.6211 13.6782 21.6818 13.7389 21.7568 13.7389Z" fill="#E1FFFF"/>
    <g clip-path="url(#clip0)">
        <path opacity="0.05" d="M20.934 42.5998C16.5245 42.5998 12.9492 39.0014 12.9492 34.5633C12.9492 30.1253 16.5245 26.5269 20.934 26.5269C25.3436 26.5269 28.9189 30.1253 28.9189 34.5633C28.9189 39.0014 25.3265 42.5998 20.934 42.5998Z" fill="white"/>
        <path d="M20.9327 41.9145C24.9665 41.9145 28.2365 38.6234 28.2365 34.5635C28.2365 30.5036 24.9665 27.2124 20.9327 27.2124C16.8989 27.2124 13.6289 30.5036 13.6289 34.5635C13.6289 38.6234 16.8989 41.9145 20.9327 41.9145Z" fill="url(#paint1_linear)"/>
        <path opacity="0.5" d="M15.3314 34.5635C15.3314 30.7937 18.1576 27.6922 21.784 27.2638C21.5116 27.2295 21.2221 27.2124 20.9327 27.2124C16.8977 27.2124 13.6289 30.5024 13.6289 34.5635C13.6289 38.6246 16.8977 41.9145 20.9327 41.9145C21.2221 41.9145 21.5116 41.8974 21.784 41.8631C18.1576 41.4348 15.3314 38.3333 15.3314 34.5635Z" fill="#B41DA7"/>
        <path opacity="0.2" d="M21.7354 38.8987C20.3904 38.9672 18.9944 39.0357 17.7175 39.4641C17.1897 39.6355 16.6789 39.8754 16.2022 40.1495C16.1511 40.1153 16.1171 40.0639 16.066 40.0296C16.5768 39.7383 17.1046 39.4984 17.6664 39.3099C18.9773 38.8644 20.3734 38.7958 21.7354 38.7273C22.3994 38.693 23.0974 38.6588 23.7614 38.5731C25.3788 38.3846 26.5706 37.8534 27.7794 37.1337C27.7453 37.2194 27.7113 37.3051 27.6772 37.3907C26.5025 38.059 25.3277 38.5559 23.7784 38.7444C23.0974 38.8301 22.3994 38.8644 21.7354 38.8987ZM15.0445 30.7936C17.5302 31.0164 19.5732 30.7594 21.2757 29.9711C21.7695 29.7484 22.2462 29.4571 22.7229 29.2C23.1996 28.9259 23.7103 28.6174 24.2211 28.3947C24.3573 28.3261 24.4935 28.2747 24.6297 28.2233C24.5616 28.1891 24.5105 28.1548 24.4424 28.1205C24.3403 28.1548 24.2381 28.2062 24.153 28.2405C23.6252 28.4804 23.1144 28.7717 22.6377 29.063C22.1781 29.3371 21.7014 29.6113 21.2076 29.8341C19.5392 30.6051 17.5302 30.8622 15.0786 30.6394C14.9934 30.6394 14.8913 30.6223 14.8062 30.6051C14.7721 30.6565 14.7381 30.708 14.704 30.7594C14.8062 30.7765 14.9253 30.7936 15.0445 30.7936ZM24.9021 39.8582H24.6127C22.2291 39.9096 19.7605 39.9439 17.7515 41.1605C17.8196 41.1948 17.8707 41.2119 17.9388 41.2462C19.8967 40.1153 22.2972 40.0639 24.6127 40.0296H24.9021C25.2085 40.0296 25.532 40.0125 25.8385 39.9953C25.9066 39.9439 25.9577 39.8754 26.0258 39.8068C25.6512 39.8411 25.2766 39.8411 24.9021 39.8582ZM15.4872 29.6627C15.4361 29.7141 15.385 29.7826 15.3339 29.8341C16.4065 29.8169 17.4961 29.7312 18.5687 29.577C19.42 29.4571 20.3223 29.2686 21.1225 28.8231C21.5141 28.6003 21.8716 28.309 22.2291 28.0348C22.4675 27.8464 22.7058 27.6579 22.9612 27.4865C22.8931 27.4694 22.825 27.4522 22.7399 27.418C22.5186 27.5722 22.3143 27.7264 22.127 27.8978C21.7865 28.1719 21.429 28.4461 21.0544 28.6689C20.2883 29.0972 19.403 29.2857 18.5687 29.4057C17.5302 29.5599 16.5087 29.6456 15.4872 29.6627ZM18.0409 36.4654C19.9478 36.3112 21.5481 35.7458 23.2507 35.146C23.8465 34.9404 24.4594 34.7176 25.0894 34.5291C26.0939 34.2036 27.1494 34.0322 28.205 33.878C28.205 33.8266 28.188 33.758 28.188 33.7066C27.1324 33.8437 26.0598 34.0322 25.0383 34.3578C24.4084 34.5634 23.7955 34.769 23.1996 34.9918C21.5141 35.5915 19.9137 36.157 18.0239 36.2941C17.5302 36.3284 17.0194 36.3626 16.5257 36.3969C15.6574 36.4483 14.7891 36.4997 13.9208 36.6025C13.9379 36.6539 13.9549 36.7225 13.9719 36.7739C14.8232 36.6711 15.6915 36.6197 16.5427 36.5682C17.0365 36.534 17.5472 36.4997 18.0409 36.4654ZM22.9953 33.7581C21.9057 33.8095 20.782 33.7923 19.6924 33.7581C17.6834 33.7066 15.6234 33.6381 13.6484 34.135C13.6484 34.1864 13.6484 34.255 13.6484 34.3064C15.6063 33.8095 17.6834 33.8609 19.6924 33.9294C20.782 33.9637 21.9057 33.9979 23.0123 33.9294C24.2892 33.8609 25.9066 33.6381 28.0007 32.6614C27.9837 32.61 27.9666 32.5586 27.9496 32.5072C26.2811 33.2783 24.6808 33.6724 22.9953 33.7581ZM18.2793 37.425C18.3133 37.4593 18.3133 37.4936 18.3133 37.5278C18.2963 37.5792 18.2623 37.6478 18.1771 37.6992C17.9047 37.8705 17.5642 37.9048 17.2237 37.9219C17.1727 37.9219 17.1046 37.9219 17.0535 37.9391C16.2703 38.0076 15.5212 38.2304 14.8402 38.6074C14.8743 38.6588 14.9083 38.7102 14.9424 38.7444C15.5893 38.3846 16.3214 38.1618 17.0705 38.1104C17.1216 38.1104 17.1897 38.1104 17.2408 38.0933C17.5983 38.0762 17.9728 38.0419 18.2793 37.8363C18.3985 37.7506 18.4836 37.6649 18.4836 37.545C18.5006 37.4593 18.4666 37.3736 18.4155 37.3051C18.2963 37.1509 18.0409 37.1166 17.8707 37.1166C16.6619 37.1337 15.5042 37.4079 14.3635 37.7506C14.3805 37.802 14.4146 37.8534 14.4486 37.9048C15.5723 37.5621 16.713 37.3051 17.8877 37.2879C18.0239 37.2879 18.2112 37.3393 18.2793 37.425ZM15.351 32.1816C14.9253 32.1645 14.4827 32.1131 14.057 32.0616C14.04 32.1131 14.023 32.1645 14.006 32.233C14.4486 32.2844 14.8913 32.3358 15.3339 32.353C19.1987 32.5586 23.0804 31.4105 26.86 30.2796C26.8259 30.2282 26.7919 30.1768 26.7578 30.1254C23.0123 31.2563 19.1646 32.3701 15.351 32.1816ZM27.3026 35.6258C26.6897 35.9856 25.6001 36.0542 24.817 36.1056C24.6808 36.1056 24.5446 36.1227 24.4254 36.1227C24.3913 36.1227 24.3403 36.1227 24.2892 36.1227C23.1655 36.1913 21.6673 36.3284 21.3949 36.9281C21.3098 37.1166 21.3609 37.3393 21.5481 37.5792C21.7014 37.7677 21.9397 37.8534 22.2291 37.8534C22.842 37.8534 23.6593 37.5107 24.3062 37.2194C24.5956 37.0994 24.834 36.9966 25.0042 36.9452C25.4129 36.8253 25.8555 36.7396 26.2811 36.6539C26.877 36.534 27.4729 36.3969 28.0518 36.2084C28.0688 36.1399 28.0858 36.0713 28.1028 36.0199C27.507 36.2255 26.877 36.3626 26.2471 36.4826C25.8215 36.5682 25.3788 36.6711 24.9532 36.7739C24.7829 36.8253 24.5275 36.9281 24.2381 37.048C23.3869 37.4079 22.0929 37.9733 21.6843 37.4593C21.5311 37.2708 21.4971 37.1166 21.5481 36.9966C21.7184 36.6197 22.6377 36.3798 24.2892 36.2941C24.3573 36.2941 24.3913 36.2941 24.4254 36.2941C24.5446 36.2941 24.6808 36.2769 24.817 36.2769C25.6682 36.2255 26.7408 36.157 27.3878 35.78C27.5751 35.6601 27.7623 35.523 27.9326 35.3859C28.0177 35.3174 28.1028 35.2488 28.188 35.1974C28.188 35.1289 28.205 35.0432 28.205 34.9747C28.0688 35.0603 27.9496 35.1631 27.8304 35.2488C27.6772 35.3688 27.4899 35.5059 27.3026 35.6258Z" fill="#B41DA7"/>
        <path opacity="0.05" d="M38.0284 21.4891C35.9343 22.363 33.5167 21.3521 32.6484 19.2444C31.7801 17.1368 32.7846 14.7035 34.8787 13.8296C36.9728 12.9557 39.3904 13.9667 40.2587 16.0744C41.127 18.182 40.1225 20.6152 38.0284 21.4891Z" fill="white"/>
        <path d="M36.4462 21.4559C38.5242 21.4559 40.2087 19.7605 40.2087 17.669C40.2087 15.5775 38.5242 13.8821 36.4462 13.8821C34.3682 13.8821 32.6836 15.5775 32.6836 17.669C32.6836 19.7605 34.3682 21.4559 36.4462 21.4559Z" fill="url(#paint2_linear)"/>
        <path opacity="0.5" d="M33.7728 18.7819C33.0407 16.9827 33.7728 14.9436 35.4242 14.0183C35.288 14.0526 35.1518 14.104 35.0156 14.1554C33.0918 14.9608 32.1724 17.1712 32.9726 19.1075C33.7728 21.0438 35.969 21.9691 37.8929 21.1638C38.0291 21.1123 38.1653 21.0438 38.2845 20.9753C36.4628 21.4893 34.5049 20.5812 33.7728 18.7819Z" fill="url(#paint3_linear)"/>
        <path opacity="0.5" d="M35.7992 20.6495C36.1227 20.5124 36.2589 20.1011 36.5824 19.9469C36.7186 19.8784 36.8718 19.8784 37.008 19.8441C38.2338 19.6042 38.7786 17.8393 40.0215 17.7879C40.0896 17.7879 40.1406 17.7879 40.2087 17.7879C40.2087 17.5651 40.2087 17.3595 40.1747 17.1367C40.1236 17.1881 40.0725 17.2395 40.0044 17.2909C39.6299 17.5994 39.0681 17.548 38.6595 17.8221C38.4041 18.0106 38.2508 18.3019 38.0465 18.5418C37.5358 19.1758 36.7356 19.4671 35.9695 19.6385C35.5438 19.7413 34.2329 19.7927 33.5859 20.1354C33.8243 20.4267 34.1137 20.6666 34.4202 20.8551C34.5223 20.7351 34.6415 20.6666 34.8969 20.6495C35.2033 20.6495 35.5098 20.7866 35.7992 20.6495Z" fill="url(#paint4_linear)"/>
        <path opacity="0.5" d="M40.1737 18.1821C39.697 18.3192 39.1862 18.5934 39.05 18.7305C38.9479 18.8504 38.8627 18.9704 38.7436 19.0732C38.5903 19.2274 38.386 19.3473 38.2669 19.5358C38.2158 19.6215 38.1817 19.7243 38.1307 19.81C37.8753 20.1356 37.2794 19.8957 36.99 20.187C36.9559 20.2212 36.9219 20.2726 36.9219 20.3241C36.9219 20.4611 37.0921 20.5125 37.2283 20.4954C37.5007 20.4783 37.7731 20.3926 38.0285 20.3069C38.2669 20.2212 38.5052 20.1527 38.7606 20.067C39.067 19.9642 39.3905 19.8614 39.5608 19.5872C39.714 19.3473 39.7991 19.1931 39.9353 19.056C40.0545 18.799 40.1396 18.4906 40.1737 18.1821Z" fill="url(#paint5_linear)"/>
        <path opacity="0.5" d="M38.9304 15.8345C38.8623 16.0058 38.8453 16.2286 38.6751 16.3143C38.4708 16.4342 38.1984 16.2457 37.96 16.2457C37.3982 16.2457 37.279 17.1025 36.7853 17.3595C36.3767 17.5651 35.7978 17.3252 35.5084 17.6851C35.4062 17.805 35.3722 17.9935 35.253 18.0792C35.0827 18.1991 34.8614 18.0963 34.6912 18.0278C34.0612 17.7708 33.3292 17.7879 32.6992 18.0278C32.7333 18.3876 32.8184 18.7646 32.9716 19.1245C33.0227 19.2273 33.0738 19.3472 33.1248 19.45C33.244 19.3644 33.3632 19.2615 33.4313 19.1245C33.4994 19.0045 33.5164 18.8674 33.6186 18.7646C33.8569 18.4904 34.2996 18.6789 34.606 18.8846C34.8955 19.1073 35.3041 19.3301 35.5935 19.1073C35.8319 18.9188 35.8148 18.5247 36.0362 18.3191C36.4277 17.9593 37.1598 18.4904 37.5854 18.1477C37.8919 17.8907 37.7727 17.3424 38.0962 17.1025C38.3346 16.914 38.6921 17.0168 38.9645 16.8626C39.339 16.6398 39.322 15.9887 39.7306 15.8173C39.7476 15.8173 39.7476 15.8173 39.7647 15.8002C39.6625 15.6117 39.5433 15.4404 39.4242 15.2861C39.1688 15.4061 38.9985 15.6117 38.9304 15.8345Z" fill="url(#paint6_linear)"/>
        <path opacity="0.5" d="M32.6836 17.3424C32.956 17.1025 33.2114 16.8455 33.4497 16.7427C33.7392 16.6227 34.1137 16.657 34.284 16.8969C34.3521 16.9997 34.3861 17.1197 34.4712 17.2053C34.6245 17.3767 34.9309 17.3424 35.1182 17.2053C35.3055 17.0683 35.4246 16.8455 35.5268 16.6227C35.5779 16.5371 35.629 16.4342 35.7141 16.4C35.8673 16.3143 36.0716 16.4171 36.2419 16.3657C36.4121 16.3143 36.4802 16.1087 36.4972 15.9373C36.5143 15.766 36.4632 15.5775 36.5143 15.4061C36.5824 15.0805 36.9058 14.8578 37.2123 14.8064C37.5358 14.7378 37.8593 14.7892 38.1827 14.8235C38.4551 14.8578 38.7105 14.8749 38.9829 14.8749C38.4892 14.4294 37.8933 14.121 37.2634 13.9839C37.1442 14.2409 37.042 14.4808 36.7867 14.5665C36.6164 14.6179 36.3951 14.5665 36.2589 14.6864C36.1057 14.8064 36.1057 15.0634 35.9695 15.2176C35.646 15.5432 35.0671 14.9949 34.6585 15.2005C34.4883 15.2862 34.3861 15.4747 34.2329 15.5603C33.9945 15.6803 33.6711 15.5775 33.3987 15.5089C32.973 16.023 32.7517 16.6741 32.6836 17.3424Z" fill="url(#paint7_linear)"/>
        <path opacity="0.05" d="M21.8728 19.1587C19.2509 20.3239 16.1864 19.1244 15.0286 16.4856C13.8709 13.8467 15.0627 10.7624 17.6846 9.59718C20.3065 8.43197 23.371 9.63145 24.5287 12.2703C25.6864 14.892 24.4946 17.9935 21.8728 19.1587Z" fill="white"/>
        <path d="M19.7774 19.1587C22.4007 19.1587 24.5274 17.0183 24.5274 14.3779C24.5274 11.7376 22.4007 9.59717 19.7774 9.59717C17.154 9.59717 15.0273 11.7376 15.0273 14.3779C15.0273 17.0183 17.154 19.1587 19.7774 19.1587Z" fill="url(#paint8_linear)"/>
        <path d="M21.8898 12.87C22.4687 12.4245 23.1667 12.1675 23.8818 11.9447C23.9669 12.0989 24.052 12.2703 24.1372 12.4416C24.4096 13.0585 24.5458 13.7097 24.5458 14.3437C23.337 15.3204 21.8217 15.8344 20.3235 16.2286C18.9274 16.6055 17.4973 16.8968 16.1864 17.4794C15.914 17.1539 15.6756 16.7769 15.4713 16.3656C16.1523 15.8516 16.8844 15.4232 17.7187 15.2176C18.3826 15.0462 19.1147 15.0291 19.7276 14.7378C20.5959 14.3265 21.1237 13.4526 21.8898 12.87ZM24.3585 15.6631C23.4051 16.1257 22.4176 16.5027 21.5493 17.0682C20.647 17.6679 19.8468 18.4733 18.8083 18.7303C18.5699 18.7817 18.3316 18.816 18.0932 18.8331C18.5869 19.0216 19.1317 19.1244 19.6766 19.1416C21.0726 18.0278 22.4346 16.8626 24.0861 16.3999C24.1882 16.16 24.2734 15.9201 24.3585 15.6631ZM15.6246 12.0647C15.5224 12.2531 15.4203 12.4588 15.3522 12.6473C15.931 12.356 16.4758 12.0304 17.0036 11.6705C17.5995 11.2593 18.1613 10.8138 18.7231 10.3511C19.0296 10.0941 19.3531 9.83706 19.6595 9.59717C19.336 9.59717 18.9955 9.64857 18.6721 9.71712C18.2124 10.1798 17.7868 10.6596 17.293 11.0708C16.7993 11.4821 16.2204 11.8248 15.6246 12.0647ZM20.8683 16.8968C21.0556 16.7083 20.7491 16.6569 20.6129 16.6912C20.2724 16.7426 19.9319 16.8112 19.5914 16.8968C18.9785 17.0339 18.3656 17.2224 17.7868 17.4452C17.4633 17.5651 16.9525 17.7022 16.5609 17.9078C16.7652 18.0963 16.9866 18.2677 17.2249 18.4219C17.4463 18.2505 17.6676 18.062 17.8208 17.9764C18.2635 17.7536 18.7231 17.6165 19.1998 17.5137C19.7447 17.3766 20.4597 17.3252 20.8683 16.8968ZM17.94 14.4979C18.5869 14.2923 19.302 14.3094 19.8979 13.9667C20.4767 13.624 20.8343 12.9728 21.4131 12.6473C21.5323 12.5787 22.0601 12.3046 22.026 12.1503C22.009 12.0133 21.7196 12.0818 21.6174 12.1161C21.4642 12.1846 21.311 12.3046 21.1918 12.4074C20.9024 12.6473 20.647 12.9557 20.3065 13.1099C19.8128 13.3327 19.2339 13.247 18.7231 13.3841C17.8889 13.6068 17.3441 14.3779 16.6971 14.9434C16.2715 15.3204 15.7948 15.6288 15.2841 15.8687C15.3181 15.9715 15.3692 16.0915 15.4032 16.1943C15.4713 16.1429 15.5394 16.0915 15.6075 16.0401C16.3396 15.4746 17.0376 14.7892 17.94 14.4979ZM19.1488 10.9509C18.5869 11.3107 18.0081 11.6191 17.4122 11.8762C17.0717 12.0133 16.6801 12.2017 16.6461 12.5616C16.8674 12.6301 17.1057 12.493 17.293 12.356C17.923 11.8933 18.5699 11.4649 19.2169 11.0365C19.6936 10.7281 20.1703 10.4197 20.6981 10.2654C20.9364 10.1969 21.1918 10.1626 21.4472 10.077C21.5153 10.0598 21.5663 10.0256 21.6344 9.99128C21.345 9.87133 21.0556 9.78566 20.7491 9.71712C20.2384 10.1284 19.7276 10.5739 19.1488 10.9509ZM21.2599 10.7966C20.8513 10.8995 20.4427 10.9509 20.0341 11.0537C19.0126 11.345 18.2124 12.1503 17.3441 12.7843C16.629 13.2984 15.8629 13.7268 15.0287 14.0524C14.9946 14.4807 15.0287 14.9091 15.1138 15.3204C16.3056 14.7378 17.0887 13.504 18.2635 12.8872C18.8764 12.5616 19.5574 12.4245 20.1873 12.1675C20.9875 11.8419 21.6855 11.3621 22.4687 10.9851C22.6219 10.9166 22.7751 10.848 22.9284 10.7795C22.7411 10.6082 22.5198 10.4368 22.2984 10.2997C21.992 10.5396 21.6344 10.6938 21.2599 10.7966Z" fill="url(#paint9_linear)"/>
        <path opacity="0.5" d="M16.4413 15.8515C15.4538 13.6068 16.3221 11.0193 18.3821 9.80273C18.2119 9.85414 18.0416 9.92268 17.8714 9.99122C15.4538 11.0708 14.3812 13.8809 15.4368 16.297C16.4923 18.7131 19.3015 19.8098 21.702 18.7474C21.8723 18.6788 22.0425 18.5932 22.1958 18.4904C19.9144 19.1929 17.4287 18.0962 16.4413 15.8515Z" fill="url(#paint10_linear)"/>
        <path d="M23.5742 11.5162C23.6934 11.6704 23.7955 11.8247 23.8807 11.996C24.6979 11.7904 25.2427 11.739 25.3108 11.9275C25.3789 12.116 25.0043 12.4758 24.2893 12.9384C23.3529 13.5553 21.8376 14.3607 20.1011 15.1318C18.3645 15.9029 16.7471 16.4855 15.6575 16.7768C14.8403 16.9824 14.2955 17.0338 14.2274 16.8453C14.1423 16.674 14.5338 16.297 15.2489 15.8343C15.1978 15.6458 15.1467 15.4745 15.1127 15.286C12.6951 16.5711 11.1799 17.6849 11.3671 18.1133C11.5544 18.5246 13.3931 18.1476 15.981 17.2394C17.2749 16.7939 18.7391 16.1942 20.2884 15.5088C21.8376 14.8233 23.2507 14.1208 24.4595 13.4696C26.8771 12.1674 28.3923 11.0536 28.2051 10.6252C28.0008 10.2139 26.162 10.5909 23.5742 11.5162Z" fill="url(#paint11_linear)"/>
        <path opacity="0.4" d="M32.6651 25.6359C33.013 25.6359 33.295 25.3521 33.295 25.0019C33.295 24.6518 33.013 24.3679 32.6651 24.3679C32.3172 24.3679 32.0352 24.6518 32.0352 25.0019C32.0352 25.3521 32.3172 25.6359 32.6651 25.6359Z" fill="url(#paint12_linear)"/>
        <path opacity="0.4" d="M13.0864 24.9332C14.0079 24.9332 14.7549 24.1814 14.7549 23.254C14.7549 22.3265 14.0079 21.5747 13.0864 21.5747C12.165 21.5747 11.418 22.3265 11.418 23.254C11.418 24.1814 12.165 24.9332 13.0864 24.9332Z" fill="url(#paint13_linear)"/>
        <path d="M11.6045 27.7263L11.7748 28.0519C11.8429 28.1547 11.928 28.2575 12.0302 28.3089L12.3536 28.4803C12.3707 28.4803 12.3707 28.4974 12.3536 28.5145L12.0302 28.6859C11.928 28.7544 11.8258 28.8401 11.7748 28.9429L11.6045 29.2685C11.6045 29.2856 11.5875 29.2856 11.5705 29.2685L11.4002 28.9429C11.3321 28.8401 11.247 28.7373 11.1448 28.6859L10.8214 28.5145C10.8043 28.5145 10.8043 28.4974 10.8214 28.4803L11.1448 28.3089C11.247 28.2404 11.3491 28.1547 11.4002 28.0519L11.5705 27.7263C11.5875 27.7263 11.6045 27.7263 11.6045 27.7263Z" fill="#EFEFEF"/>
        <path d="M29.8076 20.7865L29.9779 21.1121C30.046 21.2149 30.1311 21.3177 30.2333 21.3691L30.5568 21.5405C30.5738 21.5405 30.5738 21.5576 30.5568 21.5748L30.2333 21.7461C30.1311 21.8147 30.029 21.9003 29.9779 22.0031L29.8076 22.3287C29.8076 22.3459 29.7906 22.3459 29.7736 22.3287L29.6033 22.0031C29.5352 21.9003 29.4501 21.7975 29.348 21.7461L29.0245 21.5748C29.0075 21.5748 29.0075 21.5576 29.0245 21.5405L29.348 21.3691C29.4501 21.3006 29.5523 21.2149 29.6033 21.1121L29.7736 20.7865C29.7736 20.7694 29.7906 20.7694 29.8076 20.7865Z" fill="#EFEFEF"/>
        <path d="M41.0252 27.2294L41.0933 27.3494C41.1103 27.3836 41.1444 27.4179 41.1955 27.4522L41.3146 27.5207V27.5378L41.1955 27.6064C41.1614 27.6235 41.1274 27.6578 41.0933 27.7092L41.0252 27.8291H41.0082L40.9401 27.7092C40.9231 27.6749 40.889 27.6407 40.8379 27.6064L40.7188 27.5378V27.5207L40.8379 27.4522C40.872 27.435 40.906 27.4008 40.9401 27.3494L41.0252 27.2294C41.0082 27.2123 41.0252 27.2123 41.0252 27.2294Z" fill="#EFEFEF"/>
        <path d="M41.8416 6.76978L41.9097 6.88972C41.9267 6.92399 41.9608 6.95826 42.0119 6.99254L42.131 7.06108V7.07821L42.0119 7.14675C41.9778 7.16389 41.9438 7.19816 41.9097 7.24957L41.8416 7.35238H41.8246L41.7565 7.23243C41.7395 7.19816 41.7054 7.16389 41.6543 7.12962L41.5352 7.06108V7.04394L41.6543 6.9754C41.6884 6.95826 41.7224 6.92399 41.7565 6.87259L41.8416 6.76978C41.8246 6.76978 41.8416 6.76978 41.8416 6.76978Z" fill="#EFEFEF"/>
        <path d="M18.3121 24.2649L18.3972 24.4191C18.4312 24.4705 18.4653 24.5219 18.5164 24.5391L18.6696 24.6247V24.6419L18.5164 24.7275C18.4653 24.7618 18.4142 24.7961 18.3972 24.8475L18.3121 25.0017H18.295L18.2099 24.8475C18.1759 24.7961 18.1418 24.7447 18.0907 24.7275L17.9375 24.6419V24.6247L18.0907 24.5391C18.1418 24.5048 18.1929 24.4705 18.2099 24.4191L18.3121 24.2649C18.295 24.2649 18.3121 24.2649 18.3121 24.2649Z" fill="#EFEFEF"/>
        <path d="M25.2066 25.1218L25.2917 25.276C25.3258 25.3275 25.3598 25.3789 25.4109 25.396L25.5641 25.4817V25.4988L25.4109 25.5845C25.3598 25.6188 25.3087 25.653 25.2917 25.7044L25.2066 25.8587H25.1896L25.1044 25.7044C25.0704 25.653 25.0363 25.6016 24.9853 25.5845L24.832 25.4988V25.4817L24.9853 25.396C25.0363 25.3617 25.0874 25.3275 25.1044 25.276L25.2066 25.1218C25.1896 25.1218 25.1896 25.1218 25.2066 25.1218Z" fill="#EFEFEF"/>
        <path d="M24.5292 6.82109L24.6484 7.04385C24.6824 7.11239 24.7505 7.18093 24.8356 7.23234L25.057 7.35229V7.36942L24.8356 7.48937C24.7675 7.52364 24.6994 7.59218 24.6484 7.67786L24.5292 7.90062H24.5122L24.393 7.66072C24.3589 7.59218 24.2908 7.52364 24.2057 7.47223L23.9844 7.35229V7.33515L24.2057 7.2152C24.2738 7.18093 24.3419 7.11239 24.393 7.02671L24.5122 6.80396C24.5122 6.80396 24.5292 6.80396 24.5292 6.82109Z" fill="#EFEFEF"/>
        <path d="M30.3856 33.8788C30.4798 33.8788 30.5563 33.8019 30.5563 33.707C30.5563 33.6121 30.4798 33.5352 30.3856 33.5352C30.2913 33.5352 30.2148 33.6121 30.2148 33.707C30.2148 33.8019 30.2913 33.8788 30.3856 33.8788Z" fill="#EFEFEF"/>
        <path d="M18.6746 7.23327C18.7689 7.23327 18.8453 7.15635 18.8453 7.06146C18.8453 6.96657 18.7689 6.88965 18.6746 6.88965C18.5803 6.88965 18.5039 6.96657 18.5039 7.06146C18.5039 7.15635 18.5803 7.23327 18.6746 7.23327Z" fill="#EFEFEF"/>
        <path d="M11.4168 14.8929C11.5111 14.8929 11.5875 14.816 11.5875 14.7211C11.5875 14.6262 11.5111 14.5493 11.4168 14.5493C11.3225 14.5493 11.2461 14.6262 11.2461 14.7211C11.2461 14.816 11.3225 14.8929 11.4168 14.8929Z" fill="#EFEFEF"/>
        <path d="M34.9285 23.5975C35.0228 23.5975 35.0992 23.5206 35.0992 23.4257C35.0992 23.3308 35.0228 23.2539 34.9285 23.2539C34.8342 23.2539 34.7578 23.3308 34.7578 23.4257C34.7578 23.5206 34.8342 23.5975 34.9285 23.5975Z" fill="#EFEFEF"/>
        <path d="M26.8621 16.3837C26.9564 16.3837 27.0328 16.3067 27.0328 16.2119C27.0328 16.117 26.9564 16.04 26.8621 16.04C26.7678 16.04 26.6914 16.117 26.6914 16.2119C26.6914 16.3067 26.7678 16.3837 26.8621 16.3837Z" fill="#EFEFEF"/>
        <path d="M11.2303 38.4536C11.3057 38.4536 11.3669 38.3921 11.3669 38.3162C11.3669 38.2402 11.3057 38.1787 11.2303 38.1787C11.1549 38.1787 11.0938 38.2402 11.0938 38.3162C11.0938 38.3921 11.1549 38.4536 11.2303 38.4536Z" fill="#EFEFEF"/>
        <path d="M41.6717 14.1558C41.7471 14.1558 41.8083 14.0942 41.8083 14.0183C41.8083 13.9424 41.7471 13.8809 41.6717 13.8809C41.5963 13.8809 41.5352 13.9424 41.5352 14.0183C41.5352 14.0942 41.5963 14.1558 41.6717 14.1558Z" fill="#EFEFEF"/>
        <path d="M10.8454 38.6522C10.8926 38.5929 10.8831 38.5064 10.8242 38.459C10.7653 38.4115 10.6794 38.4211 10.6322 38.4804C10.5851 38.5396 10.5946 38.6261 10.6535 38.6736C10.7124 38.721 10.7983 38.7114 10.8454 38.6522Z" fill="#EFEFEF"/>
        <path d="M34.7449 37.5114C34.8392 37.5114 34.9156 37.4344 34.9156 37.3395C34.9156 37.2446 34.8392 37.1677 34.7449 37.1677C34.6506 37.1677 34.5742 37.2446 34.5742 37.3395C34.5742 37.4344 34.6506 37.5114 34.7449 37.5114Z" fill="#EFEFEF"/>
        <path d="M30.5525 32.5756C30.5901 32.5756 30.6206 32.5449 30.6206 32.507C30.6206 32.4692 30.5901 32.4385 30.5525 32.4385C30.5149 32.4385 30.4844 32.4692 30.4844 32.507C30.4844 32.5449 30.5149 32.5756 30.5525 32.5756Z" fill="#EFEFEF"/>
        <path d="M34.1658 36.911C34.2034 36.911 34.2339 36.8803 34.2339 36.8425C34.2339 36.8046 34.2034 36.7739 34.1658 36.7739C34.1281 36.7739 34.0977 36.8046 34.0977 36.8425C34.0977 36.8803 34.1281 36.911 34.1658 36.911Z" fill="#EFEFEF"/>
        <path d="M35.2361 36.4139C35.2737 36.4139 35.3042 36.3832 35.3042 36.3454C35.3042 36.3075 35.2737 36.2769 35.2361 36.2769C35.1985 36.2769 35.168 36.3075 35.168 36.3454C35.168 36.3832 35.1985 36.4139 35.2361 36.4139Z" fill="#EFEFEF"/>
        <path d="M41.3142 32.5756C41.3518 32.5756 41.3823 32.5449 41.3823 32.507C41.3823 32.4692 41.3518 32.4385 41.3142 32.4385C41.2766 32.4385 41.2461 32.4692 41.2461 32.507C41.2461 32.5449 41.2766 32.5756 41.3142 32.5756Z" fill="#EFEFEF"/>
        <path d="M43.2712 7.96911C43.3088 7.96911 43.3393 7.93843 43.3393 7.90057C43.3393 7.86272 43.3088 7.83203 43.2712 7.83203C43.2336 7.83203 43.2031 7.86272 43.2031 7.90057C43.2031 7.93843 43.2336 7.96911 43.2712 7.96911Z" fill="#EFEFEF"/>
        <path d="M10.2439 38.2474C10.2815 38.2474 10.312 38.2167 10.312 38.1789C10.312 38.141 10.2815 38.1104 10.2439 38.1104C10.2063 38.1104 10.1758 38.141 10.1758 38.1789C10.1758 38.2167 10.2063 38.2474 10.2439 38.2474Z" fill="#EFEFEF"/>
        <path d="M34.4725 8.15845C34.5479 8.15845 34.6091 8.09691 34.6091 8.021C34.6091 7.94508 34.5479 7.88354 34.4725 7.88354C34.3971 7.88354 34.3359 7.94508 34.3359 8.021C34.3359 8.09691 34.3971 8.15845 34.4725 8.15845Z" fill="#EFEFEF"/>
        <path d="M34.0798 8.36847C34.1269 8.30922 34.1174 8.22272 34.0586 8.17527C33.9997 8.12783 33.9137 8.1374 33.8666 8.19666C33.8195 8.25592 33.829 8.34242 33.8879 8.38986C33.9467 8.43731 34.0327 8.42773 34.0798 8.36847Z" fill="#EFEFEF"/>
        <path d="M15.5915 21.6243C15.6387 21.5651 15.6292 21.4786 15.5703 21.4311C15.5114 21.3837 15.4255 21.3933 15.3783 21.4525C15.3312 21.5118 15.3407 21.5983 15.3996 21.6457C15.4584 21.6932 15.5444 21.6836 15.5915 21.6243Z" fill="#EFEFEF"/>
        <path d="M13.0642 6.85113C13.1114 6.79186 13.1018 6.70536 13.043 6.65791C12.9841 6.61047 12.8981 6.62005 12.851 6.67931C12.8038 6.73858 12.8134 6.82508 12.8722 6.87253C12.9311 6.91997 13.0171 6.91039 13.0642 6.85113Z" fill="#EFEFEF"/>
        <path d="M29.7828 27.4339C29.8651 27.3305 29.8485 27.1795 29.7457 27.0967C29.643 27.0139 29.493 27.0306 29.4107 27.134C29.3284 27.2374 29.345 27.3884 29.4478 27.4712C29.5505 27.554 29.7005 27.5373 29.7828 27.4339Z" fill="#EFEFEF"/>
        <path d="M33.5017 7.96911C33.5393 7.96911 33.5698 7.93843 33.5698 7.90057C33.5698 7.86272 33.5393 7.83203 33.5017 7.83203C33.4641 7.83203 33.4336 7.86272 33.4336 7.90057C33.4336 7.93843 33.4641 7.96911 33.5017 7.96911Z" fill="#EFEFEF"/>
        <path d="M35.1697 12.9042C35.2073 12.9042 35.2378 12.8735 35.2378 12.8356C35.2378 12.7978 35.2073 12.7671 35.1697 12.7671C35.1321 12.7671 35.1016 12.7978 35.1016 12.8356C35.1016 12.8735 35.1321 12.9042 35.1697 12.9042Z" fill="#EFEFEF"/>
        <path d="M30.2322 12.2015C30.2698 12.2015 30.3003 12.1708 30.3003 12.133C30.3003 12.0951 30.2698 12.0645 30.2322 12.0645C30.1946 12.0645 30.1641 12.0951 30.1641 12.133C30.1641 12.1708 30.1946 12.2015 30.2322 12.2015Z" fill="#EFEFEF"/>
        <path d="M15.7595 20.8722C15.7971 20.8722 15.8276 20.8415 15.8276 20.8036C15.8276 20.7658 15.7971 20.7351 15.7595 20.7351C15.7219 20.7351 15.6914 20.7658 15.6914 20.8036C15.6914 20.8415 15.7219 20.8722 15.7595 20.8722Z" fill="#EFEFEF"/>
        <path d="M13.0173 7.88367C13.0549 7.88367 13.0854 7.85298 13.0854 7.81512C13.0854 7.77727 13.0549 7.74658 13.0173 7.74658C12.9797 7.74658 12.9492 7.77727 12.9492 7.81512C12.9492 7.85298 12.9797 7.88367 13.0173 7.88367Z" fill="#EFEFEF"/>
        <path d="M10.3142 7.3009C10.3518 7.3009 10.3823 7.27021 10.3823 7.23236C10.3823 7.19451 10.3518 7.16382 10.3142 7.16382C10.2766 7.16382 10.2461 7.19451 10.2461 7.23236C10.2461 7.27021 10.2766 7.3009 10.3142 7.3009Z" fill="#EFEFEF"/>
        <path d="M29.6014 28.7722C29.6768 28.7722 29.738 28.7107 29.738 28.6348C29.738 28.5589 29.6768 28.4973 29.6014 28.4973C29.526 28.4973 29.4648 28.5589 29.4648 28.6348C29.4648 28.7107 29.526 28.7722 29.6014 28.7722Z" fill="#EFEFEF"/>
        <path d="M12.4236 14.1207C12.4612 14.1207 12.4917 14.09 12.4917 14.0522C12.4917 14.0143 12.4612 13.9836 12.4236 13.9836C12.386 13.9836 12.3555 14.0143 12.3555 14.0522C12.3555 14.09 12.386 14.1207 12.4236 14.1207Z" fill="#EFEFEF"/>
        <path d="M41.8767 14.5321C41.9143 14.5321 41.9448 14.5014 41.9448 14.4636C41.9448 14.4257 41.9143 14.395 41.8767 14.395C41.8391 14.395 41.8086 14.4257 41.8086 14.4636C41.8086 14.5014 41.8391 14.5321 41.8767 14.5321Z" fill="#EFEFEF"/>
    </g>
    <defs>
        <linearGradient id="paint0_linear" x1="13.7934" y1="11.1555" x2="55.099" y2="34.0696" gradientUnits="userSpaceOnUse">
            <stop stop-color="#481F85"/>
            <stop offset="0.99842" stop-color="#64249B"/>
        </linearGradient>
        <linearGradient id="paint1_linear" x1="14.7792" y1="37.2686" x2="27.9644" y2="31.5293" gradientUnits="userSpaceOnUse">
            <stop stop-color="#FF17D0"/>
            <stop offset="1" stop-color="#FFD394"/>
        </linearGradient>
        <linearGradient id="paint2_linear" x1="32.9605" y1="19.116" x2="39.9392" y2="16.2439" gradientUnits="userSpaceOnUse">
            <stop stop-color="#9796FE"/>
            <stop offset="0.9927" stop-color="#FF7DFF"/>
        </linearGradient>
        <linearGradient id="paint3_linear" x1="32.9601" y1="19.1152" x2="36.8556" y2="17.5119" gradientUnits="userSpaceOnUse">
            <stop stop-color="#9796FE"/>
            <stop offset="0.9927" stop-color="#FF7DFF"/>
        </linearGradient>
        <linearGradient id="paint4_linear" x1="33.799" y1="20.6451" x2="40.4866" y2="17.8927" gradientUnits="userSpaceOnUse">
            <stop stop-color="#9796FE"/>
            <stop offset="0.9927" stop-color="#FF7DFF"/>
        </linearGradient>
        <linearGradient id="paint5_linear" x1="36.8867" y1="20.2154" x2="40.4148" y2="18.7634" gradientUnits="userSpaceOnUse">
            <stop stop-color="#9796FE"/>
            <stop offset="0.9927" stop-color="#FF7DFF"/>
        </linearGradient>
        <linearGradient id="paint6_linear" x1="32.9387" y1="19.0653" x2="39.8915" y2="16.2038" gradientUnits="userSpaceOnUse">
            <stop stop-color="#9796FE"/>
            <stop offset="0.9927" stop-color="#FF7DFF"/>
        </linearGradient>
        <linearGradient id="paint7_linear" x1="32.5649" y1="17.0486" x2="38.8221" y2="14.4734" gradientUnits="userSpaceOnUse">
            <stop stop-color="#9796FE"/>
            <stop offset="0.9927" stop-color="#FF7DFF"/>
        </linearGradient>
        <linearGradient id="paint8_linear" x1="15.4331" y1="16.3012" x2="24.1377" y2="12.4849" gradientUnits="userSpaceOnUse">
            <stop stop-color="#ED1771"/>
            <stop offset="0.1382" stop-color="#EE1E73"/>
            <stop offset="0.3452" stop-color="#F13378"/>
            <stop offset="0.5955" stop-color="#F65481"/>
            <stop offset="0.8772" stop-color="#FC838D"/>
            <stop offset="0.9842" stop-color="#FF9692"/>
        </linearGradient>
        <linearGradient id="paint9_linear" x1="15.125" y1="16.851" x2="24.326" y2="11.4349" gradientUnits="userSpaceOnUse">
            <stop stop-color="#FF327E"/>
            <stop offset="0.1285" stop-color="#FF397F"/>
            <stop offset="0.3212" stop-color="#FF4E83"/>
            <stop offset="0.5542" stop-color="#FF6F89"/>
            <stop offset="0.8162" stop-color="#FF9E91"/>
            <stop offset="0.9842" stop-color="#FFBF97"/>
        </linearGradient>
        <linearGradient id="paint10_linear" x1="15.4339" y1="16.3011" x2="20.2929" y2="14.1708" gradientUnits="userSpaceOnUse">
            <stop stop-color="#9796FE"/>
            <stop offset="0.9927" stop-color="#FF7DFF"/>
        </linearGradient>
        <linearGradient id="paint11_linear" x1="12.5509" y1="16.5543" x2="29.7668" y2="11.4214" gradientUnits="userSpaceOnUse">
            <stop stop-color="#FF75A4"/>
            <stop offset="1" stop-color="#FFE76F"/>
        </linearGradient>
        <linearGradient id="paint12_linear" x1="32.0379" y1="25.0103" x2="33.3042" y2="25.0103" gradientUnits="userSpaceOnUse">
            <stop stop-color="#BD1ACD"/>
            <stop offset="0.193" stop-color="#B61BC9"/>
            <stop offset="0.4806" stop-color="#A11EBE"/>
            <stop offset="0.8258" stop-color="#8022AC"/>
            <stop offset="1" stop-color="#6D25A2"/>
        </linearGradient>
        <linearGradient id="paint13_linear" x1="11.4186" y1="23.2553" x2="14.7675" y2="23.2553" gradientUnits="userSpaceOnUse">
            <stop stop-color="#BD1ACD"/>
            <stop offset="0.193" stop-color="#B61BC9"/>
            <stop offset="0.4806" stop-color="#A11EBE"/>
            <stop offset="0.8258" stop-color="#8022AC"/>
            <stop offset="1" stop-color="#6D25A2"/>
        </linearGradient>
        <clipPath id="clip0">
            <rect x="10.1758" y="6.63281" width="33.1651" height="37.9891" fill="white"/>
        </clipPath>
    </defs>
</svg>

