<svg width="290" height="65" viewBox="0 0 290 65" fill="none" xmlns="http://www.w3.org/2000/svg">
    <path d="M47.3667 1H10.6333C4.76071 1 0 5.76071 0 11.6333V48.3667C0 54.2393 4.76071 59 10.6333 59H47.3667C53.2393 59 58 54.2393 58 48.3667V11.6333C58 5.76071 53.2393 1 47.3667 1Z" fill="white"/>
    <path fill-rule="evenodd" clip-rule="evenodd" d="M27.6445 32.9893C27.6726 32.9665 27.7004 32.9434 27.7279 32.9199L27.6445 32.9893Z" fill="#4310D3"/>
    <path d="M11.1507 31.6816C12.0662 38.2778 18.2053 42.8759 24.8628 41.9518C26.6023 41.7104 28.2052 41.1158 29.6076 40.2514L27.064 32.1448L27.0094 32.2385C26.3448 33.3477 25.196 34.1589 23.8078 34.3515C21.3869 34.6875 19.1545 33.0155 18.8216 30.6169C18.4886 28.2183 20.1814 26.0015 22.6022 25.6655C23.9984 25.4716 25.3317 25.9365 26.2742 26.8327L26.4736 18.3805C24.9179 17.9536 23.2495 17.8289 21.5472 18.0651C14.8899 18.9891 10.2351 25.0855 11.1507 31.6816Z" fill="black"/>
    <path fill-rule="evenodd" clip-rule="evenodd" d="M27.0658 32.1444L29.6093 40.251C31.2599 39.2337 32.633 37.8427 33.6246 36.2139L42.5543 19.4525C43.1354 18.3619 42.7406 17.0068 41.6645 16.399C39.054 14.9244 35.7412 15.9004 34.347 18.5548L32.4587 22.1498L32.6889 22.4238L28.7113 29.244L27.0658 32.1444Z" fill="black"/>
    <path fill-rule="evenodd" clip-rule="evenodd" d="M32.4565 22.1494L46.8208 37.397C47.6886 38.3182 47.6704 39.7615 46.7797 40.6605C44.6884 42.7711 41.2613 42.7183 39.2361 40.5443L28.7091 29.2437L26.2738 26.8319L26.4732 18.3798C28.9273 19.053 31.1013 20.478 32.6867 22.4235L32.4565 22.1494Z" fill="black"/>
    <path fill-rule="evenodd" clip-rule="evenodd" d="M26.0234 30.5577C26.0515 30.535 26.0792 30.5118 26.1068 30.4883L26.0234 30.5577Z" fill="#EEEEEE"/>
    <path d="M96.056 19.4H88.256L86.768 23H82.784L90.272 6.2H94.112L101.624 23H97.544L96.056 19.4ZM94.832 16.448L92.168 10.016L89.504 16.448H94.832ZM103.367 6.2H107.255V19.832H115.679V23H103.367V6.2ZM125.123 6.2C126.611 6.2 127.899 6.448 128.987 6.944C130.091 7.44 130.939 8.144 131.531 9.056C132.123 9.968 132.419 11.048 132.419 12.296C132.419 13.528 132.123 14.608 131.531 15.536C130.939 16.448 130.091 17.152 128.987 17.648C127.899 18.128 126.611 18.368 125.123 18.368H121.739V23H117.851V6.2H125.123ZM124.907 15.2C126.075 15.2 126.963 14.952 127.571 14.456C128.179 13.944 128.483 13.224 128.483 12.296C128.483 11.352 128.179 10.632 127.571 10.136C126.963 9.624 126.075 9.368 124.907 9.368H121.739V15.2H124.907ZM150.603 6.2V23H146.715V16.112H139.083V23H135.195V6.2H139.083V12.824H146.715V6.2H150.603ZM165.642 19.4H157.842L156.354 23H152.37L159.858 6.2H163.698L171.21 23H167.13L165.642 19.4ZM164.418 16.448L161.754 10.016L159.09 16.448H164.418ZM98 48.88V52H84.992V35.2H97.688V38.32H88.856V41.968H96.656V44.992H88.856V48.88H98ZM101.094 35.2H108.726C110.55 35.2 112.158 35.552 113.55 36.256C114.958 36.944 116.046 37.92 116.814 39.184C117.598 40.448 117.99 41.92 117.99 43.6C117.99 45.28 117.598 46.752 116.814 48.016C116.046 49.28 114.958 50.264 113.55 50.968C112.158 51.656 110.55 52 108.726 52H101.094V35.2ZM108.534 48.808C110.214 48.808 111.55 48.344 112.542 47.416C113.55 46.472 114.054 45.2 114.054 43.6C114.054 42 113.55 40.736 112.542 39.808C111.55 38.864 110.214 38.392 108.534 38.392H104.982V48.808H108.534ZM128.386 52.288C125.986 52.288 124.114 51.624 122.77 50.296C121.442 48.968 120.778 47.072 120.778 44.608V35.2H124.666V44.464C124.666 47.472 125.914 48.976 128.41 48.976C129.626 48.976 130.554 48.616 131.194 47.896C131.834 47.16 132.154 46.016 132.154 44.464V35.2H135.994V44.608C135.994 47.072 135.322 48.968 133.978 50.296C132.65 51.624 130.786 52.288 128.386 52.288ZM147.876 52.288C146.164 52.288 144.612 51.92 143.22 51.184C141.844 50.432 140.756 49.4 139.956 48.088C139.172 46.76 138.78 45.264 138.78 43.6C138.78 41.936 139.172 40.448 139.956 39.136C140.756 37.808 141.844 36.776 143.22 36.04C144.612 35.288 146.172 34.912 147.9 34.912C149.356 34.912 150.668 35.168 151.836 35.68C153.02 36.192 154.012 36.928 154.812 37.888L152.316 40.192C151.18 38.88 149.772 38.224 148.092 38.224C147.052 38.224 146.124 38.456 145.308 38.92C144.492 39.368 143.852 40 143.388 40.816C142.94 41.632 142.716 42.56 142.716 43.6C142.716 44.64 142.94 45.568 143.388 46.384C143.852 47.2 144.492 47.84 145.308 48.304C146.124 48.752 147.052 48.976 148.092 48.976C149.772 48.976 151.18 48.312 152.316 46.984L154.812 49.288C154.012 50.264 153.02 51.008 151.836 51.52C150.652 52.032 149.332 52.288 147.876 52.288ZM168.173 48.4H160.373L158.885 52H154.901L162.389 35.2H166.229L173.741 52H169.661L168.173 48.4ZM166.949 45.448L164.285 39.016L161.621 45.448H166.949ZM178.12 38.368H172.744V35.2H187.384V38.368H182.008V52H178.12V38.368ZM189.476 35.2H193.364V52H189.476V35.2ZM205.487 52.288C203.743 52.288 202.167 51.912 200.759 51.16C199.367 50.408 198.271 49.376 197.471 48.064C196.687 46.736 196.295 45.248 196.295 43.6C196.295 41.952 196.687 40.472 197.471 39.16C198.271 37.832 199.367 36.792 200.759 36.04C202.167 35.288 203.743 34.912 205.487 34.912C207.231 34.912 208.799 35.288 210.191 36.04C211.583 36.792 212.679 37.832 213.479 39.16C214.279 40.472 214.679 41.952 214.679 43.6C214.679 45.248 214.279 46.736 213.479 48.064C212.679 49.376 211.583 50.408 210.191 51.16C208.799 51.912 207.231 52.288 205.487 52.288ZM205.487 48.976C206.479 48.976 207.375 48.752 208.175 48.304C208.975 47.84 209.599 47.2 210.047 46.384C210.511 45.568 210.743 44.64 210.743 43.6C210.743 42.56 210.511 41.632 210.047 40.816C209.599 40 208.975 39.368 208.175 38.92C207.375 38.456 206.479 38.224 205.487 38.224C204.495 38.224 203.599 38.456 202.799 38.92C201.999 39.368 201.367 40 200.903 40.816C200.455 41.632 200.231 42.56 200.231 43.6C200.231 44.64 200.455 45.568 200.903 46.384C201.367 47.2 201.999 47.84 202.799 48.304C203.599 48.752 204.495 48.976 205.487 48.976ZM233.009 35.2V52H229.817L221.441 41.8V52H217.601V35.2H220.817L229.169 45.4V35.2H233.009Z" fill="white"/>
</svg>
