<svg width="22" height="22" viewBox="0 0 22 22" fill="none" xmlns="http://www.w3.org/2000/svg">
    <path d="M19.2196 2.94141H2.78037C1.2473 2.94141 0 4.18871 0 5.72178V16.2759C0 17.809 1.2473 19.0563 2.78037 19.0563H19.2196C20.7527 19.0563 22 17.809 22 16.2759V5.72178C22 4.18871 20.7527 2.94141 19.2196 2.94141ZM18.7853 4.73488L11 10.7489L3.21475 4.73488H18.7853ZM19.2196 17.2629H2.78037C2.23623 17.2629 1.79348 16.8202 1.79348 16.276V5.90328L10.4518 12.5918C10.6132 12.7165 10.8067 12.7788 11 12.7788C11.1933 12.7788 11.3868 12.7165 11.5482 12.5918L20.2065 5.90328V16.2759C20.2065 16.8202 19.7638 17.2629 19.2196 17.2629Z" fill="#474BFF"/>
</svg>
