<svg width="22" height="22" viewBox="0 0 22 22" fill="none" xmlns="http://www.w3.org/2000/svg">
    <g clip-path="url(#clip0)">
        <path d="M19.4791 20.1816H2.52089C1.13028 20.1816 0 19.0514 0 17.6608V6.20236C0 4.81175 1.13028 3.68164 2.52089 3.68164H8.02089C8.40039 3.68164 8.70839 3.98964 8.70839 4.36914C8.70839 4.74864 8.40039 5.05664 8.02089 5.05664H2.52089C1.88928 5.05664 1.375 5.57076 1.375 6.20236V17.6608C1.375 18.2924 1.88928 18.8066 2.52089 18.8066H19.4791C20.1107 18.8066 20.625 18.2924 20.625 17.6608V6.20236C20.625 5.57076 20.1107 5.05664 19.4791 5.05664H13.9791C13.5996 5.05664 13.2916 4.74864 13.2916 4.36914C13.2916 3.98964 13.5996 3.68164 13.9791 3.68164H19.4791C20.8697 3.68164 22 4.81175 22 6.20236V17.6608C22 19.0514 20.8697 20.1816 19.4791 20.1816Z" fill="#474BFF"/>
        <path d="M13.0631 6.88927H8.9381C8.05354 6.88927 7.33398 6.16971 7.33398 5.28516V3.45177C7.33398 2.56721 8.05354 1.84766 8.9381 1.84766H13.0631C13.9476 1.84766 14.6672 2.56721 14.6672 3.45177V5.28516C14.6672 6.16971 13.9476 6.88927 13.0631 6.88927ZM8.9381 3.22266C8.81154 3.22266 8.70898 3.32538 8.70898 3.45177V5.28516C8.70898 5.41171 8.81154 5.51427 8.9381 5.51427H13.0631C13.1897 5.51427 13.2922 5.41171 13.2922 5.28516V3.45177C13.2922 3.32538 13.1897 3.22266 13.0631 3.22266H8.9381Z" fill="#474BFF"/>
        <path d="M6.8756 12.8471C5.61238 12.8471 4.58398 11.8185 4.58398 10.5555C4.58398 9.29224 5.61238 8.26367 6.8756 8.26367C8.13881 8.26367 9.16721 9.29224 9.16721 10.5555C9.16721 11.8185 8.13881 12.8471 6.8756 12.8471ZM6.8756 9.63867C6.37054 9.63867 5.95898 10.0502 5.95898 10.5555C5.95898 11.0605 6.37054 11.4721 6.8756 11.4721C7.38065 11.4721 7.79221 11.0605 7.79221 10.5555C7.79221 10.0502 7.38065 9.63867 6.8756 9.63867Z" fill="#474BFF"/>
        <path d="M10.3125 17.4305C9.933 17.4305 9.625 17.1225 9.625 16.743V16.2846C9.625 15.653 9.11072 15.1387 8.47911 15.1387H5.27089C4.63928 15.1387 4.125 15.653 4.125 16.2846V16.743C4.125 17.1225 3.817 17.4305 3.4375 17.4305C3.058 17.4305 2.75 17.1225 2.75 16.743V16.2846C2.75 14.894 3.88028 13.7637 5.27089 13.7637H8.47911C9.86972 13.7637 11 14.894 11 16.2846V16.743C11 17.1225 10.692 17.4305 10.3125 17.4305Z" fill="#474BFF"/>
        <path d="M18.5631 10.0977H13.5215C13.142 10.0977 12.834 9.78966 12.834 9.41016C12.834 9.03065 13.142 8.72266 13.5215 8.72266H18.5631C18.9426 8.72266 19.2506 9.03065 19.2506 9.41016C19.2506 9.78966 18.9426 10.0977 18.5631 10.0977Z" fill="#474BFF"/>
        <path d="M18.5631 13.7637H13.5215C13.142 13.7637 12.834 13.4557 12.834 13.0762C12.834 12.6967 13.142 12.3887 13.5215 12.3887H18.5631C18.9426 12.3887 19.2506 12.6967 19.2506 13.0762C19.2506 13.4557 18.9426 13.7637 18.5631 13.7637Z" fill="#474BFF"/>
        <path d="M18.5631 17.4316H13.5215C13.142 17.4316 12.834 17.1236 12.834 16.7441C12.834 16.3646 13.142 16.0566 13.5215 16.0566H18.5631C18.9426 16.0566 19.2506 16.3646 19.2506 16.7441C19.2506 17.1236 18.9426 17.4316 18.5631 17.4316Z" fill="#474BFF"/>
    </g>
    <defs>
        <clipPath id="clip0">
            <rect width="22" height="22" fill="white"/>
        </clipPath>
    </defs>
</svg>
