<svg width="22" height="22" viewBox="0 0 22 22" fill="none" xmlns="http://www.w3.org/2000/svg">
    <g clip-path="url(#clip0)">
        <path d="M21.4355 16.2264L18.7006 13.4915C17.9466 12.7375 16.7196 12.7375 15.9657 13.4915L14.7225 14.7347C14.1513 15.3059 13.2218 15.3057 12.6508 14.7349L7.2625 9.34198C6.68994 8.76942 6.68985 7.84271 7.2625 7.27007C7.46273 7.06983 8.0377 6.49487 8.50563 6.02694C9.25634 5.27627 9.26682 4.05316 8.5049 3.29133L5.77071 0.565728C5.01669 -0.188246 3.7898 -0.188246 3.0378 0.563751C2.47508 1.12157 2.29358 1.30153 2.04127 1.55165C-0.677797 4.27067 -0.677798 8.69487 2.04114 11.4138L10.5787 19.9558C13.3041 22.6813 17.7153 22.6815 20.441 19.9558L21.4355 18.9613C22.1895 18.2073 22.1895 16.9805 21.4355 16.2264ZM3.94745 1.47735C4.19878 1.22603 4.60767 1.22599 4.85981 1.47804L7.594 4.20364C7.84593 4.45557 7.84593 4.8633 7.594 5.11527L7.13815 5.57108L3.49396 1.92689L3.94745 1.47735ZM11.4905 19.0443L2.9529 10.5022C0.849228 8.39856 0.733599 5.09533 2.59729 2.85352L6.2309 6.48713C5.27613 7.56947 5.31592 9.21875 6.35066 10.2535L11.7388 15.6461C11.7388 15.6461 11.7389 15.6462 11.7389 15.6463C12.7726 16.6799 14.4217 16.7223 15.5054 15.7662L19.1391 19.3999C16.9044 21.2604 13.6086 21.1625 11.4905 19.0443ZM20.5239 18.0497L20.0681 18.5056L16.4215 14.859L16.8773 14.4031C17.1287 14.1518 17.5376 14.1518 17.789 14.4031L20.5239 17.1381C20.7752 17.3894 20.7752 17.7984 20.5239 18.0497Z" fill="#474BFF"/>
    </g>
    <defs>
        <clipPath id="clip0">
            <rect width="22" height="22" fill="white"/>
        </clipPath>
    </defs>
</svg>
