<svg width="1065" height="716" viewBox="0 0 1065 716" fill="none" xmlns="http://www.w3.org/2000/svg">
    <path d="M1034 689.5C1034 674.983 802.417 663 517 663C231.583 663 0 674.752 0 689.5C0 704.017 231.583 716 517 716C802.417 716 1034 704.017 1034 689.5Z" fill="#CCE2FF"/>
    <path d="M98.8668 677.683C43.5413 677.489 -1.52221 637.904 0.0393994 589.588C0.931747 563.393 12.0861 537.974 46.4414 524.197C136.569 487.717 10.7476 250.6 170.255 226.928C329.762 203.255 323.292 22.6034 510.016 157.655C696.739 292.707 730.202 110.309 851.785 205.001C973.367 299.693 771.697 420.191 922.726 482.09C1022.22 523.033 989.652 596.38 955.743 641.591C937.45 666.234 905.772 680.787 872.086 680.593L98.8668 677.683Z" fill="#E7F3FE"/>
    <path opacity="0.44" d="M872.308 680.787C905.994 680.981 937.45 666.233 955.966 641.784C989.652 596.573 1022.45 523.032 922.949 482.284C771.919 420.191 973.367 299.886 851.561 205C729.756 110.115 696.293 292.512 509.792 157.655C463.836 124.474 429.704 110.309 401.818 108.368C411.188 113.996 420.111 121.369 428.143 131.071C495.961 213.732 536.563 273.885 678.223 263.406C819.883 252.928 614.866 467.925 726.41 492.762C800.028 509.255 790.212 608.022 736.895 680.398L872.308 680.787Z" fill="#BAE6F7"/>
    <path d="M403.631 185.271C403.631 185.041 386.145 184.12 370.27 176.065C354.395 168.7 340.36 154.661 348.183 140.852C360.147 121.749 326.325 105.639 337.829 95.0516C349.563 85.6154 351.864 93.4405 347.492 72.4967C343.811 51.0927 358.536 46.0293 366.819 26.6966C376.252 7.36391 398.109 21.8634 392.587 46.9499C388.446 72.957 398.339 46.0293 405.702 57.7671C411.914 67.4334 387.296 109.091 398.109 105.178C408.232 100.575 416.975 107.019 415.595 118.527C411.914 145.685 403.171 184.58 403.631 185.271Z" fill="#D8ECFF"/>
    <path d="M411.685 196.088C411.455 196.088 411.455 196.088 411.455 195.858C397.88 179.977 382.465 155.581 374.873 127.273V127.043H374.643C367.51 122.67 361.068 116.916 355.086 110.702C353.015 108.631 351.175 106.559 349.104 104.488C349.104 104.258 348.874 104.258 349.104 104.027C349.104 103.797 349.334 103.797 349.564 103.797C349.564 103.797 349.564 103.797 349.794 103.797C351.635 105.869 353.706 107.94 355.546 109.781C361.068 115.535 366.82 121.059 373.262 125.201C373.722 125.432 373.952 125.662 374.413 125.892C374.413 125.432 374.183 124.971 374.183 124.511C371.192 112.543 369.351 99.8848 368.891 86.3058C368.891 86.0757 368.891 86.0757 368.891 85.8455L368.661 85.6154C368.661 85.6154 368.661 85.6154 368.431 85.6154C363.369 78.0204 359.228 69.2746 356.467 59.8384C356.467 59.6083 356.467 59.6083 356.467 59.3781C356.697 59.148 356.697 59.148 356.927 59.3781C356.927 59.3781 356.927 59.3781 357.157 59.6083C359.688 68.1239 363.369 76.1792 367.74 83.3139C367.97 83.7742 368.431 84.2345 368.661 84.6948C368.661 84.0043 368.661 83.544 368.661 82.8536C368.431 69.9651 369.811 56.3861 372.572 41.8866C372.572 41.6565 372.572 41.6565 372.802 41.6565C372.802 41.6565 373.032 41.6565 373.262 41.6565C373.492 41.6565 373.492 41.8866 373.492 42.1168C369.581 61.9098 368.661 80.0917 370.271 97.1229C370.271 97.5832 370.271 97.8134 370.271 98.2737C370.501 98.0435 370.731 97.8134 370.961 97.5832C379.244 89.7581 386.377 81.0123 392.129 71.8063C392.129 71.8063 392.359 71.5761 392.359 71.8063C392.589 71.8063 392.589 72.0364 392.589 72.0364V72.2666C386.377 81.933 379.244 90.6787 370.501 98.9641L370.271 99.1943V99.4245C371.192 108.861 372.802 117.606 375.103 125.892C375.103 125.892 375.103 125.892 375.103 126.122C375.103 126.122 375.333 126.352 375.103 126.352C375.103 126.352 375.103 126.352 375.103 126.582C375.103 126.582 375.103 126.582 375.103 126.812C377.174 134.177 379.704 141.542 383.155 149.597C383.386 150.058 383.616 150.518 383.616 150.978C383.846 150.518 383.846 150.058 384.076 149.597C387.527 136.709 392.819 124.971 399.261 114.384C399.261 114.154 399.491 114.154 399.721 114.154C399.951 114.154 399.951 114.384 399.951 114.384V114.614C393.049 125.662 387.757 138.09 384.306 151.669V151.899V152.129C390.748 165.938 399.031 180.208 411.685 194.937C411.685 195.167 411.685 195.167 411.685 195.167C411.915 196.088 411.685 196.088 411.685 196.088Z" fill="#AAD7FF"/>
    <path d="M362.447 250.634C362.217 250.634 364.058 231.761 358.996 213.349C354.395 195.167 342.891 177.676 327.936 184.12C307.229 194.017 296.876 155.121 284.682 165.708C273.408 176.755 280.77 180.668 260.754 172.613C240.277 165.248 232.684 180.438 212.438 186.422C191.731 193.556 202.314 219.333 228.083 217.492C254.311 217.032 226.242 223.476 236.596 233.373C245.108 241.658 290.433 221.405 284.682 232.682C278.47 242.809 283.301 253.166 295.035 253.626C322.184 253.396 361.987 250.174 362.447 250.634Z" fill="#D8ECFF"/>
    <path d="M371.879 260.991C371.879 260.761 371.879 260.761 371.879 260.761C358.535 243.729 337.138 223.246 310.219 210.588H309.989V210.357C306.998 202.072 302.166 194.247 297.105 186.882C295.494 184.35 293.653 182.049 292.043 179.517C292.043 179.287 291.813 179.287 291.813 179.287C291.583 179.287 291.353 179.517 291.583 179.747C291.583 179.747 291.583 179.747 291.583 179.977C293.193 182.279 295.034 184.811 296.644 187.112C301.246 194.017 305.848 201.151 308.839 208.746C309.069 209.207 309.069 209.667 309.299 209.897C308.838 209.667 308.378 209.437 308.148 209.437C296.875 204.373 284.68 200.231 271.336 197.699C271.106 197.699 271.106 197.699 270.876 197.699V197.239V197.009C264.204 190.334 256.151 184.58 247.408 180.208C247.178 180.208 247.178 180.208 246.948 180.208C246.718 180.438 246.718 180.438 246.718 180.668C246.718 180.668 246.718 180.898 246.948 180.898C255.001 185.041 262.363 190.104 268.575 196.088C269.035 196.548 269.495 197.009 269.956 197.239C269.265 197.239 268.805 197.009 268.115 197.009C255.231 194.937 241.656 194.017 226.931 194.937C226.701 194.937 226.701 194.937 226.701 194.937C226.701 194.937 226.701 195.167 226.701 195.398C226.701 195.628 226.931 195.628 227.161 195.628C247.408 194.477 265.354 196.548 281.92 200.691C282.38 200.691 282.61 200.921 283.07 200.921C282.84 201.151 282.61 201.382 282.15 201.612C272.947 209.207 263.283 215.651 253.16 220.484C252.93 220.484 252.93 220.714 252.93 220.714C252.93 220.944 253.16 220.944 253.16 220.944H253.39C263.974 215.881 273.867 209.207 283.3 201.151L283.53 200.921H283.76C292.963 203.453 301.246 206.675 309.069 210.357C309.069 210.357 309.069 210.357 309.299 210.357C309.299 210.357 309.299 210.357 309.299 210.588L309.529 210.818C309.529 210.818 309.529 210.818 309.759 210.818C309.759 210.818 309.759 210.818 309.989 210.818C316.891 214.04 323.793 218.183 331.156 223.016C331.616 223.246 331.846 223.476 332.306 223.936C331.846 223.936 331.386 224.166 330.926 224.166C317.581 226.008 304.927 229.69 293.653 234.984C293.423 234.984 293.423 235.214 293.423 235.444C293.423 235.674 293.423 235.674 293.653 235.674C293.653 235.674 293.653 235.674 293.884 235.674C305.847 230.15 319.192 226.238 333.227 224.627H333.457C333.457 224.627 333.457 224.627 333.687 224.857C346.341 233.833 358.765 245.11 371.419 260.991C371.419 261.221 371.649 261.221 371.649 260.991C371.879 261.451 371.879 261.221 371.879 260.991Z" fill="#AAD7FF"/>
    <path d="M350.714 213.349C350.484 213.349 363.368 196.088 368.66 174.914C374.412 154.2 372.571 129.804 353.245 126.352C326.096 122.209 337.83 78.0204 318.733 80.3219C300.787 83.7742 306.079 92.2898 289.974 71.346C272.948 50.8625 256.383 60.5289 231.994 53.164C206.456 46.7198 202.545 78.4807 230.384 93.4405C257.993 110.011 225.092 98.0436 230.154 114.384C234.295 127.963 292.735 137.86 280.541 145.225C268.347 150.978 267.196 164.327 279.16 172.152C307.229 189.644 350.714 212.429 350.714 213.349Z" fill="#FF5E9A"/>
    <path d="M354.626 229.46C354.626 229.46 354.856 229.23 354.626 229C350.484 203.683 340.131 169.851 319.654 140.161C319.654 140.161 319.654 139.931 319.424 139.931V139.701C321.035 129.804 320.574 118.987 319.654 108.4C319.424 104.948 318.964 101.496 318.504 98.0435C318.504 97.8134 318.504 97.8134 318.274 97.8134C318.044 97.8134 317.814 97.8134 317.583 98.0435V98.2737C318.044 101.726 318.274 105.178 318.734 108.4C319.654 118.067 320.114 127.963 318.964 137.169C318.964 137.63 318.734 138.09 318.734 138.78C318.504 138.32 318.044 137.86 317.814 137.399C309.071 124.971 298.717 113.234 286.293 101.956L286.063 101.726V101.266V101.036C282.842 90.2184 278.01 79.4013 271.568 69.5048C271.338 69.2746 271.338 69.2746 271.108 69.2746C270.878 69.2746 270.648 69.5048 270.648 69.7349V69.9651C276.63 79.1711 281.231 89.0676 284.452 98.9641C284.683 99.6546 284.913 100.345 285.143 101.036C284.683 100.575 283.992 100.115 283.532 99.6546C271.568 89.2978 257.994 79.6314 242.118 70.8857C241.888 70.8857 241.888 70.8857 241.888 70.8857C241.658 70.8857 241.658 71.1158 241.658 71.346C241.658 71.5761 241.658 71.8063 241.888 71.8063C263.515 83.7742 281.231 97.5832 295.726 112.543C295.956 112.773 296.416 113.234 296.646 113.464C296.186 113.464 295.726 113.464 295.496 113.694C281.461 115.075 267.887 114.845 254.542 113.234C254.312 113.234 254.312 113.234 254.312 113.464C254.312 113.694 254.312 113.924 254.312 113.924C254.312 114.154 254.542 114.154 254.542 114.154C268.347 115.995 282.612 116.226 297.107 114.614C297.337 114.614 297.337 114.614 297.567 114.614L297.797 114.845C305.85 123.36 312.752 131.876 318.734 140.391C318.734 140.391 318.734 140.391 318.734 140.622V140.852C318.734 141.082 318.734 141.082 318.964 141.312C318.964 141.312 318.964 141.312 319.194 141.312C319.194 141.312 319.194 141.312 319.194 141.542C324.486 149.137 329.317 157.653 334.149 167.319C334.379 167.779 334.609 168.47 334.839 168.93C334.379 168.7 333.689 168.47 333.229 168.24C318.504 161.335 303.089 156.732 288.364 154.431C288.134 154.431 287.904 154.431 287.904 154.661C287.904 154.891 287.904 154.891 287.904 155.121C287.904 155.121 287.904 155.351 288.134 155.351C303.779 157.653 319.884 162.716 335.299 170.081H335.529V170.311C343.352 187.342 350.024 206.445 353.936 229.92C353.936 230.15 354.166 230.15 354.166 230.15C354.166 229.69 354.396 229.69 354.626 229.46Z" fill="#EF2566"/>
    <path d="M590.684 148.217H372.571C351.404 148.217 334.148 165.478 334.148 186.652V642.582C334.148 663.756 351.404 681.017 372.571 681.017H590.684C611.851 681.017 629.107 663.756 629.107 642.582V186.422C629.107 165.248 611.851 148.217 590.684 148.217Z" fill="#0A4D7A"/>
    <path d="M590.684 148.217H372.571C351.404 148.217 334.148 165.478 334.148 186.652V642.582C334.148 654.78 339.9 665.827 348.873 672.732L625.886 171.232C620.134 157.653 606.559 148.217 590.684 148.217Z" fill="#083954"/>
    <path d="M524.191 166.859H443.204C440.903 166.859 439.062 168.7 439.062 171.002C439.062 173.303 440.903 175.144 443.204 175.144H524.191C526.492 175.144 528.332 173.303 528.332 171.002C528.332 168.7 526.492 166.859 524.191 166.859Z" fill="white"/>
    <path d="M590.683 162.486H558.702L547.198 184.35C542.827 192.406 534.314 197.699 525.111 197.699H437.912C428.709 197.699 420.196 192.636 415.825 184.35L404.321 162.486H372.34C359.226 162.486 348.412 173.303 348.412 186.422V642.352C348.412 655.47 359.226 666.287 372.34 666.287H590.453C603.567 666.287 614.381 655.47 614.381 642.352V186.422C614.841 173.303 604.027 162.486 590.683 162.486Z" fill="#CAEDFF"/>
    <path opacity="0.85" d="M614.841 186.422V191.485L356.005 659.843C351.403 655.47 348.412 649.256 348.412 642.352V186.422C348.412 173.303 359.226 162.486 372.34 162.486H404.321L415.825 184.35C420.196 192.406 428.709 197.699 437.912 197.699H525.111C534.314 197.699 542.827 192.636 547.198 184.35L558.702 162.486H590.683C604.027 162.486 614.841 173.303 614.841 186.422Z" fill="#BAE6F7"/>
    <path d="M721.596 231.071H390.055C380.852 231.071 373.26 238.666 373.26 247.872V330.036C373.26 339.242 380.852 346.837 390.055 346.837H721.596C730.799 346.837 738.391 339.242 738.391 330.036V247.872C738.391 238.666 730.799 231.071 721.596 231.071Z" fill="white"/>
    <path d="M534.546 269.736L536.847 276.641C537.077 277.101 537.537 277.562 537.997 277.562H545.36C546.51 277.562 546.97 278.943 546.05 279.633L540.068 284.006C539.608 284.236 539.378 284.926 539.608 285.387L541.909 292.291C542.369 293.442 540.988 294.363 540.068 293.672L534.086 289.299C533.626 289.069 533.166 289.069 532.706 289.299L526.724 293.672C525.803 294.363 524.653 293.442 524.883 292.291L527.184 285.387C527.414 284.926 527.184 284.466 526.724 284.006L520.742 279.633C519.821 278.943 520.281 277.562 521.432 277.562H528.794C529.254 277.562 529.715 277.331 529.945 276.641L532.245 269.736C532.706 268.586 534.316 268.586 534.546 269.736Z" fill="#FBBE42"/>
    <path d="M575.038 269.736L577.339 276.641C577.569 277.101 578.029 277.562 578.489 277.562H585.852C587.002 277.562 587.462 278.943 586.542 279.633L580.56 284.006C580.1 284.236 579.87 284.926 580.1 285.387L582.401 292.291C582.861 293.442 581.48 294.363 580.56 293.672L574.578 289.299C574.118 289.069 573.658 289.069 573.198 289.299L567.216 293.672C566.295 294.363 565.145 293.442 565.375 292.291L567.676 285.387C567.906 284.926 567.676 284.466 567.216 284.006L561.234 279.633C560.313 278.943 560.774 277.562 561.924 277.562H569.286C569.747 277.562 570.207 277.331 570.437 276.641L572.738 269.736C573.198 268.586 574.578 268.586 575.038 269.736Z" fill="#FBBE42"/>
    <path d="M615.302 269.736L617.603 276.641C617.833 277.101 618.293 277.562 618.753 277.562H626.116C627.266 277.562 627.726 278.943 626.806 279.633L620.824 284.006C620.364 284.236 620.134 284.926 620.364 285.387L622.664 292.291C623.125 293.442 621.744 294.363 620.824 293.672L614.842 289.299C614.382 289.069 613.922 289.069 613.461 289.299L607.479 293.672C606.559 294.363 605.409 293.442 605.639 292.291L607.94 285.387C608.17 284.926 607.94 284.466 607.479 284.006L601.497 279.633C600.577 278.943 601.037 277.562 602.188 277.562H609.55C610.01 277.562 610.47 277.331 610.7 276.641L613.001 269.736C613.461 268.586 615.072 268.586 615.302 269.736Z" fill="#FBBE42"/>
    <path d="M655.796 269.736L658.097 276.641C658.327 277.101 658.787 277.562 659.247 277.562H666.61C667.76 277.562 668.22 278.943 667.3 279.633L661.318 284.006C660.858 284.236 660.628 284.926 660.858 285.387L663.159 292.291C663.619 293.442 662.238 294.363 661.318 293.672L655.336 289.299C654.876 289.069 654.416 289.069 653.956 289.299L647.974 293.672C647.053 294.363 645.903 293.442 646.133 292.291L648.434 285.387C648.664 284.926 648.434 284.466 647.974 284.006L641.992 279.633C641.071 278.943 641.531 277.562 642.682 277.562H650.044C650.504 277.562 650.965 277.331 651.195 276.641L653.495 269.736C653.956 268.586 655.336 268.586 655.796 269.736Z" fill="#FBBE42"/>
    <path d="M696.06 269.736L698.361 276.641C698.591 277.101 699.051 277.562 699.511 277.562H706.873C708.024 277.562 708.484 278.943 707.564 279.633L701.582 284.006C701.121 284.236 700.891 284.926 701.121 285.387L703.422 292.291C703.882 293.442 702.502 294.363 701.582 293.672L695.6 289.299C695.14 289.069 694.679 289.069 694.219 289.299L688.237 293.672C687.317 294.363 686.167 293.442 686.397 292.291L688.697 285.387C688.927 284.926 688.697 284.466 688.237 284.006L682.255 279.633C681.335 278.943 681.795 277.562 682.945 277.562H690.308C690.768 277.562 691.228 277.331 691.458 276.641L693.759 269.736C694.219 268.586 695.83 268.586 696.06 269.736Z" fill="#B1D7DD"/>
    <path d="M637.851 304.95H520.512V308.172H637.851V304.95Z" fill="#B1D7DD"/>
    <path d="M634.744 251.324H523.619C521.903 251.324 520.512 252.715 520.512 254.431C520.512 256.147 521.903 257.538 523.619 257.538H634.744C636.46 257.538 637.851 256.147 637.851 254.431C637.851 252.715 636.46 251.324 634.744 251.324Z" fill="#379CF7"/>
    <path d="M637.851 317.378H520.512V320.6H637.851V317.378Z" fill="#B1D7DD"/>
    <path d="M574.12 328.885H520.512V332.107H574.12V328.885Z" fill="#B1D7DD"/>
    <path d="M481.565 323.597C499.894 305.262 499.894 275.534 481.565 257.199C463.235 238.864 433.518 238.864 415.188 257.199C396.859 275.534 396.859 305.262 415.188 323.597C433.518 341.932 463.235 341.932 481.565 323.597Z" fill="#E9E9E9"/>
    <mask id="mask0" mask-type="alpha" maskUnits="userSpaceOnUse" x="401" y="243" width="94" height="95">
        <path d="M458.728 336.378C483.968 330.471 499.642 305.215 493.737 279.967C487.832 254.718 462.584 239.039 437.344 244.946C412.104 250.853 396.43 276.109 402.335 301.357C408.239 326.606 433.488 342.285 458.728 336.378Z" fill="#7BC7FF"/>
    </mask>
    <g mask="url(#mask0)">
        <path d="M471.271 318.989L467.13 275.72C467.13 264.673 462.758 254.316 451.024 257.538C445.733 254.777 439.06 255.467 434.689 259.61C430.087 263.983 427.557 270.657 427.557 277.331L422.955 319.449L471.271 318.989Z" fill="#0A4D7A"/>
        <path d="M454.937 296.894V306.331C454.937 306.331 453.557 313.695 447.344 315.076C440.902 313.465 439.752 306.331 439.752 306.331V296.894H454.937Z" fill="#FFA683"/>
        <path d="M454.937 295.513V301.497C452.636 302.648 450.105 303.339 447.344 303.339C444.584 303.339 442.053 302.648 439.752 301.497V295.513H454.937Z" fill="#E57C5C"/>
        <path d="M462.758 276.181C455.856 275.951 451.255 270.657 451.255 270.657C447.113 274.339 432.158 276.181 432.158 276.181V282.165C432.158 286.538 433.999 292.061 436.99 296.204C439.521 299.656 443.432 301.497 447.573 301.497C451.715 301.497 455.626 299.656 458.157 296.204C461.148 292.061 462.988 286.768 462.988 282.165L462.758 276.181Z" fill="#FFA683"/>
        <path d="M484.847 322.211C478.865 312.084 453.787 306.331 453.787 306.331L447.115 308.862L440.442 306.331C440.442 306.331 415.364 312.084 409.382 322.211L402.02 377.217L413.523 376.987L420.196 330.957C420.196 330.957 424.567 345.917 424.337 354.432C424.107 363.178 421.346 377.447 421.346 377.447H446.654H448.035H472.883C472.883 377.447 470.122 363.178 469.892 354.432C469.662 345.686 474.033 330.957 474.033 330.957L480.706 376.987L492.21 377.217L484.847 322.211Z" fill="#FFA683"/>
        <path d="M467.591 310.703C465.521 316.457 460.459 325.203 447.345 325.893C434.23 325.203 428.939 316.457 427.098 310.703C423.187 312.084 419.275 314.156 415.824 316.227L420.426 331.187C420.426 331.187 420.656 331.417 420.656 331.647V331.187C420.656 331.187 420.886 331.877 421.116 333.028C421.116 333.258 421.116 333.258 421.346 333.488C422.496 337.861 425.027 348.218 424.797 354.662C424.567 363.408 421.806 377.677 421.806 377.677H446.654H448.035H472.883C472.883 377.677 470.122 363.408 469.892 354.662C469.662 345.917 474.034 331.187 474.034 331.187V331.877C474.034 331.647 474.264 331.417 474.264 331.187L478.865 316.227C475.414 313.926 471.503 312.084 467.591 310.703Z" fill="#379CF7"/>
    </g>
    <path d="M771.522 365.479C769.911 365.479 768.301 364.559 767.61 362.948L743.682 315.076C743.682 315.076 740.921 303.569 737.47 303.569L737.24 318.759L753.576 377.447C754.496 381.13 756.337 384.352 761.398 384.352C771.292 384.582 789.698 387.804 801.432 390.796C813.626 394.018 823.749 390.796 823.749 390.796C824.439 364.099 781.875 365.71 771.522 365.479Z" fill="#FFA683"/>
    <path d="M807.646 359.496V373.074H786.939V365.479C786.939 365.479 773.365 362.257 774.055 350.059C774.745 337.861 780.497 331.877 783.488 330.957C786.709 330.036 801.664 336.02 801.894 336.711C802.124 337.401 803.735 350.52 803.735 350.52L807.646 359.496Z" fill="#FFA683"/>
    <path d="M785.789 340.853C785.789 340.853 789.47 335.79 792.921 338.322C796.372 340.853 794.532 345.917 790.39 348.448C790.39 348.448 794.762 362.948 803.275 362.027C811.788 361.107 822.831 352.131 821.681 338.091C820.761 324.052 802.354 314.156 792.461 316.227C782.338 318.298 772.444 329.346 785.789 340.853Z" fill="#004CBA"/>
    <path d="M821.68 329.346C821.68 329.346 832.723 315.306 843.997 327.504C855.041 339.702 862.173 353.512 867.235 356.043C872.297 358.575 862.863 365.019 850.669 361.107C838.245 357.194 822.37 342.234 821.68 329.346Z" fill="#004CBA"/>
    <path d="M786.939 373.074V365.479C786.939 365.479 795.452 365.71 798.904 362.487C798.904 362.487 796.373 368.241 790.851 368.471V373.074H786.939V373.074Z" fill="#ED7D5A"/>
    <path d="M777.734 481.706C777.734 481.706 782.566 557.656 788.778 573.536C794.99 589.417 834.103 661.914 834.103 661.914L854.349 657.542L825.36 571.005C825.13 576.298 821.218 551.442 828.351 526.125C832.492 511.395 830.882 495.055 824.67 482.166L774.053 481.706" fill="#006CBC"/>
    <path d="M824.67 478.484C824.67 478.484 822.829 499.658 798.441 523.593C773.823 547.759 764.39 564.1 764.39 564.1L760.709 668.819H740.462C740.462 668.819 728.498 558.346 728.958 554.434C729.188 550.521 762.779 478.484 766.691 472.27C770.602 465.825 824.67 478.484 824.67 478.484Z" fill="#379CF7"/>
    <path d="M809.716 371.924C809.716 371.924 831.343 373.535 823.521 400.462C814.778 429.922 824.901 476.873 826.742 481.936L820.299 484.468C800.743 491.833 779.346 491.372 760.02 483.087C760.02 483.087 777.275 445.112 765.081 425.089C757.259 412.2 759.559 399.312 768.762 388.034C774.744 380.669 782.337 372.844 785.328 372.844L809.716 371.924Z" fill="#57BFFF"/>
    <path d="M740.462 668.819H744.834L736.091 555.354C737.471 553.053 742.533 543.847 757.488 515.078C762.78 504.951 766.461 495.515 768.992 486.309C766.231 485.618 763.47 484.698 760.939 483.547C750.125 505.642 729.188 551.442 728.958 554.664C728.498 558.346 740.462 668.819 740.462 668.819Z" fill="#2481C6"/>
    <path d="M782.337 417.954C772.213 421.636 779.806 448.564 768.762 486.079C765.771 485.158 762.78 484.238 759.789 482.857C759.789 482.857 777.045 444.882 764.851 424.858C760.939 418.644 759.559 412.2 760.249 405.986L803.274 396.32C803.274 396.55 796.141 412.891 782.337 417.954Z" fill="#30AFEF"/>
    <path d="M689.845 350.75C689.845 350.75 729.188 416.113 740.692 419.795C745.754 421.406 777.504 408.978 791.079 406.907C798.441 405.756 803.503 399.082 802.813 391.717C802.123 383.431 792.459 376.297 784.177 377.908L740.002 391.717C740.002 391.717 702.5 353.051 694.217 344.075C694.217 344.075 690.766 333.258 685.704 333.258C680.872 333.258 687.775 346.837 689.845 350.75Z" fill="#FFA683"/>
    <path d="M721.136 675.493C726.658 673.652 737.242 671.581 740.923 668.819H760.479C760.249 672.732 760.249 676.644 760.019 679.176C760.019 680.787 758.639 682.168 756.798 682.168H717.685C715.154 682.168 714.234 678.715 716.305 677.565C717.685 676.874 719.296 676.184 721.136 675.493Z" fill="#004CBA"/>
    <path d="M816.849 672.962C821.911 669.97 831.574 665.367 834.565 661.914L853.661 657.542C854.352 661.454 855.042 665.137 855.732 667.668C856.192 669.279 855.042 670.89 853.431 671.351L815.469 680.096C812.938 680.787 811.327 677.565 813.168 675.724C813.858 675.033 815.239 673.882 816.849 672.962Z" fill="#004CBA"/>
    <path opacity="0.58" d="M740.464 397.47C749.667 397.701 791.081 382.28 802.124 389.645C800.054 382.28 791.541 376.297 783.948 378.138L739.773 391.947C739.773 391.947 702.271 353.281 693.988 344.306C693.988 344.306 730.57 397.24 740.464 397.47Z" fill="#ED7D5A"/>
    <path d="M821.219 328.425L818.229 328.885C818.229 328.885 821.91 334.869 821.219 340.623L824.901 339.933C825.131 339.933 824.671 329.806 821.219 328.425Z" fill="white"/>
    <path d="M562.156 373.535H230.616C221.413 373.535 213.82 381.13 213.82 390.336V472.5C213.82 481.706 221.413 489.301 230.616 489.301H562.156C571.359 489.301 578.952 481.706 578.952 472.5V390.336C578.952 381.13 571.359 373.535 562.156 373.535Z" fill="white"/>
    <path d="M375.105 412.2L377.406 419.105C377.636 419.565 378.096 420.025 378.556 420.025H385.919C387.069 420.025 387.529 421.406 386.609 422.097L380.627 426.47C380.167 426.7 379.937 427.39 380.167 427.85L382.468 434.755C382.928 435.906 381.547 436.826 380.627 436.136L374.645 431.763C374.185 431.533 373.725 431.533 373.265 431.763L367.283 436.136C366.362 436.826 365.212 435.906 365.442 434.755L367.743 427.85C367.973 427.39 367.743 426.93 367.283 426.47L361.531 422.097C360.61 421.406 361.07 420.025 362.221 420.025H369.583C370.043 420.025 370.504 419.795 370.734 419.105L373.034 412.2C373.265 411.049 374.645 411.049 375.105 412.2Z" fill="#FBBE42"/>
    <path d="M415.368 412.2L417.669 419.105C417.899 419.565 418.359 420.025 418.82 420.025H426.182C427.332 420.025 427.793 421.406 426.872 422.097L420.89 426.47C420.43 426.7 420.2 427.39 420.43 427.85L422.731 434.755C423.191 435.906 421.811 436.826 420.89 436.136L414.908 431.763C414.448 431.533 413.988 431.533 413.528 431.763L407.546 436.136C406.625 436.826 405.475 435.906 405.705 434.755L408.006 427.85C408.236 427.39 408.006 426.93 407.546 426.47L401.564 422.097C400.643 421.406 401.104 420.025 402.254 420.025H409.616C410.077 420.025 410.537 419.795 410.767 419.105L413.068 412.2C413.528 411.049 415.138 411.049 415.368 412.2Z" fill="#FBBE42"/>
    <path d="M455.863 412.2L458.163 419.105C458.393 419.565 458.854 420.025 459.314 420.025H466.676C467.826 420.025 468.287 421.406 467.366 422.097L461.384 426.47C460.924 426.7 460.694 427.39 460.924 427.85L463.225 434.755C463.685 435.906 462.305 436.826 461.384 436.136L455.402 431.763C454.942 431.533 454.482 431.533 454.022 431.763L448.04 436.136C447.12 436.826 445.969 435.906 446.199 434.755L448.5 427.85C448.73 427.39 448.5 426.93 448.04 426.47L442.058 422.097C441.138 421.406 441.598 420.025 442.748 420.025H450.111C450.571 420.025 451.031 419.795 451.261 419.105L453.562 412.2C454.022 411.049 455.402 411.049 455.863 412.2Z" fill="#FBBE42"/>
    <path d="M496.126 412.2L498.427 419.105C498.657 419.565 499.117 420.025 499.577 420.025H506.94C508.09 420.025 508.55 421.406 507.63 422.097L501.648 426.47C501.188 426.7 500.958 427.39 501.188 427.85L503.489 434.755C503.949 435.906 502.568 436.826 501.648 436.136L495.666 431.763C495.206 431.533 494.746 431.533 494.286 431.763L488.304 436.136C487.383 436.826 486.233 435.906 486.463 434.755L488.764 427.85C488.994 427.39 488.764 426.93 488.304 426.47L482.322 422.097C481.401 421.406 481.861 420.025 483.012 420.025H490.374C490.834 420.025 491.295 419.795 491.525 419.105L493.825 412.2C494.286 411.049 495.896 411.049 496.126 412.2Z" fill="#FBBE42"/>
    <path d="M536.618 412.2L538.919 419.105C539.149 419.565 539.609 420.025 540.07 420.025H547.432C548.582 420.025 549.043 421.406 548.122 422.097L542.14 426.47C541.68 426.7 541.45 427.39 541.68 427.85L543.981 434.755C544.441 435.906 543.061 436.826 542.14 436.136L536.158 431.763C535.698 431.533 535.238 431.533 534.778 431.763L528.796 436.136C527.875 436.826 526.725 435.906 526.955 434.755L529.256 427.85C529.486 427.39 529.256 426.93 528.796 426.47L522.814 422.097C521.893 421.406 522.354 420.025 523.504 420.025H530.866C531.327 420.025 531.787 419.795 532.017 419.105L534.318 412.2C534.778 411.049 536.158 411.049 536.618 412.2Z" fill="#FBBE42"/>
    <path d="M478.411 447.413H361.072V450.635H478.411V447.413Z" fill="#B1D7DD"/>
    <path d="M475.302 393.788H364.177C362.461 393.788 361.07 395.179 361.07 396.895C361.07 398.611 362.461 400.002 364.177 400.002H475.302C477.018 400.002 478.409 398.611 478.409 396.895C478.409 395.179 477.018 393.788 475.302 393.788Z" fill="#0A4D7A"/>
    <path d="M478.411 459.842H361.072V463.064H478.411V459.842Z" fill="#B1D7DD"/>
    <path d="M414.68 471.349H361.072V474.571H414.68V471.349Z" fill="#B1D7DD"/>
    <path d="M188.512 612.202C188.512 612.202 267.888 545.688 281.923 569.163C295.957 592.639 275.251 668.819 275.251 668.819L188.512 612.202Z" fill="#0A85E0"/>
    <path d="M230.154 639.36L275.249 668.819C275.249 668.819 294.116 599.083 283.532 572.386C288.364 607.599 251.091 629.923 230.154 639.36Z" fill="#006CBC"/>
    <path d="M229.234 605.067C229.234 605.067 278.47 644.653 282.381 658.922C288.823 681.938 250.401 679.406 233.605 679.406C217.04 679.406 110.744 676.414 110.744 676.414L111.664 660.073L209.447 655.47C209.447 655.47 155.149 647.415 157.22 616.114C159.52 584.814 229.234 605.067 229.234 605.067Z" fill="#379CF7"/>
    <path d="M279.62 671.811C270.647 680.787 246.029 679.176 233.605 679.176C217.04 679.176 110.744 676.184 110.744 676.184L111.664 659.843L209.447 655.24C209.447 655.24 248.33 674.112 278.7 671.811C279.16 672.041 279.39 672.041 279.62 671.811Z" fill="#0A85E0"/>
    <path d="M111.435 676.184C111.435 676.184 107.063 685.85 110.514 692.294C113.735 698.739 99.4707 694.136 97.17 681.247C94.8692 668.589 96.0196 653.399 111.895 660.073L111.435 676.184Z" fill="#004CBA"/>
    <path d="M166.654 507.253C166.654 507.253 202.316 403.915 203.467 404.375C207.608 406.216 214.97 407.827 214.97 407.827L200.245 521.292L166.654 507.253Z" fill="#0A4D7A"/>
    <path d="M203.467 495.515C195.414 491.602 185.29 487.23 173.327 487.92C168.495 501.959 166.654 507.253 166.654 507.253L200.245 521.292L203.467 495.515Z" fill="#083954"/>
    <path d="M211.287 479.865C208.756 489.531 198.173 487.69 198.173 487.69V496.896H180.227V484.468C189.66 486.539 199.783 479.865 195.182 476.412C190.81 473.19 189.66 467.437 191.96 464.905C194.261 462.143 200.013 464.214 200.013 464.214C205.305 463.984 209.216 463.294 211.517 462.143C212.667 467.897 212.667 474.571 211.287 479.865Z" fill="#FFA683"/>
    <path d="M200.244 464.214C200.244 464.214 194.722 462.143 192.191 464.905C189.891 467.667 190.811 473.19 195.412 476.412C199.784 479.635 189.66 486.539 180.227 484.468C170.794 482.396 165.502 462.834 173.555 449.945C180.918 438.207 206.916 433.144 212.208 445.342C217.5 457.77 217.73 463.754 200.244 464.214Z" fill="#004CBA"/>
    <path d="M198.175 497.126V487.92C198.175 487.92 192.193 486.999 189.662 485.849C189.662 485.849 192.883 489.761 194.954 490.452V497.126H198.175Z" fill="#E57C5C"/>
    <path d="M203.005 497.356C203.005 497.356 173.095 486.999 164.812 510.245C156.529 533.49 170.794 589.187 155.379 608.519C178.847 619.567 205.766 620.487 230.154 611.281L233.375 610.13C233.375 610.13 223.021 539.014 222.561 541.545C222.101 543.617 257.763 554.894 264.895 551.212C272.028 547.299 315.052 498.737 315.052 498.737L300.557 496.666L261.904 522.213C261.674 521.752 212.898 497.817 203.005 497.356Z" fill="#0A4D7A"/>
    <path d="M315.051 498.277C315.051 498.277 330.006 491.833 330.927 488.841H309.53C307.229 488.841 305.158 489.991 303.778 491.602L300.557 495.975L315.051 498.277Z" fill="#FFA683"/>
    <path d="M233.374 609.9C233.374 609.9 224.171 547.529 222.56 541.545C222.79 541.775 223.02 542.006 223.481 542.236C222.79 541.545 222.33 541.315 222.33 541.315C222.33 541.315 199.553 535.791 191.5 526.125C191.5 526.125 199.323 542.006 209.216 545.688C218.189 548.91 214.968 596.782 221.87 613.813C224.631 613.122 227.392 612.202 230.153 611.051L233.374 609.9Z" fill="#083954"/>
    <path d="M204.385 404.835C204.385 404.835 208.066 391.256 213.818 390.336V408.057L204.385 404.835Z" fill="#FFA683"/>
    <path d="M322.565 465.597C340.894 447.262 340.894 417.534 322.565 399.199C304.235 380.864 274.518 380.864 256.188 399.199C237.859 417.534 237.859 447.262 256.188 465.597C274.518 483.932 304.235 483.932 322.565 465.597Z" fill="#D3EDFB"/>
    <mask id="mask1" mask-type="alpha" maskUnits="userSpaceOnUse" x="241" y="386" width="95" height="95">
        <path d="M321.77 466.266C340.099 447.931 340.099 418.203 321.77 399.868C303.44 381.533 273.723 381.533 255.393 399.868C237.064 418.203 237.064 447.931 255.393 466.266C273.723 484.601 303.44 484.601 321.77 466.266Z" fill="#7BC7FF"/>
    </mask>
    <g mask="url(#mask1)">
        <path d="M339.9 501.729L336.909 474.571C336.449 470.198 333.918 466.286 330.237 463.754L320.804 457.54V457.77V457.54L312.981 454.548L305.158 451.556L298.716 449.024L295.955 447.874L288.823 451.556L281.691 447.874L279.16 448.794L272.948 451.096L264.665 454.318L256.612 457.31V457.54L247.409 463.524C243.728 466.056 241.197 469.968 240.737 474.341L237.746 501.499H256.842V524.054H320.804V501.499H339.9V501.729Z" fill="#FBBE42"/>
        <path d="M288.823 400.693C278.239 400.693 269.727 409.208 269.727 419.795V429.001H307.919V419.795C308.149 409.208 299.406 400.693 288.823 400.693Z" fill="#0A4D7A"/>
        <path d="M296.416 443.271V449.945C296.416 449.945 296.416 450.175 296.186 450.405C295.266 454.318 291.814 461.913 288.593 461.913C285.372 461.913 282.151 454.088 281.461 449.945V449.715V443.04H296.416V443.271Z" fill="#FFA683"/>
        <path d="M296.416 441.89V447.874C294.115 449.024 291.584 449.715 288.823 449.715C286.062 449.715 283.531 449.024 281.23 447.874V441.89H296.416Z" fill="#E57C5C"/>
        <path d="M278.93 429.001C278.93 426.47 276.859 424.398 274.328 424.398C271.797 424.398 269.727 426.47 269.727 429.001C269.727 431.533 271.797 433.604 274.328 433.604C276.859 433.604 278.93 431.533 278.93 429.001Z" fill="#FFA683"/>
        <path d="M307.918 429.001C307.918 426.47 305.847 424.398 303.316 424.398C300.786 424.398 298.715 426.47 298.715 429.001C298.715 431.533 300.786 433.604 303.316 433.604C305.847 433.604 307.918 431.533 307.918 429.001Z" fill="#FFA683"/>
        <path d="M304.239 421.176C298.717 418.184 296.647 415.652 296.647 415.652H281.692C280.541 419.105 274.099 421.176 274.099 421.176L273.869 428.771C273.869 433.144 275.71 438.437 278.701 442.58C279.851 444.191 281.462 445.572 283.302 446.493C285.143 447.413 286.984 447.874 289.054 447.874C293.196 447.874 297.107 446.032 299.408 442.58C302.399 438.437 304.239 433.144 304.239 428.771V421.176Z" fill="#FFA683"/>
    </g>
    <path d="M721.596 515.078H390.055C380.852 515.078 373.26 522.673 373.26 531.879V614.043C373.26 623.249 380.852 630.844 390.055 630.844H721.596C730.799 630.844 738.391 623.249 738.391 614.043V531.879C738.391 522.673 730.799 515.078 721.596 515.078Z" fill="white"/>
    <path d="M534.542 553.743L536.843 560.648C537.073 561.108 537.533 561.568 537.993 561.568H545.356C546.506 561.568 546.966 562.949 546.046 563.64L540.064 568.013C539.604 568.243 539.374 568.933 539.604 569.394L541.905 576.298C542.365 577.449 540.984 578.369 540.064 577.679L534.082 573.306C533.622 573.076 533.162 573.076 532.702 573.306L526.72 577.679C525.799 578.369 524.649 577.449 524.879 576.298L527.18 569.394C527.41 568.933 527.18 568.473 526.72 568.013L520.738 563.64C519.817 562.949 520.277 561.568 521.428 561.568H528.79C529.25 561.568 529.711 561.338 529.941 560.648L532.241 553.743C532.702 552.592 534.312 552.592 534.542 553.743Z" fill="#FBBE42"/>
    <path d="M575.034 553.743L577.335 560.648C577.565 561.108 578.025 561.568 578.486 561.568H585.848C586.998 561.568 587.459 562.949 586.538 563.64L580.556 568.013C580.096 568.243 579.866 568.933 580.096 569.394L582.397 576.298C582.857 577.449 581.477 578.369 580.556 577.679L574.574 573.306C574.114 573.076 573.654 573.076 573.194 573.306L567.212 577.679C566.291 578.369 565.141 577.449 565.371 576.298L567.672 569.394C567.902 568.933 567.672 568.473 567.212 568.013L561.23 563.64C560.31 562.949 560.77 561.568 561.92 561.568H569.282C569.743 561.568 570.203 561.338 570.433 560.648L572.734 553.743C573.194 552.592 574.574 552.592 575.034 553.743Z" fill="#FBBE42"/>
    <path d="M615.298 553.743L617.599 560.648C617.829 561.108 618.289 561.568 618.749 561.568H626.112C627.262 561.568 627.722 562.949 626.802 563.64L620.82 568.013C620.36 568.243 620.13 568.933 620.36 569.394L622.661 576.298C623.121 577.449 621.74 578.369 620.82 577.679L614.838 573.306C614.378 573.076 613.918 573.076 613.457 573.306L607.475 577.679C606.555 578.369 605.405 577.449 605.635 576.298L607.936 569.394C608.166 568.933 607.936 568.473 607.475 568.013L601.493 563.64C600.573 562.949 601.033 561.568 602.184 561.568H609.546C610.006 561.568 610.466 561.338 610.697 560.648L612.997 553.743C613.457 552.592 615.068 552.592 615.298 553.743Z" fill="#B1D7DD"/>
    <path d="M614.148 553.053C613.688 553.053 613.458 553.283 613.228 553.743L610.927 560.648C610.697 561.108 610.237 561.568 609.777 561.568H602.414C601.264 561.568 600.804 562.949 601.724 563.64L607.706 568.013C608.166 568.243 608.396 568.933 608.166 569.394L605.865 576.298C605.405 577.449 606.786 578.369 607.706 577.679L613.688 573.306C613.918 573.306 613.918 573.076 614.148 573.076V553.053V553.053Z" fill="#FBBE42"/>
    <path d="M655.792 553.743L658.093 560.648C658.323 561.108 658.783 561.568 659.243 561.568H666.606C667.756 561.568 668.216 562.949 667.296 563.64L661.314 568.013C660.854 568.243 660.624 568.933 660.854 569.394L663.155 576.298C663.615 577.449 662.234 578.369 661.314 577.679L655.332 573.306C654.872 573.076 654.412 573.076 653.952 573.306L647.97 577.679C647.049 578.369 645.899 577.449 646.129 576.298L648.43 569.394C648.66 568.933 648.43 568.473 647.97 568.013L641.988 563.64C641.067 562.949 641.528 561.568 642.678 561.568H650.04C650.5 561.568 650.961 561.338 651.191 560.648L653.491 553.743C653.952 552.592 655.332 552.592 655.792 553.743Z" fill="#B1D7DD"/>
    <path d="M696.056 553.743L698.357 560.648C698.587 561.108 699.047 561.568 699.507 561.568H706.869C708.02 561.568 708.48 562.949 707.56 563.64L701.578 568.013C701.118 568.243 700.887 568.933 701.118 569.394L703.418 576.298C703.878 577.449 702.498 578.369 701.578 577.679L695.596 573.306C695.136 573.076 694.675 573.076 694.215 573.306L688.233 577.679C687.313 578.369 686.163 577.449 686.393 576.298L688.693 569.394C688.924 568.933 688.693 568.473 688.233 568.013L682.251 563.64C681.331 562.949 681.791 561.568 682.942 561.568H690.304C690.764 561.568 691.224 561.338 691.454 560.648L693.755 553.743C694.215 552.592 695.826 552.592 696.056 553.743Z" fill="#B1D7DD"/>
    <path d="M637.847 588.956H520.508V592.179H637.847V588.956Z" fill="#B1D7DD"/>
    <path d="M634.74 535.331H523.615C521.899 535.331 520.508 536.722 520.508 538.438C520.508 540.154 521.899 541.545 523.615 541.545H634.74C636.456 541.545 637.847 540.154 637.847 538.438C637.847 536.722 636.456 535.331 634.74 535.331Z" fill="#FF5A5A"/>
    <path d="M637.847 601.385H520.508V604.607H637.847V601.385Z" fill="#B1D7DD"/>
    <path d="M574.116 612.892H520.508V616.114H574.116V612.892Z" fill="#B1D7DD"/>
    <path d="M481.565 606.597C499.894 588.262 499.894 558.534 481.565 540.199C463.235 521.864 433.518 521.864 415.188 540.199C396.859 558.534 396.859 588.262 415.188 606.597C433.518 624.932 463.235 624.932 481.565 606.597Z" fill="#E9E9E9"/>
    <mask id="mask2" mask-type="alpha" maskUnits="userSpaceOnUse" x="401" y="526" width="94" height="95">
        <path d="M487.975 597.847C501.512 575.734 494.565 546.831 472.458 533.29C450.352 519.749 421.458 526.698 407.922 548.812C394.386 570.925 401.333 599.828 423.439 613.369C445.545 626.91 474.439 619.961 487.975 597.847Z" fill="#7BC7FF"/>
    </mask>
    <g mask="url(#mask2)">
        <path d="M429.169 563.41C429.169 563.41 426.408 552.823 430.55 547.989C434.691 543.386 442.974 538.323 449.646 540.855C449.646 540.855 454.938 537.633 459.769 540.394C464.601 543.156 471.503 545.458 472.193 542.236C472.193 542.236 472.654 554.434 467.132 556.505L464.831 565.941H429.629L429.169 563.41Z" fill="#0A4D7A"/>
        <path d="M484.847 604.837C478.865 594.71 453.787 588.956 453.787 588.956L447.115 591.488L440.442 588.956C440.442 588.956 415.364 594.71 409.382 604.837L402.02 659.843L413.523 659.613L420.196 613.583C420.196 613.583 424.567 628.542 424.337 637.058C424.107 645.804 421.346 660.073 421.346 660.073H446.654H448.035H472.883C472.883 660.073 470.122 645.804 469.892 637.058C469.662 628.312 474.033 613.583 474.033 613.583L480.706 659.613L492.21 659.843L484.847 604.837Z" fill="#0A4D7A"/>
        <path d="M454.937 579.52V588.956C454.937 588.956 453.557 596.321 447.344 597.702C440.902 596.091 439.752 588.956 439.752 588.956V579.52H454.937Z" fill="#FFA683"/>
        <path d="M454.937 578.139V584.123C452.636 585.274 450.105 585.964 447.344 585.964C444.584 585.964 442.053 585.274 439.752 584.123V578.139H454.937Z" fill="#E57C5C"/>
        <path d="M462.758 559.037C455.856 558.807 451.255 553.513 451.255 553.513C447.113 557.196 432.158 559.037 432.158 559.037V565.021C432.158 569.394 433.999 574.917 436.99 579.06C439.521 582.512 443.432 584.353 447.573 584.353C451.715 584.353 455.626 582.512 458.157 579.06C461.148 574.917 462.988 569.624 462.988 565.021L462.758 559.037Z" fill="#FFA683"/>
        <path d="M436.07 565.481C436.07 567.782 434.229 569.624 431.928 569.624C429.628 569.624 427.787 567.782 427.787 565.481C427.787 563.179 429.628 561.338 431.928 561.338C434.229 561.338 436.07 563.179 436.07 565.481Z" fill="#FFA683"/>
        <path d="M467.13 565.481C467.13 567.782 465.29 569.624 462.989 569.624C460.688 569.624 458.848 567.782 458.848 565.481C458.848 563.179 460.688 561.338 462.989 561.338C465.29 561.338 467.13 563.179 467.13 565.481Z" fill="#FFA683"/>
    </g>
    <path d="M176.775 289C191.27 289 191.96 264.931 177.465 263.896C177.235 263.896 177.235 263.896 177.005 263.896V263.637C177.005 246.297 164.581 232.58 149.396 232.58C144.564 232.58 139.963 233.874 136.052 236.462C131.22 226.369 121.557 219.381 110.743 219.381C94.868 219.381 81.9837 233.874 81.9837 251.732C81.9837 252.767 81.9837 253.543 82.2137 254.579C79.2227 253.543 76.2318 253.026 73.0107 253.026C61.5069 253.026 51.1534 259.755 45.1714 269.59C40.1097 277.871 45.6316 289 54.6046 289H176.775V289Z" fill="#BBDCFA"/>
    <path d="M618.523 92.307C637.389 92.307 638.309 60.7326 619.673 59.4386C619.443 59.4386 619.213 59.4386 619.213 59.4386C619.213 59.1798 619.213 59.1798 619.213 58.921C619.213 36.4048 602.878 18.0296 582.861 18.0296C576.649 18.0296 570.667 19.8412 565.375 22.9469C558.933 9.74774 546.509 0.689514 532.244 0.689514C511.537 0.689514 494.512 19.5824 494.512 43.1338C494.512 44.4278 494.511 45.7219 494.742 46.7571C490.83 45.463 486.919 44.9454 482.548 44.9454C467.362 44.9454 454.018 53.7449 446.195 66.6852C439.753 77.5551 446.886 92.0482 458.389 92.0482H618.523V92.307Z" fill="#BBDCFA"/>
    <path d="M845.378 166.585C828.122 166.585 827.202 137.598 844.458 136.304C844.688 136.304 844.688 136.304 844.918 136.304V136.045C844.918 115.341 859.873 98.5184 878.279 98.5184C884.031 98.5184 889.553 100.071 894.384 103.177C900.136 91.013 911.64 82.7312 924.984 82.7312C944.081 82.7312 959.726 100.071 959.726 121.811C959.726 122.846 959.726 124.14 959.496 125.175C962.947 124.14 966.858 123.364 970.77 123.364C984.804 123.364 996.998 131.387 1004.36 143.551C1010.34 153.644 1003.67 166.843 993.087 166.843H845.378V166.585Z" fill="#BBDCFA"/>
    <path d="M280.061 271H178.294C170.959 271 165 278.172 165 287V351.276V383L190.9 354.862C192.963 352.655 195.713 351.276 198.464 351.276H279.832C284.874 351.276 289 346.31 289 340.241V281.759C289 275.966 285.104 271 280.061 271Z" fill="#0A4D7A"/>
    <path d="M245.109 300.28C240.738 295.907 233.605 295.907 229.234 300.28L227.623 301.891L226.013 300.28C223.712 297.978 220.951 297.058 217.96 297.058C214.969 297.058 212.208 298.208 209.907 300.28C205.536 304.653 205.536 311.787 209.907 316.16L211.518 317.771L227.393 333.652L243.269 317.771L244.879 316.16C247.18 313.859 248.1 311.097 248.1 308.105C248.33 305.573 247.18 302.581 245.109 300.28Z" fill="#FF5E9A"/>
    <path d="M897.809 170H795.327C787.974 170 782 177.392 782 186.49V253.304V286L807.965 256.716C810.033 254.441 812.79 253.02 815.778 253.02H897.809C902.864 253.02 907 247.902 907 241.647V181.088C907 174.833 902.864 170 897.809 170Z" fill="#0A4D7A"/>
    <path d="M873.757 210.591C875.597 210.361 876.978 208.98 876.978 207.139C876.978 205.067 875.367 203.686 873.527 203.686H866.624C866.164 203.686 865.934 203.686 865.474 203.686C861.793 203.686 861.563 203.686 859.952 203.456C856.961 202.766 860.412 199.083 858.572 192.409C856.731 185.734 850.059 185.965 850.519 189.187C850.749 192.409 851.209 199.774 849.369 202.305C845.457 207.599 839.015 208.289 839.015 208.289L838.785 226.241H845.917C849.139 229.923 855.121 230.614 855.811 230.614H863.633H864.094C864.094 230.614 864.094 230.614 864.324 230.614H869.155C870.996 230.614 872.376 229.233 872.376 227.392C872.376 226.471 871.916 225.551 871.226 224.86C873.067 224.63 874.447 223.249 874.447 221.408C874.447 219.797 873.527 218.416 871.916 217.956H872.376C874.447 217.956 875.827 216.345 875.827 214.503C876.058 212.432 875.137 211.051 873.757 210.591Z" fill="#379CF7"/>
    <path d="M819 229.003H831.194L831.424 202.766H819.23L819 229.003Z" fill="#379CF7"/>
    <path d="M652.573 473.651C649.812 468.587 648.201 462.833 648.201 456.619C648.431 438.437 663.846 423.708 682.022 423.938C700.889 424.168 715.844 440.048 714.693 459.381C713.773 475.952 700.429 489.301 683.863 490.452C678.801 490.912 674.2 489.991 669.828 488.38C667.758 487.69 665.457 487.46 663.386 488.15L650.502 492.063L653.723 481.706C654.183 478.944 653.953 476.182 652.573 473.651Z" fill="#0A4D7A"/>
    <path d="M680.64 439.128L677.189 449.715C676.959 450.405 676.499 450.635 675.808 450.635H664.765C663.384 450.635 662.694 452.477 663.844 453.167L672.817 459.611C673.278 460.072 673.508 460.532 673.278 461.222L669.826 471.809C669.366 473.19 670.977 474.341 672.127 473.42L681.1 466.976C681.56 466.516 682.251 466.516 682.711 466.976L691.684 473.42C692.834 474.341 694.215 473.19 693.984 471.809L690.533 461.222C690.303 460.532 690.533 460.072 690.994 459.611L699.966 453.167C701.117 452.247 700.427 450.635 699.046 450.635H688.233C687.542 450.635 687.082 450.175 686.852 449.715L683.401 439.128C682.941 437.977 681.1 437.977 680.64 439.128Z" fill="#FBBE42"/>
    <path d="M961.417 494.005C974.631 506.073 968.895 518.182 959.122 540.617C949.349 563.052 947.607 645.909 947.607 645.909L955.681 644.762C955.681 644.762 954.533 559.611 965.453 536.581C976.373 513.551 981.005 502.079 990.778 509.557C1000.55 517.035 961.417 494.005 961.417 494.005Z" fill="#FF4883"/>
    <path d="M954.149 478.369C955.764 471.188 965.282 463.455 978.072 456.869C976.159 467.449 970.083 484.7 976.372 488.227C984.87 492.986 977.179 468.894 980.493 455.637C992.476 449.773 1006.88 445.014 1020.18 442.634C1020.18 442.677 1020.14 442.719 1020.14 442.762C1012.66 461.755 1002.89 469.234 1006.92 472.123C1009.94 474.29 1019.84 452.365 1032.84 441.105C1042.61 440.595 1050.9 441.912 1055.79 445.779C1063.35 451.77 1068.45 457.081 1060.84 475.31C1056.51 478.411 1050.86 480.663 1044.31 481.301C1027.06 483.043 1018.99 483.595 1031.1 489.374C1037.01 492.178 1046.95 489.204 1054.98 487.419C1052.39 492.221 1049.16 497.66 1045.25 503.863C1042.78 507.772 1040.07 511.214 1037.18 514.146C1031.61 515.208 1026.77 515.208 1024.17 514.103C1016.1 510.662 995.408 499.699 990.224 504.331C985.167 508.835 1028.59 511.681 1025.58 523.154C1004.54 535.264 980.451 529.527 976.159 518.395C970.423 503.438 949.305 499.912 954.149 478.369Z" fill="#FF5E9A"/>
    <path d="M997.662 560.206C974.632 542.954 951.05 559.058 938.983 577.457C926.915 595.855 935.541 637.283 935.541 637.283C935.541 637.283 940.13 637.283 940.13 635.541C940.13 633.799 927.468 586.635 957.381 565.347C976.119 552.047 989.589 558.463 991.331 564.752C993.073 571.041 983.853 582.598 983.853 582.598L997.662 560.206Z" fill="#FF4883"/>
    <path d="M944.763 524.684C967.793 524.684 975.271 560.376 968.94 581.068C962.609 601.761 953.984 640.343 953.984 640.343L948.247 634.606C948.247 634.606 970.13 580.516 964.946 556.339C959.762 532.162 947.1 528.125 944.806 528.125C942.469 528.168 944.763 524.684 944.763 524.684Z" fill="#FF5E9A"/>
    <path d="M964.054 581.238C965.669 579.114 967.666 577.329 970.13 576.139C969.79 577.839 969.408 579.496 968.941 581.068C966.051 590.501 962.694 603.631 959.89 615.146C959.635 613.659 959.253 611.407 958.615 607.88C958.488 607.073 958.36 606.138 958.275 605.203C960.527 597.597 962.652 589.226 964.054 581.238Z" fill="#FF4883"/>
    <path d="M970.343 581.408C1014.07 563.01 991.036 537.728 1029.58 554.427C1032.29 555.617 1035.61 558.548 1038.92 562.67C1035.48 563.647 1031.32 564.327 1026.73 563.647C1015.21 561.905 1019.25 571.126 1038.24 573.42C1041.81 573.845 1044.74 574.44 1047.12 575.29C1056.17 592.668 1060.25 615.528 1041.09 623.474C1037.31 625.046 1032.68 625.938 1027.45 626.278C1021.54 621.604 1028.9 594.41 1019.8 598.15C1011.05 601.761 1022.52 621.434 1020.95 626.406C1012.32 626.236 1002.76 624.834 993.628 622.582C990.016 620.542 987.255 617.823 986.405 614.253C983.515 602.186 1002.51 594.708 1003.1 584.34C1003.61 574.822 996.135 605.288 976.292 609.749C958.361 601.421 949.906 590.034 970.343 581.408Z" fill="#FF5E9A"/>
    <path d="M939.194 548.861C943.783 539.088 931.716 536.793 932.268 544.272C932.778 550.9 932.821 567.004 926.022 571.381C914.295 570.106 898.361 565.389 886.294 558.166C886.124 557.189 886.294 556.211 886.803 555.149C891.987 544.782 925.342 536.156 915.017 532.714C906.774 529.952 892.327 546.184 880.685 554.384C873.674 549.073 869 542.742 869 535.689C869 526.128 880.6 515.293 895.641 510.152C902.397 510.832 908.686 514.528 918.501 520.095C932.991 528.295 929.634 515.038 915.952 507.135C927.764 507.73 939.577 512.786 948.245 524.853C948.245 524.853 947.437 529.995 952.876 537.983C967.79 559.738 950.582 572.485 930.016 571.635C931.163 565.942 936.007 555.617 939.194 548.861Z" fill="#FF5E9A"/>
    <path d="M996.299 559.228C1007.56 567.939 1020.05 578.094 1035.39 584.977C1050.73 591.903 1047.67 614.381 1047.67 614.381C1047.67 614.381 1049.96 594.963 1037.18 588.292C1024.39 581.663 1015.93 573.718 1006.24 572.188C996.554 570.658 991.158 569.129 991.158 569.129C991.158 569.129 994.218 563.01 992.433 560.673C990.648 558.336 996.299 559.228 996.299 559.228Z" fill="#FF4883"/>
    <path d="M1051.75 457.124C1010.58 468.129 980.41 494.473 974.759 500.846C969.15 507.22 969.15 509.047 969.15 509.047L973.484 517.248L975.524 516.228C975.524 516.228 972.21 509.302 980.878 500.379C995.877 484.955 1014.11 472.76 1026.64 467.406C1039.22 461.968 1051.75 457.124 1051.75 457.124Z" fill="#FF4883"/>
    <path d="M938.09 685H953.812C964.987 685 974.08 675.95 974.08 664.732V628.573H917.822V664.732C917.865 675.95 926.915 685 938.09 685Z" fill="#75A1DE"/>
    <path d="M974.119 635.074H917.861V639.025H974.119V635.074Z" fill="white"/>
    <path d="M974.119 642.297H917.861V644.634H974.119V642.297Z" fill="white"/>
</svg>
