<svg width="105" height="110" viewBox="0 0 105 110" fill="none" xmlns="http://www.w3.org/2000/svg">
    <path d="M50.431 100.143C77.5832 100.143 99.5945 78.1317 99.5945 50.9795C99.5945 23.8272 77.5832 1.81601 50.431 1.81601C23.2788 1.81601 1.26758 23.8272 1.26758 50.9795C1.26758 78.1317 23.2788 100.143 50.431 100.143Z" fill="#3588B7"/>
    <path d="M50.432 1.81622C49.3428 1.81622 48.263 1.85556 47.1914 1.92525C72.8328 3.59417 93.1149 24.9169 93.1149 50.9803C93.1149 77.0437 72.8328 98.3664 47.1914 100.035C48.263 100.105 49.3428 100.144 50.432 100.144C77.5845 100.144 99.5961 78.1329 99.5961 50.9803C99.5961 23.8278 77.5845 1.81622 50.432 1.81622Z" fill="#1E5C96"/>
    <path d="M50.4318 100.143C66.9218 100.143 80.2895 78.1317 80.2895 50.9795C80.2895 23.8272 66.9218 1.81601 50.4318 1.81601C33.9419 1.81601 20.5742 23.8272 20.5742 50.9795C20.5742 78.1317 33.9419 100.143 50.4318 100.143Z" fill="#4E9FCC"/>
    <path d="M86.0927 15.3194C76.5672 5.79411 63.9024 0.54834 50.4318 0.54834C36.9611 0.54834 24.2965 5.79411 14.7713 15.3194C5.24598 24.8447 0 37.5094 0 50.9803C0 64.4512 5.24598 77.1157 14.7711 86.641C24.2961 96.1663 36.9609 101.412 50.4318 101.412C63.9026 101.412 76.5672 96.1663 86.0927 86.641C95.618 77.1157 100.864 64.451 100.864 50.9803C100.864 37.5096 95.618 24.8449 86.0927 15.3194ZM87.619 81.1293C84.611 79.1083 81.2107 77.3616 77.52 75.9167C80.0275 68.7619 81.4205 60.677 81.5474 52.248H98.3115C98.0259 63.1728 94.0625 73.1968 87.619 81.1293ZM2.55266 52.248H19.3167C19.4437 60.677 20.8366 68.7619 23.3442 75.9167C19.6534 77.3618 16.2531 79.1083 13.2451 81.1293C6.80139 73.1968 2.83783 63.1728 2.55266 52.248ZM13.2449 20.8311C16.2529 22.8521 19.6532 24.5988 23.344 26.0437C20.8364 33.1985 19.4435 41.2834 19.3165 49.7124H2.55245C2.83783 38.7876 6.80139 28.7636 13.2449 20.8311ZM51.6996 30.881C60.0135 30.7531 68.0453 29.3713 75.1422 26.9196C77.5473 33.7943 78.8853 41.5794 79.0112 49.7124H51.6996V30.881ZM51.6996 28.3454V3.13285C58.7441 3.65168 65.3646 8.48316 70.4608 16.8742C71.8975 19.24 73.1646 21.8121 74.2554 24.548C67.4431 26.8941 59.7157 28.2189 51.6996 28.3454ZM49.1641 28.3454C41.148 28.2189 33.4208 26.8941 26.6085 24.5477C27.6994 21.8119 28.9664 19.2398 30.4032 16.8739C35.4989 8.48294 42.1196 3.65125 49.1641 3.13264V28.3454ZM49.1641 30.881V49.7124H21.8527C21.9786 41.5797 23.3164 33.7943 25.7218 26.9196C32.8186 29.3713 40.8503 30.7531 49.1641 30.881ZM21.8527 52.248H49.1641V71.0794C40.8503 71.2073 32.8186 72.5891 25.7218 75.0409C23.3164 68.1661 21.9786 60.3807 21.8527 52.248ZM49.1641 73.615V98.8278C42.1198 98.3089 35.4989 93.4775 30.4032 85.0865C28.9664 82.7206 27.6994 80.1485 26.6085 77.4127C33.4208 75.0663 41.148 73.7415 49.1641 73.615ZM51.6996 73.615C59.7157 73.7415 67.4431 75.0663 74.2554 77.4127C73.1646 80.1485 71.8975 82.7206 70.4608 85.0865C65.3648 93.4775 58.7441 98.3092 51.6996 98.8278V73.615V73.615ZM51.6996 71.0794V52.248H79.0112C78.8853 60.381 77.5473 68.1661 75.1422 75.0409C68.0451 72.5891 60.0135 71.2073 51.6996 71.0794ZM81.5474 49.7124C81.4205 41.2834 80.0275 33.1985 77.52 26.0437C81.2107 24.5986 84.611 22.8521 87.619 20.8311C94.0625 28.7636 98.0261 38.7876 98.3115 49.7124H81.5474ZM85.9569 18.8896C83.1704 20.7343 80.0344 22.3363 76.6334 23.6713C75.4848 20.78 74.1475 18.0602 72.6278 15.5577C69.8098 10.9176 66.5303 7.28026 62.9511 4.74705C71.9377 7.1832 79.8841 12.1731 85.9569 18.8896ZM37.9126 4.74726C34.3334 7.28047 31.0539 10.9178 28.236 15.558C26.7162 18.0602 25.3789 20.7802 24.2303 23.6715C20.8294 22.3365 17.6933 20.7345 14.9068 18.8896C20.9799 12.1731 28.9262 7.1832 37.9126 4.74726ZM14.907 83.0708C17.6935 81.2261 20.8296 79.6241 24.2305 78.2889C25.3791 81.1802 26.7165 83.9 28.2362 86.4024C31.0541 91.0426 34.3334 94.6799 37.9128 97.2131C28.9262 94.7772 20.9799 89.7873 14.907 83.0708ZM62.9511 97.2131C66.5303 94.6799 69.8098 91.0426 72.6278 86.4024C74.1475 83.9002 75.4848 81.1802 76.6334 78.2889C80.0344 79.6239 83.1704 81.2259 85.9569 83.0706C79.8841 89.7873 71.9377 94.7772 62.9511 97.2131Z" fill="#22598C"/>
    <path d="M86.8112 108.854L84.865 109.877C84.5536 110.041 84.1816 110.041 83.8701 109.877L81.924 108.854C71.237 103.237 64.6562 92.8718 64.6562 81.6565V74.8057C64.6562 74.264 65.0607 73.8007 65.5994 73.7439C69.2831 73.3552 72.2116 70.7181 72.6785 67.3829C72.7531 66.8493 73.2003 66.4472 73.7392 66.4472H94.9962C95.5351 66.4472 95.9823 66.8491 96.0569 67.3829C96.5236 70.7179 99.4522 73.3552 103.136 73.7439C103.675 73.8007 104.079 74.264 104.079 74.8057V81.6565C104.079 92.872 97.4981 103.237 86.8112 108.854Z" fill="#FFD278"/>
    <path d="M103.136 73.7441C99.4518 73.3554 96.5232 70.7183 96.0565 67.3833C95.9819 66.8497 95.5345 66.4476 94.9957 66.4476H84.3672V110C84.538 110 84.709 109.959 84.8646 109.877L86.8108 108.854C97.4977 103.237 104.079 92.872 104.079 81.6567V74.8061C104.079 74.2642 103.674 73.801 103.136 73.7441Z" fill="#FFBF4D"/>
    <path d="M103.137 73.7441C99.4535 73.3554 96.5248 70.7183 96.0582 67.3833C95.9836 66.8497 95.5361 66.4476 94.9974 66.4476H89.9684C90.8684 69.8273 93.5314 74.4775 96.7841 74.8206C97.3228 74.8775 97.7273 75.3408 97.7273 75.8825V82.733C97.7273 92.5035 92.7314 103.59 84.3789 109.999C84.5465 109.998 84.7137 109.957 84.8665 109.877L86.8127 108.854C97.4996 103.237 104.08 92.8716 104.08 81.6562V74.8057C104.08 74.2642 103.676 73.801 103.137 73.7441Z" fill="#F9AD32"/>
</svg>
