<svg width="1043" height="1031" viewBox="0 0 1043 1031" fill="none" xmlns="http://www.w3.org/2000/svg">
    <path fill-rule="evenodd" clip-rule="evenodd" d="M325.948 291.644C320.169 295.304 314.381 298.97 308.573 302.617C285.476 317.118 259.433 329.761 233.306 342.444C165.205 375.504 96.5316 408.841 77.9719 476.096C60.0149 541.167 102.901 594.202 145.761 647.205C157.249 661.412 168.735 675.616 179.047 690.05L861.209 690.05C849.862 652.078 838.507 613.416 839.973 576.392C841.165 546.281 851.703 515.961 862.088 486.084C877.431 441.94 892.438 398.761 876.474 358.642C850.314 292.9 777.212 263.903 710.838 237.574C708.578 236.677 706.325 235.784 704.082 234.892C640.616 209.655 572.339 197.764 502.128 209.786C437.796 220.802 382.303 255.95 325.948 291.644Z" fill="#E7F3FE"/>
    <path d="M965.235 686.467C887.169 682.971 621.632 688.901 540.901 691.198C467.861 691.198 429.375 690.555 398.762 685.618C350.084 677.767 -12.4675 680.948 0.330788 702.066C13.0916 723.184 125.724 711.494 253.445 719.996C381.166 728.498 668.434 718.933 733.214 719.996C797.994 721.058 857.444 717.87 940.915 713.619C1024.39 709.368 1010.46 688.49 965.235 686.467Z" fill="#CCE2FF"/>
    <path d="M375.289 154.957H293.09V267.505H375.289V154.957Z" fill="#D8ECFF"/>
    <path d="M354.473 169.111H272.273V281.658H354.473V169.111Z" fill="#E0E0E0"/>
    <path d="M741.916 323.03C741.916 323.03 741.78 323.03 741.372 323.03C740.963 323.03 740.419 323.03 739.739 323.03C738.378 323.03 736.2 323.03 733.478 323.03C728.035 323.03 720.142 323.03 710.207 323.166C690.338 323.166 662.439 323.302 630.049 323.302H629.777V323.03C628.144 317.314 629.096 310.782 632.907 305.61C636.581 300.575 642.978 297.309 649.51 297.445L649.238 297.853C648.694 296.22 648.557 294.315 648.557 292.409C648.83 286.149 652.368 280.161 657.676 277.439C662.983 274.582 669.652 274.718 674.687 277.576L674.279 277.712C677.137 270.635 683.261 265.599 689.793 263.286C696.462 260.836 703.811 261.245 709.526 264.239C715.378 267.233 719.461 272.268 721.775 277.576C724.088 282.883 724.496 288.599 723.272 293.634L722.999 293.362C726.266 292.954 729.532 293.498 732.254 294.723C734.975 295.812 737.425 297.581 739.194 299.486C740.147 300.439 740.827 301.528 741.372 302.616C741.916 303.705 742.324 304.794 742.46 305.882C743.005 308.06 743.141 310.101 743.277 311.871C743.413 315.545 743.005 318.403 742.597 320.172C742.324 321.125 742.188 321.805 742.052 322.213C742.052 322.758 741.916 323.03 741.916 323.03Z" fill="#D8ECFF"/>
    <path d="M955.716 269.546C944.557 271.451 937.072 281.93 938.841 293.09C940.746 304.249 951.225 311.734 962.385 309.965C971.911 308.332 978.852 300.439 979.396 291.185L984.976 290.232L987.97 283.972L992.325 289.007L999.401 287.782L1002.53 281.522L1006.89 286.558L1012.87 285.605L1014.64 281.794L1017.37 284.924L1020.9 284.38L1024.71 279.209L1018.05 271.86L976.402 278.8C972.183 271.996 964.018 268.185 955.716 269.546ZM944.284 292.137C943.74 288.871 945.918 285.877 949.184 285.333C952.45 284.788 955.444 286.966 955.988 290.232C956.533 293.498 954.355 296.492 951.089 297.037C947.823 297.581 944.829 295.403 944.284 292.137Z" fill="#D8ECFF"/>
    <path d="M934.893 426.051L937.479 472.458C937.615 474.091 938.976 475.452 940.609 475.452L1024.17 475.997C1025.94 475.997 1027.3 474.636 1027.3 472.866L1027.57 436.802C1027.57 435.033 1026.21 433.672 1024.44 433.672H973.135C972.318 433.672 971.502 433.4 970.958 432.72L962.112 423.874C961.567 423.329 960.751 422.921 959.934 422.921L938.296 422.785C936.254 422.785 934.757 424.282 934.893 426.051Z" fill="#EBEBEB"/>
    <path d="M1027.52 428.298L936.342 427.63L935.942 482.203L1027.12 482.871L1027.52 428.298Z" fill="#F5F5F5"/>
    <path d="M929.042 432.447L935.575 489.333C935.711 490.286 936.527 491.103 937.616 491.103L1026.48 491.783C1027.57 491.783 1028.39 490.966 1028.52 489.878L1033.42 433.128C1033.56 431.903 1032.61 430.95 1031.38 430.95L931.084 430.27C929.859 430.134 928.906 431.222 929.042 432.447Z" fill="#EBEBEB"/>
    <path d="M924.423 682.31C903.193 667.477 898.429 640.122 899.246 615.354C899.382 611.271 898.974 606.916 900.879 603.241C902.784 599.567 907.411 597.117 911.086 598.887C914.08 600.384 915.441 603.922 917.21 606.78C919.524 610.727 922.926 613.993 926.872 616.034C929.458 617.395 932.724 618.212 935.31 616.851C938.848 614.945 939.257 610.046 939.257 605.827C939.257 598.206 939.121 590.585 939.121 582.964C939.121 578.881 939.121 574.662 940.345 570.852C941.57 566.905 944.428 563.367 948.375 562.278C952.322 561.189 957.085 563.367 957.901 567.45C958.31 569.083 957.901 570.852 958.037 572.485C958.173 574.118 958.99 576.023 960.623 576.568C962.256 577.112 963.889 575.887 965.114 574.662C969.333 570.58 972.191 565.136 974.913 559.965C977.635 554.657 980.22 549.213 984.031 544.722C987.841 540.231 993.149 536.693 999.001 536.285C1004.85 536.012 1011.11 539.551 1012.61 545.267C1014.11 550.982 1010.7 556.834 1007.03 561.598C1001.59 568.538 995.19 574.662 987.977 579.698C986.753 580.65 985.256 581.603 984.847 583.1C983.895 585.822 986.48 588.544 989.202 589.496C992.196 590.449 995.599 590.177 998.729 590.585C1001.86 590.993 1005.4 592.354 1006.62 595.348C1008.26 599.567 1004.85 603.922 1001.31 606.78C994.374 612.496 986.48 617.123 978.179 620.117C975.185 621.206 972.055 622.158 969.605 624.336C967.155 626.513 965.658 630.188 967.155 633.045C968.652 635.903 972.327 636.856 975.593 636.312C978.723 635.767 981.581 633.998 984.575 632.909C990.155 630.732 997.504 631.14 1001.04 636.039C1003.36 639.17 1003.63 643.661 1002.4 647.471C1001.18 651.282 998.729 654.548 996.143 657.542C987.161 668.157 975.593 676.595 962.528 681.222C949.464 685.849 937.351 687.074 924.423 682.31Z" fill="#D8ECFF"/>
    <path d="M924.01 700.547C924.962 690.748 927.004 679.181 930.678 666.796C934.353 654.412 939.388 641.075 945.24 627.33C946.737 623.927 948.098 620.525 949.595 617.123C951.092 613.857 952.453 610.454 954.086 607.324C957.216 601.064 960.754 595.212 964.293 589.769C967.831 584.325 971.37 579.29 974.636 574.662C978.038 570.035 981.168 565.68 984.298 561.87C990.422 554.249 996.138 548.805 1000.22 545.131C1002.26 543.361 1003.9 542.001 1004.98 541.048C1005.53 540.64 1005.94 540.231 1006.21 539.959C1006.48 539.687 1006.62 539.687 1006.62 539.687C1006.62 539.687 1006.48 539.823 1006.21 540.095C1005.94 540.367 1005.53 540.776 1004.98 541.184C1003.9 542.137 1002.26 543.498 1000.36 545.403C996.41 549.077 990.831 554.657 984.706 562.278C981.712 566.089 978.446 570.308 975.18 575.071C971.914 579.698 968.375 584.733 964.837 590.177C961.299 595.62 957.897 601.472 954.766 607.733C953.133 610.863 951.772 614.129 950.275 617.531C948.914 620.933 947.418 624.2 945.921 627.738C940.069 641.483 935.033 654.684 931.359 667.204C927.684 679.589 925.507 691.02 924.554 700.819" fill="#D8ECFF"/>
    <path d="M954.359 607.324C954.359 607.324 954.223 606.644 953.951 605.555C953.679 604.466 953.543 602.833 953.134 600.792C952.59 596.709 951.909 590.993 951.365 584.869C950.685 578.609 950.004 573.029 949.46 568.947C949.188 566.905 948.915 565.272 948.643 564.183C948.507 563.095 948.371 562.414 948.371 562.414C948.371 562.414 948.643 562.959 948.915 564.183C949.188 565.272 949.596 566.905 950.004 568.947C950.821 573.029 951.501 578.609 952.182 584.869C952.862 590.993 953.406 596.573 953.815 600.928C954.087 602.833 954.223 604.466 954.359 605.827C954.359 606.644 954.359 607.324 954.359 607.324Z" fill="#D8ECFF"/>
    <path d="M1007.03 597.526C1007.03 597.526 1006.35 597.662 1004.99 597.798C1003.63 597.934 1001.72 598.07 999.271 598.342C994.508 598.887 987.84 599.839 980.491 601.2C973.278 602.561 966.746 604.058 961.982 605.419C959.669 605.963 957.764 606.508 956.403 606.916C955.042 607.324 954.361 607.46 954.361 607.46C954.361 607.46 955.042 607.188 956.267 606.644C957.491 606.235 959.397 605.555 961.71 604.875C966.337 603.514 972.87 601.881 980.219 600.52C987.568 599.159 994.236 598.206 998.999 597.934C1001.45 597.662 1003.35 597.662 1004.72 597.662C1006.21 597.389 1007.03 597.39 1007.03 597.526Z" fill="#D8ECFF"/>
    <path d="M931.358 665.844C931.358 665.844 931.221 665.571 930.949 665.163C930.677 664.619 930.405 664.074 929.997 663.258C929.18 661.625 928.227 659.175 926.867 656.181C924.281 650.193 921.015 641.755 917.612 632.365C914.21 622.975 910.944 614.537 908.63 608.413C907.405 605.419 906.453 602.969 905.772 601.2C905.5 600.384 905.228 599.703 904.956 599.295C904.82 598.887 904.684 598.615 904.684 598.615C904.684 598.615 904.82 598.887 905.092 599.295C905.364 599.839 905.636 600.384 906.045 601.2C906.861 602.833 907.814 605.283 909.175 608.277C911.76 614.265 915.027 622.703 918.429 632.093C921.831 641.483 925.097 649.921 927.411 656.045C928.636 659.039 929.588 661.489 930.269 663.258C930.541 664.074 930.813 664.755 931.085 665.163C931.358 665.571 931.358 665.844 931.358 665.844Z" fill="#D8ECFF"/>
    <path d="M1001.45 643.252C1001.45 643.252 1001.18 643.389 1000.77 643.525C1000.22 643.661 999.544 643.933 998.727 644.205C996.822 644.749 994.372 645.702 991.242 646.655C984.982 648.696 976.272 651.69 966.61 654.956C956.947 658.222 948.237 661.08 941.841 662.986C938.711 663.938 936.125 664.755 934.22 665.163C933.403 665.435 932.723 665.571 932.179 665.707C931.77 665.844 931.498 665.844 931.498 665.844C931.498 665.844 931.77 665.708 932.179 665.571C932.723 665.435 933.403 665.163 934.22 664.891C936.125 664.347 938.575 663.53 941.705 662.441C947.965 660.4 956.675 657.406 966.337 654.14C976 650.874 984.71 648.016 991.106 646.11C994.236 645.158 996.822 644.341 998.727 643.933C999.544 643.661 1000.22 643.525 1000.77 643.389C1001.18 643.389 1001.31 643.252 1001.45 643.252Z" fill="#D8ECFF"/>
    <path d="M930.983 700.683C930.983 700.819 753.073 701.091 533.717 701.091C314.237 701.091 136.451 700.955 136.451 700.683C136.451 700.411 314.237 700.275 533.717 700.275C753.197 700.275 930.983 700.411 930.983 700.683Z" fill="#263238"/>
    <path d="M909.721 653.187C912.034 656.181 916.389 654.956 918.294 652.914C920.2 650.873 920.88 648.015 921.561 645.293C923.058 639.033 924.419 632.637 922.786 626.513C922.241 624.608 921.561 622.838 920.2 621.477C918.839 620.116 916.798 619.436 915.028 619.98C912.851 620.661 911.626 622.838 910.809 624.88C908.224 631.004 906.999 637.672 907.407 644.205C907.271 647.471 907.815 650.737 909.721 653.187Z" fill="#FF4883"/>
    <g opacity="0.2">
        <g opacity="0.2">
            <path opacity="0.2" d="M909.721 653.187C912.034 656.181 916.389 654.956 918.294 652.914C920.2 650.873 920.88 648.015 921.561 645.293C923.058 639.033 924.419 632.637 922.786 626.513C922.241 624.608 921.561 622.838 920.2 621.477C918.839 620.116 916.798 619.436 915.028 619.98C912.851 620.661 911.626 622.838 910.809 624.88C908.224 631.004 906.999 637.672 907.407 644.205C907.271 647.471 907.815 650.737 909.721 653.187Z" fill="black"/>
        </g>
    </g>
    <path d="M918.842 668.701C922.38 666.66 926.599 666.251 930.682 666.66C932.859 666.932 935.173 667.476 936.67 668.973C938.167 670.47 938.711 673.328 937.078 674.825C936.126 675.642 934.765 675.914 933.404 675.914C930.274 676.05 926.735 675.642 924.286 677.683C922.925 678.772 921.972 680.677 920.339 681.357C918.706 681.902 916.801 681.085 915.712 679.588C914.759 678.091 914.623 676.186 914.895 674.553C915.031 674.553 915.304 670.878 918.842 668.701Z" fill="#FF4883"/>
    <path d="M903.87 657.95C906.183 654.956 906.32 650.737 905.095 647.199C903.87 643.66 901.284 640.802 898.29 638.353C894.888 635.631 890.941 633.589 886.722 632.229C885.089 631.684 883.32 631.412 881.687 631.684C879.918 631.956 878.285 632.909 877.604 634.406C876.516 636.72 877.74 639.441 879.101 641.619C881.415 645.429 884.137 649.104 886.995 652.506C889.308 655.228 892.03 657.95 895.432 659.039C898.835 660.127 902.373 659.855 904.006 657.405" fill="#FF4883"/>
    <path d="M911.899 700.955C911.899 700.955 912.035 700.41 912.035 699.458C912.035 698.369 912.171 697.144 912.171 695.511C912.307 693.878 912.443 691.836 912.716 689.659C913.124 687.482 913.668 685.168 914.485 682.718C915.301 680.269 916.39 678.091 917.615 676.322C918.84 674.553 920.337 673.192 921.834 672.512C923.331 671.695 924.556 671.287 925.508 671.151C926.461 671.015 926.869 670.878 926.869 670.878C926.869 670.878 926.325 670.878 925.372 670.878C924.419 671.015 923.059 671.287 921.562 672.103C920.065 672.92 918.432 674.145 917.071 676.05C915.71 677.819 914.621 680.133 913.804 682.446C912.988 684.896 912.443 687.209 912.035 689.523C911.763 691.7 911.627 693.742 911.627 695.375C911.627 697.008 911.627 698.369 911.627 699.322C911.899 700.41 911.899 700.955 911.899 700.955Z" fill="#263238"/>
    <path d="M912.033 697.825C912.033 697.825 912.033 697.552 912.033 697.144C912.033 696.6 912.033 696.055 911.897 695.239C911.761 693.606 911.625 691.156 911.625 688.162C911.489 682.174 911.625 674.009 912.033 665.027C912.577 656.045 913.53 647.879 914.347 642.027C914.619 640.53 914.755 639.169 915.027 638.081C915.163 636.856 915.435 635.903 915.571 635.087C915.707 634.27 915.844 633.726 915.98 633.181C916.116 632.773 916.116 632.501 916.116 632.501C916.116 632.501 915.98 632.773 915.98 633.181C915.844 633.726 915.707 634.27 915.571 635.087C915.299 635.903 915.163 636.856 914.891 638.081C914.619 639.169 914.347 640.53 914.21 642.027C913.258 647.879 912.169 656.045 911.625 665.163C911.08 674.281 911.08 682.446 911.353 688.434C911.489 691.428 911.625 693.742 911.761 695.511C911.897 696.328 911.897 696.872 912.033 697.416C912.033 697.689 912.033 697.825 912.033 697.825Z" fill="#263238"/>
    <path d="M911.357 682.038C911.357 682.038 911.358 681.357 911.221 679.997C911.085 678.772 910.813 676.866 910.405 674.689C909.86 672.512 909.18 669.79 908.227 666.932C907.275 664.074 906.05 660.944 904.417 657.814C901.423 651.417 897.34 646.382 893.938 643.252C893.121 642.435 892.305 641.891 891.488 641.211C891.08 640.938 890.808 640.666 890.536 640.394C890.263 640.258 889.855 639.986 889.583 639.85C888.494 639.169 887.814 638.761 887.814 638.897C887.678 639.033 890.263 640.394 893.53 643.524C896.796 646.654 900.742 651.826 903.736 658.086C905.233 661.216 906.594 664.346 907.547 667.204C908.5 670.062 909.316 672.648 909.861 674.961C910.405 677.139 910.677 679.044 910.949 680.269C911.085 681.357 911.221 682.038 911.357 682.038Z" fill="#263238"/>
    <path d="M269.542 395.159H115.623V498.18H269.542V395.159Z" fill="#FAFAFA"/>
    <path d="M227.631 457.624H223.548V432.991C223.548 427.003 218.785 422.24 212.797 422.24C206.809 422.24 202.046 427.003 202.046 432.991V457.624H197.963V432.991C197.963 424.826 204.631 418.157 212.797 418.157C220.962 418.157 227.631 424.826 227.631 432.991V457.624Z" fill="#263238"/>
    <path d="M228.446 472.73H197.145C194.559 472.73 192.518 470.689 192.518 468.103V451.228C192.518 448.642 194.559 446.601 197.145 446.601H228.446C231.031 446.601 233.073 448.642 233.073 451.228V468.103C233.073 470.689 231.031 472.73 228.446 472.73Z" fill="#263238"/>
    <path d="M212.795 459.665C210.89 459.665 209.393 458.168 209.393 456.263C209.393 454.357 210.89 452.86 212.795 452.86C214.7 452.86 216.197 454.357 216.197 456.263C216.197 458.168 214.7 459.665 212.795 459.665Z" fill="#455A64"/>
    <path d="M213.745 457.624H211.84V464.564H213.745V457.624Z" fill="#455A64"/>
    <path d="M191.433 457.352C197.149 454.902 201.232 449.05 201.232 442.11C201.232 432.991 194.428 425.643 185.854 425.643C177.416 425.643 170.475 432.991 170.339 441.973C170.339 448.914 174.422 454.902 180.138 457.352C156.458 460.89 157.547 486.748 157.547 486.748L213.616 487.02C213.752 486.884 214.977 460.89 191.433 457.352Z" fill="#FF4883"/>
    <path d="M269.411 498.179C269.411 498.179 269.411 497.499 269.411 496.274C269.411 495.049 269.411 493.144 269.411 490.83C269.411 486.067 269.411 478.99 269.275 470.145C269.275 452.181 269.139 426.459 269.139 395.158L269.411 395.43C226.95 395.43 173.466 395.43 115.628 395.567L116.036 395.158C116.036 431.903 116.036 466.742 116.036 498.179L115.628 497.907C160.946 497.907 199.324 498.043 226.406 498.043C240.015 498.043 250.766 498.043 258.115 498.179C261.79 498.179 264.648 498.179 266.553 498.179C267.505 498.179 268.186 498.179 268.73 498.179C269.139 498.179 269.411 498.179 269.411 498.179C269.411 498.179 269.139 498.179 268.73 498.179C268.186 498.179 267.505 498.179 266.553 498.179C264.648 498.179 261.79 498.179 258.251 498.179C250.902 498.179 240.151 498.179 226.678 498.315C199.46 498.315 160.946 498.452 115.628 498.452H115.355V498.179C115.355 466.742 115.355 431.903 115.355 395.158V394.75H115.764C173.739 394.75 227.222 394.75 269.547 394.886H269.819V395.158C269.819 426.595 269.683 452.317 269.683 470.281C269.683 479.263 269.683 486.203 269.547 490.966C269.547 493.28 269.547 495.185 269.547 496.41C269.411 497.635 269.411 498.179 269.411 498.179Z" fill="#263238"/>
    <path d="M269.406 407.542C269.406 407.678 234.975 407.951 192.515 407.951C150.054 407.951 115.623 407.815 115.623 407.542C115.623 407.406 150.054 407.134 192.515 407.134C234.975 407.134 269.406 407.27 269.406 407.542Z" fill="#263238"/>
    <path d="M125.696 401.282C125.696 402.099 125.015 402.915 124.063 402.915C123.11 402.915 122.43 402.235 122.43 401.282C122.43 400.466 123.11 399.649 124.063 399.649C125.015 399.649 125.696 400.466 125.696 401.282Z" fill="#263238"/>
    <path d="M130.874 401.282C130.874 402.099 130.193 402.916 129.241 402.916C128.424 402.916 127.607 402.235 127.607 401.282C127.607 400.466 128.288 399.649 129.241 399.649C130.193 399.785 130.874 400.466 130.874 401.282Z" fill="#263238"/>
    <path d="M136.452 401.282C136.452 402.099 135.771 402.916 134.819 402.916C134.002 402.916 133.186 402.235 133.186 401.282C133.186 400.466 133.866 399.649 134.819 399.649C135.771 399.785 136.452 400.466 136.452 401.282Z" fill="#263238"/>
    <path d="M269.411 498.179C269.411 498.179 269.411 497.499 269.411 496.274C269.411 495.049 269.411 493.144 269.411 490.83C269.411 486.067 269.411 478.99 269.275 470.145C269.275 452.181 269.139 426.459 269.139 395.158L269.411 395.43C226.95 395.43 173.466 395.43 115.628 395.567L116.036 395.158C116.036 431.903 116.036 466.742 116.036 498.179L115.628 497.907C160.946 497.907 199.324 498.043 226.406 498.043C240.015 498.043 250.766 498.043 258.115 498.179C261.79 498.179 264.648 498.179 266.553 498.179C267.505 498.179 268.186 498.179 268.73 498.179C269.139 498.179 269.411 498.179 269.411 498.179C269.411 498.179 269.139 498.179 268.73 498.179C268.186 498.179 267.505 498.179 266.553 498.179C264.648 498.179 261.79 498.179 258.251 498.179C250.902 498.179 240.151 498.179 226.678 498.315C199.46 498.315 160.946 498.452 115.628 498.452H115.355V498.179C115.355 466.742 115.355 431.903 115.355 395.158V394.75H115.764C173.739 394.75 227.222 394.75 269.547 394.886H269.819V395.158C269.819 426.595 269.683 452.317 269.683 470.281C269.683 479.263 269.683 486.203 269.547 490.966C269.547 493.28 269.547 495.185 269.547 496.41C269.411 497.635 269.411 498.179 269.411 498.179Z" fill="#263238"/>
    <path d="M191.563 501.582C191.426 501.582 191.154 500.765 191.154 499.813C191.154 498.86 191.29 498.043 191.563 498.043C191.699 498.043 191.971 498.86 191.971 499.813C191.835 500.901 191.699 501.582 191.563 501.582Z" fill="black"/>
    <path d="M191.563 516.551C191.426 516.551 191.154 514.918 191.154 512.877C191.154 510.836 191.29 509.202 191.563 509.202C191.699 509.202 191.971 510.836 191.971 512.877C191.835 514.782 191.699 516.551 191.563 516.551Z" fill="black"/>
    <path d="M191.563 531.385C191.426 531.385 191.154 529.752 191.154 527.711C191.154 525.67 191.29 524.037 191.563 524.037C191.699 524.037 191.971 525.67 191.971 527.711C191.835 529.752 191.699 531.385 191.563 531.385Z" fill="black"/>
    <path d="M191.563 546.219C191.426 546.219 191.154 544.586 191.154 542.545C191.154 540.504 191.29 538.871 191.563 538.871C191.699 538.871 191.971 540.504 191.971 542.545C191.835 544.586 191.699 546.219 191.563 546.219Z" fill="black"/>
    <path d="M191.563 561.19C191.426 561.19 191.154 559.556 191.154 557.515C191.154 555.474 191.29 553.841 191.563 553.841C191.699 553.841 191.971 555.474 191.971 557.515C191.835 559.556 191.699 561.19 191.563 561.19Z" fill="black"/>
    <path d="M194.965 571.941C194.965 572.077 193.468 572.349 191.563 572.349C190.882 571.669 191.426 572.213 191.154 571.941V571.805V571.669V571.396C191.154 571.26 191.154 570.988 191.154 570.716C191.154 570.308 191.154 569.899 191.29 569.627C191.29 568.947 191.426 568.675 191.563 568.675C191.699 568.675 191.699 569.083 191.835 569.627C191.835 569.899 191.835 570.308 191.971 570.716C191.971 570.988 191.971 571.124 191.971 571.396V571.669V571.805V571.941C191.835 571.805 192.379 572.349 191.563 571.533C193.332 571.669 194.965 571.805 194.965 571.941Z" fill="black"/>
    <path d="M208.303 571.941C208.303 572.077 206.806 572.349 204.9 572.349C202.995 572.349 201.498 572.213 201.498 571.941C201.498 571.669 202.995 571.533 204.9 571.533C206.806 571.669 208.303 571.805 208.303 571.941Z" fill="black"/>
    <path d="M221.635 571.941C221.635 572.077 220.138 572.349 218.232 572.349C216.327 572.349 214.83 572.213 214.83 571.941C214.83 571.669 216.327 571.533 218.232 571.533C220.138 571.669 221.635 571.805 221.635 571.941Z" fill="black"/>
    <path d="M234.974 571.941C234.974 572.077 233.477 572.349 231.572 572.349C229.667 572.349 228.17 572.213 228.17 571.941C228.17 571.669 229.667 571.533 231.572 571.533C233.477 571.669 234.974 571.805 234.974 571.941Z" fill="black"/>
    <path d="M248.449 571.941C248.449 572.077 246.952 572.349 245.047 572.349C243.142 572.349 241.645 572.213 241.645 571.941C241.645 571.669 243.142 571.533 245.047 571.533C246.952 571.669 248.449 571.805 248.449 571.941Z" fill="black"/>
    <path d="M261.787 571.941C261.787 572.077 260.29 572.349 258.385 572.349C256.479 572.349 254.982 572.213 254.982 571.941C254.982 571.669 256.479 571.533 258.385 571.533C260.29 571.669 261.787 571.805 261.787 571.941Z" fill="black"/>
    <path d="M275.125 571.941C275.125 572.077 273.628 572.349 271.723 572.349C269.817 572.349 268.32 572.213 268.32 571.941C268.32 571.669 269.817 571.533 271.723 571.533C273.628 571.669 275.125 571.805 275.125 571.941Z" fill="black"/>
    <path d="M288.459 571.941C288.459 572.077 286.962 572.349 285.057 572.349C283.151 572.349 281.654 572.213 281.654 571.941C281.654 571.669 283.151 571.533 285.057 571.533C286.962 571.669 288.459 571.805 288.459 571.941Z" fill="black"/>
    <path d="M301.933 571.941C301.933 572.077 300.436 572.349 298.531 572.349C296.626 572.349 295.129 572.213 295.129 571.941C295.129 571.669 296.626 571.533 298.531 571.533C300.436 571.669 301.933 571.805 301.933 571.941Z" fill="black"/>
    <path d="M315.267 571.941C315.267 572.077 313.77 572.349 311.865 572.349C309.96 572.349 308.463 572.213 308.463 571.941C308.463 571.669 309.96 571.533 311.865 571.533C313.77 571.669 315.267 571.805 315.267 571.941Z" fill="black"/>
    <path d="M328.609 571.941C328.609 572.077 327.112 572.349 325.207 572.349C323.302 572.349 321.805 572.213 321.805 571.941C321.805 571.669 323.302 571.533 325.207 571.533C327.112 571.669 328.609 571.805 328.609 571.941Z" fill="black"/>
    <path d="M338.676 571.941C338.676 572.077 337.859 572.349 337.043 572.349C336.09 572.349 335.273 572.213 335.273 571.941C335.273 571.669 336.09 571.533 337.043 571.533C337.995 571.669 338.676 571.805 338.676 571.941Z" fill="black"/>
    <path d="M340.314 186.394H258.115V298.942H340.314V186.394Z" fill="white"/>
    <path d="M340.314 298.942C340.314 298.942 340.314 298.806 340.314 298.397C340.314 297.989 340.314 297.445 340.314 296.764C340.314 295.403 340.314 293.226 340.314 290.64C340.314 285.197 340.314 277.439 340.178 267.505C340.178 247.635 340.042 219.601 339.906 186.394L340.314 186.803C315.545 186.803 287.646 186.803 258.115 186.939L258.523 186.53C258.523 228.583 258.523 267.505 258.523 299.078L258.251 298.806C283.155 298.806 303.569 298.942 317.995 298.942C325.208 298.942 330.787 298.942 334.598 299.078C336.503 299.078 338 299.078 338.953 299.078C339.905 298.942 340.314 298.942 340.314 298.942C340.314 298.942 339.769 298.942 338.817 298.942C337.864 298.942 336.367 298.942 334.462 298.942C330.651 298.942 325.072 298.942 317.859 299.078C303.433 299.078 282.883 299.214 257.979 299.35H257.706V299.078C257.706 267.505 257.57 228.583 257.57 186.53V186.122H257.979C287.51 186.122 315.409 186.122 340.178 186.122H340.586V186.53C340.586 219.873 340.45 248.044 340.45 267.913C340.45 277.712 340.45 285.605 340.314 290.912C340.314 293.498 340.314 295.54 340.314 297.037C340.314 297.717 340.314 298.261 340.314 298.534C340.45 298.806 340.45 298.942 340.314 298.942Z" fill="#263238"/>
    <path d="M308.337 208.986C308.337 209.258 299.355 209.394 288.332 209.394C277.308 209.394 268.326 209.258 268.326 208.986C268.326 208.713 277.308 208.577 288.332 208.577C299.491 208.577 308.337 208.85 308.337 208.986Z" fill="#263238"/>
    <path d="M329.97 218.784C329.97 219.056 316.225 219.192 299.214 219.192C282.202 219.192 268.457 219.056 268.457 218.784C268.457 218.512 282.202 218.376 299.214 218.376C316.225 218.376 329.97 218.512 329.97 218.784Z" fill="#263238"/>
    <path d="M329.97 228.991C329.97 229.263 316.225 229.399 299.214 229.399C282.202 229.399 268.457 229.263 268.457 228.991C268.457 228.719 282.202 228.583 299.214 228.583C316.225 228.583 329.97 228.719 329.97 228.991Z" fill="#263238"/>
    <path d="M329.97 239.198C329.97 239.47 316.225 239.606 299.214 239.606C282.202 239.606 268.457 239.47 268.457 239.198C268.457 238.925 282.202 238.789 299.214 238.789C316.225 238.789 329.97 238.925 329.97 239.198Z" fill="#263238"/>
    <path d="M329.97 249.405C329.97 249.677 316.225 249.813 299.214 249.813C282.202 249.813 268.457 249.677 268.457 249.405C268.457 249.132 282.202 248.996 299.214 248.996C316.225 248.996 329.97 249.132 329.97 249.405Z" fill="#263238"/>
    <path d="M329.97 259.611C329.97 259.884 316.225 260.02 299.214 260.02C282.202 260.02 268.457 259.884 268.457 259.611C268.457 259.339 282.202 259.203 299.214 259.203C316.225 259.203 329.97 259.339 329.97 259.611Z" fill="#263238"/>
    <path d="M329.97 269.818C329.97 270.091 316.225 270.227 299.214 270.227C282.202 270.227 268.457 270.091 268.457 269.818C268.457 269.546 282.202 269.41 299.214 269.41C316.225 269.41 329.97 269.546 329.97 269.818Z" fill="#263238"/>
    <path d="M301.532 280.025C301.532 280.297 294.183 280.433 284.929 280.433C275.811 280.433 268.326 280.297 268.326 280.025C268.326 279.753 275.675 279.617 284.929 279.617C294.183 279.617 301.532 279.753 301.532 280.025Z" fill="#263238"/>
    <path d="M333.235 307.107C342.48 307.107 349.975 299.613 349.975 290.368C349.975 281.123 342.48 273.629 333.235 273.629C323.991 273.629 316.496 281.123 316.496 290.368C316.496 299.613 323.991 307.107 333.235 307.107Z" fill="#FF4883"/>
    <path d="M342.763 283.972C343.444 284.652 340.178 289.279 335.415 294.451C334.598 295.267 333.917 296.084 333.237 296.764L332.148 297.853L331.06 296.9C326.841 293.362 324.255 290.368 324.663 289.824C325.208 289.143 328.746 291.049 333.101 294.315L330.787 294.451C331.468 293.634 332.148 292.818 332.965 292.001C337.592 286.83 342.083 283.291 342.763 283.972Z" fill="#E0E0E0"/>
    <path d="M292.955 305.066C292.819 305.066 292.547 303.569 292.547 301.664C292.547 299.758 292.683 298.261 292.955 298.261C293.227 298.261 293.363 299.758 293.363 301.664C293.363 303.569 293.227 305.066 292.955 305.066Z" fill="black"/>
    <path d="M292.955 318.675C292.819 318.675 292.547 317.178 292.547 315.273C292.547 313.367 292.683 311.87 292.955 311.87C293.227 311.87 293.363 313.367 293.363 315.273C293.363 317.178 293.227 318.675 292.955 318.675Z" fill="black"/>
    <path d="M292.955 332.284C292.819 332.284 292.547 330.787 292.547 328.882C292.547 326.977 292.683 325.48 292.955 325.48C293.227 325.48 293.363 326.977 293.363 328.882C293.363 330.787 293.227 332.284 292.955 332.284Z" fill="black"/>
    <path d="M292.955 345.893C292.819 345.893 292.547 344.396 292.547 342.491C292.547 340.586 292.683 339.089 292.955 339.089C293.227 339.089 293.363 340.586 293.363 342.491C293.363 344.396 293.227 345.893 292.955 345.893Z" fill="black"/>
    <path d="M292.955 359.502C292.819 359.502 292.547 358.005 292.547 356.1C292.547 354.195 292.683 352.698 292.955 352.698C293.227 352.698 293.363 354.195 293.363 356.1C293.363 358.005 293.227 359.502 292.955 359.502Z" fill="black"/>
    <path d="M292.955 373.111C292.819 373.111 292.547 371.614 292.547 369.709C292.547 367.804 292.683 366.307 292.955 366.307C293.227 366.307 293.363 367.804 293.363 369.709C293.363 371.614 293.227 373.111 292.955 373.111Z" fill="black"/>
    <path d="M292.955 386.721C292.819 386.721 292.547 385.224 292.547 383.318C292.547 381.413 292.683 379.916 292.955 379.916C293.227 379.916 293.363 381.413 293.363 383.318C293.363 385.224 293.227 386.721 292.955 386.721Z" fill="black"/>
    <path d="M292.955 400.33C292.819 400.33 292.547 398.833 292.547 396.927C292.547 395.022 292.683 393.525 292.955 393.525C293.227 393.525 293.363 395.022 293.363 396.927C293.363 398.833 293.227 400.33 292.955 400.33Z" fill="black"/>
    <path d="M299.624 407.406C299.624 407.542 298.127 407.815 296.221 407.815C294.724 407.815 293.499 407.679 293.091 407.542H292.955V407.406C292.955 407.27 293.091 407.134 293.091 407.134C293.091 407.134 293.227 407.27 293.227 407.406L293.091 407.27C293.636 407.134 294.86 406.998 296.221 406.998C297.99 406.998 299.624 407.134 299.624 407.406Z" fill="black"/>
    <path d="M313.23 407.406C313.23 407.542 311.733 407.815 309.828 407.815C307.923 407.815 306.426 407.679 306.426 407.406C306.426 407.27 307.923 406.998 309.828 406.998C311.597 406.998 313.23 407.134 313.23 407.406Z" fill="black"/>
    <path d="M326.84 407.406C326.84 407.542 325.343 407.815 323.437 407.815C321.532 407.815 320.035 407.679 320.035 407.406C320.035 407.27 321.532 406.998 323.437 406.998C325.207 406.998 326.84 407.134 326.84 407.406Z" fill="black"/>
    <path d="M340.449 407.406C340.449 407.542 338.952 407.815 337.047 407.815C335.142 407.815 333.645 407.679 333.645 407.406C333.645 407.27 335.142 406.998 337.047 406.998C338.816 406.998 340.449 407.134 340.449 407.406Z" fill="black"/>
    <path d="M354.057 407.406C354.057 407.542 352.56 407.815 350.654 407.815C348.749 407.815 347.252 407.679 347.252 407.406C347.252 407.27 348.749 406.998 350.654 406.998C352.423 406.998 354.057 407.134 354.057 407.406Z" fill="black"/>
    <path d="M580.652 284.244C580.516 284.244 580.244 282.747 580.244 280.842C580.244 278.936 580.38 277.439 580.652 277.439C580.925 277.439 581.061 278.936 581.061 280.842C581.061 282.747 580.925 284.244 580.652 284.244Z" fill="black"/>
    <path d="M580.652 297.853C580.516 297.853 580.244 296.356 580.244 294.451C580.244 292.546 580.38 291.049 580.652 291.049C580.925 291.049 581.061 292.546 581.061 294.451C581.061 296.356 580.925 297.853 580.652 297.853Z" fill="black"/>
    <path d="M580.652 311.462C580.516 311.462 580.244 309.965 580.244 308.06C580.244 306.155 580.38 304.658 580.652 304.658C580.925 304.658 581.061 306.155 581.061 308.06C581.061 309.965 580.925 311.462 580.652 311.462Z" fill="black"/>
    <path d="M580.652 325.071C580.516 325.071 580.244 323.574 580.244 321.669C580.244 319.764 580.38 318.267 580.652 318.267C580.925 318.267 581.061 319.764 581.061 321.669C581.061 323.574 580.925 325.071 580.652 325.071Z" fill="black"/>
    <path d="M580.652 338.68C580.516 338.68 580.244 337.183 580.244 335.278C580.244 333.373 580.38 331.876 580.652 331.876C580.925 331.876 581.061 333.373 581.061 335.278C581.061 337.183 580.925 338.68 580.652 338.68Z" fill="black"/>
    <path d="M580.652 352.29C580.516 352.29 580.244 350.793 580.244 348.887C580.244 346.982 580.38 345.485 580.652 345.485C580.925 345.485 581.061 346.982 581.061 348.887C581.061 350.793 580.925 352.29 580.652 352.29Z" fill="black"/>
    <path d="M580.652 365.899C580.516 365.899 580.244 364.402 580.244 362.496C580.244 360.591 580.38 359.094 580.652 359.094C580.925 359.094 581.061 360.591 581.061 362.496C581.061 364.402 580.925 365.899 580.652 365.899Z" fill="black"/>
    <path d="M580.652 379.508C580.516 379.508 580.244 378.011 580.244 376.106C580.244 374.2 580.38 372.703 580.652 372.703C580.925 372.703 581.061 374.2 581.061 376.106C581.061 378.011 580.925 379.508 580.652 379.508Z" fill="black"/>
    <path d="M673.065 292.954C673.065 292.954 672.793 292.954 672.249 292.954C671.704 292.954 670.888 292.954 669.799 292.954C667.622 292.954 664.492 292.954 660.409 292.954C652.107 292.954 640.267 293.09 625.297 293.09C595.221 293.09 552.897 293.226 503.904 293.226H503.632L503.496 292.954C501.046 284.38 502.543 274.309 508.123 266.688C513.703 259.067 523.365 254.168 533.3 254.44L532.891 254.984C532.211 252.535 531.803 249.677 531.939 246.819C532.347 237.428 537.655 228.31 545.82 224.228C553.849 220.009 563.92 220.145 571.541 224.364L570.861 224.636C575.216 214.021 584.47 206.264 594.405 202.725C604.475 199.051 615.499 199.595 624.209 204.086C633.055 208.577 639.179 216.198 642.717 224.228C646.255 232.257 646.8 240.967 645.031 248.452L644.758 248.044C649.794 247.499 654.693 248.316 658.776 250.085C662.995 251.854 666.533 254.304 669.255 257.162C670.616 258.659 671.704 260.156 672.521 261.925C673.338 263.558 673.882 265.327 674.29 266.96C675.107 270.226 675.379 273.357 675.515 276.078C675.651 281.658 674.971 285.877 674.426 288.735C674.154 290.096 673.882 291.184 673.61 291.865C673.201 292.681 673.065 292.954 673.065 292.954Z" fill="#FF4883"/>
    <path d="M657.69 246.41H652.382V214.837C652.382 207.216 646.258 201.092 638.637 201.092C631.016 201.092 624.892 207.216 624.892 214.837V246.41H619.584V214.837C619.584 204.358 628.158 195.921 638.501 195.921C648.98 195.921 657.417 204.494 657.417 214.837V246.41H657.69Z" fill="#E0E0E0"/>
    <path d="M660.003 265.599H617.406C614.821 265.599 612.779 263.558 612.779 260.972V237.02C612.779 234.434 614.821 232.393 617.406 232.393H660.003C662.589 232.393 664.63 234.434 664.63 237.02V261.108C664.63 263.558 662.589 265.599 660.003 265.599Z" fill="#E0E0E0"/>
    <path d="M638.771 248.996C636.321 248.996 634.416 247.091 634.416 244.641C634.416 242.191 636.321 240.286 638.771 240.286C641.221 240.286 643.126 242.191 643.126 244.641C643.126 247.091 641.085 248.996 638.771 248.996Z" fill="#455A64"/>
    <path d="M639.864 246.41H637.551V255.392H639.864V246.41Z" fill="#455A64"/>
    <path d="M957.753 235.932C969.185 225.181 969.865 207.217 959.114 195.785C948.363 184.354 930.399 183.673 918.967 194.425C909.169 203.543 907.264 217.968 913.66 229.128L907.944 234.571L909.305 244.098L900.323 241.648L893.11 248.453L894.471 257.979L885.489 255.53L879.229 261.381L880.045 267.233L874.602 265.736L870.927 269.139L870.383 277.985L883.584 281.251L926.588 241.104C936.795 245.595 949.043 243.962 957.753 235.932ZM953.535 201.093C956.665 204.359 956.392 209.531 953.126 212.661C949.86 215.791 944.689 215.519 941.559 212.253C938.428 208.986 938.701 203.815 941.967 200.685C945.233 197.555 950.404 197.691 953.535 201.093Z" fill="#263238"/>
    <path d="M953.538 201.092C953.538 201.092 952.993 200.548 951.905 199.867C950.816 199.187 949.047 198.506 946.733 198.779C944.556 199.051 941.834 200.412 940.609 203.133C939.248 205.719 939.52 209.53 941.834 211.979C944.147 214.565 947.958 214.973 950.544 213.885C953.265 212.796 954.899 210.21 955.307 208.033C955.715 205.855 955.171 203.95 954.49 202.861C953.946 201.636 953.402 201.092 953.538 201.092C953.538 201.092 953.674 201.228 953.946 201.5C954.218 201.773 954.49 202.181 954.899 202.725C955.579 203.814 956.259 205.719 955.851 208.169C955.579 210.482 953.81 213.204 950.952 214.565C949.455 215.246 947.822 215.382 946.053 215.11C944.283 214.837 942.65 213.885 941.425 212.524C940.201 211.163 939.384 209.394 939.248 207.761C938.976 205.991 939.384 204.358 940.201 202.861C941.698 200.003 944.556 198.506 946.869 198.37C949.319 198.234 951.088 199.051 952.177 199.731C952.721 200.139 953.129 200.412 953.265 200.684C953.402 200.82 953.538 200.956 953.538 201.092Z" fill="#263238"/>
    <path d="M957.753 235.931C957.753 235.931 957.617 236.068 957.345 236.34C957.073 236.612 956.665 237.02 956.12 237.428C954.895 238.381 953.262 239.742 950.677 240.967C948.091 242.192 944.689 243.28 940.606 243.689C936.523 243.961 931.624 243.416 926.725 241.375H926.997C915.973 251.718 901.139 265.599 884.128 281.522L883.992 281.658H883.856C879.637 280.569 875.146 279.481 870.655 278.392H870.383V278.12C870.519 275.398 870.791 272.268 870.927 269.274V269.138L871.063 269.002C872.152 267.913 873.377 266.824 874.738 265.599L874.602 265.191H874.738C876.371 265.599 878.276 266.144 880.181 266.688L879.773 267.096C879.501 265.327 879.229 263.286 878.957 261.244V261.108L879.093 260.972C880.998 259.203 883.175 257.162 885.353 255.12L885.489 254.984H885.625C888.483 255.801 891.477 256.617 894.607 257.434L894.199 257.842C893.791 254.848 893.246 251.582 892.838 248.316V248.18L892.974 248.044C893.518 247.499 894.199 246.819 894.879 246.274C896.648 244.641 898.418 243.008 900.187 241.375L900.323 241.239H900.459C903.453 242.056 906.447 242.872 909.441 243.689L909.033 244.097C908.624 240.831 908.08 237.701 907.672 234.571V234.434L907.808 234.298C909.713 232.529 911.618 230.624 913.524 228.855V229.263C911.346 225.18 909.985 220.825 909.849 216.334C909.713 214.157 909.849 211.843 910.258 209.802C910.666 207.624 911.346 205.583 912.163 203.678C915.565 195.785 922.37 190.069 929.855 187.891C937.204 185.578 945.097 186.53 951.085 189.524C957.209 192.518 961.564 197.554 964.15 202.589C966.599 207.761 967.416 213.068 967.008 217.423C966.599 221.914 965.238 225.588 963.877 228.31C963.741 228.719 963.469 228.991 963.333 229.263C963.197 229.535 962.925 229.807 962.789 230.216C962.38 230.76 962.108 231.304 961.7 231.849C960.883 232.801 960.339 233.618 959.795 234.162C959.25 234.707 958.842 235.115 958.434 235.523C957.889 235.795 957.753 235.931 957.753 235.931C957.753 235.931 957.889 235.795 958.162 235.523C958.434 235.251 958.842 234.707 959.386 234.162C959.931 233.618 960.475 232.801 961.292 231.849C961.7 231.44 961.972 230.76 962.38 230.216C962.517 229.943 962.789 229.671 962.925 229.263C963.061 228.991 963.197 228.582 963.469 228.31C964.83 225.588 966.191 221.914 966.463 217.423C966.871 213.068 966.055 207.761 963.605 202.725C961.02 197.69 956.801 192.791 950.677 189.933C944.689 186.939 937.067 186.122 929.855 188.436C922.642 190.749 915.973 196.193 912.571 203.95C911.755 205.855 911.074 207.897 910.802 209.938C910.394 211.979 910.257 214.157 910.394 216.334C910.53 220.689 911.891 225.044 914.068 228.991L914.204 229.263L914.068 229.399C912.163 231.168 910.257 232.937 908.352 234.843L908.488 234.571C908.897 237.701 909.441 240.967 909.849 244.097L909.985 244.641L909.441 244.505C906.447 243.689 903.453 242.872 900.459 242.056L900.731 241.919C898.962 243.553 897.193 245.186 895.424 246.819C894.743 247.363 894.063 248.044 893.518 248.588L893.654 248.316C894.063 251.582 894.607 254.848 895.015 257.842L895.151 258.386L894.607 258.25C891.477 257.434 888.483 256.481 885.625 255.801L885.897 255.665C883.72 257.706 881.678 259.611 879.637 261.517L879.773 261.244C880.045 263.286 880.317 265.327 880.59 267.096L880.726 267.641L880.181 267.505C878.276 266.96 876.371 266.416 874.738 266.008L875.01 265.871C873.785 267.096 872.56 268.185 871.335 269.274L871.472 269.002C871.335 272.132 871.063 275.126 870.927 277.848L870.655 277.439C875.282 278.664 879.773 279.753 883.856 280.842L883.584 280.978C900.731 265.055 915.565 251.31 926.588 240.967L926.725 240.831H926.861C931.624 243.008 936.387 243.553 940.47 243.28C944.553 243.008 947.955 241.919 950.54 240.695C953.126 239.47 954.895 238.245 956.12 237.292C956.665 236.884 957.073 236.476 957.345 236.204C957.481 236.068 957.753 235.931 957.753 235.931Z" fill="#263238"/>
    <path d="M956.802 232.665C968.234 221.914 968.914 203.95 958.163 192.518C947.412 181.087 929.448 180.406 918.016 191.158C908.218 200.276 906.312 214.701 912.709 225.861L906.993 231.304L908.354 240.831L899.372 238.381L892.159 245.186L893.52 254.712L884.538 252.262L878.278 258.114L879.094 263.966L873.65 262.469L869.976 265.872L869.432 274.718L882.633 277.984L925.637 237.837C935.844 242.328 948.092 240.695 956.802 232.665ZM952.583 197.826C955.713 201.092 955.441 206.264 952.175 209.394C948.909 212.524 943.737 212.252 940.607 208.985C937.477 205.719 937.749 200.548 941.016 197.418C944.282 194.288 949.453 194.56 952.583 197.826Z" fill="#E0E0E0"/>
    <path d="M952.588 197.826C952.588 197.826 952.044 197.281 950.955 196.601C949.867 195.921 948.097 195.24 945.784 195.512C943.606 195.784 940.885 197.145 939.66 199.867C938.299 202.453 938.571 206.264 940.885 208.713C943.198 211.299 947.009 211.707 949.594 210.618C952.316 209.53 953.949 206.944 954.358 204.767C954.766 202.589 954.222 200.684 953.541 199.595C952.997 198.37 952.452 197.826 952.588 197.826C952.588 197.826 952.724 197.962 952.997 198.234C953.269 198.506 953.541 198.915 953.949 199.459C954.63 200.548 955.31 202.453 954.902 204.903C954.63 207.216 952.861 209.938 950.003 211.299C948.506 211.979 946.873 212.115 945.103 211.843C943.334 211.571 941.701 210.618 940.476 209.258C939.252 207.897 938.435 206.127 938.299 204.494C938.027 202.725 938.435 201.092 939.251 199.595C940.748 196.737 943.606 195.24 945.92 195.104C948.37 194.968 950.139 195.784 951.227 196.465C951.772 196.873 952.18 197.145 952.316 197.418C952.452 197.69 952.588 197.826 952.588 197.826Z" fill="#263238"/>
    <path d="M956.802 232.666C956.802 232.666 956.666 232.802 956.394 233.074C956.122 233.346 955.713 233.755 955.169 234.163C953.944 235.116 952.311 236.477 949.725 237.701C947.14 238.926 943.737 240.015 939.655 240.423C935.572 240.695 930.673 240.151 925.773 238.11H926.046C915.022 248.453 900.188 262.334 883.177 278.257L883.041 278.393H882.905C878.686 277.304 874.195 276.215 869.704 275.126H869.432V274.854C869.568 272.132 869.84 269.002 869.976 266.008V265.872L870.112 265.736C871.201 264.647 872.426 263.559 873.787 262.334L873.923 262.198H874.059C875.828 262.606 877.597 263.15 879.502 263.695L879.094 264.103C878.822 262.334 878.55 260.292 878.278 258.251V258.115L878.414 257.979C880.319 256.21 882.496 254.168 884.674 252.127L884.81 251.991H884.946C887.804 252.807 890.798 253.624 893.928 254.441L893.52 254.849C893.112 251.855 892.567 248.589 892.159 245.322V245.186L892.295 245.05C892.839 244.506 893.52 243.825 894.2 243.281C895.969 241.648 897.739 240.015 899.508 238.382L899.644 238.246H899.78C902.774 239.062 905.768 239.879 908.762 240.695L908.354 241.104C907.945 237.837 907.401 234.707 906.993 231.577V231.441L907.129 231.305C909.034 229.536 910.939 227.631 912.845 225.861V226.27C910.667 222.187 909.306 217.832 909.17 213.341C909.034 211.164 909.17 208.85 909.579 206.809C909.987 204.631 910.667 202.59 911.484 200.685C914.886 192.791 921.691 187.075 929.176 184.898C936.525 182.584 944.418 183.537 950.406 186.531C956.53 189.525 960.885 194.56 963.471 199.596C965.92 204.767 966.737 210.075 966.329 214.43C965.92 218.921 964.559 222.595 963.198 225.317C963.062 225.725 962.79 225.998 962.654 226.27C962.518 226.542 962.246 226.814 962.11 227.222C961.701 227.767 961.429 228.311 961.021 228.855C960.204 229.808 959.66 230.625 959.116 231.169C958.571 231.713 958.163 232.122 957.755 232.53C956.938 232.53 956.802 232.666 956.802 232.666C956.802 232.666 956.938 232.53 957.21 232.258C957.483 231.986 957.891 231.441 958.435 230.897C958.98 230.352 959.524 229.536 960.341 228.583C960.749 228.175 961.021 227.495 961.429 226.95C961.565 226.678 961.838 226.406 961.974 225.998C962.11 225.725 962.246 225.317 962.518 225.045C963.879 222.323 965.24 218.649 965.512 214.158C965.92 209.803 965.104 204.495 962.654 199.46C960.068 194.424 955.85 189.525 949.725 186.667C943.737 183.673 936.116 182.857 928.904 185.17C921.691 187.484 915.022 192.927 911.62 200.685C910.803 202.59 910.123 204.631 909.851 206.673C909.442 208.714 909.306 210.891 909.442 213.069C909.578 217.424 910.939 221.779 913.117 225.725L913.253 225.998L913.117 226.134C911.212 227.903 909.306 229.672 907.401 231.577L907.537 231.305C907.945 234.435 908.49 237.701 908.898 240.831L909.034 241.376L908.49 241.24C905.496 240.423 902.502 239.607 899.508 238.79L899.78 238.654C898.011 240.287 896.242 241.92 894.472 243.553C893.792 244.098 893.112 244.778 892.567 245.322L892.703 245.05C893.111 248.316 893.656 251.583 894.064 254.577L894.2 255.121L893.656 254.985C890.526 254.168 887.532 253.216 884.674 252.535L884.946 252.399C882.769 254.441 880.727 256.346 878.686 258.251L878.822 257.979C879.094 260.02 879.366 262.062 879.638 263.831L879.775 264.375L879.23 264.239C877.325 263.695 875.42 263.15 873.787 262.742L874.059 262.606C872.834 263.831 871.609 264.92 870.384 266.008L870.52 265.736C870.384 268.866 870.112 271.86 869.976 274.582L869.704 274.174C874.331 275.399 878.822 276.487 882.905 277.576L882.633 277.712C899.78 261.789 914.614 248.044 925.637 237.701L925.773 237.565H925.909C930.673 239.743 935.436 240.287 939.519 240.015C943.601 239.743 947.004 238.654 949.589 237.429C952.175 236.204 953.944 234.98 955.169 234.027C955.713 233.619 956.122 233.21 956.394 232.938C956.53 232.802 956.802 232.666 956.802 232.666Z" fill="#263238"/>
    <path d="M954.084 230.488C953.947 230.352 955.717 228.991 957.894 225.725C958.983 224.092 960.071 221.914 960.752 219.192C961.568 216.471 961.977 213.34 961.569 209.802C961.16 206.264 960.072 202.589 957.894 199.051C955.581 195.649 952.45 192.382 948.232 190.341C946.19 189.252 943.877 188.436 941.563 188.027C940.338 187.755 939.113 187.755 937.889 187.619C936.664 187.619 935.439 187.619 934.214 187.755C929.179 188.3 924.279 190.613 920.333 194.152C916.522 197.826 913.801 202.589 912.984 207.625C912.712 208.849 912.712 210.074 912.576 211.299C912.576 212.524 912.576 213.749 912.712 214.974C912.984 217.423 913.528 219.737 914.481 221.778C916.25 226.133 919.244 229.535 922.51 231.985C925.777 234.435 929.587 235.795 932.989 236.476C936.392 237.02 939.658 236.884 942.38 236.34C945.101 235.795 947.415 234.843 949.048 233.89C952.587 231.985 954.084 230.352 954.084 230.488C954.084 230.488 953.947 230.624 953.811 230.76C953.539 231.032 953.267 231.168 952.859 231.577C952.45 231.985 952.042 232.393 951.362 232.801C950.681 233.21 950.001 233.754 949.184 234.162C947.415 235.251 945.238 236.068 942.38 236.748C939.658 237.429 936.256 237.565 932.717 237.02C929.179 236.476 925.368 235.115 921.966 232.529C918.564 229.944 915.434 226.541 913.664 222.05C912.712 219.873 912.031 217.423 911.759 214.974C911.623 213.749 911.623 212.524 911.623 211.163C911.759 209.938 911.759 208.577 912.031 207.352C912.984 202.181 915.57 197.282 919.652 193.471C923.735 189.797 928.77 187.347 933.942 186.803C935.167 186.667 936.528 186.667 937.753 186.667C938.977 186.803 940.338 186.803 941.563 187.075C944.013 187.483 946.326 188.3 948.504 189.388C952.723 191.566 955.989 194.832 958.302 198.37C960.616 201.909 961.705 205.855 962.113 209.394C962.521 212.932 961.977 216.198 961.16 218.92C960.344 221.642 959.255 223.819 958.03 225.453C957.486 226.269 956.941 226.95 956.397 227.63C955.989 228.174 955.444 228.719 955.036 229.127C954.628 229.535 954.356 229.807 954.22 229.944C954.22 230.352 954.22 230.488 954.084 230.488Z" fill="#263238"/>
    <path d="M952.994 210.346C952.994 210.346 953.539 209.802 954.355 208.441C955.172 207.216 955.988 205.039 955.716 202.453C955.58 201.092 955.172 199.731 954.355 198.37C953.539 197.145 952.314 195.921 950.681 195.104C949.184 194.287 947.279 193.879 945.373 194.151C943.468 194.287 941.699 195.24 940.202 196.601C938.705 197.962 937.752 199.731 937.48 201.636C937.072 203.542 937.344 205.311 938.024 206.944C938.705 208.577 939.794 209.802 941.018 210.755C942.243 211.707 943.604 212.252 944.965 212.524C947.551 212.932 949.728 212.252 951.089 211.571C952.314 210.891 952.994 210.346 952.994 210.346C952.994 210.346 952.858 210.482 952.586 210.755C952.314 211.027 951.77 211.435 951.225 211.843C949.864 212.66 947.687 213.476 944.965 213.068C943.604 212.796 942.107 212.388 940.746 211.299C939.385 210.346 938.161 208.985 937.48 207.216C936.8 205.583 936.391 203.542 936.8 201.5C937.208 199.459 938.161 197.554 939.794 196.057C941.427 194.56 943.332 193.743 945.373 193.471C947.415 193.199 949.32 193.607 950.953 194.56C952.586 195.376 953.947 196.737 954.764 198.098C955.58 199.459 956.125 200.956 956.261 202.453C956.533 205.311 955.58 207.488 954.628 208.713C954.219 209.394 953.811 209.802 953.539 210.074C953.131 210.21 952.994 210.346 952.994 210.346Z" fill="#263238"/>
    <path d="M879.371 276.351C879.234 276.215 888.897 266.96 901.009 255.665C913.121 244.369 922.92 235.387 923.056 235.523C923.192 235.659 913.529 244.914 901.417 256.209C889.305 267.505 879.507 276.487 879.371 276.351Z" fill="#263238"/>
    <path d="M837.598 399.241C837.598 399.377 836.101 399.649 834.195 399.649C832.29 399.649 830.793 399.513 830.793 399.241C830.793 399.105 832.29 398.832 834.195 398.832C835.964 398.969 837.598 399.105 837.598 399.241Z" fill="black"/>
    <path d="M851.209 399.241C851.209 399.377 849.712 399.649 847.807 399.649C845.901 399.649 844.404 399.513 844.404 399.241C844.404 399.105 845.901 398.832 847.807 398.832C849.576 398.969 851.209 399.105 851.209 399.241Z" fill="black"/>
    <path d="M864.814 399.241C864.814 399.377 863.317 399.649 861.412 399.649C859.507 399.649 858.01 399.513 858.01 399.241C858.01 399.105 859.507 398.832 861.412 398.832C863.181 398.969 864.814 399.105 864.814 399.241Z" fill="black"/>
    <path d="M878.428 399.241C878.428 399.377 876.931 399.649 875.025 399.649C873.12 399.649 871.623 399.513 871.623 399.241C871.623 399.105 873.12 398.832 875.025 398.832C876.795 398.969 878.428 399.105 878.428 399.241Z" fill="black"/>
    <path d="M892.031 399.241C892.031 399.377 890.534 399.649 888.629 399.649C886.724 399.649 885.227 399.513 885.227 399.241C885.227 399.105 886.724 398.832 888.629 398.832C890.398 398.969 892.031 399.105 892.031 399.241Z" fill="black"/>
    <path d="M905.639 399.241C905.639 399.377 904.142 399.649 902.236 399.649C900.331 399.649 898.834 399.513 898.834 399.241C898.834 399.105 900.331 398.832 902.236 398.832C904.005 398.969 905.639 399.105 905.639 399.241Z" fill="black"/>
    <path d="M917.078 397.2C917.214 397.2 917.35 398.016 917.35 399.241V399.513H917.078C916.669 399.513 916.261 399.513 915.717 399.513C913.811 399.513 912.314 399.377 912.314 399.105C912.314 398.969 913.811 398.697 915.717 398.697C916.125 398.697 916.669 398.697 917.078 398.697L916.805 398.969C916.805 398.152 916.942 397.2 917.078 397.2Z" fill="black"/>
    <path d="M917.072 383.59C917.208 383.59 917.481 385.087 917.481 386.993C917.481 388.898 917.345 390.395 917.072 390.395C916.8 390.395 916.664 388.898 916.664 386.993C916.8 385.223 916.936 383.59 917.072 383.59Z" fill="black"/>
    <path d="M917.072 369.981C917.208 369.981 917.481 371.478 917.481 373.384C917.481 375.289 917.345 376.786 917.072 376.786C916.8 376.786 916.664 375.289 916.664 373.384C916.8 371.614 916.936 369.981 917.072 369.981Z" fill="black"/>
    <path d="M917.072 356.372C917.208 356.372 917.481 357.869 917.481 359.775C917.481 361.68 917.345 363.177 917.072 363.177C916.8 363.177 916.664 361.68 916.664 359.775C916.8 358.005 916.936 356.372 917.072 356.372Z" fill="black"/>
    <path d="M917.072 342.763C917.208 342.763 917.481 344.26 917.481 346.165C917.481 348.07 917.345 349.567 917.072 349.567C916.8 349.567 916.664 348.07 916.664 346.165C916.8 344.396 916.936 342.763 917.072 342.763Z" fill="black"/>
    <path d="M917.072 329.154C917.208 329.154 917.481 330.651 917.481 332.556C917.481 334.462 917.345 335.959 917.072 335.959C916.8 335.959 916.664 334.462 916.664 332.556C916.8 330.787 916.936 329.154 917.072 329.154Z" fill="black"/>
    <path d="M917.072 315.545C917.208 315.545 917.481 317.042 917.481 318.947C917.481 320.852 917.345 322.349 917.072 322.349C916.8 322.349 916.664 320.852 916.664 318.947C916.8 317.178 916.936 315.545 917.072 315.545Z" fill="black"/>
    <path d="M917.072 301.936C917.208 301.936 917.481 303.433 917.481 305.338C917.481 307.243 917.345 308.74 917.072 308.74C916.8 308.74 916.664 307.243 916.664 305.338C916.8 303.569 916.936 301.936 917.072 301.936Z" fill="black"/>
    <path d="M917.072 288.327C917.208 288.327 917.481 289.824 917.481 291.729C917.481 293.634 917.345 295.131 917.072 295.131C916.8 295.131 916.664 293.634 916.664 291.729C916.8 289.96 916.936 288.327 917.072 288.327Z" fill="black"/>
    <path d="M917.072 274.717C917.208 274.717 917.481 276.214 917.481 278.12C917.481 280.025 917.345 281.522 917.072 281.522C916.8 281.522 916.664 280.025 916.664 278.12C916.8 276.35 916.936 274.717 917.072 274.717Z" fill="black"/>
    <path d="M917.072 261.108C917.208 261.108 917.481 262.605 917.481 264.511C917.481 266.416 917.345 267.913 917.072 267.913C916.8 267.913 916.664 266.416 916.664 264.511C916.8 262.741 916.936 261.108 917.072 261.108Z" fill="black"/>
    <path d="M815.135 534.924C815.135 535.06 813.638 535.332 811.732 535.332C809.827 535.332 808.33 535.196 808.33 534.924C808.33 534.652 809.827 534.516 811.732 534.516C813.502 534.652 815.135 534.788 815.135 534.924Z" fill="black"/>
    <path d="M828.746 534.924C828.746 535.06 827.249 535.332 825.344 535.332C823.438 535.332 821.941 535.196 821.941 534.924C821.941 534.652 823.438 534.516 825.344 534.516C827.113 534.652 828.746 534.788 828.746 534.924Z" fill="black"/>
    <path d="M842.351 534.924C842.351 535.06 840.854 535.332 838.949 535.332C837.044 535.332 835.547 535.196 835.547 534.924C835.547 534.652 837.044 534.516 838.949 534.516C840.718 534.652 842.351 534.788 842.351 534.924Z" fill="black"/>
    <path d="M855.965 534.924C855.965 535.06 854.468 535.332 852.562 535.332C850.657 535.332 849.16 535.196 849.16 534.924C849.16 534.652 850.657 534.516 852.562 534.516C854.332 534.652 855.965 534.788 855.965 534.924Z" fill="black"/>
    <path d="M869.572 534.924C869.572 535.06 868.075 535.332 866.17 535.332C864.265 535.332 862.768 535.196 862.768 534.924C862.768 534.652 864.265 534.516 866.17 534.516C867.939 534.652 869.572 534.788 869.572 534.924Z" fill="black"/>
    <path d="M883.178 534.924C883.178 535.06 881.681 535.332 879.775 535.332C877.87 535.332 876.373 535.196 876.373 534.924C876.373 534.652 877.87 534.516 879.775 534.516C881.545 534.652 883.178 534.788 883.178 534.924Z" fill="black"/>
    <path d="M896.791 534.924C896.791 535.06 895.294 535.332 893.389 535.332C891.483 535.332 889.986 535.196 889.986 534.924C889.986 534.652 891.483 534.516 893.389 534.516C895.158 534.652 896.791 534.788 896.791 534.924Z" fill="black"/>
    <path d="M910.4 534.924C910.4 535.06 908.903 535.332 906.998 535.332C905.093 535.332 903.596 535.196 903.596 534.924C903.596 534.652 905.093 534.516 906.998 534.516C908.767 534.652 910.4 534.788 910.4 534.924Z" fill="black"/>
    <path d="M924.008 534.924C924.008 535.06 922.511 535.332 920.605 535.332C918.7 535.332 917.203 535.196 917.203 534.924C917.203 534.652 918.7 534.516 920.605 534.516C922.375 534.652 924.008 534.788 924.008 534.924Z" fill="black"/>
    <path d="M937.617 534.924C937.617 535.06 936.12 535.332 934.215 535.332C932.31 535.332 930.812 535.196 930.812 534.924C930.812 534.652 932.31 534.516 934.215 534.516C935.984 534.652 937.617 534.788 937.617 534.924Z" fill="black"/>
    <path d="M949.869 533.699C950.005 533.699 950.141 534.244 950.141 534.924V535.196H949.869C949.324 535.196 948.508 535.332 947.691 535.332C945.786 535.332 944.289 535.196 944.289 534.924C944.289 534.652 945.786 534.516 947.691 534.516C948.508 534.516 949.188 534.516 949.869 534.652L949.597 534.924C949.733 534.108 949.869 533.699 949.869 533.699Z" fill="black"/>
    <path d="M950.002 520.09C950.138 520.09 950.274 521.587 950.274 523.492C950.274 525.398 950.138 526.895 949.866 526.895C949.73 526.895 949.594 525.398 949.594 523.492C949.73 521.587 949.866 520.09 950.002 520.09Z" fill="black"/>
    <path d="M950.141 506.481C950.277 506.481 950.413 507.978 950.413 509.883C950.413 511.788 950.277 513.286 950.005 513.286C949.869 513.286 949.732 511.788 949.732 509.883C949.869 507.978 950.005 506.481 950.141 506.481Z" fill="black"/>
    <path d="M950.27 492.872C950.406 492.872 950.542 494.369 950.542 496.274C950.542 498.179 950.406 499.676 950.134 499.676C949.997 499.676 949.861 498.179 949.861 496.274C949.997 494.369 950.133 492.872 950.27 492.872Z" fill="black"/>
    <path d="M905.221 450.139L907.67 496.138C907.806 497.771 909.167 498.996 910.8 499.132L993.544 499.676C995.313 499.676 996.674 498.315 996.674 496.546L996.946 460.754C996.946 458.985 995.585 457.624 993.816 457.624H942.918C942.101 457.624 941.285 457.352 940.74 456.672L931.895 447.826C931.35 447.281 930.534 446.873 929.717 446.873L908.215 446.737C906.582 446.873 905.221 448.37 905.221 450.139Z" fill="#FF4883"/>
    <path d="M997.025 452.384L906.66 451.722L906.264 505.75L996.629 506.412L997.025 452.384Z" fill="#F5F5F5"/>
    <path d="M899.37 456.399L905.903 512.877C906.039 513.83 906.855 514.646 907.808 514.646L995.995 515.327C997.084 515.327 997.9 514.51 998.037 513.558L1002.94 457.216C1003.07 455.991 1002.12 455.038 1000.89 455.038L901.412 454.358C900.187 454.222 899.234 455.311 899.37 456.399Z" fill="#FF4883"/>
    <path d="M825.619 696.192H370.121C359.234 696.192 350.252 687.346 350.252 676.323V388.626C350.252 377.739 359.098 368.757 370.121 368.757H825.619C836.506 368.757 845.488 377.603 845.488 388.626V676.459C845.352 687.346 836.506 696.192 825.619 696.192Z" fill="#263238"/>
    <path d="M841.818 700.683H353.795C340.458 700.683 329.57 689.796 329.57 676.459V671.968H866.042V676.459C866.042 689.796 855.155 700.683 841.818 700.683Z" fill="#263238"/>
    <path d="M830.801 381.821H363.6V658.359H830.801V381.821Z" fill="#455A64"/>
    <path d="M549.088 671.968L555.62 682.583H649.387L655.511 671.968H549.088Z" fill="#455A64"/>
    <path d="M817.593 657.406H377.61C375.161 657.406 373.119 655.365 373.119 652.915V395.567C373.119 393.117 375.161 391.076 377.61 391.076H817.593C820.043 391.076 822.084 393.117 822.084 395.567V652.915C822.084 655.365 820.043 657.406 817.593 657.406Z" fill="#EBEBEB"/>
    <path d="M821.948 410.673H373.119V657.406H821.948V410.673Z" fill="#FAFAFA"/>
    <path d="M410.003 401.419C410.003 403.46 408.369 404.957 406.464 404.957C404.423 404.957 402.926 403.324 402.926 401.419C402.926 399.514 404.559 397.88 406.464 397.88C408.369 397.88 410.003 399.514 410.003 401.419Z" fill="#263238"/>
    <path d="M388.223 401.419C388.223 403.46 386.59 404.957 384.685 404.957C382.643 404.957 381.146 403.324 381.146 401.419C381.146 399.514 382.78 397.88 384.685 397.88C386.726 397.88 388.223 399.514 388.223 401.419Z" fill="#263238"/>
    <path d="M398.706 401.419C398.706 403.46 397.073 404.957 395.167 404.957C393.126 404.957 391.629 403.324 391.629 401.419C391.629 399.514 393.262 397.88 395.167 397.88C397.073 397.88 398.706 399.514 398.706 401.419Z" fill="#263238"/>
    <path d="M841.133 671.968C841.133 672.104 731.171 672.24 595.76 672.24C460.214 672.24 350.252 672.104 350.252 671.968C350.252 671.832 460.078 671.696 595.76 671.696C731.307 671.696 841.133 671.832 841.133 671.968Z" fill="#455A64"/>
    <path d="M506.764 534.924H404.287V541.729H506.764V534.924Z" fill="#E0E0E0"/>
    <path d="M639.041 439.796H536.564V446.601H639.041V439.796Z" fill="#E0E0E0"/>
    <path d="M791.327 465.381C791.327 465.518 734.305 465.654 663.946 465.654C593.587 465.654 536.564 465.518 536.564 465.381C536.564 465.245 593.587 465.109 663.946 465.109C734.305 464.973 791.327 465.109 791.327 465.381Z" fill="#E0E0E0"/>
    <path d="M791.327 480.351C791.327 480.488 734.305 480.624 663.946 480.624C593.587 480.624 536.564 480.488 536.564 480.351C536.564 480.215 593.587 480.079 663.946 480.079C734.305 479.943 791.327 480.079 791.327 480.351Z" fill="#E0E0E0"/>
    <path d="M791.327 495.322C791.327 495.458 734.305 495.594 663.946 495.594C593.587 495.594 536.564 495.458 536.564 495.322C536.564 495.185 593.587 495.049 663.946 495.049C734.305 494.913 791.327 495.049 791.327 495.322Z" fill="#E0E0E0"/>
    <path d="M791.327 510.291C791.327 510.427 734.305 510.564 663.946 510.564C593.587 510.564 536.564 510.427 536.564 510.291C536.564 510.155 593.587 510.019 663.946 510.019C734.305 509.883 791.327 510.019 791.327 510.291Z" fill="#E0E0E0"/>
    <path d="M791.327 525.126C791.327 525.262 734.305 525.398 663.946 525.398C593.587 525.398 536.564 525.262 536.564 525.126C536.564 524.989 593.587 524.853 663.946 524.853C734.305 524.853 791.327 524.989 791.327 525.126Z" fill="#E0E0E0"/>
    <path d="M636.05 540.095C636.05 540.231 613.731 540.368 586.376 540.368C558.886 540.368 536.703 540.231 536.703 540.095C536.703 539.959 559.022 539.823 586.376 539.823C613.731 539.823 636.05 539.959 636.05 540.095Z" fill="#E0E0E0"/>
    <path d="M789.56 569.219C789.56 569.355 752.135 569.491 705.864 569.491C659.593 569.491 622.168 569.355 622.168 569.219C622.168 569.083 659.593 568.947 705.864 568.947C751.999 568.811 789.56 569.083 789.56 569.219Z" fill="#E0E0E0"/>
    <path d="M789.56 585.142C789.56 585.278 752.135 585.414 705.864 585.414C659.593 585.414 622.168 585.278 622.168 585.142C622.168 585.006 659.593 584.87 705.864 584.87C751.999 584.733 789.56 584.87 789.56 585.142Z" fill="#E0E0E0"/>
    <path d="M789.56 600.928C789.56 601.064 752.135 601.2 705.864 601.2C659.593 601.2 622.168 601.064 622.168 600.928C622.168 600.792 659.593 600.656 705.864 600.656C751.999 600.656 789.56 600.792 789.56 600.928Z" fill="#E0E0E0"/>
    <path d="M789.56 616.851C789.56 616.987 752.135 617.123 705.864 617.123C659.593 617.123 622.168 616.987 622.168 616.851C622.168 616.715 659.593 616.579 705.864 616.579C751.999 616.579 789.56 616.715 789.56 616.851Z" fill="#E0E0E0"/>
    <path d="M507.034 567.722C507.034 567.858 484.715 567.994 457.088 567.994C429.462 567.994 407.143 567.858 407.143 567.722C407.143 567.586 429.462 567.45 457.088 567.45C484.578 567.314 507.034 567.45 507.034 567.722Z" fill="#E0E0E0"/>
    <path d="M507.034 580.106C507.034 580.242 484.715 580.379 457.088 580.379C429.462 580.379 407.143 580.242 407.143 580.106C407.143 579.97 429.462 579.834 457.088 579.834C484.578 579.834 507.034 579.97 507.034 580.106Z" fill="#E0E0E0"/>
    <path d="M507.034 592.627C507.034 592.763 484.715 592.899 457.088 592.899C429.462 592.899 407.143 592.763 407.143 592.627C407.143 592.491 429.462 592.354 457.088 592.354C484.578 592.354 507.034 592.491 507.034 592.627Z" fill="#E0E0E0"/>
    <path d="M507.034 605.147C507.034 605.283 484.715 605.419 457.088 605.419C429.462 605.419 407.143 605.283 407.143 605.147C407.143 605.011 429.462 604.875 457.088 604.875C484.578 604.739 507.034 604.875 507.034 605.147Z" fill="#E0E0E0"/>
    <path d="M507.034 617.532C507.034 617.668 484.715 617.804 457.088 617.804C429.462 617.804 407.143 617.668 407.143 617.532C407.143 617.395 429.462 617.259 457.088 617.259C484.578 617.259 507.034 617.395 507.034 617.532Z" fill="#E0E0E0"/>
    <path d="M609.237 561.598H536.564V631.957H609.237V561.598Z" fill="#F5F5F5"/>
    <path d="M542.143 625.969L562.284 589.769L578.751 612.904L588.686 600.52L603.52 625.969H542.143Z" fill="#EBEBEB"/>
    <path d="M585.693 582.692C585.693 585.55 583.379 587.864 580.521 587.864C577.663 587.864 575.35 585.55 575.35 582.692C575.35 579.834 577.663 577.521 580.521 577.521C583.379 577.521 585.693 579.834 585.693 582.692Z" fill="#EBEBEB"/>
    <path d="M603.518 626.105C603.518 626.105 603.518 625.969 603.518 625.833C603.518 625.561 603.518 625.289 603.518 625.016C603.518 624.336 603.518 623.247 603.518 621.886C603.518 619.165 603.518 615.082 603.382 609.91C603.382 599.703 603.245 585.006 603.245 567.45L603.518 567.722C585.69 567.722 564.596 567.722 542.141 567.722C542.004 567.858 542.821 567.042 542.413 567.45V567.586V567.858V568.403V569.355V571.397C542.413 572.757 542.413 573.982 542.413 575.343C542.413 577.929 542.413 580.651 542.413 583.236C542.413 588.408 542.413 593.443 542.413 598.343C542.413 608.141 542.413 617.531 542.413 626.105L542.141 625.833C560.513 625.833 575.755 625.969 586.506 625.969C591.814 625.969 596.169 625.969 599.027 626.105C600.524 626.105 601.612 626.105 602.293 626.105C602.701 626.105 602.973 626.105 603.109 626.105C603.518 626.105 603.518 626.105 603.518 626.105C603.518 626.105 603.382 626.105 603.245 626.105C602.973 626.105 602.701 626.105 602.429 626.105C601.612 626.105 600.524 626.105 599.163 626.105C596.305 626.105 592.086 626.105 586.642 626.241C575.891 626.241 560.513 626.377 542.004 626.377H541.732V626.105C541.732 617.531 541.732 608.277 541.732 598.343C541.732 593.443 541.732 588.408 541.732 583.236C541.732 580.651 541.732 578.065 541.732 575.343C541.732 573.982 541.732 572.757 541.732 571.397V569.355V568.403V567.858V567.586V567.45C541.46 567.722 542.141 567.042 542.141 567.042C564.732 567.042 585.826 567.042 603.518 567.042H603.79V567.314C603.79 585.006 603.654 599.703 603.654 609.91C603.654 614.946 603.654 619.028 603.518 621.75C603.518 623.111 603.518 624.064 603.518 624.88C603.518 625.153 603.518 625.425 603.518 625.697C603.654 625.969 603.518 626.105 603.518 626.105Z" fill="#EBEBEB"/>
    <path d="M504.721 428.092H406.191V523.492H504.721V428.092Z" fill="#F5F5F5"/>
    <path d="M413.814 515.327L441.169 466.198L463.488 497.635L476.961 480.896L497.102 515.327H413.814Z" fill="#E0E0E0"/>
    <path d="M472.87 456.672C472.87 460.618 469.74 463.748 465.794 463.748C461.847 463.748 458.717 460.618 458.717 456.672C458.717 452.725 461.847 449.595 465.794 449.595C469.74 449.595 472.87 452.725 472.87 456.672Z" fill="#E0E0E0"/>
    <path d="M497.104 515.599C497.104 515.599 497.104 515.463 497.104 515.191C497.104 514.918 497.104 514.51 497.104 514.102C497.104 513.149 497.104 511.652 497.104 509.747C497.104 505.936 497.104 500.493 496.968 493.552C496.968 479.671 496.832 459.802 496.696 435.986L497.104 436.394C473.016 436.394 444.437 436.394 413.817 436.394C413.681 436.53 414.633 435.577 414.225 435.986V436.122V436.258V436.666V437.346V438.707V441.429C414.225 443.198 414.225 444.968 414.225 446.873C414.225 450.411 414.225 453.95 414.225 457.488C414.225 464.429 414.225 471.369 414.225 478.038C414.225 491.375 414.225 504.031 414.225 515.599L413.817 515.191C438.721 515.327 459.407 515.327 473.969 515.463C481.182 515.463 487.034 515.599 490.98 515.599C492.886 515.599 494.383 515.599 495.471 515.599C496.016 515.599 496.288 515.599 496.696 515.599C496.968 515.599 497.104 515.599 497.104 515.599C497.104 515.599 496.968 515.599 496.696 515.599C496.424 515.599 496.016 515.599 495.607 515.599C494.519 515.599 493.022 515.599 491.116 515.599C487.17 515.599 481.454 515.599 474.241 515.735C459.543 515.735 438.721 515.871 413.817 516.007H413.408V515.599C413.408 504.031 413.408 491.375 413.408 478.038C413.408 471.369 413.408 464.429 413.408 457.488C413.408 453.95 413.408 450.411 413.408 446.873C413.408 445.104 413.408 443.334 413.408 441.429V438.707V437.346V436.666V436.258V436.122V435.986C413 436.394 413.953 435.441 413.953 435.441C444.573 435.441 473.152 435.441 497.241 435.441H497.649V435.849C497.513 459.802 497.513 479.671 497.377 493.688C497.377 500.629 497.241 506.073 497.241 509.747C497.241 511.516 497.241 513.013 497.241 513.966C497.241 514.374 497.241 514.782 497.241 515.055C497.241 515.463 497.104 515.599 497.104 515.599Z" fill="#E0E0E0"/>
    <path d="M518.06 464.429L522.823 474.227L533.711 475.861L525.953 483.482L527.723 494.369L518.06 489.197L508.261 494.369L510.167 483.482L502.273 475.861L513.161 474.227L518.06 464.429Z" fill="#FF4883"/>
    <path d="M552.355 429.998L557.118 439.933L568.005 441.566L560.248 449.187L562.017 460.074L552.355 454.903L542.556 460.074L544.462 449.187L536.568 441.566L547.456 439.933L552.355 429.998Z" fill="#FF4883"/>
    <path d="M598.086 416.661L602.985 426.46L613.873 428.093L605.979 435.714L607.885 446.601L598.086 441.43L588.424 446.601L590.329 435.714L582.436 428.093L593.323 426.46L598.086 416.661Z" fill="#FF4883"/>
    <path d="M645.58 430.406L650.479 440.205L661.366 441.838L653.473 449.459L655.378 460.346L645.58 455.175L635.781 460.346L637.686 449.459L629.793 441.838L640.68 440.205L645.58 430.406Z" fill="#FF4883"/>
    <path d="M678.238 463.068L683.137 473.003L694.024 474.5L686.131 482.257L688.036 493.008L678.238 487.973L668.575 493.008L670.344 482.257L662.451 474.5L673.475 473.003L678.238 463.068Z" fill="#FF4883"/>
    <path d="M690.08 510.564L694.979 520.362L705.867 521.996L697.973 529.617L699.879 540.504L690.08 535.332L680.418 540.504L682.323 529.617L674.43 521.996L685.317 520.362L690.08 510.564Z" fill="#FF4883"/>
    <path d="M678.65 557.651L683.413 567.45L694.3 569.083L686.543 576.704L688.312 587.591L678.65 582.556L668.851 587.591L670.757 576.704L662.863 569.083L673.751 567.45L678.65 557.651Z" fill="#FF4883"/>
    <path d="M643.807 590.313L648.706 600.248L659.593 601.745L651.7 609.502L653.605 620.253L643.807 615.218L634.144 620.253L636.05 609.502L628.156 601.745L639.044 600.248L643.807 590.313Z" fill="#FF4883"/>
    <path d="M597.263 603.786L602.026 613.721L612.914 615.218L605.156 622.975L606.926 633.726L597.263 628.691L587.465 633.726L589.37 622.975L581.477 615.218L592.364 613.721L597.263 603.786Z" fill="#FF4883"/>
    <path d="M552.627 590.313L557.526 600.248L568.414 601.745L560.52 609.502L562.426 620.39L552.627 615.218L542.965 620.39L544.734 609.502L536.977 601.745L547.864 600.248L552.627 590.313Z" fill="#FF4883"/>
    <path d="M517.38 556.835L522.28 566.634L533.167 568.267L525.274 575.888L527.179 586.775L517.38 581.604L507.718 586.775L509.487 575.888L501.594 568.267L512.481 566.634L517.38 556.835Z" fill="#FF4883"/>
    <path d="M505.54 510.564L510.44 520.499L521.327 521.996L513.434 529.753L515.339 540.504L505.54 535.469L495.742 540.504L497.647 529.753L489.754 521.996L500.641 520.499L505.54 510.564Z" fill="#FF4883"/>
    <path d="M631.708 544.45H622.181V492.6C622.181 480.351 612.247 470.417 599.998 470.417C587.75 470.417 577.815 480.351 577.815 492.6V544.45H568.289V492.6C568.289 475.18 582.443 460.89 599.998 460.89C617.418 460.89 631.708 475.044 631.708 492.6V544.45Z" fill="#263238"/>
    <path d="M634.834 576.159H565.292C560.937 576.159 557.398 572.621 557.398 568.266V529.208C557.398 524.853 560.937 521.315 565.292 521.315H634.834C639.189 521.315 642.728 524.853 642.728 529.208V568.13C642.728 572.621 639.189 576.159 634.834 576.159Z" fill="#FF4883"/>
    <path d="M607.206 541.592C607.206 545.539 604.076 548.669 600.129 548.669C596.183 548.669 593.053 545.539 593.053 541.592C593.053 537.646 596.183 534.516 600.129 534.516C604.076 534.516 607.206 537.646 607.206 541.592Z" fill="#263238"/>
    <path d="M602.029 544.45H598.082V559.148H602.029V544.45Z" fill="#263238"/>
    <path d="M562.025 570.852C561.889 570.852 561.617 561.734 561.617 550.438C561.617 539.143 561.753 530.025 562.025 530.025C562.162 530.025 562.434 539.143 562.434 550.438C562.298 561.734 562.162 570.852 562.025 570.852Z" fill="#FAFAFA"/>
    <path d="M594.553 550.711C594.553 550.711 594.281 550.575 593.736 550.302C593.192 549.894 592.511 549.35 591.831 548.397C590.47 546.628 589.245 543.498 590.062 540.096C590.878 536.693 593.464 534.38 595.369 533.427C596.322 532.883 597.275 532.611 597.819 532.611C598.363 532.474 598.772 532.474 598.772 532.611C598.772 532.747 597.411 532.883 595.505 533.971C593.736 535.06 591.423 537.238 590.606 540.368C589.926 543.498 590.878 546.492 592.103 548.261C593.464 549.894 594.553 550.575 594.553 550.711Z" fill="#FAFAFA"/>
    <path d="M299.888 497.09C298.8 500.084 299.072 503.487 300.161 506.617C301.113 509.747 302.882 512.469 304.516 515.326C306.693 509.883 308.734 504.303 310.367 498.723C310.64 497.499 310.912 496.002 310.095 495.049C309.415 494.368 308.326 494.232 307.373 494.232C304.515 494.368 301.658 495.593 299.616 497.499" fill="#263238"/>
    <path d="M179.853 649.649L157.67 700.547H188.29L210.065 649.241L179.853 649.649Z" fill="#263238"/>
    <path d="M312.273 700.002C342.349 690.068 321.663 650.329 321.663 650.329L190.335 662.713C179.856 662.577 171.146 671.151 171.146 681.766C171.146 692.245 179.584 700.819 190.199 700.819L312.273 700.002Z" fill="#455A64"/>
    <path d="M342.214 700.683C371.473 690.749 352.148 650.33 352.148 650.33L224.223 662.442C211.702 662.578 205.578 668.702 205.578 681.358C205.578 691.837 209.525 700.683 224.087 700.411L342.214 700.683Z" fill="#455A64"/>
    <path d="M313.362 656.998C313.362 656.998 313.226 656.998 312.953 656.998C312.681 656.998 312.273 656.998 311.865 656.998C310.912 656.998 309.551 657.134 307.782 657.134C304.244 657.27 299.072 657.542 292.676 657.815C279.883 658.495 262.328 659.448 243.003 660.536C240.553 660.672 238.239 660.809 235.79 660.945C233.476 660.945 231.027 661.081 228.849 661.217C226.536 661.353 224.358 661.489 222.181 661.761C220.003 662.033 217.826 662.306 215.784 663.122C213.743 663.939 211.974 665.027 210.477 666.524C208.98 668.021 207.891 669.791 207.211 671.696C206.53 673.601 206.122 675.506 205.85 677.276C205.577 679.045 205.441 680.814 205.441 682.583C205.441 685.985 205.986 688.979 207.074 691.429C208.163 693.879 209.66 695.648 211.021 696.873C212.382 698.098 213.743 698.642 214.696 698.914C215.648 699.186 215.648 699.05 214.696 698.778C213.879 698.506 212.518 697.825 211.157 696.6C209.796 695.376 208.299 693.607 207.347 691.293C206.258 688.843 205.714 685.849 205.85 682.583C205.85 680.95 205.986 679.181 206.258 677.412C206.53 675.642 206.938 673.737 207.619 671.968C208.299 670.199 209.252 668.43 210.749 667.069C212.11 665.708 213.879 664.619 215.92 663.803C217.826 662.986 220.003 662.85 222.181 662.578C224.358 662.306 226.672 662.169 228.849 662.033C231.163 661.897 233.476 661.761 235.79 661.761C238.103 661.761 240.553 661.489 243.003 661.353C262.328 660.264 279.883 659.175 292.676 658.495C298.936 658.087 304.108 657.814 307.782 657.542C309.551 657.406 310.912 657.27 311.865 657.27C312.273 657.27 312.681 657.134 312.953 657.134C313.226 656.998 313.362 656.998 313.362 656.998Z" fill="#263238"/>
    <path d="M342.213 669.518C342.213 669.518 341.805 669.79 341.125 670.063C340.444 670.335 339.356 670.607 337.995 670.743C335.409 671.015 331.326 670.063 328.332 667.069C325.338 664.075 324.658 659.992 324.93 657.406C325.066 656.045 325.338 654.956 325.61 654.276C325.883 653.596 326.155 653.187 326.155 653.187C326.291 653.187 325.474 654.684 325.338 657.27C325.202 659.856 326.019 663.666 328.74 666.524C331.462 669.382 335.273 670.199 337.859 670.199C340.716 670.199 342.213 669.382 342.213 669.518Z" fill="#263238"/>
    <path d="M277.156 589.088L264.908 630.596L219.998 635.495V643.389L286.002 644.341L294.984 590.177L277.156 589.088Z" fill="#FFBE9D"/>
    <path d="M335.671 545.675C343.701 545.675 365.203 549.758 367.109 564.319C368.878 577.52 371.327 592.354 371.327 592.354L342.884 593.171L352.547 595.756L356.629 657.134L283.004 654.548L286.951 622.975L290.217 591.402L274.158 590.041C274.158 590.041 279.602 562.55 289.264 554.113C289.264 554.113 298.11 546.355 310.495 545.539C323.015 544.858 335.671 545.675 335.671 545.675Z" fill="#FF4883"/>
    <path d="M293.078 570.988C293.214 570.988 292.125 582.147 290.628 595.757C289.131 609.366 287.634 620.525 287.498 620.525C287.362 620.525 288.45 609.366 289.947 595.757C291.444 582.147 292.941 570.988 293.078 570.988Z" fill="#263238"/>
    <path d="M337.853 545.811C337.853 545.811 337.853 545.947 337.989 546.355C337.989 546.628 337.989 547.172 338.125 547.853C338.125 549.077 337.989 551.119 337.309 553.296C336.628 555.474 335.403 558.195 333.09 560.373C332.001 561.462 330.504 562.414 328.871 562.959C327.238 563.503 325.333 563.775 323.563 563.775C321.658 563.775 319.889 563.775 318.12 563.367C316.351 563.095 314.717 562.414 313.493 561.462C310.907 559.556 309.682 556.835 309.002 554.521C308.457 552.207 308.321 550.302 308.457 549.077C308.457 548.397 308.593 547.989 308.593 547.58C308.593 547.308 308.729 547.036 308.729 547.036C308.729 547.036 308.729 547.716 308.729 549.077C308.729 550.302 308.866 552.207 309.546 554.385C310.09 556.562 311.451 559.148 313.901 560.917C315.126 561.87 316.623 562.414 318.392 562.686C320.025 562.959 321.794 563.095 323.7 563.095C325.469 563.095 327.238 562.823 328.871 562.278C330.504 561.734 331.865 560.781 332.954 559.829C335.267 557.787 336.356 555.201 337.173 553.024C337.989 550.846 338.125 548.941 338.125 547.716C337.853 546.492 337.853 545.811 337.853 545.811Z" fill="#263238"/>
    <g opacity="0.2">
        <g opacity="0.2">
            <g opacity="0.2">
                <path opacity="0.2" d="M341.801 570.988C339.079 584.053 335.54 597.39 332.819 610.454C332.274 613.176 331.594 616.034 329.961 618.348C328.872 619.709 327.511 620.797 326.014 621.886C320.706 625.969 314.991 629.643 308.73 631.957C317.849 631.14 326.831 629.643 335.677 627.194C337.174 626.785 338.807 626.377 339.759 625.152C340.576 624.063 340.848 622.703 340.984 621.342C343.025 604.739 342.345 587.863 341.801 570.988Z" fill="black"/>
            </g>
        </g>
    </g>
    <path d="M371.877 592.627C371.877 592.627 371.06 592.763 369.699 592.763C368.202 592.763 366.297 592.899 363.847 593.035C358.948 593.171 352.143 593.307 344.658 593.443C343.842 593.443 343.025 593.443 342.209 593.443H341.936V593.171C341.664 586.23 341.8 579.97 341.936 575.479C342.073 573.302 342.073 571.396 342.209 570.172C342.345 568.947 342.345 568.266 342.345 568.266C342.345 568.266 342.345 568.947 342.345 570.172C342.345 571.532 342.345 573.302 342.345 575.479C342.345 579.97 342.209 586.094 342.617 593.035L342.345 592.763C343.161 592.763 343.978 592.763 344.794 592.763C352.279 592.627 359.084 592.49 363.983 592.49C366.433 592.49 368.338 592.49 369.835 592.49C371.196 592.49 371.877 592.49 371.877 592.627Z" fill="#263238"/>
    <path d="M163.661 595.62L188.838 644.885H268.043L264.777 638.489L241.778 637.809L223.133 596.165C221.908 593.579 219.459 591.946 216.601 591.946H165.975C164.07 591.946 162.845 593.851 163.661 595.62Z" fill="#D8ECFF"/>
    <path d="M200.264 620.661C201.917 620.661 203.258 619.32 203.258 617.667C203.258 616.013 201.917 614.673 200.264 614.673C198.61 614.673 197.27 616.013 197.27 617.667C197.27 619.32 198.61 620.661 200.264 620.661Z" fill="#263238"/>
    <path d="M338.262 508.522L335.404 548.669C334.996 555.201 329.552 560.373 322.884 560.373C315.671 560.373 309.955 554.249 310.364 547.036C310.636 543.225 310.908 540.095 310.908 540.095C310.908 540.095 301.245 538.598 301.109 528.8C301.109 524.173 301.654 515.191 302.334 506.617C303.151 496.682 311.452 489.061 321.387 489.061C331.594 489.605 339.215 498.315 338.262 508.522Z" fill="#FFBE9D"/>
    <path d="M310.906 540.504C310.906 540.504 317.03 541.048 323.563 536.966C323.563 536.966 320.569 543.906 310.906 543.09V540.504Z" fill="#EB996E"/>
    <path d="M305.332 512.877C305.332 513.558 305.876 514.238 306.693 514.238C307.509 514.238 308.054 513.694 308.19 513.013C308.19 512.333 307.646 511.652 306.829 511.652C306.012 511.652 305.468 512.197 305.332 512.877Z" fill="#263238"/>
    <path d="M304.516 510.972C304.652 511.108 305.741 510.428 307.238 510.428C308.735 510.428 309.823 511.244 309.96 510.972C310.096 510.836 309.823 510.564 309.415 510.156C309.007 509.747 308.19 509.475 307.238 509.475C306.285 509.475 305.469 509.883 305.06 510.156C304.652 510.564 304.38 510.836 304.516 510.972Z" fill="#263238"/>
    <path d="M319.49 513.286C319.49 513.966 320.035 514.646 320.851 514.646C321.668 514.646 322.212 514.102 322.348 513.422C322.348 512.741 321.804 512.061 320.987 512.061C320.171 512.061 319.49 512.605 319.49 513.286Z" fill="#263238"/>
    <path d="M319.215 511.244C319.351 511.38 320.44 510.7 321.937 510.7C323.434 510.7 324.523 511.516 324.659 511.244C324.795 511.108 324.523 510.836 324.114 510.428C323.706 510.019 322.89 509.747 321.937 509.747C320.984 509.747 320.168 510.155 319.759 510.428C319.351 510.836 319.079 511.244 319.215 511.244Z" fill="#263238"/>
    <path d="M313.771 522.404C313.771 522.268 312.819 522.132 311.322 521.996C310.913 521.996 310.641 521.859 310.505 521.587C310.369 521.315 310.641 520.907 310.777 520.499C311.186 519.546 311.458 518.593 311.866 517.641C313.499 513.558 314.588 510.156 314.452 510.019C314.316 510.019 312.819 513.286 311.322 517.368C310.913 518.321 310.641 519.41 310.233 520.226C310.097 520.635 309.825 521.179 310.097 521.723C310.233 521.996 310.505 522.268 310.777 522.268C311.05 522.404 311.186 522.404 311.458 522.404C312.819 522.404 313.771 522.404 313.771 522.404Z" fill="#263238"/>
    <path d="M318.125 523.356C317.852 523.356 317.852 524.989 316.491 526.078C315.13 527.167 313.361 527.031 313.361 527.303C313.361 527.439 313.77 527.575 314.45 527.575C315.13 527.575 316.219 527.303 317.036 526.622C317.852 525.942 318.261 524.989 318.261 524.309C318.533 523.764 318.261 523.356 318.125 523.356Z" fill="#263238"/>
    <path d="M318.797 505.392C318.933 505.801 320.43 505.665 322.199 505.801C323.968 505.937 325.329 506.481 325.601 506.073C325.738 505.937 325.465 505.528 324.921 505.12C324.377 504.712 323.424 504.304 322.335 504.304C321.247 504.168 320.294 504.304 319.613 504.576C319.069 504.848 318.797 505.256 318.797 505.392Z" fill="#263238"/>
    <path d="M305.059 506.619C305.331 506.891 306.284 506.619 307.645 506.619C308.869 506.619 309.958 506.891 310.23 506.483C310.366 506.347 310.23 505.939 309.686 505.667C309.278 505.394 308.461 505.122 307.645 505.122C306.828 505.122 306.011 505.394 305.603 505.803C305.059 506.075 304.923 506.483 305.059 506.619Z" fill="#263238"/>
    <path d="M334.993 516.416C335.129 516.28 341.662 514.374 341.526 521.043C341.254 527.711 334.721 526.078 334.721 525.942C334.585 525.67 334.993 516.416 334.993 516.416Z" fill="#FFBE9D"/>
    <path d="M336.76 523.493C336.76 523.493 336.896 523.629 337.032 523.629C337.168 523.765 337.576 523.765 337.848 523.629C338.529 523.356 339.209 522.268 339.209 521.043C339.209 520.499 339.073 519.818 338.937 519.41C338.801 518.865 338.393 518.593 338.121 518.457C337.712 518.321 337.576 518.593 337.44 518.729C337.304 518.865 337.44 519.002 337.304 519.002C337.304 519.002 337.168 518.865 337.168 518.593C337.168 518.457 337.304 518.321 337.44 518.185C337.576 518.049 337.848 518.049 338.121 518.049C338.665 518.049 339.073 518.593 339.345 519.138C339.618 519.682 339.754 520.362 339.754 521.043C339.618 522.404 338.937 523.629 337.985 523.901C337.576 524.037 337.168 523.901 336.896 523.629C336.76 523.629 336.76 523.493 336.76 523.493Z" fill="#EB996E"/>
    <path d="M276.339 645.022H179.578V649.785H276.339V645.022Z" fill="#263238"/>
    <path d="M246.676 647.335L276.071 700.683H302.473L276.48 649.785L246.676 647.335Z" fill="#263238"/>
    <path d="M276.475 649.785C276.475 649.921 254.837 650.193 228.027 650.329C201.217 650.466 179.578 650.466 179.578 650.193C179.578 650.057 201.217 649.785 228.027 649.649C254.7 649.513 276.475 649.513 276.475 649.785Z" fill="#455A64"/>
    <path d="M299.609 502.262C301.379 502.942 303.42 502.806 305.053 501.854C304.373 502.398 304.645 503.623 305.325 504.167C306.006 504.712 306.958 504.711 307.911 504.711C312.674 504.575 317.437 502.534 320.84 499.132C320.84 500.765 322.201 502.262 323.834 502.806C325.467 503.351 327.236 503.214 328.869 502.806C328.461 505.256 328.053 507.842 328.597 510.291C329.141 512.741 331.047 515.054 333.496 515.463C334.041 516.688 333.768 518.048 333.768 519.409C333.904 520.77 334.585 522.267 335.946 522.267C337.171 522.267 337.987 521.042 338.123 519.954C338.259 518.865 337.579 516.415 338.395 514.51C339.348 512.469 338.94 512.877 339.892 510.836C340.845 508.794 341.253 505.936 341.934 503.895C342.614 501.717 342.886 499.404 342.07 497.363C341.253 495.321 339.212 493.552 337.035 493.824C337.851 491.783 337.171 489.197 335.401 487.7C333.632 486.339 331.047 486.067 329.141 487.292C329.141 487.292 321.52 482.12 313.219 484.978C304.917 487.836 303.556 495.457 301.787 495.593C300.018 495.866 294.438 492.872 295.391 494.777C296.343 496.682 297.976 498.451 298.657 498.587C299.473 498.723 292.397 495.729 294.846 498.315C297.296 501.173 299.609 502.262 299.609 502.262Z" fill="#263238"/>
    <path d="M366.434 567.041C366.298 567.177 365.753 565.953 363.848 564.456C361.943 563.095 358.677 561.598 354.458 561.734C350.239 561.734 345.476 563.503 340.713 566.497C335.949 569.355 331.186 573.302 325.062 575.887C322.068 577.248 318.938 577.929 315.808 577.929C312.678 577.929 309.684 577.52 307.098 576.432C304.376 575.479 302.063 573.982 300.157 572.485C298.116 570.988 296.483 569.355 294.714 568.13C291.311 565.544 288.045 564.456 285.732 564.456C283.418 564.32 282.193 565 282.193 565C282.193 565 282.329 565 282.466 564.864C282.602 564.864 282.874 564.728 283.146 564.592C283.69 564.456 284.643 564.184 285.868 564.184C288.317 564.184 291.72 565.136 295.258 567.722C298.796 570.171 302.335 573.982 307.506 575.751C312.678 577.657 319.21 577.657 325.062 575.071C330.914 572.485 335.813 568.538 340.577 565.68C345.34 562.823 350.375 560.917 354.73 561.053C359.085 561.053 362.351 562.55 364.256 564.047C365.209 564.728 365.753 565.544 366.162 565.953C366.162 566.769 366.434 567.041 366.434 567.041Z" fill="#FAFAFA"/>
    <path d="M342.204 602.833C342.204 602.833 341.524 602.425 340.299 601.745C339.074 601.064 337.169 600.112 334.855 599.567C332.406 599.023 329.412 598.887 326.146 599.703C322.879 600.52 319.613 602.153 316.075 603.514C314.306 604.194 312.4 604.739 310.495 604.875C308.726 605.147 306.821 605.147 305.188 605.011C301.785 604.739 298.927 603.786 296.614 602.697C294.3 601.609 292.667 600.384 291.578 599.431C291.034 599.023 290.626 598.615 290.354 598.342C290.081 598.07 289.945 597.934 289.945 597.934C289.945 597.934 290.626 598.478 291.715 599.295C292.803 600.112 294.572 601.336 296.75 602.289C299.063 603.242 301.921 604.194 305.188 604.466C308.454 604.739 312.128 604.33 315.667 602.969C319.205 601.609 322.607 599.975 325.873 599.159C329.14 598.342 332.27 598.478 334.855 599.159C337.305 599.703 339.21 600.792 340.435 601.472C340.98 601.881 341.524 602.153 341.796 602.425C342.068 602.561 342.204 602.697 342.204 602.833Z" fill="#FAFAFA"/>
    <path d="M352.824 625.697C352.824 625.833 351.871 625.288 350.238 624.88C348.469 624.472 345.883 624.608 342.889 625.56C341.392 626.105 339.759 626.785 338.126 627.602C336.493 628.418 334.724 629.507 332.818 630.46C330.913 631.412 328.872 632.501 326.694 633.045C324.381 633.726 321.931 633.862 319.481 633.318C314.582 632.229 310.636 629.371 307.097 627.194C303.559 625.016 300.02 623.383 296.89 623.111C293.76 622.839 291.174 623.655 289.677 624.608C288.18 625.56 287.636 626.377 287.5 626.377C287.5 626.377 287.636 626.105 287.908 625.833C288.18 625.424 288.725 625.016 289.405 624.472C290.902 623.383 293.488 622.43 296.754 622.703C300.02 622.839 303.695 624.472 307.369 626.649C311.044 628.827 314.854 631.548 319.618 632.637C321.931 633.182 324.381 632.909 326.558 632.365C328.736 631.821 330.777 630.732 332.546 629.779C334.451 628.827 336.085 627.738 337.854 626.921C339.487 626.105 341.256 625.424 342.753 624.88C345.883 623.927 348.605 623.927 350.374 624.472C351.191 624.744 351.871 625.016 352.279 625.152C352.688 625.56 352.824 625.697 352.824 625.697Z" fill="#FAFAFA"/>
    <path d="M356.36 651.69C356.36 651.69 356.088 651.826 355.68 651.962C355.272 652.098 354.455 652.235 353.503 652.371C351.597 652.507 348.875 651.962 345.881 650.738C344.384 650.193 342.615 649.513 340.846 649.104C338.941 648.696 336.899 648.56 334.858 648.696C330.503 649.104 326.012 650.738 321.249 652.098C318.799 652.779 316.35 653.323 314.036 653.595C311.586 653.868 309.273 653.732 307.095 653.459C302.74 652.915 298.93 651.69 295.936 650.465C292.806 649.241 290.492 648.016 288.859 647.199C288.043 646.791 287.362 646.383 286.954 646.247C286.546 645.974 286.273 645.838 286.273 645.838C286.273 645.838 286.546 645.974 286.954 646.11C287.498 646.383 288.043 646.655 288.859 646.927C290.492 647.744 292.942 648.832 296.072 649.921C299.202 651.01 302.877 652.235 307.231 652.779C309.409 653.051 311.586 653.051 314.036 652.779C316.35 652.507 318.799 651.962 321.113 651.282C325.876 649.921 330.503 648.288 334.858 647.88C337.035 647.744 339.213 647.88 341.118 648.288C343.023 648.696 344.657 649.513 346.29 650.057C349.284 651.282 351.869 651.962 353.775 651.826C355.408 651.962 356.36 651.554 356.36 651.69Z" fill="#FAFAFA"/>
    <path d="M370.244 585.686C370.244 585.686 369.972 586.094 369.428 586.502C368.884 587.047 367.931 587.727 366.57 588.272C365.345 588.816 363.576 589.224 361.807 589.224C359.901 589.224 357.86 588.68 355.955 587.727C354.05 586.775 352.28 585.822 350.647 585.278C349.014 584.733 347.381 584.597 346.02 584.733C344.659 584.869 343.707 585.414 343.162 585.958C342.618 586.502 342.346 586.775 342.346 586.775C342.346 586.775 342.482 586.366 343.026 585.822C343.571 585.278 344.523 584.597 346.02 584.325C347.381 584.053 349.15 584.189 350.919 584.733C352.689 585.278 354.458 586.366 356.363 587.183C358.268 588.135 360.038 588.68 361.807 588.68C363.576 588.816 365.209 588.408 366.434 587.999C369.02 586.911 370.244 585.55 370.244 585.686Z" fill="#FAFAFA"/>
    <path d="M291.308 585.005C291.308 585.005 291.172 585.278 290.9 585.414C290.492 585.686 289.948 585.822 289.131 585.822C288.314 585.822 287.498 585.55 286.681 585.142C285.865 584.733 285.048 584.053 284.096 583.372C282.326 582.148 280.285 582.148 279.06 582.284C277.699 582.556 276.883 583.1 276.883 582.964C276.883 582.964 277.563 582.284 278.924 581.875C280.285 581.467 282.599 581.467 284.504 582.828C285.457 583.372 286.273 584.053 286.954 584.597C287.77 585.142 288.451 585.278 289.131 585.414C290.492 585.55 291.172 584.869 291.308 585.005Z" fill="#FAFAFA"/>
    <path d="M254.296 628.963L274.165 626.649L288.183 635.768L341.531 622.975L343.028 593.171L366.98 592.627L366.435 627.602C366.163 638.898 356.909 647.744 345.613 647.471L267.497 645.294L264.231 638.625L247.355 638.081L254.296 628.963Z" fill="#FFBE9D"/>
    <path d="M340.713 622.975C340.713 622.975 340.305 623.111 339.76 623.247C339.08 623.383 338.127 623.655 336.902 624.064C334.317 624.744 330.642 625.561 326.151 626.785C317.033 628.963 304.513 631.957 290.767 635.359C289.679 635.631 288.59 635.904 287.501 636.176H287.365L287.229 636.04C282.33 632.773 277.567 629.643 273.348 626.922H273.484C265.591 627.874 258.922 628.555 253.614 629.235L253.751 629.099C251.573 631.957 249.804 634.134 248.579 635.767C248.035 636.448 247.49 637.128 247.218 637.537C246.946 637.945 246.674 638.081 246.674 638.081C246.674 638.081 246.81 637.809 247.082 637.401C247.354 636.992 247.899 636.312 248.443 635.631C249.668 633.998 251.437 631.685 253.478 628.827H253.614C258.786 628.146 265.591 627.33 273.348 626.377H273.484H273.62C277.975 629.235 282.602 632.229 287.637 635.495H287.365C288.454 635.223 289.543 634.951 290.631 634.679C304.376 631.413 316.897 628.419 326.015 626.241C330.506 625.152 334.18 624.336 336.766 623.791C337.991 623.519 338.944 623.247 339.76 623.111C340.305 622.975 340.713 622.975 340.713 622.975Z" fill="#EB996E"/>
    <path d="M265.182 634.679C265.182 634.815 261.78 634.951 257.425 634.951C256.88 634.951 256.472 634.951 256.064 634.951L256.2 634.815C253.478 637.129 251.301 638.762 251.165 638.626C251.029 638.489 253.07 636.72 255.792 634.271L255.928 634.135H256.064C256.472 634.135 257.017 634.135 257.425 634.135C261.644 634.271 265.182 634.543 265.182 634.679Z" fill="#EB996E"/>
    <path d="M350.514 628.963C350.378 629.099 349.289 626.513 346.567 624.88C343.845 623.111 341.26 623.383 341.26 623.111C341.26 622.975 341.94 622.839 343.029 622.975C344.118 623.111 345.615 623.519 346.976 624.336C348.337 625.152 349.425 626.377 349.97 627.33C350.514 628.282 350.65 628.963 350.514 628.963Z" fill="#EB996E"/>
    <path d="M101.762 568.927V558.201C101.762 555.927 99.9289 554.094 97.6548 554.094H88.8297C86.5556 554.094 84.7227 555.927 84.7227 558.201V568.927C84.7227 571.201 86.5556 573.034 88.8297 573.034H97.6548C99.9289 573.034 101.762 571.201 101.762 568.927Z" fill="#FF4883"/>
    <path d="M101.762 603.311V592.585C101.762 590.311 99.9289 588.478 97.6548 588.478H88.8297C86.5556 588.478 84.7227 590.311 84.7227 592.585V603.311C84.7227 605.585 86.5556 607.418 88.8297 607.418H97.6548C99.9289 607.418 101.762 605.585 101.762 603.311Z" fill="#ECECEC"/>
    <path d="M101.762 637.729V627.003C101.762 624.729 99.9289 622.896 97.6548 622.896H88.8297C86.5556 622.896 84.7227 624.729 84.7227 627.003V637.729C84.7227 640.003 86.5556 641.836 88.8297 641.836H97.6548C99.9289 641.836 101.762 639.969 101.762 637.729Z" fill="#ECECEC"/>
    <g opacity="0.8">
        <path opacity="0.8" d="M825.629 219.641H807.824C800.954 219.641 795.346 214.033 795.346 207.163V189.358C795.346 182.488 800.954 176.88 807.824 176.88H825.629C832.499 176.88 838.107 182.488 838.107 189.358V207.163C838.072 214.068 832.499 219.641 825.629 219.641ZM807.824 181.822C803.653 181.822 800.253 185.222 800.253 189.393V207.199C800.253 211.37 803.653 214.769 807.824 214.769H825.629C829.8 214.769 833.2 211.37 833.2 207.199V189.393C833.2 185.222 829.8 181.822 825.629 181.822H807.824Z" fill="#9EC8FF"/>
    </g>
    <g opacity="0.8">
        <path opacity="0.8" d="M741.823 219.641H724.017C717.147 219.641 711.539 214.033 711.539 207.163V189.358C711.539 182.488 717.147 176.88 724.017 176.88H741.823C748.692 176.88 754.301 182.488 754.301 189.358V207.163C754.301 214.068 748.728 219.641 741.823 219.641ZM724.017 181.822C719.846 181.822 716.446 185.222 716.446 189.393V207.199C716.446 211.37 719.846 214.769 724.017 214.769H741.823C745.994 214.769 749.394 211.37 749.394 207.199V189.393C749.394 185.222 745.994 181.822 741.823 181.822H724.017Z" fill="#9EC8FF"/>
    </g>
    <path d="M734.041 209.267C734.006 209.267 733.971 209.267 733.935 209.267C733.305 209.231 732.744 208.951 732.358 208.46L719.565 191.776C718.864 190.865 719.039 189.533 719.95 188.832C720.862 188.131 722.194 188.306 722.895 189.218L734.181 203.939L763.658 172.358C764.464 171.517 765.796 171.447 766.638 172.253C767.479 173.059 767.549 174.391 766.743 175.233L735.583 208.636C735.197 209.056 734.636 209.267 734.041 209.267Z" fill="#F37168"/>
</svg>
