<svg width="95" height="116" viewBox="0 0 95 116" fill="none" xmlns="http://www.w3.org/2000/svg">
    <path d="M94.3791 18.1249C94.4697 18.1249 48.4322 0.453072 47.254 0C46.3479 0.362412 0.0383788 18.1249 0.129039 18.1249V51.4749C0.129039 74.5843 6.74472 104.762 47.254 116C87.6727 104.762 94.2884 74.0403 94.2884 51.4749C94.3791 40.0563 94.3791 18.1249 94.3791 18.1249Z" fill="#F3F3F3"/>
    <path d="M0.128906 51.4751C0.128906 74.5845 6.74459 104.763 47.2539 116V0C45.5321 0.634393 0.128906 18.1249 0.128906 18.1249C0.128906 18.1249 0.129136 51.4751 0.128906 51.4751Z" fill="#E7E7E7"/>
    <path d="M85.2246 24.3782C85.3153 24.3782 48.159 9.425 47.1622 9.06259C46.3465 9.33457 9.00911 23.7438 9.09977 23.6532V51.6562C9.09977 71.0499 12.9061 97.5124 47.1622 106.937C81.3278 97.5124 85.2246 70.5969 85.2246 51.6562C85.3153 42.0501 85.3153 24.3782 85.2246 24.3782Z" fill="#3D97B3"/>
    <path d="M47.254 9.06259C46.4383 9.33457 9.10091 23.7438 9.19157 23.6532V51.6562C9.19157 71.0499 12.9979 97.5124 47.254 106.937V9.06259Z" fill="#3A8FAA"/>
    <path d="M65.1967 49.1188C64.9247 48.2127 64.1092 47.5783 63.1124 47.397L53.6874 46.0375L49.6093 37.7C49.1562 36.7939 48.2498 36.2499 47.253 36.2499C46.2562 36.2499 45.3499 36.7936 44.8968 37.7L40.8187 46.0375L31.3937 47.397C30.3969 47.5783 29.5812 48.2127 29.3094 49.1188C29.0377 50.025 29.2187 51.022 29.9438 51.6564L36.8312 58.4532L35.2 67.8782C35.0187 68.7843 35.472 69.7814 36.2875 70.3251C36.7406 70.5971 37.2843 70.7782 37.828 70.7782C38.2811 70.7782 38.7342 70.6875 39.0968 70.5062L47.3437 66.1561L55.5906 70.5062C55.953 70.6875 56.4063 70.7782 56.8594 70.7782C57.4031 70.7782 57.9468 70.5968 58.3999 70.3251C59.2156 69.7814 59.6687 68.7846 59.4874 67.8782L57.8562 58.4532L64.7436 51.6564C65.2873 50.9314 65.5591 50.025 65.1967 49.1188Z" fill="#F9F9F9"/>
</svg>
