<svg width="102" height="102" viewBox="0 0 102 102" fill="none" xmlns="http://www.w3.org/2000/svg">
    <path d="M73.7302 27.719C72.5743 26.5633 72.5743 24.6891 73.7302 23.5331L84.3805 12.8829C85.5364 11.7269 87.4104 11.7269 88.5664 12.8829C89.7223 14.0386 89.7223 15.9129 88.5664 17.0688L77.9162 27.719C76.7604 28.8748 74.8862 28.8754 73.7302 27.719Z" fill="#FFDC4C"/>
    <path d="M84.3805 88.6008L73.7302 77.9506C72.5743 76.7949 72.5743 74.9206 73.7302 73.7647C74.886 72.6089 76.7602 72.6089 77.9162 73.7647L88.5664 84.4149C89.7223 85.5707 89.7223 87.4449 88.5664 88.6008C87.4102 89.757 85.5364 89.7568 84.3805 88.6008Z" fill="#FFDC4C"/>
    <path d="M91.3567 19.9587C85.9163 19.9587 81.4902 15.5326 81.4902 10.0923C81.4902 4.65191 85.9163 0.22583 91.3567 0.22583C96.797 0.22583 101.223 4.65191 101.223 10.0923C101.223 15.5326 96.797 19.9587 91.3567 19.9587Z" fill="#FF981E"/>
    <path d="M91.3567 101.258C85.9163 101.258 81.4902 96.832 81.4902 91.3917C81.4902 85.9513 85.9163 81.5252 91.3567 81.5252C96.797 81.5252 101.223 85.9513 101.223 91.3917C101.223 96.832 96.797 101.258 91.3567 101.258Z" fill="#FF981E"/>
    <path d="M23.4996 27.7191L12.8494 17.0688C11.6934 15.9131 11.6934 14.0388 12.8494 12.8829C14.0051 11.7271 15.8794 11.7271 17.0353 12.8829L27.6855 23.5331C28.8415 24.6889 28.8415 26.5631 27.6855 27.7191C26.5296 28.8752 24.6556 28.875 23.4996 27.7191Z" fill="#FFF35D"/>
    <path d="M12.8494 88.6009C11.6934 87.4451 11.6934 85.5709 12.8494 84.415L23.4996 73.7647C24.6556 72.6088 26.5296 72.6088 27.6855 73.7647C28.8415 74.9205 28.8415 76.7947 27.6855 77.9507L17.0353 88.6009C15.8796 89.7566 14.0055 89.7572 12.8494 88.6009Z" fill="#FFF35D"/>
    <path d="M10.0578 19.9587C4.61749 19.9587 0.191406 15.5326 0.191406 10.0923C0.191406 4.65191 4.61749 0.22583 10.0578 0.22583C15.4982 0.22583 19.9243 4.65191 19.9243 10.0923C19.9243 15.5326 15.4982 19.9587 10.0578 19.9587Z" fill="#FFAC2B"/>
    <path d="M10.0578 101.258C4.61749 101.258 0.191406 96.832 0.191406 91.3917C0.191406 85.9513 4.61749 81.5252 10.0578 81.5252C15.4982 81.5252 19.9243 85.9513 19.9243 91.3917C19.9243 96.832 15.4982 101.258 10.0578 101.258Z" fill="#FFAC2B"/>
    <path d="M50.7076 89.221C29.4902 89.221 12.2285 71.9593 12.2285 50.742C12.2285 29.5246 29.4902 12.2629 50.7076 12.2629C71.925 12.2629 89.1867 29.5246 89.1867 50.742C89.1867 71.9593 71.925 89.221 50.7076 89.221Z" fill="#FFAC2B"/>
    <path d="M50.709 12.2629V89.221C71.9264 89.221 89.1881 71.9593 89.1881 50.742C89.1881 29.5246 71.9264 12.2629 50.709 12.2629Z" fill="#FF981E"/>
    <path d="M61.9554 47.782H61.5607V43.2435C61.5607 37.2591 56.692 32.3904 50.7077 32.3904C44.7233 32.3904 39.8546 37.2591 39.8546 43.2435V47.782H39.4599C37.8253 47.782 36.5 49.1073 36.5 50.7419V66.1336C36.5 67.7683 37.8253 69.0935 39.4599 69.0935H61.9554C63.5901 69.0935 64.9153 67.7683 64.9153 66.1336V50.7419C64.9153 49.1073 63.5901 47.782 61.9554 47.782ZM45.7744 43.2435C45.7744 40.5233 47.9875 38.3102 50.7077 38.3102C53.4278 38.3102 55.6409 40.5233 55.6409 43.2435V47.782H45.7744V43.2435Z" fill="#FFF35D"/>
    <path d="M61.9567 47.782H61.5621V43.2435C61.5621 37.2591 56.6934 32.3904 50.709 32.3904V38.3102C53.4292 38.3102 55.6422 40.5233 55.6422 43.2435V47.782H50.709V69.0935H61.9567C63.5914 69.0935 64.9166 67.7683 64.9166 66.1336V50.7419C64.9166 49.1073 63.5914 47.782 61.9567 47.782Z" fill="#FFDC4C"/>
</svg>
