<svg width="768" height="457" viewBox="0 0 768 457" fill="none" xmlns="http://www.w3.org/2000/svg">
    <path d="M217.441 0H148.68V94.1485H217.441V0Z" fill="#D8ECFF"/>
    <path d="M200.025 11.8397H131.264V105.988H200.025V11.8397Z" fill="#E0E0E0"/>
    <path d="M524.135 140.597C524.135 140.597 524.021 140.597 523.679 140.597C523.338 140.597 522.882 140.597 522.313 140.597C521.175 140.597 519.353 140.597 517.076 140.597C512.523 140.597 505.92 140.597 497.609 140.711C480.988 140.711 457.65 140.824 430.555 140.824H430.328V140.597C428.961 135.815 429.758 130.351 432.946 126.025C436.02 121.812 441.37 119.08 446.835 119.194L446.607 119.536C446.152 118.17 446.038 116.576 446.038 114.982C446.266 109.745 449.226 104.736 453.666 102.459C458.105 100.068 463.684 100.182 467.896 102.573L467.554 102.687C469.945 96.7669 475.068 92.5547 480.533 90.6194C486.111 88.5702 492.258 88.9117 497.04 91.4163C501.935 93.9209 505.35 98.1331 507.286 102.573C509.221 107.013 509.563 111.794 508.538 116.006L508.31 115.779C511.043 115.437 513.775 115.893 516.052 116.917C518.329 117.828 520.378 119.308 521.858 120.902C522.655 121.699 523.224 122.609 523.679 123.52C524.135 124.431 524.476 125.342 524.59 126.252C525.045 128.074 525.159 129.782 525.273 131.262C525.387 134.335 525.045 136.726 524.704 138.206C524.476 139.003 524.362 139.572 524.248 139.914C524.248 140.369 524.135 140.597 524.135 140.597Z" fill="#D8ECFF"/>
    <path d="M702.983 95.8562C693.648 97.45 687.387 106.216 688.867 115.551C690.461 124.886 699.227 131.148 708.562 129.668C716.531 128.302 722.337 121.699 722.792 113.957L727.46 113.16L729.964 107.924L733.607 112.136L739.527 111.111L742.146 105.874L745.789 110.087L750.798 109.29L752.278 106.102L754.555 108.721L757.514 108.265L760.702 103.939L755.124 97.7916L720.288 103.598C716.758 97.9054 709.928 94.7178 702.983 95.8562ZM693.421 114.754C692.965 112.022 694.787 109.517 697.519 109.062C700.251 108.607 702.756 110.428 703.211 113.16C703.666 115.893 701.845 118.397 699.113 118.853C696.381 119.308 693.876 117.486 693.421 114.754Z" fill="#D8ECFF"/>
    <path d="M685.566 226.776L687.729 265.597C687.843 266.963 688.981 268.101 690.347 268.101L760.247 268.557C761.727 268.557 762.866 267.418 762.866 265.938L763.093 235.77C763.093 234.29 761.955 233.151 760.475 233.151H717.556C716.873 233.151 716.19 232.924 715.734 232.355L708.334 224.955C707.879 224.499 707.196 224.158 706.513 224.158L688.412 224.044C686.704 224.044 685.452 225.296 685.566 226.776Z" fill="#EBEBEB"/>
    <path d="M763.052 228.656L686.777 228.097L686.443 273.748L762.718 274.307L763.052 228.656Z" fill="#F5F5F5"/>
    <path d="M680.671 232.127L686.135 279.713C686.249 280.51 686.932 281.193 687.843 281.193L762.183 281.763C763.094 281.763 763.777 281.079 763.891 280.169L767.989 232.696C768.103 231.671 767.306 230.875 766.281 230.875L682.379 230.305C681.354 230.191 680.557 231.102 680.671 232.127Z" fill="#EBEBEB"/>
    <path d="M676.801 441.143C659.041 428.734 655.057 405.852 655.74 385.132C655.854 381.717 655.512 378.074 657.106 375C658.7 371.926 662.57 369.877 665.644 371.357C668.149 372.609 669.287 375.569 670.767 377.96C672.702 381.262 675.549 383.994 678.85 385.701C681.013 386.84 683.745 387.523 685.908 386.384C688.868 384.791 689.21 380.692 689.21 377.163C689.21 370.788 689.096 364.413 689.096 358.037C689.096 354.622 689.096 351.093 690.12 347.905C691.145 344.604 693.536 341.644 696.837 340.733C700.139 339.823 704.123 341.644 704.806 345.059C705.148 346.425 704.806 347.905 704.92 349.272C705.034 350.638 705.717 352.231 707.083 352.687C708.449 353.142 709.815 352.118 710.84 351.093C714.369 347.678 716.76 343.124 719.037 338.798C721.314 334.358 723.477 329.804 726.664 326.047C729.852 322.291 734.292 319.331 739.187 318.989C744.082 318.762 749.319 321.721 750.571 326.503C751.824 331.284 748.978 336.18 745.904 340.164C741.35 345.97 735.999 351.093 729.966 355.305C728.941 356.102 727.689 356.899 727.347 358.151C726.55 360.428 728.713 362.705 730.99 363.502C733.495 364.299 736.341 364.071 738.959 364.413C741.578 364.754 744.538 365.893 745.562 368.397C746.928 371.926 744.082 375.569 741.122 377.96C735.316 382.742 728.713 386.612 721.769 389.117C719.264 390.027 716.646 390.824 714.597 392.646C712.548 394.467 711.295 397.541 712.548 399.932C713.8 402.323 716.874 403.12 719.606 402.664C722.224 402.209 724.615 400.729 727.12 399.818C731.787 397.997 737.935 398.338 740.895 402.436C742.83 405.055 743.058 408.812 742.033 411.999C741.009 415.187 738.959 417.919 736.796 420.424C729.283 429.303 719.606 436.362 708.677 440.232C697.748 444.103 687.616 445.128 676.801 441.143Z" fill="#D8ECFF"/>
    <path d="M676.459 456.398C677.256 448.202 678.964 438.525 682.037 428.165C685.111 417.805 689.323 406.649 694.219 395.151C695.471 392.304 696.609 389.458 697.862 386.612C699.114 383.88 700.252 381.034 701.618 378.416C704.237 373.179 707.197 368.283 710.157 363.73C713.117 359.176 716.077 354.964 718.809 351.093C721.655 347.222 724.273 343.579 726.892 340.392C732.015 334.017 736.796 329.463 740.211 326.389C741.919 324.909 743.285 323.771 744.196 322.974C744.651 322.632 744.993 322.291 745.22 322.063C745.448 321.835 745.562 321.835 745.562 321.835C745.562 321.835 745.448 321.949 745.22 322.177C744.993 322.405 744.651 322.746 744.196 323.088C743.285 323.884 741.919 325.023 740.325 326.617C737.024 329.691 732.356 334.358 727.233 340.733C724.729 343.921 721.996 347.45 719.264 351.435C716.532 355.305 713.572 359.517 710.612 364.071C707.652 368.625 704.806 373.52 702.188 378.757C700.822 381.375 699.683 384.108 698.431 386.954C697.292 389.8 696.04 392.532 694.788 395.492C689.893 406.99 685.68 418.033 682.607 428.507C679.533 438.866 677.711 448.429 676.914 456.626" fill="#D8ECFF"/>
    <path d="M701.845 378.416C701.845 378.416 701.731 377.846 701.503 376.936C701.276 376.025 701.162 374.659 700.82 372.951C700.365 369.536 699.796 364.754 699.341 359.631C698.771 354.395 698.202 349.727 697.747 346.312C697.519 344.604 697.291 343.238 697.064 342.327C696.95 341.417 696.836 340.847 696.836 340.847C696.836 340.847 697.064 341.303 697.291 342.327C697.519 343.238 697.861 344.604 698.202 346.312C698.885 349.727 699.454 354.395 700.024 359.631C700.593 364.754 701.048 369.422 701.39 373.065C701.617 374.659 701.731 376.025 701.845 377.163C701.845 377.846 701.845 378.416 701.845 378.416Z" fill="#D8ECFF"/>
    <path d="M745.903 370.219C745.903 370.219 745.334 370.333 744.195 370.446C743.057 370.56 741.463 370.674 739.414 370.902C735.43 371.357 729.851 372.154 723.704 373.293C717.67 374.431 712.205 375.683 708.221 376.822C706.286 377.277 704.692 377.732 703.553 378.074C702.415 378.416 701.846 378.529 701.846 378.529C701.846 378.529 702.415 378.302 703.44 377.846C704.464 377.505 706.058 376.936 707.993 376.366C711.864 375.228 717.328 373.862 723.476 372.723C729.624 371.585 735.202 370.788 739.186 370.56C741.236 370.333 742.829 370.333 743.968 370.333C745.22 370.105 745.903 370.105 745.903 370.219Z" fill="#D8ECFF"/>
    <path d="M682.606 427.368C682.606 427.368 682.492 427.141 682.265 426.799C682.037 426.344 681.809 425.888 681.468 425.205C680.785 423.839 679.988 421.79 678.85 419.286C676.686 414.276 673.954 407.218 671.108 399.363C668.262 391.508 665.53 384.449 663.594 379.327C662.57 376.822 661.773 374.773 661.204 373.293C660.976 372.61 660.748 372.041 660.521 371.699C660.407 371.357 660.293 371.13 660.293 371.13C660.293 371.13 660.407 371.357 660.635 371.699C660.862 372.154 661.09 372.61 661.431 373.293C662.114 374.659 662.911 376.708 664.05 379.213C666.213 384.222 668.945 391.28 671.791 399.135C674.637 406.99 677.37 414.049 679.305 419.172C680.329 421.676 681.126 423.725 681.696 425.205C681.923 425.888 682.151 426.458 682.379 426.799C682.606 427.141 682.606 427.368 682.606 427.368Z" fill="#D8ECFF"/>
    <path d="M741.238 408.47C741.238 408.47 741.011 408.584 740.669 408.698C740.214 408.812 739.644 409.039 738.961 409.267C737.368 409.723 735.318 410.519 732.7 411.316C727.463 413.024 720.177 415.529 712.094 418.261C704.011 420.993 696.725 423.384 691.375 424.978C688.756 425.774 686.593 426.457 685 426.799C684.316 427.027 683.747 427.141 683.292 427.254C682.95 427.368 682.723 427.368 682.723 427.368C682.723 427.368 682.95 427.254 683.292 427.141C683.747 427.027 684.316 426.799 685 426.571C686.593 426.116 688.643 425.433 691.261 424.522C696.498 422.814 703.784 420.31 711.867 417.578C719.95 414.845 727.235 412.455 732.586 410.861C735.204 410.064 737.368 409.381 738.961 409.039C739.644 408.812 740.214 408.698 740.669 408.584C741.011 408.584 741.124 408.47 741.238 408.47Z" fill="#D8ECFF"/>
    <path d="M748.749 456.512C748.749 456.626 585.042 456.854 383.198 456.854C181.24 456.854 17.6465 456.74 17.6465 456.512C17.6465 456.284 181.24 456.171 383.198 456.171C585.156 456.171 748.749 456.284 748.749 456.512Z" fill="#263238"/>
    <path d="M664.504 416.781C666.439 419.285 670.082 418.261 671.676 416.553C673.27 414.845 673.839 412.455 674.408 410.178C675.66 404.941 676.799 399.59 675.433 394.467C674.977 392.874 674.408 391.394 673.27 390.255C672.131 389.117 670.424 388.548 668.944 389.003C667.122 389.572 666.098 391.394 665.414 393.101C663.251 398.224 662.227 403.803 662.568 409.267C662.455 411.999 662.91 414.732 664.504 416.781Z" fill="#FF4883"/>
    <g opacity="0.2">
        <g opacity="0.2">
            <path opacity="0.2" d="M664.504 416.781C666.439 419.285 670.082 418.261 671.676 416.553C673.27 414.845 673.839 412.455 674.408 410.178C675.66 404.941 676.799 399.59 675.433 394.467C674.977 392.874 674.408 391.394 673.27 390.255C672.131 389.117 670.424 388.548 668.944 389.003C667.122 389.572 666.098 391.394 665.414 393.101C663.251 398.224 662.227 403.803 662.568 409.267C662.455 411.999 662.91 414.732 664.504 416.781Z" fill="black"/>
        </g>
    </g>
    <path d="M672.134 429.759C675.094 428.051 678.623 427.71 682.038 428.051C683.859 428.279 685.795 428.734 687.047 429.986C688.299 431.239 688.755 433.629 687.389 434.882C686.592 435.565 685.453 435.792 684.315 435.792C681.696 435.906 678.737 435.565 676.687 437.272C675.549 438.183 674.752 439.777 673.386 440.346C672.02 440.802 670.426 440.119 669.515 438.866C668.718 437.614 668.604 436.02 668.832 434.654C668.946 434.654 669.174 431.58 672.134 429.759Z" fill="#FF4883"/>
    <path d="M659.609 420.765C661.545 418.261 661.658 414.731 660.634 411.771C659.609 408.812 657.446 406.421 654.942 404.372C652.096 402.095 648.794 400.387 645.265 399.249C643.899 398.793 642.419 398.566 641.053 398.793C639.573 399.021 638.207 399.818 637.637 401.07C636.727 403.006 637.751 405.282 638.89 407.104C640.825 410.292 643.102 413.365 645.493 416.211C647.428 418.488 649.705 420.765 652.551 421.676C655.397 422.587 658.357 422.359 659.723 420.31" fill="#FF4883"/>
    <path d="M666.327 456.74C666.327 456.74 666.441 456.284 666.441 455.487C666.441 454.577 666.555 453.552 666.555 452.186C666.669 450.82 666.783 449.112 667.01 447.291C667.352 445.469 667.807 443.534 668.49 441.485C669.173 439.435 670.084 437.614 671.109 436.134C672.133 434.654 673.386 433.516 674.638 432.946C675.89 432.263 676.915 431.922 677.712 431.808C678.509 431.694 678.85 431.58 678.85 431.58C678.85 431.58 678.395 431.58 677.598 431.58C676.801 431.694 675.662 431.922 674.41 432.605C673.158 433.288 671.792 434.313 670.653 435.906C669.515 437.386 668.604 439.322 667.921 441.257C667.238 443.306 666.783 445.242 666.441 447.177C666.213 448.998 666.1 450.706 666.1 452.072C666.1 453.438 666.1 454.577 666.1 455.374C666.327 456.284 666.327 456.74 666.327 456.74Z" fill="#263238"/>
    <path d="M666.438 454.121C666.438 454.121 666.438 453.894 666.438 453.552C666.438 453.097 666.438 452.641 666.324 451.958C666.21 450.592 666.096 448.543 666.096 446.038C665.982 441.029 666.096 434.199 666.438 426.685C666.893 419.171 667.69 412.341 668.373 407.445C668.601 406.193 668.714 405.055 668.942 404.144C669.056 403.119 669.284 402.323 669.397 401.639C669.511 400.956 669.625 400.501 669.739 400.046C669.853 399.704 669.853 399.476 669.853 399.476C669.853 399.476 669.739 399.704 669.739 400.046C669.625 400.501 669.511 400.956 669.397 401.639C669.17 402.323 669.056 403.119 668.828 404.144C668.601 405.055 668.373 406.193 668.259 407.445C667.462 412.341 666.551 419.171 666.096 426.799C665.641 434.426 665.641 441.257 665.868 446.266C665.982 448.771 666.096 450.706 666.21 452.186C666.324 452.869 666.324 453.324 666.438 453.78C666.438 454.007 666.438 454.121 666.438 454.121Z" fill="#263238"/>
    <path d="M665.873 440.915C665.873 440.915 665.873 440.346 665.759 439.208C665.645 438.183 665.418 436.589 665.076 434.768C664.621 432.946 664.052 430.67 663.255 428.279C662.458 425.888 661.433 423.27 660.067 420.651C657.562 415.301 654.147 411.088 651.301 408.47C650.618 407.787 649.935 407.332 649.252 406.762C648.91 406.535 648.683 406.307 648.455 406.079C648.227 405.966 647.886 405.738 647.658 405.624C646.747 405.055 646.178 404.713 646.178 404.827C646.064 404.941 648.227 406.079 650.96 408.698C653.692 411.316 656.993 415.642 659.498 420.879C660.75 423.497 661.889 426.116 662.685 428.507C663.482 430.897 664.165 433.06 664.621 434.996C665.076 436.817 665.304 438.411 665.532 439.436C665.645 440.346 665.759 440.915 665.873 440.915Z" fill="#263238"/>
    <path d="M128.982 200.934H0.224609V287.113H128.982V200.934Z" fill="#FAFAFA"/>
    <path d="M93.9194 253.188H90.5041V232.582C90.5041 227.573 86.5196 223.588 81.5105 223.588C76.5014 223.588 72.5169 227.573 72.5169 232.582V253.188H69.1016V232.582C69.1016 225.751 74.6799 220.173 81.5105 220.173C88.3411 220.173 93.9194 225.751 93.9194 232.582V253.188Z" fill="#263238"/>
    <path d="M94.6015 265.824H68.4176C66.2545 265.824 64.5469 264.117 64.5469 261.954V247.837C64.5469 245.674 66.2545 243.967 68.4176 243.967H94.6015C96.7646 243.967 98.4722 245.674 98.4722 247.837V261.954C98.4722 264.117 96.7646 265.824 94.6015 265.824Z" fill="#263238"/>
    <path d="M81.5101 254.895C79.9163 254.895 78.6641 253.643 78.6641 252.049C78.6641 250.455 79.9163 249.203 81.5101 249.203C83.104 249.203 84.3562 250.455 84.3562 252.049C84.3562 253.643 83.104 254.895 81.5101 254.895Z" fill="#455A64"/>
    <path d="M82.3087 253.188H80.7148V258.994H82.3087V253.188Z" fill="#455A64"/>
    <path d="M63.6367 252.96C68.4181 250.911 71.8334 246.016 71.8334 240.21C71.8334 232.582 66.1412 226.435 58.9691 226.435C51.9108 226.435 46.1048 232.582 45.9909 240.096C45.9909 245.902 49.4062 250.911 54.1877 252.96C34.3789 255.92 35.2897 277.55 35.2897 277.55L82.1932 277.778C82.307 277.664 83.3316 255.92 63.6367 252.96Z" fill="#FF4883"/>
    <path d="M128.871 287.113C128.871 287.113 128.871 286.544 128.871 285.519C128.871 284.495 128.871 282.901 128.871 280.966C128.871 276.981 128.871 271.061 128.757 263.661C128.757 248.634 128.643 227.118 128.643 200.934L128.871 201.161C93.3516 201.161 48.6112 201.161 0.227687 201.275L0.569217 200.934C0.569217 231.671 0.569217 260.815 0.569217 287.113L0.227687 286.886C38.1376 286.886 70.2414 286.999 92.8963 286.999C104.281 286.999 113.274 286.999 119.422 287.113C122.496 287.113 124.886 287.113 126.48 287.113C127.277 287.113 127.846 287.113 128.302 287.113C128.643 287.113 128.871 287.113 128.871 287.113C128.871 287.113 128.643 287.113 128.302 287.113C127.846 287.113 127.277 287.113 126.48 287.113C124.886 287.113 122.496 287.113 119.536 287.113C113.388 287.113 104.394 287.113 93.124 287.227C70.3553 287.227 38.1376 287.341 0.227687 287.341H0V287.113C0 260.815 0 231.671 0 200.934V200.592H0.34153C48.8388 200.592 93.5793 200.592 128.985 200.706H129.212V200.934C129.212 227.232 129.098 248.748 129.098 263.775C129.098 271.289 129.098 277.095 128.985 281.079C128.985 283.015 128.985 284.609 128.985 285.633C128.871 286.658 128.871 287.113 128.871 287.113Z" fill="#263238"/>
    <path d="M128.868 211.293C128.868 211.407 100.065 211.635 64.5462 211.635C29.027 211.635 0.224609 211.521 0.224609 211.293C0.224609 211.18 29.027 210.952 64.5462 210.952C100.065 210.952 128.868 211.066 128.868 211.293Z" fill="#263238"/>
    <path d="M8.65021 206.057C8.65021 206.74 8.08099 207.423 7.28409 207.423C6.48719 207.423 5.91797 206.854 5.91797 206.057C5.91797 205.374 6.48719 204.691 7.28409 204.691C8.08099 204.691 8.65021 205.374 8.65021 206.057Z" fill="#263238"/>
    <path d="M12.9783 206.057C12.9783 206.74 12.4091 207.423 11.6122 207.423C10.9292 207.423 10.2461 206.854 10.2461 206.057C10.2461 205.374 10.8153 204.691 11.6122 204.691C12.4091 204.804 12.9783 205.374 12.9783 206.057Z" fill="#263238"/>
    <path d="M17.6444 206.057C17.6444 206.74 17.0751 207.423 16.2782 207.423C15.5952 207.423 14.9121 206.854 14.9121 206.057C14.9121 205.374 15.4813 204.691 16.2782 204.691C17.0751 204.804 17.6444 205.374 17.6444 206.057Z" fill="#263238"/>
    <path d="M128.871 287.113C128.871 287.113 128.871 286.544 128.871 285.519C128.871 284.495 128.871 282.901 128.871 280.966C128.871 276.981 128.871 271.061 128.757 263.661C128.757 248.634 128.643 227.118 128.643 200.934L128.871 201.161C93.3516 201.161 48.6112 201.161 0.227687 201.275L0.569217 200.934C0.569217 231.671 0.569217 260.815 0.569217 287.113L0.227687 286.886C38.1376 286.886 70.2414 286.999 92.8963 286.999C104.281 286.999 113.274 286.999 119.422 287.113C122.496 287.113 124.886 287.113 126.48 287.113C127.277 287.113 127.846 287.113 128.302 287.113C128.643 287.113 128.871 287.113 128.871 287.113C128.871 287.113 128.643 287.113 128.302 287.113C127.846 287.113 127.277 287.113 126.48 287.113C124.886 287.113 122.496 287.113 119.536 287.113C113.388 287.113 104.394 287.113 93.124 287.227C70.3553 287.227 38.1376 287.341 0.227687 287.341H0V287.113C0 260.815 0 231.671 0 200.934V200.592H0.34153C48.8388 200.592 93.5793 200.592 128.985 200.706H129.212V200.934C129.212 227.232 129.098 248.748 129.098 263.775C129.098 271.289 129.098 277.095 128.985 281.079C128.985 283.015 128.985 284.609 128.985 285.633C128.871 286.658 128.871 287.113 128.871 287.113Z" fill="#263238"/>
    <path d="M63.7517 289.959C63.6378 289.959 63.4102 289.276 63.4102 288.479C63.4102 287.682 63.524 286.999 63.7517 286.999C63.8655 286.999 64.0932 287.682 64.0932 288.479C63.9794 289.39 63.8655 289.959 63.7517 289.959Z" fill="black"/>
    <path d="M63.7517 302.482C63.6378 302.482 63.4102 301.116 63.4102 299.408C63.4102 297.7 63.524 296.334 63.7517 296.334C63.8655 296.334 64.0932 297.7 64.0932 299.408C63.9794 301.002 63.8655 302.482 63.7517 302.482Z" fill="black"/>
    <path d="M63.7517 314.891C63.6378 314.891 63.4102 313.525 63.4102 311.817C63.4102 310.109 63.524 308.743 63.7517 308.743C63.8655 308.743 64.0932 310.109 64.0932 311.817C63.9794 313.525 63.8655 314.891 63.7517 314.891Z" fill="black"/>
    <path d="M63.7517 327.3C63.6378 327.3 63.4102 325.934 63.4102 324.226C63.4102 322.518 63.524 321.152 63.7517 321.152C63.8655 321.152 64.0932 322.518 64.0932 324.226C63.9794 325.934 63.8655 327.3 63.7517 327.3Z" fill="black"/>
    <path d="M63.7517 339.823C63.6378 339.823 63.4102 338.456 63.4102 336.749C63.4102 335.041 63.524 333.675 63.7517 333.675C63.8655 333.675 64.0932 335.041 64.0932 336.749C63.9794 338.456 63.8655 339.823 63.7517 339.823Z" fill="black"/>
    <path d="M66.5978 348.816C66.5978 348.93 65.3455 349.158 63.7517 349.158C63.1825 348.589 63.6378 349.044 63.4102 348.816V348.702V348.589V348.361C63.4102 348.247 63.4102 348.019 63.4102 347.792C63.4102 347.45 63.4102 347.109 63.524 346.881C63.524 346.312 63.6378 346.084 63.7517 346.084C63.8655 346.084 63.8655 346.426 63.9794 346.881C63.9794 347.109 63.9794 347.45 64.0932 347.792C64.0932 348.019 64.0932 348.133 64.0932 348.361V348.589V348.702V348.816C63.9794 348.702 64.4347 349.158 63.7517 348.475C65.2317 348.589 66.5978 348.702 66.5978 348.816Z" fill="black"/>
    <path d="M77.7566 348.816C77.7566 348.93 76.5043 349.158 74.9105 349.158C73.3167 349.158 72.0645 349.044 72.0645 348.816C72.0645 348.589 73.3167 348.475 74.9105 348.475C76.5043 348.589 77.7566 348.703 77.7566 348.816Z" fill="black"/>
    <path d="M88.9109 348.816C88.9109 348.93 87.6586 349.158 86.0648 349.158C84.471 349.158 83.2188 349.044 83.2188 348.816C83.2188 348.589 84.471 348.475 86.0648 348.475C87.6586 348.589 88.9109 348.703 88.9109 348.816Z" fill="black"/>
    <path d="M100.067 348.816C100.067 348.93 98.8149 349.158 97.2211 349.158C95.6273 349.158 94.375 349.044 94.375 348.816C94.375 348.589 95.6273 348.475 97.2211 348.475C98.8149 348.589 100.067 348.703 100.067 348.816Z" fill="black"/>
    <path d="M111.339 348.816C111.339 348.93 110.086 349.158 108.493 349.158C106.899 349.158 105.646 349.044 105.646 348.816C105.646 348.589 106.899 348.475 108.493 348.475C110.086 348.589 111.339 348.703 111.339 348.816Z" fill="black"/>
    <path d="M122.495 348.816C122.495 348.93 121.243 349.158 119.649 349.158C118.055 349.158 116.803 349.044 116.803 348.816C116.803 348.589 118.055 348.475 119.649 348.475C121.243 348.589 122.495 348.703 122.495 348.816Z" fill="black"/>
    <path d="M133.651 348.816C133.651 348.93 132.399 349.158 130.805 349.158C129.211 349.158 127.959 349.044 127.959 348.816C127.959 348.589 129.211 348.475 130.805 348.475C132.399 348.589 133.651 348.703 133.651 348.816Z" fill="black"/>
    <path d="M144.807 348.816C144.807 348.93 143.555 349.158 141.961 349.158C140.368 349.158 139.115 349.044 139.115 348.816C139.115 348.589 140.368 348.475 141.961 348.475C143.555 348.589 144.807 348.703 144.807 348.816Z" fill="black"/>
    <path d="M156.081 348.816C156.081 348.93 154.829 349.158 153.235 349.158C151.641 349.158 150.389 349.044 150.389 348.816C150.389 348.589 151.641 348.475 153.235 348.475C154.829 348.589 156.081 348.703 156.081 348.816Z" fill="black"/>
    <path d="M167.235 348.816C167.235 348.93 165.983 349.158 164.389 349.158C162.795 349.158 161.543 349.044 161.543 348.816C161.543 348.589 162.795 348.475 164.389 348.475C165.983 348.589 167.235 348.703 167.235 348.816Z" fill="black"/>
    <path d="M178.393 348.816C178.393 348.93 177.141 349.158 175.547 349.158C173.953 349.158 172.701 349.044 172.701 348.816C172.701 348.589 173.953 348.475 175.547 348.475C177.141 348.589 178.393 348.703 178.393 348.816Z" fill="black"/>
    <path d="M186.817 348.816C186.817 348.93 186.134 349.158 185.451 349.158C184.654 349.158 183.971 349.044 183.971 348.816C183.971 348.589 184.654 348.475 185.451 348.475C186.248 348.589 186.817 348.703 186.817 348.816Z" fill="black"/>
    <path d="M188.183 26.2977H119.422V120.446H188.183V26.2977Z" fill="white"/>
    <path d="M188.184 120.446C188.184 120.446 188.184 120.333 188.184 119.991C188.184 119.65 188.184 119.194 188.184 118.625C188.184 117.486 188.184 115.665 188.184 113.502C188.184 108.948 188.184 102.459 188.07 94.1486C188.07 77.5274 187.956 54.0757 187.842 26.2979L188.184 26.6394C167.464 26.6394 144.126 26.6394 119.422 26.7533L119.764 26.4117C119.764 61.5894 119.764 94.1486 119.764 120.56L119.536 120.333C140.369 120.333 157.446 120.446 169.513 120.446C175.547 120.446 180.215 120.446 183.402 120.56C184.996 120.56 186.248 120.56 187.045 120.56C187.842 120.446 188.184 120.446 188.184 120.446C188.184 120.446 187.728 120.446 186.931 120.446C186.134 120.446 184.882 120.446 183.288 120.446C180.101 120.446 175.433 120.446 169.399 120.56C157.332 120.56 140.142 120.674 119.308 120.788H119.081V120.56C119.081 94.1486 118.967 61.5894 118.967 26.4117V26.0702H119.308C144.012 26.0702 167.35 26.0702 188.07 26.0702H188.411V26.4117C188.411 54.3034 188.297 77.869 188.297 94.4901C188.297 102.687 188.297 109.29 188.184 113.73C188.184 115.893 188.184 117.6 188.184 118.853C188.184 119.422 188.184 119.877 188.184 120.105C188.297 120.333 188.297 120.446 188.184 120.446Z" fill="#263238"/>
    <path d="M161.433 45.1959C161.433 45.4236 153.919 45.5374 144.698 45.5374C135.477 45.5374 127.963 45.4236 127.963 45.1959C127.963 44.9682 135.477 44.8544 144.698 44.8544C154.033 44.8544 161.433 45.0821 161.433 45.1959Z" fill="#263238"/>
    <path d="M179.531 53.3927C179.531 53.6204 168.033 53.7342 153.803 53.7342C139.572 53.7342 128.074 53.6204 128.074 53.3927C128.074 53.165 139.572 53.0511 153.803 53.0511C168.033 53.0511 179.531 53.165 179.531 53.3927Z" fill="#263238"/>
    <path d="M179.531 61.9308C179.531 62.1585 168.033 62.2723 153.803 62.2723C139.572 62.2723 128.074 62.1585 128.074 61.9308C128.074 61.7031 139.572 61.5892 153.803 61.5892C168.033 61.5892 179.531 61.7031 179.531 61.9308Z" fill="#263238"/>
    <path d="M179.531 70.469C179.531 70.6967 168.033 70.8105 153.803 70.8105C139.572 70.8105 128.074 70.6967 128.074 70.469C128.074 70.2413 139.572 70.1274 153.803 70.1274C168.033 70.1274 179.531 70.2413 179.531 70.469Z" fill="#263238"/>
    <path d="M179.531 79.0073C179.531 79.235 168.033 79.3488 153.803 79.3488C139.572 79.3488 128.074 79.235 128.074 79.0073C128.074 78.7796 139.572 78.6658 153.803 78.6658C168.033 78.6658 179.531 78.7796 179.531 79.0073Z" fill="#263238"/>
    <path d="M179.531 87.5456C179.531 87.7733 168.033 87.8872 153.803 87.8872C139.572 87.8872 128.074 87.7733 128.074 87.5456C128.074 87.3179 139.572 87.2041 153.803 87.2041C168.033 87.2041 179.531 87.3179 179.531 87.5456Z" fill="#263238"/>
    <path d="M179.531 96.084C179.531 96.3117 168.033 96.4255 153.803 96.4255C139.572 96.4255 128.074 96.3117 128.074 96.084C128.074 95.8563 139.572 95.7424 153.803 95.7424C168.033 95.7424 179.531 95.8563 179.531 96.084Z" fill="#263238"/>
    <path d="M155.741 104.622C155.741 104.85 149.593 104.964 141.852 104.964C134.224 104.964 127.963 104.85 127.963 104.622C127.963 104.394 134.11 104.281 141.852 104.281C149.593 104.281 155.741 104.394 155.741 104.622Z" fill="#263238"/>
    <path d="M182.263 127.277C189.996 127.277 196.265 121.008 196.265 113.274C196.265 105.541 189.996 99.2716 182.263 99.2716C174.529 99.2716 168.26 105.541 168.26 113.274C168.26 121.008 174.529 127.277 182.263 127.277Z" fill="#FF4883"/>
    <path d="M190.233 107.924C190.802 108.493 188.07 112.364 184.086 116.69C183.403 117.373 182.833 118.056 182.264 118.625L181.353 119.536L180.443 118.739C176.913 115.779 174.75 113.274 175.092 112.819C175.547 112.25 178.507 113.844 182.15 116.576L180.215 116.69C180.784 116.007 181.353 115.323 182.036 114.64C185.907 110.314 189.664 107.354 190.233 107.924Z" fill="#E0E0E0"/>
    <path d="M148.568 125.569C148.454 125.569 148.227 124.317 148.227 122.723C148.227 121.129 148.34 119.877 148.568 119.877C148.796 119.877 148.91 121.129 148.91 122.723C148.91 124.317 148.796 125.569 148.568 125.569Z" fill="black"/>
    <path d="M148.568 136.954C148.454 136.954 148.227 135.701 148.227 134.108C148.227 132.514 148.34 131.262 148.568 131.262C148.796 131.262 148.91 132.514 148.91 134.108C148.91 135.701 148.796 136.954 148.568 136.954Z" fill="black"/>
    <path d="M148.568 148.338C148.454 148.338 148.227 147.086 148.227 145.492C148.227 143.898 148.34 142.646 148.568 142.646C148.796 142.646 148.91 143.898 148.91 145.492C148.91 147.086 148.796 148.338 148.568 148.338Z" fill="black"/>
    <path d="M148.568 159.723C148.454 159.723 148.227 158.47 148.227 156.876C148.227 155.283 148.34 154.03 148.568 154.03C148.796 154.03 148.91 155.283 148.91 156.876C148.91 158.47 148.796 159.723 148.568 159.723Z" fill="black"/>
    <path d="M148.568 171.107C148.454 171.107 148.227 169.854 148.227 168.261C148.227 166.667 148.34 165.415 148.568 165.415C148.796 165.415 148.91 166.667 148.91 168.261C148.91 169.854 148.796 171.107 148.568 171.107Z" fill="black"/>
    <path d="M148.568 182.491C148.454 182.491 148.227 181.239 148.227 179.645C148.227 178.051 148.34 176.799 148.568 176.799C148.796 176.799 148.91 178.051 148.91 179.645C148.91 181.239 148.796 182.491 148.568 182.491Z" fill="black"/>
    <path d="M148.568 193.876C148.454 193.876 148.227 192.623 148.227 191.029C148.227 189.436 148.34 188.183 148.568 188.183C148.796 188.183 148.91 189.436 148.91 191.029C148.91 192.623 148.796 193.876 148.568 193.876Z" fill="black"/>
    <path d="M148.568 205.26C148.454 205.26 148.227 204.008 148.227 202.414C148.227 200.82 148.34 199.568 148.568 199.568C148.796 199.568 148.91 200.82 148.91 202.414C148.91 204.008 148.796 205.26 148.568 205.26Z" fill="black"/>
    <path d="M154.149 211.18C154.149 211.294 152.896 211.521 151.303 211.521C150.05 211.521 149.026 211.407 148.684 211.294H148.57V211.18C148.57 211.066 148.684 210.952 148.684 210.952C148.684 210.952 148.798 211.066 148.798 211.18L148.684 211.066C149.14 210.952 150.164 210.838 151.303 210.838C152.783 210.838 154.149 210.952 154.149 211.18Z" fill="black"/>
    <path d="M165.53 211.18C165.53 211.294 164.278 211.521 162.684 211.521C161.09 211.521 159.838 211.407 159.838 211.18C159.838 211.066 161.09 210.838 162.684 210.838C164.164 210.838 165.53 210.952 165.53 211.18Z" fill="black"/>
    <path d="M176.913 211.18C176.913 211.294 175.661 211.521 174.067 211.521C172.473 211.521 171.221 211.407 171.221 211.18C171.221 211.066 172.473 210.838 174.067 210.838C175.547 210.838 176.913 210.952 176.913 211.18Z" fill="black"/>
    <path d="M188.298 211.18C188.298 211.294 187.045 211.521 185.452 211.521C183.858 211.521 182.605 211.407 182.605 211.18C182.605 211.066 183.858 210.838 185.452 210.838C186.932 210.838 188.298 210.952 188.298 211.18Z" fill="black"/>
    <path d="M199.682 211.18C199.682 211.294 198.43 211.521 196.836 211.521C195.243 211.521 193.99 211.407 193.99 211.18C193.99 211.066 195.243 210.838 196.836 210.838C198.316 210.838 199.682 210.952 199.682 211.18Z" fill="black"/>
    <path d="M389.228 108.151C389.114 108.151 388.887 106.899 388.887 105.305C388.887 103.711 389.001 102.459 389.228 102.459C389.456 102.459 389.57 103.711 389.57 105.305C389.57 106.899 389.456 108.151 389.228 108.151Z" fill="black"/>
    <path d="M389.228 119.536C389.114 119.536 388.887 118.283 388.887 116.689C388.887 115.096 389.001 113.843 389.228 113.843C389.456 113.843 389.57 115.096 389.57 116.689C389.57 118.283 389.456 119.536 389.228 119.536Z" fill="black"/>
    <path d="M389.228 130.92C389.114 130.92 388.887 129.668 388.887 128.074C388.887 126.48 389.001 125.228 389.228 125.228C389.456 125.228 389.57 126.48 389.57 128.074C389.57 129.668 389.456 130.92 389.228 130.92Z" fill="black"/>
    <path d="M389.228 142.304C389.114 142.304 388.887 141.052 388.887 139.458C388.887 137.864 389.001 136.612 389.228 136.612C389.456 136.612 389.57 137.864 389.57 139.458C389.57 141.052 389.456 142.304 389.228 142.304Z" fill="black"/>
    <path d="M389.228 153.689C389.114 153.689 388.887 152.436 388.887 150.843C388.887 149.249 389.001 147.996 389.228 147.996C389.456 147.996 389.57 149.249 389.57 150.843C389.57 152.436 389.456 153.689 389.228 153.689Z" fill="black"/>
    <path d="M389.228 165.073C389.114 165.073 388.887 163.821 388.887 162.227C388.887 160.633 389.001 159.381 389.228 159.381C389.456 159.381 389.57 160.633 389.57 162.227C389.57 163.821 389.456 165.073 389.228 165.073Z" fill="black"/>
    <path d="M389.228 176.457C389.114 176.457 388.887 175.205 388.887 173.611C388.887 172.017 389.001 170.765 389.228 170.765C389.456 170.765 389.57 172.017 389.57 173.611C389.57 175.205 389.456 176.457 389.228 176.457Z" fill="black"/>
    <path d="M389.228 187.842C389.114 187.842 388.887 186.589 388.887 184.996C388.887 183.402 389.001 182.15 389.228 182.15C389.456 182.15 389.57 183.402 389.57 184.996C389.57 186.589 389.456 187.842 389.228 187.842Z" fill="black"/>
    <path d="M466.534 115.437C466.534 115.437 466.306 115.437 465.851 115.437C465.395 115.437 464.712 115.437 463.802 115.437C461.98 115.437 459.362 115.437 455.946 115.437C449.002 115.437 439.098 115.551 426.575 115.551C401.415 115.551 366.01 115.665 325.026 115.665H324.799L324.685 115.437C322.636 108.265 323.888 99.8406 328.556 93.4654C333.223 87.0902 341.306 82.9918 349.617 83.2195L349.275 83.6749C348.706 81.6257 348.364 79.235 348.478 76.8442C348.82 68.9891 353.26 61.3615 360.09 57.9462C366.807 54.4171 375.231 54.5309 381.607 58.0601L381.037 58.2878C384.68 49.408 392.422 42.9189 400.732 39.959C409.157 36.8852 418.378 37.3406 425.664 41.0974C433.064 44.8542 438.187 51.2295 441.147 57.9462C444.107 64.663 444.562 71.949 443.082 78.2104L442.854 77.8688C447.067 77.4135 451.165 78.0965 454.58 79.5765C458.109 81.0565 461.069 83.1056 463.346 85.4964C464.485 86.7486 465.395 88.0009 466.079 89.4809C466.762 90.847 467.217 92.327 467.558 93.6931C468.242 96.4253 468.469 99.0437 468.583 101.321C468.697 105.988 468.128 109.517 467.672 111.908C467.445 113.046 467.217 113.957 466.989 114.526C466.648 115.209 466.534 115.437 466.534 115.437Z" fill="#FF4883"/>
    <path d="M453.667 76.5026H449.227V50.091C449.227 43.7157 444.104 38.5928 437.729 38.5928C431.354 38.5928 426.231 43.7157 426.231 50.091V76.5026H421.791V50.091C421.791 41.325 428.963 34.2667 437.615 34.2667C446.381 34.2667 453.439 41.4389 453.439 50.091V76.5026H453.667Z" fill="#E0E0E0"/>
    <path d="M455.603 92.5547H419.97C417.807 92.5547 416.1 90.847 416.1 88.684V68.6475C416.1 66.4845 417.807 64.7769 419.97 64.7769H455.603C457.766 64.7769 459.474 66.4845 459.474 68.6475V88.7978C459.474 90.847 457.766 92.5547 455.603 92.5547Z" fill="#E0E0E0"/>
    <path d="M437.842 78.6656C435.793 78.6656 434.199 77.0718 434.199 75.0226C434.199 72.9734 435.793 71.3796 437.842 71.3796C439.891 71.3796 441.485 72.9734 441.485 75.0226C441.485 77.0718 439.778 78.6656 437.842 78.6656Z" fill="#455A64"/>
    <path d="M438.756 76.5027H436.82V84.0164H438.756V76.5027Z" fill="#455A64"/>
    <path d="M704.689 67.7375C714.252 58.7439 714.821 43.7166 705.827 34.1537C696.834 24.5909 681.806 24.0216 672.244 33.0153C664.047 40.6428 662.453 52.7102 667.804 62.0454L663.022 66.5991L664.161 74.5681L656.647 72.519L650.613 78.2111L651.752 86.1802L644.238 84.131L639.001 89.0262L639.684 93.9215L635.131 92.6692L632.057 95.5153L631.602 102.915L642.644 105.647L678.619 72.0636C687.157 75.8204 697.403 74.4543 704.689 67.7375ZM701.16 38.5936C703.778 41.3258 703.551 45.6519 700.818 48.2703C698.086 50.8887 693.76 50.661 691.142 47.9288C688.523 45.1965 688.751 40.8705 691.483 38.2521C694.215 35.6337 698.541 35.7475 701.16 38.5936Z" fill="#263238"/>
    <path d="M701.162 38.593C701.162 38.593 700.707 38.1376 699.796 37.5684C698.886 36.9992 697.406 36.43 695.47 36.6577C693.649 36.8854 691.372 38.0238 690.347 40.3007C689.209 42.4637 689.437 45.6513 691.372 47.7005C693.307 49.8635 696.495 50.205 698.658 49.2943C700.935 48.3835 702.301 46.2205 702.642 44.399C702.984 42.5775 702.529 40.9837 701.959 40.073C701.504 39.0484 701.049 38.593 701.162 38.593C701.162 38.593 701.276 38.7069 701.504 38.9345C701.732 39.1622 701.959 39.5038 702.301 39.9591C702.87 40.8699 703.439 42.4637 703.098 44.5129C702.87 46.4482 701.39 48.7251 698.999 49.8635C697.747 50.4327 696.381 50.5466 694.901 50.3189C693.421 50.0912 692.055 49.2943 691.03 48.1559C690.006 47.0174 689.323 45.5375 689.209 44.1713C688.981 42.6914 689.323 41.3253 690.006 40.073C691.258 37.6823 693.649 36.43 695.584 36.3161C697.633 36.2023 699.113 36.8854 700.024 37.4546C700.479 37.7961 700.821 38.0238 700.935 38.2515C701.049 38.3653 701.162 38.4792 701.162 38.593Z" fill="#263238"/>
    <path d="M704.689 67.7369C704.689 67.7369 704.575 67.8507 704.347 68.0784C704.12 68.3061 703.778 68.6476 703.323 68.9891C702.298 69.786 700.932 70.9245 698.769 71.9491C696.606 72.9737 693.76 73.8844 690.345 74.2259C686.929 74.4536 682.831 73.9982 678.733 72.2906H678.96C669.739 80.9427 657.33 92.5547 643.1 105.874L642.986 105.988H642.872C639.343 105.078 635.586 104.167 631.829 103.256H631.602V103.028C631.715 100.751 631.943 98.1331 632.057 95.6285V95.5147L632.171 95.4008C633.082 94.4901 634.106 93.5793 635.244 92.5547L635.131 92.2132H635.244C636.611 92.5547 638.204 93.0101 639.798 93.4655L639.457 93.807C639.229 92.327 639.001 90.6194 638.774 88.9117V88.7979L638.888 88.6841C640.481 87.2041 642.303 85.4964 644.124 83.7888L644.238 83.6749H644.352C646.743 84.358 649.247 85.0411 651.866 85.7241L651.524 86.0656C651.183 83.5611 650.727 80.8288 650.386 78.0966V77.9828L650.5 77.8689C650.955 77.4135 651.524 76.8443 652.093 76.389C653.573 75.0228 655.053 73.6567 656.533 72.2906L656.647 72.1767H656.761C659.265 72.8598 661.77 73.5429 664.275 74.2259L663.933 74.5675C663.592 71.8352 663.136 69.2168 662.795 66.5984V66.4846L662.909 66.3707C664.502 64.8908 666.096 63.297 667.69 61.817V62.1585C665.868 58.7432 664.73 55.1002 664.616 51.3434C664.502 49.5219 664.616 47.5866 664.958 45.8789C665.299 44.0574 665.868 42.3498 666.551 40.7559C669.398 34.153 675.09 29.3716 681.351 27.5501C687.499 25.6148 694.102 26.4117 699.111 28.9162C704.234 31.4208 707.877 35.633 710.04 39.8452C712.089 44.1713 712.772 48.6111 712.43 52.2541C712.089 56.011 710.95 59.0847 709.812 61.3616C709.698 61.7031 709.47 61.9308 709.357 62.1585C709.243 62.3862 709.015 62.6139 708.901 62.9554C708.56 63.4108 708.332 63.8662 707.99 64.3215C707.307 65.1185 706.852 65.8015 706.397 66.2569C705.941 66.7123 705.6 67.0538 705.258 67.3953C704.803 67.623 704.689 67.7369 704.689 67.7369C704.689 67.7369 704.803 67.623 705.031 67.3953C705.258 67.1676 705.6 66.7123 706.055 66.2569C706.511 65.8015 706.966 65.1185 707.649 64.3215C707.991 63.98 708.218 63.4108 708.56 62.9554C708.674 62.7277 708.901 62.5 709.015 62.1585C709.129 61.9308 709.243 61.5893 709.47 61.3616C710.609 59.0847 711.747 56.011 711.975 52.2541C712.317 48.6111 711.634 44.1713 709.584 39.959C707.421 35.7468 703.892 31.6485 698.769 29.2578C693.76 26.7532 687.385 26.0701 681.351 28.0055C675.317 29.9408 669.739 34.4946 666.893 40.9836C666.21 42.5774 665.641 44.2851 665.413 45.9927C665.071 47.7004 664.958 49.5219 665.071 51.3434C665.185 54.9864 666.324 58.6294 668.145 61.9308L668.259 62.1585L668.145 62.2724C666.551 63.7523 664.958 65.2323 663.364 66.8261L663.478 66.5984C663.819 69.2168 664.275 71.9491 664.616 74.5675L664.73 75.0228L664.275 74.909C661.77 74.2259 659.265 73.5429 656.761 72.8598L656.989 72.746C655.509 74.1121 654.029 75.4782 652.549 76.8443C651.979 77.2997 651.41 77.8689 650.955 78.3243L651.069 78.0966C651.41 80.8288 651.866 83.5611 652.207 86.0656L652.321 86.521L651.866 86.4072C649.247 85.7241 646.743 84.9272 644.352 84.358L644.58 84.2442C642.758 85.9518 641.051 87.5456 639.343 89.1394L639.457 88.9117C639.684 90.6194 639.912 92.327 640.14 93.807L640.254 94.2624L639.798 94.1485C638.204 93.6932 636.611 93.2378 635.244 92.8963L635.472 92.7824C634.448 93.807 633.423 94.7178 632.398 95.6285L632.512 95.4008C632.398 98.0192 632.171 100.524 632.057 102.801L631.829 102.459C635.7 103.484 639.457 104.394 642.872 105.305L642.644 105.419C656.989 92.0993 669.398 80.6012 678.619 71.9491L678.733 71.8352H678.847C682.831 73.6567 686.816 74.1121 690.231 73.8844C693.646 73.6567 696.492 72.746 698.655 71.7214C700.818 70.6968 702.298 69.6722 703.323 68.8753C703.778 68.5338 704.12 68.1922 704.347 67.9645C704.461 67.8507 704.689 67.7369 704.689 67.7369Z" fill="#263238"/>
    <path d="M703.894 65.0046C713.457 56.011 714.026 40.9836 705.033 31.4208C696.039 21.8579 681.012 21.2887 671.449 30.2824C663.252 37.9099 661.658 49.9773 667.009 59.3124L662.227 63.8662L663.366 71.8352L655.852 69.786L649.819 75.4782L650.957 83.4473L643.443 81.3981L638.206 86.2933L638.889 91.1886L634.336 89.9363L631.262 92.7824L630.807 100.182L641.849 102.914L677.824 69.3307C686.362 73.0875 696.608 71.7214 703.894 65.0046ZM700.365 35.8607C702.983 38.5929 702.756 42.919 700.023 45.5374C697.291 48.1558 692.965 47.9281 690.347 45.1959C687.728 42.4636 687.956 38.1376 690.688 35.5192C693.421 32.9008 697.747 33.1284 700.365 35.8607Z" fill="#E0E0E0"/>
    <path d="M700.364 35.8607C700.364 35.8607 699.908 35.4053 698.998 34.8361C698.087 34.2669 696.607 33.6977 694.671 33.9254C692.85 34.1531 690.573 35.2915 689.549 37.5684C688.41 39.7314 688.638 42.919 690.573 44.9682C692.508 47.1312 695.696 47.4727 697.859 46.562C700.136 45.6512 701.502 43.4882 701.844 41.6667C702.185 39.8452 701.73 38.2514 701.161 37.3407C700.705 36.3161 700.25 35.8607 700.364 35.8607C700.364 35.8607 700.477 35.9746 700.705 36.2022C700.933 36.4299 701.161 36.7715 701.502 37.2268C702.071 38.1376 702.641 39.7314 702.299 41.7806C702.071 43.7159 700.591 45.9928 698.201 47.1312C696.948 47.7004 695.582 47.8143 694.102 47.5866C692.622 47.3589 691.256 46.562 690.232 45.4236C689.207 44.2851 688.524 42.8052 688.41 41.439C688.182 39.9591 688.524 38.593 689.207 37.3407C690.459 34.95 692.85 33.6977 694.785 33.5838C696.835 33.47 698.314 34.1531 699.225 34.7223C699.681 35.0638 700.022 35.2915 700.136 35.5192C700.25 35.7469 700.364 35.8607 700.364 35.8607Z" fill="#263238"/>
    <path d="M703.894 65.0051C703.894 65.0051 703.78 65.119 703.553 65.3467C703.325 65.5743 702.983 65.9159 702.528 66.2574C701.503 67.0543 700.137 68.1927 697.974 69.2173C695.811 70.2419 692.965 71.1527 689.55 71.4942C686.135 71.7219 682.036 71.2665 677.938 69.5589H678.165C668.944 78.211 656.535 89.823 642.305 103.143L642.191 103.257H642.077C638.548 102.346 634.791 101.435 631.034 100.524H630.807V100.297C630.92 98.0197 631.148 95.4013 631.262 92.8968V92.7829L631.376 92.6691C632.287 91.7583 633.311 90.8476 634.45 89.823L634.563 89.7092H634.677C636.157 90.0507 637.637 90.5061 639.231 90.9614L638.889 91.303C638.662 89.823 638.434 88.1153 638.206 86.4077V86.2939L638.32 86.18C639.914 84.7 641.736 82.9924 643.557 81.2847L643.671 81.1709H643.785C646.175 81.854 648.68 82.537 651.298 83.2201L650.957 83.5616C650.615 81.0571 650.16 78.3248 649.819 75.5926V75.4787L649.932 75.3649C650.388 74.9095 650.957 74.3403 651.526 73.8849C653.006 72.5188 654.486 71.1527 655.966 69.7866L656.08 69.6727H656.194C658.698 70.3558 661.203 71.0388 663.707 71.7219L663.366 72.0634C663.024 69.3312 662.569 66.7128 662.227 64.0944V63.9805L662.341 63.8667C663.935 62.3867 665.529 60.7929 667.123 59.313V59.6545C665.301 56.2392 664.163 52.5962 664.049 48.8394C663.935 47.0179 664.049 45.0825 664.39 43.3749C664.732 41.5534 665.301 39.8457 665.984 38.2519C668.83 31.649 674.522 26.8676 680.784 25.0461C686.931 23.1107 693.534 23.9076 698.543 26.4122C703.666 28.9168 707.309 33.129 709.472 37.3412C711.522 41.6672 712.205 46.1071 711.863 49.7501C711.522 53.5069 710.383 56.5807 709.245 58.8576C709.131 59.1991 708.903 59.4268 708.789 59.6545C708.676 59.8822 708.448 60.1099 708.334 60.4514C707.992 60.9068 707.765 61.3621 707.423 61.8175C706.74 62.6144 706.285 63.2975 705.829 63.7528C705.374 64.2082 705.033 64.5498 704.691 64.8913C704.008 64.8913 703.894 65.0051 703.894 65.0051C703.894 65.0051 704.008 64.8913 704.236 64.6636C704.463 64.4359 704.805 63.9805 705.26 63.5252C705.716 63.0698 706.171 62.3867 706.854 61.5898C707.196 61.2483 707.423 60.6791 707.765 60.2237C707.879 59.996 708.106 59.7683 708.22 59.4268C708.334 59.1991 708.448 58.8576 708.676 58.6299C709.814 56.353 710.952 53.2793 711.18 49.5224C711.522 45.8794 710.839 41.4395 708.789 37.2273C706.626 33.0151 703.097 28.9168 697.974 26.526C692.965 24.0215 686.59 23.3384 680.556 25.2738C674.523 27.2091 668.944 31.7628 666.098 38.2519C665.415 39.8457 664.846 41.5534 664.618 43.261C664.277 44.9687 664.163 46.7902 664.277 48.6117C664.39 52.2547 665.529 55.8977 667.35 59.1991L667.464 59.4268L667.35 59.5406C665.757 61.0206 664.163 62.5006 662.569 64.0944L662.683 63.8667C663.024 66.4851 663.48 69.2173 663.821 71.8357L663.935 72.2911L663.48 72.1773C660.975 71.4942 658.471 70.8111 655.966 70.1281L656.194 70.0142C654.714 71.3804 653.234 72.7465 651.754 74.1126C651.185 74.568 650.615 75.1372 650.16 75.5926L650.274 75.3649C650.615 78.0971 651.071 80.8294 651.412 83.3339L651.526 83.7893L651.071 83.6755C648.452 82.9924 645.948 82.1955 643.557 81.6263L643.785 81.5124C641.963 83.2201 640.256 84.8139 638.548 86.4077L638.662 86.18C638.889 87.8877 639.117 89.5953 639.345 91.0753L639.459 91.5307L639.003 91.4168C637.41 90.9614 635.816 90.5061 634.45 90.1645L634.677 90.0507C633.653 91.0753 632.628 91.986 631.604 92.8968L631.717 92.6691C631.604 95.2875 631.376 97.792 631.262 100.069L631.034 99.7274C634.905 100.752 638.662 101.663 642.077 102.573L641.849 102.687C656.194 89.3676 668.603 77.8694 677.824 69.2173L677.938 69.1035H678.052C682.036 70.925 686.021 71.3804 689.436 71.1527C692.851 70.925 695.697 70.0142 697.86 68.9896C700.023 67.9651 701.503 66.9405 702.528 66.1436C702.983 65.802 703.325 65.4605 703.553 65.2328C703.666 65.119 703.894 65.0051 703.894 65.0051Z" fill="#263238"/>
    <path d="M701.617 63.1831C701.503 63.0693 702.983 61.9308 704.804 59.1986C705.715 57.8325 706.626 56.011 707.195 53.7341C707.878 51.4572 708.22 48.8388 707.878 45.8789C707.537 42.919 706.626 39.8452 704.804 36.8853C702.869 34.0392 700.251 31.3069 696.722 29.5993C695.014 28.6885 693.079 28.0055 691.143 27.6639C690.119 27.4363 689.094 27.4363 688.069 27.3224C687.045 27.3224 686.02 27.3224 684.996 27.4363C680.783 27.8916 676.685 29.827 673.384 32.7869C670.196 35.8607 667.919 39.8452 667.236 44.0574C667.008 45.082 667.008 46.1066 666.895 47.1312C666.895 48.1558 666.895 49.1804 667.008 50.205C667.236 52.2541 667.691 54.1895 668.488 55.8971C669.968 59.5401 672.473 62.3862 675.205 64.4354C677.937 66.4846 681.125 67.623 683.971 68.1922C686.817 68.6476 689.549 68.5337 691.826 68.0784C694.103 67.623 696.038 66.8261 697.405 66.0292C700.365 64.4354 701.617 63.0693 701.617 63.1831C701.617 63.1831 701.503 63.297 701.389 63.4108C701.161 63.6385 700.934 63.7523 700.592 64.0939C700.251 64.4354 699.909 64.7769 699.34 65.1184C698.771 65.46 698.201 65.9153 697.518 66.2569C696.038 67.1676 694.217 67.8507 691.826 68.4199C689.549 68.9891 686.703 69.103 683.743 68.6476C680.783 68.1922 677.596 67.0538 674.75 64.8908C671.904 62.7277 669.285 59.8816 667.805 56.1248C667.008 54.3033 666.439 52.2541 666.211 50.205C666.098 49.1804 666.098 48.1558 666.098 47.0173C666.211 45.9927 666.211 44.8543 666.439 43.8297C667.236 39.5037 669.399 35.4053 672.814 32.2177C676.23 29.1439 680.442 27.0947 684.768 26.6394C685.793 26.5255 686.931 26.5255 687.956 26.5255C688.98 26.6394 690.119 26.6394 691.143 26.867C693.192 27.2086 695.128 27.8916 696.949 28.8024C700.478 30.6239 703.211 33.3561 705.146 36.3161C707.081 39.276 707.992 42.5774 708.334 45.5374C708.675 48.4973 708.22 51.2295 707.537 53.5064C706.854 55.7833 705.943 57.6048 704.918 58.9709C704.463 59.654 704.007 60.2232 703.552 60.7924C703.211 61.2478 702.755 61.7031 702.414 62.0447C702.072 62.3862 701.844 62.6139 701.731 62.7277C701.731 63.0693 701.731 63.1831 701.617 63.1831Z" fill="#263238"/>
    <path d="M700.707 46.3343C700.707 46.3343 701.162 45.8789 701.845 44.7405C702.529 43.7159 703.212 41.8944 702.984 39.7314C702.87 38.5929 702.529 37.4545 701.845 36.316C701.162 35.2915 700.138 34.2669 698.772 33.5838C697.519 32.9007 695.926 32.5592 694.332 32.7869C692.738 32.9007 691.258 33.6976 690.006 34.8361C688.754 35.9745 687.957 37.4545 687.729 39.0483C687.387 40.6421 687.615 42.1221 688.184 43.4882C688.753 44.8543 689.664 45.8789 690.689 46.6758C691.713 47.4727 692.852 47.9281 693.99 48.1558C696.153 48.4973 697.975 47.9281 699.113 47.3589C700.138 46.7896 700.707 46.3343 700.707 46.3343C700.707 46.3343 700.593 46.4481 700.366 46.6758C700.138 46.9035 699.682 47.245 699.227 47.5866C698.089 48.2696 696.267 48.9527 693.99 48.6111C692.852 48.3835 691.6 48.0419 690.461 47.1312C689.323 46.3343 688.298 45.1958 687.729 43.7159C687.16 42.3498 686.818 40.6421 687.16 38.9344C687.501 37.2268 688.298 35.633 689.664 34.3807C691.03 33.1284 692.624 32.4454 694.332 32.2177C696.039 31.99 697.633 32.3315 698.999 33.1284C700.366 33.8115 701.504 34.9499 702.187 36.0884C702.87 37.2268 703.325 38.4791 703.439 39.7314C703.667 42.1221 702.87 43.9436 702.073 44.9682C701.732 45.5374 701.39 45.8789 701.162 46.1066C700.821 46.2204 700.707 46.3343 700.707 46.3343Z" fill="#263238"/>
    <path d="M639.116 101.548C639.003 101.435 647.085 93.6933 657.218 84.2443C667.35 74.7953 675.546 67.2816 675.66 67.3954C675.774 67.5093 667.691 75.2506 657.559 84.6996C647.427 94.1487 639.23 101.662 639.116 101.548Z" fill="#263238"/>
    <path d="M604.171 204.349C604.171 204.463 602.918 204.69 601.325 204.69C599.731 204.69 598.479 204.576 598.479 204.349C598.479 204.235 599.731 204.007 601.325 204.007C602.805 204.121 604.171 204.235 604.171 204.349Z" fill="black"/>
    <path d="M615.555 204.349C615.555 204.463 614.303 204.69 612.709 204.69C611.116 204.69 609.863 204.576 609.863 204.349C609.863 204.235 611.116 204.007 612.709 204.007C614.189 204.121 615.555 204.235 615.555 204.349Z" fill="black"/>
    <path d="M626.938 204.349C626.938 204.463 625.686 204.69 624.092 204.69C622.498 204.69 621.246 204.576 621.246 204.349C621.246 204.235 622.498 204.007 624.092 204.007C625.572 204.121 626.938 204.235 626.938 204.349Z" fill="black"/>
    <path d="M638.323 204.349C638.323 204.463 637.071 204.69 635.477 204.69C633.883 204.69 632.631 204.576 632.631 204.349C632.631 204.235 633.883 204.007 635.477 204.007C636.957 204.121 638.323 204.235 638.323 204.349Z" fill="black"/>
    <path d="M649.71 204.349C649.71 204.463 648.457 204.69 646.864 204.69C645.27 204.69 644.018 204.576 644.018 204.349C644.018 204.235 645.27 204.007 646.864 204.007C648.344 204.121 649.71 204.235 649.71 204.349Z" fill="black"/>
    <path d="M661.091 204.349C661.091 204.463 659.838 204.69 658.245 204.69C656.651 204.69 655.398 204.576 655.398 204.349C655.398 204.235 656.651 204.007 658.245 204.007C659.724 204.121 661.091 204.235 661.091 204.349Z" fill="black"/>
    <path d="M670.656 202.641C670.77 202.641 670.884 203.324 670.884 204.349V204.576H670.656C670.315 204.576 669.973 204.576 669.518 204.576C667.924 204.576 666.672 204.463 666.672 204.235C666.672 204.121 667.924 203.893 669.518 203.893C669.859 203.893 670.315 203.893 670.656 203.893L670.429 204.121C670.429 203.438 670.543 202.641 670.656 202.641Z" fill="black"/>
    <path d="M670.654 191.257C670.768 191.257 670.996 192.509 670.996 194.103C670.996 195.697 670.882 196.949 670.654 196.949C670.426 196.949 670.312 195.697 670.312 194.103C670.426 192.623 670.54 191.257 670.654 191.257Z" fill="black"/>
    <path d="M670.654 179.872C670.768 179.872 670.996 181.125 670.996 182.719C670.996 184.312 670.882 185.565 670.654 185.565C670.426 185.565 670.312 184.312 670.312 182.719C670.426 181.239 670.54 179.872 670.654 179.872Z" fill="black"/>
    <path d="M670.654 168.488C670.768 168.488 670.996 169.741 670.996 171.334C670.996 172.928 670.882 174.18 670.654 174.18C670.426 174.18 670.312 172.928 670.312 171.334C670.426 169.854 670.54 168.488 670.654 168.488Z" fill="black"/>
    <path d="M670.654 157.104C670.768 157.104 670.996 158.356 670.996 159.95C670.996 161.544 670.882 162.796 670.654 162.796C670.426 162.796 670.312 161.544 670.312 159.95C670.426 158.47 670.54 157.104 670.654 157.104Z" fill="black"/>
    <path d="M670.654 145.719C670.768 145.719 670.996 146.972 670.996 148.566C670.996 150.159 670.882 151.412 670.654 151.412C670.426 151.412 670.312 150.159 670.312 148.566C670.426 147.086 670.54 145.719 670.654 145.719Z" fill="black"/>
    <path d="M670.654 134.335C670.768 134.335 670.996 135.587 670.996 137.181C670.996 138.775 670.882 140.027 670.654 140.027C670.426 140.027 670.312 138.775 670.312 137.181C670.426 135.701 670.54 134.335 670.654 134.335Z" fill="black"/>
    <path d="M670.654 122.951C670.768 122.951 670.996 124.203 670.996 125.797C670.996 127.391 670.882 128.643 670.654 128.643C670.426 128.643 670.312 127.391 670.312 125.797C670.426 124.317 670.54 122.951 670.654 122.951Z" fill="black"/>
    <path d="M670.654 111.566C670.768 111.566 670.996 112.819 670.996 114.412C670.996 116.006 670.882 117.259 670.654 117.259C670.426 117.259 670.312 116.006 670.312 114.412C670.426 112.933 670.54 111.566 670.654 111.566Z" fill="black"/>
    <path d="M670.654 100.182C670.768 100.182 670.996 101.434 670.996 103.028C670.996 104.622 670.882 105.874 670.654 105.874C670.426 105.874 670.312 104.622 670.312 103.028C670.426 101.548 670.54 100.182 670.654 100.182Z" fill="black"/>
    <path d="M670.654 88.7977C670.768 88.7977 670.996 90.05 670.996 91.6438C670.996 93.2376 670.882 94.4899 670.654 94.4899C670.426 94.4899 670.312 93.2376 670.312 91.6438C670.426 90.1639 670.54 88.7977 670.654 88.7977Z" fill="black"/>
    <path d="M585.382 317.851C585.382 317.965 584.129 318.193 582.536 318.193C580.942 318.193 579.689 318.079 579.689 317.851C579.689 317.623 580.942 317.51 582.536 317.51C584.016 317.623 585.382 317.737 585.382 317.851Z" fill="black"/>
    <path d="M596.766 317.851C596.766 317.965 595.514 318.193 593.92 318.193C592.326 318.193 591.074 318.079 591.074 317.851C591.074 317.623 592.326 317.51 593.92 317.51C595.4 317.623 596.766 317.737 596.766 317.851Z" fill="black"/>
    <path d="M608.149 317.851C608.149 317.965 606.897 318.193 605.303 318.193C603.709 318.193 602.457 318.079 602.457 317.851C602.457 317.623 603.709 317.51 605.303 317.51C606.783 317.623 608.149 317.737 608.149 317.851Z" fill="black"/>
    <path d="M619.534 317.851C619.534 317.965 618.282 318.193 616.688 318.193C615.094 318.193 613.842 318.079 613.842 317.851C613.842 317.623 615.094 317.51 616.688 317.51C618.168 317.623 619.534 317.737 619.534 317.851Z" fill="black"/>
    <path d="M630.921 317.851C630.921 317.965 629.668 318.193 628.075 318.193C626.481 318.193 625.229 318.079 625.229 317.851C625.229 317.623 626.481 317.51 628.075 317.51C629.555 317.623 630.921 317.737 630.921 317.851Z" fill="black"/>
    <path d="M642.302 317.851C642.302 317.965 641.049 318.193 639.455 318.193C637.862 318.193 636.609 318.079 636.609 317.851C636.609 317.623 637.862 317.51 639.455 317.51C640.935 317.623 642.302 317.737 642.302 317.851Z" fill="black"/>
    <path d="M653.688 317.851C653.688 317.965 652.436 318.193 650.842 318.193C649.248 318.193 647.996 318.079 647.996 317.851C647.996 317.623 649.248 317.51 650.842 317.51C652.322 317.623 653.688 317.737 653.688 317.851Z" fill="black"/>
    <path d="M665.073 317.851C665.073 317.965 663.821 318.193 662.227 318.193C660.633 318.193 659.381 318.079 659.381 317.851C659.381 317.623 660.633 317.51 662.227 317.51C663.707 317.623 665.073 317.737 665.073 317.851Z" fill="black"/>
    <path d="M676.458 317.851C676.458 317.965 675.206 318.193 673.612 318.193C672.018 318.193 670.766 318.079 670.766 317.851C670.766 317.623 672.018 317.51 673.612 317.51C675.092 317.623 676.458 317.737 676.458 317.851Z" fill="black"/>
    <path d="M687.841 317.851C687.841 317.965 686.588 318.193 684.995 318.193C683.401 318.193 682.148 318.079 682.148 317.851C682.148 317.623 683.401 317.51 684.995 317.51C686.474 317.623 687.841 317.737 687.841 317.851Z" fill="black"/>
    <path d="M698.089 316.827C698.203 316.827 698.317 317.282 698.317 317.851V318.079H698.089C697.634 318.079 696.951 318.193 696.268 318.193C694.674 318.193 693.422 318.079 693.422 317.851C693.422 317.623 694.674 317.51 696.268 317.51C696.951 317.51 697.52 317.51 698.089 317.623L697.862 317.851C697.976 317.168 698.089 316.827 698.089 316.827Z" fill="black"/>
    <path d="M698.203 305.442C698.317 305.442 698.431 306.694 698.431 308.288C698.431 309.882 698.317 311.134 698.089 311.134C697.975 311.134 697.861 309.882 697.861 308.288C697.975 306.694 698.089 305.442 698.203 305.442Z" fill="black"/>
    <path d="M698.316 294.058C698.43 294.058 698.544 295.31 698.544 296.904C698.544 298.498 698.43 299.75 698.202 299.75C698.088 299.75 697.975 298.498 697.975 296.904C698.088 295.31 698.202 294.058 698.316 294.058Z" fill="black"/>
    <path d="M698.427 282.673C698.541 282.673 698.655 283.926 698.655 285.52C698.655 287.113 698.541 288.366 698.314 288.366C698.2 288.366 698.086 287.113 698.086 285.52C698.2 283.926 698.314 282.673 698.427 282.673Z" fill="black"/>
    <path d="M660.748 246.927L662.797 285.406C662.911 286.772 664.049 287.796 665.416 287.91L734.632 288.366C736.112 288.366 737.251 287.227 737.251 285.747L737.479 255.806C737.479 254.326 736.34 253.188 734.86 253.188H692.283C691.6 253.188 690.917 252.96 690.461 252.391L683.061 244.991C682.606 244.536 681.923 244.194 681.24 244.194L663.253 244.08C661.886 244.194 660.748 245.447 660.748 246.927Z" fill="#FF4883"/>
    <path d="M737.547 248.804L661.955 248.251L661.624 293.446L737.216 294L737.547 248.804Z" fill="#F5F5F5"/>
    <path d="M655.853 252.163L661.317 299.408C661.431 300.205 662.114 300.888 662.911 300.888L736.682 301.457C737.592 301.457 738.275 300.774 738.389 299.978L742.487 252.846C742.601 251.822 741.804 251.025 740.78 251.025L657.56 250.456C656.536 250.342 655.739 251.252 655.853 252.163Z" fill="#FF4883"/>
    <path d="M594.147 452.756H213.113C204.006 452.756 196.492 445.356 196.492 436.134V195.469C196.492 186.362 203.892 178.848 213.113 178.848H594.147C603.255 178.848 610.769 186.248 610.769 195.469V436.248C610.655 445.356 603.255 452.756 594.147 452.756Z" fill="#263238"/>
    <path d="M607.698 456.512H199.456C188.299 456.512 179.191 447.405 179.191 436.248V432.491H627.962V436.248C627.962 447.405 618.855 456.512 607.698 456.512Z" fill="#263238"/>
    <path d="M598.479 189.777H207.654V421.107H598.479V189.777Z" fill="#455A64"/>
    <path d="M362.824 432.491L368.289 441.371H446.727L451.85 432.491H362.824Z" fill="#455A64"/>
    <path d="M587.434 420.31H219.378C217.329 420.31 215.621 418.603 215.621 416.553V201.276C215.621 199.226 217.329 197.519 219.378 197.519H587.434C589.483 197.519 591.191 199.226 591.191 201.276V416.553C591.191 418.603 589.483 420.31 587.434 420.31Z" fill="#EBEBEB"/>
    <path d="M591.077 213.912H215.621V420.31H591.077V213.912Z" fill="#FAFAFA"/>
    <path d="M246.473 206.171C246.473 207.878 245.106 209.131 243.513 209.131C241.805 209.131 240.553 207.765 240.553 206.171C240.553 204.577 241.919 203.211 243.513 203.211C245.106 203.211 246.473 204.577 246.473 206.171Z" fill="#263238"/>
    <path d="M228.258 206.171C228.258 207.878 226.892 209.131 225.298 209.131C223.59 209.131 222.338 207.765 222.338 206.171C222.338 204.577 223.704 203.211 225.298 203.211C227.005 203.211 228.258 204.577 228.258 206.171Z" fill="#263238"/>
    <path d="M237.023 206.171C237.023 207.878 235.657 209.131 234.063 209.131C232.356 209.131 231.104 207.765 231.104 206.171C231.104 204.577 232.47 203.211 234.063 203.211C235.657 203.211 237.023 204.577 237.023 206.171Z" fill="#263238"/>
    <path d="M607.126 432.491C607.126 432.605 515.14 432.719 401.866 432.719C288.478 432.719 196.492 432.605 196.492 432.491C196.492 432.378 288.364 432.264 401.866 432.264C515.254 432.264 607.126 432.378 607.126 432.491Z" fill="#455A64"/>
    <path d="M327.418 317.851H241.693V323.543H327.418V317.851Z" fill="#E0E0E0"/>
    <path d="M438.072 238.274H352.348V243.967H438.072V238.274Z" fill="#E0E0E0"/>
    <path d="M565.463 259.677C565.463 259.791 517.762 259.905 458.905 259.905C400.048 259.905 352.348 259.791 352.348 259.677C352.348 259.563 400.048 259.449 458.905 259.449C517.762 259.335 565.463 259.449 565.463 259.677Z" fill="#E0E0E0"/>
    <path d="M565.463 272.2C565.463 272.314 517.762 272.428 458.905 272.428C400.048 272.428 352.348 272.314 352.348 272.2C352.348 272.086 400.048 271.972 458.905 271.972C517.762 271.858 565.463 271.972 565.463 272.2Z" fill="#E0E0E0"/>
    <path d="M565.463 284.723C565.463 284.837 517.762 284.95 458.905 284.95C400.048 284.95 352.348 284.837 352.348 284.723C352.348 284.609 400.048 284.495 458.905 284.495C517.762 284.381 565.463 284.495 565.463 284.723Z" fill="#E0E0E0"/>
    <path d="M565.463 297.245C565.463 297.359 517.762 297.473 458.905 297.473C400.048 297.473 352.348 297.359 352.348 297.245C352.348 297.131 400.048 297.018 458.905 297.018C517.762 296.904 565.463 297.018 565.463 297.245Z" fill="#E0E0E0"/>
    <path d="M565.463 309.654C565.463 309.768 517.762 309.882 458.905 309.882C400.048 309.882 352.348 309.768 352.348 309.654C352.348 309.54 400.048 309.427 458.905 309.427C517.762 309.427 565.463 309.54 565.463 309.654Z" fill="#E0E0E0"/>
    <path d="M435.571 322.177C435.571 322.291 416.9 322.405 394.018 322.405C371.021 322.405 352.465 322.291 352.465 322.177C352.465 322.063 371.135 321.949 394.018 321.949C416.9 321.949 435.571 322.063 435.571 322.177Z" fill="#E0E0E0"/>
    <path d="M563.984 346.54C563.984 346.653 532.678 346.767 493.971 346.767C455.264 346.767 423.957 346.653 423.957 346.54C423.957 346.426 455.264 346.312 493.971 346.312C532.564 346.198 563.984 346.426 563.984 346.54Z" fill="#E0E0E0"/>
    <path d="M563.984 359.859C563.984 359.973 532.678 360.087 493.971 360.087C455.264 360.087 423.957 359.973 423.957 359.859C423.957 359.745 455.264 359.631 493.971 359.631C532.564 359.518 563.984 359.631 563.984 359.859Z" fill="#E0E0E0"/>
    <path d="M563.984 373.065C563.984 373.179 532.678 373.293 493.971 373.293C455.264 373.293 423.957 373.179 423.957 373.065C423.957 372.951 455.264 372.837 493.971 372.837C532.564 372.837 563.984 372.951 563.984 373.065Z" fill="#E0E0E0"/>
    <path d="M563.984 386.385C563.984 386.499 532.678 386.612 493.971 386.612C455.264 386.612 423.957 386.499 423.957 386.385C423.957 386.271 455.264 386.157 493.971 386.157C532.564 386.157 563.984 386.271 563.984 386.385Z" fill="#E0E0E0"/>
    <path d="M327.643 345.287C327.643 345.401 308.973 345.515 285.863 345.515C262.752 345.515 244.082 345.401 244.082 345.287C244.082 345.173 262.752 345.06 285.863 345.06C308.859 344.946 327.643 345.06 327.643 345.287Z" fill="#E0E0E0"/>
    <path d="M327.643 355.647C327.643 355.761 308.973 355.875 285.863 355.875C262.752 355.875 244.082 355.761 244.082 355.647C244.082 355.533 262.752 355.419 285.863 355.419C308.859 355.419 327.643 355.533 327.643 355.647Z" fill="#E0E0E0"/>
    <path d="M327.643 366.121C327.643 366.234 308.973 366.348 285.863 366.348C262.752 366.348 244.082 366.234 244.082 366.121C244.082 366.007 262.752 365.893 285.863 365.893C308.859 365.893 327.643 366.007 327.643 366.121Z" fill="#E0E0E0"/>
    <path d="M327.643 376.594C327.643 376.708 308.973 376.822 285.863 376.822C262.752 376.822 244.082 376.708 244.082 376.594C244.082 376.48 262.752 376.366 285.863 376.366C308.859 376.253 327.643 376.366 327.643 376.594Z" fill="#E0E0E0"/>
    <path d="M327.643 386.954C327.643 387.068 308.973 387.182 285.863 387.182C262.752 387.182 244.082 387.068 244.082 386.954C244.082 386.84 262.752 386.726 285.863 386.726C308.859 386.726 327.643 386.84 327.643 386.954Z" fill="#E0E0E0"/>
    <path d="M413.14 340.164H352.348V399.021H413.14V340.164Z" fill="#F5F5F5"/>
    <path d="M357.012 394.012L373.861 363.73L387.636 383.083L395.946 372.724L408.355 394.012H357.012Z" fill="#EBEBEB"/>
    <path d="M393.443 357.81C393.443 360.201 391.508 362.136 389.117 362.136C386.726 362.136 384.791 360.201 384.791 357.81C384.791 355.419 386.726 353.484 389.117 353.484C391.508 353.484 393.443 355.419 393.443 357.81Z" fill="#EBEBEB"/>
    <path d="M408.358 394.126C408.358 394.126 408.358 394.012 408.358 393.898C408.358 393.671 408.358 393.443 408.358 393.215C408.358 392.646 408.358 391.735 408.358 390.597C408.358 388.32 408.358 384.905 408.244 380.579C408.244 372.04 408.13 359.745 408.13 345.06L408.358 345.287C393.444 345.287 375.799 345.287 357.014 345.287C356.901 345.401 357.584 344.718 357.242 345.06V345.173V345.401V345.856V346.653V348.361C357.242 349.499 357.242 350.524 357.242 351.662C357.242 353.826 357.242 356.102 357.242 358.265C357.242 362.591 357.242 366.804 357.242 370.902C357.242 379.099 357.242 386.954 357.242 394.126L357.014 393.898C372.383 393.898 385.134 394.012 394.127 394.012C398.567 394.012 402.21 394.012 404.601 394.126C405.853 394.126 406.764 394.126 407.333 394.126C407.675 394.126 407.902 394.126 408.016 394.126C408.358 394.126 408.358 394.126 408.358 394.126C408.358 394.126 408.244 394.126 408.13 394.126C407.902 394.126 407.675 394.126 407.447 394.126C406.764 394.126 405.853 394.126 404.715 394.126C402.324 394.126 398.795 394.126 394.241 394.24C385.248 394.24 372.383 394.354 356.901 394.354H356.673V394.126C356.673 386.954 356.673 379.213 356.673 370.902C356.673 366.804 356.673 362.591 356.673 358.265C356.673 356.102 356.673 353.939 356.673 351.662C356.673 350.524 356.673 349.499 356.673 348.361V346.653V345.856V345.401V345.173V345.06C356.445 345.287 357.014 344.718 357.014 344.718C375.912 344.718 393.558 344.718 408.358 344.718H408.586V344.946C408.586 359.745 408.472 372.04 408.472 380.579C408.472 384.791 408.472 388.206 408.358 390.483C408.358 391.622 408.358 392.418 408.358 393.101C408.358 393.329 408.358 393.557 408.358 393.785C408.472 394.012 408.358 394.126 408.358 394.126Z" fill="#EBEBEB"/>
    <path d="M325.71 228.484H243.287V308.288H325.71V228.484Z" fill="#F5F5F5"/>
    <path d="M249.664 301.458L272.547 260.36L291.217 286.658L302.487 272.655L319.336 301.458H249.664Z" fill="#E0E0E0"/>
    <path d="M299.07 252.391C299.07 255.693 296.452 258.311 293.15 258.311C289.849 258.311 287.23 255.693 287.23 252.391C287.23 249.09 289.849 246.471 293.15 246.471C296.452 246.471 299.07 249.09 299.07 252.391Z" fill="#E0E0E0"/>
    <path d="M319.337 301.685C319.337 301.685 319.337 301.571 319.337 301.344C319.337 301.116 319.337 300.775 319.337 300.433C319.337 299.636 319.337 298.384 319.337 296.79C319.337 293.602 319.337 289.049 319.223 283.243C319.223 271.631 319.109 255.009 318.996 235.087L319.337 235.428C299.187 235.428 275.28 235.428 249.665 235.428C249.551 235.542 250.348 234.745 250.006 235.087V235.201V235.315V235.656V236.225V237.364V239.641C250.006 241.121 250.006 242.601 250.006 244.194C250.006 247.154 250.006 250.114 250.006 253.074C250.006 258.88 250.006 264.686 250.006 270.264C250.006 281.421 250.006 292.009 250.006 301.685L249.665 301.344C270.498 301.458 287.802 301.458 299.984 301.571C306.017 301.571 310.913 301.685 314.214 301.685C315.808 301.685 317.06 301.685 317.971 301.685C318.426 301.685 318.654 301.685 318.996 301.685C319.223 301.685 319.337 301.685 319.337 301.685C319.337 301.685 319.223 301.685 318.996 301.685C318.768 301.685 318.426 301.685 318.085 301.685C317.174 301.685 315.922 301.685 314.328 301.685C311.027 301.685 306.245 301.685 300.211 301.799C287.916 301.799 270.498 301.913 249.665 302.027H249.323V301.685C249.323 292.009 249.323 281.421 249.323 270.264C249.323 264.686 249.323 258.88 249.323 253.074C249.323 250.114 249.323 247.154 249.323 244.194C249.323 242.714 249.323 241.234 249.323 239.641V237.364V236.225V235.656V235.315V235.201V235.087C248.982 235.428 249.779 234.631 249.779 234.631C275.394 234.631 299.301 234.631 319.451 234.631H319.792V234.973C319.679 255.009 319.679 271.631 319.565 283.356C319.565 289.162 319.451 293.716 319.451 296.79C319.451 298.27 319.451 299.522 319.451 300.319C319.451 300.661 319.451 301.002 319.451 301.23C319.451 301.571 319.337 301.685 319.337 301.685Z" fill="#E0E0E0"/>
    <path d="M336.864 258.88L340.849 267.077L349.956 268.443L343.467 274.818L344.947 283.926L336.864 279.6L328.667 283.926L330.261 274.818L323.658 268.443L332.766 267.077L336.864 258.88Z" fill="#FF4883"/>
    <path d="M365.554 230.078L369.538 238.388L378.646 239.755L372.156 246.13L373.636 255.237L365.554 250.911L357.357 255.237L358.951 246.13L352.348 239.755L361.455 238.388L365.554 230.078Z" fill="#FF4883"/>
    <path d="M403.805 218.921L407.903 227.118L417.011 228.484L410.408 234.859L412.002 243.967L403.805 239.641L395.722 243.967L397.316 234.859L390.713 228.484L399.82 227.118L403.805 218.921Z" fill="#FF4883"/>
    <path d="M443.536 230.419L447.634 238.616L456.742 239.982L450.139 246.357L451.733 255.465L443.536 251.139L435.339 255.465L436.933 246.357L430.33 239.982L439.438 238.616L443.536 230.419Z" fill="#FF4883"/>
    <path d="M470.858 257.742L474.957 266.052L484.064 267.305L477.461 273.794L479.055 282.787L470.858 278.575L462.775 282.787L464.255 273.794L457.652 267.305L466.874 266.052L470.858 257.742Z" fill="#FF4883"/>
    <path d="M480.764 297.473L484.862 305.67L493.97 307.036L487.367 313.411L488.961 322.519L480.764 318.193L472.681 322.519L474.275 313.411L467.672 307.036L476.779 305.67L480.764 297.473Z" fill="#FF4883"/>
    <path d="M471.2 336.863L475.185 345.06L484.292 346.426L477.803 352.801L479.283 361.908L471.2 357.696L463.003 361.908L464.597 352.801L457.994 346.426L467.102 345.06L471.2 336.863Z" fill="#FF4883"/>
    <path d="M442.057 364.185L446.155 372.496L455.263 373.748L448.66 380.237L450.254 389.231L442.057 385.019L433.974 389.231L435.568 380.237L428.965 373.748L438.072 372.496L442.057 364.185Z" fill="#FF4883"/>
    <path d="M403.122 375.456L407.106 383.766L416.214 385.019L409.725 391.508L411.205 400.501L403.122 396.289L394.925 400.501L396.519 391.508L389.916 385.019L399.023 383.766L403.122 375.456Z" fill="#FF4883"/>
    <path d="M365.781 364.185L369.88 372.496L378.987 373.748L372.384 380.237L373.978 389.345L365.781 385.019L357.699 389.345L359.179 380.237L352.689 373.748L361.797 372.496L365.781 364.185Z" fill="#FF4883"/>
    <path d="M336.296 336.18L340.394 344.377L349.502 345.743L342.899 352.118L344.492 361.226L336.296 356.9L328.213 361.226L329.693 352.118L323.09 345.743L332.197 344.377L336.296 336.18Z" fill="#FF4883"/>
    <path d="M326.391 297.473L330.49 305.784L339.597 307.036L332.994 313.525L334.588 322.519L326.391 318.307L318.195 322.519L319.788 313.525L313.186 307.036L322.293 305.784L326.391 297.473Z" fill="#FF4883"/>
    <path d="M431.926 325.82H423.957V282.446C423.957 272.2 415.646 263.889 405.401 263.889C395.155 263.889 386.844 272.2 386.844 282.446V325.82H378.875V282.446C378.875 267.874 390.715 255.92 405.401 255.92C419.973 255.92 431.926 267.76 431.926 282.446V325.82Z" fill="#263238"/>
    <path d="M434.543 352.346H376.369C372.726 352.346 369.766 349.386 369.766 345.743V313.07C369.766 309.427 372.726 306.467 376.369 306.467H434.543C438.186 306.467 441.145 309.427 441.145 313.07V345.629C441.145 349.386 438.186 352.346 434.543 352.346Z" fill="#FF4883"/>
    <path d="M411.432 323.429C411.432 326.731 408.813 329.349 405.512 329.349C402.21 329.349 399.592 326.731 399.592 323.429C399.592 320.128 402.21 317.509 405.512 317.509C408.813 317.509 411.432 320.128 411.432 323.429Z" fill="#263238"/>
    <path d="M407.104 325.82H403.803V338.115H407.104V325.82Z" fill="#263238"/>
    <path d="M373.634 347.906C373.521 347.906 373.293 340.278 373.293 330.829C373.293 321.38 373.407 313.753 373.634 313.753C373.748 313.753 373.976 321.38 373.976 330.829C373.862 340.278 373.748 347.906 373.634 347.906Z" fill="#FAFAFA"/>
    <path d="M400.846 331.057C400.846 331.057 400.618 330.943 400.163 330.715C399.707 330.374 399.138 329.919 398.569 329.122C397.431 327.642 396.406 325.023 397.089 322.177C397.772 319.331 399.935 317.396 401.529 316.599C402.326 316.144 403.123 315.916 403.578 315.916C404.033 315.802 404.375 315.802 404.375 315.916C404.375 316.03 403.237 316.144 401.643 317.054C400.163 317.965 398.227 319.787 397.544 322.405C396.975 325.023 397.772 327.528 398.797 329.008C399.935 330.374 400.846 330.943 400.846 331.057Z" fill="#FAFAFA"/>
    <path d="M154.369 286.202C153.458 288.707 153.686 291.553 154.597 294.171C155.393 296.79 156.873 299.067 158.24 301.457C160.061 296.904 161.769 292.236 163.135 287.568C163.362 286.544 163.59 285.291 162.907 284.495C162.338 283.925 161.427 283.812 160.63 283.812C158.24 283.925 155.849 284.95 154.141 286.544" fill="#263238"/>
    <path d="M53.9588 413.821L35.4023 456.398H61.0171L79.2321 413.479L53.9588 413.821Z" fill="#263238"/>
    <path d="M164.728 455.943C189.887 447.632 172.583 414.39 172.583 414.39L62.7238 424.75C53.9579 424.636 46.6719 431.808 46.6719 440.688C46.6719 449.454 53.7302 456.626 62.61 456.626L164.728 455.943Z" fill="#455A64"/>
    <path d="M189.773 456.512C214.25 448.202 198.084 414.39 198.084 414.39L91.0712 424.522C80.5976 424.636 75.4746 429.759 75.4746 440.347C75.4746 449.113 78.7761 456.512 90.9573 456.285L189.773 456.512Z" fill="#455A64"/>
    <path d="M165.637 419.969C165.637 419.969 165.523 419.969 165.296 419.969C165.068 419.969 164.726 419.969 164.385 419.969C163.588 419.969 162.45 420.082 160.97 420.082C158.01 420.196 153.684 420.424 148.333 420.652C137.632 421.221 122.946 422.018 106.78 422.928C104.731 423.042 102.796 423.156 100.746 423.27C98.8111 423.27 96.7619 423.384 94.9404 423.498C93.0051 423.612 91.1836 423.725 89.3621 423.953C87.5406 424.181 85.7191 424.408 84.0115 425.091C82.3038 425.775 80.8239 426.685 79.5716 427.938C78.3193 429.19 77.4086 430.67 76.8393 432.264C76.2701 433.857 75.9286 435.451 75.7009 436.931C75.4732 438.411 75.3594 439.891 75.3594 441.371C75.3594 444.217 75.8147 446.722 76.7255 448.771C77.6362 450.82 78.8885 452.3 80.027 453.325C81.1654 454.349 82.3038 454.805 83.1007 455.032C83.8976 455.26 83.8976 455.146 83.1007 454.918C82.4177 454.691 81.2792 454.122 80.1408 453.097C79.0024 452.072 77.7501 450.592 76.9532 448.657C76.0424 446.608 75.5871 444.103 75.7009 441.371C75.7009 440.005 75.8147 438.525 76.0424 437.045C76.2701 435.565 76.6117 433.971 77.1809 432.491C77.7501 431.011 78.547 429.531 79.7993 428.393C80.9377 427.254 82.4177 426.344 84.1253 425.661C85.7191 424.978 87.5406 424.864 89.3621 424.636C91.1836 424.408 93.1189 424.295 94.9404 424.181C96.8758 424.067 98.8111 423.953 100.746 423.953C102.682 423.953 104.731 423.725 106.78 423.612C122.946 422.701 137.632 421.79 148.333 421.221C153.57 420.879 157.896 420.652 160.97 420.424C162.45 420.31 163.588 420.196 164.385 420.196C164.726 420.196 165.068 420.082 165.296 420.082C165.523 419.969 165.637 419.969 165.637 419.969Z" fill="#263238"/>
    <path d="M189.772 430.442C189.772 430.442 189.43 430.67 188.861 430.897C188.292 431.125 187.381 431.353 186.242 431.467C184.079 431.694 180.664 430.897 178.16 428.393C175.655 425.888 175.086 422.473 175.313 420.31C175.427 419.172 175.655 418.261 175.883 417.692C176.11 417.122 176.338 416.781 176.338 416.781C176.452 416.781 175.769 418.033 175.655 420.196C175.541 422.359 176.224 425.547 178.501 427.938C180.778 430.328 183.966 431.011 186.129 431.011C188.519 431.011 189.772 430.328 189.772 430.442Z" fill="#263238"/>
    <path d="M135.357 363.161L125.111 397.883L87.543 401.981V408.584L142.757 409.381L150.271 364.071L135.357 363.161Z" fill="#FFBE9D"/>
    <path d="M184.309 326.844C191.026 326.844 209.013 330.26 210.607 342.441C212.087 353.484 214.136 365.893 214.136 365.893L190.343 366.576L198.425 368.739L201.841 420.082L140.251 417.919L143.553 391.507L146.285 365.096L132.852 363.957C132.852 363.957 137.405 340.961 145.488 333.903C145.488 333.903 152.888 327.414 163.248 326.731C173.721 326.161 184.309 326.844 184.309 326.844Z" fill="#FF4883"/>
    <path d="M148.675 348.019C148.789 348.019 147.878 357.354 146.626 368.739C145.374 380.123 144.121 389.458 144.008 389.458C143.894 389.458 144.805 380.123 146.057 368.739C147.309 357.354 148.561 348.019 148.675 348.019Z" fill="#263238"/>
    <path d="M186.129 326.958C186.129 326.958 186.129 327.072 186.243 327.414C186.243 327.641 186.243 328.097 186.357 328.666C186.357 329.69 186.243 331.398 185.674 333.22C185.105 335.041 184.08 337.318 182.145 339.139C181.234 340.05 179.982 340.847 178.616 341.302C177.25 341.758 175.656 341.986 174.176 341.986C172.582 341.986 171.102 341.986 169.622 341.644C168.142 341.416 166.776 340.847 165.751 340.05C163.588 338.456 162.564 336.18 161.994 334.244C161.539 332.309 161.425 330.715 161.539 329.69C161.539 329.121 161.653 328.78 161.653 328.438C161.653 328.211 161.767 327.983 161.767 327.983C161.767 327.983 161.767 328.552 161.767 329.69C161.767 330.715 161.881 332.309 162.45 334.13C162.905 335.952 164.044 338.115 166.093 339.595C167.117 340.392 168.37 340.847 169.85 341.075C171.216 341.303 172.696 341.416 174.29 341.416C175.77 341.416 177.25 341.189 178.616 340.733C179.982 340.278 181.12 339.481 182.031 338.684C183.966 336.976 184.877 334.813 185.56 332.992C186.243 331.17 186.357 329.577 186.357 328.552C186.129 327.527 186.129 326.958 186.129 326.958Z" fill="#263238"/>
    <g opacity="0.2">
        <g opacity="0.2">
            <g opacity="0.2">
                <path opacity="0.2" d="M189.433 348.019C187.157 358.948 184.197 370.105 181.92 381.034C181.464 383.311 180.895 385.701 179.529 387.637C178.618 388.775 177.48 389.686 176.228 390.597C171.788 394.012 167.006 397.086 161.77 399.021C169.397 398.338 176.911 397.086 184.311 395.037C185.563 394.695 186.929 394.354 187.726 393.329C188.409 392.418 188.637 391.28 188.75 390.141C190.458 376.252 189.889 362.136 189.433 348.019Z" fill="black"/>
            </g>
        </g>
    </g>
    <path d="M214.591 366.12C214.591 366.12 213.908 366.234 212.77 366.234C211.517 366.234 209.923 366.348 207.874 366.462C203.776 366.576 198.084 366.69 191.822 366.803C191.139 366.803 190.456 366.803 189.773 366.803H189.546V366.576C189.318 360.77 189.432 355.533 189.546 351.776C189.659 349.955 189.659 348.361 189.773 347.336C189.887 346.312 189.887 345.742 189.887 345.742C189.887 345.742 189.887 346.312 189.887 347.336C189.887 348.475 189.887 349.955 189.887 351.776C189.887 355.533 189.773 360.656 190.115 366.462L189.887 366.234C190.57 366.234 191.253 366.234 191.936 366.234C198.198 366.12 203.89 366.007 207.988 366.007C210.037 366.007 211.631 366.007 212.883 366.007C214.022 366.007 214.591 366.007 214.591 366.12Z" fill="#263238"/>
    <path d="M40.4123 368.625L61.4734 409.836H127.73L124.998 404.486L105.758 403.916L90.1619 369.08C89.1374 366.917 87.0882 365.551 84.6975 365.551H42.3477C40.7539 365.551 39.7293 367.145 40.4123 368.625Z" fill="#D8ECFF"/>
    <path d="M71.0339 389.572C72.4171 389.572 73.5384 388.451 73.5384 387.067C73.5384 385.684 72.4171 384.563 71.0339 384.563C69.6506 384.563 68.5293 385.684 68.5293 387.067C68.5293 388.451 69.6506 389.572 71.0339 389.572Z" fill="#263238"/>
    <path d="M186.472 295.765L184.081 329.349C183.74 334.813 179.186 339.14 173.608 339.14C167.574 339.14 162.792 334.017 163.134 327.983C163.362 324.795 163.589 322.177 163.589 322.177C163.589 322.177 155.506 320.925 155.393 312.728C155.393 308.857 155.848 301.344 156.417 294.171C157.1 285.861 164.045 279.486 172.355 279.486C180.894 279.941 187.269 287.227 186.472 295.765Z" fill="#FFBE9D"/>
    <path d="M163.59 322.518C163.59 322.518 168.713 322.974 174.177 319.559C174.177 319.559 171.673 325.365 163.59 324.682V322.518Z" fill="#EB996E"/>
    <path d="M158.926 299.408C158.926 299.977 159.381 300.547 160.064 300.547C160.747 300.547 161.203 300.091 161.317 299.522C161.317 298.953 160.861 298.384 160.178 298.384C159.495 298.384 159.04 298.839 158.926 299.408Z" fill="#263238"/>
    <path d="M158.243 297.814C158.356 297.928 159.267 297.359 160.519 297.359C161.772 297.359 162.682 298.042 162.796 297.814C162.91 297.701 162.682 297.473 162.341 297.131C161.999 296.79 161.316 296.562 160.519 296.562C159.722 296.562 159.039 296.904 158.698 297.131C158.356 297.473 158.129 297.701 158.243 297.814Z" fill="#263238"/>
    <path d="M170.768 299.75C170.768 300.319 171.223 300.888 171.906 300.888C172.589 300.888 173.044 300.433 173.158 299.864C173.158 299.294 172.703 298.725 172.02 298.725C171.337 298.725 170.768 299.18 170.768 299.75Z" fill="#263238"/>
    <path d="M170.537 298.042C170.651 298.156 171.562 297.587 172.814 297.587C174.067 297.587 174.977 298.27 175.091 298.042C175.205 297.928 174.977 297.701 174.636 297.359C174.294 297.017 173.611 296.79 172.814 296.79C172.017 296.79 171.334 297.131 170.993 297.359C170.651 297.701 170.424 298.042 170.537 298.042Z" fill="#263238"/>
    <path d="M165.986 307.377C165.986 307.263 165.189 307.15 163.936 307.036C163.595 307.036 163.367 306.922 163.253 306.694C163.14 306.467 163.367 306.125 163.481 305.784C163.823 304.987 164.05 304.19 164.392 303.393C165.758 299.978 166.669 297.131 166.555 297.018C166.441 297.018 165.189 299.75 163.936 303.165C163.595 303.962 163.367 304.873 163.026 305.556C162.912 305.897 162.684 306.353 162.912 306.808C163.026 307.036 163.253 307.263 163.481 307.263C163.709 307.377 163.823 307.377 164.05 307.377C165.189 307.377 165.986 307.377 165.986 307.377Z" fill="#263238"/>
    <path d="M169.627 308.174C169.399 308.174 169.399 309.54 168.261 310.451C167.123 311.362 165.643 311.248 165.643 311.476C165.643 311.589 165.984 311.703 166.553 311.703C167.123 311.703 168.033 311.476 168.716 310.906C169.399 310.337 169.741 309.54 169.741 308.971C169.969 308.516 169.741 308.174 169.627 308.174Z" fill="#263238"/>
    <path d="M170.193 293.147C170.307 293.488 171.559 293.375 173.039 293.488C174.519 293.602 175.658 294.058 175.886 293.716C175.999 293.602 175.772 293.261 175.316 292.919C174.861 292.578 174.064 292.236 173.153 292.236C172.243 292.122 171.446 292.236 170.876 292.464C170.421 292.692 170.193 293.033 170.193 293.147Z" fill="#263238"/>
    <path d="M158.697 294.172C158.925 294.399 159.722 294.172 160.86 294.172C161.885 294.172 162.796 294.399 163.023 294.058C163.137 293.944 163.023 293.602 162.568 293.375C162.226 293.147 161.543 292.919 160.86 292.919C160.177 292.919 159.494 293.147 159.153 293.489C158.697 293.716 158.583 294.058 158.697 294.172Z" fill="#263238"/>
    <path d="M183.741 302.368C183.855 302.254 189.319 300.661 189.206 306.239C188.978 311.817 183.513 310.451 183.513 310.337C183.4 310.11 183.741 302.368 183.741 302.368Z" fill="#FFBE9D"/>
    <path d="M185.219 308.288C185.219 308.288 185.333 308.402 185.446 308.402C185.56 308.516 185.902 308.516 186.13 308.402C186.699 308.174 187.268 307.264 187.268 306.239C187.268 305.784 187.154 305.214 187.04 304.873C186.926 304.417 186.585 304.19 186.357 304.076C186.016 303.962 185.902 304.19 185.788 304.304C185.674 304.417 185.788 304.531 185.674 304.531C185.674 304.531 185.56 304.417 185.56 304.19C185.56 304.076 185.674 303.962 185.788 303.848C185.902 303.734 186.129 303.734 186.357 303.734C186.813 303.734 187.154 304.19 187.382 304.645C187.609 305.101 187.723 305.67 187.723 306.239C187.609 307.377 187.04 308.402 186.243 308.63C185.902 308.744 185.56 308.63 185.333 308.402C185.219 308.402 185.219 308.288 185.219 308.288Z" fill="#EB996E"/>
    <path d="M134.673 409.95H53.7305V413.935H134.673V409.95Z" fill="#263238"/>
    <path d="M109.857 411.885L134.448 456.512H156.533L134.789 413.935L109.857 411.885Z" fill="#263238"/>
    <path d="M134.787 413.935C134.787 414.049 116.686 414.276 94.2587 414.39C71.8316 414.504 53.7305 414.504 53.7305 414.276C53.7305 414.163 71.8316 413.935 94.2587 413.821C116.572 413.707 134.787 413.707 134.787 413.935Z" fill="#455A64"/>
    <path d="M154.141 290.528C155.621 291.098 157.328 290.984 158.694 290.187C158.125 290.642 158.353 291.667 158.922 292.122C159.491 292.578 160.288 292.577 161.085 292.577C165.07 292.464 169.054 290.756 171.9 287.91C171.9 289.276 173.039 290.528 174.405 290.984C175.771 291.439 177.251 291.325 178.617 290.984C178.275 293.033 177.934 295.196 178.389 297.245C178.845 299.294 180.438 301.23 182.488 301.571C182.943 302.596 182.715 303.734 182.715 304.873C182.829 306.011 183.398 307.263 184.537 307.263C185.561 307.263 186.244 306.239 186.358 305.328C186.472 304.417 185.903 302.368 186.586 300.774C187.383 299.067 187.041 299.408 187.838 297.7C188.635 295.993 188.977 293.602 189.546 291.894C190.115 290.073 190.343 288.138 189.66 286.43C188.977 284.722 187.269 283.242 185.448 283.47C186.131 281.762 185.561 279.599 184.081 278.347C182.601 277.209 180.438 276.981 178.845 278.006C178.845 278.006 172.469 273.679 165.525 276.07C158.58 278.461 157.442 284.836 155.962 284.95C154.482 285.178 149.815 282.673 150.611 284.267C151.408 285.861 152.774 287.341 153.344 287.455C154.027 287.568 148.107 285.064 150.156 287.227C152.205 289.618 154.141 290.528 154.141 290.528Z" fill="#263238"/>
    <path d="M210.037 344.718C209.924 344.832 209.468 343.807 207.874 342.555C206.281 341.416 203.548 340.164 200.019 340.278C196.49 340.278 192.506 341.758 188.521 344.262C184.537 346.653 180.552 349.955 175.429 352.118C172.924 353.256 170.306 353.825 167.688 353.825C165.069 353.825 162.565 353.484 160.402 352.573C158.125 351.776 156.19 350.524 154.596 349.272C152.888 348.019 151.522 346.653 150.042 345.629C147.196 343.466 144.464 342.555 142.528 342.555C140.593 342.441 139.568 343.01 139.568 343.01C139.568 343.01 139.682 343.01 139.796 342.896C139.91 342.896 140.138 342.783 140.365 342.669C140.821 342.555 141.618 342.327 142.642 342.327C144.691 342.327 147.537 343.124 150.497 345.287C153.457 347.336 156.417 350.524 160.743 352.004C165.069 353.598 170.534 353.598 175.429 351.435C180.324 349.272 184.423 345.97 188.407 343.579C192.392 341.189 196.604 339.595 200.247 339.709C203.89 339.709 206.622 340.961 208.216 342.213C209.013 342.783 209.468 343.466 209.81 343.807C209.81 344.49 210.037 344.718 210.037 344.718Z" fill="#FAFAFA"/>
    <path d="M189.773 374.659C189.773 374.659 189.203 374.317 188.179 373.748C187.154 373.179 185.56 372.382 183.625 371.926C181.576 371.471 179.071 371.357 176.339 372.04C173.607 372.723 170.875 374.089 167.915 375.228C166.435 375.797 164.841 376.252 163.247 376.366C161.767 376.594 160.173 376.594 158.807 376.48C155.961 376.252 153.57 375.456 151.635 374.545C149.7 373.634 148.334 372.609 147.423 371.813C146.967 371.471 146.626 371.13 146.398 370.902C146.17 370.674 146.057 370.56 146.057 370.56C146.057 370.56 146.626 371.016 147.537 371.699C148.447 372.382 149.927 373.406 151.749 374.203C153.684 375 156.075 375.797 158.807 376.025C161.539 376.252 164.613 375.911 167.573 374.773C170.533 373.634 173.379 372.268 176.111 371.585C178.844 370.902 181.462 371.016 183.625 371.585C185.674 372.04 187.268 372.951 188.293 373.52C188.748 373.862 189.203 374.089 189.431 374.317C189.659 374.431 189.773 374.545 189.773 374.659Z" fill="#FAFAFA"/>
    <path d="M198.653 393.784C198.653 393.898 197.856 393.443 196.49 393.101C195.01 392.76 192.847 392.874 190.342 393.67C189.09 394.126 187.724 394.695 186.358 395.378C184.991 396.061 183.511 396.972 181.918 397.769C180.324 398.566 178.616 399.476 176.795 399.932C174.859 400.501 172.81 400.615 170.761 400.16C166.663 399.249 163.361 396.858 160.401 395.037C157.441 393.215 154.481 391.849 151.863 391.621C149.245 391.394 147.082 392.077 145.829 392.874C144.577 393.67 144.122 394.354 144.008 394.354C144.008 394.354 144.122 394.126 144.349 393.898C144.577 393.557 145.032 393.215 145.602 392.76C146.854 391.849 149.017 391.052 151.749 391.28C154.481 391.394 157.555 392.76 160.629 394.581C163.703 396.403 166.89 398.68 170.875 399.59C172.81 400.046 174.859 399.818 176.681 399.363C178.502 398.907 180.21 397.997 181.69 397.2C183.284 396.403 184.65 395.492 186.13 394.809C187.496 394.126 188.976 393.557 190.228 393.101C192.847 392.304 195.124 392.304 196.604 392.76C197.287 392.987 197.856 393.215 198.197 393.329C198.539 393.67 198.653 393.784 198.653 393.784Z" fill="#FAFAFA"/>
    <path d="M201.612 415.529C201.612 415.529 201.384 415.642 201.043 415.756C200.701 415.87 200.018 415.984 199.221 416.098C197.627 416.212 195.35 415.756 192.846 414.732C191.594 414.276 190.114 413.707 188.634 413.366C187.04 413.024 185.332 412.91 183.625 413.024C179.982 413.366 176.225 414.732 172.24 415.87C170.191 416.439 168.142 416.895 166.206 417.122C164.157 417.35 162.222 417.236 160.4 417.009C156.757 416.553 153.57 415.529 151.065 414.504C148.447 413.479 146.512 412.455 145.145 411.772C144.462 411.43 143.893 411.089 143.552 410.975C143.21 410.747 142.982 410.633 142.982 410.633C142.982 410.633 143.21 410.747 143.552 410.861C144.007 411.089 144.462 411.316 145.145 411.544C146.512 412.227 148.561 413.138 151.179 414.049C153.798 414.959 156.871 415.984 160.514 416.439C162.336 416.667 164.157 416.667 166.206 416.439C168.142 416.212 170.191 415.756 172.126 415.187C176.111 414.049 179.982 412.682 183.625 412.341C185.446 412.227 187.268 412.341 188.861 412.682C190.455 413.024 191.821 413.707 193.187 414.162C195.692 415.187 197.855 415.756 199.449 415.642C200.815 415.756 201.612 415.415 201.612 415.529Z" fill="#FAFAFA"/>
    <path d="M213.227 360.314C213.227 360.314 212.999 360.656 212.544 360.997C212.088 361.453 211.291 362.022 210.153 362.477C209.128 362.933 207.648 363.274 206.168 363.274C204.574 363.274 202.867 362.819 201.273 362.022C199.679 361.225 198.199 360.428 196.833 359.973C195.467 359.518 194.101 359.404 192.962 359.517C191.824 359.631 191.027 360.087 190.572 360.542C190.116 360.997 189.889 361.225 189.889 361.225C189.889 361.225 190.003 360.884 190.458 360.428C190.913 359.973 191.71 359.404 192.962 359.176C194.101 358.948 195.581 359.062 197.061 359.517C198.541 359.973 200.021 360.884 201.615 361.567C203.208 362.364 204.688 362.819 206.168 362.819C207.648 362.933 209.014 362.591 210.039 362.25C212.202 361.339 213.227 360.201 213.227 360.314Z" fill="#FAFAFA"/>
    <path d="M147.194 359.745C147.194 359.745 147.081 359.973 146.853 360.087C146.511 360.314 146.056 360.428 145.373 360.428C144.69 360.428 144.007 360.201 143.324 359.859C142.641 359.518 141.958 358.948 141.161 358.379C139.681 357.354 137.973 357.354 136.948 357.468C135.81 357.696 135.127 358.151 135.127 358.038C135.127 358.038 135.696 357.468 136.835 357.127C137.973 356.785 139.908 356.785 141.502 357.924C142.299 358.379 142.982 358.948 143.551 359.404C144.234 359.859 144.804 359.973 145.373 360.087C146.511 360.201 147.081 359.631 147.194 359.745Z" fill="#FAFAFA"/>
    <path d="M116.234 396.517L132.855 394.581L144.581 402.209L189.207 391.508L190.46 366.576L210.496 366.12L210.041 395.378C209.813 404.827 202.072 412.227 192.623 411.999L127.277 410.178L124.544 404.6L110.428 404.144L116.234 396.517Z" fill="#FFBE9D"/>
    <path d="M188.523 391.507C188.523 391.507 188.182 391.621 187.726 391.735C187.157 391.849 186.36 392.077 185.336 392.418C183.173 392.987 180.099 393.67 176.342 394.695C168.714 396.517 158.241 399.021 146.743 401.867C145.832 402.095 144.921 402.323 144.01 402.55H143.897L143.783 402.436C139.684 399.704 135.7 397.086 132.171 394.809H132.285C125.682 395.606 120.103 396.175 115.663 396.744L115.777 396.63C113.956 399.021 112.476 400.843 111.451 402.209C110.996 402.778 110.54 403.347 110.313 403.689C110.085 404.03 109.857 404.144 109.857 404.144C109.857 404.144 109.971 403.916 110.199 403.575C110.427 403.233 110.882 402.664 111.337 402.095C112.362 400.729 113.842 398.793 115.55 396.403H115.663C119.989 395.834 125.682 395.15 132.171 394.354H132.285H132.398C136.041 396.744 139.912 399.249 144.124 401.981H143.897C144.807 401.753 145.718 401.526 146.629 401.298C158.127 398.566 168.601 396.061 176.228 394.24C179.985 393.329 183.059 392.646 185.222 392.191C186.246 391.963 187.043 391.735 187.726 391.621C188.182 391.507 188.523 391.507 188.523 391.507Z" fill="#EB996E"/>
    <path d="M125.341 401.298C125.341 401.412 122.495 401.526 118.852 401.526C118.396 401.526 118.055 401.526 117.713 401.526L117.827 401.412C115.55 403.347 113.729 404.713 113.615 404.599C113.501 404.486 115.209 403.006 117.485 400.957L117.599 400.843H117.713C118.055 400.843 118.51 400.843 118.852 400.843C122.381 400.956 125.341 401.184 125.341 401.298Z" fill="#EB996E"/>
    <path d="M196.722 396.517C196.608 396.63 195.697 394.467 193.42 393.101C191.143 391.621 188.98 391.849 188.98 391.621C188.98 391.507 189.55 391.394 190.46 391.507C191.371 391.621 192.623 391.963 193.762 392.646C194.9 393.329 195.811 394.354 196.266 395.15C196.722 395.947 196.836 396.517 196.722 396.517Z" fill="#EB996E"/>
</svg>
