<svg width="310" height="153" viewBox="0 0 310 153" fill="none" xmlns="http://www.w3.org/2000/svg">
    <path d="M6.67689 98.8669L7.47258 100.389C7.79085 100.869 8.1887 101.35 8.66611 101.59L10.1779 102.391C10.2575 102.391 10.2575 102.471 10.1779 102.551L8.66611 103.352C8.1887 103.672 7.71128 104.072 7.47258 104.553L6.67689 106.075C6.67689 106.155 6.59732 106.155 6.51775 106.075L5.72206 104.553C5.40378 104.072 5.00594 103.592 4.52852 103.352L3.01671 102.551C2.93714 102.551 2.93714 102.471 3.01671 102.391L4.52852 101.59C5.00594 101.269 5.48335 100.869 5.72206 100.389L6.51775 98.8669C6.59732 98.8669 6.67689 98.8669 6.67689 98.8669Z" fill="#EFEFEF"/>
    <path d="M91.7511 66.4331L92.5468 67.9547C92.8651 68.4352 93.2629 68.9157 93.7403 69.156L95.2521 69.9568C95.3317 69.9568 95.3317 70.0369 95.2521 70.117L93.7403 70.9178C93.2629 71.2381 92.7855 71.6386 92.5468 72.1191L91.7511 73.6407C91.7511 73.7207 91.6715 73.7207 91.592 73.6407L90.7963 72.1191C90.478 71.6386 90.0802 71.1581 89.6027 70.9178L88.0909 70.117C88.0114 70.117 88.0114 70.0369 88.0909 69.9568L89.6027 69.156C90.0802 68.8356 90.5576 68.4352 90.7963 67.9547L91.592 66.4331C91.592 66.353 91.6715 66.353 91.7511 66.4331Z" fill="#EFEFEF"/>
    <path d="M144.178 96.5444L144.497 97.105C144.576 97.2652 144.735 97.4254 144.974 97.5855L145.531 97.9059V97.986L144.974 98.3063C144.815 98.3864 144.656 98.5465 144.497 98.7868L144.178 99.3474H144.099L143.78 98.7868C143.701 98.6266 143.542 98.4665 143.303 98.3063L142.746 97.986V97.9059L143.303 97.5855C143.462 97.5054 143.621 97.3453 143.78 97.105L144.178 96.5444C144.099 96.4644 144.178 96.4644 144.178 96.5444Z" fill="#EFEFEF"/>
    <path d="M147.995 0.924316L148.313 1.4849C148.393 1.64507 148.552 1.80524 148.79 1.96541L149.347 2.28574V2.36583L148.79 2.68616C148.631 2.76625 148.472 2.92642 148.313 3.16667L147.995 3.64717H147.915L147.597 3.08658C147.517 2.92642 147.358 2.76625 147.119 2.60608L146.562 2.28574V2.20566L147.119 1.88532C147.279 1.80524 147.438 1.64507 147.597 1.40482L147.995 0.924316C147.915 0.924316 147.995 0.924316 147.995 0.924316Z" fill="#EFEFEF"/>
    <path d="M38.024 82.6895L38.4218 83.4102C38.5809 83.6505 38.7401 83.8907 38.9788 83.9708L39.6949 84.3712V84.4513L38.9788 84.8517C38.7401 85.0119 38.5014 85.172 38.4218 85.4123L38.024 86.133H37.9444L37.5465 85.4123C37.3874 85.172 37.2283 84.9318 36.9896 84.8517L36.2734 84.4513V84.3712L36.9896 83.9708C37.2283 83.8106 37.467 83.6505 37.5465 83.4102L38.024 82.6895C37.9444 82.6895 38.024 82.6895 38.024 82.6895Z" fill="#EFEFEF"/>
    <path d="M70.2466 86.6946L70.6445 87.4153C70.8036 87.6556 70.9627 87.8958 71.2014 87.9759L71.9176 88.3764V88.4564L71.2014 88.8569C70.9627 89.017 70.724 89.1772 70.6445 89.4175L70.2466 90.1382H70.167L69.7692 89.4175C69.6101 89.1772 69.4509 88.9369 69.2122 88.8569L68.4961 88.4564V88.3764L69.2122 87.9759C69.4509 87.8158 69.6896 87.6556 69.7692 87.4153L70.2466 86.6946C70.167 86.6946 70.167 86.6946 70.2466 86.6946Z" fill="#EFEFEF"/>
    <path d="M67.0814 1.16407L67.6384 2.20516C67.7975 2.5255 68.1158 2.84583 68.5136 3.08608L69.548 3.64667V3.72675L68.5136 4.28734C68.1953 4.44751 67.8771 4.76785 67.6384 5.16827L67.0814 6.20936H67.0018L66.4448 5.08818C66.2857 4.76785 65.9674 4.44751 65.5696 4.20726L64.5352 3.64667V3.56659L65.5696 3.006C65.8878 2.84583 66.2061 2.5255 66.4448 2.12508L67.0018 1.08398C67.0018 1.08398 67.0814 1.08398 67.0814 1.16407Z" fill="#EFEFEF"/>
    <path d="M94.4541 127.621C94.8947 127.621 95.2519 127.262 95.2519 126.818C95.2519 126.375 94.8947 126.015 94.4541 126.015C94.0134 126.015 93.6562 126.375 93.6562 126.818C93.6562 127.262 94.0134 127.621 94.4541 127.621Z" fill="#EFEFEF"/>
    <path d="M39.7197 3.09035C40.1603 3.09035 40.5175 2.73084 40.5175 2.28736C40.5175 1.84388 40.1603 1.48438 39.7197 1.48438C39.2791 1.48438 38.9219 1.84388 38.9219 2.28736C38.9219 2.73084 39.2791 3.09035 39.7197 3.09035Z" fill="#EFEFEF"/>
    <path d="M5.80173 38.8887C6.24236 38.8887 6.59956 38.5292 6.59956 38.0857C6.59956 37.6422 6.24236 37.2827 5.80173 37.2827C5.3611 37.2827 5.00391 37.6422 5.00391 38.0857C5.00391 38.5292 5.3611 38.8887 5.80173 38.8887Z" fill="#EFEFEF"/>
    <path d="M115.685 79.5706C116.125 79.5706 116.482 79.2111 116.482 78.7676C116.482 78.3241 116.125 77.9646 115.685 77.9646C115.244 77.9646 114.887 78.3241 114.887 78.7676C114.887 79.2111 115.244 79.5706 115.685 79.5706Z" fill="#EFEFEF"/>
    <path d="M77.9853 45.8557C78.426 45.8557 78.7832 45.4962 78.7832 45.0527C78.7832 44.6093 78.426 44.2498 77.9853 44.2498C77.5447 44.2498 77.1875 44.6093 77.1875 45.0527C77.1875 45.4962 77.5447 45.8557 77.9853 45.8557Z" fill="#EFEFEF"/>
    <path d="M4.92732 149.002C5.27982 149.002 5.56558 148.714 5.56558 148.36C5.56558 148.005 5.27982 147.717 4.92732 147.717C4.57482 147.717 4.28906 148.005 4.28906 148.36C4.28906 148.714 4.57482 149.002 4.92732 149.002Z" fill="#EFEFEF"/>
    <path d="M147.201 35.4435C147.553 35.4435 147.839 35.1559 147.839 34.8011C147.839 34.4463 147.553 34.1587 147.201 34.1587C146.848 34.1587 146.562 34.4463 146.562 34.8011C146.562 35.1559 146.848 35.4435 147.201 35.4435Z" fill="#EFEFEF"/>
    <path d="M3.12973 149.93C3.35004 149.653 3.30557 149.249 3.03041 149.027C2.75525 148.805 2.3536 148.85 2.13329 149.127C1.91297 149.404 1.95743 149.808 2.23259 150.03C2.50775 150.252 2.90942 150.207 3.12973 149.93Z" fill="#EFEFEF"/>
    <path d="M114.825 144.598C115.266 144.598 115.623 144.239 115.623 143.795C115.623 143.352 115.266 142.992 114.825 142.992C114.385 142.992 114.027 143.352 114.027 143.795C114.027 144.239 114.385 144.598 114.825 144.598Z" fill="#EFEFEF"/>
    <path d="M95.2323 121.53C95.4081 121.53 95.5506 121.387 95.5506 121.21C95.5506 121.033 95.4081 120.89 95.2323 120.89C95.0566 120.89 94.9141 121.033 94.9141 121.21C94.9141 121.387 95.0566 121.53 95.2323 121.53Z" fill="#EFEFEF"/>
    <path d="M112.119 141.793C112.295 141.793 112.437 141.649 112.437 141.472C112.437 141.295 112.295 141.152 112.119 141.152C111.943 141.152 111.801 141.295 111.801 141.472C111.801 141.649 111.943 141.793 112.119 141.793Z" fill="#EFEFEF"/>
    <path d="M117.123 139.47C117.299 139.47 117.441 139.326 117.441 139.149C117.441 138.972 117.299 138.829 117.123 138.829C116.947 138.829 116.805 138.972 116.805 139.149C116.805 139.326 116.947 139.47 117.123 139.47Z" fill="#EFEFEF"/>
    <path d="M145.529 121.53C145.705 121.53 145.847 121.387 145.847 121.21C145.847 121.033 145.705 120.89 145.529 120.89C145.353 120.89 145.211 121.033 145.211 121.21C145.211 121.387 145.353 121.53 145.529 121.53Z" fill="#EFEFEF"/>
    <path d="M154.674 6.52934C154.85 6.52934 154.992 6.38592 154.992 6.20901C154.992 6.03209 154.85 5.88867 154.674 5.88867C154.498 5.88867 154.355 6.03209 154.355 6.20901C154.355 6.38592 154.498 6.52934 154.674 6.52934Z" fill="#EFEFEF"/>
    <path d="M0.318276 148.038C0.494056 148.038 0.636553 147.895 0.636553 147.718C0.636553 147.541 0.494056 147.398 0.318276 147.398C0.142497 147.398 0 147.541 0 147.718C0 147.895 0.142497 148.038 0.318276 148.038Z" fill="#EFEFEF"/>
    <path d="M113.552 7.41442C113.905 7.41442 114.191 7.12681 114.191 6.77203C114.191 6.41725 113.905 6.12964 113.552 6.12964C113.2 6.12964 112.914 6.41725 112.914 6.77203C112.914 7.12681 113.2 7.41442 113.552 7.41442Z" fill="#EFEFEF"/>
    <path d="M111.72 8.39602C111.94 8.11908 111.895 7.71481 111.62 7.49307C111.345 7.27133 110.943 7.31609 110.723 7.59303C110.503 7.86997 110.547 8.27424 110.822 8.49598C111.098 8.71772 111.499 8.67296 111.72 8.39602Z" fill="#EFEFEF"/>
    <path d="M25.3094 70.3487C25.5297 70.0717 25.4853 69.6675 25.2101 69.4457C24.935 69.224 24.5333 69.2687 24.313 69.5457C24.0927 69.8226 24.1371 70.2269 24.4123 70.4486C24.6875 70.6704 25.0891 70.6256 25.3094 70.3487Z" fill="#EFEFEF"/>
    <path d="M13.501 1.3044C13.7213 1.02743 13.6768 0.623135 13.4016 0.401396C13.1264 0.179657 12.7247 0.224439 12.5044 0.501417C12.2841 0.778395 12.3286 1.18268 12.6038 1.40442C12.879 1.62616 13.2806 1.58138 13.501 1.3044Z" fill="#EFEFEF"/>
    <path d="M91.6346 97.5002C92.0191 97.0168 91.9415 96.3112 91.4613 95.9242C90.981 95.5372 90.28 95.6153 89.8955 96.0987C89.5109 96.582 89.5885 97.2876 90.0688 97.6746C90.549 98.0616 91.2501 97.9835 91.6346 97.5002Z" fill="#EFEFEF"/>
    <path d="M109.017 6.52934C109.193 6.52934 109.336 6.38592 109.336 6.20901C109.336 6.03209 109.193 5.88867 109.017 5.88867C108.842 5.88867 108.699 6.03209 108.699 6.20901C108.699 6.38592 108.842 6.52934 109.017 6.52934Z" fill="#EFEFEF"/>
    <path d="M116.81 29.594C116.986 29.594 117.129 29.4506 117.129 29.2737C117.129 29.0968 116.986 28.9534 116.81 28.9534C116.635 28.9534 116.492 29.0968 116.492 29.2737C116.492 29.4506 116.635 29.594 116.81 29.594Z" fill="#EFEFEF"/>
    <path d="M93.7362 26.3101C93.912 26.3101 94.0545 26.1667 94.0545 25.9898C94.0545 25.8129 93.912 25.6694 93.7362 25.6694C93.5605 25.6694 93.418 25.8129 93.418 25.9898C93.418 26.1667 93.5605 26.3101 93.7362 26.3101Z" fill="#EFEFEF"/>
    <path d="M26.0956 66.8333C26.2714 66.8333 26.4139 66.6899 26.4139 66.513C26.4139 66.336 26.2714 66.1926 26.0956 66.1926C25.9198 66.1926 25.7773 66.336 25.7773 66.513C25.7773 66.6899 25.9198 66.8333 26.0956 66.8333Z" fill="#EFEFEF"/>
    <path d="M13.2792 6.13017C13.455 6.13017 13.5975 5.98675 13.5975 5.80984C13.5975 5.63292 13.455 5.4895 13.2792 5.4895C13.1034 5.4895 12.9609 5.63292 12.9609 5.80984C12.9609 5.98675 13.1034 6.13017 13.2792 6.13017Z" fill="#EFEFEF"/>
    <path d="M0.646401 3.40654C0.822181 3.40654 0.964678 3.26312 0.964678 3.08621C0.964678 2.90929 0.822181 2.76587 0.646401 2.76587C0.470622 2.76587 0.328125 2.90929 0.328125 3.08621C0.328125 3.26312 0.470622 3.40654 0.646401 3.40654Z" fill="#EFEFEF"/>
    <path d="M90.7867 103.755C91.1392 103.755 91.425 103.467 91.425 103.113C91.425 102.758 91.1392 102.47 90.7867 102.47C90.4342 102.47 90.1484 102.758 90.1484 103.113C90.1484 103.467 90.4342 103.755 90.7867 103.755Z" fill="#EFEFEF"/>
    <path d="M10.5058 35.2796C10.6816 35.2796 10.8241 35.1362 10.8241 34.9593C10.8241 34.7823 10.6816 34.6389 10.5058 34.6389C10.33 34.6389 10.1875 34.7823 10.1875 34.9593C10.1875 35.1362 10.33 35.2796 10.5058 35.2796Z" fill="#EFEFEF"/>
    <path d="M148.158 37.2022C148.334 37.2022 148.476 37.0588 148.476 36.8819C148.476 36.7049 148.334 36.5615 148.158 36.5615C147.982 36.5615 147.84 36.7049 147.84 36.8819C147.84 37.0588 147.982 37.2022 148.158 37.2022Z" fill="#EFEFEF"/>
    <path d="M161.677 98.8669L162.473 100.389C162.791 100.869 163.189 101.35 163.666 101.59L165.178 102.391C165.257 102.391 165.257 102.471 165.178 102.551L163.666 103.352C163.189 103.672 162.711 104.072 162.473 104.553L161.677 106.075C161.677 106.155 161.597 106.155 161.518 106.075L160.722 104.553C160.404 104.072 160.006 103.592 159.529 103.352L158.017 102.551C157.937 102.551 157.937 102.471 158.017 102.391L159.529 101.59C160.006 101.269 160.483 100.869 160.722 100.389L161.518 98.8669C161.597 98.8669 161.677 98.8669 161.677 98.8669Z" fill="#EFEFEF"/>
    <path d="M246.751 66.4331L247.547 67.9547C247.865 68.4352 248.263 68.9157 248.74 69.156L250.252 69.9568C250.332 69.9568 250.332 70.0369 250.252 70.117L248.74 70.9178C248.263 71.2381 247.786 71.6386 247.547 72.1191L246.751 73.6407C246.751 73.7207 246.672 73.7207 246.592 73.6407L245.796 72.1191C245.478 71.6386 245.08 71.1581 244.603 70.9178L243.091 70.117C243.011 70.117 243.011 70.0369 243.091 69.9568L244.603 69.156C245.08 68.8356 245.558 68.4352 245.796 67.9547L246.592 66.4331C246.592 66.353 246.672 66.353 246.751 66.4331Z" fill="#EFEFEF"/>
    <path d="M299.178 96.5444L299.497 97.105C299.576 97.2652 299.735 97.4254 299.974 97.5855L300.531 97.9059V97.986L299.974 98.3063C299.815 98.3864 299.656 98.5465 299.497 98.7868L299.178 99.3474H299.099L298.78 98.7868C298.701 98.6266 298.542 98.4665 298.303 98.3063L297.746 97.986V97.9059L298.303 97.5855C298.462 97.5054 298.621 97.3453 298.78 97.105L299.178 96.5444C299.099 96.4644 299.178 96.4644 299.178 96.5444Z" fill="#EFEFEF"/>
    <path d="M302.995 0.924316L303.313 1.4849C303.393 1.64507 303.552 1.80524 303.79 1.96541L304.347 2.28574V2.36583L303.79 2.68616C303.631 2.76625 303.472 2.92642 303.313 3.16667L302.995 3.64717H302.915L302.597 3.08658C302.517 2.92642 302.358 2.76625 302.119 2.60608L301.562 2.28574V2.20566L302.119 1.88532C302.279 1.80524 302.438 1.64507 302.597 1.40482L302.995 0.924316C302.915 0.924316 302.995 0.924316 302.995 0.924316Z" fill="#EFEFEF"/>
    <path d="M193.024 82.6895L193.422 83.4102C193.581 83.6505 193.74 83.8907 193.979 83.9708L194.695 84.3712V84.4513L193.979 84.8517C193.74 85.0119 193.501 85.172 193.422 85.4123L193.024 86.133H192.944L192.547 85.4123C192.387 85.172 192.228 84.9318 191.99 84.8517L191.273 84.4513V84.3712L191.99 83.9708C192.228 83.8106 192.467 83.6505 192.547 83.4102L193.024 82.6895C192.944 82.6895 193.024 82.6895 193.024 82.6895Z" fill="#EFEFEF"/>
    <path d="M225.247 86.6946L225.644 87.4153C225.804 87.6556 225.963 87.8958 226.201 87.9759L226.918 88.3764V88.4564L226.201 88.8569C225.963 89.017 225.724 89.1772 225.644 89.4175L225.247 90.1382H225.167L224.769 89.4175C224.61 89.1772 224.451 88.9369 224.212 88.8569L223.496 88.4564V88.3764L224.212 87.9759C224.451 87.8158 224.69 87.6556 224.769 87.4153L225.247 86.6946C225.167 86.6946 225.167 86.6946 225.247 86.6946Z" fill="#EFEFEF"/>
    <path d="M222.081 1.16407L222.638 2.20516C222.797 2.5255 223.116 2.84583 223.514 3.08608L224.548 3.64667V3.72675L223.514 4.28734C223.195 4.44751 222.877 4.76785 222.638 5.16827L222.081 6.20936H222.002L221.445 5.08818C221.286 4.76785 220.967 4.44751 220.57 4.20726L219.535 3.64667V3.56659L220.57 3.006C220.888 2.84583 221.206 2.5255 221.445 2.12508L222.002 1.08398C222.002 1.08398 222.081 1.08398 222.081 1.16407Z" fill="#EFEFEF"/>
    <path d="M249.454 127.621C249.895 127.621 250.252 127.262 250.252 126.818C250.252 126.375 249.895 126.015 249.454 126.015C249.013 126.015 248.656 126.375 248.656 126.818C248.656 127.262 249.013 127.621 249.454 127.621Z" fill="#EFEFEF"/>
    <path d="M194.72 3.09035C195.16 3.09035 195.518 2.73084 195.518 2.28736C195.518 1.84388 195.16 1.48438 194.72 1.48438C194.279 1.48438 193.922 1.84388 193.922 2.28736C193.922 2.73084 194.279 3.09035 194.72 3.09035Z" fill="#EFEFEF"/>
    <path d="M160.802 38.8887C161.242 38.8887 161.6 38.5292 161.6 38.0857C161.6 37.6422 161.242 37.2827 160.802 37.2827C160.361 37.2827 160.004 37.6422 160.004 38.0857C160.004 38.5292 160.361 38.8887 160.802 38.8887Z" fill="#EFEFEF"/>
    <path d="M270.685 79.5706C271.125 79.5706 271.482 79.2111 271.482 78.7676C271.482 78.3241 271.125 77.9646 270.685 77.9646C270.244 77.9646 269.887 78.3241 269.887 78.7676C269.887 79.2111 270.244 79.5706 270.685 79.5706Z" fill="#EFEFEF"/>
    <path d="M232.985 45.8557C233.426 45.8557 233.783 45.4962 233.783 45.0527C233.783 44.6093 233.426 44.2498 232.985 44.2498C232.545 44.2498 232.188 44.6093 232.188 45.0527C232.188 45.4962 232.545 45.8557 232.985 45.8557Z" fill="#EFEFEF"/>
    <path d="M159.927 149.002C160.28 149.002 160.566 148.714 160.566 148.36C160.566 148.005 160.28 147.717 159.927 147.717C159.575 147.717 159.289 148.005 159.289 148.36C159.289 148.714 159.575 149.002 159.927 149.002Z" fill="#EFEFEF"/>
    <path d="M302.201 35.4435C302.553 35.4435 302.839 35.1559 302.839 34.8011C302.839 34.4463 302.553 34.1587 302.201 34.1587C301.848 34.1587 301.562 34.4463 301.562 34.8011C301.562 35.1559 301.848 35.4435 302.201 35.4435Z" fill="#EFEFEF"/>
    <path d="M158.13 149.93C158.35 149.653 158.306 149.249 158.03 149.027C157.755 148.805 157.354 148.85 157.133 149.127C156.913 149.404 156.957 149.808 157.233 150.03C157.508 150.252 157.909 150.207 158.13 149.93Z" fill="#EFEFEF"/>
    <path d="M269.825 144.598C270.266 144.598 270.623 144.239 270.623 143.795C270.623 143.352 270.266 142.992 269.825 142.992C269.385 142.992 269.027 143.352 269.027 143.795C269.027 144.239 269.385 144.598 269.825 144.598Z" fill="#EFEFEF"/>
    <path d="M250.232 121.53C250.408 121.53 250.551 121.387 250.551 121.21C250.551 121.033 250.408 120.89 250.232 120.89C250.057 120.89 249.914 121.033 249.914 121.21C249.914 121.387 250.057 121.53 250.232 121.53Z" fill="#EFEFEF"/>
    <path d="M267.119 141.793C267.295 141.793 267.437 141.649 267.437 141.472C267.437 141.295 267.295 141.152 267.119 141.152C266.943 141.152 266.801 141.295 266.801 141.472C266.801 141.649 266.943 141.793 267.119 141.793Z" fill="#EFEFEF"/>
    <path d="M272.123 139.47C272.299 139.47 272.441 139.326 272.441 139.149C272.441 138.972 272.299 138.829 272.123 138.829C271.947 138.829 271.805 138.972 271.805 139.149C271.805 139.326 271.947 139.47 272.123 139.47Z" fill="#EFEFEF"/>
    <path d="M300.529 121.53C300.705 121.53 300.847 121.387 300.847 121.21C300.847 121.033 300.705 120.89 300.529 120.89C300.353 120.89 300.211 121.033 300.211 121.21C300.211 121.387 300.353 121.53 300.529 121.53Z" fill="#EFEFEF"/>
    <path d="M309.674 6.52934C309.85 6.52934 309.992 6.38592 309.992 6.20901C309.992 6.03209 309.85 5.88867 309.674 5.88867C309.498 5.88867 309.355 6.03209 309.355 6.20901C309.355 6.38592 309.498 6.52934 309.674 6.52934Z" fill="#EFEFEF"/>
    <path d="M155.318 148.038C155.494 148.038 155.637 147.895 155.637 147.718C155.637 147.541 155.494 147.398 155.318 147.398C155.142 147.398 155 147.541 155 147.718C155 147.895 155.142 148.038 155.318 148.038Z" fill="#EFEFEF"/>
    <path d="M268.552 7.41442C268.905 7.41442 269.191 7.12681 269.191 6.77203C269.191 6.41725 268.905 6.12964 268.552 6.12964C268.2 6.12964 267.914 6.41725 267.914 6.77203C267.914 7.12681 268.2 7.41442 268.552 7.41442Z" fill="#EFEFEF"/>
    <path d="M266.72 8.39602C266.94 8.11908 266.895 7.71481 266.62 7.49307C266.345 7.27133 265.943 7.31609 265.723 7.59303C265.503 7.86997 265.547 8.27424 265.822 8.49598C266.098 8.71772 266.499 8.67296 266.72 8.39602Z" fill="#EFEFEF"/>
    <path d="M180.309 70.3487C180.53 70.0717 180.485 69.6675 180.21 69.4457C179.935 69.224 179.533 69.2687 179.313 69.5457C179.093 69.8226 179.137 70.2269 179.412 70.4486C179.687 70.6704 180.089 70.6256 180.309 70.3487Z" fill="#EFEFEF"/>
    <path d="M168.501 1.3044C168.721 1.02743 168.677 0.623135 168.402 0.401396C168.126 0.179657 167.725 0.224439 167.504 0.501417C167.284 0.778395 167.329 1.18268 167.604 1.40442C167.879 1.62616 168.281 1.58138 168.501 1.3044Z" fill="#EFEFEF"/>
    <path d="M246.635 97.5002C247.019 97.0168 246.942 96.3112 246.461 95.9242C245.981 95.5372 245.28 95.6153 244.895 96.0987C244.511 96.582 244.589 97.2876 245.069 97.6746C245.549 98.0616 246.25 97.9835 246.635 97.5002Z" fill="#EFEFEF"/>
    <path d="M264.017 6.52934C264.193 6.52934 264.336 6.38592 264.336 6.20901C264.336 6.03209 264.193 5.88867 264.017 5.88867C263.842 5.88867 263.699 6.03209 263.699 6.20901C263.699 6.38592 263.842 6.52934 264.017 6.52934Z" fill="#EFEFEF"/>
    <path d="M271.81 29.594C271.986 29.594 272.129 29.4506 272.129 29.2737C272.129 29.0968 271.986 28.9534 271.81 28.9534C271.635 28.9534 271.492 29.0968 271.492 29.2737C271.492 29.4506 271.635 29.594 271.81 29.594Z" fill="#EFEFEF"/>
    <path d="M248.736 26.3101C248.912 26.3101 249.055 26.1667 249.055 25.9898C249.055 25.8129 248.912 25.6694 248.736 25.6694C248.56 25.6694 248.418 25.8129 248.418 25.9898C248.418 26.1667 248.56 26.3101 248.736 26.3101Z" fill="#EFEFEF"/>
    <path d="M181.096 66.8333C181.271 66.8333 181.414 66.6899 181.414 66.513C181.414 66.336 181.271 66.1926 181.096 66.1926C180.92 66.1926 180.777 66.336 180.777 66.513C180.777 66.6899 180.92 66.8333 181.096 66.8333Z" fill="#EFEFEF"/>
    <path d="M168.279 6.13017C168.455 6.13017 168.597 5.98675 168.597 5.80984C168.597 5.63292 168.455 5.4895 168.279 5.4895C168.103 5.4895 167.961 5.63292 167.961 5.80984C167.961 5.98675 168.103 6.13017 168.279 6.13017Z" fill="#EFEFEF"/>
    <path d="M155.646 3.40654C155.822 3.40654 155.965 3.26312 155.965 3.08621C155.965 2.90929 155.822 2.76587 155.646 2.76587C155.471 2.76587 155.328 2.90929 155.328 3.08621C155.328 3.26312 155.471 3.40654 155.646 3.40654Z" fill="#EFEFEF"/>
    <path d="M245.787 103.755C246.139 103.755 246.425 103.467 246.425 103.113C246.425 102.758 246.139 102.47 245.787 102.47C245.434 102.47 245.148 102.758 245.148 103.113C245.148 103.467 245.434 103.755 245.787 103.755Z" fill="#EFEFEF"/>
    <path d="M165.506 35.2796C165.682 35.2796 165.824 35.1362 165.824 34.9593C165.824 34.7823 165.682 34.6389 165.506 34.6389C165.33 34.6389 165.188 34.7823 165.188 34.9593C165.188 35.1362 165.33 35.2796 165.506 35.2796Z" fill="#EFEFEF"/>
    <path d="M303.158 37.2022C303.334 37.2022 303.476 37.0588 303.476 36.8819C303.476 36.7049 303.334 36.5615 303.158 36.5615C302.982 36.5615 302.84 36.7049 302.84 36.8819C302.84 37.0588 302.982 37.2022 303.158 37.2022Z" fill="#EFEFEF"/>
    <path d="M236.164 81.1685C236.164 81.1685 242.913 80.0798 242.458 84.194H236.164V81.1685Z" fill="#F4A28C"/>
    <path d="M221.183 73.6837L219.145 83.5497H230.595L229.034 72.2095L221.183 73.6837Z" fill="#C9C9C9"/>
    <path d="M247.671 41.8359H202.246V72.586H247.671V41.8359Z" fill="#24285B"/>
    <path d="M232.494 62.1667H218.203V63.5049H232.494V62.1667Z" fill="#FDAD00"/>
    <path d="M238.861 65.6777H224.57V67.0159H238.861V65.6777Z" fill="#FFD200"/>
    <path d="M247.671 69.9417H202.246V75.7614H247.671V69.9417Z" fill="#E6E6E6"/>
    <path d="M226.758 58.9324H214.766V60.2705H226.758V58.9324Z" fill="#FDAD00"/>
    <path d="M241.242 58.9324H229.25V60.2705H241.242V58.9324Z" fill="#FDAD00"/>
    <path d="M228.926 55.2083H218.203V56.5464H228.926V55.2083Z" fill="#FFD200"/>
    <path d="M242.441 55.2083H231.719V56.5464H242.441V55.2083Z" fill="#FFD200"/>
    <path d="M215.691 62.1667H210.316V63.5049H215.691V62.1667Z" fill="white"/>
    <path d="M221.043 65.6777H215.668V67.0159H221.043V65.6777Z" fill="white"/>
    <path d="M212.254 58.9324H206.879V60.2705H212.254V58.9324Z" fill="white"/>
    <path opacity="0.14" d="M208.176 52.6317C208.176 52.6317 230.367 50.409 225.47 75.7657L227.158 81.9484L220.232 78.2016L220.787 75.7702H217.119L208.176 52.6317Z" fill="black"/>
    <path d="M208.179 45.4874C208.529 45.4874 208.812 45.2051 208.812 44.8568C208.812 44.5086 208.529 44.2263 208.179 44.2263C207.83 44.2263 207.547 44.5086 207.547 44.8568C207.547 45.2051 207.83 45.4874 208.179 45.4874Z" fill="#FDAD00"/>
    <path d="M209.953 45.4874C210.302 45.4874 210.586 45.2051 210.586 44.8568C210.586 44.5086 210.302 44.2263 209.953 44.2263C209.604 44.2263 209.32 44.5086 209.32 44.8568C209.32 45.2051 209.604 45.4874 209.953 45.4874Z" fill="#FFD200"/>
    <path d="M212.254 48.7581H206.879V50.0962H212.254V48.7581Z" fill="white"/>
    <path d="M215.691 52.1057H210.316V53.4439H215.691V52.1057Z" fill="white"/>
    <path d="M228.926 52.1057H218.203V53.4439H228.926V52.1057Z" fill="#FFD200"/>
    <path d="M242.441 52.1057H231.719V53.4439H242.441V52.1057Z" fill="#FFD200"/>
    <path d="M215.691 55.2083H210.316V56.5464H215.691V55.2083Z" fill="white"/>
    <path d="M225.475 48.7581H214.402V50.0962H225.475V48.7581Z" fill="#FDAD00"/>
    <path d="M235.649 48.7581H227.789V50.0962H235.649V48.7581Z" fill="#FDAD00"/>
    <path d="M225.47 74.3279C226.402 74.3279 227.158 73.5745 227.158 72.645C227.158 71.7156 226.402 70.9622 225.47 70.9622C224.537 70.9622 223.781 71.7156 223.781 72.645C223.781 73.5745 224.537 74.3279 225.47 74.3279Z" fill="#A5A5A5"/>
    <path d="M161.212 81.9619H138.379V83.5495H161.212V81.9619Z" fill="#C9C9C9"/>
    <path d="M147.48 81.1685C147.48 81.1685 140.731 80.0798 141.186 84.194H147.48V81.1685Z" fill="#F4A28C"/>
    <path d="M160.035 73.6837L157.996 83.5497H169.447L167.886 72.2095L160.035 73.6837Z" fill="#C9C9C9"/>
    <path d="M184.616 41.8359H139.191V72.586H184.616V41.8359Z" fill="#24285B"/>
    <path d="M169.447 62.1667H155.156V63.5049H169.447V62.1667Z" fill="#FDAD00"/>
    <path d="M184.616 69.9417H139.191V75.7614H184.616V69.9417Z" fill="#E6E6E6"/>
    <path d="M163.703 58.9324H151.711V60.2705H163.703V58.9324Z" fill="#FDAD00"/>
    <path d="M165.879 55.2083H155.156V56.5464H165.879V55.2083Z" fill="#FFD200"/>
    <path d="M152.64 62.1667H147.266V63.5049H152.64V62.1667Z" fill="white"/>
    <path d="M157.992 65.6777H152.617V67.0159H157.992V65.6777Z" fill="white"/>
    <path d="M149.199 58.9324H143.824V60.2705H149.199V58.9324Z" fill="white"/>
    <path d="M143.246 45.4874C143.595 45.4874 143.878 45.2051 143.878 44.8568C143.878 44.5086 143.595 44.2263 143.246 44.2263C142.897 44.2263 142.613 44.5086 142.613 44.8568C142.613 45.2051 142.897 45.4874 143.246 45.4874Z" fill="white"/>
    <path d="M145.125 45.4874C145.474 45.4874 145.757 45.2051 145.757 44.8568C145.757 44.5086 145.474 44.2263 145.125 44.2263C144.775 44.2263 144.492 44.5086 144.492 44.8568C144.492 45.2051 144.775 45.4874 145.125 45.4874Z" fill="#FDAD00"/>
    <path d="M146.902 45.4874C147.252 45.4874 147.535 45.2051 147.535 44.8568C147.535 44.5086 147.252 44.2263 146.902 44.2263C146.553 44.2263 146.27 44.5086 146.27 44.8568C146.27 45.2051 146.553 45.4874 146.902 45.4874Z" fill="#FFD200"/>
    <path d="M149.199 48.7581H143.824V50.0962H149.199V48.7581Z" fill="white"/>
    <path d="M152.64 52.1057H147.266V53.4439H152.64V52.1057Z" fill="white"/>
    <path d="M165.879 52.1057H155.156V53.4439H165.879V52.1057Z" fill="#FFD200"/>
    <path d="M152.64 55.2083H147.266V56.5464H152.64V55.2083Z" fill="white"/>
    <path d="M162.42 48.7581H151.348V50.0962H162.42V48.7581Z" fill="#FDAD00"/>
    <path opacity="0.45" d="M192.5 130.072C233.093 130.072 266 125.821 266 120.578C266 115.335 233.093 111.084 192.5 111.084C151.907 111.084 119 115.335 119 120.578C119 125.821 151.907 130.072 192.5 130.072Z" fill="#E6E6E6"/>
    <path d="M181.377 51.6204C181.377 51.6204 165.535 52.7045 164.32 61.4727C163.646 66.3445 164.984 70.749 166.308 73.7201C166.51 74.1715 166.604 74.6636 166.581 75.1573C166.558 75.6509 166.421 76.1325 166.178 76.5638C165.936 76.995 165.596 77.3639 165.186 77.6412C164.776 77.9185 164.306 78.0964 163.814 78.1609L147.48 80.429V84.2166L170.209 83.5453C172.514 83.4774 174.715 82.5683 176.393 80.9905C178.071 79.4127 179.109 77.276 179.311 74.9857L181.377 51.6204Z" fill="#FDAD00"/>
    <path d="M202.246 51.6204C202.246 51.6204 218.088 52.7045 219.304 61.4727C219.977 66.3445 218.639 70.749 217.315 73.7201C217.113 74.1715 217.02 74.6636 217.042 75.1573C217.065 75.6509 217.202 76.1325 217.445 76.5638C217.687 76.995 218.027 77.3639 218.437 77.6412C218.848 77.9185 219.317 78.0964 219.809 78.1609L236.143 80.429V84.2166L213.41 83.5226C211.105 83.4538 208.905 82.5444 207.227 80.9668C205.549 79.3891 204.511 77.2529 204.308 74.963L202.246 51.6204Z" fill="#FDAD00"/>
    <path opacity="0.46" d="M181.377 51.6204C181.377 51.6204 165.535 52.7045 164.32 61.4727C163.646 66.3445 164.984 70.749 166.308 73.7201C166.51 74.1715 166.604 74.6636 166.581 75.1573C166.558 75.6509 166.421 76.1325 166.178 76.5638C165.936 76.995 165.596 77.3639 165.186 77.6412C164.776 77.9185 164.306 78.0964 163.814 78.1609L147.48 80.429V84.2166L170.209 83.5453C172.514 83.4774 174.715 82.5683 176.393 80.9905C178.071 79.4127 179.109 77.276 179.311 74.9857L181.377 51.6204Z" fill="white"/>
    <path opacity="0.46" d="M202.246 51.6204C202.246 51.6204 218.088 52.7045 219.304 61.4727C219.977 66.3445 218.639 70.749 217.315 73.7201C217.113 74.1715 217.02 74.6636 217.042 75.1573C217.065 75.6509 217.202 76.1325 217.445 76.5638C217.687 76.995 218.027 77.3639 218.437 77.6412C218.848 77.9185 219.317 78.0964 219.809 78.1609L236.143 80.429V84.2166L213.41 83.5226C211.105 83.4538 208.905 82.5444 207.227 80.9668C205.549 79.3891 204.511 77.2529 204.308 74.963L202.246 51.6204Z" fill="white"/>
    <path d="M251.775 87.0515H132.309V120.582H251.775V87.0515Z" fill="#C9C9C9"/>
    <path d="M251.775 83.5498H132.309V91.7465H251.775V83.5498Z" fill="#E6E6E6"/>
    <path d="M190.348 51.6203L192.282 43.215C192.282 43.215 192.346 39.2777 194.881 40.1939C197.416 41.1102 198.176 45.6735 196.81 47.2158C195.445 48.7581 194.535 46.6533 194.535 46.6533V51.3028L190.348 51.6203Z" fill="#F4A28C"/>
    <path opacity="0.1" d="M223.784 83.8309C223.784 83.8309 213.285 86.0582 217.672 90.2812C222.059 94.5043 219.638 100.442 216.598 102.157C213.558 103.871 200.965 105.94 204.988 120.405H190.793L189.747 112.694L180.645 103.114L184.622 93.8738L195.813 78.7097L203.395 84.974L207.546 83.5497L223.784 83.8309Z" fill="black"/>
    <path d="M187.822 51.235C187.822 51.235 172.029 49.8334 169.968 60.4614C167.906 71.0894 182.602 91.1479 182.602 91.1479L203.082 90.3541C203.082 90.3541 234.898 45.8099 187.822 51.235Z" fill="#FDAD00"/>
    <path d="M189.742 112.68C189.742 112.68 190.652 113.878 190.056 115.012C189.46 116.146 190.32 117.108 191.221 116.318C192.122 115.529 192.496 112.236 192.496 112.236L190.461 111.052L189.742 112.68Z" fill="#FDAD00"/>
    <path d="M182.603 91.1475C182.603 91.1475 181.238 98.2918 184.31 98.632C187.382 98.9722 209.113 99.9384 212.754 96.9038C216.395 93.8691 215.485 89.6733 203.083 90.3537L182.603 91.1475Z" fill="#24285B"/>
    <path d="M182.428 92.3816C182.428 92.3816 172.934 99.7754 177.827 105.219C182.719 110.662 189.773 113.837 189.773 113.837L190.797 111.229C190.797 111.229 176.006 99.7754 190.001 97.5074L182.428 92.3816Z" fill="#24285B"/>
    <path d="M194.575 68.3176H188.991C183.24 68.3176 178.578 72.9643 178.578 78.6962C178.578 84.4281 183.24 89.0747 188.991 89.0747H194.575C200.326 89.0747 204.988 84.4281 204.988 78.6962C204.988 72.9643 200.326 68.3176 194.575 68.3176Z" fill="#FFD200"/>
    <path d="M194.268 78.696H189.07V99.4849H194.268V78.696Z" fill="#FFD200"/>
    <path opacity="0.08" d="M194.268 78.696H189.07V99.4849H194.268V78.696Z" fill="black"/>
    <path d="M202.242 96.9038H181.375V103.114H202.242V96.9038Z" fill="#FFD200"/>
    <path d="M190.941 45.9684L190.973 43.9771C190.987 43.5188 190.907 43.0624 190.74 42.6353C190.573 42.2082 190.321 41.8191 189.999 41.4913C189.867 41.3885 189.756 41.2606 189.673 41.115C189.59 40.9694 189.537 40.809 189.517 40.6429C189.497 40.4769 189.51 40.3084 189.555 40.1473C189.6 39.9862 189.677 39.8356 189.781 39.7041C190.827 38.2117 191.71 39.1779 192.766 37.8579C193.822 36.5379 194.618 36.2794 195.852 37.8579C197.085 39.4365 198.054 37.5948 198.76 39.5272C199.465 41.4596 198.846 42.4257 196.116 42.6026C193.795 42.7523 194.514 45.3742 192.361 46.7531C192.222 46.8471 192.059 46.9008 191.891 46.9083C191.723 46.9157 191.556 46.8766 191.409 46.7954C191.262 46.7141 191.141 46.5938 191.058 46.4478C190.975 46.3018 190.935 46.1359 190.941 45.9684Z" fill="#24285B"/>
    <path d="M193.329 103.109H190.016V117.457H193.329V103.109Z" fill="#FFD200"/>
    <path opacity="0.08" d="M193.329 103.109H190.016V117.457H193.329V103.109Z" fill="black"/>
    <path d="M190.017 117.457L183.609 123.354H200.239L193.326 117.457H190.017Z" fill="#FFD200"/>
    <path d="M245.784 94.6633H233.496V115.869H245.784V94.6633Z" fill="#A5A5A5"/>
    <path d="M230.611 91.7463H227.73V120.582H230.611V91.7463Z" fill="#E6E6E6"/>
    <path d="M251.779 91.7463H248.898V120.582H251.779V91.7463Z" fill="#E6E6E6"/>
    <path d="M251.785 115.869H230.336V120.578H251.785V115.869Z" fill="#E6E6E6"/>
    <path d="M138.375 91.7463H132.309V120.582H138.375V91.7463Z" fill="#E6E6E6"/>
    <path opacity="0.42" d="M155.673 112.427H138.379V115.869H155.673V112.427Z" fill="#A5A5A5"/>
    <path d="M164.429 115.733H138.379V120.578H164.429V115.733Z" fill="#A5A5A5"/>
    <path d="M172.598 48.7581H164.738V50.0962H172.598V48.7581Z" fill="#FDAD00"/>
    <path d="M163.595 74.3279C164.527 74.3279 165.283 73.5745 165.283 72.645C165.283 71.7156 164.527 70.9622 163.595 70.9622C162.662 70.9622 161.906 71.7156 161.906 72.645C161.906 73.5745 162.662 74.3279 163.595 74.3279Z" fill="#A5A5A5"/>
    <path d="M206.301 45.4874C206.65 45.4874 206.933 45.2051 206.933 44.8568C206.933 44.5086 206.65 44.2263 206.301 44.2263C205.951 44.2263 205.668 44.5086 205.668 44.8568C205.668 45.2051 205.951 45.4874 206.301 45.4874Z" fill="white"/>
    <path opacity="0.58" d="M146.052 107.292C146.052 107.292 141.86 106.149 140.945 102.261C140.945 102.261 147.444 100.955 147.626 107.636L146.052 107.292Z" fill="#FDAD00"/>
    <path opacity="0.73" d="M146.542 106.897C146.542 106.897 143.611 102.279 146.191 97.9653C146.191 97.9653 151.129 101.091 148.922 106.906L146.542 106.897Z" fill="#FDAD00"/>
    <path d="M147.301 106.897C147.301 106.897 148.848 102.025 153.527 101.1C153.527 101.1 154.4 104.275 150.496 106.911L147.301 106.897Z" fill="#FDAD00"/>
    <path d="M144.258 106.77L145.104 112.567L150.456 112.59L151.248 106.802L144.258 106.77Z" fill="#24285B"/>
    <path d="M241.719 101.086C242.589 101.086 243.294 100.384 243.294 99.5167C243.294 98.6499 242.589 97.9473 241.719 97.9473C240.85 97.9473 240.145 98.6499 240.145 99.5167C240.145 100.384 240.85 101.086 241.719 101.086Z" fill="white"/>
    <path opacity="0.18" d="M244.163 103.109H235.594V113.828H244.163V103.109Z" fill="white"/>
</svg>
