<svg width="295" height="154" viewBox="0 0 295 154" fill="none" xmlns="http://www.w3.org/2000/svg">
    <path d="M282 33L269.598 38.8378L273.419 41.5045L266.569 51.5946L252.797 42.7297L244 54.982L246.884 57L253.734 47.4865L267.579 56.3514L276.376 43.5225L280.918 46.6937L282 33Z" fill="#75CED4"/>
    <path d="M193 59L183.198 63.6458L186.228 65.7304L180.822 73.7116L169.95 66.7429L163 76.3918L165.257 78L170.663 70.4953L181.594 77.5235L188.545 67.3386L192.109 69.8401L193 59Z" fill="#75CED4"/>
    <path d="M295 107L281.931 113.113L285.97 115.856L278.762 126.357L264.267 117.188L255 129.884L258.01 132L265.218 122.125L279.792 131.373L289.059 117.972L293.812 121.263L295 107Z" fill="#75CED4"/>
    <path d="M232.998 15.8163H229.075V3.92245H217.055V0H232.998V15.8163Z" fill="#FA00FF"/>
    <path d="M225.41 23.4081H221.488V11.3877H209.594V7.5918H225.41V23.4081Z" fill="#FA00FF"/>
    <path d="M217.816 31H214.02V18.9796H202V15.0571H217.816V31Z" fill="#FA00FF"/>
    <g clip-path="url(#clip0)">
        <path d="M16.002 146.163H13.9775V140.024H7.77344V138H16.002V146.163Z" fill="#FA00FF"/>
        <path d="M12.0812 150.082H10.0567V143.878H3.91797V141.918H12.0812V150.082Z" fill="#FA00FF"/>
        <path d="M8.16327 154H6.20408V147.796H0V145.771H8.16327V154Z" fill="#FA00FF"/>
    </g>
    <path d="M48 130.09C48.8917 130.201 49.7833 130.313 50.7865 130.425" stroke="#75CED4" stroke-miterlimit="10"/>
    <path d="M56.3594 130.871C62.4896 131.094 68.7313 130.425 74.4158 128.082C82.6637 124.735 89.7971 117.372 90.8003 108.559C91.3576 103.874 89.0169 97.961 84.2242 97.7379C82.6637 97.6263 81.1033 98.2957 79.8773 99.1882C75.3074 102.535 75.0845 109.898 78.7627 114.249C82.4408 118.599 88.794 119.827 94.2555 118.265C99.6055 116.703 104.064 112.687 107.296 108.001C110.529 103.427 112.646 98.0726 113.649 92.4946" stroke="#75CED4" stroke-miterlimit="10" stroke-dasharray="5 5"/>
    <path d="M113.984 89.817C114.096 88.9246 114.207 87.9205 114.207 87.0281" stroke="#75CED4" stroke-miterlimit="10"/>
    <path d="M119 88.2553L113.761 80L109.191 88.59L119 88.2553Z" fill="#75CED4"/>
    <g clip-path="url(#clip1)">
        <path d="M233.529 133.331C251.932 133.331 266.85 127.317 266.85 119.898C266.85 112.48 251.932 106.466 233.529 106.466C215.126 106.466 200.207 112.48 200.207 119.898C200.207 127.317 215.126 133.331 233.529 133.331Z" fill="#00A5B0"/>
        <path d="M232.249 128.742C216.746 128.742 204.137 123.027 204.137 115.977C204.137 108.927 216.705 104.13 232.249 104.13C247.752 104.13 260.362 108.885 260.362 115.977C260.32 123.027 247.752 128.742 232.249 128.742Z" fill="#DA8100"/>
        <path d="M232.291 104.13C231.092 104.13 229.935 104.171 228.777 104.213V128.617C229.935 128.701 231.092 128.701 232.291 128.701C233.366 128.701 234.4 128.659 235.433 128.617V104.171C234.4 104.171 233.366 104.13 232.291 104.13Z" fill="#F4BD00"/>
        <path d="M237.168 104.297V128.534C238.408 128.45 239.648 128.284 240.806 128.117V104.63C239.648 104.505 238.408 104.38 237.168 104.297Z" fill="#F4BD00"/>
        <path d="M222.906 104.756V127.992C224.105 128.2 225.304 128.325 226.544 128.45V104.338C225.304 104.464 224.105 104.589 222.906 104.756Z" fill="#F4BD00"/>
        <path d="M256.021 109.469C255.483 109.136 254.946 108.802 254.326 108.468V109.469H210.71V108.176C209.883 108.593 209.098 109.011 208.436 109.469H204.137V115.977C204.137 119.106 206.617 121.984 210.71 124.195V115.977H254.326V123.862C258.088 121.692 260.32 118.939 260.32 115.977V109.469H256.021Z" fill="#C3690D"/>
        <path d="M232.249 122.693C247.775 122.693 260.362 116.978 260.362 109.928C260.362 102.878 247.775 97.1631 232.249 97.1631C216.723 97.1631 204.137 102.878 204.137 109.928C204.137 116.978 216.723 122.693 232.249 122.693Z" fill="#FFDD00"/>
        <path d="M232.248 119.44C244.441 119.44 254.325 115.107 254.325 109.761C254.325 104.416 244.441 100.083 232.248 100.083C220.056 100.083 210.172 104.416 210.172 109.761C210.172 115.107 220.056 119.44 232.248 119.44Z" fill="#DA8100"/>
        <path d="M232.248 119.565C244.441 119.565 254.325 115.549 254.325 110.596C254.325 105.642 244.441 101.627 232.248 101.627C220.056 101.627 210.172 105.642 210.172 110.596C210.172 115.549 220.056 119.565 232.248 119.565Z" fill="#F0AA00"/>
        <path d="M239.319 110.929C239.609 111.263 239.733 111.722 239.733 112.223C239.733 112.807 239.526 113.307 239.195 113.724C238.823 114.142 238.327 114.475 237.748 114.726C237.128 114.976 236.467 115.185 235.681 115.31C234.896 115.435 234.11 115.518 233.283 115.56V117.395H231.134V115.56C229.893 115.477 228.653 115.351 227.413 115.143C226.173 114.934 225.098 114.642 224.105 114.308L226.379 111.764C226.875 111.931 227.371 112.098 227.95 112.264C228.405 112.39 228.984 112.515 229.604 112.64C230.224 112.765 230.844 112.848 231.506 112.932V111.597C230.927 111.513 230.389 111.43 229.811 111.305C228.984 111.138 228.24 110.971 227.62 110.763C226.999 110.554 226.503 110.345 226.09 110.137C225.676 109.887 225.387 109.636 225.222 109.344C225.015 109.052 224.932 108.677 224.932 108.301C224.932 107.759 225.098 107.3 225.428 106.883C225.759 106.466 226.214 106.132 226.751 105.798C227.33 105.506 227.95 105.256 228.694 105.089C229.439 104.922 230.224 104.797 231.092 104.755V103.254H233.242V104.797C233.821 104.839 234.4 104.922 234.978 105.006C235.557 105.089 236.053 105.173 236.591 105.298C237.087 105.423 237.583 105.506 238.038 105.631C238.492 105.757 238.906 105.84 239.278 105.965L237.004 108.385C236.591 108.26 236.177 108.093 235.723 107.968C235.309 107.842 234.896 107.759 234.4 107.634C233.904 107.55 233.407 107.467 232.911 107.425V108.76C233.077 108.802 233.242 108.802 233.407 108.844C233.573 108.885 233.779 108.927 233.986 108.927C234.854 109.094 235.681 109.261 236.384 109.428C237.087 109.595 237.707 109.845 238.203 110.095C238.658 110.304 239.071 110.596 239.319 110.929ZM233.779 112.765C233.945 112.682 234.069 112.598 234.069 112.431C234.069 112.306 233.945 112.181 233.738 112.056C233.531 111.931 233.242 111.847 232.87 111.764V112.89C233.283 112.89 233.614 112.848 233.779 112.765ZM231.464 108.426V107.3C230.762 107.342 230.389 107.509 230.389 107.801C230.389 107.968 230.472 108.093 230.679 108.176C230.844 108.26 231.092 108.343 231.464 108.426Z" fill="#DA8100"/>
        <path d="M238.948 110.637C239.238 110.971 239.362 111.43 239.362 111.931C239.362 112.515 239.155 113.015 238.824 113.432C238.452 113.85 237.956 114.183 237.377 114.434C236.757 114.684 236.096 114.893 235.31 115.018C234.525 115.143 233.739 115.226 232.912 115.268V117.104H230.763V115.268C229.522 115.185 228.282 115.059 227.042 114.851C225.801 114.642 224.727 114.35 223.734 114.017L226.008 111.472C226.504 111.639 227 111.806 227.579 111.972C228.034 112.098 228.613 112.223 229.233 112.348C229.853 112.473 230.473 112.556 231.135 112.64V111.305C230.556 111.222 230.018 111.138 229.44 111.013C228.613 110.846 227.869 110.679 227.248 110.471C226.628 110.262 226.132 110.053 225.719 109.845C225.305 109.595 225.016 109.344 224.851 109.052C224.644 108.76 224.561 108.385 224.561 108.009C224.561 107.467 224.727 107.008 225.057 106.591C225.388 106.174 225.843 105.84 226.38 105.506C226.959 105.214 227.579 104.964 228.323 104.797C229.067 104.63 229.853 104.505 230.721 104.463V102.962H232.871V104.505C233.45 104.547 234.029 104.63 234.607 104.714C235.186 104.797 235.682 104.881 236.22 105.006C236.716 105.131 237.212 105.214 237.667 105.34C238.121 105.465 238.535 105.548 238.907 105.673L236.633 108.093C236.22 107.968 235.806 107.801 235.351 107.676C234.938 107.55 234.525 107.467 234.029 107.342C233.532 107.258 233.036 107.175 232.54 107.133V108.468C232.706 108.51 232.871 108.51 233.036 108.552C233.202 108.593 233.408 108.635 233.615 108.635C234.483 108.802 235.31 108.969 236.013 109.136C236.716 109.303 237.336 109.553 237.832 109.803C238.287 110.012 238.7 110.304 238.948 110.637ZM233.408 112.473C233.574 112.39 233.698 112.306 233.698 112.139C233.698 112.014 233.574 111.889 233.367 111.764C233.16 111.639 232.871 111.555 232.499 111.472V112.598C232.912 112.598 233.243 112.556 233.408 112.473ZM231.093 108.135V107.008C230.39 107.05 230.018 107.217 230.018 107.509C230.018 107.676 230.101 107.801 230.308 107.884C230.473 107.968 230.721 108.051 231.093 108.135Z" fill="#FFDD00"/>
        <path d="M235.144 120.608C219.641 120.608 207.031 114.893 207.031 107.843C207.031 100.793 219.599 95.9951 235.144 95.9951C250.647 95.9951 263.256 100.751 263.256 107.843C263.256 114.893 250.688 120.608 235.144 120.608Z" fill="#DA8100"/>
        <path d="M235.225 95.9951C234.026 95.9951 232.869 96.0368 231.711 96.0785V120.483C232.869 120.566 234.026 120.566 235.225 120.566C236.3 120.566 237.333 120.524 238.367 120.483V96.0368C237.333 96.0368 236.259 95.9951 235.225 95.9951Z" fill="#F4BD00"/>
        <path d="M240.105 96.1621V120.399C241.346 120.316 242.586 120.149 243.744 119.982V96.4958C242.586 96.3707 241.346 96.2455 240.105 96.1621Z" fill="#F4BD00"/>
        <path d="M225.84 96.621V119.857C227.039 120.066 228.238 120.191 229.478 120.316V96.2039C228.238 96.329 227.039 96.4542 225.84 96.621Z" fill="#F4BD00"/>
        <path d="M258.954 101.293C258.417 100.959 257.88 100.626 257.259 100.292V101.293H213.644V100C212.817 100.417 212.031 100.834 211.37 101.293H207.07V107.801C207.07 110.93 209.551 113.808 213.644 116.019V107.801H257.259V115.685C261.022 113.516 263.254 110.763 263.254 107.801V101.293H258.954Z" fill="#C3690D"/>
        <path d="M235.144 114.559C250.67 114.559 263.256 108.844 263.256 101.794C263.256 94.7437 250.67 89.0286 235.144 89.0286C219.618 89.0286 207.031 94.7437 207.031 101.794C207.031 108.844 219.618 114.559 235.144 114.559Z" fill="#FFDD00"/>
        <path d="M235.143 111.305C247.336 111.305 257.22 106.972 257.22 101.627C257.22 96.2818 247.336 91.9487 235.143 91.9487C222.95 91.9487 213.066 96.2818 213.066 101.627C213.066 106.972 222.95 111.305 235.143 111.305Z" fill="#DA8100"/>
        <path d="M235.143 111.43C247.336 111.43 257.22 107.415 257.22 102.461C257.22 97.5078 247.336 93.4922 235.143 93.4922C222.95 93.4922 213.066 97.5078 213.066 102.461C213.066 107.415 222.95 111.43 235.143 111.43Z" fill="#F0AA00"/>
        <path d="M242.253 102.795C242.542 103.129 242.666 103.588 242.666 104.088C242.666 104.672 242.46 105.173 242.129 105.59C241.757 106.007 241.261 106.341 240.682 106.591C240.062 106.841 239.4 107.05 238.615 107.175C237.829 107.3 237.044 107.384 236.217 107.425V109.261H234.067V107.425C232.827 107.342 231.587 107.217 230.346 107.008C229.106 106.8 228.031 106.508 227.039 106.174L229.313 103.629C229.809 103.796 230.305 103.963 230.884 104.13C231.339 104.255 231.917 104.38 232.538 104.505C233.158 104.63 233.778 104.714 234.439 104.797V103.462C233.86 103.379 233.323 103.296 232.744 103.17C231.917 103.004 231.173 102.837 230.553 102.628C229.933 102.419 229.437 102.211 229.023 102.002C228.61 101.752 228.321 101.502 228.155 101.21C227.949 100.918 227.866 100.542 227.866 100.167C227.866 99.6245 228.031 99.1656 228.362 98.7485C228.693 98.3313 229.148 97.9976 229.685 97.6638C230.264 97.3718 230.884 97.1215 231.628 96.9547C232.372 96.7878 233.158 96.6626 234.026 96.6209V95.1191H236.176V96.6626C236.754 96.7044 237.333 96.7878 237.912 96.8712C238.491 96.9547 238.987 97.0381 239.524 97.1632C240.02 97.2884 240.517 97.3718 240.971 97.497C241.426 97.6221 241.839 97.7056 242.212 97.8307L239.938 100.25C239.524 100.125 239.111 99.9582 238.656 99.8331C238.243 99.7079 237.829 99.6245 237.333 99.4994C236.837 99.4159 236.341 99.3325 235.845 99.2908V100.626C236.01 100.667 236.176 100.667 236.341 100.709C236.506 100.751 236.713 100.793 236.92 100.793C237.788 100.959 238.615 101.126 239.318 101.293C240.02 101.46 240.641 101.71 241.137 101.961C241.591 102.127 242.005 102.461 242.253 102.795ZM236.713 104.63C236.878 104.547 237.002 104.464 237.002 104.297C237.002 104.172 236.878 104.046 236.672 103.921C236.465 103.796 236.176 103.713 235.804 103.629V104.756C236.217 104.756 236.548 104.714 236.713 104.63ZM234.398 100.292V99.1656C233.695 99.2073 233.323 99.3742 233.323 99.6662C233.323 99.8331 233.406 99.9582 233.612 100.042C233.778 100.125 234.026 100.209 234.398 100.292Z" fill="#DA8100"/>
        <path d="M241.882 102.503C242.171 102.837 242.295 103.296 242.295 103.796C242.295 104.38 242.089 104.881 241.758 105.298C241.386 105.715 240.89 106.049 240.311 106.299C239.691 106.549 239.029 106.758 238.244 106.883C237.458 107.008 236.673 107.092 235.846 107.133V108.969H233.696V107.133C232.456 107.05 231.216 106.925 229.975 106.716C228.735 106.508 227.66 106.216 226.668 105.882L228.942 103.337C229.438 103.504 229.934 103.671 230.513 103.838C230.968 103.963 231.546 104.088 232.166 104.213C232.787 104.338 233.407 104.422 234.068 104.505V103.17C233.489 103.087 232.952 103.004 232.373 102.878C231.546 102.712 230.802 102.545 230.182 102.336C229.562 102.128 229.066 101.919 228.652 101.71C228.239 101.46 227.95 101.21 227.784 100.918C227.577 100.626 227.495 100.25 227.495 99.8748C227.495 99.3325 227.66 98.8736 227.991 98.4565C228.322 98.0393 228.776 97.7056 229.314 97.3718C229.893 97.0798 230.513 96.8295 231.257 96.6627C232.001 96.4958 232.787 96.3707 233.655 96.3289V94.8271H235.805V96.3707C236.383 96.4124 236.962 96.4958 237.541 96.5792C238.12 96.6627 238.616 96.7461 239.153 96.8713C239.649 96.9964 240.145 97.0798 240.6 97.205C241.055 97.3301 241.468 97.4136 241.84 97.5387L239.567 99.9583C239.153 99.8331 238.74 99.6662 238.285 99.5411C237.872 99.4159 237.458 99.3325 236.962 99.2074C236.466 99.1239 235.97 99.0405 235.474 98.9988V100.334C235.639 100.375 235.805 100.375 235.97 100.417C236.135 100.459 236.342 100.501 236.549 100.501C237.417 100.667 238.244 100.834 238.947 101.001C239.649 101.168 240.269 101.418 240.766 101.669C241.22 101.835 241.592 102.169 241.882 102.503ZM236.342 104.338C236.507 104.255 236.631 104.172 236.631 104.005C236.631 103.88 236.507 103.754 236.301 103.629C236.094 103.504 235.805 103.421 235.432 103.337V104.464C235.846 104.464 236.135 104.422 236.342 104.338ZM234.027 100V98.8736C233.324 98.9154 232.952 99.0822 232.952 99.3742C232.952 99.5411 233.035 99.6662 233.241 99.7497C233.365 99.8331 233.655 99.9165 234.027 100Z" fill="#FFDD00"/>
        <path d="M232.249 113.14C216.746 113.14 204.137 107.425 204.137 100.375C204.137 93.3252 216.705 88.5278 232.249 88.5278C247.752 88.5278 260.362 93.2835 260.362 100.375C260.32 107.425 247.752 113.14 232.249 113.14Z" fill="#DA8100"/>
        <path d="M232.291 88.5278C231.092 88.5278 229.935 88.5695 228.777 88.6113V113.015C229.935 113.099 231.092 113.099 232.291 113.099C233.366 113.099 234.4 113.057 235.433 113.015V88.5695C234.4 88.5695 233.366 88.5278 232.291 88.5278Z" fill="#F4BD00"/>
        <path d="M237.168 88.6948V112.932C238.408 112.849 239.648 112.682 240.806 112.515V89.0286C239.648 88.9034 238.408 88.7783 237.168 88.6948Z" fill="#F4BD00"/>
        <path d="M222.906 89.1537V112.39C224.105 112.598 225.304 112.723 226.544 112.849V88.7366C225.304 88.8617 224.105 88.9869 222.906 89.1537Z" fill="#F4BD00"/>
        <path d="M256.021 93.8259C255.483 93.4922 254.946 93.1585 254.326 92.8247V93.8259H210.71V92.5327C209.883 92.9499 209.098 93.367 208.436 93.8259H204.137V100.334C204.137 103.462 206.617 106.341 210.71 108.552V100.334H254.326V108.218C258.088 106.049 260.32 103.296 260.32 100.334V93.8259H256.021Z" fill="#C3690D"/>
        <path d="M232.249 107.092C247.775 107.092 260.362 101.377 260.362 94.3265C260.362 87.2765 247.775 81.5613 232.249 81.5613C216.723 81.5613 204.137 87.2765 204.137 94.3265C204.137 101.377 216.723 107.092 232.249 107.092Z" fill="#FFDD00"/>
        <path d="M232.248 103.838C244.441 103.838 254.325 99.5047 254.325 94.1596C254.325 88.8145 244.441 84.4814 232.248 84.4814C220.056 84.4814 210.172 88.8145 210.172 94.1596C210.172 99.5047 220.056 103.838 232.248 103.838Z" fill="#DA8100"/>
        <path d="M232.248 103.963C244.441 103.963 254.325 99.9474 254.325 94.9939C254.325 90.0405 244.441 86.0249 232.248 86.0249C220.056 86.0249 210.172 90.0405 210.172 94.9939C210.172 99.9474 220.056 103.963 232.248 103.963Z" fill="#F0AA00"/>
        <path d="M239.319 95.3277C239.609 95.6614 239.733 96.1203 239.733 96.6209C239.733 97.2049 239.526 97.7055 239.195 98.1227C238.823 98.5398 238.327 98.8736 237.748 99.1239C237.128 99.3742 236.467 99.5827 235.681 99.7079C234.896 99.833 234.11 99.9165 233.283 99.9582V101.794H231.134V99.9582C229.893 99.8747 228.653 99.7496 227.413 99.541C226.173 99.3324 225.098 99.0404 224.105 98.7067L226.379 96.162C226.875 96.3289 227.371 96.4957 227.95 96.6626C228.405 96.7877 228.984 96.9129 229.604 97.038C230.224 97.1632 230.844 97.2466 231.506 97.33V95.9951C230.927 95.9117 230.389 95.8283 229.811 95.7031C228.984 95.5362 228.24 95.3694 227.62 95.1608C226.999 94.9522 226.503 94.7436 226.09 94.5351C225.676 94.2848 225.387 94.0345 225.222 93.7424C225.015 93.4504 224.932 93.075 224.932 92.6995C224.932 92.1572 225.098 91.6983 225.428 91.2812C225.759 90.864 226.214 90.5303 226.751 90.1966C227.33 89.9045 227.95 89.6542 228.694 89.4874C229.439 89.3205 230.224 89.1954 231.092 89.1536V87.6519H233.242V89.1954C233.821 89.2371 234.4 89.3205 234.978 89.4039C235.557 89.4874 236.053 89.5708 236.591 89.696C237.087 89.8211 237.583 89.9045 238.038 90.0297C238.492 90.1548 238.906 90.2383 239.278 90.3634L237.004 92.783C236.591 92.6578 236.177 92.491 235.723 92.3658C235.309 92.2407 234.896 92.1572 234.4 92.0321C233.904 91.9486 233.407 91.8652 232.911 91.8235V93.1584C233.077 93.2001 233.242 93.2001 233.407 93.2419C233.573 93.2836 233.779 93.3253 233.986 93.3253C234.854 93.4921 235.681 93.659 236.384 93.8259C237.087 93.9927 237.707 94.243 238.203 94.4933C238.699 94.6602 239.071 94.9939 239.319 95.3277ZM233.779 97.1632C233.945 97.0798 234.069 96.9963 234.069 96.8295C234.069 96.7043 233.945 96.5792 233.738 96.454C233.531 96.3289 233.242 96.2454 232.87 96.162V97.2883C233.283 97.2883 233.614 97.2466 233.779 97.1632ZM231.464 92.8247V91.6983C230.762 91.7401 230.389 91.9069 230.389 92.1989C230.389 92.3658 230.472 92.491 230.679 92.5744C230.844 92.6578 231.092 92.7413 231.464 92.8247Z" fill="#DA8100"/>
        <path d="M238.947 95.0357C239.236 95.3694 239.36 95.8283 239.36 96.3289C239.36 96.9129 239.153 97.4135 238.781 97.8307C238.409 98.2478 237.913 98.5816 237.334 98.8319C236.714 99.0822 236.053 99.2907 235.267 99.4159C234.482 99.541 233.696 99.6245 232.869 99.6662V101.502H230.72V99.6662C229.479 99.5827 228.239 99.4576 226.999 99.249C225.759 99.0404 224.684 98.7484 223.691 98.4147L225.965 95.87C226.461 96.0369 226.957 96.2037 227.536 96.3706C227.991 96.4957 228.57 96.6209 229.19 96.746C229.81 96.8712 230.43 96.9546 231.092 97.0381V95.7031C230.513 95.6197 229.975 95.5363 229.397 95.4111C228.57 95.2443 227.826 95.0774 227.205 94.8688C226.585 94.6602 226.089 94.4516 225.676 94.2431C225.262 93.9928 224.973 93.7425 224.808 93.4505C224.601 93.1584 224.518 92.783 224.518 92.4075C224.518 91.8652 224.684 91.4063 225.014 90.9892C225.345 90.572 225.8 90.2383 226.337 89.9046C226.916 89.6125 227.536 89.3622 228.28 89.1954C229.025 89.0285 229.81 88.9034 230.678 88.8617V87.3599H232.828V88.9034C233.407 88.9451 233.986 89.0285 234.564 89.1119C235.143 89.1954 235.639 89.2788 236.177 89.404C236.673 89.5291 237.169 89.6125 237.624 89.7377C238.078 89.8628 238.492 89.9463 238.864 90.0714L236.59 92.491C236.177 92.3658 235.763 92.199 235.308 92.0738C234.895 91.9487 234.482 91.8652 233.986 91.7401C233.489 91.6566 232.993 91.5732 232.497 91.5315V92.8664C232.663 92.9081 232.828 92.9081 232.993 92.9498C233.159 92.9916 233.365 93.0333 233.572 93.0333C234.44 93.2002 235.267 93.367 235.97 93.5339C236.673 93.7007 237.293 93.951 237.789 94.2013C238.285 94.3682 238.699 94.7019 238.947 95.0357ZM233.407 96.8712C233.572 96.7878 233.696 96.7043 233.696 96.5375C233.696 96.4123 233.572 96.2872 233.365 96.162C233.159 96.0369 232.869 95.9534 232.497 95.87V96.9963C232.911 96.9963 233.241 96.9546 233.407 96.8712ZM231.092 92.5327V91.4063C230.389 91.4481 230.017 91.6149 230.017 91.9069C230.017 92.0738 230.099 92.199 230.306 92.2824C230.471 92.3658 230.72 92.4493 231.092 92.5327Z" fill="#FFDD00"/>
        <path d="M232.249 105.089C216.746 105.089 204.137 99.3741 204.137 92.324C204.137 85.2739 216.705 80.4766 232.249 80.4766C247.752 80.4766 260.362 85.2322 260.362 92.324C260.32 99.3741 247.752 105.089 232.249 105.089Z" fill="#DA8100"/>
        <path d="M232.291 80.4766C231.092 80.4766 229.935 80.5183 228.777 80.56V104.964C229.935 105.047 231.092 105.047 232.291 105.047C233.366 105.047 234.4 105.006 235.433 104.964V80.5183C234.4 80.5183 233.366 80.4766 232.291 80.4766Z" fill="#F4BD00"/>
        <path d="M237.168 80.6436V104.881C238.408 104.797 239.648 104.63 240.806 104.464V80.9773C239.648 80.8521 238.408 80.727 237.168 80.6436Z" fill="#F4BD00"/>
        <path d="M222.906 81.1025V104.338C224.105 104.547 225.304 104.672 226.544 104.797V80.6853C225.304 80.8105 224.105 80.9356 222.906 81.1025Z" fill="#F4BD00"/>
        <path d="M256.021 85.8164C255.483 85.4827 254.946 85.1489 254.326 84.8152V85.8164H210.71V84.5232C209.883 84.9404 209.098 85.3575 208.436 85.8164H204.137V92.3241C204.137 95.4529 206.617 98.3313 210.71 100.542V92.3241H254.326V100.209C258.088 98.0393 260.32 95.286 260.32 92.3241V85.8164H256.021Z" fill="#C3690D"/>
        <path d="M232.249 99.0404C247.775 99.0404 260.362 93.3252 260.362 86.2752C260.362 79.2252 247.775 73.51 232.249 73.51C216.723 73.51 204.137 79.2252 204.137 86.2752C204.137 93.3252 216.723 99.0404 232.249 99.0404Z" fill="#FFDD00"/>
        <path d="M232.248 95.7865C244.441 95.7865 254.325 91.4535 254.325 86.1084C254.325 80.7632 244.441 76.4302 232.248 76.4302C220.056 76.4302 210.172 80.7632 210.172 86.1084C210.172 91.4535 220.056 95.7865 232.248 95.7865Z" fill="#DA8100"/>
        <path d="M232.248 95.9117C244.441 95.9117 254.325 91.8961 254.325 86.9426C254.325 81.9892 244.441 77.9736 232.248 77.9736C220.056 77.9736 210.172 81.9892 210.172 86.9426C210.172 91.8961 220.056 95.9117 232.248 95.9117Z" fill="#F0AA00"/>
        <path d="M239.319 87.2764C239.609 87.6101 239.733 88.069 239.733 88.5696C239.733 89.1536 239.526 89.6542 239.195 90.0714C238.823 90.4886 238.327 90.8223 237.748 91.0726C237.128 91.3229 236.467 91.5315 235.681 91.6566C234.896 91.7818 234.11 91.8652 233.283 91.9069V93.7424H231.134V91.9069C229.893 91.8235 228.653 91.6983 227.413 91.4897C226.173 91.2812 225.098 90.9891 224.105 90.6554L226.379 88.1107C226.875 88.2776 227.371 88.4445 227.95 88.6113C228.405 88.7365 228.984 88.8616 229.604 88.9868C230.224 89.1119 230.844 89.1953 231.506 89.2788V87.9439C230.927 87.8604 230.389 87.777 229.811 87.6518C228.984 87.485 228.24 87.3181 227.62 87.1095C226.999 86.9009 226.503 86.6924 226.09 86.4838C225.676 86.2335 225.387 85.9832 225.222 85.6912C225.015 85.3992 224.932 85.0237 224.932 84.6483C224.932 84.106 225.098 83.6471 225.428 83.2299C225.759 82.8127 226.214 82.479 226.751 82.1453C227.33 81.8533 227.95 81.603 228.694 81.4361C229.439 81.2692 230.224 81.1441 231.092 81.1024V79.6006H233.242V81.1441C233.821 81.1858 234.4 81.2692 234.978 81.3527C235.557 81.4361 236.053 81.5195 236.591 81.6447C237.087 81.7698 237.583 81.8533 238.038 81.9784C238.492 82.1036 238.906 82.187 239.278 82.3121L237.004 84.6483C236.591 84.5231 236.177 84.3562 235.723 84.2311C235.309 84.106 234.896 84.0225 234.4 83.8974C233.904 83.8139 233.407 83.7305 232.911 83.6888V85.0237C233.077 85.0654 233.242 85.0654 233.407 85.1071C233.573 85.1489 233.779 85.1906 233.986 85.1906C234.854 85.3574 235.681 85.5243 236.384 85.6912C237.087 85.858 237.707 86.1083 238.203 86.3586C238.699 86.6507 239.071 86.9427 239.319 87.2764ZM233.779 89.1119C233.945 89.0285 234.069 88.945 234.069 88.7782C234.069 88.653 233.945 88.5279 233.738 88.4027C233.531 88.2776 233.242 88.1942 232.87 88.1107V89.2371C233.283 89.2371 233.614 89.1953 233.779 89.1119ZM231.464 84.7734V83.6471C230.762 83.6888 230.389 83.8557 230.389 84.1477C230.389 84.3145 230.472 84.4397 230.679 84.5231C230.844 84.6065 231.092 84.69 231.464 84.7734Z" fill="#DA8100"/>
        <path d="M238.947 86.9844C239.236 87.3181 239.36 87.777 239.36 88.2776C239.36 88.8616 239.153 89.3622 238.781 89.7794C238.409 90.1966 237.913 90.5303 237.334 90.7806C236.714 91.0309 236.053 91.2395 235.267 91.3646C234.482 91.4898 233.696 91.5732 232.869 91.6149V93.4504H230.72V91.6149C229.479 91.5315 228.239 91.4063 226.999 91.1977C225.759 90.9892 224.684 90.6972 223.691 90.3634L225.965 87.8187C226.461 87.9856 226.957 88.1525 227.536 88.3193C227.991 88.4445 228.57 88.5696 229.19 88.6948C229.81 88.8199 230.43 88.9033 231.092 88.9868V87.6519C230.513 87.5684 229.975 87.485 229.397 87.3598C228.57 87.193 227.826 87.0261 227.205 86.8175C226.585 86.609 226.089 86.4004 225.676 86.1918C225.262 85.9415 224.973 85.6912 224.808 85.3992C224.601 85.1072 224.518 84.7317 224.518 84.3563C224.518 83.814 224.684 83.3551 225.014 82.9379C225.345 82.5208 225.8 82.187 226.337 81.8533C226.916 81.5613 227.536 81.311 228.28 81.1441C229.025 80.9772 229.81 80.8521 230.678 80.8104V79.3086H232.828V80.8521C233.407 80.8938 233.986 80.9772 234.564 81.0607C235.143 81.1441 235.639 81.2275 236.177 81.3527C236.673 81.4778 237.169 81.5613 237.624 81.6864C238.078 81.8116 238.492 81.895 238.864 82.0202L236.59 84.4397C236.177 84.3146 235.763 84.1477 235.308 84.0225C234.895 83.8974 234.482 83.814 233.986 83.6888C233.489 83.6054 232.993 83.5219 232.497 83.4802V84.8151C232.663 84.8569 232.828 84.8569 232.993 84.8986C233.159 84.9403 233.365 84.982 233.572 84.982C234.44 85.1489 235.267 85.3157 235.97 85.4826C236.673 85.6495 237.293 85.8998 237.789 86.1501C238.285 86.3587 238.699 86.6507 238.947 86.9844ZM233.407 88.8199C233.572 88.7365 233.696 88.6531 233.696 88.4862C233.696 88.361 233.572 88.2359 233.365 88.1107C233.159 87.9856 232.869 87.9022 232.497 87.8187V88.9451C232.911 88.9451 233.241 88.9033 233.407 88.8199ZM231.092 84.4814V83.3551C230.389 83.3968 230.017 83.5637 230.017 83.8557C230.017 84.0225 230.099 84.1477 230.306 84.2311C230.471 84.3146 230.72 84.398 231.092 84.4814Z" fill="#FFDD00"/>
        <path d="M228.859 97.5384C213.355 97.5384 200.746 91.8233 200.746 84.7732C200.746 77.7232 213.314 72.9258 228.859 72.9258C244.362 72.9258 256.971 77.6814 256.971 84.7732C256.971 91.8233 244.362 97.5384 228.859 97.5384Z" fill="#DA8100"/>
        <path d="M228.901 72.9258C227.702 72.9258 226.544 72.9675 225.387 73.0092V97.4133C226.544 97.4967 227.702 97.4967 228.901 97.4967C229.976 97.4967 231.009 97.455 232.043 97.4133V72.9675C231.009 72.9675 229.976 72.9258 228.901 72.9258Z" fill="#F4BD00"/>
        <path d="M233.82 73.0928V97.33C235.061 97.2465 236.301 97.0797 237.458 96.9128V73.4265C236.259 73.3014 235.061 73.1762 233.82 73.0928Z" fill="#F4BD00"/>
        <path d="M219.555 73.5517V96.7877C220.754 96.9963 221.953 97.1214 223.193 97.2466V73.1345C221.953 73.2597 220.712 73.3848 219.555 73.5517Z" fill="#F4BD00"/>
        <path d="M252.672 78.2656C252.134 77.9319 251.597 77.5982 250.977 77.2644V78.2656H207.361V76.9724C206.534 77.3896 205.748 77.8067 205.087 78.2656H200.746V84.7734C200.746 87.9021 203.227 90.7805 207.319 92.9915V84.7734H250.935V92.6578C254.697 90.4885 256.93 87.7352 256.93 84.7734V78.2656H252.672Z" fill="#C3690D"/>
        <path d="M228.859 91.4896C244.385 91.4896 256.971 85.7744 256.971 78.7244C256.971 71.6744 244.385 65.9592 228.859 65.9592C213.332 65.9592 200.746 71.6744 200.746 78.7244C200.746 85.7744 213.332 91.4896 228.859 91.4896Z" fill="#FFDD00"/>
        <path d="M228.858 88.2358C241.05 88.2358 250.934 83.9027 250.934 78.5576C250.934 73.2125 241.05 68.8794 228.858 68.8794C216.665 68.8794 206.781 73.2125 206.781 78.5576C206.781 83.9027 216.665 88.2358 228.858 88.2358Z" fill="#DA8100"/>
        <path d="M228.858 88.3609C241.05 88.3609 250.934 84.3453 250.934 79.3919C250.934 74.4384 241.05 70.4229 228.858 70.4229C216.665 70.4229 206.781 74.4384 206.781 79.3919C206.781 84.3453 216.665 88.3609 228.858 88.3609Z" fill="#F0AA00"/>
        <path d="M235.97 79.7256C236.259 80.0593 236.383 80.5182 236.383 81.0188C236.383 81.6028 236.177 82.1034 235.805 82.5206C235.433 82.9378 234.936 83.2715 234.358 83.5218C233.738 83.7721 233.076 83.9807 232.291 84.1058C231.505 84.231 230.72 84.3144 229.893 84.3561V86.1916H227.743V84.3561C226.503 84.2727 225.262 84.1475 224.022 83.939C222.782 83.7304 221.707 83.4384 220.715 83.1046L222.989 80.5599C223.485 80.7268 223.981 80.8937 224.56 81.0605C225.014 81.1857 225.593 81.3108 226.213 81.436C226.833 81.5611 227.454 81.6446 228.115 81.728V80.3931C227.536 80.3096 226.999 80.2262 226.42 80.1011C225.593 79.9342 224.849 79.7673 224.229 79.5587C223.609 79.3502 223.113 79.1416 222.699 78.933C222.286 78.6827 221.996 78.4324 221.831 78.1404C221.624 77.8484 221.542 77.4729 221.542 77.0975C221.542 76.5552 221.707 76.0963 222.038 75.6791C222.369 75.262 222.823 74.9282 223.361 74.5945C223.94 74.3025 224.56 74.0522 225.304 73.8853C226.048 73.7185 226.833 73.5933 227.702 73.5516V72.0498H229.851V73.5933C230.43 73.635 231.009 73.7185 231.588 73.8019C232.167 73.8853 232.663 73.9688 233.2 74.0939C233.696 74.2191 234.192 74.3025 234.647 74.4276C235.102 74.5528 235.515 74.6362 235.887 74.7614L233.614 77.1809C233.2 77.0558 232.787 76.8889 232.332 76.7637C231.919 76.6386 231.505 76.5552 231.009 76.43C230.513 76.3466 230.017 76.2632 229.521 76.2214V77.5564C229.686 77.5981 229.851 77.5981 230.017 77.6398C230.182 77.6815 230.389 77.7232 230.596 77.7232C231.464 77.8901 232.291 78.057 232.993 78.2238C233.696 78.3907 234.316 78.641 234.812 78.8913C235.309 79.0999 235.681 79.3919 235.97 79.7256ZM230.43 81.5611C230.596 81.4777 230.72 81.3943 230.72 81.2274C230.72 81.1023 230.596 80.9771 230.389 80.852C230.182 80.7268 229.893 80.6434 229.521 80.5599V81.6863C229.934 81.6863 230.223 81.6446 230.43 81.5611ZM228.115 77.2226V76.0963C227.412 76.138 227.04 76.3049 227.04 76.5969C227.04 76.7637 227.123 76.8889 227.33 76.9723C227.454 77.0558 227.743 77.1392 228.115 77.2226Z" fill="#DA8100"/>
        <path d="M235.558 79.4336C235.847 79.7673 235.971 80.2262 235.971 80.7268C235.971 81.3109 235.764 81.8114 235.434 82.2286C235.061 82.6458 234.565 82.9795 233.987 83.2298C233.366 83.4801 232.705 83.6887 231.919 83.8138C231.134 83.939 230.348 84.0224 229.522 84.0641V85.8996H227.372V84.0641C226.132 83.9807 224.891 83.8555 223.651 83.647C222.411 83.4384 221.336 83.1464 220.344 82.8126L222.618 80.2679C223.114 80.4348 223.61 80.6017 224.189 80.7685C224.643 80.8937 225.222 81.0188 225.842 81.144C226.462 81.2691 227.082 81.3526 227.744 81.436V80.1011C227.165 80.0176 226.628 79.9342 226.049 79.8091C225.222 79.6422 224.478 79.4753 223.858 79.2668C223.238 79.0582 222.742 78.8496 222.328 78.641C221.915 78.3907 221.625 78.1404 221.46 77.8484C221.253 77.5564 221.171 77.1809 221.171 76.8055C221.171 76.2632 221.336 75.8043 221.667 75.3871C221.997 74.97 222.452 74.6362 222.99 74.3025C223.568 74.0105 224.189 73.7602 224.933 73.5933C225.677 73.4265 226.462 73.3013 227.331 73.2596V71.7578H229.48V73.3013C230.059 73.343 230.638 73.4265 231.217 73.5099C231.795 73.5933 232.292 73.6768 232.829 73.8019C233.325 73.9271 233.821 74.0105 234.276 74.1356C234.731 74.2608 235.144 74.3442 235.516 74.4694L233.242 76.8889C232.829 76.7638 232.416 76.5969 231.961 76.4718C231.547 76.3466 231.134 76.2632 230.638 76.138C230.142 76.0546 229.646 75.9712 229.15 75.9294V77.2644C229.315 77.3061 229.48 77.3061 229.646 77.3478C229.811 77.3895 230.018 77.4312 230.224 77.4312C231.093 77.5981 231.919 77.765 232.622 77.9318C233.325 78.0987 233.945 78.349 234.441 78.5993C234.937 78.8079 235.31 79.0999 235.558 79.4336ZM230.018 81.2691C230.183 81.1857 230.307 81.1023 230.307 80.9354C230.307 80.8103 230.183 80.6851 229.976 80.56C229.77 80.4348 229.48 80.3514 229.108 80.2679V81.3943C229.522 81.3943 229.852 81.3526 230.018 81.2691ZM227.703 76.9306V75.8043C227 75.846 226.628 76.0129 226.628 76.3049C226.628 76.4718 226.71 76.5969 226.917 76.6803C227.082 76.7638 227.372 76.8472 227.703 76.9306Z" fill="#FFDD00"/>
        <path d="M232.288 89.4456C216.785 89.4456 204.176 83.7305 204.176 76.6804C204.176 69.6304 216.744 64.833 232.288 64.833C247.792 64.833 260.401 69.5887 260.401 76.6804C260.359 83.7305 247.792 89.4456 232.288 89.4456Z" fill="#DA8100"/>
        <path d="M232.33 64.833C231.132 64.833 229.974 64.8747 228.816 64.9164V89.3205C229.974 89.4039 231.132 89.4039 232.33 89.4039C233.405 89.4039 234.439 89.3622 235.472 89.3205V64.9164C234.439 64.8747 233.405 64.833 232.33 64.833Z" fill="#F4BD00"/>
        <path d="M237.207 65V89.2372C238.447 89.1537 239.688 88.9869 240.845 88.82V65.3754C239.688 65.2086 238.447 65.0834 237.207 65Z" fill="#F4BD00"/>
        <path d="M222.945 65.4587V88.6947C224.144 88.9033 225.343 89.0284 226.583 89.1536V65.0833C225.343 65.1667 224.144 65.2918 222.945 65.4587Z" fill="#F4BD00"/>
        <path d="M256.06 70.1728C255.522 69.8391 254.985 69.5054 254.365 69.1717V70.1728H210.749V68.8796C209.922 69.2968 209.137 69.714 208.475 70.1728H204.176V76.6806C204.176 79.8093 206.656 82.6877 210.749 84.8987V76.6806H254.365V84.565C258.127 82.3957 260.359 79.6424 260.359 76.6806V70.1728H256.06Z" fill="#C3690D"/>
        <path d="M232.288 83.3969C247.814 83.3969 260.401 77.6817 260.401 70.6317C260.401 63.5816 247.814 57.8665 232.288 57.8665C216.762 57.8665 204.176 63.5816 204.176 70.6317C204.176 77.6817 216.762 83.3969 232.288 83.3969Z" fill="#FFDD00"/>
        <path d="M232.288 80.143C244.48 80.143 254.364 75.8099 254.364 70.4648C254.364 65.1197 244.48 60.7866 232.288 60.7866C220.095 60.7866 210.211 65.1197 210.211 70.4648C210.211 75.8099 220.095 80.143 232.288 80.143Z" fill="#DA8100"/>
        <path d="M232.288 80.2681C244.48 80.2681 254.364 76.2525 254.364 71.2991C254.364 66.3456 244.48 62.3301 232.288 62.3301C220.095 62.3301 210.211 66.3456 210.211 71.2991C210.211 76.2525 220.095 80.2681 232.288 80.2681Z" fill="#F0AA00"/>
        <path d="M239.361 71.6328C239.65 71.9666 239.774 72.4254 239.774 72.926C239.774 73.5101 239.567 74.0107 239.195 74.4278C238.823 74.845 238.327 75.1787 237.748 75.429C237.128 75.6793 236.467 75.8879 235.681 76.013C234.896 76.1382 234.11 76.2216 233.283 76.2633V78.0989H231.134V76.2633C229.893 76.1799 228.653 76.0548 227.413 75.8462C226.173 75.6376 225.098 75.3456 224.105 75.0119L226.379 72.4672C226.875 72.634 227.371 72.8009 227.95 72.9678C228.405 73.0929 228.984 73.2181 229.604 73.3432C230.224 73.4684 230.844 73.5518 231.506 73.6352V72.3003C230.927 72.2169 230.389 72.1334 229.811 72.0083C228.984 71.8414 228.24 71.6745 227.62 71.466C226.999 71.2574 226.503 71.0488 226.09 70.8402C225.676 70.5899 225.387 70.3396 225.222 70.0476C225.015 69.7556 224.932 69.3802 224.932 69.0047C224.932 68.4624 225.098 68.0035 225.428 67.5863C225.759 67.1692 226.214 66.8355 226.751 66.5017C227.33 66.2097 227.95 65.9594 228.694 65.7925C229.439 65.6257 230.224 65.5005 231.092 65.4588V63.957H233.242V65.5005C233.821 65.5422 234.4 65.6257 234.978 65.7091C235.557 65.7925 236.053 65.876 236.591 66.0011C237.087 66.1263 237.583 66.2097 238.038 66.3349C238.492 66.46 238.906 66.5434 239.278 66.6686L237.004 69.0881C236.591 68.963 236.177 68.7961 235.723 68.671C235.309 68.5458 234.896 68.4624 234.4 68.3372C233.904 68.2538 233.407 68.1704 232.911 68.1287V69.4636C233.077 69.5053 233.242 69.5053 233.407 69.547C233.573 69.5887 233.779 69.6304 233.986 69.6304C234.854 69.7973 235.681 69.9642 236.384 70.131C237.087 70.2979 237.707 70.5482 238.203 70.7985C238.741 71.0071 239.113 71.2991 239.361 71.6328ZM233.821 73.5101C233.986 73.4266 234.11 73.3432 234.11 73.1763C234.11 73.0512 233.986 72.926 233.779 72.8009C233.573 72.6757 233.283 72.5923 232.911 72.5089V73.6352C233.325 73.6352 233.655 73.5935 233.821 73.5101ZM231.506 69.1299V68.0035C230.803 68.0452 230.431 68.2121 230.431 68.5041C230.431 68.671 230.513 68.7961 230.72 68.8796C230.886 68.963 231.134 69.0464 231.506 69.1299Z" fill="#DA8100"/>
        <path d="M238.987 71.3408C239.277 71.6746 239.401 72.1335 239.401 72.6341C239.401 73.2181 239.194 73.7187 238.863 74.1358C238.491 74.553 237.995 74.8867 237.416 75.137C236.796 75.3873 236.135 75.5959 235.349 75.7211C234.564 75.8462 233.778 75.9296 232.951 75.9714V77.8069H230.802V75.9714C229.561 75.8879 228.321 75.7628 227.081 75.5542C225.841 75.3456 224.766 75.0536 223.773 74.7199L226.047 72.1752C226.543 72.342 227.039 72.5089 227.618 72.6758C228.073 72.8009 228.652 72.9261 229.272 73.0512C229.892 73.1764 230.512 73.2598 231.174 73.3432V72.0083C230.595 71.9249 230.057 71.8414 229.479 71.7163C228.652 71.5494 227.908 71.3826 227.287 71.174C226.667 70.9654 226.171 70.7568 225.758 70.5482C225.344 70.2979 225.055 70.0476 224.89 69.7556C224.683 69.4636 224.6 69.0882 224.6 68.7127C224.6 68.1704 224.766 67.7115 225.096 67.2944C225.427 66.8772 225.882 66.5435 226.419 66.2097C226.998 65.9177 227.618 65.6674 228.362 65.5006C229.107 65.3337 229.892 65.2085 230.76 65.1668V63.665H232.91V65.2085C233.489 65.2503 234.068 65.3337 234.646 65.4171C235.225 65.5006 235.721 65.584 236.259 65.7091C236.755 65.8343 237.251 65.9177 237.706 66.0429C238.16 66.168 238.574 66.2515 238.946 66.3766L236.672 68.7961C236.259 68.671 235.845 68.5041 235.391 68.379C234.977 68.2538 234.564 68.1704 234.068 68.0453C233.571 67.9618 233.075 67.8784 232.579 67.8367V69.1716C232.745 69.2133 232.91 69.2133 233.075 69.255C233.241 69.2967 233.447 69.3385 233.654 69.3385C234.522 69.5053 235.349 69.6722 236.052 69.8391C236.755 70.0059 237.375 70.2562 237.871 70.5065C238.326 70.7151 238.739 71.0071 238.987 71.3408ZM233.447 73.2181C233.613 73.1346 233.737 73.0512 233.737 72.8844C233.737 72.7592 233.613 72.6341 233.406 72.5089C233.199 72.3838 232.91 72.3003 232.538 72.2169V73.3432C232.951 73.3432 233.282 73.3015 233.447 73.2181ZM231.132 68.8379V67.7115C230.429 67.7532 230.057 67.9201 230.057 68.2121C230.057 68.379 230.14 68.5041 230.347 68.5876C230.512 68.671 230.76 68.7544 231.132 68.8379Z" fill="#FFDD00"/>
        <path d="M234.687 81.8531C219.184 81.8531 206.574 76.138 206.574 69.0879C206.574 62.0379 219.142 57.2405 234.687 57.2405C250.19 57.2405 262.799 61.9961 262.799 69.0879C262.799 76.138 250.231 81.8531 234.687 81.8531Z" fill="#DA8100"/>
        <path d="M234.729 57.2405C233.53 57.2405 232.372 57.2822 231.215 57.3239V81.728C232.372 81.8114 233.53 81.8114 234.729 81.8114C235.804 81.8114 236.837 81.7697 237.871 81.728V57.3239C236.879 57.2822 235.804 57.2405 234.729 57.2405Z" fill="#F4BD00"/>
        <path d="M239.648 57.4075V81.6447C240.889 81.5612 242.129 81.3944 243.287 81.2275V57.7412C242.088 57.6161 240.889 57.4909 239.648 57.4075Z" fill="#F4BD00"/>
        <path d="M225.383 57.8662V81.1022C226.582 81.3107 227.781 81.4359 229.021 81.561V57.4907C227.781 57.5742 226.54 57.6993 225.383 57.8662Z" fill="#F4BD00"/>
        <path d="M258.497 62.5803C257.96 62.2466 257.422 61.9129 256.802 61.5791V62.5803H213.187V61.2871C212.36 61.7043 211.574 62.1214 210.913 62.5803H206.613V69.0881C206.613 72.2168 209.094 75.0952 213.187 77.3062V69.0881H256.802V76.9725C260.564 74.8032 262.797 72.0499 262.797 69.0881V62.5803H258.497Z" fill="#C3690D"/>
        <path d="M234.687 75.8043C250.213 75.8043 262.799 70.0891 262.799 63.0391C262.799 55.9891 250.213 50.2739 234.687 50.2739C219.161 50.2739 206.574 55.9891 206.574 63.0391C206.574 70.0891 219.161 75.8043 234.687 75.8043Z" fill="#FFDD00"/>
        <path d="M234.686 72.5505C246.879 72.5505 256.763 68.2174 256.763 62.8723C256.763 57.5272 246.879 53.1941 234.686 53.1941C222.493 53.1941 212.609 57.5272 212.609 62.8723C212.609 68.2174 222.493 72.5505 234.686 72.5505Z" fill="#DA8100"/>
        <path d="M234.686 72.6756C246.879 72.6756 256.763 68.66 256.763 63.7066C256.763 58.7531 246.879 54.7375 234.686 54.7375C222.493 54.7375 212.609 58.7531 212.609 63.7066C212.609 68.66 222.493 72.6756 234.686 72.6756Z" fill="#F0AA00"/>
        <path d="M241.796 64.0403C242.085 64.374 242.209 64.8329 242.209 65.3335C242.209 65.9175 242.003 66.4181 241.672 66.8353C241.3 67.2525 240.804 67.5862 240.225 67.8365C239.605 68.0868 238.943 68.2954 238.158 68.4205C237.372 68.5457 236.587 68.6291 235.76 68.6708V70.5063H233.61V68.6708C232.37 68.5874 231.13 68.4622 229.889 68.2537C228.649 68.0451 227.574 67.7531 226.582 67.4193L228.856 64.8746C229.352 65.0415 229.848 65.2084 230.427 65.3752C230.882 65.5004 231.46 65.6255 232.081 65.7507C232.701 65.8758 233.321 65.9593 233.982 66.0427V64.7078C233.403 64.6243 232.866 64.5409 232.287 64.4158C231.46 64.2489 230.716 64.082 230.096 63.8734C229.476 63.6649 228.98 63.4563 228.566 63.2477C228.153 62.9974 227.864 62.7471 227.698 62.4551C227.492 62.1631 227.409 61.7876 227.409 61.4122C227.409 60.8699 227.574 60.411 227.905 59.9938C228.236 59.5767 228.69 59.2429 229.228 58.9092C229.807 58.6172 230.427 58.3669 231.171 58.2C231.915 58.0332 232.701 57.908 233.569 57.8663V56.3645H235.719V57.908C236.297 57.9497 236.876 58.0332 237.455 58.1166C238.034 58.2 238.53 58.2835 239.067 58.4086C239.563 58.5338 240.06 58.6172 240.514 58.7423C240.969 58.8675 241.382 58.9509 241.755 59.0761L239.481 61.4956C239.067 61.3705 238.654 61.2036 238.199 61.0784C237.786 60.9533 237.372 60.8699 236.876 60.7447C236.38 60.6613 235.884 60.5779 235.388 60.5361V61.8711C235.553 61.9128 235.719 61.9128 235.884 61.9545C236.049 61.9962 236.256 62.0379 236.463 62.0379C237.331 62.2048 238.158 62.3717 238.861 62.5385C239.563 62.7054 240.184 62.9557 240.68 63.206C241.134 63.4146 241.506 63.7066 241.796 64.0403ZM236.256 65.8758C236.421 65.7924 236.545 65.709 236.545 65.5421C236.545 65.4169 236.421 65.2918 236.215 65.1667C236.008 65.0415 235.719 64.9581 235.347 64.8746V66.001C235.76 66.001 236.049 65.9593 236.256 65.8758ZM233.941 61.5373V60.411C233.238 60.4527 232.866 60.6196 232.866 60.9116C232.866 61.0784 232.949 61.2036 233.155 61.287C233.279 61.3705 233.569 61.4539 233.941 61.5373Z" fill="#DA8100"/>
        <path d="M241.425 63.7483C241.714 64.082 241.838 64.5409 241.838 65.0415C241.838 65.6255 241.631 66.1261 241.301 66.5433C240.929 66.9605 240.433 67.2942 239.854 67.5445C239.234 67.7948 238.572 68.0034 237.787 68.1285C237.001 68.2537 236.216 68.3371 235.389 68.3788V70.2143H233.239V68.3788C231.999 68.2954 230.759 68.1702 229.518 67.9617C228.278 67.7531 227.203 67.4611 226.211 67.1273L228.485 64.5826C228.981 64.7495 229.477 64.9164 230.056 65.0832C230.51 65.2084 231.089 65.3335 231.709 65.4587C232.33 65.5838 232.95 65.6673 233.611 65.7507V64.4158C233.032 64.3323 232.495 64.2489 231.916 64.1238C231.089 63.9569 230.345 63.79 229.725 63.5814C229.105 63.3729 228.609 63.1643 228.195 62.9557C227.782 62.7054 227.493 62.4551 227.327 62.1631C227.12 61.8711 227.038 61.4956 227.038 61.1202C227.038 60.5779 227.203 60.119 227.534 59.7018C227.865 59.2847 228.319 58.9509 228.857 58.6172C229.436 58.3252 230.056 58.0749 230.8 57.908C231.544 57.7412 232.33 57.616 233.198 57.5743V56.0725H235.348V57.616C235.926 57.6577 236.505 57.7412 237.084 57.8246C237.663 57.908 238.159 57.9915 238.696 58.1166C239.192 58.2418 239.688 58.3252 240.143 58.4503C240.598 58.5755 241.011 58.6589 241.383 58.7841L239.11 61.2036C238.696 61.0785 238.283 60.9116 237.828 60.7865C237.415 60.6613 237.001 60.5779 236.505 60.4527C236.009 60.3693 235.513 60.2859 235.017 60.2441V61.5791C235.182 61.6208 235.347 61.6208 235.513 61.6625C235.678 61.7042 235.885 61.7459 236.092 61.7459C236.96 61.9128 237.787 62.0797 238.489 62.2465C239.192 62.4134 239.812 62.6637 240.309 62.914C240.763 63.1226 241.135 63.4146 241.425 63.7483ZM235.844 65.5838C236.009 65.5004 236.133 65.417 236.133 65.2501C236.133 65.125 236.009 64.9998 235.802 64.8747C235.596 64.7495 235.306 64.6661 234.934 64.5826V65.709C235.389 65.709 235.678 65.6673 235.844 65.5838ZM233.528 61.2453V60.119C232.826 60.1607 232.454 60.3276 232.454 60.6196C232.454 60.7865 232.536 60.9116 232.743 60.995C232.908 61.0785 233.198 61.1619 233.528 61.2453Z" fill="#FFDD00"/>
        <path d="M232.249 73.9271C216.746 73.9271 204.137 68.2119 204.137 61.1619C204.137 54.1118 216.705 49.3145 232.249 49.3145C247.752 49.3145 260.362 54.0701 260.362 61.1619C260.32 68.2119 247.752 73.9271 232.249 73.9271Z" fill="#DA8100"/>
        <path d="M232.291 49.3145C231.092 49.3145 229.935 49.3562 228.777 49.3979V73.8019C229.935 73.8854 231.092 73.8854 232.291 73.8854C233.366 73.8854 234.4 73.8436 235.433 73.8019V49.3979C234.4 49.3562 233.366 49.3145 232.291 49.3145Z" fill="#F4BD00"/>
        <path d="M237.168 49.4814V73.7186C238.408 73.6352 239.648 73.4683 240.806 73.3015V49.8569C239.648 49.69 238.408 49.5649 237.168 49.4814Z" fill="#F4BD00"/>
        <path d="M222.906 49.9401V73.1761C224.105 73.3847 225.304 73.5099 226.544 73.635V49.5647C225.304 49.6481 224.105 49.7733 222.906 49.9401Z" fill="#F4BD00"/>
        <path d="M256.021 54.6543C255.483 54.3206 254.946 53.9868 254.326 53.6531V54.6543H210.71V53.3611C209.883 53.7782 209.098 54.1954 208.436 54.6543H204.137V61.162C204.137 64.2908 206.617 67.1692 210.71 69.3802V61.162H254.326V69.0464C258.088 66.8772 260.32 64.1239 260.32 61.162V54.6543H256.021Z" fill="#C3690D"/>
        <path d="M232.249 67.8783C247.775 67.8783 260.362 62.1631 260.362 55.1131C260.362 48.0631 247.775 42.3479 232.249 42.3479C216.723 42.3479 204.137 48.0631 204.137 55.1131C204.137 62.1631 216.723 67.8783 232.249 67.8783Z" fill="#FFDD00"/>
        <path d="M232.248 64.6244C244.441 64.6244 254.325 60.2914 254.325 54.9463C254.325 49.6011 244.441 45.2681 232.248 45.2681C220.056 45.2681 210.172 49.6011 210.172 54.9463C210.172 60.2914 220.056 64.6244 232.248 64.6244Z" fill="#DA8100"/>
        <path d="M232.248 64.7495C244.441 64.7495 254.325 60.734 254.325 55.7805C254.325 50.8271 244.441 46.8115 232.248 46.8115C220.056 46.8115 210.172 50.8271 210.172 55.7805C210.172 60.734 220.056 64.7495 232.248 64.7495Z" fill="#F0AA00"/>
        <path d="M239.319 56.1143C239.609 56.448 239.733 56.9069 239.733 57.4075C239.733 57.9915 239.526 58.4921 239.195 58.9093C238.823 59.3264 238.327 59.6602 237.748 59.9105C237.128 60.1608 236.467 60.3693 235.681 60.4945C234.896 60.6196 234.11 60.7031 233.283 60.7448V62.5803H231.134V60.7448C229.893 60.6614 228.653 60.5362 227.413 60.3276C226.173 60.119 225.098 59.827 224.105 59.4933L226.379 56.9486C226.875 57.1155 227.371 57.2823 227.95 57.4492C228.405 57.5744 228.984 57.6995 229.604 57.8246C230.224 57.9498 230.844 58.0332 231.506 58.1167V56.7817C230.927 56.6983 230.389 56.6149 229.811 56.4897C228.984 56.3229 228.24 56.156 227.62 55.9474C226.999 55.7388 226.503 55.5303 226.09 55.3217C225.676 55.0714 225.387 54.8211 225.222 54.5291C225.015 54.237 224.932 53.8616 224.932 53.4862C224.932 52.9438 225.098 52.485 225.428 52.0678C225.759 51.6506 226.214 51.3169 226.751 50.9832C227.33 50.6912 227.95 50.4409 228.694 50.274C229.439 50.1071 230.224 49.982 231.092 49.9403V48.4385H233.242V49.982C233.821 50.0237 234.4 50.1071 234.978 50.1906C235.557 50.274 236.053 50.3574 236.591 50.4826C237.087 50.6077 237.583 50.6912 238.038 50.8163C238.492 50.9415 238.906 51.0249 239.278 51.15L237.004 53.5696C236.591 53.4444 236.177 53.2776 235.723 53.1524C235.309 53.0273 234.896 52.9438 234.4 52.8187C233.904 52.7353 233.407 52.6518 232.911 52.6101V53.945C233.077 53.9867 233.242 53.9867 233.407 54.0285C233.573 54.0702 233.779 54.1119 233.986 54.1119C234.854 54.2788 235.681 54.4456 236.384 54.6125C237.087 54.7794 237.707 55.0297 238.203 55.28C238.699 55.4885 239.071 55.7805 239.319 56.1143ZM233.779 57.9915C233.945 57.9081 234.069 57.8247 234.069 57.6578C234.069 57.5326 233.945 57.4075 233.738 57.2823C233.531 57.1572 233.242 57.0738 232.87 56.9903V58.1167C233.283 58.1167 233.614 58.0332 233.779 57.9915ZM231.464 53.6113V52.485C230.762 52.5267 230.389 52.6935 230.389 52.9856C230.389 53.1524 230.472 53.2776 230.679 53.361C230.844 53.4444 231.092 53.5279 231.464 53.6113Z" fill="#DA8100"/>
        <path d="M238.948 55.8223C239.238 56.156 239.362 56.6149 239.362 57.1155C239.362 57.6995 239.155 58.2001 238.824 58.6173C238.452 59.0344 237.956 59.3682 237.377 59.6185C236.757 59.8688 236.096 60.0774 235.31 60.2025C234.525 60.3277 233.739 60.4111 232.912 60.4528V62.2883H230.763V60.4528C229.522 60.3694 228.282 60.2442 227.042 60.0356C225.801 59.8271 224.727 59.535 223.734 59.2013L226.008 56.6566C226.504 56.8235 227 56.9903 227.579 57.1572C228.034 57.2824 228.613 57.4075 229.233 57.5327C229.853 57.6578 230.473 57.7412 231.135 57.8247V56.4897C230.556 56.4063 230.018 56.3229 229.44 56.1977C228.613 56.0309 227.869 55.864 227.248 55.6554C226.628 55.4468 226.132 55.2383 225.719 55.0297C225.305 54.7794 225.016 54.5291 224.851 54.2371C224.644 53.9451 224.561 53.5696 224.561 53.1942C224.561 52.6518 224.727 52.193 225.057 51.7758C225.388 51.3586 225.843 51.0249 226.38 50.6912C226.959 50.3992 227.579 50.1489 228.323 49.982C229.067 49.8151 229.853 49.69 230.721 49.6483V48.1465H232.871V49.69C233.45 49.7317 234.029 49.8151 234.607 49.8986C235.186 49.982 235.682 50.0654 236.22 50.1906C236.716 50.3157 237.212 50.3992 237.667 50.5243C238.121 50.6495 238.535 50.7329 238.907 50.858L236.633 53.2776C236.22 53.1524 235.806 52.9856 235.351 52.8604C234.938 52.7353 234.525 52.6518 234.029 52.5267C233.532 52.4433 233.036 52.3598 232.54 52.3181V53.653C232.706 53.6948 232.871 53.6948 233.036 53.7365C233.202 53.7782 233.408 53.8199 233.615 53.8199C234.483 53.9868 235.31 54.1536 236.013 54.3205C236.716 54.4874 237.336 54.7377 237.832 54.988C238.287 55.1965 238.7 55.4886 238.948 55.8223ZM233.408 57.6995C233.574 57.6161 233.698 57.5327 233.698 57.3658C233.698 57.2406 233.574 57.1155 233.367 56.9903C233.16 56.8652 232.871 56.7818 232.499 56.6983V57.8247C232.912 57.8247 233.243 57.7412 233.408 57.6995ZM231.093 53.3193V52.193C230.39 52.2347 230.018 52.4015 230.018 52.6936C230.018 52.8604 230.101 52.9856 230.308 53.069C230.473 53.1524 230.721 53.2359 231.093 53.3193Z" fill="#FFDD00"/>
        <path opacity="0.55" d="M215.668 83.5637C221.456 85.441 232.411 94.2431 233.61 108.927C234.809 123.611 231.419 128.784 231.419 128.784C231.419 128.784 221.001 128.45 217.322 126.573C220.588 120.858 217.652 84.8152 215.668 83.5637Z" fill="#C3690D"/>
        <path d="M227.036 112.014C229.64 97.4969 222.158 83.939 210.292 81.3944L205.455 80.5183L205.373 81.0189C194.789 81.6029 185.239 91.0308 182.924 104.005C180.609 116.978 186.314 129.201 196.03 133.456L195.947 133.957L200.784 134.833C212.773 136.585 224.473 126.531 227.036 112.014Z" fill="#DA8100"/>
        <path d="M209.219 103.671V106.257H227.575C227.575 105.381 227.533 104.505 227.451 103.671H209.219Z" fill="#F4BD00"/>
        <path d="M209.219 115.602H226.21C226.458 114.767 226.665 113.891 226.872 113.015H209.219V115.602Z" fill="#F4BD00"/>
        <path d="M209.219 111.597H227.12C227.327 110.262 227.492 108.885 227.533 107.592H209.219V111.597Z" fill="#F4BD00"/>
        <path d="M225.054 94.1178C222.16 87.6101 216.91 82.8127 210.336 81.3944L205.499 80.5183L205.417 81.0189C199.381 81.3109 193.717 89.0702 189.5 94.1178C207.112 94.1178 219.018 94.1178 225.054 94.1178Z" fill="#C3690D"/>
        <path d="M182.555 112.682C183.423 122.151 188.549 130.161 196.032 133.456L195.949 133.957L200.786 134.833C208.352 135.959 215.752 132.372 220.879 125.947C210.791 125.906 194.42 126.698 182.555 112.682Z" fill="#C3690D"/>
        <path d="M222.8 111.213C225.446 96.3838 217.717 82.5682 205.538 80.3555C193.358 78.1427 181.339 88.3707 178.693 103.2C176.047 118.03 183.776 131.846 195.956 134.058C208.135 136.271 220.154 126.043 222.8 111.213Z" fill="#FFDD00"/>
        <path d="M217.834 110.312C219.885 98.8152 213.897 88.1056 204.459 86.3909C195.021 84.6762 185.707 92.6058 183.656 104.102C181.604 115.599 187.593 126.308 197.031 128.023C206.469 129.738 215.783 121.808 217.834 110.312Z" fill="#D4860C"/>
        <path d="M217.023 110.164C218.977 99.2117 213.274 89.0094 204.286 87.3764C195.297 85.7434 186.426 93.298 184.472 104.25C182.518 115.202 188.22 125.405 197.209 127.038C206.198 128.671 215.069 121.116 217.023 110.164Z" fill="#F0AA00"/>
        <path d="M207.195 110.513C207.319 111.263 207.319 112.14 207.112 113.141C206.864 114.309 206.451 115.268 205.872 115.977C205.293 116.687 204.632 117.271 203.888 117.646C203.143 118.022 202.317 118.23 201.407 118.314C200.498 118.397 199.629 118.355 198.72 118.23L197.976 121.818L195.661 121.275L196.446 117.646C195.123 117.229 193.883 116.645 192.643 115.936C191.402 115.227 190.327 114.434 189.418 113.558L192.932 109.052C193.387 109.511 193.883 109.97 194.42 110.387C194.875 110.763 195.413 111.138 196.033 111.555C196.653 111.973 197.314 112.265 197.976 112.557L198.513 109.929C197.934 109.637 197.397 109.303 196.818 108.969C195.991 108.427 195.247 107.926 194.668 107.426C194.09 106.925 193.635 106.383 193.304 105.799C192.973 105.256 192.767 104.631 192.684 104.005C192.601 103.379 192.643 102.67 192.808 101.877C193.015 100.793 193.428 99.9166 193.924 99.1657C194.462 98.4148 195.082 97.8308 195.785 97.3719C196.529 96.913 197.314 96.5793 198.182 96.4124C199.051 96.2456 199.96 96.2039 200.911 96.329L201.531 93.3254L203.846 93.8678L203.185 96.8713C203.805 97.0799 204.384 97.3719 204.963 97.6639C205.541 97.9559 206.079 98.2897 206.575 98.6234C207.071 98.9571 207.567 99.2909 207.98 99.6246C208.435 99.9583 208.807 100.292 209.179 100.584L205.707 104.797C205.335 104.422 204.921 104.047 204.466 103.713C204.094 103.379 203.64 103.087 203.143 102.795C202.647 102.503 202.151 102.211 201.614 102.002L201.035 104.672C201.2 104.756 201.366 104.839 201.572 104.964C201.738 105.089 201.945 105.173 202.151 105.298C203.019 105.799 203.805 106.341 204.508 106.842C205.211 107.384 205.748 107.926 206.203 108.552C206.74 109.094 207.03 109.762 207.195 110.513ZM200.456 112.89C200.663 112.765 200.828 112.598 200.87 112.348C200.911 112.056 200.87 111.806 200.663 111.555C200.456 111.305 200.208 111.055 199.836 110.805L199.381 113.016C199.877 113.016 200.208 112.974 200.456 112.89ZM199.753 103.755L200.25 101.502C199.464 101.418 199.009 101.669 198.885 102.253C198.803 102.545 198.885 102.795 199.009 103.045C199.175 103.254 199.423 103.504 199.753 103.755Z" fill="#DA8100"/>
        <path d="M207.07 109.887C207.194 110.637 207.194 111.514 206.987 112.515C206.739 113.683 206.326 114.642 205.747 115.351C205.168 116.061 204.507 116.645 203.763 117.02C203.018 117.396 202.192 117.604 201.282 117.688C200.373 117.771 199.504 117.729 198.595 117.604L197.851 121.192L195.536 120.649L196.321 117.02C194.998 116.603 193.758 116.019 192.518 115.31C191.277 114.601 190.202 113.808 189.293 112.932L192.807 108.427C193.262 108.885 193.758 109.344 194.295 109.761C194.75 110.137 195.288 110.512 195.908 110.929C196.528 111.347 197.189 111.639 197.851 111.931L198.388 109.303C197.809 109.011 197.272 108.677 196.693 108.343C195.866 107.801 195.122 107.3 194.543 106.8C193.965 106.299 193.51 105.757 193.179 105.173C192.848 104.63 192.642 104.005 192.559 103.379C192.476 102.753 192.518 102.044 192.683 101.251C192.89 100.167 193.303 99.2906 193.799 98.5397C194.337 97.7889 194.957 97.2048 195.66 96.7459C196.404 96.2871 197.189 95.9533 198.057 95.7865C198.926 95.6196 199.835 95.5779 200.786 95.703L201.406 92.6995L203.721 93.2418L203.06 96.2454C203.68 96.4539 204.259 96.7459 204.838 97.038C205.416 97.33 205.954 97.6637 206.45 97.9974C206.946 98.3312 207.442 98.6649 207.855 98.9986C208.31 99.3324 208.682 99.6661 209.054 99.9581L205.582 104.171C205.21 103.796 204.796 103.421 204.341 103.087C203.969 102.753 203.515 102.461 203.018 102.169C202.522 101.877 202.026 101.585 201.489 101.376L200.91 104.046C201.075 104.13 201.241 104.213 201.447 104.338C201.613 104.463 201.82 104.547 202.026 104.672C202.894 105.173 203.68 105.715 204.383 106.216C205.086 106.758 205.623 107.3 206.078 107.926C206.615 108.427 206.905 109.094 207.07 109.887ZM200.29 112.223C200.497 112.098 200.662 111.931 200.703 111.68C200.745 111.388 200.703 111.138 200.497 110.888C200.29 110.637 200.042 110.387 199.67 110.137L199.215 112.348C199.711 112.348 200.083 112.348 200.29 112.223ZM199.628 103.087L200.125 100.834C199.339 100.751 198.884 101.001 198.76 101.585C198.678 101.877 198.76 102.127 198.884 102.378C199.008 102.586 199.256 102.837 199.628 103.087Z" fill="#FFDD00"/>
    </g>
    <path d="M163 121.265H159.711V111.29H149.629V108H163V121.265Z" fill="#FA00FF"/>
    <path d="M156.632 127.633H153.343V117.551H143.367V114.367H156.632V127.633Z" fill="#FA00FF"/>
    <path d="M150.265 134H147.082V123.918H137V120.628H150.265V134Z" fill="#FA00FF"/>
    <g clip-path="url(#clip2)">
        <path d="M290.001 81.6122H288.609V77.3918H284.344V76H290.001V81.6122Z" fill="#FA00FF"/>
        <path d="M287.304 84.3061H285.912V80.0408H281.691V78.6938H287.304V84.3061Z" fill="#FA00FF"/>
        <path d="M284.612 86.9999H283.265V82.7346H279V81.3428H284.612V86.9999Z" fill="#FA00FF"/>
    </g>
    <defs>
        <clipPath id="clip0">
            <rect y="138" width="16" height="16" fill="white"/>
        </clipPath>
        <clipPath id="clip1">
            <rect x="163" y="30" width="122" height="105" fill="white"/>
        </clipPath>
        <clipPath id="clip2">
            <rect x="279" y="76" width="11" height="11" fill="white"/>
        </clipPath>
    </defs>
</svg>
