<svg width="66" height="66" viewBox="0 0 66 66" fill="none" xmlns="http://www.w3.org/2000/svg">
    <rect width="66" height="66" rx="17" fill="url(#paint0_linear)"/>
    <g filter="url(#filter0_d)">
        <path d="M30.8787 17.1213L17.1213 30.8787C15.9497 32.0503 15.9497 33.9497 17.1213 35.1213L19.3787 37.3787C20.5503 38.5503 22.4497 38.5503 23.6213 37.3787L30.8787 30.1213C32.0503 28.9497 33.9497 28.9497 35.1213 30.1213L42.3787 37.3787C43.5503 38.5503 45.4497 38.5503 46.6213 37.3787L48.8787 35.1213C50.0503 33.9497 50.0503 32.0503 48.8787 30.8787L35.1213 17.1213C33.9497 15.9497 32.0503 15.9497 30.8787 17.1213Z" fill="white"/>
    </g>
    <g filter="url(#filter1_d)">
        <path d="M30.8767 37.1272L23.9824 44.0343C22.887 45.1318 22.887 46.909 23.9824 48.0065C25.0808 49.1069 26.8637 49.1069 27.962 48.0065L30.8767 45.0864C32.0487 43.9122 33.9513 43.9122 35.1233 45.0864L38.038 48.0065C39.1363 49.1069 40.9192 49.1069 42.0176 48.0065C43.113 46.909 43.113 45.1318 42.0176 44.0343L35.1233 37.1272C33.9513 35.953 32.0487 35.953 30.8767 37.1272Z" fill="white"/>
    </g>
    <path d="M6.04372 32L6.48087 33.0468C6.65574 33.3774 6.87432 33.708 7.13661 33.8733L7.96721 34.4242C8.01093 34.4242 8.01093 34.4793 7.96721 34.5344L7.13661 35.0854C6.87432 35.3058 6.61202 35.5813 6.48087 35.9118L6.04372 36.9587C6.04372 37.0138 6 37.0138 5.95628 36.9587L5.51913 35.9118C5.34426 35.5813 5.12568 35.2507 4.86339 35.0854L4.03279 34.5344C3.98907 34.5344 3.98907 34.4793 4.03279 34.4242L4.86339 33.8733C5.12568 33.6529 5.38798 33.3774 5.51913 33.0468L5.95628 32C6 32 6.04372 32 6.04372 32Z" fill="#EFEFEF"/>
    <path d="M59.0437 12.041L59.4809 13.0792C59.6557 13.4071 59.8743 13.735 60.1366 13.8989L60.9672 14.4454C61.0109 14.4454 61.0109 14.5 60.9672 14.5546L60.1366 15.1011C59.8743 15.3197 59.612 15.5929 59.4809 15.9208L59.0437 16.959C59.0437 17.0137 59 17.0137 58.9563 16.959L58.5191 15.9208C58.3443 15.5929 58.1257 15.265 57.8634 15.1011L57.0328 14.5546C56.9891 14.5546 56.9891 14.5 57.0328 14.4454L57.8634 13.8989C58.1257 13.6803 58.388 13.4071 58.5191 13.0792L58.9563 12.041C58.9563 11.9863 59 11.9863 59.0437 12.041Z" fill="#EFEFEF"/>
    <path d="M26.0233 22L26.2558 22.4186C26.3488 22.5581 26.4419 22.6977 26.5814 22.7442L27 22.9767V23.0233L26.5814 23.2558C26.4419 23.3488 26.3023 23.4419 26.2558 23.5814L26.0233 24H25.9767L25.7442 23.5814C25.6512 23.4419 25.5581 23.3023 25.4186 23.2558L25 23.0233V22.9767L25.4186 22.7442C25.5581 22.6512 25.6977 22.5581 25.7442 22.4186L26.0233 22C25.9767 22 26.0233 22 26.0233 22Z" fill="#EFEFEF"/>
    <path d="M45.5349 25L45.8837 25.4186C46.0233 25.5581 46.1628 25.6977 46.3721 25.7442L47 25.9767V26.0233L46.3721 26.2558C46.1628 26.3488 45.9535 26.4419 45.8837 26.5814L45.5349 27H45.4651L45.1163 26.5814C44.9767 26.4419 44.8372 26.3023 44.6279 26.2558L44 26.0233V25.9767L44.6279 25.7442C44.8372 25.6512 45.0465 25.5581 45.1163 25.4186L45.5349 25C45.4651 25 45.4651 25 45.5349 25Z" fill="#EFEFEF"/>
    <path d="M27.155 7.03625L26.1494 7.56122C25.8349 7.76368 25.5242 8.0097 25.382 8.28516L24.904 9.15978C24.9077 9.20334 24.8528 9.20804 24.7942 9.16919L24.1743 8.38869C23.9323 8.14618 23.6354 7.90837 23.2948 7.80594L22.2145 7.4598C22.1596 7.4645 22.1558 7.42095 22.207 7.37268L23.2127 6.84771C23.5271 6.64525 23.8378 6.39923 23.9801 6.12377L24.4581 5.24915C24.4544 5.20559 24.5093 5.20089 24.5679 5.23974L25.1878 6.02024C25.4298 6.26275 25.7266 6.50056 26.0672 6.60299L27.1476 6.94913C27.1513 6.99269 27.155 7.03625 27.155 7.03625Z" fill="#EFEFEF"/>
    <path d="M51.5673 58.1377L50.5702 58.6619C50.2585 58.8641 49.9505 59.1099 49.8095 59.3852L49.336 60.2595C49.3398 60.303 49.2853 60.3077 49.2271 60.2688L48.6118 59.4879C48.3716 59.2453 48.0769 59.0073 47.7391 58.9046L46.6673 58.5577C46.6128 58.5624 46.6091 58.5188 46.6598 58.4706L47.6569 57.9464C47.9687 57.7441 48.2767 57.4984 48.4176 57.223L48.8911 56.3488C48.8874 56.3052 48.9418 56.3006 49 56.3394L49.6154 57.1203C49.8556 57.363 50.1502 57.601 50.4881 57.7037L51.5599 58.0505C51.6143 58.0459 51.618 58.0894 51.5673 58.1377Z" fill="#EFEFEF"/>
    <path d="M38.8257 26.0886L38.4285 26.3561C38.2974 26.4607 38.1663 26.5653 38.1319 26.7083L37.9359 27.1452L37.8896 27.1492L37.6221 26.752C37.5175 26.6209 37.4129 26.4898 37.2699 26.4554L36.833 26.2594L36.829 26.2131L37.2262 25.9456C37.3573 25.841 37.4884 25.7364 37.5228 25.5934L37.7188 25.1565L37.7651 25.1525L38.0326 25.5497C38.1372 25.6808 38.2418 25.8119 38.3848 25.8463L38.8257 26.0886C38.8217 26.0423 38.8257 26.0886 38.8257 26.0886Z" fill="#EFEFEF"/>
    <path d="M37.5022 45.7851L37.1149 46.1685C36.9878 46.3194 36.8607 46.4703 36.8322 46.6828L36.6542 47.3283L36.6078 47.3323L36.3225 46.7265C36.2119 46.526 36.1014 46.3254 35.9564 46.2678L35.5095 45.956L35.5035 45.8865L35.8908 45.5031C36.0179 45.3522 36.145 45.2012 36.1735 44.9887L36.3516 44.3433L36.3979 44.3393L36.6833 44.945C36.7938 45.1456 36.9044 45.3462 37.0494 45.4038L37.5022 45.7851C37.4962 45.7156 37.4962 45.7156 37.5022 45.7851Z" fill="#EFEFEF"/>
    <defs>
        <filter id="filter0_d" x="6.24219" y="6.24268" width="53.5147" height="42.0147" filterUnits="userSpaceOnUse" color-interpolation-filters="sRGB">
            <feFlood flood-opacity="0" result="BackgroundImageFix"/>
            <feColorMatrix in="SourceAlpha" type="matrix" values="0 0 0 0 0 0 0 0 0 0 0 0 0 0 0 0 0 0 127 0"/>
            <feOffset/>
            <feGaussianBlur stdDeviation="5"/>
            <feColorMatrix type="matrix" values="0 0 0 0 0 0 0 0 0 0.76 0 0 0 0 1 0 0 0 1 0"/>
            <feBlend mode="normal" in2="BackgroundImageFix" result="effect1_dropShadow"/>
            <feBlend mode="normal" in="SourceGraphic" in2="effect1_dropShadow" result="shape"/>
        </filter>
        <filter id="filter1_d" x="13.1602" y="26.2466" width="39.6783" height="32.5852" filterUnits="userSpaceOnUse" color-interpolation-filters="sRGB">
            <feFlood flood-opacity="0" result="BackgroundImageFix"/>
            <feColorMatrix in="SourceAlpha" type="matrix" values="0 0 0 0 0 0 0 0 0 0 0 0 0 0 0 0 0 0 127 0"/>
            <feOffset/>
            <feGaussianBlur stdDeviation="5"/>
            <feColorMatrix type="matrix" values="0 0 0 0 0 0 0 0 0 0.76 0 0 0 0 1 0 0 0 1 0"/>
            <feBlend mode="normal" in2="BackgroundImageFix" result="effect1_dropShadow"/>
            <feBlend mode="normal" in="SourceGraphic" in2="effect1_dropShadow" result="shape"/>
        </filter>
        <linearGradient id="paint0_linear" x1="33" y1="0" x2="33" y2="66" gradientUnits="userSpaceOnUse">
            <stop stop-color="#0066FF"/>
            <stop offset="0.985416" stop-color="#3586FF"/>
        </linearGradient>
    </defs>
</svg>
