<svg width="51" height="50" viewBox="0 0 51 50" fill="none" xmlns="http://www.w3.org/2000/svg">
    <path d="M23.3698 2.14808L2.09482 23.6019C0.935059 24.7714 0.935057 26.6572 2.09482 27.8267L7.07816 32.8519C8.25173 34.0354 10.1649 34.0354 11.3385 32.8519L23.3698 20.7195C24.5434 19.5361 26.4566 19.5361 27.6302 20.7195L39.6615 32.8519C40.8351 34.0354 42.7483 34.0354 43.9218 32.8519L48.9052 27.8267C50.0649 26.6572 50.0649 24.7714 48.9052 23.6019L27.6302 2.14808C26.4566 0.964646 24.5434 0.96465 23.3698 2.14808Z" fill="white" stroke="#1F79FF" stroke-width="2"/>
    <path d="M23.3836 31.1067L12.1361 42.3024C10.9579 43.475 10.9579 45.3821 12.1361 46.5548L13.4808 47.8933C14.6512 49.0584 16.5432 49.0584 17.7136 47.8933L23.3836 42.2495C24.554 41.0845 26.446 41.0845 27.6164 42.2495L33.2864 47.8933C34.4568 49.0584 36.3488 49.0584 37.5192 47.8933L38.8639 46.5548C40.0421 45.3821 40.0421 43.475 38.8639 42.3024L27.6164 31.1067C26.446 29.9416 24.554 29.9416 23.3836 31.1067Z" fill="white" stroke="#1F79FF" stroke-width="2"/>
</svg>
