<svg width="51" height="51" viewBox="0 0 51 51" fill="none" xmlns="http://www.w3.org/2000/svg">
    <path d="M25.5 24.7031C24.0815 24.7031 22.6949 25.1237 21.5155 25.9118C20.3361 26.6999 19.4169 27.82 18.8741 29.1304C18.3312 30.4409 18.1892 31.883 18.4659 33.2742C18.7427 34.6654 19.4257 35.9433 20.4287 36.9463C21.4317 37.9493 22.7096 38.6323 24.1008 38.9091C25.492 39.1858 26.9341 39.0438 28.2446 38.501C29.555 37.9581 30.6751 37.0389 31.4632 35.8595C32.2513 34.6801 32.6719 33.2935 32.6719 31.875C32.6697 29.9736 31.9134 28.1506 30.5689 26.8061C29.2244 25.4616 27.4014 24.7053 25.5 24.7031ZM25.5 37.4531C24.3968 37.4531 23.3183 37.126 22.401 36.513C21.4836 35.9001 20.7687 35.0289 20.3465 34.0097C19.9243 32.9904 19.8138 31.8688 20.0291 30.7868C20.2443 29.7047 20.7756 28.7108 21.5557 27.9307C22.3358 27.1506 23.3297 26.6193 24.4118 26.4041C25.4938 26.1888 26.6154 26.2993 27.6347 26.7215C28.6539 27.1437 29.5251 27.8586 30.138 28.776C30.751 29.6933 31.0781 30.7718 31.0781 31.875C31.0765 33.3539 30.4882 34.7718 29.4425 35.8175C28.3968 36.8632 26.9789 37.4515 25.5 37.4531Z" fill="#561BFB"/>
    <path d="M27.8906 31.0781H26.2969V27.8906C26.2969 27.6793 26.2129 27.4766 26.0635 27.3271C25.914 27.1777 25.7113 27.0938 25.5 27.0938C25.2887 27.0938 25.086 27.1777 24.9365 27.3271C24.7871 27.4766 24.7031 27.6793 24.7031 27.8906V31.875C24.7031 32.0863 24.7871 32.289 24.9365 32.4385C25.086 32.5879 25.2887 32.6719 25.5 32.6719H27.8906C28.102 32.6719 28.3047 32.5879 28.4541 32.4385C28.6035 32.289 28.6875 32.0863 28.6875 31.875C28.6875 31.6637 28.6035 31.461 28.4541 31.3115C28.3047 31.1621 28.102 31.0781 27.8906 31.0781Z" fill="#561BFB"/>
    <path d="M25.5 45.4219C25.2887 45.4219 25.086 45.5058 24.9365 45.6553C24.7871 45.8047 24.7031 46.0074 24.7031 46.2188V49.4062C24.7031 49.6176 24.7871 49.8203 24.9365 49.9697C25.086 50.1192 25.2887 50.2031 25.5 50.2031C25.7113 50.2031 25.914 50.1192 26.0635 49.9697C26.2129 49.8203 26.2969 49.6176 26.2969 49.4062V46.2188C26.2969 46.0074 26.2129 45.8047 26.0635 45.6553C25.914 45.5058 25.7113 45.4219 25.5 45.4219Z" fill="#561BFB"/>
    <path d="M22.3125 45.4219C22.1012 45.4219 21.8985 45.5058 21.749 45.6553C21.5996 45.8047 21.5156 46.0074 21.5156 46.2188V49.4062C21.5156 49.6176 21.5996 49.8203 21.749 49.9697C21.8985 50.1192 22.1012 50.2031 22.3125 50.2031C22.5238 50.2031 22.7265 50.1192 22.876 49.9697C23.0254 49.8203 23.1094 49.6176 23.1094 49.4062V46.2188C23.1094 46.0074 23.0254 45.8047 22.876 45.6553C22.7265 45.5058 22.5238 45.4219 22.3125 45.4219Z" fill="#561BFB"/>
    <path d="M28.6875 45.4219C28.4762 45.4219 28.2735 45.5058 28.124 45.6553C27.9746 45.8047 27.8906 46.0074 27.8906 46.2188V49.4062C27.8906 49.6176 27.9746 49.8203 28.124 49.9697C28.2735 50.1192 28.4762 50.2031 28.6875 50.2031C28.8988 50.2031 29.1015 50.1192 29.251 49.9697C29.4004 49.8203 29.4844 49.6176 29.4844 49.4062V46.2188C29.4844 46.0074 29.4004 45.8047 29.251 45.6553C29.1015 45.5058 28.8988 45.4219 28.6875 45.4219Z" fill="#561BFB"/>
    <path d="M48.4839 10.0616C48.2833 9.28311 47.8519 8.58355 47.2464 8.05483C46.6409 7.52611 45.8895 7.19296 45.0912 7.09918C44.734 6.07391 44.1043 5.16528 43.2698 4.47081C42.4353 3.77634 41.4273 3.32225 40.3543 3.1573C39.2812 2.99234 38.1834 3.12274 37.1788 3.53449C36.1742 3.94625 35.3007 4.62382 34.6521 5.49447C34.5226 5.48351 34.3941 5.47853 34.2656 5.47853C32.9976 5.47853 31.7814 5.98227 30.8848 6.87893C29.9881 7.77559 29.4844 8.99172 29.4844 10.2598C29.4844 11.5278 29.9881 12.744 30.8848 13.6406C31.7814 14.5373 32.9976 15.041 34.2656 15.041H44.625C45.2329 15.0406 45.8326 14.9012 46.3784 14.6335C46.9242 14.3658 47.4015 13.9768 47.7738 13.4963C48.1462 13.0158 48.4038 12.4565 48.5268 11.8612C48.6499 11.2659 48.6352 10.6503 48.4839 10.0616ZM44.625 13.4473H34.2656C33.821 13.4472 33.3813 13.3542 32.9748 13.1741C32.5683 12.9941 32.204 12.7309 31.9052 12.4017C31.6065 12.0724 31.3799 11.6843 31.2401 11.2622C31.1003 10.8402 31.0503 10.3936 31.0933 9.95104C31.1364 9.50852 31.2716 9.07992 31.4901 8.69275C31.7087 8.30558 32.0059 7.96843 32.3625 7.70294C32.7192 7.43746 33.1274 7.24952 33.561 7.1512C33.9946 7.05288 34.4439 7.04636 34.8802 7.13205C35.0394 7.1633 35.2043 7.14523 35.3529 7.08027C35.5015 7.0153 35.6268 6.90652 35.712 6.76847C36.1663 6.02946 36.8297 5.44191 37.6182 5.0802C38.4067 4.7185 39.2848 4.59893 40.1413 4.73663C40.9978 4.87434 41.7942 5.26312 42.4296 5.85374C43.065 6.44436 43.5108 7.21026 43.7106 8.05443C43.7539 8.23487 43.8586 8.39468 44.0066 8.50658C44.1547 8.61848 44.337 8.67554 44.5224 8.66802C44.5563 8.66703 44.5911 8.66603 44.625 8.66603C45.1552 8.66549 45.6704 8.8414 46.0895 9.16603C46.5087 9.49067 46.8079 9.94556 46.9399 10.459C46.9907 10.6542 47.0161 10.855 47.0156 11.0567C47.0148 11.6904 46.7626 12.298 46.3145 12.7462C45.8663 13.1943 45.2588 13.4464 44.625 13.4473Z" fill="#561BFB"/>
    <path d="M42.3698 33.0863C42.1973 32.4163 41.8297 31.8127 41.3136 31.352C40.7976 30.8913 40.1563 30.5942 39.4712 30.4984C39.1368 29.5719 38.5437 28.7607 37.7623 28.161C36.9809 27.5612 36.044 27.1981 35.0625 27.1147V23.1094C35.0625 22.898 34.9785 22.6953 34.8291 22.5459C34.6797 22.3965 34.477 22.3125 34.2656 22.3125V18.3281C34.2656 18.1168 34.1817 17.9141 34.0322 17.7646C33.8828 17.6152 33.6801 17.5312 33.4687 17.5312C33.2574 17.5312 33.0547 17.6152 32.9053 17.7646C32.7558 17.9141 32.6719 18.1168 32.6719 18.3281V19.125H32.1489L28.6875 14.9713V11.9531C28.6875 11.7418 28.6035 11.5391 28.4541 11.3896C28.3047 11.2402 28.102 11.1562 27.8906 11.1562H27.8149L27.0898 3.90469C27.07 3.70813 26.9779 3.52591 26.8314 3.39339C26.6849 3.26087 26.4944 3.1875 26.2969 3.1875V1.59375C26.2969 1.38241 26.2129 1.17972 26.0635 1.03027C25.914 0.880831 25.7113 0.796875 25.5 0.796875C25.2887 0.796875 25.086 0.880831 24.9365 1.03027C24.7871 1.17972 24.7031 1.38241 24.7031 1.59375V3.1875C24.5056 3.1875 24.3151 3.26087 24.1686 3.39339C24.022 3.52591 23.93 3.70813 23.9102 3.90469L23.1851 11.1562H23.1094C22.898 11.1562 22.6953 11.2402 22.5459 11.3896C22.3965 11.5391 22.3125 11.7418 22.3125 11.9531V14.9713L18.8511 19.125H18.3281V18.3281C18.3281 18.1168 18.2442 17.9141 18.0947 17.7646C17.9453 17.6152 17.7426 17.5312 17.5312 17.5312C17.3199 17.5312 17.1172 17.6152 16.9678 17.7646C16.8183 17.9141 16.7344 18.1168 16.7344 18.3281V22.3125C16.523 22.3125 16.3203 22.3965 16.1709 22.5459C16.0215 22.6953 15.9375 22.898 15.9375 23.1094V35.4042C14.7342 34.9789 13.4264 34.9499 12.2054 35.3214C10.9845 35.693 9.91451 36.4456 9.15211 37.4691C9.02262 37.4581 8.89412 37.4531 8.76562 37.4531C7.49756 37.4531 6.28143 37.9569 5.38477 38.8535C4.48811 39.7502 3.98438 40.9663 3.98438 42.2344C3.98438 43.5024 4.48811 44.7186 5.38477 45.6152C6.28143 46.5119 7.49756 47.0156 8.76562 47.0156H17.5312V49.4062C17.5312 49.6176 17.6152 49.8203 17.7646 49.9697C17.9141 50.1192 18.1168 50.2031 18.3281 50.2031C18.5395 50.2031 18.7422 50.1192 18.8916 49.9697C19.041 49.8203 19.125 49.6176 19.125 49.4062V43.8281H31.875V49.4062C31.875 49.6176 31.959 49.8203 32.1084 49.9697C32.2578 50.1192 32.4605 50.2031 32.6719 50.2031C32.8832 50.2031 33.0859 50.1192 33.2353 49.9697C33.3848 49.8203 33.4687 49.6176 33.4687 49.4062V41.4375H34.2656C34.477 41.4375 34.6797 41.3535 34.8291 41.2041C34.9785 41.0547 35.0625 40.852 35.0625 40.6406V37.4531H38.9851C39.5182 37.4525 40.044 37.3301 40.5225 37.0953C41.0011 36.8604 41.4196 36.5193 41.7461 36.098C42.0727 35.6767 42.2986 35.1863 42.4067 34.6643C42.5148 34.1424 42.5022 33.6026 42.3698 33.0863ZM25.4243 4.78125H25.5757L26.2132 11.1562H24.7868L25.4243 4.78125ZM23.9062 12.75H27.0937V14.3438H23.9062V12.75ZM23.5825 15.9375H27.4175L30.0741 19.125H20.9259L23.5825 15.9375ZM18.3281 20.7188H32.6719V22.3125H18.3281V20.7188ZM17.5312 45.4219H8.76562C8.32102 45.4218 7.88134 45.3288 7.47484 45.1487C7.06833 44.9686 6.704 44.7055 6.40524 44.3763C6.10648 44.047 5.87992 43.6589 5.74009 43.2368C5.60027 42.8148 5.55028 42.3681 5.59335 41.9256C5.63641 41.4831 5.77157 41.0545 5.99015 40.6673C6.20872 40.2802 6.50588 39.943 6.86251 39.6775C7.21915 39.412 7.62738 39.2241 8.06098 39.1258C8.49458 39.0275 8.94395 39.021 9.38021 39.1066C9.53938 39.1379 9.70429 39.1198 9.85291 39.0549C10.0015 38.9899 10.1268 38.8811 10.212 38.7431C10.7891 37.804 11.699 37.117 12.7603 36.8191C13.8215 36.5213 14.9561 36.6346 15.9375 37.1364V40.6406C15.9375 40.852 16.0215 41.0547 16.1709 41.2041C16.3203 41.3535 16.523 41.4375 16.7344 41.4375H17.5312V45.4219ZM31.875 42.2344H19.125V41.4375H31.875V42.2344ZM33.4687 39.8438H17.5312V23.9062H33.4687V39.8438ZM38.9851 35.8594H35.0625V28.7164C35.7861 28.8071 36.4646 29.1174 37.0064 29.6056C37.5482 30.0938 37.9273 30.7364 38.0926 31.4467C38.135 31.6273 38.2391 31.7874 38.3869 31.8994C38.5348 32.0114 38.7171 32.0683 38.9024 32.0603C38.9303 32.0593 38.9582 32.0593 38.9851 32.0593C39.489 32.0593 39.9723 32.2595 40.3287 32.6158C40.685 32.9721 40.8852 33.4554 40.8852 33.9593C40.8852 34.4632 40.685 34.9465 40.3287 35.3029C39.9723 35.6592 39.489 35.8594 38.9851 35.8594Z" fill="#561BFB"/>
</svg>
