<svg width="50" height="50" viewBox="0 0 50 50" fill="none" xmlns="http://www.w3.org/2000/svg">
    <path d="M25.0283 7.21153C25.8248 7.21153 26.4706 6.56579 26.4706 5.76922C26.4706 4.97265 25.8248 4.3269 25.0283 4.3269C24.2317 4.3269 23.5859 4.97265 23.5859 5.76922C23.5859 6.56579 24.2317 7.21153 25.0283 7.21153Z" fill="#FBC006"/>
    <path d="M44.2311 11.5384C44.2311 9.41423 42.5092 7.69222 40.3851 7.69222H35.0456C34.3334 6.901 33.4185 6.29558 32.3673 5.99318C31.4818 5.73861 30.8003 5.05712 30.5456 4.17166C29.8527 1.76251 27.6324 0 25.0003 0C22.3683 0 20.1481 1.76239 19.4553 4.17141C19.2002 5.05796 18.5171 5.73861 17.6305 5.99414C16.5805 6.29679 15.6665 6.9016 14.9548 7.69222H9.6157C7.49141 7.69222 5.76953 9.41423 5.76953 11.5384V46.1538C5.76953 48.278 7.49141 50 9.6157 50C18.4458 50 29.2982 50 40.3851 50C42.5094 50 44.2313 48.278 44.2313 46.1538C44.2313 35.2308 44.2311 24.7713 44.2311 11.5384ZM15.3851 11.5074C15.3983 9.81675 16.5406 8.30954 18.1631 7.84199C19.6908 7.40184 20.8647 6.22828 21.3034 4.70303C21.7742 3.06612 23.2944 1.92309 25.0003 1.92309C26.7063 1.92309 28.2265 3.06612 28.6972 4.70315C29.1361 6.22936 30.3093 7.40256 31.8355 7.84138C33.4723 8.31218 34.6156 9.8325 34.6156 11.5383V13.4614H15.3851V11.5074ZM40.3851 48.0769C30.114 48.0769 19.8597 48.0769 9.6157 48.0769C8.55524 48.0769 7.69262 47.2142 7.69262 46.1538V11.5384C7.69262 10.4781 8.55524 9.61531 9.6157 9.61531H13.7914C13.5835 10.2033 13.4672 10.8344 13.4621 11.4924V15.3846H36.5389V11.5384C36.5389 10.8635 36.4197 10.2174 36.2067 9.61531H40.3851C41.4454 9.61531 42.308 10.4781 42.308 11.5384C42.308 17.0364 42.3079 42.8191 42.3083 46.1538C42.3082 47.2142 41.4455 48.0769 40.3851 48.0769Z" fill="#FBC006"/>
    <path d="M36.5382 21.1538H19.2305V23.0769H36.5382V21.1538Z" fill="#FBC006"/>
    <path d="M36.5382 26.9233H19.2305V28.8464H36.5382V26.9233Z" fill="#FBC006"/>
    <path d="M36.5382 32.6924H19.2305V34.6155H36.5382V32.6924Z" fill="#FBC006"/>
    <path d="M36.5382 38.4617H19.2305V40.3848H36.5382V38.4617Z" fill="#FBC006"/>
    <path d="M14.4225 23.0769C14.9535 23.0769 15.384 22.6464 15.384 22.1154C15.384 21.5843 14.9535 21.1538 14.4225 21.1538C13.8914 21.1538 13.4609 21.5843 13.4609 22.1154C13.4609 22.6464 13.8914 23.0769 14.4225 23.0769Z" fill="#FBC006"/>
    <path d="M14.4225 28.8464C14.9535 28.8464 15.384 28.4159 15.384 27.8849C15.384 27.3538 14.9535 26.9233 14.4225 26.9233C13.8914 26.9233 13.4609 27.3538 13.4609 27.8849C13.4609 28.4159 13.8914 28.8464 14.4225 28.8464Z" fill="#FBC006"/>
    <path d="M14.4225 34.6155C14.9535 34.6155 15.384 34.185 15.384 33.6539C15.384 33.1229 14.9535 32.6924 14.4225 32.6924C13.8914 32.6924 13.4609 33.1229 13.4609 33.6539C13.4609 34.185 13.8914 34.6155 14.4225 34.6155Z" fill="#FBC006"/>
    <path d="M14.4225 40.3848C14.9535 40.3848 15.384 39.9543 15.384 39.4232C15.384 38.8922 14.9535 38.4617 14.4225 38.4617C13.8914 38.4617 13.4609 38.8922 13.4609 39.4232C13.4609 39.9543 13.8914 40.3848 14.4225 40.3848Z" fill="#FBC006"/>
</svg>
