<svg width="51" height="51" viewBox="0 0 51 51" fill="none" xmlns="http://www.w3.org/2000/svg">
    <g clip-path="url(#clip0)">
        <path d="M28.9389 17.2319C29.2526 17.5454 29.7611 17.5454 30.0748 17.2319L32.4846 14.822C32.789 14.5068 32.7847 14.0058 32.4748 13.696C32.165 13.3861 31.664 13.3818 31.3488 13.6862L29.5068 15.5281L29.2715 15.2927C28.9563 14.9883 28.4553 14.9927 28.1454 15.3025C27.8356 15.6124 27.8312 16.1134 28.1356 16.4286L28.9389 17.2319Z" fill="#10FD93"/>
        <path d="M7.8189 16.6639H23.8845C24.3281 16.6639 24.6878 16.3043 24.6878 15.8607C24.6878 15.417 24.3281 15.0574 23.8845 15.0574H7.8189C7.37527 15.0574 7.01562 15.417 7.01562 15.8607C7.01562 16.3043 7.37527 16.6639 7.8189 16.6639Z" fill="#10FD93"/>
        <path d="M28.9389 22.0514C29.2526 22.365 29.7611 22.365 30.0748 22.0514L32.4846 19.6416C32.789 19.3264 32.7847 18.8254 32.4748 18.5155C32.165 18.2057 31.664 18.2013 31.3488 18.5058L29.5068 20.3477L29.2715 20.1123C28.9563 19.8079 28.4553 19.8123 28.1454 20.1221C27.8356 20.432 27.8312 20.933 28.1356 21.2482L28.9389 22.0514Z" fill="#10FD93"/>
        <path d="M7.8189 21.4838H23.8845C24.3281 21.4838 24.6878 21.1241 24.6878 20.6805C24.6878 20.2368 24.3281 19.8772 23.8845 19.8772H7.8189C7.37527 19.8772 7.01562 20.2368 7.01562 20.6805C7.01562 21.1241 7.37527 21.4838 7.8189 21.4838Z" fill="#10FD93"/>
        <path d="M28.9389 26.8713C29.2526 27.1848 29.7611 27.1848 30.0748 26.8713L32.4846 24.4614C32.789 24.1462 32.7847 23.6452 32.4748 23.3354C32.165 23.0255 31.664 23.0212 31.3488 23.3256L29.5068 25.1675L29.2715 24.9321C28.9563 24.6277 28.4553 24.6321 28.1454 24.9419C27.8356 25.2518 27.8312 25.7528 28.1356 26.068L28.9389 26.8713Z" fill="#10FD93"/>
        <path d="M7.8189 26.3031H23.8845C24.3281 26.3031 24.6878 25.9435 24.6878 25.4998C24.6878 25.0562 24.3281 24.6965 23.8845 24.6965H7.8189C7.37527 24.6965 7.01562 25.0562 7.01562 25.4998C7.01562 25.9435 7.37527 26.3031 7.8189 26.3031Z" fill="#10FD93"/>
        <path d="M32.4846 28.1453C32.1709 27.8318 31.6624 27.8318 31.3488 28.1453L29.5068 29.9873L29.2715 29.7519C28.9563 29.4475 28.4553 29.4518 28.1454 29.7617C27.8356 30.0715 27.8312 30.5726 28.1356 30.8877L28.9389 31.691C29.2526 32.0046 29.7611 32.0046 30.0748 31.691L32.4846 29.2812C32.7982 28.9675 32.7982 28.459 32.4846 28.1453Z" fill="#10FD93"/>
        <path d="M44.1136 34.6792L39.0393 41.9272L37.3066 40.1945C36.9915 39.8901 36.4904 39.8945 36.1806 40.2043C35.8707 40.5142 35.8664 41.0152 36.1708 41.3304L38.5806 43.7402C38.7312 43.8909 38.9355 43.9755 39.1486 43.9756C39.1718 43.9768 39.1952 43.9768 39.2184 43.9756C39.455 43.9548 39.6703 43.8304 39.8064 43.6358L45.4294 35.603C45.6044 35.3683 45.6378 35.057 45.5167 34.7904C45.3955 34.5239 45.1389 34.3444 44.847 34.322C44.5551 34.2995 44.2741 34.4376 44.1136 34.6824V34.6792Z" fill="#10FD93"/>
        <path d="M24.6878 30.3196C24.6878 29.876 24.3281 29.5164 23.8845 29.5164H7.8189C7.37527 29.5164 7.01562 29.876 7.01562 30.3196C7.01562 30.7633 7.37527 31.1229 7.8189 31.1229H23.8845C24.3281 31.1229 24.6878 30.7633 24.6878 30.3196Z" fill="#10FD93"/>
        <path d="M17.3802 36.3869C17.2292 36.1336 16.9561 35.9785 16.6613 35.9785C16.3664 35.9785 16.0933 36.1336 15.9423 36.3869L12.7292 42.8131C12.6009 43.07 12.6194 43.3758 12.7777 43.6153C12.936 43.8548 13.2101 43.9917 13.4967 43.9743C13.7832 43.957 14.0388 43.7881 14.1671 43.5313L15.1455 41.5656H18.169L19.1514 43.5313C19.3497 43.9283 19.8324 44.0894 20.2294 43.8911C20.6265 43.6928 20.7876 43.2102 20.5893 42.8131L17.3802 36.3869ZM15.9488 39.9591L16.6572 38.5421L17.3657 39.9591H15.9488Z" fill="#10FD93"/>
        <path d="M24.6883 37.5492H23.885V36.7459C23.885 36.3023 23.5253 35.9426 23.0817 35.9426C22.6381 35.9426 22.2784 36.3023 22.2784 36.7459V37.5492H21.4752C21.0315 37.5492 20.6719 37.9088 20.6719 38.3525C20.6719 38.7961 21.0315 39.1557 21.4752 39.1557H22.2784V39.959C22.2784 40.4027 22.6381 40.7623 23.0817 40.7623C23.5253 40.7623 23.885 40.4027 23.885 39.959V39.1557H24.6883C25.1319 39.1557 25.4915 38.7961 25.4915 38.3525C25.4915 37.9088 25.1319 37.5492 24.6883 37.5492Z" fill="#10FD93"/>
        <path d="M40.7541 28.7131C39.9422 28.716 39.1334 28.8138 38.3443 29.0047V11.041C38.3442 10.8279 38.2596 10.6236 38.1089 10.473L29.2728 1.63697C29.1222 1.48632 28.9179 1.40166 28.7049 1.40161H5.40984C4.07892 1.40161 3 2.48053 3 3.81145V47.1885C3 48.5194 4.07892 49.5983 5.40984 49.5983H35.9344C36.4867 49.5954 37.0213 49.4029 37.4486 49.0529C41.3729 50.3735 45.7069 49.2508 48.4964 46.1909C51.2859 43.131 52.0041 38.712 50.327 34.9262C48.65 31.1405 44.8947 28.7031 40.7541 28.7131ZM29.5082 4.144L35.6019 10.2377H30.3115C29.8678 10.2377 29.5082 9.87803 29.5082 9.4344V4.144ZM5.40984 47.9918C4.9662 47.9918 4.60656 47.6321 4.60656 47.1885V3.81145C4.60656 3.36781 4.9662 3.00817 5.40984 3.00817H27.9016V9.4344C27.9016 10.7653 28.9806 11.8442 30.3115 11.8442H36.7377V29.5164C33.1319 31.0128 30.664 34.3981 30.3426 38.2888C30.0212 42.1796 31.9001 45.9239 35.2115 47.9918H5.40984ZM40.7541 47.9918C35.8741 47.9918 31.918 44.0357 31.918 39.1557C31.918 34.2757 35.8741 30.3196 40.7541 30.3196C45.6341 30.3196 49.5902 34.2757 49.5902 39.1557C49.5844 44.0333 45.6317 47.986 40.7541 47.9918Z" fill="#10FD93"/>
    </g>
    <defs>
        <clipPath id="clip0">
            <rect width="51" height="51" fill="white"/>
        </clipPath>
    </defs>
</svg>
