<svg width="50" height="50" viewBox="0 0 50 50" fill="none" xmlns="http://www.w3.org/2000/svg">
    <path d="M35.775 14.1608C36.547 14.1608 37.175 13.5328 37.175 12.7608C37.175 11.9889 36.547 11.3608 35.775 11.3608C35.003 11.3608 34.375 11.9889 34.375 12.7608C34.375 13.5328 35.003 14.1608 35.775 14.1608ZM35.775 12.2942C36.0322 12.2942 36.2417 12.5036 36.2417 12.7608C36.2417 13.0181 36.0322 13.2275 35.775 13.2275C35.5177 13.2275 35.3083 13.0181 35.3083 12.7608C35.3083 12.5036 35.5177 12.2942 35.775 12.2942ZM39.4584 32.4723L35.2659 28.9009V28.5625C35.2659 28.3048 35.0569 28.0959 34.7992 28.0959C34.5415 28.0959 34.3325 28.3048 34.3325 28.5625V29.2265L33.7576 29.5583C33.5343 29.6872 33.458 29.9728 33.5867 30.1959C33.6732 30.3455 33.83 30.4292 33.9914 30.4292C34.0705 30.4292 34.1509 30.4091 34.2243 30.3668L34.3749 30.2799V34.9048C34.3749 35.1046 34.502 35.2823 34.6914 35.3466C34.7406 35.3635 34.7914 35.3714 34.8415 35.3714C34.9835 35.3714 35.1213 35.3062 35.2114 35.1893L36.669 33.2942H39.1556C39.3512 33.2942 39.5259 33.1723 39.5936 32.9889C39.6612 32.8052 39.6071 32.599 39.4584 32.4723ZM14.6245 33.5255C14.6239 33.8174 14.387 34.0536 14.0951 34.053C13.8033 34.0524 13.567 33.8154 13.5676 33.5235C13.5682 33.2316 13.8051 32.9955 14.097 32.9961C14.3888 32.9967 14.6251 33.2336 14.6245 33.5255ZM20.65 35.7889L20.1218 36.315L20.6482 36.8434C20.8301 37.0259 20.8296 37.3215 20.6468 37.5033C20.5559 37.5939 20.4367 37.6393 20.3176 37.6393C20.198 37.6393 20.0781 37.5935 19.987 37.5019L19.4608 36.9737L18.9324 37.5001C18.8415 37.5908 18.7223 37.6362 18.6032 37.6362C18.4836 37.6362 18.3637 37.5903 18.2725 37.4987C18.0907 37.3163 18.0911 37.0206 18.2739 36.8389L18.8021 36.3127L18.2757 35.7843C18.0938 35.6018 18.0943 35.3062 18.2771 35.1244C18.4592 34.9428 18.755 34.9428 18.937 35.1258L19.4631 35.654L19.9915 35.1276C20.1737 34.9459 20.4696 34.9459 20.6514 35.129C20.8333 35.3115 20.8328 35.607 20.65 35.7889ZM14.8173 24.86C15.0751 24.86 15.284 25.0689 15.284 25.3267V26.26C15.284 26.5177 15.0751 26.7267 14.8173 26.7267C14.5596 26.7267 14.3507 26.5177 14.3507 26.26V25.3267C14.3507 25.0689 14.5596 24.86 14.8173 24.86ZM16.0299 30.1959C15.9433 30.3455 15.7865 30.4292 15.6251 30.4292C15.546 30.4292 15.4657 30.4091 15.3923 30.3668L14.584 29.9001C14.4396 29.8167 14.3507 29.6627 14.3507 29.4959V28.5625C14.3507 28.3048 14.5596 28.0959 14.8173 28.0959C15.0751 28.0959 15.284 28.3048 15.284 28.5625V29.2265L15.8589 29.5583C16.0822 29.6873 16.1585 29.9728 16.0299 30.1959ZM18.7419 32.3006L17.0671 31.3336C16.8438 31.2047 16.7675 30.9191 16.8962 30.696C17.025 30.4727 17.31 30.3962 17.5338 30.5251L19.2086 31.4921C19.4319 31.6211 19.5082 31.9067 19.3795 32.1297C19.2929 32.2794 19.1361 32.3631 18.9748 32.3631C18.8957 32.3631 18.8155 32.3431 18.7419 32.3006ZM22.7293 34.0639C22.6428 34.2136 22.486 34.2973 22.3246 34.2973C22.2455 34.2973 22.1654 34.2772 22.0917 34.2349L20.417 33.2678C20.1937 33.1389 20.1174 32.8533 20.2461 32.6302C20.375 32.4067 20.6597 32.3299 20.8837 32.4593L22.5584 33.4264C22.7817 33.5553 22.858 33.8408 22.7293 34.0639ZM26.0207 34.5641C26.1495 34.7872 26.0731 35.0726 25.8498 35.2017L25.0415 35.6683C24.9693 35.71 24.8888 35.7308 24.8082 35.7308C24.7276 35.7308 24.6471 35.71 24.5749 35.6683L23.7666 35.2017C23.5433 35.0728 23.467 34.7872 23.5957 34.5641C23.7245 34.3408 24.0097 34.2643 24.2333 34.3932L24.8082 34.7252L25.3831 34.3932C25.6061 34.2641 25.8916 34.3408 26.0207 34.5641ZM29.3706 32.6302C29.4994 32.8533 29.423 33.1388 29.1997 33.2678L27.5249 34.2349C27.4515 34.2772 27.3711 34.2973 27.292 34.2973C27.1307 34.2973 26.9739 34.2136 26.8873 34.0639C26.7585 33.8409 26.8349 33.5554 27.0582 33.4264L28.733 32.4593C28.9557 32.3298 29.2414 32.4067 29.3706 32.6302ZM32.7204 30.696C32.8492 30.9193 32.7728 31.2046 32.5495 31.3336L30.8745 32.3006C30.8009 32.343 30.7208 32.3631 30.6417 32.3631C30.4803 32.3631 30.3235 32.2794 30.2369 32.1297C30.1082 31.9064 30.1846 31.6212 30.4079 31.4921L32.0828 30.5251C32.3059 30.3962 32.5913 30.4727 32.7204 30.696ZM35.266 24.6946V26.6284C35.266 26.8861 35.057 27.0951 34.7993 27.0951C34.5416 27.0951 34.3326 26.8861 34.3326 26.6284V24.6946C34.3326 24.4368 34.5416 24.2279 34.7993 24.2279C35.057 24.2279 35.266 24.4368 35.266 24.6946ZM35.266 22.7605C35.266 23.0182 35.057 23.2271 34.7993 23.2271C34.5416 23.2271 34.3326 23.0182 34.3326 22.7605V20.8266C34.3326 20.5689 34.5416 20.3599 34.7993 20.3599C35.057 20.3599 35.266 20.5689 35.266 20.8266V22.7605ZM33.5868 17.2592C33.7156 17.0361 34.0013 16.9591 34.2244 17.0882L35.0326 17.5549C35.1771 17.6383 35.266 17.7923 35.266 17.9592V18.8925C35.266 19.1502 35.057 19.3592 34.7993 19.3592C34.5416 19.3592 34.3326 19.1502 34.3326 18.8925V18.2285L33.7577 17.8967C33.5344 17.7677 33.458 17.4822 33.5868 17.2592ZM26.8873 13.3911C27.0161 13.1678 27.3007 13.0912 27.5249 13.2202L29.1997 14.1872C29.423 14.3161 29.4993 14.6017 29.3706 14.8248C29.284 14.9745 29.1272 15.0581 28.9659 15.0581C28.8868 15.0581 28.8066 15.0381 28.733 14.9957L27.0582 14.0287C26.8349 13.8997 26.7586 13.6141 26.8873 13.3911ZM30.2372 15.3252C30.366 15.1021 30.651 15.0253 30.8748 15.1543L32.5495 16.1213C32.7728 16.2502 32.8491 16.5358 32.7204 16.7589C32.6339 16.9086 32.4771 16.9922 32.3157 16.9922C32.2366 16.9922 32.1565 16.9722 32.0828 16.9298L30.4081 15.9628C30.1848 15.8338 30.1085 15.5484 30.2372 15.3252ZM26.0207 12.8909C25.8916 13.1138 25.606 13.1901 25.3831 13.0618L24.8082 12.7298L23.8186 13.301C23.745 13.3434 23.6649 13.3634 23.5858 13.3634C23.4244 13.3634 23.2676 13.2798 23.1811 13.1301C23.0523 12.9068 23.1289 12.6215 23.352 12.4925L24.5749 11.7866C24.7193 11.7031 24.8971 11.7031 25.0415 11.7866L25.8498 12.2532C26.0732 12.3824 26.1495 12.6679 26.0207 12.8909ZM19.4424 26.1978C19.5143 26.2392 19.5946 26.26 19.675 26.26C19.7554 26.26 19.8356 26.2392 19.9076 26.1978L25.741 22.842C25.8856 22.7588 25.975 22.6046 25.975 22.4375V15.7263C25.975 15.5592 25.8856 15.405 25.741 15.3218L19.9076 11.9662C19.7637 11.8833 19.5863 11.8833 19.4424 11.9662L13.609 15.3218C13.4644 15.405 13.375 15.5592 13.375 15.7263V22.4375C13.375 22.6046 13.4644 22.7588 13.609 22.842L19.4424 26.1978ZM14.3083 15.9962L19.675 12.9091L25.0417 15.9962V22.1674L19.675 25.2548L14.3083 22.1674V15.9962ZM32.975 25.8275V27.6942C32.975 27.9519 32.766 28.1608 32.5083 28.1608H30.6417C30.3839 28.1608 30.175 27.9519 30.175 27.6942C30.175 27.4365 30.3839 27.2275 30.6417 27.2275H31.3818L28.3083 24.154V24.8942C28.3083 25.1519 28.0994 25.3608 27.8417 25.3608C27.5839 25.3608 27.375 25.1519 27.375 24.8942V23.0275C27.375 22.7698 27.5839 22.5608 27.8417 22.5608H29.7083C29.966 22.5608 30.175 22.7698 30.175 23.0275C30.175 23.2852 29.966 23.4942 29.7083 23.4942H28.9682L32.0417 26.5676V25.8275C32.0417 25.5698 32.2506 25.3608 32.5083 25.3608C32.766 25.3608 32.975 25.5698 32.975 25.8275Z" fill="url(#paint0_linear)"/>
    <path d="M4.34937 13.0773L25 1.1547L45.6506 13.0773V36.9226L25 48.8453L4.34937 36.9226V13.0773Z" stroke="#AC53FF" stroke-width="2"/>
    <defs>
        <linearGradient id="paint0_linear" x1="15.2999" y1="35.4757" x2="37.8845" y2="12.8913" gradientUnits="userSpaceOnUse">
            <stop stop-color="#AC53FF"/>
            <stop offset="1" stop-color="#AC53FF"/>
        </linearGradient>
    </defs>
</svg>
