<svg width="27" height="33" viewBox="0 0 27 33" fill="none" xmlns="http://www.w3.org/2000/svg">
    <path d="M13.5 0L25.1913 8.25V24.75L13.5 33L1.80866 24.75V8.25L13.5 0Z" fill="#00FE8A"/>
    <path d="M13.5 3L22.5933 9.75V23.25L13.5 30L4.40673 23.25V9.75L13.5 3Z" fill="#00CD70"/>
    <path d="M11.1593 16.6426L14.0774 21H11.9874L9.97624 17.727L7.96512 21H6L8.86552 16.5374L6.18402 12.3509H8.20829L10.0683 15.4661L11.8953 12.3509H13.8736L11.1593 16.6426ZM16.9989 13.8559V16.4191H17.597C18.723 16.4191 19.286 15.9853 19.286 15.1178C19.286 14.684 19.1677 14.3664 18.9311 14.1648C18.6989 13.9589 18.3309 13.8559 17.827 13.8559H16.9989ZM17.9256 12.3509C18.9772 12.3509 19.7746 12.5787 20.3179 13.0344C20.8656 13.4857 21.1394 14.167 21.1394 15.0784C21.1394 15.9897 20.8481 16.693 20.2653 17.1881C19.687 17.6788 18.8588 17.9242 17.781 17.9242H16.9989V21H15.1652V12.3509H17.9256Z" fill="white"/>
</svg>
