<svg width="265" height="265" viewBox="0 0 265 265" fill="none" xmlns="http://www.w3.org/2000/svg">
    <g clip-path="url(#clip0)">
        <path d="M212.621 161.372C212.616 161.047 212.606 160.726 212.59 160.411C212.574 160.122 212.558 159.833 212.538 159.55C212.532 159.451 212.527 159.356 212.516 159.261C212.501 158.999 212.48 158.742 212.453 158.484C212.354 157.424 212.217 156.395 212.044 155.407C211.997 155.129 211.944 154.855 211.886 154.583C211.771 153.995 211.634 153.417 211.493 152.861C211.467 152.75 211.435 152.645 211.409 152.54C211.356 152.34 211.304 152.146 211.246 151.957C211.167 151.695 211.088 151.438 211.004 151.18C210.857 150.707 210.694 150.25 210.521 149.799C210.469 149.652 210.411 149.505 210.353 149.363C209.917 148.26 209.418 147.231 208.862 146.27C208.773 146.107 208.678 145.949 208.578 145.791C208.378 145.461 208.169 145.135 207.953 144.826C207.87 144.7 207.781 144.579 207.696 144.458C207.171 143.723 206.604 143.045 206.006 142.415C205.885 142.289 205.769 142.168 205.643 142.047C205.533 141.937 205.423 141.826 205.308 141.721C205.05 141.475 204.788 141.238 204.515 141.012C204.389 140.907 204.263 140.803 204.131 140.702C203.464 140.172 202.761 139.694 202.026 139.268L192.899 133.965C192.568 133.745 192.238 133.535 191.897 133.341C191.897 133.335 191.891 133.335 191.891 133.335L181.752 127.444C175.172 123.616 166.062 124.157 156.006 129.964C136.021 141.5 119.874 169.467 119.938 192.434C119.969 203.839 123.997 211.868 130.492 215.643L139.655 220.963C139.671 220.978 139.682 220.984 139.698 220.989C140.002 221.194 140.312 221.388 140.627 221.577L150.762 227.464L150.589 227.353C151.292 227.778 152.027 228.152 152.789 228.477C154.301 229.113 155.919 229.549 157.625 229.774C157.646 229.779 157.661 229.779 157.677 229.779C159.998 230.073 162.482 229.979 165.102 229.469C166.304 229.239 167.538 228.918 168.798 228.504C169.249 228.362 169.706 228.204 170.163 228.031C171.549 227.511 172.967 226.891 174.4 226.162C175.12 225.794 175.844 225.401 176.574 224.98C177.199 224.618 177.818 224.245 178.433 223.851C178.743 223.657 179.047 223.457 179.352 223.252C179.656 223.052 179.961 222.843 180.265 222.633C180.533 222.449 180.796 222.265 181.058 222.071C181.121 222.028 181.179 221.987 181.242 221.945C181.819 221.52 182.397 221.089 182.964 220.643C183.258 220.412 183.557 220.181 183.852 219.933H183.857C184.146 219.692 184.44 219.456 184.729 219.209C185.311 218.72 185.889 218.222 186.456 217.702C186.702 217.476 186.95 217.256 187.191 217.029C187.857 216.405 188.519 215.764 189.176 215.107C199.877 204.342 208.168 189.299 211.292 174.732C211.381 174.323 211.461 173.913 211.539 173.509C211.602 173.194 211.664 172.873 211.717 172.559C211.775 172.265 211.822 171.965 211.875 171.666C212.047 170.616 212.19 169.576 212.305 168.542C212.332 168.315 212.352 168.09 212.374 167.864C212.431 167.318 212.479 166.782 212.51 166.247C212.525 166.042 212.541 165.837 212.552 165.632V165.611C212.568 165.343 212.584 165.081 212.595 164.813C212.61 164.509 212.621 164.199 212.626 163.894C212.636 163.433 212.642 162.97 212.642 162.513C212.642 162.133 212.637 161.75 212.621 161.372Z" fill="#016EF1"/>
        <path d="M191.884 133.378C185.304 129.555 176.193 130.094 166.137 135.9C146.153 147.437 130.005 175.406 130.071 198.369C130.103 209.777 134.13 217.803 140.625 221.578L150.827 227.506C144.332 223.732 140.304 215.705 140.272 204.298C140.207 181.335 156.354 153.366 176.338 141.828C186.394 136.022 195.506 135.483 202.086 139.307L191.884 133.378Z" fill="#1D1D1F"/>
        <path d="M176.34 141.828C196.324 130.29 212.577 139.552 212.642 162.515C212.708 185.478 196.56 213.447 176.576 224.984C156.592 236.522 140.339 227.26 140.274 204.297C140.208 181.334 156.356 153.366 176.34 141.828Z" fill="#010101"/>
        <path d="M163.509 172.828L89.0923 135.237L81.3711 149.15L88.8775 153.511L107.885 163.113L163.293 191.103L171.016 177.191L163.509 172.828Z" fill="#010101"/>
        <path d="M96.6007 139.599L89.0938 135.237L163.51 172.828L171.017 177.191L96.6007 139.599Z" fill="#2E2E30"/>
        <path d="M88.8775 153.511L81.3711 149.15L89.0923 135.237L96.5993 139.599L88.8775 153.511Z" fill="#3E3D43"/>
        <path d="M96.6007 139.6L171.017 177.191L163.295 191.103L88.8789 153.512L96.6007 139.6Z" fill="#010101"/>
        <path d="M96.6007 139.6L88.8789 153.512L107.886 163.113L115.773 149.285L96.6007 139.6Z" fill="#1D1D1F"/>
        <path d="M171.017 177.19L115.773 149.284L107.887 163.113L163.295 191.102L171.017 177.19Z" fill="#010101"/>
        <path d="M264.986 99.1359C265.306 82.6485 254.592 66.0839 232.848 53.5306C190.176 28.8944 120.967 28.8949 78.5735 53.5311L0.108691 99.1297L0 137.46L8.89406 142.595L87.3584 96.9963C124.881 75.1907 186.134 75.1907 223.901 96.9958C234.341 103.023 241.903 110.097 246.599 117.635C241.965 124.98 234.588 131.867 224.455 137.756L145.991 183.354L145.882 221.684L154.776 226.819L233.24 181.221C254.301 168.982 264.845 152.929 264.89 136.852L265 98.5231C264.999 98.7271 264.99 98.9315 264.986 99.1359Z" fill="#1D1D1F"/>
        <path d="M252.467 98.4872L252.359 136.817C252.4 122.404 242.907 107.968 223.902 96.9955C186.135 75.1905 124.881 75.191 87.3594 96.996L87.4681 58.6658C124.99 36.8602 186.243 36.8602 224.011 58.6652C243.016 69.6379 252.508 84.0737 252.467 98.4872Z" fill="#00479B"/>
        <path d="M87.4675 58.665L87.3588 96.9953L8.89453 142.594L9.00322 104.264L87.4675 58.665Z" fill="#004FAE"/>
        <path d="M9.00275 104.264L8.89406 142.595L0 137.46L0.108691 99.1289L9.00275 104.264Z" fill="#2E2E30"/>
        <path d="M265.001 98.5225L264.892 136.853C264.847 152.93 254.303 168.982 233.242 181.221L233.351 142.891C254.412 130.652 264.955 114.6 265.001 98.5225Z" fill="#1D1D1F"/>
        <path d="M154.886 188.489L154.777 226.819L145.883 221.684L145.992 183.354L154.886 188.489Z" fill="#2E2E30"/>
        <path d="M233.35 142.891L233.242 181.222L154.777 226.82L154.886 188.49L233.35 142.891Z" fill="#1D1D1F"/>
        <path d="M232.848 53.5294C275.523 78.1677 275.745 118.254 233.351 142.891L154.886 188.49L145.992 183.355L224.457 137.756C261.979 115.95 261.779 80.4704 224.012 58.6654C186.244 36.8603 124.991 36.8608 87.4688 58.6659L9.00395 104.265L0.109375 99.1286L78.5737 53.53C120.968 28.8937 190.176 28.8937 232.848 53.5294Z" fill="#3E3D43"/>
        <path d="M99.0631 76.8258C99.0305 76.7502 98.9964 76.6767 98.9638 76.6017C98.6413 75.8714 98.2919 75.1726 97.9162 74.507C96.1466 71.3747 93.7963 68.9638 90.9868 67.3463C91.007 67.3577 91.0277 67.3686 91.0479 67.38L91.0438 67.3774C91.0453 67.3784 91.0464 67.379 91.0479 67.3795L81.7962 62.0034C81.4763 61.7896 81.1503 61.5857 80.818 61.3937C80.8392 61.4056 80.8609 61.417 80.8817 61.4289L70.6802 55.5005C64.1007 51.6772 54.9893 52.216 44.9338 58.0217C24.9501 69.5595 8.80217 97.5284 8.86738 120.491C8.89999 131.899 12.9273 139.925 19.4224 143.7L28.6829 149.082C28.98 149.28 29.2812 149.471 29.5891 149.651L39.7906 155.579C39.7896 155.579 39.7885 155.578 39.787 155.577L39.7906 155.579C39.7104 155.533 39.6327 155.483 39.553 155.435C46.1501 159.413 55.3588 158.935 65.5375 153.059C85.5212 141.521 101.669 113.552 101.603 90.5892C101.587 85.2225 100.688 80.6051 99.0631 76.8258Z" fill="#1D1D1F"/>
        <path d="M55.1369 63.9508C75.1206 52.4129 91.3736 61.675 91.4393 84.6378C91.504 107.601 75.3571 135.57 55.3729 147.107C35.3892 158.645 19.1362 149.383 19.0705 126.42C19.0058 103.457 35.1532 75.4886 55.1369 63.9508Z" fill="#2E2E30"/>
        <path d="M80.8453 61.4517C74.2658 57.6284 65.1544 58.1672 55.0978 63.9728C35.1142 75.5107 18.9662 103.48 19.0314 126.442C19.0641 137.85 23.0913 145.876 29.5864 149.651L39.7879 155.579C33.2928 151.805 29.265 143.778 29.2329 132.371C29.1682 109.408 45.3156 81.439 65.2993 69.9012C75.3553 64.0955 84.4668 63.5562 91.0462 67.38L80.8453 61.4517Z" fill="#3E3D43"/>
        <path d="M65.301 69.901C85.2847 58.3631 101.538 67.6252 101.603 90.588C101.668 113.551 85.5212 141.52 65.537 153.057C45.5533 164.595 29.3003 155.333 29.2346 132.37C29.1699 109.407 45.3168 81.4388 65.301 69.901Z" fill="#00479B"/>
        <path d="M79.4271 87.3737L69.2256 81.4453C72.7762 83.5084 74.978 87.8954 74.995 94.1317C75.0308 106.683 66.204 121.972 55.2805 128.278C49.7838 131.452 44.8032 131.747 41.207 129.656L51.4085 135.584C55.0051 137.674 59.9853 137.38 65.482 134.207C76.4054 127.9 85.2322 112.612 85.1965 100.06C85.1789 93.8242 82.9771 89.4372 79.4271 87.3737Z" fill="#004FAE"/>
        <path d="M65.3015 69.901C85.2852 58.3631 101.538 67.6252 101.603 90.588C101.669 113.551 85.5212 141.52 65.537 153.058C45.5533 164.595 29.3003 155.333 29.2346 132.371C29.1704 109.408 45.3178 81.4388 65.3015 69.901ZM65.4837 134.207C76.4072 127.9 85.2339 112.613 85.1982 100.06C85.1625 87.5084 76.2783 82.446 65.3553 88.7522C54.4318 95.0589 45.605 110.347 45.6408 122.899C45.6765 135.451 54.5607 140.513 65.4837 134.207Z" fill="#005ECF"/>
        <path d="M80.8482 61.4517C74.2687 57.6284 65.1573 58.1672 55.1017 63.9728C35.1181 75.5107 18.9701 103.48 19.0354 126.442C19.068 137.85 23.0952 145.876 29.5903 149.651L39.7918 155.579C33.2967 151.804 29.2689 143.778 29.2368 132.37C29.1721 109.407 45.3195 81.438 65.3032 69.9007C75.3592 64.095 84.4707 63.5557 91.0501 67.3795L80.8482 61.4517Z" fill="#016EF1"/>
        <path d="M102.329 155.582C104.661 155.582 106.552 153.691 106.552 151.358C106.552 149.026 104.661 147.135 102.329 147.135C99.9964 147.135 98.1055 149.026 98.1055 151.358C98.1055 153.691 99.9964 155.582 102.329 155.582Z" fill="#3E3D43"/>
    </g>
    <defs>
        <clipPath id="clip0">
            <rect width="265" height="265" fill="white"/>
        </clipPath>
    </defs>
</svg>
