<svg width="19" height="19" viewBox="0 0 19 19" fill="none" xmlns="http://www.w3.org/2000/svg">
    <path d="M16.9219 1.78125H15.1406V1.48438C15.1406 1.24817 15.0468 1.02163 14.8798 0.854608C14.7127 0.687583 14.4862 0.59375 14.25 0.59375C14.0138 0.59375 13.7873 0.687583 13.6202 0.854608C13.4532 1.02163 13.3594 1.24817 13.3594 1.48438V1.78125H10.3906V1.48438C10.3906 1.24817 10.2968 1.02163 10.1298 0.854608C9.96274 0.687583 9.73621 0.59375 9.5 0.59375C9.26379 0.59375 9.03726 0.687583 8.87023 0.854608C8.70321 1.02163 8.60938 1.24817 8.60938 1.48438V1.78125H5.64062V1.48438C5.64062 1.24817 5.54679 1.02163 5.37977 0.854608C5.21274 0.687583 4.98621 0.59375 4.75 0.59375C4.51379 0.59375 4.28726 0.687583 4.12023 0.854608C3.95321 1.02163 3.85938 1.24817 3.85938 1.48438V1.78125H2.07812C1.68458 1.78169 1.30728 1.93822 1.029 2.2165C0.750723 2.49478 0.594192 2.87208 0.59375 3.26562V16.9219C0.594192 17.3154 0.750723 17.6927 1.029 17.971C1.30728 18.2493 1.68458 18.4058 2.07812 18.4062H16.9219C17.3154 18.4058 17.6927 18.2493 17.971 17.971C18.2493 17.6927 18.4058 17.3154 18.4062 16.9219V3.26562C18.4058 2.87208 18.2493 2.49478 17.971 2.2165C17.6927 1.93822 17.3154 1.78169 16.9219 1.78125ZM13.9531 1.48438C13.9531 1.40564 13.9844 1.33013 14.0401 1.27445C14.0958 1.21878 14.1713 1.1875 14.25 1.1875C14.3287 1.1875 14.4042 1.21878 14.4599 1.27445C14.5156 1.33013 14.5469 1.40564 14.5469 1.48438V3.26562C14.5469 3.34436 14.5156 3.41987 14.4599 3.47555C14.4042 3.53122 14.3287 3.5625 14.25 3.5625C14.1713 3.5625 14.0958 3.53122 14.0401 3.47555C13.9844 3.41987 13.9531 3.34436 13.9531 3.26562V1.48438ZM9.20312 1.48438C9.20312 1.40564 9.2344 1.33013 9.29008 1.27445C9.34575 1.21878 9.42126 1.1875 9.5 1.1875C9.57874 1.1875 9.65425 1.21878 9.70992 1.27445C9.7656 1.33013 9.79688 1.40564 9.79688 1.48438V3.26562C9.79688 3.34436 9.7656 3.41987 9.70992 3.47555C9.65425 3.53122 9.57874 3.5625 9.5 3.5625C9.42126 3.5625 9.34575 3.53122 9.29008 3.47555C9.2344 3.41987 9.20312 3.34436 9.20312 3.26562V1.48438ZM4.45312 1.48438C4.45312 1.40564 4.4844 1.33013 4.54008 1.27445C4.59575 1.21878 4.67126 1.1875 4.75 1.1875C4.82874 1.1875 4.90425 1.21878 4.95992 1.27445C5.0156 1.33013 5.04688 1.40564 5.04688 1.48438V3.26562C5.04688 3.34436 5.0156 3.41987 4.95992 3.47555C4.90425 3.53122 4.82874 3.5625 4.75 3.5625C4.67126 3.5625 4.59575 3.53122 4.54008 3.47555C4.4844 3.41987 4.45312 3.34436 4.45312 3.26562V1.48438ZM2.07812 2.375H3.85938V3.26562C3.85938 3.50183 3.95321 3.72837 4.12023 3.89539C4.28726 4.06242 4.51379 4.15625 4.75 4.15625C4.98621 4.15625 5.21274 4.06242 5.37977 3.89539C5.54679 3.72837 5.64062 3.50183 5.64062 3.26562V2.375H8.60938V3.26562C8.60938 3.50183 8.70321 3.72837 8.87023 3.89539C9.03726 4.06242 9.26379 4.15625 9.5 4.15625C9.73621 4.15625 9.96274 4.06242 10.1298 3.89539C10.2968 3.72837 10.3906 3.50183 10.3906 3.26562V2.375H13.3594V3.26562C13.3594 3.50183 13.4532 3.72837 13.6202 3.89539C13.7873 4.06242 14.0138 4.15625 14.25 4.15625C14.4862 4.15625 14.7127 4.06242 14.8798 3.89539C15.0468 3.72837 15.1406 3.50183 15.1406 3.26562V2.375H16.9219C17.158 2.37528 17.3844 2.4692 17.5513 2.63616C17.7183 2.80313 17.8122 3.0295 17.8125 3.26562V5.34375H1.1875V3.26562C1.18778 3.0295 1.2817 2.80313 1.44866 2.63616C1.61563 2.4692 1.842 2.37528 2.07812 2.375ZM16.9219 17.8125H2.07812C1.842 17.8122 1.61563 17.7183 1.44866 17.5513C1.2817 17.3844 1.18778 17.158 1.1875 16.9219V5.9375H17.8125V16.9219C17.8122 17.158 17.7183 17.3844 17.5513 17.5513C17.3844 17.7183 17.158 17.8122 16.9219 17.8125Z" fill="#561BFB"/>
    <path d="M16.3281 8.01562H15.1406C15.0619 8.01562 14.9864 8.0469 14.9307 8.10258C14.875 8.15825 14.8438 8.23376 14.8438 8.3125V9.5C14.8438 9.57874 14.875 9.65425 14.9307 9.70992C14.9864 9.7656 15.0619 9.79688 15.1406 9.79688H16.3281C16.4069 9.79688 16.4824 9.7656 16.538 9.70992C16.5937 9.65425 16.625 9.57874 16.625 9.5V8.3125C16.625 8.23376 16.5937 8.15825 16.538 8.10258C16.4824 8.0469 16.4069 8.01562 16.3281 8.01562ZM16.0312 9.20312H15.4375V8.60938H16.0312V9.20312Z" fill="#561BFB"/>
    <path d="M10.3906 13.9531H9.20312C9.12439 13.9531 9.04888 13.9844 8.9932 14.0401C8.93753 14.0958 8.90625 14.1713 8.90625 14.25V15.4375C8.90625 15.5162 8.93753 15.5917 8.9932 15.6474C9.04888 15.7031 9.12439 15.7344 9.20312 15.7344H10.3906C10.4694 15.7344 10.5449 15.7031 10.6005 15.6474C10.6562 15.5917 10.6875 15.5162 10.6875 15.4375V14.25C10.6875 14.1713 10.6562 14.0958 10.6005 14.0401C10.5449 13.9844 10.4694 13.9531 10.3906 13.9531ZM10.0938 15.1406H9.5V14.5469H10.0938V15.1406Z" fill="#561BFB"/>
    <path d="M7.42188 8.01562H6.23438C6.15564 8.01562 6.08013 8.0469 6.02445 8.10258C5.96878 8.15825 5.9375 8.23376 5.9375 8.3125V9.5C5.9375 9.57874 5.96878 9.65425 6.02445 9.70992C6.08013 9.7656 6.15564 9.79688 6.23438 9.79688H7.42188C7.50061 9.79688 7.57612 9.7656 7.6318 9.70992C7.68747 9.65425 7.71875 9.57874 7.71875 9.5V8.3125C7.71875 8.23376 7.68747 8.15825 7.6318 8.10258C7.57612 8.0469 7.50061 8.01562 7.42188 8.01562ZM7.125 9.20312H6.53125V8.60938H7.125V9.20312Z" fill="#561BFB"/>
    <path d="M4.45312 10.9844H3.26562C3.18689 10.9844 3.11138 11.0157 3.0557 11.0713C3.00003 11.127 2.96875 11.2025 2.96875 11.2812V12.4688C2.96875 12.5475 3.00003 12.623 3.0557 12.6787C3.11138 12.7343 3.18689 12.7656 3.26562 12.7656H4.45312C4.53186 12.7656 4.60737 12.7343 4.66305 12.6787C4.71872 12.623 4.75 12.5475 4.75 12.4688V11.2812C4.75 11.2025 4.71872 11.127 4.66305 11.0713C4.60737 11.0157 4.53186 10.9844 4.45312 10.9844ZM4.15625 12.1719H3.5625V11.5781H4.15625V12.1719Z" fill="#561BFB"/>
    <path d="M7.42188 10.9844H6.23438C6.15564 10.9844 6.08013 11.0157 6.02445 11.0713C5.96878 11.127 5.9375 11.2025 5.9375 11.2812V12.4688C5.9375 12.5475 5.96878 12.623 6.02445 12.6787C6.08013 12.7343 6.15564 12.7656 6.23438 12.7656H7.42188C7.50061 12.7656 7.57612 12.7343 7.6318 12.6787C7.68747 12.623 7.71875 12.5475 7.71875 12.4688V11.2812C7.71875 11.2025 7.68747 11.127 7.6318 11.0713C7.57612 11.0157 7.50061 10.9844 7.42188 10.9844ZM7.125 12.1719H6.53125V11.5781H7.125V12.1719Z" fill="#561BFB"/>
    <path d="M4.45312 13.9531H3.26562C3.18689 13.9531 3.11138 13.9844 3.0557 14.0401C3.00003 14.0958 2.96875 14.1713 2.96875 14.25V15.4375C2.96875 15.5162 3.00003 15.5917 3.0557 15.6474C3.11138 15.7031 3.18689 15.7344 3.26562 15.7344H4.45312C4.53186 15.7344 4.60737 15.7031 4.66305 15.6474C4.71872 15.5917 4.75 15.5162 4.75 15.4375V14.25C4.75 14.1713 4.71872 14.0958 4.66305 14.0401C4.60737 13.9844 4.53186 13.9531 4.45312 13.9531ZM4.15625 15.1406H3.5625V14.5469H4.15625V15.1406Z" fill="#561BFB"/>
    <path d="M7.42188 13.9531H6.23438C6.15564 13.9531 6.08013 13.9844 6.02445 14.0401C5.96878 14.0958 5.9375 14.1713 5.9375 14.25V15.4375C5.9375 15.5162 5.96878 15.5917 6.02445 15.6474C6.08013 15.7031 6.15564 15.7344 6.23438 15.7344H7.42188C7.50061 15.7344 7.57612 15.7031 7.6318 15.6474C7.68747 15.5917 7.71875 15.5162 7.71875 15.4375V14.25C7.71875 14.1713 7.68747 14.0958 7.6318 14.0401C7.57612 13.9844 7.50061 13.9531 7.42188 13.9531ZM7.125 15.1406H6.53125V14.5469H7.125V15.1406Z" fill="#561BFB"/>
    <path d="M13.7009 9.23964L12.2166 9.01283L11.5499 7.59261C11.5259 7.54157 11.4879 7.49841 11.4403 7.46817C11.3927 7.43793 11.3375 7.42188 11.2811 7.42188C11.2247 7.42188 11.1695 7.43793 11.1219 7.46817C11.0743 7.49841 11.0363 7.54157 11.0124 7.59261L10.346 9.01283L8.86158 9.23964C8.80759 9.24786 8.75691 9.27081 8.71512 9.30597C8.67333 9.34113 8.64205 9.38713 8.62472 9.43892C8.60739 9.49071 8.60468 9.54627 8.61689 9.5995C8.6291 9.65273 8.65575 9.70156 8.69392 9.74062L9.77681 10.8504L9.52075 12.4211C9.51189 12.4761 9.51864 12.5323 9.54022 12.5836C9.56179 12.6349 9.59734 12.679 9.6428 12.7111C9.68826 12.7431 9.74181 12.7618 9.79734 12.7648C9.85288 12.7679 9.90816 12.7554 9.9569 12.7286L11.2811 11.9966L12.6053 12.7286C12.6541 12.7555 12.7094 12.7682 12.7651 12.7652C12.8207 12.7621 12.8744 12.7435 12.9199 12.7114C12.9655 12.6793 13.0011 12.6351 13.0226 12.5837C13.0442 12.5323 13.0509 12.4759 13.0419 12.421L12.7859 10.8503L13.8688 9.74043C13.9069 9.70137 13.9336 9.65254 13.9458 9.59931C13.958 9.54608 13.9553 9.49052 13.938 9.43873C13.9206 9.38694 13.8894 9.34094 13.8476 9.30578C13.8058 9.27062 13.7551 9.24767 13.7011 9.23945L13.7009 9.23964ZM12.2561 10.5428C12.2237 10.5761 12.1995 10.6165 12.1855 10.6608C12.1715 10.7051 12.1681 10.7521 12.1756 10.7979L12.3574 11.9131L11.4246 11.3973C11.3807 11.373 11.3313 11.3602 11.281 11.3602C11.2308 11.3602 11.1814 11.373 11.1374 11.3973L10.2046 11.9131L10.3865 10.7979C10.394 10.7521 10.3906 10.7051 10.3766 10.6608C10.3626 10.6165 10.3384 10.5761 10.3059 10.5428L9.52212 9.73932L10.5921 9.57604C10.6403 9.56867 10.6859 9.54955 10.725 9.52037C10.764 9.49119 10.7953 9.45284 10.816 9.40871L11.2811 8.41748L11.7463 9.40853C11.767 9.45265 11.7982 9.491 11.8373 9.52018C11.8763 9.54937 11.922 9.56849 11.9702 9.57585L13.0401 9.73913L12.2561 10.5428Z" fill="#561BFB"/>
    <path d="M16.3281 10.9844H15.1406C15.0619 10.9844 14.9864 11.0157 14.9307 11.0713C14.875 11.127 14.8438 11.2025 14.8438 11.2812V12.4688C14.8438 12.5475 14.875 12.623 14.9307 12.6787C14.9864 12.7343 15.0619 12.7656 15.1406 12.7656H16.3281C16.4069 12.7656 16.4824 12.7343 16.538 12.6787C16.5937 12.623 16.625 12.5475 16.625 12.4688V11.2812C16.625 11.2025 16.5937 11.127 16.538 11.0713C16.4824 11.0157 16.4069 10.9844 16.3281 10.9844ZM16.0312 12.1719H15.4375V11.5781H16.0312V12.1719Z" fill="#561BFB"/>
    <path d="M16.3281 13.9531H15.1406C15.0619 13.9531 14.9864 13.9844 14.9307 14.0401C14.875 14.0958 14.8438 14.1713 14.8438 14.25V15.4375C14.8438 15.5162 14.875 15.5917 14.9307 15.6474C14.9864 15.7031 15.0619 15.7344 15.1406 15.7344H16.3281C16.4069 15.7344 16.4824 15.7031 16.538 15.6474C16.5937 15.5917 16.625 15.5162 16.625 15.4375V14.25C16.625 14.1713 16.5937 14.0958 16.538 14.0401C16.4824 13.9844 16.4069 13.9531 16.3281 13.9531ZM16.0312 15.1406H15.4375V14.5469H16.0312V15.1406Z" fill="#561BFB"/>
    <path d="M13.3594 13.9531H12.1719C12.0931 13.9531 12.0176 13.9844 11.962 14.0401C11.9063 14.0958 11.875 14.1713 11.875 14.25V15.4375C11.875 15.5162 11.9063 15.5917 11.962 15.6474C12.0176 15.7031 12.0931 15.7344 12.1719 15.7344H13.3594C13.4381 15.7344 13.5136 15.7031 13.5693 15.6474C13.625 15.5917 13.6562 15.5162 13.6562 15.4375V14.25C13.6562 14.1713 13.625 14.0958 13.5693 14.0401C13.5136 13.9844 13.4381 13.9531 13.3594 13.9531ZM13.0625 15.1406H12.4688V14.5469H13.0625V15.1406Z" fill="#561BFB"/>
</svg>
