<svg width="31" height="31" viewBox="0 0 31 31" fill="none" xmlns="http://www.w3.org/2000/svg">
    <path d="M28.5781 0.96875H2.42188C2.03662 0.969191 1.66727 1.12243 1.39485 1.39485C1.12243 1.66727 0.969191 2.03662 0.96875 2.42188V28.5781C0.969191 28.9634 1.12243 29.3327 1.39485 29.6052C1.66727 29.8776 2.03662 30.0308 2.42188 30.0312H28.5781C28.9634 30.0308 29.3327 29.8776 29.6052 29.6052C29.8776 29.3327 30.0308 28.9634 30.0312 28.5781V2.42188C30.0308 2.03662 29.8776 1.66727 29.6052 1.39485C29.3327 1.12243 28.9634 0.969191 28.5781 0.96875ZM29.0625 28.5781C29.0624 28.7065 29.0113 28.8297 28.9205 28.9205C28.8297 29.0113 28.7065 29.0624 28.5781 29.0625H2.42188C2.29346 29.0624 2.17034 29.0113 2.07953 28.9205C1.98873 28.8297 1.93765 28.7065 1.9375 28.5781V2.42188C1.93765 2.29346 1.98873 2.17034 2.07953 2.07953C2.17034 1.98873 2.29346 1.93765 2.42188 1.9375H28.5781C28.7065 1.93765 28.8297 1.98873 28.9205 2.07953C29.0113 2.17034 29.0624 2.29346 29.0625 2.42188V28.5781Z" fill="#561BFB"/>
    <path d="M3.39062 3.875C3.65814 3.875 3.875 3.65814 3.875 3.39062C3.875 3.12311 3.65814 2.90625 3.39062 2.90625C3.12311 2.90625 2.90625 3.12311 2.90625 3.39062C2.90625 3.65814 3.12311 3.875 3.39062 3.875Z" fill="#561BFB"/>
    <path d="M4.84375 3.875C5.11126 3.875 5.32812 3.65814 5.32812 3.39062C5.32812 3.12311 5.11126 2.90625 4.84375 2.90625C4.57624 2.90625 4.35938 3.12311 4.35938 3.39062C4.35938 3.65814 4.57624 3.875 4.84375 3.875Z" fill="#561BFB"/>
    <path d="M6.29688 3.875C6.56439 3.875 6.78125 3.65814 6.78125 3.39062C6.78125 3.12311 6.56439 2.90625 6.29688 2.90625C6.02936 2.90625 5.8125 3.12311 5.8125 3.39062C5.8125 3.65814 6.02936 3.875 6.29688 3.875Z" fill="#561BFB"/>
    <path d="M15.0156 13.0781H13.0781C13.0145 13.0781 12.9515 13.0907 12.8928 13.115C12.834 13.1393 12.7806 13.175 12.7356 13.22C12.6906 13.265 12.655 13.3184 12.6306 13.3771C12.6063 13.4359 12.5937 13.4989 12.5938 13.5625V15.5C12.5937 15.5636 12.6063 15.6266 12.6306 15.6854C12.655 15.7441 12.6906 15.7975 12.7356 15.8425C12.7806 15.8875 12.834 15.9232 12.8928 15.9475C12.9515 15.9718 13.0145 15.9844 13.0781 15.9844H15.0156C15.0792 15.9844 15.1422 15.9718 15.201 15.9475C15.2598 15.9232 15.3132 15.8875 15.3581 15.8425C15.4031 15.7975 15.4388 15.7441 15.4631 15.6854C15.4875 15.6266 15.5 15.5636 15.5 15.5V13.5625C15.5 13.4989 15.4875 13.4359 15.4631 13.3771C15.4388 13.3184 15.4031 13.265 15.3581 13.22C15.3132 13.175 15.2598 13.1393 15.201 13.115C15.1422 13.0907 15.0792 13.0781 15.0156 13.0781ZM14.5312 15.0156H13.5625V14.0469H14.5312V15.0156Z" fill="#561BFB"/>
    <path d="M16.9531 14.0469H18.4062V15.0156H16.9531V14.0469Z" fill="#561BFB"/>
    <path d="M19.375 14.0469H26.1562V15.0156H19.375V14.0469Z" fill="#561BFB"/>
    <path d="M15.0156 16.9531H13.0781C13.0145 16.9531 12.9515 16.9657 12.8928 16.99C12.834 17.0143 12.7806 17.05 12.7356 17.095C12.6906 17.14 12.655 17.1934 12.6306 17.2521C12.6063 17.3109 12.5937 17.3739 12.5938 17.4375V19.375C12.5937 19.4386 12.6063 19.5016 12.6306 19.5604C12.655 19.6191 12.6906 19.6725 12.7356 19.7175C12.7806 19.7625 12.834 19.7982 12.8928 19.8225C12.9515 19.8468 13.0145 19.8594 13.0781 19.8594H15.0156C15.0792 19.8594 15.1422 19.8468 15.201 19.8225C15.2598 19.7982 15.3132 19.7625 15.3581 19.7175C15.4031 19.6725 15.4388 19.6191 15.4631 19.5604C15.4875 19.5016 15.5 19.4386 15.5 19.375V17.4375C15.5 17.3739 15.4875 17.3109 15.4631 17.2521C15.4388 17.1934 15.4031 17.14 15.3581 17.095C15.3132 17.05 15.2598 17.0143 15.201 16.99C15.1422 16.9657 15.0792 16.9531 15.0156 16.9531ZM14.5312 18.8906H13.5625V17.9219H14.5312V18.8906Z" fill="#561BFB"/>
    <path d="M16.9531 17.9219H18.4062V18.8906H16.9531V17.9219Z" fill="#561BFB"/>
    <path d="M19.375 17.9219H26.1562V18.8906H19.375V17.9219Z" fill="#561BFB"/>
    <path d="M15.0156 20.8281H13.0781C13.0145 20.8281 12.9515 20.8407 12.8928 20.865C12.834 20.8893 12.7806 20.925 12.7356 20.97C12.6906 21.015 12.655 21.0684 12.6306 21.1271C12.6063 21.1859 12.5937 21.2489 12.5938 21.3125V23.25C12.5937 23.3136 12.6063 23.3766 12.6306 23.4354C12.655 23.4941 12.6906 23.5475 12.7356 23.5925C12.7806 23.6375 12.834 23.6732 12.8928 23.6975C12.9515 23.7218 13.0145 23.7344 13.0781 23.7344H15.0156C15.0792 23.7344 15.1422 23.7218 15.201 23.6975C15.2598 23.6732 15.3132 23.6375 15.3581 23.5925C15.4031 23.5475 15.4388 23.4941 15.4631 23.4354C15.4875 23.3766 15.5 23.3136 15.5 23.25V21.3125C15.5 21.2489 15.4875 21.1859 15.4631 21.1271C15.4388 21.0684 15.4031 21.015 15.3581 20.97C15.3132 20.925 15.2598 20.8893 15.201 20.865C15.1422 20.8407 15.0792 20.8281 15.0156 20.8281ZM14.5312 22.7656H13.5625V21.7969H14.5312V22.7656Z" fill="#561BFB"/>
    <path d="M16.9531 21.7969H18.4062V22.7656H16.9531V21.7969Z" fill="#561BFB"/>
    <path d="M19.375 21.7969H26.1562V22.7656H19.375V21.7969Z" fill="#561BFB"/>
    <path d="M15.0156 24.7031H13.0781C13.0145 24.7031 12.9515 24.7157 12.8928 24.74C12.834 24.7643 12.7806 24.8 12.7356 24.845C12.6906 24.89 12.655 24.9434 12.6306 25.0021C12.6063 25.0609 12.5937 25.1239 12.5938 25.1875V27.125C12.5937 27.1886 12.6063 27.2516 12.6306 27.3104C12.655 27.3691 12.6906 27.4225 12.7356 27.4675C12.7806 27.5125 12.834 27.5482 12.8928 27.5725C12.9515 27.5968 13.0145 27.6094 13.0781 27.6094H15.0156C15.0792 27.6094 15.1422 27.5968 15.201 27.5725C15.2598 27.5482 15.3132 27.5125 15.3581 27.4675C15.4031 27.4225 15.4388 27.3691 15.4631 27.3104C15.4875 27.2516 15.5 27.1886 15.5 27.125V25.1875C15.5 25.1239 15.4875 25.0609 15.4631 25.0021C15.4388 24.9434 15.4031 24.89 15.3581 24.845C15.3132 24.8 15.2598 24.7643 15.201 24.74C15.1422 24.7157 15.0792 24.7031 15.0156 24.7031ZM14.5312 26.6406H13.5625V25.6719H14.5312V26.6406Z" fill="#561BFB"/>
    <path d="M16.9531 25.6719H18.4062V26.6406H16.9531V25.6719Z" fill="#561BFB"/>
    <path d="M19.375 25.6719H26.1562V26.6406H19.375V25.6719Z" fill="#561BFB"/>
    <path d="M27.125 5.8125H3.875C3.81139 5.8125 3.7484 5.82503 3.68964 5.84937C3.63087 5.87371 3.57747 5.90939 3.53249 5.95437C3.48751 5.99934 3.45183 6.05274 3.42749 6.11151C3.40315 6.17028 3.39062 6.23327 3.39063 6.29688V27.125C3.39062 27.1886 3.40315 27.2516 3.42749 27.3104C3.45183 27.3691 3.48751 27.4225 3.53249 27.4675C3.57747 27.5125 3.63087 27.5482 3.68964 27.5725C3.7484 27.5968 3.81139 27.6094 3.875 27.6094H10.6562C10.7199 27.6094 10.7828 27.5968 10.8416 27.5725C10.9004 27.5482 10.9538 27.5125 10.9988 27.4675C11.0437 27.4225 11.0794 27.3691 11.1038 27.3104C11.1281 27.2516 11.1406 27.1886 11.1406 27.125V11.625H27.125C27.1886 11.625 27.2516 11.6125 27.3104 11.5881C27.3691 11.5638 27.4225 11.5281 27.4675 11.4831C27.5125 11.4382 27.5482 11.3848 27.5725 11.326C27.5968 11.2672 27.6094 11.2042 27.6094 11.1406V6.29688C27.6094 6.23327 27.5968 6.17028 27.5725 6.11151C27.5482 6.05274 27.5125 5.99934 27.4675 5.95437C27.4225 5.90939 27.3691 5.87371 27.3104 5.84937C27.2516 5.82503 27.1886 5.8125 27.125 5.8125ZM10.1719 26.6406H4.35938V11.625H10.1719V26.6406ZM26.6406 10.6562H4.35938V6.78125H26.6406V10.6562Z" fill="#561BFB"/>
</svg>
