<svg width="16" height="16" viewBox="0 0 16 16" fill="none" xmlns="http://www.w3.org/2000/svg">
    <g clip-path="url(#clip0)">
        <path d="M15.4994 7.50021H9.16624C8.89025 7.50021 8.66626 7.27622 8.66626 7.00023C8.66626 6.72424 8.89025 6.50024 9.16624 6.50024H15.4994C15.7754 6.50024 15.9994 6.72424 15.9994 7.00023C15.9994 7.27622 15.7754 7.50021 15.4994 7.50021Z" fill="white"/>
        <path d="M12.9996 10.0003C12.8716 10.0003 12.7436 9.95157 12.6462 9.85367C12.4509 9.65824 12.4509 9.3416 12.6462 9.14629L14.7929 6.99975L12.6462 4.85309C12.4509 4.65779 12.4509 4.34115 12.6462 4.14584C12.8417 3.95041 13.1583 3.95041 13.3536 4.14584L15.8535 6.64576C16.0488 6.84107 16.0488 7.15771 15.8535 7.35301L13.3536 9.85294C13.2556 9.95157 13.1277 10.0003 12.9996 10.0003Z" fill="white"/>
        <path d="M5.33321 16.0012C5.19051 16.0012 5.05514 15.9812 4.91989 15.9392L0.907931 14.6026C0.362049 14.4119 0 13.9033 0 13.3347V1.33504C0 0.599713 0.598004 0.00170898 1.33333 0.00170898C1.47591 0.00170898 1.61128 0.0217279 1.74665 0.0637188L5.75849 1.40035C6.30449 1.59102 6.66642 2.09967 6.66642 2.66825V14.6679C6.66642 15.4032 6.06854 16.0012 5.33321 16.0012ZM1.33333 1.00168C1.14999 1.00168 0.999969 1.1517 0.999969 1.33504V13.3347C0.999969 13.4766 1.0953 13.6086 1.23128 13.656L5.22445 14.9866C5.25313 14.9959 5.29048 15.0012 5.33321 15.0012C5.51655 15.0012 5.66645 14.8512 5.66645 14.6679V2.66825C5.66645 2.52629 5.57112 2.39434 5.43513 2.34697L1.44197 1.01633C1.41329 1.00705 1.37593 1.00168 1.33333 1.00168Z" fill="white"/>
        <path d="M10.1662 5.3337C9.89022 5.3337 9.66623 5.1097 9.66623 4.83371V1.8338C9.66623 1.37447 9.29234 1.00046 8.833 1.00046H1.33324C1.05724 1.00046 0.833252 0.776465 0.833252 0.500473C0.833252 0.22448 1.05724 0.000488281 1.33324 0.000488281H8.833C9.84432 0.000488281 10.6662 0.822484 10.6662 1.8338V4.83371C10.6662 5.1097 10.4422 5.3337 10.1662 5.3337Z" fill="white"/>
        <path d="M8.83315 14H6.16649C5.8905 14 5.6665 13.776 5.6665 13.5C5.6665 13.224 5.8905 13 6.16649 13H8.83315C9.29249 13 9.66638 12.626 9.66638 12.1666V9.16673C9.66638 8.89074 9.89037 8.66675 10.1664 8.66675C10.4424 8.66675 10.6663 8.89074 10.6663 9.16673V12.1666C10.6663 13.178 9.84447 14 8.83315 14Z" fill="white"/>
    </g>
    <defs>
        <clipPath id="clip0">
            <rect width="16" height="16" fill="white"/>
        </clipPath>
    </defs>
</svg>
