<svg width="13" height="13" viewBox="0 0 13 13" fill="none" xmlns="http://www.w3.org/2000/svg">
    <path fill-rule="evenodd" clip-rule="evenodd" d="M12.5301 1.81789C12.9032 1.44475 12.9032 0.839778 12.5301 0.466641C12.157 0.0935032 11.552 0.0935033 11.1789 0.466641L6.4974 5.1481L1.81594 0.46664C1.4428 0.0935029 0.837825 0.0935032 0.464688 0.466641C0.0915501 0.839778 0.0915502 1.44475 0.464688 1.81789L5.14615 6.49935L0.464688 11.1808C0.0915501 11.5539 0.0915501 12.1589 0.464688 12.5321C0.837825 12.9052 1.4428 12.9052 1.81594 12.5321L6.4974 7.8506L11.1789 12.5321C11.552 12.9052 12.157 12.9052 12.5301 12.5321C12.9032 12.1589 12.9032 11.5539 12.5301 11.1808L7.84865 6.49935L12.5301 1.81789Z" fill="url(#paint0_linear)"/>
    <defs>
        <linearGradient id="paint0_linear" x1="-0.210937" y1="13.2077" x2="8.66335" y2="-2.73711" gradientUnits="userSpaceOnUse">
            <stop stop-color="#1B9DFB"/>
            <stop offset="1" stop-color="#1B9DFB"/>
        </linearGradient>
    </defs>
</svg>
