<svg width="30" height="30" viewBox="0 0 30 30" fill="none" xmlns="http://www.w3.org/2000/svg">
    <g clip-path="url(#clip0)">
        <path d="M27.6888 18.8458C27.2761 18.8458 26.9417 19.1803 26.9417 19.593V26.2269C26.9402 27.4644 25.9377 28.4672 24.7002 28.4684H3.73578C2.4983 28.4672 1.49577 27.4644 1.49431 26.2269V6.75677C1.49577 5.51959 2.4983 4.51677 3.73578 4.51531H10.3697C10.7824 4.51531 11.1169 4.18084 11.1169 3.76815C11.1169 3.35576 10.7824 3.021 10.3697 3.021H3.73578C1.67351 3.02333 0.00233486 4.69451 0 6.75677V26.2272C0.00233486 28.2894 1.67351 29.9606 3.73578 29.963H24.7002C26.7625 29.9606 28.4336 28.2894 28.436 26.2272V19.593C28.436 19.1803 28.1015 18.8458 27.6888 18.8458Z" fill="white"/>
        <path d="M28.1396 1.09857C26.8265 -0.214497 24.6977 -0.214497 23.3846 1.09857L10.0549 14.4283C9.96357 14.5196 9.89761 14.6329 9.86317 14.7572L8.11027 21.0856C8.03818 21.345 8.11144 21.6229 8.30173 21.8135C8.49231 22.0037 8.77016 22.077 9.02962 22.0052L15.358 20.252C15.4823 20.2176 15.5955 20.1516 15.6869 20.0603L29.0163 6.73025C30.3274 5.41631 30.3274 3.28925 29.0163 1.97531L28.1396 1.09857ZM11.6829 14.9139L22.5922 4.0043L26.1106 7.52265L15.201 18.4323L11.6829 14.9139ZM10.9801 16.3242L13.791 19.1354L9.90286 20.2126L10.9801 16.3242ZM27.9598 5.67373L27.1674 6.46612L23.6488 2.94749L24.4415 2.15509C25.1708 1.42574 26.3534 1.42574 27.0828 2.15509L27.9598 3.03183C28.688 3.76206 28.688 4.94379 27.9598 5.67373Z" fill="white"/>
    </g>
    <defs>
        <clipPath id="clip0">
            <rect width="30" height="30" fill="white"/>
        </clipPath>
    </defs>
</svg>
