<svg width="21" height="21" viewBox="0 0 21 21" fill="none" xmlns="http://www.w3.org/2000/svg">
    <path d="M19.2178 0.943531C17.9596 -0.31451 15.9198 -0.31451 14.6617 0.943531L1.88944 13.7146C1.80191 13.8022 1.73871 13.9107 1.70571 14.0298L0.0261242 20.0929C-0.0429498 20.3415 0.0272427 20.6077 0.209576 20.7903C0.392188 20.9726 0.658417 21.0428 0.907027 20.974L6.97071 19.2943C7.08985 19.2613 7.19835 19.1981 7.28588 19.1106L20.0579 6.33921C21.314 5.08033 21.314 3.04241 20.0579 1.78353L19.2178 0.943531ZM3.44934 14.1799L13.9024 3.7275L17.2736 7.0984L6.82026 17.5508L3.44934 14.1799ZM2.77594 15.5311L5.46926 18.2245L1.74374 19.2566L2.77594 15.5311ZM19.0455 5.32696L18.2863 6.08615L14.9148 2.71497L15.6743 1.95578C16.3732 1.25699 17.5063 1.25699 18.2052 1.95578L19.0455 2.79578C19.7432 3.49541 19.7432 4.62761 19.0455 5.32696Z" fill="#C8C5D1"/>
</svg>
