<svg width="54" height="54" viewBox="0 0 54 54" fill="none" xmlns="http://www.w3.org/2000/svg">
    <rect width="54" height="54" rx="7" fill="#F3F6FF"/>
    <g clip-path="url(#clip0)">
        <path d="M37.9288 15.8535H18.6121C17.469 15.8535 16.5391 16.7835 16.5391 17.9266V18.8493H18.1756V17.9265C18.1756 17.6859 18.3714 17.4901 18.6121 17.4901H37.9288C38.1695 17.4901 38.3653 17.6859 38.3653 17.9265V34.0392C38.3653 34.2799 38.1695 34.4757 37.9288 34.4757H37.1381V36.1123H37.9288C39.0719 36.1123 40.0018 35.1823 40.0018 34.0392V17.9265C40.0018 16.7835 39.0718 15.8535 37.9288 15.8535Z" fill="#581FF9"/>
        <path d="M34.5722 23.6625H22.8352V21.3876C22.8352 20.6946 22.2734 20.1328 21.5804 20.1328H15.2548C14.5618 20.1328 14 20.6946 14 21.3876V36.8941C14 37.5871 14.5618 38.1488 15.2548 38.1488H34.5722C35.2652 38.1488 35.827 37.5871 35.827 36.8941V24.9173C35.827 24.2243 35.2652 23.6625 34.5722 23.6625ZM15.6365 36.5123V21.7693H21.1986C21.1986 22.1882 21.1986 24.8925 21.1986 25.299C21.3631 25.299 33.8473 25.299 34.1904 25.299V36.5123H15.6365V36.5123Z" fill="#581FF9"/>
    </g>
    <defs>
        <clipPath id="clip0">
            <rect width="26" height="26" fill="white" transform="translate(14 14)"/>
        </clipPath>
    </defs>
</svg>
