<svg width="29" height="21" viewBox="0 0 29 21" fill="none" xmlns="http://www.w3.org/2000/svg">
    <path d="M14.5 0.613525C7.90909 0.613525 2.24091 4.69989 0 10.4999C2.24091 16.2999 7.90909 20.3863 14.5 20.3863C21.0909 20.3863 26.7591 16.2999 29 10.4999C26.7591 4.69989 21.0909 0.613525 14.5 0.613525ZM14.5 17.0908C10.8091 17.0908 7.90909 14.1908 7.90909 10.4999C7.90909 6.80898 10.8091 3.90898 14.5 3.90898C18.1909 3.90898 21.0909 6.80898 21.0909 10.4999C21.0909 14.1908 18.1909 17.0908 14.5 17.0908ZM14.5 6.54534C12.2591 6.54534 10.5455 8.25898 10.5455 10.4999C10.5455 12.7408 12.2591 14.4544 14.5 14.4544C16.7409 14.4544 18.4545 12.7408 18.4545 10.4999C18.4545 8.25898 16.7409 6.54534 14.5 6.54534Z" fill="#999999"/>
</svg>
