<svg width="274" height="274" viewBox="0 0 274 274" fill="none" xmlns="http://www.w3.org/2000/svg">
    <g clip-path="url(#clip0)">
        <path d="M136.978 125.579C124.385 125.579 114.145 115.338 114.145 102.745C114.145 90.1529 124.385 79.9121 136.978 79.9121C149.571 79.9121 159.811 90.1529 159.811 102.745C159.811 115.338 149.571 125.579 136.978 125.579ZM136.978 91.3288C130.676 91.3288 125.561 96.4549 125.561 102.745C125.561 109.036 130.676 114.162 136.978 114.162C143.28 114.162 148.395 109.036 148.395 102.745C148.395 96.4549 143.28 91.3288 136.978 91.3288Z" fill="#561BFB"/>
        <path d="M194.091 171.257C181.499 171.257 171.258 161.016 171.258 148.423C171.258 135.831 181.499 125.59 194.091 125.59C206.684 125.59 216.924 135.831 216.924 148.423C216.924 161.016 206.684 171.257 194.091 171.257ZM194.091 137.007C187.789 137.007 182.674 142.133 182.674 148.423C182.674 154.714 187.789 159.84 194.091 159.84C200.393 159.84 205.508 154.714 205.508 148.423C205.508 142.133 200.393 137.007 194.091 137.007Z" fill="#561BFB"/>
        <path d="M136.978 251.16C133.827 251.16 131.27 248.603 131.27 245.452V119.868C131.27 116.717 133.827 114.16 136.978 114.16C140.129 114.16 142.686 116.717 142.686 119.868V245.452C142.686 248.603 140.129 251.16 136.978 251.16Z" fill="#561BFB"/>
        <path d="M165.56 216.914C162.409 216.914 159.852 214.357 159.852 211.206V176.956C159.852 175.437 160.457 173.988 161.518 172.914L177.958 156.474C180.185 154.248 183.804 154.248 186.03 156.474C188.256 158.701 188.256 162.32 186.03 164.546L171.268 179.319V211.206C171.268 214.357 168.711 216.914 165.56 216.914Z" fill="#561BFB"/>
        <path d="M79.9193 171.257C67.3267 171.257 57.0859 161.016 57.0859 148.423C57.0859 135.831 67.3267 125.59 79.9193 125.59C92.5119 125.59 102.753 135.831 102.753 148.423C102.753 161.016 92.5119 171.257 79.9193 171.257ZM79.9193 137.007C73.6173 137.007 68.5026 142.133 68.5026 148.423C68.5026 154.714 73.6173 159.84 79.9193 159.84C86.2213 159.84 91.3359 154.714 91.3359 148.423C91.3359 142.133 86.2213 137.007 79.9193 137.007Z" fill="#561BFB"/>
        <path d="M108.448 216.915C105.297 216.915 102.74 214.357 102.74 211.206V179.319L87.9666 164.558C85.7403 162.331 85.7403 158.712 87.9666 156.486C90.1928 154.26 93.8119 154.26 96.0382 156.486L112.478 172.926C113.551 173.988 114.156 175.438 114.156 176.956V211.206C114.156 214.357 111.599 216.915 108.448 216.915Z" fill="#561BFB"/>
        <path d="M205.5 205.507H199.792C196.641 205.507 194.083 202.949 194.083 199.798C194.083 196.647 196.641 194.09 199.792 194.09H205.5C236.976 194.09 262.583 168.482 262.583 137.007C262.583 106.787 239.031 81.8069 208.959 80.1401C206.847 80.0259 204.986 78.7587 204.096 76.8521C192.017 50.9819 165.69 34.2565 137 34.2565C100.295 34.2565 68.7626 61.5994 63.6479 97.8474C63.2483 100.656 60.8394 102.757 57.9967 102.757C31.8982 102.757 11.4167 123.238 11.4167 148.423C11.4167 173.608 31.8982 194.09 57.0833 194.09H74.2083C77.3593 194.09 79.9167 196.647 79.9167 199.798C79.9167 202.949 77.3593 205.507 74.2083 205.507H57.0833C25.6076 205.507 0 179.899 0 148.423C0 118.26 23.5069 93.4976 53.156 91.4769C61.0563 52.0208 96.2768 22.8398 137 22.8398C168.978 22.8398 198.433 40.8553 212.955 69.0089C247.456 72.6279 274 101.866 274 137.007C274 174.784 243.278 205.507 205.5 205.507Z" fill="#561BFB"/>
    </g>
    <defs>
        <clipPath id="clip0">
            <rect width="274" height="274" fill="white"/>
        </clipPath>
    </defs>
</svg>
