<svg width="87" height="87" viewBox="0 0 87 87" fill="none" xmlns="http://www.w3.org/2000/svg">
<path d="M73.277 10.0842H67.4792V4.28711C67.4793 4.13088 67.4486 3.97617 67.3889 3.83182C67.3291 3.68747 67.2415 3.55631 67.131 3.44584C67.0206 3.33537 66.8894 3.24776 66.7451 3.18802C66.6007 3.12827 66.446 3.09757 66.2898 3.09766H27.8297C27.7527 3.09772 27.676 3.10546 27.6006 3.12077H27.5938C27.4915 3.14263 27.3926 3.17782 27.2995 3.22544C27.2791 3.23563 27.2601 3.24651 27.2397 3.25806C27.1462 3.30952 27.06 3.3733 26.9834 3.4477L12.8806 17.5546C12.8063 17.6303 12.7427 17.7158 12.6917 17.8088C12.6794 17.8299 12.6679 17.8503 12.657 17.872C12.6104 17.964 12.5757 18.0615 12.5537 18.1623V18.1779C12.5393 18.25 12.5318 18.3232 12.5312 18.3967V75.727C12.5313 76.0425 12.6566 76.345 12.8796 76.5681C13.1027 76.7912 13.4052 76.9165 13.7207 76.9165H19.5191V82.7135C19.519 82.8698 19.5497 83.0245 19.6095 83.1688C19.6692 83.3132 19.7568 83.4443 19.8673 83.5548C19.9778 83.6653 20.1089 83.7529 20.2533 83.8126C20.3976 83.8724 20.5523 83.9031 20.7086 83.903H73.2783C73.4345 83.9031 73.5893 83.8724 73.7336 83.8126C73.878 83.7529 74.0091 83.6653 74.1196 83.5548C74.2301 83.4443 74.3177 83.3132 74.3774 83.1688C74.4372 83.0245 74.4679 82.8698 74.4678 82.7135V11.2736C74.4679 11.1173 74.4371 10.9625 74.3773 10.818C74.3175 10.6736 74.2297 10.5424 74.1191 10.4319C74.0085 10.3214 73.8772 10.2338 73.7327 10.1741C73.5882 10.1145 73.4333 10.0839 73.277 10.0842ZM26.6422 7.15811V17.2073H16.591L26.6422 7.15811ZM14.9088 19.5862H27.8297C27.9859 19.5863 28.1406 19.5556 28.2849 19.4958C28.4293 19.4361 28.5605 19.3485 28.6709 19.238C28.7814 19.1275 28.869 18.9964 28.9287 18.852C28.9885 18.7077 29.0192 18.553 29.0191 18.3967V16.5528H55.4678C55.7833 16.5528 56.0858 16.4274 56.3089 16.2044C56.5319 15.9813 56.6572 15.6788 56.6572 15.3633C56.6572 15.0478 56.5319 14.7453 56.3089 14.5222C56.0858 14.2992 55.7833 14.1738 55.4678 14.1738H29.0211V5.47656H65.1003V74.5376H14.9088V19.5862ZM72.0875 81.5241H21.8967V76.9165H66.2898C66.446 76.9166 66.6007 76.8859 66.7451 76.8261C66.8894 76.7664 67.0206 76.6788 67.131 76.5683C67.2415 76.4578 67.3291 76.3267 67.3889 76.1823C67.4486 76.038 67.4793 75.8833 67.4792 75.727V12.4631H72.0875V81.5241Z" fill="#581FF9"/>
<path d="M24.541 32.9814H55.4668C55.7823 32.9814 56.0848 32.8561 56.3079 32.6331C56.5309 32.41 56.6562 32.1075 56.6562 31.792C56.6562 31.4765 56.5309 31.174 56.3079 30.9509C56.0848 30.7279 55.7823 30.6025 55.4668 30.6025H24.541C24.2256 30.6025 23.923 30.7279 23.6999 30.9509C23.4769 31.174 23.3516 31.4765 23.3516 31.792C23.3516 32.1075 23.4769 32.41 23.6999 32.6331C23.923 32.8561 24.2256 32.9814 24.541 32.9814Z" fill="#581FF9"/>
<path d="M24.541 41.1963H55.4668C55.7823 41.1963 56.0848 41.071 56.3079 40.8479C56.5309 40.6248 56.6562 40.3223 56.6562 40.0068C56.6562 39.6914 56.5309 39.3888 56.3079 39.1658C56.0848 38.9427 55.7823 38.8174 55.4668 38.8174H24.541C24.2256 38.8174 23.923 38.9427 23.6999 39.1658C23.4769 39.3888 23.3516 39.6914 23.3516 40.0068C23.3516 40.3223 23.4769 40.6248 23.6999 40.8479C23.923 41.071 24.2256 41.1963 24.541 41.1963Z" fill="#581FF9"/>
<path d="M24.541 49.4131H55.4668C55.7823 49.4131 56.0848 49.2878 56.3079 49.0647C56.5309 48.8416 56.6562 48.5391 56.6562 48.2236C56.6562 47.9082 56.5309 47.6056 56.3079 47.3826C56.0848 47.1595 55.7823 47.0342 55.4668 47.0342H24.541C24.2256 47.0342 23.923 47.1595 23.6999 47.3826C23.4769 47.6056 23.3516 47.9082 23.3516 48.2236C23.3516 48.5391 23.4769 48.8416 23.6999 49.0647C23.923 49.2878 24.2256 49.4131 24.541 49.4131Z" fill="#581FF9"/>
<path d="M24.541 57.625H55.4668C55.7823 57.625 56.0848 57.4997 56.3079 57.2766C56.5309 57.0536 56.6562 56.751 56.6562 56.4355C56.6562 56.1201 56.5309 55.8175 56.3079 55.5945C56.0848 55.3714 55.7823 55.2461 55.4668 55.2461H24.541C24.2256 55.2461 23.923 55.3714 23.6999 55.5945C23.4769 55.8175 23.3516 56.1201 23.3516 56.4355C23.3516 56.751 23.4769 57.0536 23.6999 57.2766C23.923 57.4997 24.2256 57.625 24.541 57.625Z" fill="#581FF9"/>
<path d="M24.541 65.8398H55.4668C55.7823 65.8398 56.0848 65.7145 56.3079 65.4915C56.5309 65.2684 56.6562 64.9659 56.6562 64.6504C56.6562 64.3349 56.5309 64.0324 56.3079 63.8093C56.0848 63.5863 55.7823 63.4609 55.4668 63.4609H24.541C24.2256 63.4609 23.923 63.5863 23.6999 63.8093C23.4769 64.0324 23.3516 64.3349 23.3516 64.6504C23.3516 64.9659 23.4769 65.2684 23.6999 65.4915C23.923 65.7145 24.2256 65.8398 24.541 65.8398Z" fill="#581FF9"/>
<path d="M24.541 24.7666H55.4668C55.7823 24.7666 56.0848 24.6413 56.3079 24.4182C56.5309 24.1952 56.6562 23.8926 56.6562 23.5771C56.6562 23.2617 56.5309 22.9591 56.3079 22.7361C56.0848 22.513 55.7823 22.3877 55.4668 22.3877H24.541C24.2256 22.3877 23.923 22.513 23.6999 22.7361C23.4769 22.9591 23.3516 23.2617 23.3516 23.5771C23.3516 23.8926 23.4769 24.1952 23.6999 24.4182C23.923 24.6413 24.2256 24.7666 24.541 24.7666Z" fill="#581FF9"/>
</svg>
