<svg width="42" height="42" viewBox="0 0 42 42" fill="none" xmlns="http://www.w3.org/2000/svg">
    <path d="M31.1612 10.752C28.8301 10.752 26.9336 12.6485 26.9336 14.9796C26.9336 17.3107 28.8301 19.2072 31.1612 19.2072C33.4923 19.2072 35.3889 17.3108 35.3889 14.9796C35.3889 12.6484 33.4924 10.752 31.1612 10.752ZM31.1612 17.5666C29.7347 17.5666 28.5742 16.4061 28.5742 14.9796C28.5742 13.5531 29.7347 12.3926 31.1612 12.3926C32.5877 12.3926 33.7483 13.5531 33.7483 14.9796C33.7483 16.406 32.5878 17.5666 31.1612 17.5666Z" fill="#581FF9"/>
    <path d="M31.1907 37.0124C31.1702 36.9624 31.1448 36.9148 31.1153 36.8705C31.0857 36.8254 31.0513 36.7835 31.0136 36.7458C30.9758 36.7081 30.934 36.6736 30.8889 36.6441C30.8446 36.6146 30.797 36.5891 30.747 36.5686C30.6977 36.5481 30.6461 36.5317 30.5936 36.5219C30.4877 36.5005 30.3795 36.5005 30.2736 36.5219C30.2211 36.5317 30.1695 36.5481 30.1202 36.5686C30.0702 36.5891 30.0226 36.6146 29.9783 36.6441C29.9332 36.6736 29.8914 36.7081 29.8536 36.7458C29.8159 36.7835 29.7814 36.8254 29.7519 36.8705C29.7224 36.9148 29.697 36.9624 29.6764 37.0124C29.6559 37.0616 29.6395 37.1133 29.6297 37.1658C29.619 37.2183 29.6133 37.2724 29.6133 37.3258C29.6133 37.3791 29.619 37.4332 29.6297 37.4857C29.6395 37.5382 29.6559 37.5899 29.6764 37.6391C29.697 37.6892 29.7224 37.7367 29.7519 37.781C29.7814 37.8262 29.8159 37.868 29.8536 37.9057C29.8724 37.9245 29.8923 37.9425 29.9129 37.9595C29.9339 37.9765 29.9557 37.9927 29.9783 38.0074C30.0226 38.037 30.0702 38.0624 30.1202 38.0829C30.1695 38.1034 30.2211 38.1198 30.2736 38.1297C30.3261 38.1403 30.3803 38.1461 30.4336 38.1461C30.4869 38.1461 30.5411 38.1403 30.5936 38.1297C30.6461 38.1198 30.6977 38.1034 30.747 38.0829C30.797 38.0624 30.8446 38.037 30.8889 38.0074C30.9115 37.9926 30.9333 37.9765 30.9542 37.9595C30.975 37.9425 30.9948 37.9245 31.0136 37.9057C31.0513 37.868 31.0857 37.8262 31.1153 37.781C31.1448 37.7367 31.1702 37.6892 31.1907 37.6391C31.2113 37.5899 31.2277 37.5382 31.2383 37.4857C31.249 37.4332 31.2539 37.3791 31.2539 37.3258C31.2539 37.2724 31.249 37.2183 31.2383 37.1658C31.2277 37.1132 31.2113 37.0615 31.1907 37.0124Z" fill="#581FF9"/>
    <path d="M18.2806 4.54951C18.2601 4.50029 18.2346 4.45271 18.2051 4.4076C18.1756 4.3633 18.1411 4.32064 18.1034 4.28291C18.0657 4.24518 18.0238 4.21072 17.9787 4.18119C17.9344 4.15166 17.8868 4.12623 17.8368 4.10572C17.7876 4.08521 17.7359 4.06963 17.6834 4.05896C17.5776 4.03764 17.4693 4.03764 17.3635 4.05896C17.311 4.06963 17.2593 4.08521 17.2093 4.10572C17.16 4.12623 17.1125 4.15166 17.0682 4.18119C17.023 4.21072 16.9812 4.24518 16.9435 4.28291C16.9057 4.32064 16.8713 4.3633 16.8409 4.4076C16.8114 4.45271 16.7868 4.50029 16.7663 4.54951C16.7458 4.59873 16.7294 4.65041 16.7195 4.70291C16.7089 4.75623 16.7031 4.80955 16.7031 4.86369C16.7031 4.91701 16.7089 4.97033 16.7195 5.02365C16.7294 5.07615 16.7458 5.12783 16.7663 5.17705C16.7868 5.22627 16.8114 5.27385 16.8409 5.31896C16.8713 5.36326 16.9057 5.40592 16.9435 5.44365C16.9812 5.48139 17.023 5.51584 17.0682 5.54537C17.1125 5.5749 17.16 5.60033 17.2093 5.62084C17.2593 5.64135 17.311 5.65693 17.3635 5.6676C17.416 5.67826 17.4701 5.684 17.5234 5.684C17.5768 5.684 17.6309 5.67826 17.6834 5.6676C17.7359 5.65693 17.7876 5.64135 17.8368 5.62084C17.8868 5.60033 17.9344 5.5749 17.9787 5.54537C18.0238 5.51584 18.0657 5.48139 18.1034 5.44365C18.1411 5.40592 18.1756 5.36326 18.2051 5.31896C18.2346 5.27385 18.2601 5.22627 18.2806 5.17705C18.3011 5.12783 18.3175 5.07615 18.3273 5.02365C18.338 4.97033 18.3438 4.91701 18.3438 4.86369C18.3438 4.80955 18.338 4.75623 18.3273 4.70291C18.3175 4.65041 18.3011 4.59873 18.2806 4.54951Z" fill="#581FF9"/>
    <path d="M37.4167 4.04591C36.9249 1.9665 35.0542 0.414063 32.8266 0.414063H7.08889C3.18011 0.41398 0 3.59409 0 7.50287V33.2406C0 35.7968 2.04397 37.8831 4.58325 37.9548C5.07511 40.0342 6.94575 41.5866 9.17339 41.5866H37.2824C39.8837 41.5866 42 39.4703 42 36.869V30.6791V8.76C42 6.20391 39.956 4.11753 37.4167 4.04591ZM40.3594 36.8692C40.3594 38.5658 38.979 39.9462 37.2824 39.9462H9.17339C7.86007 39.9462 6.7369 39.1189 6.29614 37.9583C6.16744 37.6195 6.0964 37.2526 6.0964 36.8692V36.3177V32.5172L15.5074 16.5602C15.794 16.0744 16.3049 15.7907 16.8655 15.7998C17.4295 15.8094 17.9272 16.1108 18.1969 16.6062L22.2489 24.0466L28.1389 34.8619C28.2877 35.1352 28.5693 35.29 28.86 35.29C28.9925 35.29 29.127 35.2577 29.2516 35.1899C29.6495 34.9732 29.7964 34.475 29.5797 34.0771L27.6684 30.5674C28.5076 30.6062 29.333 30.3344 29.9903 29.7891L33.6793 26.7289C34.2709 26.2381 35.1445 26.2596 35.7112 26.7792L35.9038 26.9557L37.5444 28.4596L40.3594 31.04V36.8692ZM40.3594 28.8143L37.5443 26.2338L35.9037 24.9846C34.8347 24.5375 33.5637 24.693 32.6318 25.4661L28.9428 28.5263C28.537 28.863 28.0073 28.999 27.4895 28.8995C26.9717 28.8001 26.5301 28.4774 26.278 28.0144L23.6897 23.2618L22.2445 20.608V20.6079L19.6378 15.8214C19.0818 14.8005 18.0559 14.1792 16.8936 14.1593C15.7316 14.1411 14.6848 14.7254 14.0943 15.7267L6.09632 29.2877V8.76C6.09632 7.06335 7.47666 5.68301 9.17331 5.68301H14.2422C14.6952 5.68301 15.0625 5.31576 15.0625 4.8627C15.0625 4.40964 14.6952 4.04239 14.2422 4.04239H9.17331C6.57202 4.04239 4.45569 6.15871 4.45569 8.76V32.2933V36.3056C2.88127 36.1721 1.64062 34.849 1.64062 33.2406V7.50287C1.64062 4.49864 4.08475 2.05461 7.08889 2.05461H32.8266C34.1399 2.05461 35.2631 2.88189 35.7039 4.04247H20.8047C20.3516 4.04247 19.9844 4.40972 19.9844 4.86278C19.9844 5.31584 20.3516 5.68309 20.8047 5.68309H35.9036L37.5442 5.69507C39.1187 5.82845 40.3594 7.15162 40.3594 8.76V28.8143Z" fill="#581FF9"/>
</svg>
