<svg width="296" height="212" viewBox="0 0 296 212" fill="none" xmlns="http://www.w3.org/2000/svg">
    <g clip-path="url(#clip0)">
        <path d="M13.6814 43.1655C16.2863 43.1655 18.398 41.0472 18.398 38.4343C18.398 35.8213 16.2863 33.7031 13.6814 33.7031C11.0765 33.7031 8.96484 35.8213 8.96484 38.4343C8.96484 41.0472 11.0765 43.1655 13.6814 43.1655Z" fill="#E6E6E6"/>
        <path d="M27.8299 43.1655C30.4348 43.1655 32.5464 41.0472 32.5464 38.4343C32.5464 35.8213 30.4348 33.7031 27.8299 33.7031C25.225 33.7031 23.1133 35.8213 23.1133 38.4343C23.1133 41.0472 25.225 43.1655 27.8299 43.1655Z" fill="#E6E6E6"/>
        <path d="M41.9803 43.1655C44.5852 43.1655 46.6968 41.0472 46.6968 38.4343C46.6968 35.8213 44.5852 33.7031 41.9803 33.7031C39.3754 33.7031 37.2637 35.8213 37.2637 38.4343C37.2637 41.0472 39.3754 43.1655 41.9803 43.1655Z" fill="#E6E6E6"/>
        <path d="M56.1306 43.1655C58.7355 43.1655 60.8472 41.0472 60.8472 38.4343C60.8472 35.8213 58.7355 33.7031 56.1306 33.7031C53.5257 33.7031 51.4141 35.8213 51.4141 38.4343C51.4141 41.0472 53.5257 43.1655 56.1306 43.1655Z" fill="#E6E6E6"/>
        <path d="M70.2791 43.1655C72.884 43.1655 74.9957 41.0472 74.9957 38.4343C74.9957 35.8213 72.884 33.7031 70.2791 33.7031C67.6742 33.7031 65.5625 35.8213 65.5625 38.4343C65.5625 41.0472 67.6742 43.1655 70.2791 43.1655Z" fill="#E6E6E6"/>
        <path d="M84.4295 43.1655C87.0344 43.1655 89.146 41.0472 89.146 38.4343C89.146 35.8213 87.0344 33.7031 84.4295 33.7031C81.8246 33.7031 79.7129 35.8213 79.7129 38.4343C79.7129 41.0472 81.8246 43.1655 84.4295 43.1655Z" fill="#E6E6E6"/>
        <path d="M98.5779 43.1655C101.183 43.1655 103.294 41.0472 103.294 38.4343C103.294 35.8213 101.183 33.7031 98.5779 33.7031C95.973 33.7031 93.8613 35.8213 93.8613 38.4343C93.8613 41.0472 95.973 43.1655 98.5779 43.1655Z" fill="#E6E6E6"/>
        <path d="M109.477 44.1948H2.78073C2.27185 44.1942 1.78399 43.9911 1.42416 43.6302C1.06434 43.2692 0.861926 42.7799 0.861328 42.2694V34.5972C0.861925 34.0868 1.06434 33.5974 1.42416 33.2365C1.78399 32.8755 2.27185 32.6725 2.78073 32.6719H109.477C109.986 32.6725 110.474 32.8755 110.834 33.2365C111.194 33.5974 111.396 34.0868 111.397 34.5972V42.2694C111.396 42.7799 111.194 43.2692 110.834 43.6302C110.474 43.9911 109.986 44.1942 109.477 44.1948ZM2.78073 33.442C2.47539 33.4424 2.18267 33.5642 1.96676 33.7807C1.75086 33.9973 1.62942 34.2909 1.62909 34.5972V42.2694C1.62942 42.5757 1.75086 42.8693 1.96676 43.0859C2.18267 43.3025 2.47539 43.4243 2.78073 43.4246H109.477C109.783 43.4243 110.075 43.3025 110.291 43.0859C110.507 42.8693 110.629 42.5757 110.629 42.2694V34.5972C110.629 34.2909 110.507 33.9973 110.291 33.7807C110.075 33.5642 109.783 33.4423 109.477 33.442L2.78073 33.442Z" fill="#E6E6E6"/>
        <path d="M25.6152 1.10622C25.9076 1.10656 26.1879 1.22321 26.3946 1.43059C26.6014 1.63798 26.7177 1.91915 26.718 2.21243V26.184C26.7177 26.4773 26.6014 26.7585 26.3946 26.9659C26.1879 27.1733 25.9076 27.2899 25.6152 27.2903H2.20563C1.91325 27.2899 1.63295 27.1733 1.4262 26.9659C1.21946 26.7585 1.10317 26.4773 1.10283 26.184V2.21245C1.10317 1.91917 1.21946 1.63799 1.4262 1.43061C1.63295 1.22323 1.91325 1.10657 2.20563 1.10624H25.6152V1.10622ZM25.6152 1.5889e-05H2.20563C1.62066 1.5889e-05 1.05965 0.233112 0.646017 0.648026C0.232382 1.06294 0 1.62569 0 2.21246V26.184C0 26.7708 0.232382 27.3336 0.646017 27.7485C1.05965 28.1634 1.62066 28.3965 2.20563 28.3965H25.6152C26.2002 28.3965 26.7612 28.1634 27.1748 27.7485C27.5885 27.3336 27.8208 26.7708 27.8208 26.184V2.21245C27.8208 1.62567 27.5885 1.06292 27.1748 0.64801C26.7612 0.233096 26.2002 9.20563e-07 25.6152 0V1.5889e-05Z" fill="#E6E6E6"/>
        <path d="M21.9645 7.407H6.34581C6.27311 7.40745 6.20105 7.39347 6.13376 7.36588C6.06647 7.33828 6.00528 7.29761 5.95372 7.24621C5.90216 7.1948 5.86124 7.13368 5.83331 7.06635C5.80539 6.99902 5.79102 6.92682 5.79102 6.8539C5.79102 6.78098 5.80539 6.70877 5.83331 6.64145C5.86124 6.57412 5.90216 6.51299 5.95372 6.46159C6.00528 6.41018 6.06647 6.36951 6.13376 6.34192C6.20105 6.31432 6.27311 6.30034 6.34581 6.30079H21.9645C22.0372 6.30034 22.1093 6.31432 22.1766 6.34192C22.2438 6.36951 22.305 6.41018 22.3566 6.46159C22.4082 6.51299 22.4491 6.57412 22.477 6.64145C22.5049 6.70877 22.5193 6.78098 22.5193 6.8539C22.5193 6.92682 22.5049 6.99902 22.477 7.06635C22.4491 7.13368 22.4082 7.1948 22.3566 7.24621C22.305 7.29761 22.2438 7.33828 22.1766 7.36588C22.1093 7.39347 22.0372 7.40745 21.9645 7.407Z" fill="#536DFE"/>
        <path d="M21.9645 11.325H6.34581C6.27311 11.3254 6.20105 11.3114 6.13376 11.2838C6.06647 11.2562 6.00528 11.2156 5.95372 11.1642C5.90216 11.1128 5.86124 11.0516 5.83331 10.9843C5.80539 10.917 5.79102 10.8448 5.79102 10.7719C5.79102 10.6989 5.80539 10.6267 5.83331 10.5594C5.86124 10.4921 5.90216 10.431 5.95372 10.3796C6.00528 10.3282 6.06647 10.2875 6.13376 10.2599C6.20105 10.2323 6.27311 10.2183 6.34581 10.2188H21.9645C22.0372 10.2183 22.1093 10.2323 22.1766 10.2599C22.2438 10.2875 22.305 10.3282 22.3566 10.3796C22.4082 10.431 22.4491 10.4921 22.477 10.5594C22.5049 10.6267 22.5193 10.6989 22.5193 10.7719C22.5193 10.8448 22.5049 10.917 22.477 10.9843C22.4491 11.0516 22.4082 11.1128 22.3566 11.1642C22.305 11.2156 22.2438 11.2562 22.1766 11.2838C22.1093 11.3114 22.0372 11.3254 21.9645 11.325Z" fill="#536DFE"/>
        <path d="M21.9645 15.241H6.34581C6.27311 15.2414 6.20105 15.2275 6.13376 15.1999C6.06647 15.1723 6.00528 15.1316 5.95372 15.0802C5.90216 15.0288 5.86124 14.9677 5.83331 14.9003C5.80539 14.833 5.79102 14.7608 5.79102 14.6879C5.79102 14.615 5.80539 14.5428 5.83331 14.4754C5.86124 14.4081 5.90216 14.347 5.95372 14.2956C6.00528 14.2442 6.06647 14.2035 6.13376 14.1759C6.20105 14.1483 6.27311 14.1343 6.34581 14.1348H21.9645C22.0372 14.1343 22.1093 14.1483 22.1766 14.1759C22.2438 14.2035 22.305 14.2442 22.3566 14.2956C22.4082 14.347 22.4491 14.4081 22.477 14.4754C22.5049 14.5428 22.5193 14.615 22.5193 14.6879C22.5193 14.7608 22.5049 14.833 22.477 14.9003C22.4491 14.9677 22.4082 15.0288 22.3566 15.0802C22.305 15.1316 22.2438 15.1723 22.1766 15.1999C22.1093 15.2275 22.0372 15.2414 21.9645 15.241Z" fill="#536DFE"/>
        <path d="M21.9645 19.157H6.34581C6.27311 19.1574 6.20105 19.1435 6.13376 19.1159C6.06647 19.0883 6.00528 19.0476 5.95372 18.9962C5.90216 18.9448 5.86124 18.8837 5.83331 18.8163C5.80539 18.749 5.79102 18.6768 5.79102 18.6039C5.79102 18.531 5.80539 18.4588 5.83331 18.3914C5.86124 18.3241 5.90216 18.263 5.95372 18.2116C6.00528 18.1602 6.06647 18.1195 6.13376 18.0919C6.20105 18.0643 6.27311 18.0503 6.34581 18.0508H21.9645C22.0372 18.0503 22.1093 18.0643 22.1766 18.0919C22.2438 18.1195 22.305 18.1602 22.3566 18.2116C22.4082 18.263 22.4491 18.3241 22.477 18.3914C22.5049 18.4588 22.5193 18.531 22.5193 18.6039C22.5193 18.6768 22.5049 18.749 22.477 18.8163C22.4491 18.8837 22.4082 18.9448 22.3566 18.9962C22.305 19.0476 22.2438 19.0883 22.1766 19.1159C22.1093 19.1435 22.0372 19.1574 21.9645 19.157Z" fill="#536DFE"/>
        <path d="M21.9631 23.075H6.34437C6.19813 23.075 6.05788 23.0167 5.95447 22.913C5.85106 22.8093 5.79297 22.6686 5.79297 22.5219C5.79297 22.3752 5.85106 22.2345 5.95447 22.1308C6.05788 22.027 6.19813 21.9687 6.34437 21.9688H21.9631C22.1093 21.9688 22.2496 22.027 22.353 22.1308C22.4564 22.2345 22.5145 22.3752 22.5145 22.5219C22.5145 22.6686 22.4564 22.8093 22.353 22.913C22.2496 23.0167 22.1093 23.075 21.9631 23.075Z" fill="#536DFE"/>
        <path d="M105.568 1.10622C105.861 1.10656 106.141 1.22321 106.348 1.43059C106.555 1.63798 106.671 1.91915 106.671 2.21243V26.184C106.671 26.4773 106.555 26.7585 106.348 26.9659C106.141 27.1733 105.861 27.2899 105.568 27.2903H82.1588C81.8664 27.2899 81.5861 27.1733 81.3793 26.9659C81.1726 26.7585 81.0563 26.4773 81.056 26.184V2.21245C81.0563 1.91917 81.1726 1.63799 81.3793 1.43061C81.5861 1.22323 81.8664 1.10657 82.1588 1.10624H105.568V1.10622ZM105.568 1.5889e-05H82.1588C81.5738 1.5889e-05 81.0128 0.233112 80.5991 0.648026C80.1855 1.06294 79.9531 1.62569 79.9531 2.21246V26.184C79.9531 26.7708 80.1855 27.3336 80.5991 27.7485C81.0128 28.1634 81.5738 28.3965 82.1588 28.3965H105.568C106.153 28.3965 106.714 28.1634 107.128 27.7485C107.542 27.3336 107.774 26.7708 107.774 26.184V2.21245C107.774 1.62567 107.542 1.06292 107.128 0.64801C106.714 0.233096 106.153 0 105.568 0V1.5889e-05Z" fill="#E6E6E6"/>
        <path d="M101.918 7.407H86.2989C86.2262 7.40745 86.1542 7.39347 86.0869 7.36588C86.0196 7.33828 85.9584 7.29761 85.9068 7.24621C85.8553 7.1948 85.8144 7.13368 85.7864 7.06635C85.7585 6.99902 85.7441 6.92682 85.7441 6.8539C85.7441 6.78098 85.7585 6.70877 85.7864 6.64145C85.8144 6.57412 85.8553 6.51299 85.9068 6.46159C85.9584 6.41018 86.0196 6.36951 86.0869 6.34192C86.1542 6.31432 86.2262 6.30034 86.2989 6.30079H101.918C102.063 6.30169 102.203 6.36036 102.305 6.46399C102.408 6.56762 102.466 6.70779 102.466 6.8539C102.466 7 102.408 7.14017 102.305 7.2438C102.203 7.34743 102.063 7.4061 101.918 7.407H101.918Z" fill="#536DFE"/>
        <path d="M101.918 11.325H86.2989C86.2262 11.3254 86.1542 11.3114 86.0869 11.2838C86.0196 11.2562 85.9584 11.2156 85.9068 11.1642C85.8553 11.1128 85.8144 11.0516 85.7864 10.9843C85.7585 10.917 85.7441 10.8448 85.7441 10.7719C85.7441 10.6989 85.7585 10.6267 85.7864 10.5594C85.8144 10.4921 85.8553 10.431 85.9068 10.3796C85.9584 10.3282 86.0196 10.2875 86.0869 10.2599C86.1542 10.2323 86.2262 10.2183 86.2989 10.2188H101.918C102.063 10.2197 102.203 10.2783 102.305 10.382C102.408 10.4856 102.466 10.6258 102.466 10.7719C102.466 10.918 102.408 11.0581 102.305 11.1618C102.203 11.2654 102.063 11.3241 101.918 11.325H101.918Z" fill="#536DFE"/>
        <path d="M101.918 15.241H86.2989C86.2262 15.2414 86.1542 15.2275 86.0869 15.1999C86.0196 15.1723 85.9584 15.1316 85.9068 15.0802C85.8553 15.0288 85.8144 14.9677 85.7864 14.9003C85.7585 14.833 85.7441 14.7608 85.7441 14.6879C85.7441 14.615 85.7585 14.5428 85.7864 14.4754C85.8144 14.4081 85.8553 14.347 85.9068 14.2956C85.9584 14.2442 86.0196 14.2035 86.0869 14.1759C86.1542 14.1483 86.2262 14.1343 86.2989 14.1348H101.918C102.063 14.1357 102.203 14.1943 102.305 14.298C102.408 14.4016 102.466 14.5418 102.466 14.6879C102.466 14.834 102.408 14.9742 102.305 15.0778C102.203 15.1814 102.063 15.2401 101.918 15.241H101.918Z" fill="#536DFE"/>
        <path d="M101.918 19.157H86.2989C86.2262 19.1574 86.1542 19.1435 86.0869 19.1159C86.0196 19.0883 85.9584 19.0476 85.9068 18.9962C85.8553 18.9448 85.8144 18.8837 85.7864 18.8163C85.7585 18.749 85.7441 18.6768 85.7441 18.6039C85.7441 18.531 85.7585 18.4588 85.7864 18.3914C85.8144 18.3241 85.8553 18.263 85.9068 18.2116C85.9584 18.1602 86.0196 18.1195 86.0869 18.0919C86.1542 18.0643 86.2262 18.0503 86.2989 18.0508H101.918C102.063 18.0517 102.203 18.1104 102.305 18.214C102.408 18.3176 102.466 18.4578 102.466 18.6039C102.466 18.75 102.408 18.8902 102.305 18.9938C102.203 19.0974 102.063 19.1561 101.918 19.157H101.918Z" fill="#536DFE"/>
        <path d="M101.918 23.075H86.2995C86.1532 23.075 86.013 23.0167 85.9096 22.913C85.8061 22.8093 85.748 22.6686 85.748 22.5219C85.748 22.3752 85.8061 22.2345 85.9096 22.1308C86.013 22.027 86.1532 21.9687 86.2995 21.9688H101.918C102.064 21.9688 102.205 22.027 102.308 22.1308C102.411 22.2345 102.47 22.3752 102.47 22.5219C102.47 22.6686 102.411 22.8093 102.308 22.913C102.205 23.0167 102.064 23.075 101.918 23.075H101.918Z" fill="#536DFE"/>
        <path d="M185.135 47.198C185.427 47.1984 185.707 47.315 185.914 47.5224C186.121 47.7298 186.237 48.0109 186.238 48.3042V72.2758C186.237 72.5691 186.121 72.8503 185.914 73.0577C185.707 73.2651 185.427 73.3817 185.135 73.382H161.725C161.433 73.3817 161.152 73.2651 160.946 73.0577C160.739 72.8503 160.623 72.5691 160.622 72.2758V48.3043C160.623 48.011 160.739 47.7298 160.946 47.5224C161.152 47.315 161.433 47.1984 161.725 47.198H185.135V47.198ZM185.135 46.0918H161.725C161.14 46.0918 160.579 46.3249 160.166 46.7398C159.752 47.1548 159.52 47.7175 159.52 48.3043V72.2759C159.52 72.8627 159.752 73.4254 160.166 73.8403C160.579 74.2552 161.14 74.4883 161.725 74.4883H185.135C185.72 74.4883 186.281 74.2552 186.694 73.8403C187.108 73.4254 187.34 72.8627 187.34 72.2759V48.3043C187.34 47.7175 187.108 47.1547 186.694 46.7398C186.281 46.3249 185.72 46.0918 185.135 46.0918V46.0918Z" fill="#536DFE"/>
        <path d="M181.484 53.4988H165.865C165.793 53.4992 165.721 53.4853 165.653 53.4577C165.586 53.4301 165.525 53.3894 165.473 53.338C165.422 53.2866 165.381 53.2255 165.353 53.1581C165.325 53.0908 165.311 53.0186 165.311 52.9457C165.311 52.8728 165.325 52.8006 165.353 52.7332C165.381 52.6659 165.422 52.6048 165.473 52.5534C165.525 52.502 165.586 52.4613 165.653 52.4337C165.721 52.4061 165.793 52.3921 165.865 52.3926H181.484C181.63 52.3935 181.769 52.4522 181.872 52.5558C181.974 52.6594 182.032 52.7996 182.032 52.9457C182.032 53.0918 181.974 53.232 181.872 53.3356C181.769 53.4392 181.63 53.4979 181.484 53.4988Z" fill="#536DFE"/>
        <path d="M181.483 57.4148H165.864C165.718 57.4148 165.577 57.3565 165.474 57.2528C165.371 57.1491 165.312 57.0084 165.312 56.8617C165.312 56.715 165.371 56.5743 165.474 56.4706C165.577 56.3669 165.718 56.3086 165.864 56.3086H181.483C181.629 56.3086 181.769 56.3669 181.872 56.4706C181.976 56.5743 182.034 56.715 182.034 56.8617C182.034 57.0084 181.976 57.1491 181.872 57.2528C181.769 57.3565 181.629 57.4148 181.483 57.4148Z" fill="#536DFE"/>
        <path d="M181.483 61.3328H165.865C165.792 61.3331 165.72 61.3191 165.653 61.2915C165.586 61.2638 165.525 61.2231 165.473 61.1717C165.422 61.1203 165.381 61.0593 165.353 60.992C165.325 60.9247 165.311 60.8525 165.311 60.7797C165.311 60.7068 165.325 60.6347 165.353 60.5674C165.381 60.5001 165.422 60.439 165.473 60.3876C165.525 60.3362 165.586 60.2955 165.653 60.2679C165.72 60.2402 165.792 60.2262 165.865 60.2266H181.483C181.629 60.2275 181.768 60.2861 181.871 60.3898C181.974 60.4934 182.031 60.6336 182.031 60.7797C182.031 60.9258 181.974 61.0659 181.871 61.1696C181.768 61.2732 181.629 61.3319 181.483 61.3328Z" fill="#536DFE"/>
        <path d="M181.484 65.2488H165.865C165.793 65.2492 165.721 65.2353 165.653 65.2077C165.586 65.1801 165.525 65.1394 165.473 65.088C165.422 65.0366 165.381 64.9755 165.353 64.9081C165.325 64.8408 165.311 64.7686 165.311 64.6957C165.311 64.6228 165.325 64.5506 165.353 64.4832C165.381 64.4159 165.422 64.3548 165.473 64.3034C165.525 64.252 165.586 64.2113 165.653 64.1837C165.721 64.1561 165.793 64.1421 165.865 64.1426H181.484C181.63 64.1435 181.769 64.2021 181.872 64.3058C181.974 64.4094 182.032 64.5496 182.032 64.6957C182.032 64.8418 181.974 64.982 181.872 65.0856C181.769 65.1892 181.63 65.2479 181.484 65.2488Z" fill="#536DFE"/>
        <path d="M181.484 69.1668H165.865C165.793 69.1672 165.721 69.1532 165.653 69.1256C165.586 69.098 165.525 69.0574 165.473 69.006C165.422 68.9546 165.381 68.8934 165.353 68.8261C165.325 68.7588 165.311 68.6866 165.311 68.6137C165.311 68.5407 165.325 68.4685 165.353 68.4012C165.381 68.3339 165.422 68.2728 165.473 68.2214C165.525 68.1699 165.586 68.1293 165.653 68.1017C165.721 68.0741 165.793 68.0601 165.865 68.0606H181.484C181.63 68.0615 181.769 68.1201 181.872 68.2237C181.974 68.3274 182.032 68.4676 182.032 68.6137C182.032 68.7598 181.974 68.8999 181.872 69.0036C181.769 69.1072 181.63 69.1659 181.484 69.1668Z" fill="#536DFE"/>
        <path d="M65.8987 28.3971H41.8762C41.2265 28.3963 40.6037 28.1371 40.1443 27.6763C39.685 27.2155 39.4265 26.5908 39.4258 25.9391V8.6965C39.4265 8.0448 39.6849 7.42 40.1443 6.95915C40.6036 6.49831 41.2265 6.23906 41.8762 6.23828H65.8987C66.5484 6.239 67.1713 6.49822 67.6308 6.95907C68.0902 7.41992 68.3486 8.04476 68.3493 8.6965V25.9391C68.3486 26.5908 68.0901 27.2156 67.6307 27.6764C67.1713 28.1372 66.5484 28.3964 65.8987 28.3971ZM41.8762 7.3445C41.5188 7.34495 41.1763 7.48754 40.9237 7.741C40.6711 7.99446 40.529 8.33809 40.5286 8.6965V25.9391C40.529 26.2975 40.6711 26.6411 40.9237 26.8945C41.1763 27.1479 41.5189 27.2905 41.8762 27.2908H65.8987C66.256 27.2905 66.5986 27.148 66.8512 26.8945C67.1039 26.6411 67.2461 26.2975 67.2465 25.9391V8.6965C67.2461 8.33806 67.1039 7.99443 66.8513 7.74098C66.5986 7.48752 66.256 7.34494 65.8987 7.3445H41.8762Z" fill="#E6E6E6"/>
        <path d="M61.698 13.9539H46.0793C45.9336 13.953 45.7942 13.8943 45.6916 13.7907C45.5889 13.6871 45.5312 13.5469 45.5312 13.4008C45.5312 13.2547 45.5889 13.1145 45.6916 13.0109C45.7942 12.9072 45.9336 12.8486 46.0793 12.8477H61.698C61.7707 12.8472 61.8428 12.8612 61.91 12.8888C61.9773 12.9164 62.0385 12.9571 62.0901 13.0085C62.1416 13.0599 62.1826 13.121 62.2105 13.1883C62.2384 13.2556 62.2528 13.3279 62.2528 13.4008C62.2528 13.4737 62.2384 13.5459 62.2105 13.6132C62.1826 13.6806 62.1416 13.7417 62.0901 13.7931C62.0385 13.8445 61.9773 13.8852 61.91 13.9128C61.8428 13.9403 61.7707 13.9543 61.698 13.9539Z" fill="#536DFE"/>
        <path d="M61.698 17.8699H46.0793C45.9336 17.869 45.7942 17.8103 45.6916 17.7067C45.5889 17.6031 45.5312 17.4629 45.5312 17.3168C45.5312 17.1707 45.5889 17.0305 45.6916 16.9269C45.7942 16.8232 45.9336 16.7646 46.0793 16.7637H61.698C61.7707 16.7632 61.8428 16.7772 61.91 16.8048C61.9773 16.8324 62.0385 16.8731 62.0901 16.9245C62.1416 16.9759 62.1826 17.037 62.2105 17.1043C62.2384 17.1717 62.2528 17.2439 62.2528 17.3168C62.2528 17.3897 62.2384 17.4619 62.2105 17.5292C62.1826 17.5966 62.1416 17.6577 62.0901 17.7091C62.0385 17.7605 61.9773 17.8012 61.91 17.8288C61.8428 17.8564 61.7707 17.8703 61.698 17.8699Z" fill="#536DFE"/>
        <path d="M61.698 21.7859H46.0793C45.9336 21.785 45.7942 21.7263 45.6916 21.6227C45.5889 21.5191 45.5313 21.3789 45.5312 21.2328C45.5313 21.0867 45.5889 20.9465 45.6916 20.8429C45.7942 20.7393 45.9336 20.6806 46.0793 20.6797H61.698C61.7707 20.6793 61.8428 20.6932 61.91 20.7208C61.9773 20.7484 62.0385 20.7891 62.0901 20.8405C62.1416 20.8919 62.1826 20.953 62.2105 21.0203C62.2384 21.0877 62.2528 21.1599 62.2528 21.2328C62.2528 21.3057 62.2384 21.3779 62.2105 21.4453C62.1826 21.5126 62.1416 21.5737 62.0901 21.6251C62.0385 21.6765 61.9773 21.7172 61.91 21.7448C61.8428 21.7724 61.7707 21.7864 61.698 21.7859Z" fill="#536DFE"/>
        <path d="M145.609 37.9514L122.537 31.2398C121.913 31.0576 121.387 30.6347 121.074 30.0638C120.76 29.4929 120.686 28.8206 120.866 28.1946L125.654 11.6342C125.835 11.0085 126.257 10.4806 126.826 10.1664C127.395 9.8521 128.065 9.77713 128.689 9.95789L151.761 16.6695C152.385 16.8517 152.912 17.2747 153.225 17.8457C153.538 18.4166 153.613 19.0889 153.433 19.7151L148.645 36.2754C148.463 36.9011 148.041 37.4289 147.472 37.7431C146.903 38.0574 146.233 38.1323 145.609 37.9514ZM128.382 11.0203C128.039 10.9209 127.67 10.9622 127.357 11.135C127.044 11.3079 126.813 11.5982 126.713 11.9423L121.925 28.5027C121.826 28.847 121.867 29.2167 122.039 29.5306C122.211 29.8446 122.501 30.0772 122.844 30.1774L145.916 36.889C146.259 36.9884 146.628 36.9473 146.941 36.7745C147.254 36.6017 147.486 36.3114 147.586 35.9673L152.373 19.407C152.472 19.0626 152.431 18.6929 152.259 18.3788C152.087 18.0648 151.797 17.8322 151.454 17.7319L128.382 11.0203Z" fill="#E6E6E6"/>
        <path d="M145.585 22.9067L130.584 18.543C130.444 18.5019 130.326 18.4067 130.256 18.2783C130.185 18.1499 130.169 17.9988 130.209 17.858C130.25 17.7173 130.345 17.5986 130.473 17.5278C130.6 17.457 130.751 17.44 130.891 17.4806L145.892 21.8442C146.033 21.8851 146.151 21.9802 146.222 22.1088C146.292 22.2373 146.309 22.3886 146.268 22.5295C146.227 22.6704 146.133 22.7893 146.004 22.86C145.876 22.9308 145.725 22.9475 145.585 22.9067H145.585Z" fill="#536DFE"/>
        <path d="M144.496 26.6667L129.495 22.3031C129.426 22.2829 129.361 22.2491 129.305 22.2037C129.248 22.1583 129.201 22.1022 129.166 22.0386C129.131 21.9749 129.109 21.905 129.101 21.8328C129.093 21.7606 129.099 21.6876 129.119 21.6178C129.14 21.548 129.173 21.483 129.219 21.4262C129.264 21.3695 129.32 21.3223 129.383 21.2873C129.447 21.2523 129.516 21.2301 129.588 21.2221C129.66 21.2141 129.733 21.2204 129.803 21.2406L144.803 25.6043C144.944 25.6454 145.062 25.7406 145.132 25.869C145.202 25.9974 145.219 26.1486 145.178 26.2893C145.138 26.43 145.043 26.5487 144.915 26.6195C144.787 26.6903 144.637 26.7073 144.496 26.6667Z" fill="#536DFE"/>
        <path d="M143.409 30.4282L128.409 26.0645C128.268 26.0234 128.15 25.9282 128.08 25.7998C128.009 25.6714 127.993 25.5202 128.034 25.3795C128.074 25.2388 128.169 25.12 128.297 25.0493C128.425 24.9785 128.575 24.9615 128.716 25.0021L143.716 29.3657C143.857 29.4066 143.975 29.5017 144.046 29.6302C144.116 29.7588 144.133 29.9101 144.092 30.051C144.052 30.1919 143.957 30.3108 143.829 30.3815C143.701 30.4522 143.55 30.469 143.409 30.4282Z" fill="#536DFE"/>
        <path d="M296 210.959H54.0176V212H296V210.959Z" fill="#E6E6E6"/>
        <path d="M194.516 209.331H155.166L156.5 191.938H193.182L194.516 209.331Z" fill="#E6E6E6"/>
        <path d="M197.185 207.324H153.166V211.338H197.185V207.324Z" fill="#E6E6E6"/>
        <path d="M250.207 79.877H99.8103C98.749 79.877 97.7311 80.2999 96.9807 81.0527C96.2302 81.8054 95.8086 82.8264 95.8086 83.891V175.88H254.209V83.891C254.209 83.3639 254.105 82.8419 253.904 82.3549C253.703 81.8679 253.408 81.4254 253.037 81.0527C252.665 80.6799 252.224 80.3842 251.738 80.1825C251.253 79.9808 250.733 79.877 250.207 79.877H250.207Z" fill="#3F3D56"/>
        <path d="M95.8086 175.881V190.934C95.8086 191.461 95.9121 191.983 96.1132 192.47C96.3143 192.957 96.6091 193.399 96.9807 193.772C97.3522 194.145 97.7934 194.44 98.2789 194.642C98.7644 194.844 99.2848 194.948 99.8103 194.948H250.207C251.268 194.948 252.286 194.525 253.037 193.772C253.787 193.019 254.209 191.998 254.209 190.934V175.881H95.8086Z" fill="#E6E6E6"/>
        <path d="M246.539 88.2402H103.812V168.522H246.539V88.2402Z" fill="#E6E6E6"/>
        <path d="M175.175 189.261C177.386 189.261 179.177 187.463 179.177 185.246C179.177 183.03 177.386 181.232 175.175 181.232C172.965 181.232 171.174 183.03 171.174 185.246C171.174 187.463 172.965 189.261 175.175 189.261Z" fill="#3F3D56"/>
        <path d="M108.261 91.631C108.681 91.631 109.021 91.2899 109.021 90.8692C109.021 90.4485 108.681 90.1074 108.261 90.1074C107.842 90.1074 107.502 90.4485 107.502 90.8692C107.502 91.2899 107.842 91.631 108.261 91.631Z" fill="white"/>
        <path d="M111.144 91.631C111.564 91.631 111.904 91.2899 111.904 90.8692C111.904 90.4485 111.564 90.1074 111.144 90.1074C110.725 90.1074 110.385 90.4485 110.385 90.8692C110.385 91.2899 110.725 91.631 111.144 91.631Z" fill="white"/>
        <path d="M114.027 91.631C114.446 91.631 114.786 91.2899 114.786 90.8692C114.786 90.4485 114.446 90.1074 114.027 90.1074C113.608 90.1074 113.268 90.4485 113.268 90.8692C113.268 91.2899 113.608 91.631 114.027 91.631Z" fill="white"/>
        <path d="M242.424 93.457H107.502V160.88H242.424V93.457Z" fill="white"/>
        <path d="M116.471 103.713C116.345 103.713 116.223 103.763 116.134 103.853C116.045 103.943 115.994 104.064 115.994 104.191V128.376C115.994 128.503 116.045 128.624 116.134 128.714C116.223 128.804 116.345 128.854 116.471 128.854H144.314C144.441 128.854 144.562 128.804 144.651 128.714C144.741 128.624 144.791 128.503 144.791 128.376V104.191C144.791 104.064 144.741 103.943 144.651 103.853C144.562 103.763 144.441 103.713 144.314 103.713H116.471Z" fill="#E6E6E6"/>
        <path d="M161.178 103.791C161.052 103.791 160.931 103.842 160.841 103.931C160.752 104.021 160.701 104.143 160.701 104.269V128.376C160.701 128.503 160.752 128.625 160.841 128.714C160.931 128.804 161.052 128.854 161.178 128.855H188.933C189.059 128.854 189.18 128.804 189.27 128.714C189.359 128.625 189.409 128.503 189.409 128.376V104.269C189.409 104.143 189.359 104.021 189.27 103.931C189.18 103.842 189.059 103.791 188.933 103.791H161.178Z" fill="#E6E6E6"/>
        <path d="M205.414 103.539C205.288 103.539 205.167 103.59 205.077 103.679C204.988 103.769 204.938 103.891 204.938 104.018V128.377C204.938 128.504 204.988 128.625 205.077 128.715C205.167 128.805 205.288 128.855 205.414 128.855H233.457C233.584 128.855 233.705 128.805 233.794 128.715C233.884 128.625 233.934 128.504 233.934 128.377V104.018C233.934 103.891 233.884 103.769 233.794 103.679C233.705 103.59 233.584 103.539 233.457 103.539H205.414Z" fill="#E6E6E6"/>
        <path d="M116.98 140.826C116.719 140.827 116.469 140.931 116.284 141.117C116.1 141.302 115.996 141.553 115.996 141.815C115.996 142.077 116.1 142.329 116.284 142.514C116.469 142.7 116.719 142.804 116.98 142.805H143.158C143.42 142.804 143.67 142.7 143.854 142.514C144.039 142.329 144.143 142.077 144.143 141.815C144.143 141.553 144.039 141.302 143.854 141.117C143.67 140.931 143.42 140.827 143.158 140.826H116.98Z" fill="#E6E6E6"/>
        <path d="M116.98 145.531C116.719 145.532 116.469 145.636 116.284 145.822C116.1 146.007 115.996 146.258 115.996 146.521C115.996 146.783 116.1 147.034 116.284 147.219C116.469 147.405 116.719 147.509 116.98 147.51H128.767C129.028 147.509 129.279 147.405 129.463 147.219C129.648 147.034 129.751 146.783 129.751 146.521C129.751 146.258 129.648 146.007 129.463 145.822C129.279 145.636 129.028 145.532 128.767 145.531H116.98Z" fill="#536DFE"/>
        <path d="M162.166 140.826C161.905 140.827 161.654 140.931 161.47 141.117C161.285 141.302 161.182 141.553 161.182 141.815C161.182 142.077 161.285 142.329 161.47 142.514C161.654 142.7 161.905 142.804 162.166 142.805H188.344C188.605 142.804 188.855 142.7 189.04 142.514C189.225 142.329 189.328 142.077 189.328 141.815C189.328 141.553 189.225 141.302 189.04 141.117C188.855 140.931 188.605 140.827 188.344 140.826H162.166Z" fill="#E6E6E6"/>
        <path d="M162.166 145.531C161.905 145.532 161.654 145.636 161.47 145.822C161.285 146.007 161.182 146.258 161.182 146.521C161.182 146.783 161.285 147.034 161.47 147.219C161.654 147.405 161.905 147.509 162.166 147.51H173.953C174.214 147.509 174.464 147.405 174.649 147.219C174.833 147.034 174.937 146.783 174.937 146.521C174.937 146.258 174.833 146.007 174.649 145.822C174.464 145.636 174.214 145.532 173.953 145.531H162.166Z" fill="#536DFE"/>
        <path d="M206.223 140.826C205.961 140.827 205.711 140.931 205.526 141.117C205.342 141.302 205.238 141.553 205.238 141.815C205.238 142.077 205.342 142.329 205.526 142.514C205.711 142.7 205.961 142.804 206.223 142.805H232.401C232.662 142.804 232.912 142.7 233.097 142.514C233.281 142.329 233.385 142.077 233.385 141.815C233.385 141.553 233.281 141.302 233.097 141.117C232.912 140.931 232.662 140.827 232.401 140.826H206.223Z" fill="#E6E6E6"/>
        <path d="M116.98 135.967C116.719 135.967 116.469 136.072 116.284 136.257C116.1 136.443 115.996 136.694 115.996 136.956C115.996 137.218 116.1 137.469 116.284 137.655C116.469 137.84 116.719 137.945 116.98 137.945H143.158C143.42 137.945 143.67 137.84 143.854 137.655C144.039 137.469 144.143 137.218 144.143 136.956C144.143 136.694 144.039 136.443 143.854 136.257C143.67 136.072 143.42 135.967 143.158 135.967H116.98Z" fill="#E6E6E6"/>
        <path d="M162.166 135.967C161.905 135.967 161.654 136.072 161.47 136.257C161.285 136.443 161.182 136.694 161.182 136.956C161.182 137.218 161.285 137.469 161.47 137.655C161.654 137.84 161.905 137.945 162.166 137.945H188.344C188.605 137.945 188.855 137.84 189.04 137.655C189.225 137.469 189.328 137.218 189.328 136.956C189.328 136.694 189.225 136.443 189.04 136.257C188.855 136.072 188.605 135.967 188.344 135.967H162.166Z" fill="#E6E6E6"/>
        <path d="M206.223 135.967C205.961 135.967 205.711 136.072 205.526 136.257C205.342 136.443 205.238 136.694 205.238 136.956C205.238 137.218 205.342 137.469 205.526 137.655C205.711 137.84 205.961 137.945 206.223 137.945H232.401C232.662 137.945 232.912 137.84 233.097 137.655C233.281 137.469 233.385 137.218 233.385 136.956C233.385 136.694 233.281 136.443 233.097 136.257C232.912 136.072 232.662 135.967 232.401 135.967H206.223Z" fill="#E6E6E6"/>
        <path d="M206.223 145.531C205.961 145.532 205.711 145.636 205.527 145.822C205.342 146.007 205.238 146.258 205.238 146.521C205.238 146.783 205.342 147.034 205.527 147.219C205.711 147.405 205.961 147.509 206.223 147.51H218.009C218.27 147.509 218.521 147.405 218.705 147.219C218.89 147.034 218.993 146.783 218.993 146.521C218.993 146.258 218.89 146.007 218.705 145.822C218.521 145.636 218.27 145.532 218.009 145.531H206.223Z" fill="#536DFE"/>
    </g>
    <defs>
        <clipPath id="clip0">
            <rect width="296" height="212" fill="white"/>
        </clipPath>
    </defs>
</svg>
