<svg width="336" height="202" viewBox="0 0 336 202" fill="none" xmlns="http://www.w3.org/2000/svg">
    <g clip-path="url(#clip0)">
        <path d="M228.586 115.317L231.468 114.82C231.744 114.771 232.018 114.712 232.294 114.662C227.734 111.836 224.273 107.546 222.478 102.496C220.683 97.4458 220.663 91.9365 222.419 86.8732C224.176 81.8098 227.606 77.4936 232.144 74.6337C236.683 71.7737 242.062 70.5401 247.396 71.1355L243.619 80.1066L252.566 72.3073C252.587 72.3125 252.608 72.3193 252.627 72.3277C255.557 73.3579 258.255 74.954 260.567 77.0251C262.879 79.0962 264.759 81.6016 266.101 84.3983C267.443 87.195 268.22 90.2282 268.388 93.3247C268.555 96.4212 268.111 99.5204 267.079 102.445C266.929 102.871 266.751 103.277 266.58 103.688C269.106 102.421 271.529 100.946 273.504 99.0573C277.505 95.2304 279.696 89.9495 282.146 83.4432C286.998 70.5502 291.67 57.4704 296.155 44.3622C291.208 41.6896 287.378 37.3434 285.352 32.1045C283.326 26.8656 283.238 21.0772 285.102 15.779C285.343 15.0974 285.621 14.441 285.916 13.7964C285.99 13.6351 286.064 13.4748 286.141 13.3158C286.441 12.6977 286.758 12.0922 287.105 11.5111C287.162 11.4158 287.226 11.3266 287.284 11.2324C287.586 10.7424 287.905 10.2669 288.241 9.80595C288.366 9.63288 288.49 9.46028 288.619 9.29132C289 8.79496 289.393 8.31199 289.809 7.85089C289.947 7.69661 290.095 7.55246 290.237 7.40217C290.556 7.06615 290.884 6.74027 291.22 6.42454C291.398 6.25832 291.573 6.0909 291.755 5.93058C291.802 5.88944 291.845 5.84455 291.893 5.80375C291.895 5.80676 291.897 5.80999 291.899 5.81296C296.065 2.18836 301.372 0.135722 306.896 0.0118156C312.421 -0.112091 317.815 1.70056 322.14 5.13473L317.226 16.8089L326.071 9.10247C329.166 13.0398 330.921 17.8615 331.078 22.8644C331.235 27.8672 329.787 32.7893 326.945 36.9127C326.953 36.9155 326.962 36.9177 326.97 36.9206C326.873 37.0623 326.764 37.192 326.664 37.3312C326.478 37.5924 326.287 37.8489 326.092 38.1009C325.84 38.4239 325.579 38.7361 325.313 39.0441C325.112 39.2765 324.913 39.5109 324.704 39.7345C324.398 40.0616 324.077 40.3713 323.754 40.6793C323.565 40.859 323.385 41.0477 323.191 41.2208C322.683 41.6742 322.157 42.1044 321.613 42.5115C321.422 42.654 321.221 42.7798 321.027 42.9163C320.645 43.1843 320.261 43.4484 319.865 43.693C319.619 43.8447 319.367 43.9834 319.116 44.126C318.753 44.3326 318.387 44.5328 318.013 44.7198C317.748 44.8523 317.481 44.9781 317.212 45.1008C316.828 45.2753 316.44 45.4371 316.047 45.5912C315.784 45.6944 315.522 45.799 315.255 45.8929C314.815 46.0478 314.368 46.1824 313.918 46.3112C313.691 46.3764 313.468 46.4509 313.239 46.5092C312.564 46.6809 311.882 46.8271 311.192 46.9391C311.062 46.9603 310.93 46.9683 310.8 46.9872C310.228 47.0703 309.653 47.1373 309.073 47.1783C308.824 47.1958 308.574 47.1983 308.324 47.208C307.855 47.2263 307.386 47.2355 306.915 47.2255C306.64 47.2196 306.365 47.2054 306.089 47.1899C305.63 47.164 305.171 47.1241 304.711 47.0702C304.439 47.0387 304.168 47.0075 303.895 46.9664C303.403 46.8917 302.911 46.7941 302.418 46.6872C302.386 46.6802 302.354 46.676 302.321 46.6688C300.428 52.199 298.5 57.7173 296.537 63.2238C298.931 61.0742 301.74 59.4357 304.792 58.4089C307.844 57.3821 311.073 56.9887 314.282 57.2528C317.492 57.517 320.613 58.433 323.455 59.9448C326.297 61.4566 328.8 63.5322 330.809 66.0443L322.632 75.0727L333.704 70.6602C336.393 76.2902 336.733 82.7558 334.65 88.6362C333.928 90.7026 332.917 92.6564 331.646 94.4393C328.91 98.3022 325.075 101.255 320.638 102.916C316.201 104.576 311.366 104.867 306.762 103.751C302.157 102.634 297.994 100.162 294.814 96.6556C291.633 93.1487 289.582 88.7686 288.925 84.0835C288.717 84.6383 288.516 85.2001 288.308 85.7543C286.147 91.4942 283.458 98.6375 278.057 103.802C274.397 107.302 269.893 109.523 265.572 111.401C262.759 112.623 259.908 113.754 257.019 114.792C253.808 116.735 250.18 117.89 246.434 118.159C241.876 119.423 237.261 120.479 232.603 121.293L229.698 121.793C227.088 122.24 224.411 122.699 221.755 123.229C222.137 123.342 222.52 123.45 222.901 123.584C227.634 125.247 231.715 128.37 234.554 132.501C237.393 136.632 238.844 141.557 238.695 146.564L220.485 152.145L236.963 154.757C235.455 158.455 233.034 161.712 229.924 164.223C226.814 166.733 223.118 168.416 219.18 169.114C215.242 169.811 211.191 169.501 207.406 168.212C203.62 166.923 200.224 164.698 197.534 161.743C197.701 162.302 197.869 162.861 198.038 163.419C198.372 164.527 198.704 165.629 199.023 166.721C203.359 181.595 201.493 193.295 193.768 199.665L189.576 194.599C197.094 188.399 194.762 175.622 192.703 168.556C192.391 167.484 192.064 166.401 191.735 165.313C188.911 155.946 185.71 145.33 189.856 135.574C196.105 120.869 214.115 117.791 228.586 115.317Z" fill="#F2F2F2"/>
        <path d="M223.249 201.573H95.6605C91.4765 201.573 87.4639 199.914 84.5054 196.96C81.5468 194.007 79.8848 190.001 79.8848 185.824V127.465C79.8848 126.618 80.0577 125.779 80.393 125.001C80.7283 124.222 81.2189 123.52 81.835 122.937L149.444 58.9547C152.147 56.3966 155.73 54.9707 159.455 54.9707C163.179 54.9707 166.762 56.3966 169.465 58.9547L233.927 119.958C235.537 121.482 236.82 123.318 237.696 125.353C238.572 127.388 239.024 129.58 239.024 131.795V185.824C239.024 187.892 238.616 189.94 237.824 191.851C237.031 193.762 235.869 195.498 234.404 196.96C232.939 198.423 231.2 199.583 229.286 200.374C227.372 201.166 225.32 201.573 223.249 201.573Z" fill="#3F3D56"/>
        <path opacity="0.1" d="M79.8848 128.422H237.698V192.062C237.698 194.584 236.695 197.003 234.908 198.786C233.122 200.57 230.699 201.572 228.172 201.572H89.4107C86.8843 201.572 84.4613 200.57 82.6748 198.786C80.8884 197.003 79.8848 194.584 79.8848 192.062V128.422Z" fill="black"/>
        <path d="M209.293 78.2773H109.288C104.494 78.2773 100.607 82.1572 100.607 86.9432V186.784C100.607 191.57 104.494 195.45 109.288 195.45H209.293C214.087 195.45 217.973 191.57 217.973 186.784V86.9432C217.973 82.1572 214.087 78.2773 209.293 78.2773Z" fill="#536DFE"/>
        <path opacity="0.1" d="M217.973 131.055V195.45H100.607V131.055L159.29 159.371L217.973 131.055Z" fill="black"/>
        <path d="M159.291 163.012L84.0991 126.729C83.634 126.505 83.1195 126.402 82.6037 126.43C82.0879 126.459 81.5878 126.617 81.1502 126.891C80.7126 127.166 80.3519 127.546 80.1019 127.997C79.8519 128.449 79.7207 128.956 79.7207 129.472V191.897C79.7207 193.146 79.9671 194.383 80.4458 195.537C80.9245 196.69 81.6262 197.739 82.5108 198.622C83.3953 199.505 84.4455 200.206 85.6012 200.683C86.757 201.161 87.9957 201.407 89.2466 201.407H229.334C230.585 201.407 231.824 201.161 232.98 200.683C234.136 200.206 235.186 199.505 236.07 198.622C236.955 197.739 237.657 196.69 238.135 195.537C238.614 194.383 238.86 193.146 238.86 191.897V130.541C238.86 129.912 238.7 129.293 238.395 128.742C238.09 128.191 237.65 127.727 237.116 127.393C236.582 127.058 235.972 126.865 235.342 126.83C234.713 126.795 234.085 126.921 233.518 127.195L159.291 163.012Z" fill="#3F3D56"/>
        <path d="M143.541 89.0352H110.719V93.6691H143.541V89.0352Z" fill="#F2F2F2"/>
        <path d="M205.539 105.916H108.066V108.564H205.539V105.916Z" fill="#F2F2F2"/>
        <path d="M205.539 114.852H108.066V117.5H205.539V114.852Z" fill="#F2F2F2"/>
        <path d="M205.539 123.789H108.066V126.437H205.539V123.789Z" fill="#F2F2F2"/>
        <path d="M20.209 201.408H293.399" stroke="#3F3D56" stroke-miterlimit="10"/>
        <path d="M0 160.648C0 180.164 12.2632 195.956 27.4182 195.956L0 160.648Z" fill="#46455B"/>
        <path d="M27.418 195.956C27.418 176.221 41.103 160.252 58.0151 160.252L27.418 195.956Z" fill="#536DFE"/>
        <path d="M9.93359 162.418C9.93359 180.956 17.7536 195.956 27.4177 195.956L9.93359 162.418Z" fill="#536DFE"/>
        <path d="M27.418 195.956C27.418 170.739 43.2358 150.334 62.7835 150.334L27.418 195.956Z" fill="#46455B"/>
        <path d="M21.6504 196.205C21.6504 196.205 25.5387 196.085 26.7106 195.252C27.8825 194.419 32.6919 193.425 32.9826 194.761C33.2733 196.097 38.8261 201.406 34.4361 201.441C30.0462 201.476 24.2359 200.758 23.0663 200.047C21.8967 199.336 21.6504 196.205 21.6504 196.205Z" fill="#A8A8A8"/>
        <path opacity="0.2" d="M34.5145 200.977C30.1245 201.013 24.3142 200.295 23.1446 199.583C22.2539 199.042 21.899 197.098 21.7802 196.201C21.698 196.205 21.6504 196.206 21.6504 196.206C21.6504 196.206 21.8967 199.337 23.0663 200.048C24.2359 200.76 30.0462 201.478 34.4361 201.442C35.7033 201.432 36.141 200.982 36.117 200.315C35.941 200.718 35.4577 200.97 34.5145 200.977Z" fill="black"/>
        <path d="M238.615 53.8749C238.416 55.6472 237.062 57.0749 236.56 58.7866C235.805 61.3629 237.111 64.1275 238.897 66.1339C240.338 67.7358 242.083 69.0362 244.032 69.9598C245.98 70.8833 248.093 71.4116 250.247 71.5141C250.88 71.5696 251.517 71.5002 252.123 71.3099C252.665 71.0925 253.152 70.7601 253.551 70.3358C254.896 68.9874 255.618 67.119 255.906 65.2377C256.194 63.3565 256.082 61.4399 255.97 59.5401C255.97 59.1474 255.899 58.7579 255.759 58.3909C255.575 58.0413 255.323 57.732 255.018 57.4816C254.049 56.5946 252.983 55.821 251.838 55.1757C251.321 54.9443 250.865 54.5959 250.506 54.1579C250.29 53.7828 250.15 53.3687 250.094 52.9394L249.743 51.1524C249.68 50.6375 249.504 50.1427 249.227 49.7038C248.607 48.8682 247.42 48.7544 246.379 48.7137L242.564 48.5643C241.378 48.5178 239.814 48.1781 238.656 48.4108C237.574 48.628 237.934 49.6231 238.13 50.5291C238.415 51.6231 238.578 52.7452 238.615 53.8749Z" fill="#A0616A"/>
        <path opacity="0.1" d="M238.615 53.8749C238.416 55.6472 237.062 57.0749 236.56 58.7866C235.805 61.3629 237.111 64.1275 238.897 66.1339C240.338 67.7358 242.083 69.0362 244.032 69.9598C245.98 70.8833 248.093 71.4116 250.247 71.5141C250.88 71.5696 251.517 71.5002 252.123 71.3099C252.665 71.0925 253.152 70.7601 253.551 70.3358C254.896 68.9874 255.618 67.119 255.906 65.2377C256.194 63.3565 256.082 61.4399 255.97 59.5401C255.97 59.1474 255.899 58.7579 255.759 58.3909C255.575 58.0413 255.323 57.732 255.018 57.4816C254.049 56.5946 252.983 55.821 251.838 55.1757C251.321 54.9443 250.865 54.5959 250.506 54.1579C250.29 53.7828 250.15 53.3687 250.094 52.9394L249.743 51.1524C249.68 50.6375 249.504 50.1427 249.227 49.7038C248.607 48.8682 247.42 48.7544 246.379 48.7137L242.564 48.5643C241.378 48.5178 239.814 48.1781 238.656 48.4108C237.574 48.628 237.934 49.6231 238.13 50.5291C238.415 51.6231 238.578 52.7452 238.615 53.8749Z" fill="black"/>
        <path d="M262.879 133.649C262.339 139.565 261.799 145.479 261.258 151.393C260.835 156.047 260.404 160.72 259.574 165.314C259.288 166.897 258.952 168.472 258.553 170.034C257.445 174.369 255.838 178.606 255.319 183.05C255.303 183.178 255.289 183.309 255.276 183.44C255.218 184.423 255.031 185.393 254.722 186.328C254.462 187.007 254.064 187.625 253.783 188.295C253.223 189.636 253.149 191.118 253.081 192.571C251.113 191.466 248.959 190.73 246.725 190.402C245.647 190.241 244.446 190.126 243.711 189.323C242.898 188.434 242.988 187.075 243.125 185.881C243.553 182.175 243.981 178.471 244.407 174.769C244.547 173.177 244.818 171.598 245.218 170.05C245.365 169.535 245.543 169.028 245.723 168.521C245.971 167.824 246.222 167.126 246.411 166.41C246.682 165.252 246.872 164.076 246.978 162.892C247.418 159.164 247.947 155.445 248.411 151.72L248.436 151.524C249.132 145.878 249.661 140.205 249.509 134.518C249.487 133.676 249.451 132.834 249.397 131.99C249.32 130.766 249.208 130.118 250.224 129.352C251.345 128.507 252.822 127.916 254.105 127.363C254.795 127.063 262.399 124.368 262.577 124.96C262.933 126.221 263.12 127.524 263.133 128.834C263.139 130.443 263.054 132.05 262.879 133.649Z" fill="#605D82"/>
        <path opacity="0.1" d="M259.574 165.316C259.287 166.899 258.952 168.474 258.553 170.035C257.445 174.37 255.838 178.607 255.319 183.052C255.303 183.18 255.289 183.31 255.275 183.441C251.885 178.607 249.031 173.408 245.723 168.523C245.971 167.825 246.222 167.128 246.41 166.411C246.682 165.253 246.872 164.078 246.978 162.893C247.418 159.166 247.947 155.446 248.411 151.722L248.436 151.525C248.63 152.316 248.907 153.084 249.263 153.817C251.484 158.324 256.763 160.602 259.345 164.915C259.424 165.049 259.5 165.182 259.574 165.316Z" fill="black"/>
        <path d="M232.067 125.685C232.179 129.3 232.759 132.882 233.337 136.452L234.531 143.818C235.184 147.849 235.864 151.963 237.775 155.573C239.204 158.274 241.264 160.579 243.127 163.003C247.707 168.96 251.148 175.708 255.491 181.84C256.754 183.623 258.558 185.55 260.713 185.178C262.127 184.934 263.154 183.758 264.265 182.852C265.576 181.784 267.155 181.002 268.186 179.663C269.217 178.324 269.419 176.098 268.022 175.145C267.517 174.865 266.98 174.646 266.424 174.492C264.258 173.669 262.856 171.558 261.965 169.424C261.073 167.289 260.532 164.993 259.344 163.008C256.762 158.695 251.483 156.417 249.261 151.908C248.016 149.383 247.898 146.473 247.803 143.66L247.56 136.49C247.533 135.706 247.513 134.89 247.832 134.174C248.682 132.265 251.249 132.087 253.327 131.845C255.685 131.569 257.97 130.85 260.06 129.724C261.257 129.079 262.427 128.256 263.067 127.058C263.651 125.965 263.732 124.683 263.8 123.446L264.52 110.452C264.582 109.334 264.638 108.178 264.243 107.13C263.252 104.498 259.924 103.638 257.111 103.764C251.876 103.997 247.043 106.246 242.107 107.764C240.884 108.149 239.643 108.472 238.388 108.732C237.28 108.954 235.939 108.862 234.883 109.218C233.004 109.85 233.052 113.952 232.785 115.654C232.235 118.968 231.995 122.326 232.067 125.685Z" fill="#605D82"/>
        <path d="M260.002 185.724C260.463 186.188 260.614 186.869 260.734 187.513C261.401 191.082 261.748 194.703 261.771 198.334C261.74 198.672 261.808 199.013 261.966 199.314C262.096 199.494 262.272 199.635 262.476 199.723C263.81 200.358 265.359 199.473 266.47 198.501C268.531 196.699 270.275 194.279 270.392 191.547C270.371 190.843 270.395 190.138 270.466 189.437C270.647 188.409 271.249 187.512 271.779 186.612C272.682 185.079 273.409 183.45 273.949 181.755C274.152 181.119 274.287 180.317 273.787 179.873C273.61 179.734 273.408 179.63 273.193 179.564L267.166 177.33C266.644 177.137 265.344 180.47 265.138 180.834C264.633 181.725 264.132 182.231 263.119 182.437C262.086 182.647 260.856 182.346 259.892 182.86C258.261 183.731 259.078 184.794 260.002 185.724Z" fill="#535070"/>
        <path d="M250.704 187.78C250.591 187.557 250.435 187.36 250.245 187.199C249.966 187.022 249.649 186.915 249.319 186.885C248.172 186.691 246.812 186.563 246.02 187.414C245.278 188.212 245.405 189.513 244.785 190.409C244.588 190.692 244.322 190.926 244.152 191.226C243.94 191.685 243.845 192.188 243.874 192.692C243.842 194.081 243.81 195.472 243.906 196.857C243.986 198.018 244.182 199.235 244.91 200.145C246.077 201.605 248.183 201.815 250.051 201.909L251.565 201.986C251.982 202.037 252.405 201.998 252.805 201.873C253.053 201.758 253.276 201.595 253.46 201.393C253.643 201.191 253.785 200.955 253.875 200.697C254.663 198.742 253.415 196.636 252.647 194.673C251.763 192.418 251.922 189.913 250.704 187.78Z" fill="#535070"/>
        <path d="M238.176 43.8901C238.158 43.6919 238.187 43.4922 238.261 43.3075C238.483 42.9162 239.062 43.0227 239.499 43.1326C241.255 43.5746 243.105 43.1745 244.913 43.2777C246.721 43.381 248.758 44.2834 249.122 46.0547C250.434 45.1258 251.565 43.9653 252.46 42.6304C252.962 41.8807 253.399 41.022 253.331 40.1229C253.232 38.826 252.142 37.8562 251.133 37.0337L248.125 34.5821C247.73 34.2198 247.274 33.9304 246.778 33.7272C246.083 33.4902 245.326 33.6031 244.592 33.6036C242.402 33.605 240.067 32.61 238.12 33.6095C237.306 34.027 236.694 34.7424 236.104 35.44L233.419 38.6129C233.217 38.8151 233.069 39.065 232.99 39.3395C232.913 39.7267 233.113 40.109 233.182 40.4975C233.309 41.2064 233.003 41.9629 233.238 42.6436C233.629 43.7736 235.003 43.9336 235.843 44.5814C236.156 44.8229 236.647 45.6412 237.02 45.6312C237.693 45.6132 238.159 44.4123 238.176 43.8901Z" fill="#3F3D56"/>
        <path d="M242.73 53.2426C247.478 53.2426 251.328 49.3997 251.328 44.6594C251.328 39.919 247.478 36.0762 242.73 36.0762C237.982 36.0762 234.133 39.919 234.133 44.6594C234.133 49.3997 237.982 53.2426 242.73 53.2426Z" fill="#A0616A"/>
        <path d="M244.744 63.4442C244.452 62.6101 243.902 61.8904 243.173 61.3895C242.444 60.8886 241.574 60.6326 240.689 60.6586C240.436 60.7056 240.175 60.6726 239.941 60.5642C239.809 60.463 239.704 60.3313 239.634 60.1806C239.111 59.242 238.691 58.2501 238.381 57.222C238.243 56.7676 238.056 56.232 237.596 56.1139C237.405 56.089 237.211 56.1163 237.035 56.1929C236.859 56.2694 236.706 56.3924 236.595 56.5485C236.376 56.8629 236.137 57.1627 235.88 57.446C234.798 58.4112 232.881 57.5315 231.734 58.417C231.546 58.5617 231.392 58.747 231.195 58.8785C230.998 58.997 230.785 59.0879 230.564 59.1487C228.347 59.8711 226.175 60.7206 224.057 61.693C224.82 66.2829 225.602 70.9527 227.392 75.2488C228.243 77.2932 229.208 79.2955 229.89 81.4024C231.401 86.0706 231.468 91.0654 231.485 95.9713C231.497 99.3289 231.48 102.758 230.392 105.935C230.099 106.637 229.893 107.372 229.777 108.124C229.712 108.881 229.932 109.716 230.547 110.164C230.903 110.397 231.31 110.54 231.734 110.581C233.62 110.857 235.52 110.356 237.377 109.927C242.353 108.776 247.427 108.118 252.492 107.462L260.98 106.361C261.588 106.32 262.184 106.166 262.736 105.908C264.289 105.059 264.436 102.727 263.472 101.244C263.009 100.534 262.357 99.9506 261.969 99.1971C261.58 98.4436 261.547 97.3899 262.216 96.8681C263.576 95.8065 263.17 93.8368 263.235 92.1142C263.417 87.2974 263.392 82.4787 263.162 77.6581C263.094 76.6603 263.078 75.6595 263.114 74.66C263.265 72.9663 263.578 71.2909 264.05 69.6571L266.629 59.5194C265.955 58.4565 264.665 57.7821 263.443 57.476C262.221 57.1698 260.948 57.0797 259.745 56.7074C257.28 55.9447 255.085 54.0091 252.51 54.1895C252.315 54.193 252.124 54.2397 251.949 54.3262C251.368 54.6547 251.46 55.4901 251.423 56.1554C251.341 57.6273 250.257 58.8575 249.059 59.72C247.862 60.5825 246.494 61.2114 245.394 62.195C245.199 62.3416 245.04 62.5299 244.927 62.746C244.815 62.9622 244.752 63.2007 244.744 63.4442Z" fill="#3F3D56"/>
        <path d="M210.679 73.0595C210.109 73.4288 209.503 73.74 208.871 73.9885C208.252 74.1724 207.667 74.4559 207.139 74.8277C206.895 75.0378 206.691 75.2894 206.536 75.5708C206.245 76.086 206.098 76.6698 206.11 77.2612C206.122 77.8526 206.293 78.4299 206.605 78.9329C206.917 79.4359 207.358 79.8461 207.883 80.1207C208.408 80.3953 208.997 80.5242 209.588 80.494C210.375 80.406 211.139 80.1785 211.845 79.8222L217.909 77.1988C218.935 76.7548 220.044 76.2345 220.529 75.2282C220.586 75.1344 220.607 75.0234 220.588 74.9155C220.539 74.8013 220.451 74.7085 220.339 74.6541C218.971 73.7673 217.775 72.6412 216.808 71.3301C216.559 70.9929 216.255 70.1966 215.903 69.9944C214.62 69.2565 211.707 72.3939 210.679 73.0595Z" fill="#A0616A"/>
        <path d="M275.504 70.9062L277.74 73.4559C278.22 74.0032 278.7 74.5512 279.138 75.133C280.212 76.6111 281.074 78.2321 281.698 79.9487C282.184 81.2218 282.588 82.5778 282.418 83.9296C282.305 84.6226 282.118 85.3014 281.859 85.9542C281.449 87.2096 280.941 88.4309 280.339 89.6069C279.834 90.5003 279.262 91.3552 278.63 92.1645C276.899 94.4548 275.005 96.6176 272.963 98.6362C272.198 99.3915 271.878 100.613 271.545 101.634C270.932 103.517 269.471 104.984 268.059 106.375C267.606 106.853 267.104 107.284 266.563 107.661C265.751 108.182 264.803 108.452 263.839 108.435C263.416 108.438 262.998 108.352 262.612 108.182C261.645 107.724 261.154 106.608 261.053 105.545C260.964 104.58 261.125 103.608 261.524 102.724C262.806 99.8873 266.101 98.6579 268.429 96.5878C269.795 95.3739 270.839 93.8492 271.869 92.341C272.568 91.3993 273.152 90.3773 273.608 89.297C274.128 87.9117 273.926 86.2717 274.38 84.8635C274.572 84.2683 274.914 83.7308 275.12 83.1404C275.327 82.55 275.379 81.8492 275.018 81.3383C274.745 81.0136 274.398 80.7597 274.005 80.5985C272.518 79.8447 270.852 78.8747 270.567 77.2336C270.454 76.3236 270.692 75.4046 271.233 74.6637C271.773 73.9327 272.403 73.2732 273.109 72.701C273.76 72.1266 274.854 71.4806 275.504 70.9062Z" fill="#A0616A"/>
        <path d="M209.244 76.62C208.85 75.8239 208.356 75.0116 207.56 74.6158C207.173 74.4484 206.757 74.3612 206.336 74.3594C205.915 74.3576 205.498 74.4414 205.111 74.6055C204.338 74.938 203.615 75.3746 202.961 75.903L201.034 77.3212C200.597 77.6073 200.211 77.9635 199.89 78.3755C199.586 78.8752 199.384 79.4297 199.294 80.0076C198.959 81.3253 198.856 82.6916 198.992 84.0446C199.297 86.2141 200.607 88.108 202.049 89.7595C202.951 90.7914 204.063 91.8328 205.434 91.8768C206.025 91.8958 206.683 91.663 206.929 91.1255C207.014 90.9124 207.06 90.6855 207.063 90.4561C207.211 88.0363 206.344 85.6727 205.333 83.4685C205.01 82.8913 204.82 82.2501 204.775 81.5908C204.768 81.4799 204.797 81.3696 204.857 81.2764C204.944 81.1858 205.061 81.1289 205.186 81.116C206.57 80.8427 208.954 81.916 209.925 80.3817C210.554 79.3871 209.692 77.5219 209.244 76.62Z" fill="#A0616A"/>
        <path d="M237.725 41.1889C237.707 40.9907 237.736 40.791 237.81 40.6063C238.032 40.215 238.611 40.3215 239.048 40.4314C240.804 40.8734 242.654 40.4733 244.462 40.5766C246.27 40.6798 248.307 41.5823 248.67 43.3535C249.983 42.4246 251.114 41.2642 252.009 39.9292C252.51 39.1795 252.948 38.3208 252.879 37.4217C252.781 36.1249 251.691 35.155 250.682 34.3326L247.674 31.8809C247.279 31.5186 246.823 31.2292 246.327 31.026C245.632 30.789 244.875 30.9019 244.141 30.9024C241.951 30.9038 239.616 29.9089 237.669 30.9083C236.855 31.3258 236.243 32.0412 235.653 32.7388L232.968 35.9117C232.766 36.1139 232.618 36.3639 232.539 36.6383C232.462 37.0256 232.661 37.4078 232.731 37.7964C232.858 38.5052 232.552 39.2617 232.787 39.9424C233.177 41.0725 234.552 41.2324 235.392 41.8803C235.705 42.1217 236.196 42.94 236.569 42.93C237.242 42.912 237.708 41.7111 237.725 41.1889Z" fill="#3F3D56"/>
        <path d="M219.464 64.7114C219.117 64.9349 218.813 65.2181 218.565 65.5478C218.249 66.0236 218.185 66.6243 217.915 67.1266C217.335 68.2015 215.98 68.5839 215.134 69.4658C215 69.587 214.907 69.7469 214.867 69.9233C214.863 70.1627 214.944 70.3958 215.094 70.5819L219.171 76.9806C220.529 77.0999 221.831 76.2508 223.189 76.3636C223.696 76.4056 224.215 76.5805 224.701 76.4309C225.049 76.2768 225.375 76.0776 225.671 75.8384C226.482 75.327 227.561 75.2674 228.24 74.5927C228.893 73.9451 228.976 72.932 228.968 72.0136C228.979 71.2161 228.898 70.42 228.726 69.6411C228.125 67.185 226.244 65.3003 225.064 63.1247C224.49 62.0655 224.178 61.4454 222.962 62.1727C221.741 62.9037 220.614 63.872 219.464 64.7114Z" fill="#3F3D56"/>
        <path d="M268.978 61.4761C269.744 61.9728 270.435 62.5768 271.029 63.2696C271.65 64.0691 272.001 65.0476 272.598 65.8655C273.176 66.6582 273.964 67.2722 274.619 68.0022C275.614 69.1093 276.288 70.4599 276.95 71.7924C275.334 73.8967 273.571 75.885 271.676 77.7427C271.465 77.9909 271.187 78.1733 270.875 78.2683C270.663 78.2908 270.449 78.2604 270.251 78.18C270.054 78.0996 269.879 77.9717 269.743 77.8075C269.45 77.5 269.242 77.1208 268.961 76.8015C268.298 76.1192 267.416 75.6929 266.468 75.598C265.53 75.5074 264.585 75.4944 263.644 75.5592C263.438 75.5822 263.229 75.5471 263.041 75.458C262.902 75.3618 262.789 75.2323 262.712 75.0812C261.608 73.206 261.964 70.8517 262.353 68.7117L263.247 63.8013C263.376 62.8635 263.626 61.9462 263.99 61.0722C264.329 60.35 265.086 59.1254 266.016 59.3416C266.954 59.5595 268.188 60.9093 268.978 61.4761Z" fill="#3F3D56"/>
        <path d="M105.413 93.7183C112.921 93.7183 119.007 87.6314 119.007 80.1228C119.007 72.6142 112.921 66.5273 105.413 66.5273C97.9062 66.5273 91.8203 72.6142 91.8203 80.1228C91.8203 87.6314 97.9062 93.7183 105.413 93.7183Z" fill="white"/>
        <path d="M105.415 64.2109C102.202 64.2109 99.0615 65.1622 96.3899 66.9443C93.7184 68.7264 91.6361 71.2595 90.4065 74.2231C89.177 77.1866 88.8552 80.4477 89.4821 83.5938C90.1089 86.74 91.6562 89.6299 93.9281 91.8981C96.2001 94.1663 99.0948 95.711 102.246 96.3368C105.397 96.9626 108.664 96.6414 111.632 95.4139C114.601 94.1863 117.138 92.1075 118.923 89.4404C120.708 86.7732 121.661 83.6375 121.661 80.4297C121.648 76.1321 119.933 72.0141 116.889 68.9752C113.845 65.9363 109.72 64.2235 105.415 64.2109ZM102.08 89.0771L93.7546 80.765L96.0899 78.4335L102.088 84.422L114.749 71.7823L117.084 74.1137L102.08 89.0771L102.08 89.0771Z" fill="#57B894"/>
    </g>
    <defs>
        <clipPath id="clip0">
            <rect width="336" height="202" fill="white"/>
        </clipPath>
    </defs>
</svg>
