<svg width="26" height="26" viewBox="0 0 26 26" fill="none" xmlns="http://www.w3.org/2000/svg">
    <g clip-path="url(#clip0)">
        <path d="M17.3365 18.2033V17.5102C17.3346 16.2403 17.8428 15.0231 18.747 14.1314C20.3439 12.5884 21.2424 10.4609 21.235 8.24045C21.2397 4.4921 18.7106 1.21414 15.0839 0.267223C11.4572 -0.679699 7.64876 0.943626 5.82027 4.21587C3.99178 7.4879 4.60537 11.5823 7.31267 14.1747C8.19953 15.0561 8.69065 16.2598 8.67309 17.5102V18.2033C7.82833 18.2012 7.10582 18.8104 6.96495 19.6433C6.82409 20.4762 7.3059 21.289 8.10435 21.565C7.74584 22.0961 7.70946 22.7816 8.0098 23.3476C8.31036 23.9134 8.89877 24.2673 9.53943 24.2677H10.016C10.2232 25.2753 11.1097 25.9989 12.1384 26.0004H13.8711C14.8999 25.9989 15.7865 25.2753 15.9936 24.2677H16.4701C17.1108 24.2673 17.699 23.9132 17.9996 23.3474C18.2999 22.7814 18.2635 22.0959 17.9048 21.565C18.7032 21.289 19.1851 20.4764 19.0444 19.6435C18.9035 18.8106 18.1812 18.2014 17.3365 18.2033ZM7.91166 13.5501C6.31245 12.0222 5.48672 9.8551 5.66439 7.65034C5.97192 4.15601 8.68029 1.35205 12.1619 0.923321C15.2903 0.562277 18.302 2.23192 19.6531 5.0765C21.0045 7.92107 20.3959 11.3103 18.1396 13.5072C17.0687 14.5635 16.467 16.006 16.4701 17.5102V18.2033H9.53943V17.5102C9.55614 16.0242 8.96878 14.5948 7.91166 13.5501ZM13.8711 25.134H12.1384C11.5898 25.1317 11.1016 24.785 10.9187 24.2677H15.0909C14.9081 24.785 14.42 25.1317 13.8711 25.134ZM16.4701 23.4014H9.53943C9.061 23.4014 8.67309 23.0134 8.67309 22.535C8.67309 22.0564 9.061 21.6687 9.53943 21.6687H16.4701C16.9486 21.6687 17.3365 22.0564 17.3365 22.535C17.3365 23.0134 16.9486 23.4014 16.4701 23.4014ZM17.3365 20.8023H8.67309C8.19466 20.8023 7.80676 20.4144 7.80676 19.936C7.80676 19.4574 8.19466 19.0697 8.67309 19.0697H17.3365C17.8149 19.0697 18.2028 19.4574 18.2028 19.936C18.2028 20.4144 17.8149 20.8023 17.3365 20.8023Z" fill="white"/>
        <path d="M22.1016 7.80713H23.8343V8.67346H22.1016V7.80713Z" fill="white"/>
        <path d="M20.666 3.31605L22.1664 2.44971L22.5996 3.20014L21.099 4.06627L20.666 3.31605Z" fill="white"/>
        <path d="M3.41016 3.2009L3.84333 2.45068L5.34377 3.31702L4.9106 4.06724L3.41016 3.2009Z" fill="white"/>
        <path d="M2.17578 7.80713H3.90846V8.67346H2.17578V7.80713Z" fill="white"/>
        <path d="M3.41016 13.2789L4.91081 12.4126L5.34377 13.163L3.84311 14.0291L3.41016 13.2789Z" fill="white"/>
        <path d="M20.666 13.1638L21.0992 12.4136L22.5996 13.2799L22.1664 14.0301L20.666 13.1638Z" fill="white"/>
        <path d="M11.2283 12.3321L11.4535 11.8812L11.7295 12.7086C11.7881 12.8846 11.9525 13.0039 12.138 13.0049H13.8706C14.057 13.0047 14.2224 12.8854 14.2814 12.7086L14.5572 11.8812L14.7824 12.3321C14.8558 12.4789 15.006 12.5718 15.1701 12.5718H16.711C16.9948 12.5716 17.2607 12.4324 17.4227 12.1991C17.5845 11.9658 17.6217 11.668 17.5223 11.4021L16.653 9.08464C16.483 8.63539 16.0796 8.3158 15.6033 8.25299V5.72102C15.6052 5.28743 15.4751 4.86357 15.2304 4.50569C13.9326 2.60889 13.234 2.60889 13.0043 2.60889C12.7748 2.60889 12.076 2.60889 10.7788 4.50527C10.5339 4.86314 10.4036 5.28722 10.4053 5.72102V8.25299C9.92939 8.31559 9.52625 8.63455 9.35578 9.08337L8.48648 11.4021C8.38707 11.668 8.4243 11.9658 8.5861 12.1991C8.7479 12.4324 9.01377 12.5716 9.29783 12.5718H10.8385C11.0034 12.5726 11.1547 12.4798 11.2283 12.3321ZM12.4504 12.1386L12.3057 11.7054H13.7031L13.5584 12.1386H12.4504ZM15.8417 9.38752L16.711 11.7054H15.4379L15.4003 11.6299C15.5251 11.5536 15.6016 11.4184 15.6033 11.2723V9.14492C15.7127 9.18955 15.799 9.27732 15.8417 9.38752ZM11.2716 5.72102C11.2704 5.46213 11.3476 5.20875 11.4935 4.9947C12.3156 3.7927 12.8414 3.47522 13.0043 3.47522C13.1672 3.47522 13.6932 3.7927 14.5157 4.99512C14.6613 5.20917 14.7385 5.46235 14.737 5.72102V10.8391H13.4375V8.24009H12.5711V10.8391H11.2716V5.72102ZM9.29783 11.7054L10.1671 9.38709C10.2101 9.27711 10.2961 9.18955 10.4053 9.14492V11.2723C10.407 11.4184 10.4838 11.5536 10.6085 11.6299L10.5709 11.7054H9.29783Z" fill="white"/>
        <path d="M13.0046 6.94081C13.7224 6.94081 14.3041 6.35895 14.3041 5.6413C14.3041 4.92344 13.7224 4.3418 13.0046 4.3418C12.2869 4.3418 11.7051 4.92344 11.7051 5.6413C11.7051 6.35895 12.2869 6.94081 13.0046 6.94081ZM13.0046 5.20813C13.2438 5.20813 13.4378 5.40209 13.4378 5.6413C13.4378 5.88052 13.2438 6.07447 13.0046 6.07447C12.7654 6.07447 12.5714 5.88052 12.5714 5.6413C12.5714 5.40209 12.7654 5.20813 13.0046 5.20813Z" fill="white"/>
        <path d="M12.5713 14.7378H13.4376V17.3368H12.5713V14.7378Z" fill="white"/>
        <path d="M14.3037 13.8716H15.1701V16.4706H14.3037V13.8716Z" fill="white"/>
        <path d="M10.8389 13.8716H11.7052V16.4706H10.8389V13.8716Z" fill="white"/>
    </g>
    <defs>
        <clipPath id="clip0">
            <rect width="26" height="26" fill="white"/>
        </clipPath>
    </defs>
</svg>
