<svg width="29" height="29" viewBox="0 0 29 29" fill="none" xmlns="http://www.w3.org/2000/svg">
    <g clip-path="url(#clip0)">
        <path d="M11.177 9.66674H2.11451C0.948509 9.66674 0 8.71823 0 7.55201V2.11451C0 0.948509 0.948509 0 2.11451 0H11.177C12.3432 0 13.2917 0.948509 13.2917 2.11451V7.55201C13.2917 8.71823 12.3432 9.66674 11.177 9.66674ZM2.11451 1.8125C1.94791 1.8125 1.8125 1.94791 1.8125 2.11451V7.55201C1.8125 7.71883 1.94791 7.85424 2.11451 7.85424H11.177C11.3438 7.85424 11.4792 7.71883 11.4792 7.55201V2.11451C11.4792 1.94791 11.3438 1.8125 11.177 1.8125H2.11451Z" fill="white"/>
        <path d="M11.177 29H2.11451C0.948509 29 0 28.0515 0 26.8855V14.198C0 13.0318 0.948509 12.0833 2.11451 12.0833H11.177C12.3432 12.0833 13.2917 13.0318 13.2917 14.198V26.8855C13.2917 28.0515 12.3432 29 11.177 29ZM2.11451 13.8958C1.94791 13.8958 1.8125 14.0312 1.8125 14.198V26.8855C1.8125 27.0521 1.94791 27.1875 2.11451 27.1875H11.177C11.3438 27.1875 11.4792 27.0521 11.4792 26.8855V14.198C11.4792 14.0312 11.3438 13.8958 11.177 13.8958H2.11451Z" fill="white"/>
        <path d="M26.8857 29H17.8232C16.657 29 15.7085 28.0515 15.7085 26.8855V21.448C15.7085 20.2818 16.657 19.3333 17.8232 19.3333H26.8857C28.0517 19.3333 29.0002 20.2818 29.0002 21.448V26.8855C29.0002 28.0515 28.0517 29 26.8857 29ZM17.8232 21.1458C17.6564 21.1458 17.521 21.2812 17.521 21.448V26.8855C17.521 27.0521 17.6564 27.1875 17.8232 27.1875H26.8857C27.0523 27.1875 27.1877 27.0521 27.1877 26.8855V21.448C27.1877 21.2812 27.0523 21.1458 26.8857 21.1458H17.8232Z" fill="white"/>
        <path d="M26.8857 16.9167H17.8232C16.657 16.9167 15.7085 15.9682 15.7085 14.802V2.11451C15.7085 0.948509 16.657 0 17.8232 0H26.8857C28.0517 0 29.0002 0.948509 29.0002 2.11451V14.802C29.0002 15.9682 28.0517 16.9167 26.8857 16.9167ZM17.8232 1.8125C17.6564 1.8125 17.521 1.94791 17.521 2.11451V14.802C17.521 14.9688 17.6564 15.1042 17.8232 15.1042H26.8857C27.0523 15.1042 27.1877 14.9688 27.1877 14.802V2.11451C27.1877 1.94791 27.0523 1.8125 26.8857 1.8125H17.8232Z" fill="white"/>
    </g>
    <defs>
        <clipPath id="clip0">
            <rect width="29" height="29" fill="white"/>
        </clipPath>
    </defs>
</svg>
