<svg width="21" height="21" viewBox="0 0 21 21" fill="none" xmlns="http://www.w3.org/2000/svg">
    <g clip-path="url(#clip0)">
        <path d="M8.85178 1.18043L8.85895 1.14765L8.85896 15.1999L4.43171 10.7824C4.21556 10.5661 3.92276 10.4474 3.61544 10.4474C3.30812 10.4474 3.01737 10.5661 2.80071 10.7824L2.113 11.4697C1.89686 11.6859 1.77734 11.9739 1.77734 12.2811C1.77734 12.5884 1.896 12.8766 2.11215 13.0927L9.68393 20.6652C9.90093 20.8822 10.19 21.0008 10.4975 21C10.8067 21.0008 11.0959 20.8822 11.3125 20.6652L18.885 13.0927C19.101 12.8766 19.2198 12.5886 19.2198 12.2811C19.2198 11.9739 19.1008 11.6859 18.885 11.4697L18.1973 10.7824C17.9815 10.5661 17.6933 10.4474 17.386 10.4474C17.0788 10.4474 16.8058 10.5661 16.5899 10.7824L12.1379 15.2497L12.1379 1.16472C12.1379 0.531816 11.5924 -1.37805e-05 10.9598 -1.37528e-05L9.98715 -1.37103e-05C9.35459 -1.36827e-05 8.85178 0.547523 8.85178 1.18043Z" fill="#561BFB"/>
    </g>
    <defs>
        <clipPath id="clip0">
            <rect y="21" width="21" height="21" transform="rotate(-90 0 21)" fill="white"/>
        </clipPath>
    </defs>
</svg>
