<svg width="19" height="21" viewBox="0 0 19 21" fill="none" xmlns="http://www.w3.org/2000/svg">
    <path d="M11.1482 19.8196L11.141 19.8524L11.141 5.8001L15.5683 10.2176C15.7844 10.4339 16.0772 10.5526 16.3846 10.5526C16.6919 10.5526 16.9826 10.4339 17.1993 10.2176L17.887 9.53025C18.1031 9.31411 18.2227 9.02608 18.2227 8.71894C18.2227 8.41162 18.104 8.12342 17.8879 7.90728L10.3161 0.334809C10.0991 0.117809 9.81002 -0.000849452 9.50253 4.19297e-06C9.19334 -0.000849479 8.90412 0.117809 8.68746 0.334809L1.11499 7.90727C0.899017 8.12342 0.780189 8.41145 0.780189 8.71893C0.780189 9.02608 0.899189 9.3141 1.11499 9.53025L1.8027 10.2176C2.01851 10.4339 2.3067 10.5526 2.61402 10.5526C2.92116 10.5526 3.19416 10.4339 3.41014 10.2176L7.86214 5.75025L7.86214 19.8353C7.86214 20.4682 8.40763 21 9.04019 21L10.0128 21C10.6454 21 11.1482 20.4525 11.1482 19.8196Z" fill="#561BFB"/>
</svg>
