<svg width="20" height="27" viewBox="0 0 20 27" fill="none" xmlns="http://www.w3.org/2000/svg">
    <path d="M11.4075 11.2484C11.2196 11.0873 11.0048 10.9799 10.7632 10.8994C10.5216 10.8457 10.2531 10.8188 9.93097 10.8188H8.69607C8.48131 10.8188 8.34708 10.8725 8.2397 10.9531C8.15916 11.0336 8.10547 11.1947 8.10547 11.4095V14.8725C8.10547 15.0336 8.10547 15.141 8.15916 15.2484C8.18601 15.3558 8.2397 15.4094 8.32023 15.4631C8.40077 15.5168 8.535 15.5437 8.72292 15.5437H9.95782C10.1726 15.5437 10.3605 15.5168 10.5484 15.49C10.7095 15.4631 10.8706 15.4094 11.0316 15.3558C11.1927 15.2752 11.3269 15.1947 11.4343 15.0873C11.5954 14.9262 11.7296 14.7652 11.837 14.5772C11.9444 14.3893 12.0249 14.1745 12.0786 13.9329C12.1323 13.6913 12.1592 13.4497 12.1592 13.1544C12.1592 12.3222 11.9175 11.6779 11.4075 11.2484ZM10.7095 14.5772C10.629 14.6309 10.5484 14.6846 10.4679 14.7115C10.3605 14.7383 10.28 14.7652 10.1994 14.7652C10.1189 14.7652 9.98466 14.7652 9.82359 14.7652H9.09876V11.5437H9.74305C10.0384 11.5437 10.28 11.5705 10.4947 11.6511C10.7095 11.7048 10.8706 11.8658 11.0048 12.1074C11.139 12.349 11.2196 12.698 11.2196 13.1544C11.1927 13.8524 11.0316 14.3088 10.7095 14.5772Z" fill="black"/>
    <path d="M19.9463 5.28859L19.9195 5.26174V5.2349L14.8188 0.134228L14.7919 0.107383C14.7919 0.107383 14.7651 0.107383 14.7651 0.0805369C14.7651 0.0805369 14.7383 0.0805369 14.7383 0.0536913C14.6577 0 14.5772 0 14.4698 0H1.8255C1.34228 0 0.885906 0.187919 0.563758 0.510067L0.536913 0.536913C0.214765 0.85906 0 1.34228 0 1.8255V24.6711C0 25.1812 0.214765 25.6376 0.536913 25.9597C0.85906 26.2819 1.34228 26.4966 1.8255 26.4966H18.1745C18.6846 26.4966 19.1409 26.2819 19.4631 25.9597C19.7852 25.6376 20 25.1544 20 24.6711V5.55705C20 5.44966 19.9732 5.36913 19.9463 5.28859ZM14.9799 1.93289L18.0134 4.96644H15.7852C15.5705 4.96644 15.3557 4.88591 15.2215 4.72483C15.0872 4.5906 14.9799 4.37584 14.9799 4.16107V1.93289ZM18.8456 24.6711C18.8456 24.8591 18.7651 25.0201 18.6309 25.1544C18.4966 25.2886 18.3356 25.3691 18.1476 25.3691H1.8255C1.63758 25.3691 1.47651 25.2886 1.34228 25.1812C1.20805 25.047 1.15436 24.8859 1.15436 24.698V1.79866C1.15436 1.61074 1.2349 1.44966 1.36913 1.31544L1.39597 1.28859C1.5302 1.18121 1.69128 1.10067 1.85235 1.10067H13.8792V4.13423C13.8792 4.67114 14.094 5.15436 14.4698 5.5302C14.8188 5.87919 15.3289 6.09396 15.8658 6.09396H18.8456V24.6711Z" fill="black"/>
    <path d="M6.87091 11.1947C6.73669 11.0605 6.57561 10.9799 6.36085 10.9262C6.17293 10.8725 5.87762 10.8457 5.52863 10.8457H4.29373C4.07896 10.8457 3.91789 10.8994 3.83735 10.9799C3.72997 11.0605 3.70312 11.2215 3.70312 11.4363V15.0873C3.70312 15.2752 3.75682 15.4095 3.83735 15.5169C3.91789 15.6242 4.05212 15.6511 4.18635 15.6511C4.32058 15.6511 4.42796 15.5974 4.53534 15.49C4.61588 15.3826 4.66957 15.2484 4.66957 15.0605V13.7182H5.55548C6.14608 13.7182 6.57561 13.584 6.87091 13.3424C7.16622 13.1007 7.32729 12.7249 7.32729 12.2417C7.32729 12.0269 7.30044 11.8121 7.21991 11.6242C7.11252 11.4632 7.00514 11.3021 6.87091 11.1947ZM6.22662 12.6981C6.14608 12.8054 6.0387 12.886 5.87762 12.9397C5.71655 12.9934 5.52863 13.0202 5.31386 13.0202H4.66957V11.5705H5.31386C5.7434 11.5705 6.01185 11.6511 6.17293 11.7853C6.30715 11.9195 6.36085 12.0806 6.36085 12.2954C6.334 12.4564 6.30715 12.5907 6.22662 12.6981Z" fill="black"/>
    <path d="M13.5828 10.792C13.4217 10.8188 13.3143 10.8457 13.2338 10.8994C13.1533 10.9262 13.0727 11.0068 13.0459 11.0873C12.9922 11.1678 12.9922 11.2752 12.9922 11.4363V15.0604C12.9922 15.2484 13.0459 15.4094 13.1264 15.49C13.207 15.5974 13.3412 15.6242 13.4754 15.6242C13.6096 15.6242 13.717 15.5705 13.8244 15.49C13.9049 15.3826 13.9586 15.2484 13.9586 15.0604V13.5034H15.5425C15.6767 13.5034 15.7841 13.4766 15.8647 13.396C15.9452 13.3423 15.9721 13.2349 15.9721 13.1276C15.9721 13.0202 15.9452 12.9396 15.8647 12.8591C15.7841 12.8054 15.6767 12.7517 15.5425 12.7517H13.9586V11.5437H15.8378C15.9989 11.5437 16.1063 11.5168 16.1868 11.4363C16.2674 11.3558 16.2942 11.2752 16.2942 11.1678C16.2942 11.0604 16.2674 10.9799 16.1868 10.8994C16.1063 10.8188 15.9989 10.792 15.8378 10.792H13.5828Z" fill="black"/>
</svg>
