<svg width="16" height="21" viewBox="0 0 16 21" fill="none" xmlns="http://www.w3.org/2000/svg">
    <path d="M9.0428 8.91489C8.89387 8.78723 8.72365 8.70212 8.53217 8.63829C8.34068 8.59574 8.12791 8.57446 7.87259 8.57446H6.89387C6.72365 8.57446 6.61727 8.61702 6.53216 8.68085C6.46833 8.74468 6.42578 8.87233 6.42578 9.04255V11.7872C6.42578 11.9149 6.42578 12 6.46833 12.0851C6.48961 12.1702 6.53216 12.2128 6.59599 12.2553C6.65982 12.2979 6.76621 12.3191 6.91514 12.3191H7.89387C8.06408 12.3191 8.21302 12.2979 8.36195 12.2766C8.48961 12.2553 8.61727 12.2128 8.74493 12.1702C8.87259 12.1064 8.97897 12.0425 9.06408 11.9574C9.19174 11.8298 9.29812 11.7021 9.38323 11.5532C9.46834 11.4042 9.53217 11.234 9.57472 11.0425C9.61727 10.8511 9.63855 10.6596 9.63855 10.4255C9.63855 9.76595 9.44706 9.25531 9.0428 8.91489ZM8.48961 11.5532C8.42578 11.5957 8.36195 11.6383 8.29812 11.6596C8.21302 11.6808 8.14919 11.7021 8.08536 11.7021C8.02153 11.7021 7.91514 11.7021 7.78748 11.7021H7.21302V9.14893H7.72365C7.9577 9.14893 8.14919 9.17021 8.3194 9.23404C8.48961 9.27659 8.61727 9.40425 8.72365 9.59574C8.83004 9.78723 8.89387 10.0638 8.89387 10.4255C8.87259 10.9787 8.74493 11.3404 8.48961 11.5532Z" fill="#895FFC"/>
    <path d="M15.8085 4.19149L15.7872 4.17021V4.14894L11.7447 0.106383L11.7234 0.0851064C11.7234 0.0851064 11.7021 0.0851064 11.7021 0.0638298C11.7021 0.0638298 11.6809 0.0638298 11.6809 0.0425532C11.617 0 11.5532 0 11.4681 0H1.44681C1.06383 0 0.702128 0.148936 0.446808 0.404255L0.425532 0.425532C0.170213 0.680851 0 1.06383 0 1.44681V19.5532C0 19.9574 0.170213 20.3191 0.425532 20.5745C0.680851 20.8298 1.06383 21 1.44681 21H14.4043C14.8085 21 15.1702 20.8298 15.4255 20.5745C15.6809 20.3191 15.8511 19.9362 15.8511 19.5532V4.40426C15.8511 4.31915 15.8298 4.25532 15.8085 4.19149ZM11.8723 1.53191L14.2766 3.93617H12.5106C12.3404 3.93617 12.1702 3.87234 12.0638 3.74468C11.9574 3.6383 11.8723 3.46809 11.8723 3.29787V1.53191ZM14.9362 19.5532C14.9362 19.7021 14.8723 19.8298 14.766 19.9362C14.6596 20.0426 14.5319 20.1064 14.383 20.1064H1.44681C1.29787 20.1064 1.17021 20.0426 1.06383 19.9574C0.957447 19.8511 0.914893 19.7234 0.914893 19.5745V1.42553C0.914893 1.2766 0.978724 1.14894 1.08511 1.04255L1.10638 1.02128C1.21277 0.93617 1.34043 0.87234 1.46809 0.87234H11V3.2766C11 3.70213 11.1702 4.08511 11.4681 4.38298C11.7447 4.65957 12.1489 4.82979 12.5745 4.82979H14.9362V19.5532Z" fill="#895FFC"/>
    <path d="M5.44716 8.8723C5.34078 8.76592 5.21312 8.70209 5.04291 8.65953C4.89397 8.61698 4.65993 8.5957 4.38333 8.5957H3.40461C3.2344 8.5957 3.10674 8.63826 3.04291 8.70209C2.9578 8.76592 2.93652 8.89358 2.93652 9.06379V11.9574C2.93652 12.1063 2.97908 12.2127 3.04291 12.2978C3.10674 12.3829 3.21312 12.4042 3.3195 12.4042C3.42589 12.4042 3.51099 12.3617 3.5961 12.2766C3.65993 12.1915 3.70248 12.0851 3.70248 11.9361V10.8723H4.40461C4.8727 10.8723 5.21312 10.7659 5.44716 10.5744C5.68121 10.3829 5.80887 10.0851 5.80887 9.70209C5.80887 9.53187 5.78759 9.36166 5.72376 9.21272C5.63865 9.08507 5.55355 8.95741 5.44716 8.8723ZM4.93653 10.0638C4.8727 10.1489 4.78759 10.2127 4.65993 10.2553C4.53227 10.2978 4.38333 10.3191 4.21312 10.3191H3.70248V9.17017H4.21312C4.55355 9.17017 4.76631 9.234 4.89397 9.34039C5.00036 9.44677 5.04291 9.57443 5.04291 9.74464C5.02163 9.8723 5.00036 9.97868 4.93653 10.0638Z" fill="#895FFC"/>
    <path d="M10.7659 8.55322C10.6383 8.5745 10.5532 8.59578 10.4893 8.63833C10.4255 8.65961 10.3617 8.72344 10.3404 8.78726C10.2979 8.85109 10.2979 8.9362 10.2979 9.06386V11.9362C10.2979 12.0851 10.3404 12.2128 10.4042 12.2766C10.4681 12.3617 10.5744 12.383 10.6808 12.383C10.7872 12.383 10.8723 12.3405 10.9574 12.2766C11.0213 12.1915 11.0638 12.0851 11.0638 11.9362V10.7022H12.3191C12.4255 10.7022 12.5106 10.6809 12.5744 10.6171C12.6383 10.5745 12.6596 10.4894 12.6596 10.4043C12.6596 10.3192 12.6383 10.2554 12.5744 10.1915C12.5106 10.149 12.4255 10.1064 12.3191 10.1064H11.0638V9.14897H12.5532C12.6808 9.14897 12.7659 9.12769 12.8298 9.06386C12.8936 9.00003 12.9149 8.9362 12.9149 8.85109C12.9149 8.76599 12.8936 8.70216 12.8298 8.63833C12.7659 8.5745 12.6808 8.55322 12.5532 8.55322H10.7659Z" fill="#895FFC"/>
</svg>
