<svg width="20" height="27" viewBox="0 0 20 27" fill="none" xmlns="http://www.w3.org/2000/svg">
    <path d="M11.4094 11.2484C11.2215 11.0873 11.0068 10.9799 10.7651 10.8994C10.5235 10.8457 10.2551 10.8188 9.93293 10.8188H8.69803C8.48326 10.8188 8.34903 10.8725 8.24165 10.9531C8.16111 11.0336 8.10742 11.1947 8.10742 11.4095V14.8725C8.10742 15.0336 8.10742 15.141 8.16111 15.2484C8.18796 15.3558 8.24165 15.4094 8.32219 15.4631C8.40272 15.5168 8.53695 15.5437 8.72487 15.5437H9.95977C10.1745 15.5437 10.3625 15.5168 10.5504 15.49C10.7114 15.4631 10.8725 15.4094 11.0336 15.3558C11.1947 15.2752 11.3289 15.1947 11.4363 15.0873C11.5974 14.9262 11.7316 14.7652 11.839 14.5772C11.9463 14.3893 12.0269 14.1745 12.0806 13.9329C12.1343 13.6913 12.1611 13.4497 12.1611 13.1544C12.1611 12.3222 11.9195 11.6779 11.4094 11.2484ZM10.7114 14.5772C10.6309 14.6309 10.5504 14.6846 10.4698 14.7115C10.3625 14.7383 10.2819 14.7652 10.2014 14.7652C10.1208 14.7652 9.98662 14.7652 9.82554 14.7652H9.10071V11.5437H9.74501C10.0403 11.5437 10.2819 11.5705 10.4967 11.6511C10.7114 11.7048 10.8725 11.8658 11.0068 12.1074C11.141 12.349 11.2215 12.698 11.2215 13.1544C11.1947 13.8524 11.0336 14.3088 10.7114 14.5772Z" fill="white"/>
    <path d="M19.9463 5.28859L19.9195 5.26174V5.2349L14.8188 0.134228L14.7919 0.107383C14.7919 0.107383 14.7651 0.107383 14.7651 0.0805369C14.7651 0.0805369 14.7383 0.0805369 14.7383 0.0536913C14.6577 0 14.5772 0 14.4698 0H1.8255C1.34228 0 0.885906 0.187919 0.563758 0.510067L0.536913 0.536913C0.214765 0.85906 0 1.34228 0 1.8255V24.6711C0 25.1812 0.214765 25.6376 0.536913 25.9597C0.85906 26.2819 1.34228 26.4966 1.8255 26.4966H18.1745C18.6846 26.4966 19.1409 26.2819 19.4631 25.9597C19.7852 25.6376 20 25.1544 20 24.6711V5.55705C20 5.44966 19.9732 5.36913 19.9463 5.28859ZM14.9799 1.93289L18.0134 4.96644H15.7852C15.5705 4.96644 15.3557 4.88591 15.2215 4.72483C15.0872 4.5906 14.9799 4.37584 14.9799 4.16107V1.93289ZM18.8456 24.6711C18.8456 24.8591 18.7651 25.0201 18.6309 25.1544C18.4966 25.2886 18.3356 25.3691 18.1476 25.3691H1.8255C1.63758 25.3691 1.47651 25.2886 1.34228 25.1812C1.20805 25.047 1.15436 24.8859 1.15436 24.698V1.79866C1.15436 1.61074 1.2349 1.44966 1.36913 1.31544L1.39597 1.28859C1.5302 1.18121 1.69128 1.10067 1.85235 1.10067H13.8792V4.13423C13.8792 4.67114 14.094 5.15436 14.4698 5.5302C14.8188 5.87919 15.3289 6.09396 15.8658 6.09396H18.8456V24.6711Z" fill="white"/>
    <path d="M6.87287 11.1947C6.73864 11.0605 6.57756 10.9799 6.3628 10.9262C6.17488 10.8725 5.87958 10.8457 5.53058 10.8457H4.29568C4.08092 10.8457 3.91984 10.8994 3.83931 10.9799C3.73192 11.0605 3.70508 11.2215 3.70508 11.4363V15.0873C3.70508 15.2752 3.75877 15.4095 3.83931 15.5169C3.91984 15.6242 4.05407 15.6511 4.1883 15.6511C4.32253 15.6511 4.42991 15.5974 4.53729 15.49C4.61783 15.3826 4.67152 15.2484 4.67152 15.0605V13.7182H5.55743C6.14803 13.7182 6.57756 13.584 6.87287 13.3424C7.16817 13.1007 7.32924 12.7249 7.32924 12.2417C7.32924 12.0269 7.3024 11.8121 7.22186 11.6242C7.11448 11.4632 7.0071 11.3021 6.87287 11.1947ZM6.22857 12.6981C6.14803 12.8054 6.04065 12.886 5.87958 12.9397C5.7185 12.9934 5.53058 13.0202 5.31582 13.0202H4.67152V11.5705H5.31582C5.74535 11.5705 6.01381 11.6511 6.17488 11.7853C6.30911 11.9195 6.3628 12.0806 6.3628 12.2954C6.33595 12.4564 6.30911 12.5907 6.22857 12.6981Z" fill="white"/>
    <path d="M13.5838 10.792C13.4227 10.8188 13.3153 10.8457 13.2348 10.8994C13.1542 10.9262 13.0737 11.0068 13.0469 11.0873C12.9932 11.1678 12.9932 11.2752 12.9932 11.4363V15.0604C12.9932 15.2484 13.0469 15.4094 13.1274 15.49C13.2079 15.5974 13.3422 15.6242 13.4764 15.6242C13.6106 15.6242 13.718 15.5705 13.8254 15.49C13.9059 15.3826 13.9596 15.2484 13.9596 15.0604V13.5034H15.5435C15.6777 13.5034 15.7851 13.4766 15.8656 13.396C15.9462 13.3423 15.973 13.2349 15.973 13.1276C15.973 13.0202 15.9462 12.9396 15.8656 12.8591C15.7851 12.8054 15.6777 12.7517 15.5435 12.7517H13.9596V11.5437H15.8388C15.9999 11.5437 16.1073 11.5168 16.1878 11.4363C16.2683 11.3558 16.2952 11.2752 16.2952 11.1678C16.2952 11.0604 16.2683 10.9799 16.1878 10.8994C16.1073 10.8188 15.9999 10.792 15.8388 10.792H13.5838Z" fill="white"/>
</svg>
