<svg width="31" height="31" viewBox="0 0 31 31" fill="none" xmlns="http://www.w3.org/2000/svg">
<g clip-path="url(#clip0)">
<path d="M23.115 20.5164H24.9879C28.303 20.5164 31.0001 17.8194 31.0001 14.5043C31.0001 11.1892 28.3031 8.49216 24.9879 8.49216C24.5146 8.49216 24.0475 8.54683 23.5926 8.65509C22.5069 4.55631 18.7732 1.64648 14.4731 1.64648C12.992 1.64648 11.5739 1.98016 10.2582 2.63818C9.95917 2.78779 9.83796 3.1515 9.98751 3.45054C10.1371 3.74958 10.5008 3.87086 10.7999 3.72124C11.9458 3.14805 13.1817 2.85742 14.4731 2.85742C18.2517 2.85742 21.5281 5.43466 22.4441 9.05246C21.79 9.35816 21.1901 9.78435 20.6708 10.32C20.438 10.5601 20.444 10.9434 20.6841 11.1762C20.8017 11.2902 20.9536 11.3469 21.1054 11.3469C21.2635 11.3469 21.4215 11.2854 21.5402 11.1629C22.0574 10.6293 22.6755 10.2334 23.3521 9.989C23.8756 9.7993 24.4259 9.70309 24.9879 9.70309C27.6353 9.70309 29.7891 11.8569 29.7891 14.5043C29.7891 17.1517 27.6353 19.3055 24.9879 19.3055H22.8896C22.4781 18.3752 21.5469 17.724 20.466 17.724C20.3748 17.724 20.2846 17.7287 20.1957 17.7377C19.5962 17.1033 18.7701 16.7436 17.8871 16.7436H17.723C17.992 16.3291 18.149 15.8355 18.149 15.3056V14.5606C18.149 13.1 16.9607 11.9117 15.5 11.9117C14.0393 11.9117 12.851 13.1 12.851 14.5606V15.3056C12.851 15.8355 13.008 16.3292 13.277 16.7436H13.1129C12.2317 16.7436 11.4041 17.1037 10.8043 17.7378C10.7155 17.7287 10.6252 17.7241 10.534 17.7241C9.45306 17.7241 8.52191 18.3752 8.11044 19.3055H6.01212C3.36471 19.3055 1.21094 17.1517 1.21094 14.5043C1.21094 11.882 3.26317 9.77387 5.88304 9.70485C6.15925 9.69758 6.39551 9.50426 6.45726 9.23495C6.61802 8.53406 6.87122 7.85629 7.20992 7.22055C7.36716 6.92545 7.25533 6.55871 6.96023 6.40153C6.66512 6.24429 6.29839 6.35612 6.14121 6.65123C5.8237 7.24725 5.57158 7.87543 5.38928 8.52406C3.99258 8.66744 2.69942 9.29047 1.70833 10.3064C0.60668 11.4356 0 12.9265 0 14.5043C0 17.8194 2.697 20.5164 6.01212 20.5164H7.88502V21.118C7.88502 21.6479 8.04202 22.1416 8.31109 22.5561H8.14694C6.39296 22.5561 4.96599 23.9831 4.96599 25.7371V28.7508C4.96599 29.0851 5.23706 29.3562 5.57146 29.3562H25.4285C25.7629 29.3562 26.034 29.0851 26.034 28.7508V25.7371C26.034 23.9831 24.607 22.5561 22.8531 22.5561H22.6889C22.958 22.1416 23.115 21.6479 23.115 21.118V20.5164H23.115ZM14.0619 15.3055V14.5606C14.0619 13.7676 14.707 13.1225 15.5 13.1225C16.293 13.1225 16.9381 13.7677 16.9381 14.5606V15.3055C16.9381 16.0984 16.293 16.7435 15.5 16.7435C14.707 16.7435 14.0619 16.0984 14.0619 15.3055ZM13.1129 17.9545H17.8871C18.2516 17.9545 18.6004 18.054 18.9028 18.2363C18.2451 18.7188 17.817 19.4967 17.817 20.3731V21.118C17.817 21.6479 17.974 22.1416 18.2431 22.5561H18.0789C17.0185 22.5561 16.0783 23.0782 15.5 23.8782C14.9217 23.0781 13.9815 22.5561 12.9211 22.5561H12.7569C13.026 22.1416 13.183 21.6479 13.183 21.118V20.3731C13.183 19.4967 12.755 18.7188 12.0973 18.2363C12.4 18.054 12.7491 17.9545 13.1129 17.9545ZM9.0959 21.118V20.3731C9.0959 19.5801 9.74102 18.935 10.5339 18.935C11.3269 18.935 11.9721 19.5801 11.9721 20.3731V21.118C11.9721 21.911 11.3269 22.5561 10.5339 22.5561C9.74096 22.5561 9.0959 21.9109 9.0959 21.118ZM14.8911 28.1453H6.17693V25.7371C6.17693 24.6508 7.06067 23.767 8.14694 23.767H12.9211C14.0073 23.767 14.8911 24.6508 14.8911 25.7371V28.1453ZM24.8231 25.7371V28.1453H16.1089V25.7371C16.1089 24.6508 16.9927 23.767 18.0789 23.767H22.8531C23.9393 23.767 24.8231 24.6507 24.8231 25.7371ZM19.0279 21.118V20.3731C19.0279 19.5801 19.673 18.935 20.466 18.935C21.259 18.935 21.904 19.5801 21.904 20.3731V21.118C21.904 21.911 21.2589 22.5561 20.466 22.5561C19.6731 22.5561 19.0279 21.9109 19.0279 21.118Z" fill="#561BFB"/>
<path d="M8.30859 5.36523C8.46783 5.36523 8.62404 5.30045 8.73666 5.18783C8.84928 5.07522 8.91406 4.919 8.91406 4.75977C8.91406 4.60053 8.84928 4.44432 8.73666 4.3317C8.62404 4.21908 8.46844 4.1543 8.30859 4.1543C8.14936 4.1543 7.99314 4.21908 7.88053 4.3317C7.76791 4.44432 7.70312 4.60053 7.70312 4.75977C7.70312 4.919 7.76791 5.07522 7.88053 5.18783C7.99314 5.30045 8.14936 5.36523 8.30859 5.36523Z" fill="#561BFB"/>
</g>
<defs>
<clipPath id="clip0">
<rect width="31" height="31" fill="white"/>
</clipPath>
</defs>
</svg>
