<svg width="62" height="81" viewBox="0 0 62 81" fill="none" xmlns="http://www.w3.org/2000/svg">
    <path d="M60.7457 6.95226H54.948V1.18362C54.9481 1.02816 54.9174 0.874208 54.8576 0.730565C54.7979 0.586921 54.7103 0.456404 54.5998 0.346477C54.4893 0.23655 54.3582 0.149368 54.2138 0.0899171C54.0695 0.0304659 53.9148 -8.87173e-05 53.7585 1.93483e-07H15.2984C15.2215 5.86519e-05 15.1447 0.00776219 15.0694 0.0229962H15.0626C14.9603 0.0447515 14.8613 0.0797701 14.7683 0.127155C14.7479 0.1373 14.7288 0.148122 14.7084 0.15962C14.6149 0.210823 14.5287 0.274291 14.4522 0.348323L0.349359 14.3861C0.275057 14.4614 0.211481 14.5465 0.160406 14.639C0.148172 14.66 0.136618 14.6803 0.125743 14.7019C0.0791675 14.7935 0.0444524 14.8905 0.0224303 14.9907V15.0063C0.00807056 15.078 0.000559913 15.151 0 15.2241V72.2733C0 72.5873 0.125317 72.8883 0.348383 73.1103C0.571449 73.3323 0.873991 73.457 1.18945 73.457H6.98787V79.2256C6.98778 79.3811 7.01848 79.535 7.07823 79.6787C7.13797 79.8223 7.22558 79.9528 7.33605 80.0628C7.44652 80.1727 7.57768 80.2599 7.72203 80.3193C7.86638 80.3788 8.02109 80.4093 8.17732 80.4092H60.7471C60.9033 80.4093 61.058 80.3788 61.2024 80.3193C61.3467 80.2599 61.4779 80.1727 61.5883 80.0628C61.6988 79.9528 61.7864 79.8223 61.8462 79.6787C61.9059 79.535 61.9366 79.3811 61.9365 79.2256V8.13588C61.9366 7.98031 61.9059 7.82624 61.846 7.68251C61.7862 7.53878 61.6985 7.4082 61.5879 7.29826C61.4773 7.18831 61.3459 7.10116 61.2014 7.04179C61.0569 6.98242 60.9021 6.95199 60.7457 6.95226ZM14.111 4.04055V14.0405H4.05977L14.111 4.04055ZM2.37755 16.4077H15.2984C15.4546 16.4078 15.6093 16.3772 15.7537 16.3178C15.898 16.2583 16.0292 16.1712 16.1397 16.0612C16.2501 15.9513 16.3378 15.8208 16.3975 15.6771C16.4572 15.5335 16.4879 15.3796 16.4879 15.2241V13.3891H42.9365C43.252 13.3891 43.5545 13.2644 43.7776 13.0425C44.0007 12.8205 44.126 12.5194 44.126 12.2055C44.126 11.8916 44.0007 11.5905 43.7776 11.3686C43.5545 11.1466 43.252 11.0219 42.9365 11.0219H16.4899V2.36725H52.5691V71.0897H2.37755V16.4077ZM59.5563 78.042H9.36541V73.457H53.7585C53.9148 73.4571 54.0695 73.4265 54.2138 73.3671C54.3582 73.3076 54.4893 73.2204 54.5998 73.1105C54.7103 73.0006 54.7979 72.87 54.8576 72.7264C54.9174 72.5828 54.9481 72.4288 54.948 72.2733V9.31951H59.5563V78.042Z" fill="#581FF9"/>
    <path d="M12.0098 29.7364H42.9355C43.251 29.7364 43.5536 29.6117 43.7766 29.3897C43.9997 29.1677 44.125 28.8667 44.125 28.5528C44.125 28.2388 43.9997 27.9378 43.7766 27.7158C43.5536 27.4938 43.251 27.3691 42.9355 27.3691H12.0098C11.6943 27.3691 11.3918 27.4938 11.1687 27.7158C10.9456 27.9378 10.8203 28.2388 10.8203 28.5528C10.8203 28.8667 10.9456 29.1677 11.1687 29.3897C11.3918 29.6117 11.6943 29.7364 12.0098 29.7364Z" fill="#581FF9"/>
    <path d="M12.0098 37.9122H42.9355C43.251 37.9122 43.5536 37.7875 43.7766 37.5655C43.9997 37.3435 44.125 37.0425 44.125 36.7285C44.125 36.4146 43.9997 36.1136 43.7766 35.8916C43.5536 35.6696 43.251 35.5449 42.9355 35.5449H12.0098C11.6943 35.5449 11.3918 35.6696 11.1687 35.8916C10.9456 36.1136 10.8203 36.4146 10.8203 36.7285C10.8203 37.0425 10.9456 37.3435 11.1687 37.5655C11.3918 37.7875 11.6943 37.9122 12.0098 37.9122Z" fill="#581FF9"/>
    <path d="M12.0098 46.0899H42.9355C43.251 46.0899 43.5536 45.9652 43.7766 45.7432C43.9997 45.5213 44.125 45.2202 44.125 44.9063C44.125 44.5924 43.9997 44.2913 43.7766 44.0693C43.5536 43.8474 43.251 43.7227 42.9355 43.7227H12.0098C11.6943 43.7227 11.3918 43.8474 11.1687 44.0693C10.9456 44.2913 10.8203 44.5924 10.8203 44.9063C10.8203 45.2202 10.9456 45.5213 11.1687 45.7432C11.3918 45.9652 11.6943 46.0899 12.0098 46.0899Z" fill="#581FF9"/>
    <path d="M12.0098 54.2598H42.9355C43.251 54.2598 43.5536 54.1351 43.7766 53.9132C43.9997 53.6912 44.125 53.3901 44.125 53.0762C44.125 52.7623 43.9997 52.4612 43.7766 52.2393C43.5536 52.0173 43.251 51.8926 42.9355 51.8926H12.0098C11.6943 51.8926 11.3918 52.0173 11.1687 52.2393C10.9456 52.4612 10.8203 52.7623 10.8203 53.0762C10.8203 53.3901 10.9456 53.6912 11.1687 53.9132C11.3918 54.1351 11.6943 54.2598 12.0098 54.2598Z" fill="#581FF9"/>
    <path d="M12.0098 62.4356H42.9355C43.251 62.4356 43.5536 62.3109 43.7766 62.0889C43.9997 61.867 44.125 61.5659 44.125 61.252C44.125 60.9381 43.9997 60.637 43.7766 60.415C43.5536 60.1931 43.251 60.0684 42.9355 60.0684H12.0098C11.6943 60.0684 11.3918 60.1931 11.1687 60.415C10.9456 60.637 10.8203 60.9381 10.8203 61.252C10.8203 61.5659 10.9456 61.867 11.1687 62.0889C11.3918 62.3109 11.6943 62.4356 12.0098 62.4356Z" fill="#581FF9"/>
    <path d="M12.0098 21.5626H42.9355C43.251 21.5626 43.5536 21.4379 43.7766 21.2159C43.9997 20.9939 44.125 20.6929 44.125 20.3789C44.125 20.065 43.9997 19.764 43.7766 19.542C43.5536 19.32 43.251 19.1953 42.9355 19.1953H12.0098C11.6943 19.1953 11.3918 19.32 11.1687 19.542C10.9456 19.764 10.8203 20.065 10.8203 20.3789C10.8203 20.6929 10.9456 20.9939 11.1687 21.2159C11.3918 21.4379 11.6943 21.5626 12.0098 21.5626Z" fill="#581FF9"/>
</svg>
