<svg width="20" height="20" viewBox="0 0 20 20" fill="none" xmlns="http://www.w3.org/2000/svg">
    <path d="M19.9614 10.9239C19.7819 9.11769 18.9749 7.41489 17.6892 6.12912C16.5905 5.0304 15.2456 4.32433 13.8305 4.01038V3.01786C14.4085 2.87407 14.8381 2.3509 14.8381 1.72906C14.8381 0.9967 14.2423 0.400909 13.5099 0.400909H10.6974C9.96504 0.400909 9.36925 0.9967 9.36925 1.72906C9.36925 2.35086 9.79886 2.87403 10.3768 3.01786V4.01315C8.96604 4.32843 7.62563 5.03352 6.52998 6.12916C6.29022 6.36893 6.06912 6.62046 5.86673 6.88187C5.85693 6.88113 5.84712 6.88039 5.83712 6.88039H3.05345C2.83774 6.88039 2.66282 7.05527 2.66282 7.27102C2.66282 7.48676 2.83774 7.66165 3.05345 7.66165H5.3352C5.04879 8.14115 4.81785 8.64471 4.64206 9.16308H0.390631C0.174925 9.16308 0 9.33796 0 9.55371C0 9.76945 0.174925 9.94434 0.390631 9.94434H4.42132C4.30874 10.4385 4.24413 10.9415 4.22745 11.4458H2.50004C2.28433 11.4458 2.10941 11.6207 2.10941 11.8364C2.10941 12.0522 2.28433 12.2271 2.50004 12.2271H4.23991C4.27288 12.7327 4.35417 13.2357 4.48382 13.7285H1.95316C1.73745 13.7285 1.56252 13.9034 1.56252 14.1192C1.56252 14.3349 1.73745 14.5098 1.95316 14.5098H4.73312C5.11633 15.5235 5.71521 16.4737 6.52998 17.2884C7.81696 18.5754 9.52152 19.3825 11.3296 19.5612C11.5876 19.5866 11.8459 19.5993 12.1038 19.5993C13.6281 19.5993 15.133 19.1581 16.41 18.3265C16.5908 18.2088 16.6419 17.9668 16.5242 17.786C16.4065 17.6052 16.1645 17.5541 15.9837 17.6718C13.1884 19.4921 9.44491 19.0985 7.08242 16.736C4.31042 13.964 4.31042 9.45367 7.08242 6.68163C9.85437 3.90968 14.3647 3.90968 17.1368 6.68163C19.4961 9.04104 19.8918 12.7814 18.0776 15.5752C17.9601 15.7562 18.0116 15.9981 18.1925 16.1156C18.3735 16.2331 18.6154 16.1817 18.7328 16.0007C19.7021 14.5079 20.1385 12.705 19.9614 10.9239ZM10.1505 1.72909C10.1505 1.42753 10.3958 1.18221 10.6974 1.18221H13.5099C13.8115 1.18221 14.0568 1.42753 14.0568 1.72909C14.0568 2.03066 13.8115 2.27598 13.5099 2.27598H13.4399H10.7674H10.6974C10.3958 2.27598 10.1505 2.03062 10.1505 1.72909ZM11.1581 3.87885V3.05724H13.0492V3.87745C12.4212 3.80276 11.7859 3.80323 11.1581 3.87885Z" fill="#4B4B4B"/>
    <path d="M17.4141 16.6214C17.3109 16.6214 17.2105 16.6632 17.1379 16.7359C17.0649 16.8085 17.0234 16.9093 17.0234 17.012C17.0234 17.1148 17.0649 17.2155 17.1379 17.2882C17.2105 17.3612 17.311 17.4026 17.4141 17.4026C17.5168 17.4026 17.6172 17.3612 17.6902 17.2882C17.7629 17.2155 17.8047 17.1148 17.8047 17.012C17.8047 16.9093 17.7629 16.8085 17.6902 16.7359C17.6172 16.6632 17.5168 16.6214 17.4141 16.6214Z" fill="#4B4B4B"/>
    <path d="M12.1106 5.64893C8.76922 5.64893 6.05078 8.36733 6.05078 11.7087C6.05078 15.0502 8.76922 17.7686 12.1106 17.7686C15.452 17.7686 18.1704 15.0502 18.1704 11.7087C18.1704 8.36733 15.452 5.64893 12.1106 5.64893ZM12.1106 16.9873C9.19997 16.9873 6.83204 14.6193 6.83204 11.7087C6.83204 8.79816 9.19997 6.43019 12.1106 6.43019C15.0212 6.43019 17.3892 8.79816 17.3892 11.7087C17.3892 14.6193 15.0212 16.9873 12.1106 16.9873Z" fill="#4B4B4B"/>
    <path d="M14.579 8.68544L12.6442 10.6202C12.4824 10.5402 12.3004 10.495 12.108 10.495C11.9156 10.495 11.7336 10.5402 11.5718 10.6202L10.7059 9.75428C10.5534 9.60174 10.3061 9.60174 10.1535 9.75428C10.0009 9.90682 10.0009 10.1542 10.1535 10.3067L11.0194 11.1726C10.9393 11.3344 10.8942 11.5164 10.8942 11.7088C10.8942 12.3781 11.4387 12.9227 12.108 12.9227C12.7774 12.9227 13.3219 12.3781 13.3219 11.7088C13.3219 11.5164 13.2767 11.3344 13.1967 11.1726L15.0747 9.29463L15.1314 9.23787C15.284 9.08533 15.284 8.83798 15.1314 8.68544C14.9789 8.53289 14.7316 8.53289 14.579 8.68544ZM12.108 12.1414C11.8695 12.1414 11.6754 11.9474 11.6754 11.7088C11.6754 11.4703 11.8695 11.2763 12.108 11.2763C12.3465 11.2763 12.5406 11.4703 12.5406 11.7088C12.5406 11.9474 12.3465 12.1414 12.108 12.1414Z" fill="#4B4B4B"/>
    <path d="M16.2877 11.3228H15.9258C15.7101 11.3228 15.5352 11.4977 15.5352 11.7135C15.5352 11.9292 15.7101 12.1041 15.9258 12.1041H16.2877C16.5034 12.1041 16.6783 11.9292 16.6783 11.7135C16.6783 11.4977 16.5034 11.3228 16.2877 11.3228Z" fill="#4B4B4B"/>
    <path d="M8.29547 11.3134H7.93359C7.71789 11.3134 7.54297 11.4883 7.54297 11.704C7.54297 11.9198 7.71789 12.0947 7.93359 12.0947H8.29547C8.51117 12.0947 8.68609 11.9198 8.68609 11.704C8.68609 11.4883 8.51117 11.3134 8.29547 11.3134Z" fill="#4B4B4B"/>
    <path d="M12.1133 8.28468C12.329 8.28468 12.5039 8.1098 12.5039 7.89406V7.53218C12.5039 7.31644 12.329 7.14156 12.1133 7.14156C11.8976 7.14156 11.7227 7.31644 11.7227 7.53218V7.89406C11.7227 8.1098 11.8976 8.28468 12.1133 8.28468Z" fill="#4B4B4B"/>
    <path d="M12.1055 15.1328C11.8898 15.1328 11.7148 15.3076 11.7148 15.5234V15.8853C11.7148 16.101 11.8898 16.2759 12.1055 16.2759C12.3212 16.2759 12.4961 16.101 12.4961 15.8853V15.5234C12.4961 15.3076 12.3212 15.1328 12.1055 15.1328Z" fill="#4B4B4B"/>
    <path d="M0.390625 13.7284C0.287891 13.7284 0.187109 13.7702 0.114453 13.8429C0.0417969 13.9155 0 14.0163 0 14.119C0 14.2222 0.0417578 14.3226 0.114453 14.3952C0.187148 14.4679 0.287891 14.5097 0.390625 14.5097C0.493359 14.5097 0.594141 14.4679 0.666758 14.3952C0.739414 14.3226 0.78125 14.2218 0.78125 14.119C0.78125 14.0163 0.739453 13.9155 0.666758 13.8429C0.594141 13.7702 0.493359 13.7284 0.390625 13.7284Z" fill="#4B4B4B"/>
</svg>
