<svg width="42" height="44" viewBox="0 0 42 44" fill="none" xmlns="http://www.w3.org/2000/svg">
    <path d="M22.1984 27.8586C22.9618 27.7992 23.6578 27.4098 24.1095 26.7886L30.9757 17.2964C31.1862 17.0052 31.1546 16.6034 30.8994 16.3482C30.6442 16.0937 30.2424 16.0622 29.9512 16.2719L20.4575 23.1403C19.8386 23.5906 19.4492 24.2865 19.3898 25.0499C19.3304 25.8133 19.6068 26.5606 20.1473 27.101C20.6394 27.5938 21.303 27.8666 21.9931 27.8666C22.0613 27.8666 22.1295 27.8637 22.1984 27.8586ZM20.852 25.1643C20.8777 24.8292 21.0493 24.5234 21.3192 24.3268L27.1103 20.1373L22.9222 25.927C22.7242 26.199 22.4184 26.3699 22.0833 26.3963C21.7496 26.4183 21.4218 26.3024 21.1835 26.0641C20.9474 25.8272 20.8256 25.4987 20.852 25.1643Z" fill="white"/>
    <path d="M38.625 14.3469C38.6177 14.3315 38.6177 14.3154 38.6096 14.3C38.6008 14.2853 38.5869 14.2773 38.5773 14.2633C37.8359 12.9917 36.9589 11.8089 35.963 10.7367L37.5382 9.16227L38.5751 10.1992L41.6859 7.08767L38.5751 3.97687L35.4636 7.08767L36.5013 8.12533L34.9261 9.6998C33.8539 8.70393 32.6718 7.82613 31.3995 7.08473C31.3855 7.0752 31.3775 7.06127 31.3628 7.05247C31.3474 7.04367 31.3313 7.0444 31.3159 7.03633C29.0477 5.72953 26.4993 4.85907 23.7823 4.54007V3.66667H24.8823C25.8936 3.66667 26.7157 2.8446 26.7157 1.83333C26.7157 0.822067 25.8929 0 24.8816 0H18.2816C17.2703 0 16.4483 0.822067 16.4483 1.83333C16.4483 2.8446 17.2703 3.66667 18.2816 3.66667H19.3816V4.5144C18.5896 4.59873 17.7991 4.7278 17.0173 4.90673C16.6228 4.99693 16.3757 5.39073 16.4666 5.78527C16.5568 6.1798 16.9506 6.42767 17.3451 6.336C18.0198 6.18127 18.7011 6.06467 19.3838 5.9862L20.1707 5.92533C20.4112 5.907 20.6327 5.8938 20.8483 5.88353V7.33333C20.8483 7.73887 21.1761 8.06667 21.5816 8.06667C21.9871 8.06667 22.3149 7.73887 22.3149 7.33333V5.88867C25.073 6.01553 27.6719 6.7562 29.9827 7.975L29.2596 9.2268C29.0572 9.57807 29.1775 10.0261 29.528 10.2285C29.6431 10.2953 29.7693 10.3268 29.8939 10.3268C30.1477 10.3268 30.3941 10.1955 30.5297 9.96013L31.2506 8.71127C33.5452 10.1669 35.4944 12.1161 36.9501 14.4107L35.7012 15.1316C35.3514 15.334 35.2311 15.7821 35.4343 16.1333C35.5707 16.3687 35.8163 16.5 36.0701 16.5C36.1947 16.5 36.3209 16.4685 36.436 16.4017L37.6878 15.6787C38.9235 18.0224 39.6663 20.6639 39.7771 23.4659H38.3287C37.9232 23.4659 37.5954 23.7937 37.5954 24.1993C37.5954 24.6048 37.9232 24.9326 38.3287 24.9326H39.7771C39.6663 27.7347 38.9235 30.3761 37.6878 32.7199L36.436 31.9968C36.0855 31.7944 35.6367 31.9132 35.4343 32.2652C35.2319 32.6165 35.3521 33.0645 35.7027 33.2669L36.9515 33.9878C35.4959 36.2824 33.5467 38.2316 31.2521 39.6873L30.5312 38.4384C30.3281 38.0864 29.8785 37.9669 29.5295 38.17C29.1782 38.3724 29.0579 38.8212 29.2611 39.1717L29.9841 40.4235C27.6734 41.6423 25.0745 42.383 22.3164 42.5099V41.0667C22.3164 40.6611 21.9886 40.3333 21.5831 40.3333C21.1775 40.3333 20.8497 40.6611 20.8497 41.0667V42.5157C19.6786 42.4754 18.5038 42.3287 17.3473 42.0633C16.9528 41.9687 16.559 42.2195 16.4688 42.614C16.3779 43.0085 16.625 43.4023 17.0195 43.4925C18.4833 43.8299 19.9785 44 21.4621 44C21.498 44 21.5325 43.9978 21.5684 43.9971C21.5735 43.9971 21.5772 44 21.5816 44C21.5875 44 21.5926 43.9963 21.5985 43.9963C25.1236 43.9721 28.4309 43.0203 31.2924 41.3761C31.3151 41.3659 31.3393 41.3607 31.3613 41.3475C31.376 41.3387 31.3841 41.3248 31.398 41.3153C34.3599 39.589 36.8349 37.1169 38.5649 34.1572C38.5788 34.1374 38.5964 34.122 38.6089 34.1C38.6177 34.0846 38.6169 34.0685 38.6243 34.0531C40.2992 31.1491 41.2621 27.786 41.2621 24.2C41.2621 20.614 40.2992 17.2509 38.625 14.3469ZM38.5744 6.05073L39.6113 7.08767L38.5744 8.12533L37.5367 7.08767L38.5744 6.05073ZM20.8483 4.4154V2.2H18.2816C18.0799 2.2 17.9149 2.035 17.9149 1.83333C17.9149 1.63167 18.0799 1.46667 18.2816 1.46667H24.8816C25.0833 1.46667 25.2483 1.63167 25.2483 1.83333C25.2483 2.035 25.0833 2.2 24.8816 2.2H22.3149V4.4154C22.0597 4.40513 21.8163 4.4 21.5816 4.4C21.5611 4.4 21.5376 4.40147 21.5171 4.40147C21.4987 4.40147 21.4804 4.4 21.4621 4.4C21.3418 4.4 21.2215 4.40807 21.1013 4.41027C21.0162 4.41247 20.9363 4.41173 20.8483 4.4154Z" fill="white"/>
    <path d="M14.9815 10.2667H11.3149C10.9093 10.2667 10.5815 10.5945 10.5815 11C10.5815 11.4055 10.9093 11.7333 11.3149 11.7333H14.9815C15.3871 11.7333 15.7149 11.4055 15.7149 11C15.7149 10.5945 15.3871 10.2667 14.9815 10.2667Z" fill="white"/>
    <path d="M14.9817 15.4H7.64837C7.24284 15.4 6.91504 15.7278 6.91504 16.1334C6.91504 16.5389 7.24284 16.8667 7.64837 16.8667H14.9817C15.3872 16.8667 15.715 16.5389 15.715 16.1334C15.715 15.7278 15.3872 15.4 14.9817 15.4Z" fill="white"/>
    <path d="M14.9814 20.5333H3.98138C3.57585 20.5333 3.24805 20.8611 3.24805 21.2667C3.24805 21.6722 3.57585 22 3.98138 22H14.9814C15.3869 22 15.7147 21.6722 15.7147 21.2667C15.7147 20.8611 15.3869 20.5333 14.9814 20.5333Z" fill="white"/>
    <path d="M14.9816 25.6667H1.04827C0.642741 25.6667 0.314941 25.9945 0.314941 26.4C0.314941 26.8056 0.642741 27.1334 1.04827 27.1334H14.9816C15.3871 27.1334 15.7149 26.8056 15.7149 26.4C15.7149 25.9945 15.3871 25.6667 14.9816 25.6667Z" fill="white"/>
    <path d="M14.9815 30.8H5.44818C5.04264 30.8 4.71484 31.1278 4.71484 31.5333C4.71484 31.9389 5.04264 32.2667 5.44818 32.2667H14.9815C15.387 32.2667 15.7148 31.9389 15.7148 31.5333C15.7148 31.1278 15.387 30.8 14.9815 30.8Z" fill="white"/>
    <path d="M14.9814 35.9333H9.84808C9.44255 35.9333 9.11475 36.2611 9.11475 36.6667C9.11475 37.0722 9.44255 37.4 9.84808 37.4H14.9814C15.3869 37.4 15.7147 37.0722 15.7147 36.6667C15.7147 36.2611 15.3869 35.9333 14.9814 35.9333Z" fill="white"/>
</svg>
