<svg width="17" height="19" viewBox="0 0 24 25" fill="none" xmlns="http://www.w3.org/2000/svg">
    <path d="M12.4324 15.8288C12.8661 15.7951 13.2615 15.5738 13.5182 15.2209L17.4195 9.82759C17.539 9.66217 17.5211 9.43384 17.3761 9.28884C17.2311 9.14425 17.0028 9.12634 16.8374 9.2455L11.4432 13.148C11.0915 13.4038 10.8703 13.7993 10.8365 14.233C10.8028 14.6668 10.9599 15.0913 11.267 15.3984C11.5465 15.6784 11.9236 15.8334 12.3157 15.8334C12.3545 15.8334 12.3932 15.8318 12.4324 15.8288ZM11.6674 14.298C11.682 14.1076 11.7795 13.9338 11.9328 13.8222L15.2232 11.4418L12.8436 14.7313C12.7311 14.8859 12.5574 14.983 12.367 14.998C12.1774 15.0105 11.9911 14.9447 11.8557 14.8093C11.7215 14.6747 11.6524 14.488 11.6674 14.298Z" fill="#DFE3E9"/>
    <path d="M21.7648 8.15167C21.7606 8.14292 21.7606 8.13375 21.756 8.125C21.751 8.11667 21.7431 8.11208 21.7377 8.10417C21.3164 7.38167 20.8181 6.70958 20.2523 6.10042L21.1473 5.20583L21.7364 5.795L23.5039 4.02708L21.7364 2.25958L19.9685 4.02708L20.5581 4.61667L19.6631 5.51125C19.0539 4.94542 18.3823 4.44667 17.6593 4.02542C17.6514 4.02 17.6468 4.01208 17.6385 4.00708C17.6298 4.00208 17.6206 4.0025 17.6118 3.99792C16.3231 3.25542 14.8752 2.76083 13.3314 2.57958V2.08333H13.9564C14.531 2.08333 14.9981 1.61625 14.9981 1.04167C14.9981 0.467083 14.5306 0 13.956 0H10.206C9.63143 0 9.16435 0.467083 9.16435 1.04167C9.16435 1.61625 9.63143 2.08333 10.206 2.08333H10.831V2.565C10.381 2.61292 9.93185 2.68625 9.48768 2.78792C9.26352 2.83917 9.1231 3.06292 9.17477 3.28708C9.22602 3.51125 9.44977 3.65208 9.67393 3.6C10.0573 3.51208 10.4443 3.44583 10.8323 3.40125L11.2793 3.36667C11.416 3.35625 11.5418 3.34875 11.6643 3.34292V4.16667C11.6643 4.39708 11.8506 4.58333 12.081 4.58333C12.3114 4.58333 12.4977 4.39708 12.4977 4.16667V3.34583C14.0648 3.41792 15.5414 3.83875 16.8543 4.53125L16.4435 5.2425C16.3285 5.44208 16.3968 5.69667 16.596 5.81167C16.6614 5.84958 16.7331 5.8675 16.8039 5.8675C16.9481 5.8675 17.0881 5.79292 17.1652 5.65917L17.5748 4.94958C18.8785 5.77667 19.986 6.88417 20.8131 8.18792L20.1035 8.5975C19.9048 8.7125 19.8364 8.96708 19.9518 9.16667C20.0293 9.30042 20.1689 9.375 20.3131 9.375C20.3839 9.375 20.4556 9.35708 20.521 9.31917L21.2323 8.90833C21.9343 10.24 22.3564 11.7408 22.4193 13.3329H21.5964C21.366 13.3329 21.1798 13.5192 21.1798 13.7496C21.1798 13.98 21.366 14.1663 21.5964 14.1663H22.4193C22.3564 15.7583 21.9343 17.2592 21.2323 18.5908L20.521 18.18C20.3218 18.065 20.0668 18.1325 19.9518 18.3325C19.8368 18.5321 19.9052 18.7867 20.1043 18.9017L20.8139 19.3112C19.9868 20.615 18.8793 21.7225 17.5756 22.5496L17.166 21.84C17.0506 21.64 16.7952 21.5721 16.5968 21.6875C16.3973 21.8025 16.3289 22.0575 16.4443 22.2567L16.8552 22.9679C15.5423 23.6604 14.0656 24.0812 12.4985 24.1533V23.3333C12.4985 23.1029 12.3123 22.9167 12.0818 22.9167C11.8514 22.9167 11.6652 23.1029 11.6652 23.3333V24.1567C10.9998 24.1338 10.3323 24.0504 9.67518 23.8996C9.45101 23.8458 9.22726 23.9883 9.17601 24.2125C9.12435 24.4367 9.26477 24.6604 9.48893 24.7117C10.3206 24.9033 11.1702 25 12.0131 25C12.0335 25 12.0531 24.9987 12.0735 24.9983C12.0764 24.9983 12.0785 25 12.081 25C12.0843 25 12.0873 24.9979 12.0906 24.9979C14.0935 24.9842 15.9727 24.4433 17.5985 23.5092C17.6114 23.5033 17.6252 23.5004 17.6377 23.4929C17.646 23.4879 17.6506 23.48 17.6585 23.4746C19.3414 22.4937 20.7477 21.0892 21.7306 19.4075C21.7385 19.3962 21.7485 19.3875 21.7556 19.375C21.7606 19.3662 21.7602 19.3571 21.7643 19.3483C22.716 17.6983 23.2631 15.7875 23.2631 13.75C23.2631 11.7125 22.716 9.80167 21.7648 8.15167ZM21.736 3.43792L22.3252 4.02708L21.736 4.61667L21.1464 4.02708L21.736 3.43792ZM11.6643 2.50875V1.25H10.206C10.0914 1.25 9.99768 1.15625 9.99768 1.04167C9.99768 0.927083 10.0914 0.833333 10.206 0.833333H13.956C14.0706 0.833333 14.1643 0.927083 14.1643 1.04167C14.1643 1.15625 14.0706 1.25 13.956 1.25H12.4977V2.50875C12.3527 2.50292 12.2143 2.5 12.081 2.5C12.0693 2.5 12.056 2.50083 12.0443 2.50083C12.0339 2.50083 12.0235 2.5 12.0131 2.5C11.9448 2.5 11.8764 2.50458 11.8081 2.50583C11.7598 2.50708 11.7143 2.50667 11.6643 2.50875Z" fill="#DFE3E9"/>
    <path d="M8.33203 5.83331H6.2487C6.01828 5.83331 5.83203 6.01956 5.83203 6.24998C5.83203 6.4804 6.01828 6.66665 6.2487 6.66665H8.33203C8.56245 6.66665 8.7487 6.4804 8.7487 6.24998C8.7487 6.01956 8.56245 5.83331 8.33203 5.83331Z" fill="#DFE3E9"/>
    <path d="M8.33333 8.74994H4.16667C3.93625 8.74994 3.75 8.93619 3.75 9.16661C3.75 9.39702 3.93625 9.58327 4.16667 9.58327H8.33333C8.56375 9.58327 8.75 9.39702 8.75 9.16661C8.75 8.93619 8.56375 8.74994 8.33333 8.74994Z" fill="#DFE3E9"/>
    <path d="M8.33464 11.6666H2.08464C1.85422 11.6666 1.66797 11.8528 1.66797 12.0832C1.66797 12.3136 1.85422 12.4999 2.08464 12.4999H8.33464C8.56505 12.4999 8.7513 12.3136 8.7513 12.0832C8.7513 11.8528 8.56505 11.6666 8.33464 11.6666Z" fill="#DFE3E9"/>
    <path d="M8.33333 14.5835H0.416667C0.18625 14.5835 0 14.7697 0 15.0002C0 15.2306 0.18625 15.4168 0.416667 15.4168H8.33333C8.56375 15.4168 8.75 15.2306 8.75 15.0002C8.75 14.7697 8.56375 14.5835 8.33333 14.5835Z" fill="#DFE3E9"/>
    <path d="M8.33333 17.4999H2.91667C2.68625 17.4999 2.5 17.6861 2.5 17.9165C2.5 18.147 2.68625 18.3332 2.91667 18.3332H8.33333C8.56375 18.3332 8.75 18.147 8.75 17.9165C8.75 17.6861 8.56375 17.4999 8.33333 17.4999Z" fill="#DFE3E9"/>
    <path d="M8.33333 20.4168H5.41667C5.18625 20.4168 5 20.6031 5 20.8335C5 21.0639 5.18625 21.2501 5.41667 21.2501H8.33333C8.56375 21.2501 8.75 21.0639 8.75 20.8335C8.75 20.6031 8.56375 20.4168 8.33333 20.4168Z" fill="#DFE3E9"/>
</svg>
