<svg width="17" height="19" viewBox="0 0 17 19" fill="none" xmlns="http://www.w3.org/2000/svg">
    <path d="M8.99235 11.4476C9.30604 11.4232 9.59201 11.2632 9.77763 11.008L12.5991 7.10743C12.6855 6.9878 12.6726 6.82267 12.5677 6.7178C12.4629 6.61324 12.2977 6.60028 12.1781 6.68646L8.27697 9.5088C8.02264 9.69382 7.86263 9.97979 7.83822 10.2935C7.81381 10.6072 7.92742 10.9142 8.1495 11.1363C8.3517 11.3388 8.62441 11.4509 8.90797 11.4509C8.93599 11.4509 8.96402 11.4497 8.99235 11.4476ZM8.43909 10.3405C8.44963 10.2028 8.52015 10.0771 8.63104 9.99636L11.0107 8.27482L9.28977 10.6539C9.2084 10.7657 9.08275 10.8359 8.94503 10.8467C8.80793 10.8558 8.67323 10.8082 8.57529 10.7102C8.47826 10.6129 8.42824 10.4779 8.43909 10.3405Z" fill="#561BFB"/>
    <path d="M15.7419 5.89538C15.7389 5.88906 15.7389 5.88243 15.7356 5.8761C15.7319 5.87007 15.7262 5.86676 15.7223 5.86103C15.4176 5.33851 15.0572 4.85245 14.648 4.4119L15.2953 3.76492L15.7214 4.19101L16.9997 2.91244L15.7214 1.63416L14.4428 2.91244L14.8692 3.33883L14.2219 3.9858C13.7814 3.57659 13.2956 3.21588 12.7728 2.91123C12.7671 2.90731 12.7638 2.90159 12.7577 2.89797C12.7514 2.89436 12.7448 2.89466 12.7384 2.89134C11.8064 2.35436 10.7593 1.99667 9.6428 1.86559V1.50669H10.0948C10.5104 1.50669 10.8482 1.16889 10.8482 0.753346C10.8482 0.3378 10.51 0 10.0945 0H7.38246C6.96691 0 6.62911 0.3378 6.62911 0.753346C6.62911 1.16889 6.96691 1.50669 7.38246 1.50669H7.83447V1.85504C7.50902 1.88969 7.18418 1.94273 6.86295 2.01626C6.70083 2.05332 6.59928 2.21514 6.63665 2.37726C6.67371 2.53938 6.83553 2.64123 6.99765 2.60356C7.27488 2.53998 7.55482 2.49207 7.83537 2.45983L8.15871 2.43481C8.25755 2.42728 8.34855 2.42186 8.43714 2.41764V3.01338C8.43714 3.18002 8.57184 3.31472 8.73848 3.31472C8.90512 3.31472 9.03982 3.18002 9.03982 3.01338V2.41975C10.1732 2.47188 11.2411 2.77623 12.1906 3.27705L11.8935 3.79144C11.8103 3.93578 11.8597 4.1199 12.0038 4.20307C12.0511 4.23049 12.1029 4.24345 12.1542 4.24345C12.2584 4.24345 12.3597 4.18951 12.4154 4.09278L12.7116 3.5796C13.6545 4.17776 14.4555 4.97871 15.0536 5.9216L14.5405 6.21782C14.3967 6.30099 14.3473 6.4851 14.4308 6.62944C14.4868 6.72617 14.5878 6.78011 14.692 6.78011C14.7433 6.78011 14.7951 6.76716 14.8424 6.73973L15.3568 6.44261C15.8645 7.40569 16.1698 8.49111 16.2153 9.64253H15.6201C15.4535 9.64253 15.3188 9.77723 15.3188 9.94386C15.3188 10.1105 15.4535 10.2452 15.6201 10.2452H16.2153C16.1698 11.3966 15.8645 12.482 15.3568 13.4451L14.8424 13.148C14.6984 13.0648 14.5139 13.1136 14.4308 13.2583C14.3476 13.4026 14.397 13.5867 14.5411 13.6699L15.0542 13.9661C14.4561 14.909 13.6551 15.71 12.7122 16.3081L12.416 15.795C12.3325 15.6503 12.1478 15.6012 12.0044 15.6847C11.86 15.7678 11.8106 15.9523 11.8941 16.0963L12.1912 16.6107C11.2417 17.1115 10.1738 17.4159 9.04042 17.468V16.8749C9.04042 16.7083 8.90572 16.5736 8.73908 16.5736C8.57244 16.5736 8.43775 16.7083 8.43775 16.8749V17.4704C7.95651 17.4538 7.47376 17.3936 6.99855 17.2845C6.83643 17.2456 6.67461 17.3487 6.63755 17.5108C6.60018 17.6729 6.70174 17.8347 6.86386 17.8718C7.46533 18.0104 8.07976 18.0803 8.68936 18.0803C8.70413 18.0803 8.71829 18.0794 8.73306 18.0791C8.73517 18.0791 8.73667 18.0803 8.73848 18.0803C8.74089 18.0803 8.743 18.0788 8.74541 18.0788C10.1939 18.0689 11.553 17.6777 12.7288 17.0021C12.7381 16.9979 12.7481 16.9958 12.7571 16.9904C12.7632 16.9867 12.7665 16.981 12.7722 16.9771C13.9893 16.2678 15.0063 15.2519 15.7172 14.0357C15.7229 14.0276 15.7301 14.0213 15.7353 14.0122C15.7389 14.0059 15.7386 13.9993 15.7416 13.9929C16.4298 12.7996 16.8255 11.4177 16.8255 9.94417C16.8255 8.47062 16.4298 7.08868 15.7419 5.89538ZM15.7211 2.48634L16.1472 2.91244L15.7211 3.33883L15.2947 2.91244L15.7211 2.48634ZM8.43714 1.81436V0.904015H7.38246C7.29959 0.904015 7.23179 0.836214 7.23179 0.753346C7.23179 0.670478 7.29959 0.602677 7.38246 0.602677H10.0945C10.1774 0.602677 10.2452 0.670478 10.2452 0.753346C10.2452 0.836214 10.1774 0.904015 10.0945 0.904015H9.03982V1.81436C8.93495 1.81014 8.83491 1.80803 8.73848 1.80803C8.73004 1.80803 8.7204 1.80863 8.71196 1.80863C8.70443 1.80863 8.6969 1.80803 8.68936 1.80803C8.63994 1.80803 8.59052 1.81134 8.54111 1.81225C8.50615 1.81315 8.4733 1.81285 8.43714 1.81436Z" fill="#561BFB"/>
    <path d="M6.02678 4.21875H4.52009C4.35345 4.21875 4.21875 4.35345 4.21875 4.52009C4.21875 4.68673 4.35345 4.82143 4.52009 4.82143H6.02678C6.19342 4.82143 6.32812 4.68673 6.32812 4.52009C6.32812 4.35345 6.19342 4.21875 6.02678 4.21875Z" fill="#561BFB"/>
    <path d="M6.02664 6.32812H3.01325C2.84661 6.32812 2.71191 6.46282 2.71191 6.62946C2.71191 6.7961 2.84661 6.9308 3.01325 6.9308H6.02664C6.19328 6.9308 6.32797 6.7961 6.32797 6.62946C6.32797 6.46282 6.19328 6.32812 6.02664 6.32812Z" fill="#561BFB"/>
    <path d="M6.02649 8.4375H1.50642C1.33978 8.4375 1.20508 8.5722 1.20508 8.73884C1.20508 8.90548 1.33978 9.04018 1.50642 9.04018H6.02649C6.19313 9.04018 6.32783 8.90548 6.32783 8.73884C6.32783 8.5722 6.19313 8.4375 6.02649 8.4375Z" fill="#561BFB"/>
    <path d="M6.02677 10.5469H0.301338C0.134698 10.5469 0 10.6816 0 10.8482C0 11.0149 0.134698 11.1496 0.301338 11.1496H6.02677C6.19341 11.1496 6.32811 11.0149 6.32811 10.8482C6.32811 10.6816 6.19341 10.5469 6.02677 10.5469Z" fill="#561BFB"/>
    <path d="M6.02733 12.6562H2.10993C1.94329 12.6562 1.80859 12.7909 1.80859 12.9576C1.80859 13.1242 1.94329 13.2589 2.10993 13.2589H6.02733C6.19397 13.2589 6.32867 13.1242 6.32867 12.9576C6.32867 12.7909 6.19397 12.6562 6.02733 12.6562Z" fill="#561BFB"/>
    <path d="M6.02692 14.7656H3.91755C3.75091 14.7656 3.61621 14.9003 3.61621 15.067C3.61621 15.2336 3.75091 15.3683 3.91755 15.3683H6.02692C6.19356 15.3683 6.32826 15.2336 6.32826 15.067C6.32826 14.9003 6.19356 14.7656 6.02692 14.7656Z" fill="#561BFB"/>
</svg>
