<svg width="21" height="21" viewBox="0 0 21 21" fill="none" xmlns="http://www.w3.org/2000/svg">
    <g clip-path="url(#clip0)">
        <path d="M13.3981 7.60832C13.1264 7.60832 12.9062 7.82848 12.9062 8.10013V17.3952C12.9062 17.6667 13.1264 17.887 13.3981 17.887C13.6697 17.887 13.8899 17.6667 13.8899 17.3952V8.10013C13.8899 7.82848 13.6697 7.60832 13.3981 7.60832Z" fill="#FF808B"/>
        <path d="M7.59337 7.60832C7.32172 7.60832 7.10156 7.82848 7.10156 8.10013V17.3952C7.10156 17.6667 7.32172 17.887 7.59337 17.887C7.86501 17.887 8.08517 17.6667 8.08517 17.3952V8.10013C8.08517 7.82848 7.86501 7.60832 7.59337 7.60832Z" fill="#FF808B"/>
        <path d="M3.36555 6.2518V18.3688C3.36555 19.0849 3.62816 19.7575 4.08692 20.2401C4.54357 20.724 5.17907 20.9987 5.84415 20.9999H15.1492C15.8145 20.9987 16.45 20.724 16.9064 20.2401C17.3652 19.7575 17.6278 19.0849 17.6278 18.3688V6.2518C18.5397 6.00974 19.1307 5.12872 19.0087 4.19295C18.8865 3.25738 18.0894 2.55752 17.1458 2.55733H14.6278V1.94257C14.6307 1.42561 14.4263 0.929194 14.0603 0.563993C13.6943 0.198984 13.1972 -0.00426861 12.6802 -4.21928e-05H8.31315C7.79618 -0.00426861 7.299 0.198984 6.93303 0.563993C6.56706 0.929194 6.36266 1.42561 6.36554 1.94257V2.55733H3.84755C2.90391 2.55752 2.10684 3.25738 1.98466 4.19295C1.86267 5.12872 2.4536 6.00974 3.36555 6.2518ZM15.1492 20.0163H5.84415C5.00329 20.0163 4.34915 19.294 4.34915 18.3688V6.29502H16.6442V18.3688C16.6442 19.294 15.9901 20.0163 15.1492 20.0163ZM7.34914 1.94257C7.34588 1.68649 7.44654 1.44001 7.62828 1.25924C7.80982 1.07846 8.05687 0.979143 8.31315 0.983561H12.6802C12.9365 0.979143 13.1835 1.07846 13.3651 1.25924C13.5468 1.43982 13.6475 1.68649 13.6442 1.94257V2.55733H7.34914V1.94257ZM3.84755 3.54093H17.1458C17.6347 3.54093 18.031 3.93725 18.031 4.42617C18.031 4.91509 17.6347 5.31142 17.1458 5.31142H3.84755C3.35863 5.31142 2.96231 4.91509 2.96231 4.42617C2.96231 3.93725 3.35863 3.54093 3.84755 3.54093Z" fill="#FF808B"/>
        <path d="M10.4957 7.60832C10.2241 7.60832 10.0039 7.82848 10.0039 8.10013V17.3952C10.0039 17.6667 10.2241 17.887 10.4957 17.887C10.7674 17.887 10.9875 17.6667 10.9875 17.3952V8.10013C10.9875 7.82848 10.7674 7.60832 10.4957 7.60832Z" fill="#FF808B"/>
    </g>
    <defs>
        <clipPath id="clip0">
            <rect width="21" height="21" fill="white"/>
        </clipPath>
    </defs>
</svg>
