<svg width="22" height="22" viewBox="0 0 22 22" fill="none" xmlns="http://www.w3.org/2000/svg">
<g clip-path="url(#clip0)">
<path d="M14.0338 7.9707C13.7491 7.9707 13.5186 8.20135 13.5186 8.48591V18.2236C13.5186 18.508 13.7491 18.7388 14.0338 18.7388C14.3183 18.7388 14.549 18.508 14.549 18.2236V8.48591C14.549 8.20135 14.3183 7.9707 14.0338 7.9707Z" fill="#561BFB"/>
<path d="M7.95541 7.9707C7.67083 7.9707 7.44019 8.20135 7.44019 8.48591V18.2236C7.44019 18.508 7.67083 18.7388 7.95541 18.7388C8.23999 18.7388 8.47066 18.508 8.47066 18.2236V8.48591C8.47066 8.20135 8.23999 7.9707 7.95541 7.9707Z" fill="#561BFB"/>
<path d="M3.52409 6.54961V19.2436C3.52409 19.9939 3.79922 20.6984 4.27982 21.204C4.75821 21.711 5.42397 21.9988 6.12073 22H15.8689C16.5659 21.9988 17.2316 21.711 17.7098 21.204C18.1904 20.6984 18.4655 19.9939 18.4655 19.2436V6.54961C19.4209 6.29603 20.0399 5.37306 19.9121 4.39273C19.7841 3.4126 18.9491 2.67941 17.9606 2.67922H15.3227V2.03519C15.3256 1.49361 15.1116 0.973551 14.7282 0.590961C14.3447 0.208571 13.8239 -0.00435999 13.2823 6.76959e-05H8.70729C8.16571 -0.00435999 7.64486 0.208571 7.26146 0.590961C6.87806 0.973551 6.66393 1.49361 6.66695 2.03519V2.67922H4.02905C3.04048 2.67941 2.20546 3.4126 2.07746 4.39273C1.94966 5.37306 2.56873 6.29603 3.52409 6.54961ZM15.8689 20.9696H6.12073C5.23982 20.9696 4.55454 20.2128 4.55454 19.2436V6.5949H17.435V19.2436C17.435 20.2128 16.7498 20.9696 15.8689 20.9696ZM7.69738 2.03519C7.69397 1.76691 7.79942 1.5087 7.98982 1.31931C8.18001 1.12993 8.43882 1.02588 8.70729 1.03051H13.2823C13.5508 1.02588 13.8096 1.12993 13.9998 1.31931C14.1902 1.5085 14.2956 1.76691 14.2922 2.03519V2.67922H7.69738V2.03519ZM4.02905 3.70966H17.9606C18.4727 3.70966 18.888 4.12486 18.888 4.63706C18.888 5.14926 18.4727 5.56445 17.9606 5.56445H4.02905C3.51685 5.56445 3.10166 5.14926 3.10166 4.63706C3.10166 4.12486 3.51685 3.70966 4.02905 3.70966Z" fill="#561BFB"/>
<path d="M10.9947 7.9707C10.7101 7.9707 10.4795 8.20135 10.4795 8.48591V18.2236C10.4795 18.508 10.7101 18.7388 10.9947 18.7388C11.2793 18.7388 11.5099 18.508 11.5099 18.2236V8.48591C11.5099 8.20135 11.2793 7.9707 10.9947 7.9707Z" fill="#561BFB"/>
</g>
<defs>
<clipPath id="clip0">
<rect width="22" height="22" fill="white"/>
</clipPath>
</defs>
</svg>
