<svg width="26" height="26" viewBox="0 0 26 26" fill="none" xmlns="http://www.w3.org/2000/svg">
    <g clip-path="url(#clip0)">
        <path d="M16.5855 9.41992C16.2491 9.41992 15.9766 9.6925 15.9766 10.0288V21.537C15.9766 21.8731 16.2491 22.1459 16.5855 22.1459C16.9218 22.1459 17.1944 21.8731 17.1944 21.537V10.0288C17.1944 9.6925 16.9218 9.41992 16.5855 9.41992Z" fill="white"/>
        <path d="M9.40187 9.41992C9.06555 9.41992 8.79297 9.6925 8.79297 10.0288V21.537C8.79297 21.8731 9.06555 22.1459 9.40187 22.1459C9.73819 22.1459 10.0108 21.8731 10.0108 21.537V10.0288C10.0108 9.6925 9.73819 9.41992 9.40187 9.41992Z" fill="white"/>
        <path d="M4.16296 7.74045V22.7424C4.16296 23.6291 4.4881 24.4618 5.05609 25.0593C5.62146 25.6584 6.40827 25.9986 7.23171 26H18.7522C19.5759 25.9986 20.3627 25.6584 20.9279 25.0593C21.4958 24.4618 21.821 23.6291 21.821 22.7424V7.74045C22.9501 7.44076 23.6817 6.34998 23.5307 5.19141C23.3794 4.03307 22.3925 3.16658 21.2242 3.16635H18.1067V2.40522C18.1103 1.76517 17.8572 1.15056 17.4041 0.698409C16.951 0.246493 16.3354 -0.00515271 15.6954 8.00041e-05H10.2886C9.64851 -0.00515271 9.03295 0.246493 8.57985 0.698409C8.12674 1.15056 7.87367 1.76517 7.87724 2.40522V3.16635H4.75973C3.59141 3.16658 2.60456 4.03307 2.45329 5.19141C2.30226 6.34998 3.03389 7.44076 4.16296 7.74045ZM18.7522 24.7822H7.23171C6.19064 24.7822 5.38076 23.8879 5.38076 22.7424V7.79397H20.6032V22.7424C20.6032 23.8879 19.7933 24.7822 18.7522 24.7822ZM9.09503 2.40522C9.09099 2.08817 9.21562 1.78301 9.44063 1.55919C9.6654 1.33537 9.97127 1.2124 10.2886 1.21787H15.6954C16.0127 1.2124 16.3186 1.33537 16.5433 1.55919C16.7683 1.78277 16.893 2.08817 16.8889 2.40522V3.16635H9.09503V2.40522ZM4.75973 4.38414H21.2242C21.8295 4.38414 22.3202 4.87483 22.3202 5.48016C22.3202 6.08549 21.8295 6.57617 21.2242 6.57617H4.75973C4.1544 6.57617 3.66371 6.08549 3.66371 5.48016C3.66371 4.87483 4.1544 4.38414 4.75973 4.38414Z" fill="white"/>
        <path d="M12.9956 9.41992C12.6593 9.41992 12.3867 9.6925 12.3867 10.0288V21.537C12.3867 21.8731 12.6593 22.1459 12.9956 22.1459C13.3319 22.1459 13.6045 21.8731 13.6045 21.537V10.0288C13.6045 9.6925 13.3319 9.41992 12.9956 9.41992Z" fill="white"/>
    </g>
    <defs>
        <clipPath id="clip0">
            <rect width="26" height="26" fill="white"/>
        </clipPath>
    </defs>
</svg>
