<svg width="24" height="24" viewBox="0 0 24 24" fill="none" xmlns="http://www.w3.org/2000/svg">
    <path d="M22.2879 15.4277C21.8145 15.4277 21.4308 15.8115 21.4308 16.2849V21.4277C21.4308 21.9012 21.047 22.2849 20.5736 22.2849H3.43085C2.95745 22.2849 2.57369 21.9012 2.57369 21.4277V16.2849C2.57369 15.8115 2.18994 15.4277 1.71653 15.4277C1.24313 15.4277 0.859375 15.8115 0.859375 16.2849V21.4277C0.859375 22.8479 2.01064 23.9992 3.4308 23.9992H20.5737C21.9938 23.9992 23.1451 22.8479 23.1451 21.4277V16.2849C23.1451 15.8115 22.7614 15.4277 22.2879 15.4277Z" fill="black"/>
    <path d="M16.8719 14.8226C16.5397 14.5018 16.0131 14.5018 15.681 14.8226L12.8567 17.6451V0.857159C12.8567 0.383755 12.4729 0 11.9995 0C11.5261 0 11.1424 0.383755 11.1424 0.857159V17.6452L8.31979 14.8226C7.97928 14.4937 7.43667 14.5031 7.10781 14.8436C6.78698 15.1758 6.78698 15.7024 7.10781 16.0346L11.3935 20.3202C11.7278 20.6554 12.2705 20.6561 12.6057 20.3218C12.6062 20.3213 12.6067 20.3208 12.6072 20.3202L16.8929 16.0346C17.2218 15.694 17.2124 15.1514 16.8719 14.8226Z" fill="black"/>
</svg>
