<svg width="54" height="54" viewBox="0 0 54 54" fill="none" xmlns="http://www.w3.org/2000/svg">
    <rect y="54" width="54" height="54" rx="7" transform="rotate(-90 0 54)" fill="#F3F6FF"/>
    <g clip-path="url(#clip0)">
        <path d="M17.1804 29.1465L17.1476 29.1393L31.1999 29.1393L26.7824 33.5666C26.5661 33.7827 26.4474 34.0755 26.4474 34.3828C26.4474 34.6902 26.5661 34.9809 26.7824 35.1976L27.4697 35.8853C27.6859 36.1014 27.9739 36.2209 28.2811 36.2209C28.5884 36.2209 28.8766 36.1023 29.0927 35.8861L36.6652 28.3144C36.8822 28.0974 37.0008 27.8083 37 27.5008C37.0008 27.1916 36.8822 26.9024 36.6652 26.6857L29.0927 19.1133C28.8766 18.8973 28.5886 18.7785 28.2811 18.7785C27.9739 18.7785 27.6859 18.8975 27.4697 19.1133L26.7824 19.801C26.5661 20.0168 26.4474 20.305 26.4474 20.6123C26.4474 20.9195 26.5661 21.1925 26.7824 21.4084L31.2497 25.8604L17.1647 25.8604C16.5318 25.8604 16 26.4059 16 27.0385L16 28.0111C16 28.6437 16.5475 29.1465 17.1804 29.1465Z" fill="#561BFB"/>
    </g>
    <defs>
        <clipPath id="clip0">
            <rect x="37" y="38" width="21" height="21" transform="rotate(180 37 38)" fill="white"/>
        </clipPath>
    </defs>
</svg>
