<svg width="12" height="17" viewBox="0 0 12 17" fill="none" xmlns="http://www.w3.org/2000/svg">
    <path d="M1.8569 1.70418L1.85784 1.70484L10.4277 7.61295C10.4279 7.61305 10.428 7.61315 10.4282 7.61325C10.8471 7.90327 10.9933 8.22743 10.9933 8.49914C10.9933 8.77503 10.848 9.098 10.4322 9.38563C10.4321 9.3857 10.432 9.38577 10.4319 9.38584L1.85798 15.294L1.85761 15.2942C1.58009 15.4857 1.34908 15.5462 1.21315 15.5462C1.08869 15.5462 1.00287 15.5023 0.92904 15.4066C0.842544 15.2945 0.75 15.0733 0.75 14.7115V2.28757C0.75 1.92554 0.842572 1.70448 0.928959 1.59255C1.00266 1.49707 1.08844 1.45312 1.21315 1.45312C1.34998 1.45312 1.58145 1.51367 1.8569 1.70418Z" fill="white" stroke="white" stroke-width="1.5"/>
</svg>
