<svg width="54" height="54" viewBox="0 0 54 54" fill="none" xmlns="http://www.w3.org/2000/svg">
    <rect x="54" width="54" height="54" rx="7" transform="rotate(90 54 0)" fill="#F3F6FF"/>
    <g clip-path="url(#clip0)">
        <path d="M36.8196 24.8535L36.8524 24.8607H22.8001L27.2176 20.4334C27.4339 20.2173 27.5526 19.9245 27.5526 19.6172C27.5526 19.3098 27.4339 19.0191 27.2176 18.8024L26.5303 18.1147C26.3141 17.8986 26.0261 17.7791 25.7189 17.7791C25.4116 17.7791 25.1234 17.8977 24.9073 18.1139L17.3348 25.6856C17.1178 25.9026 16.9992 26.1917 17 26.4992C16.9992 26.8084 17.1178 27.0976 17.3348 27.3143L24.9073 34.8867C25.1234 35.1027 25.4114 35.2215 25.7189 35.2215C26.0261 35.2215 26.3141 35.1025 26.5303 34.8867L27.2176 34.199C27.4339 33.9832 27.5526 33.695 27.5526 33.3877C27.5526 33.0805 27.4339 32.8075 27.2176 32.5916L22.7503 28.1396H36.8353C37.4682 28.1396 38 27.5941 38 26.9615V25.9889C38 25.3563 37.4525 24.8535 36.8196 24.8535Z" fill="#561BFB"/>
    </g>
    <defs>
        <clipPath id="clip0">
            <rect x="17" y="16" width="21" height="21" fill="white"/>
        </clipPath>
    </defs>
</svg>
