<svg width="20" height="20" viewBox="0 0 20 20" fill="none" xmlns="http://www.w3.org/2000/svg">
<g clip-path="url(#clip0)">
<path d="M19.4853 6.29402C18.7999 5.60863 17.6847 5.60867 16.9991 6.29418C16.7883 6.50523 15.442 7.85262 15.2363 8.05848V3.41508C15.2363 2.94555 15.0535 2.50414 14.7214 2.17215L13.0642 0.514844C12.7322 0.182813 12.2908 0 11.8212 0H1.75977C0.790508 0 0.00195312 0.788555 0.00195312 1.75781V18.2422C0.00195312 19.2114 0.790508 20 1.75977 20H13.4785C14.4478 20 15.2363 19.2114 15.2363 18.2422V13.0325L19.4852 8.77996C20.1722 8.09301 20.1724 6.98105 19.4853 6.29402ZM11.7207 1.17188C11.8314 1.17188 12.0448 1.1527 12.2356 1.34348L13.8928 3.00078C14.0788 3.18676 14.0645 3.39055 14.0645 3.51562H11.7207V1.17188ZM14.0645 18.2422C14.0645 18.5653 13.8016 18.8281 13.4785 18.8281H1.75977C1.43668 18.8281 1.17383 18.5653 1.17383 18.2422V1.75781C1.17383 1.43473 1.43668 1.17188 1.75977 1.17188H10.5488V4.10156C10.5488 4.42516 10.8112 4.6875 11.1348 4.6875H14.0645V9.23137C14.0645 9.23137 12.3358 10.9615 12.3357 10.9616L11.5075 11.7898C11.4432 11.8541 11.3946 11.9326 11.3659 12.0189L10.5372 14.5048C10.467 14.7154 10.5218 14.9475 10.6788 15.1044C10.8359 15.2616 11.0682 15.3161 11.2784 15.246L13.7643 14.4173C13.8506 14.3886 13.9291 14.3401 13.9934 14.2758L14.0645 14.2047V18.2422ZM12.7504 12.2042L13.579 13.0328L13.2625 13.3493L12.0196 13.7636L12.4339 12.5207L12.7504 12.2042ZM14.4075 12.204L13.5789 11.3754C14.0201 10.9338 15.9798 8.97234 16.3955 8.55637L17.2241 9.385L14.4075 12.204ZM18.6564 7.95148L18.0524 8.55602L17.2238 7.72738L17.828 7.12266C18.0566 6.89418 18.4282 6.89422 18.6567 7.12266C18.8851 7.35117 18.8863 7.7216 18.6564 7.95148Z" fill="#9570FC"/>
<path d="M11.1338 5.85938H2.93066C2.60707 5.85938 2.34473 6.12172 2.34473 6.44531C2.34473 6.76891 2.60707 7.03125 2.93066 7.03125H11.1338C11.4574 7.03125 11.7197 6.76891 11.7197 6.44531C11.7197 6.12172 11.4574 5.85938 11.1338 5.85938Z" fill="#9570FC"/>
<path d="M8.79004 8.20312H2.93066C2.60707 8.20312 2.34473 8.46547 2.34473 8.78906C2.34473 9.11266 2.60707 9.375 2.93066 9.375H8.79004C9.11363 9.375 9.37598 9.11266 9.37598 8.78906C9.37598 8.46547 9.11363 8.20312 8.79004 8.20312Z" fill="#9570FC"/>
<path d="M8.79004 10.5469H2.93066C2.60707 10.5469 2.34473 10.8092 2.34473 11.1328C2.34473 11.4564 2.60707 11.7188 2.93066 11.7188H8.79004C9.11363 11.7188 9.37598 11.4564 9.37598 11.1328C9.37598 10.8092 9.11363 10.5469 8.79004 10.5469Z" fill="#9570FC"/>
<path d="M8.79004 12.8906H2.93066C2.60707 12.8906 2.34473 13.153 2.34473 13.4766C2.34473 13.8002 2.60707 14.0625 2.93066 14.0625H8.79004C9.11363 14.0625 9.37598 13.8002 9.37598 13.4766C9.37598 13.153 9.11363 12.8906 8.79004 12.8906Z" fill="#9570FC"/>
<path d="M11.1338 16.4844H7.61816C7.29457 16.4844 7.03223 16.7467 7.03223 17.0703C7.03223 17.3939 7.29457 17.6562 7.61816 17.6562H11.1338C11.4574 17.6562 11.7197 17.3939 11.7197 17.0703C11.7197 16.7467 11.4574 16.4844 11.1338 16.4844Z" fill="#9570FC"/>
</g>
<defs>
<clipPath id="clip0">
<rect width="20" height="20" fill="white"/>
</clipPath>
</defs>
</svg>
