<svg width="20" height="20" viewBox="0 0 20 20" fill="none" xmlns="http://www.w3.org/2000/svg">
<path d="M10.5449 12.663C10.8919 12.636 11.2083 12.459 11.4136 12.1767L14.5346 7.86202C14.6303 7.72969 14.6159 7.54702 14.4999 7.43102C14.3839 7.31535 14.2013 7.30102 14.0689 7.39635L9.75359 10.5184C9.47225 10.723 9.29525 11.0394 9.26825 11.3864C9.24125 11.7334 9.36692 12.073 9.61259 12.3187C9.83625 12.5427 10.1379 12.6667 10.4516 12.6667C10.4826 12.6667 10.5136 12.6654 10.5449 12.663ZM9.93292 11.4384C9.94459 11.286 10.0226 11.147 10.1453 11.0577L12.7776 9.15335L10.8739 11.785C10.7839 11.9087 10.6449 11.9864 10.4926 11.9984C10.3409 12.0084 10.1919 11.9557 10.0836 11.8474C9.97625 11.7397 9.92092 11.5904 9.93292 11.4384Z" fill="#FF5866"/>
<path d="M18.0112 6.52133C18.0079 6.51433 18.0079 6.507 18.0042 6.5C18.0002 6.49333 17.9939 6.48967 17.9896 6.48333C17.6526 5.90533 17.2539 5.36767 16.8012 4.88033L17.5172 4.16467L17.9886 4.636L19.4026 3.22167L17.9886 1.80767L16.5742 3.22167L17.0459 3.69333L16.3299 4.409C15.8426 3.95633 15.3052 3.55733 14.7269 3.22033C14.7206 3.216 14.7169 3.20967 14.7102 3.20567C14.7032 3.20167 14.6959 3.202 14.6889 3.19833C13.6579 2.60433 12.4996 2.20867 11.2646 2.06367V1.66667H11.7646C12.2242 1.66667 12.5979 1.293 12.5979 0.833333C12.5979 0.373667 12.2239 0 11.7642 0H8.76423C8.30456 0 7.93089 0.373667 7.93089 0.833333C7.93089 1.293 8.30456 1.66667 8.76423 1.66667H9.26423V2.052C8.90423 2.09033 8.54489 2.149 8.18956 2.23033C8.01023 2.27133 7.89789 2.45033 7.93923 2.62967C7.98023 2.809 8.15923 2.92167 8.33856 2.88C8.64523 2.80967 8.95489 2.75667 9.26523 2.721L9.62289 2.69333C9.73223 2.685 9.83289 2.679 9.93089 2.67433V3.33333C9.93089 3.51767 10.0799 3.66667 10.2642 3.66667C10.4486 3.66667 10.5976 3.51767 10.5976 3.33333V2.67667C11.8512 2.73433 13.0326 3.071 14.0829 3.625L13.7542 4.194C13.6622 4.35367 13.7169 4.55733 13.8762 4.64933C13.9286 4.67967 13.9859 4.694 14.0426 4.694C14.1579 4.694 14.2699 4.63433 14.3316 4.52733L14.6592 3.95967C15.7022 4.62133 16.5882 5.50733 17.2499 6.55033L16.6822 6.878C16.5232 6.97 16.4686 7.17367 16.5609 7.33333C16.6229 7.44033 16.7346 7.5 16.8499 7.5C16.9066 7.5 16.9639 7.48567 17.0162 7.45533L17.5852 7.12667C18.1469 8.192 18.4846 9.39267 18.5349 10.6663H17.8766C17.6922 10.6663 17.5432 10.8153 17.5432 10.9997C17.5432 11.184 17.6922 11.333 17.8766 11.333H18.5349C18.4846 12.6067 18.1469 13.8073 17.5852 14.8727L17.0162 14.544C16.8569 14.452 16.6529 14.506 16.5609 14.666C16.4689 14.8257 16.5236 15.0293 16.6829 15.1213L17.2506 15.449C16.5889 16.492 15.7029 17.378 14.6599 18.0397L14.3322 17.472C14.2399 17.312 14.0356 17.2577 13.8769 17.35C13.7172 17.442 13.6626 17.646 13.7549 17.8053L14.0836 18.3743C13.0332 18.9283 11.8519 19.265 10.5982 19.3227V18.6667C10.5982 18.4823 10.4492 18.3333 10.2649 18.3333C10.0806 18.3333 9.93156 18.4823 9.93156 18.6667V19.3253C9.39923 19.307 8.86523 19.2403 8.33956 19.1197C8.16023 19.0767 7.98123 19.1907 7.94023 19.37C7.89889 19.5493 8.01123 19.7283 8.19056 19.7693C8.85589 19.9227 9.53556 20 10.2099 20C10.2262 20 10.2419 19.999 10.2582 19.9987C10.2606 19.9987 10.2622 20 10.2642 20C10.2669 20 10.2692 19.9983 10.2719 19.9983C11.8742 19.9873 13.3776 19.5547 14.6782 18.8073C14.6886 18.8027 14.6996 18.8003 14.7096 18.7943C14.7162 18.7903 14.7199 18.784 14.7262 18.7797C16.0726 17.995 17.1976 16.8713 17.9839 15.526C17.9902 15.517 17.9982 15.51 18.0039 15.5C18.0079 15.493 18.0076 15.4857 18.0109 15.4787C18.7722 14.1587 19.2099 12.63 19.2099 11C19.2099 9.37 18.7722 7.84133 18.0112 6.52133ZM17.9882 2.75033L18.4596 3.22167L17.9882 3.69333L17.5166 3.22167L17.9882 2.75033ZM9.93089 2.007V1H8.76423C8.67256 1 8.59756 0.925 8.59756 0.833333C8.59756 0.741667 8.67256 0.666667 8.76423 0.666667H11.7642C11.8559 0.666667 11.9309 0.741667 11.9309 0.833333C11.9309 0.925 11.8559 1 11.7642 1H10.5976V2.007C10.4816 2.00233 10.3709 2 10.2642 2C10.2549 2 10.2442 2.00067 10.2349 2.00067C10.2266 2.00067 10.2182 2 10.2099 2C10.1552 2 10.1006 2.00367 10.0459 2.00467C10.0072 2.00567 9.97089 2.00533 9.93089 2.007Z" fill="#FF5866"/>
<path d="M7.26465 4.66669H5.59798C5.41365 4.66669 5.26465 4.81569 5.26465 5.00002C5.26465 5.18435 5.41365 5.33335 5.59798 5.33335H7.26465C7.44898 5.33335 7.59798 5.18435 7.59798 5.00002C7.59798 4.81569 7.44898 4.66669 7.26465 4.66669Z" fill="#FF5866"/>
<path d="M7.26432 7H3.93099C3.74666 7 3.59766 7.149 3.59766 7.33333C3.59766 7.51767 3.74666 7.66667 3.93099 7.66667H7.26432C7.44866 7.66667 7.59766 7.51767 7.59766 7.33333C7.59766 7.149 7.44866 7 7.26432 7Z" fill="#FF5866"/>
<path d="M7.264 9.33331H2.264C2.07966 9.33331 1.93066 9.48231 1.93066 9.66665C1.93066 9.85098 2.07966 9.99998 2.264 9.99998H7.264C7.44833 9.99998 7.59733 9.85098 7.59733 9.66665C7.59733 9.48231 7.44833 9.33331 7.264 9.33331Z" fill="#FF5866"/>
<path d="M7.26432 11.6667H0.93099C0.746656 11.6667 0.597656 11.8157 0.597656 12C0.597656 12.1844 0.746656 12.3334 0.93099 12.3334H7.26432C7.44866 12.3334 7.59766 12.1844 7.59766 12C7.59766 11.8157 7.44866 11.6667 7.26432 11.6667Z" fill="#FF5866"/>
<path d="M7.26432 14H2.93099C2.74666 14 2.59766 14.149 2.59766 14.3333C2.59766 14.5177 2.74666 14.6667 2.93099 14.6667H7.26432C7.44866 14.6667 7.59766 14.5177 7.59766 14.3333C7.59766 14.149 7.44866 14 7.26432 14Z" fill="#FF5866"/>
<path d="M7.26432 16.3333H4.93099C4.74666 16.3333 4.59766 16.4823 4.59766 16.6666C4.59766 16.851 4.74666 17 4.93099 17H7.26432C7.44865 17 7.59766 16.851 7.59766 16.6666C7.59766 16.4823 7.44865 16.3333 7.26432 16.3333Z" fill="#FF5866"/>
</svg>
