<svg width="26" height="26" viewBox="0 0 26 26" fill="none" xmlns="http://www.w3.org/2000/svg">
<path d="M23.9269 1.85284H4.61014C3.46705 1.85284 2.53711 2.78284 2.53711 3.92593V4.8486H4.17364V3.92587C4.17364 3.68521 4.36948 3.48938 4.61014 3.48938H23.9269C24.1675 3.48938 24.3634 3.68521 24.3634 3.92587V20.0386C24.3634 20.2792 24.1675 20.475 23.9269 20.475H23.1361V22.1116H23.9269C25.0699 22.1116 25.9999 21.1816 25.9999 20.0386V3.92587C25.9999 2.78284 25.0699 1.85284 23.9269 1.85284Z" fill="#959595"/>
<path d="M20.5722 9.66082H8.83519V7.38593C8.83519 6.69292 8.2734 6.13113 7.5804 6.13113H1.25479C0.561789 6.13113 0 6.69292 0 7.38593V22.8924C0 23.5854 0.561789 24.1472 1.25479 24.1472H20.5722C21.2652 24.1472 21.827 23.5854 21.827 22.8924V10.9156C21.827 10.2226 21.2652 9.66082 20.5722 9.66082ZM1.63653 22.5106V7.76767H7.1986C7.1986 8.18652 7.1986 10.8908 7.1986 11.2974C7.36308 11.2974 19.8473 11.2974 20.1904 11.2974V22.5106H1.63653V22.5106Z" fill="#959595"/>
</svg>
