<svg width="26" height="26" viewBox="0 0 26 26" fill="none" xmlns="http://www.w3.org/2000/svg">
<g clip-path="url(#clip0)">
<path d="M23.3293 6.7502L16.8022 0.223133C16.6594 0.0802852 16.4657 0 16.2637 0H5.2492C3.70449 0 2.44775 1.25673 2.44775 2.8014V23.1986C2.44775 24.7433 3.70449 26 5.24915 26H20.751C22.2958 26 23.5524 24.7433 23.5524 23.1986V7.28879C23.5524 7.08678 23.4722 6.89305 23.3293 6.7502V6.7502ZM17.0254 2.60066L20.9517 6.52707H18.3034C17.5987 6.52707 17.0254 5.95375 17.0254 5.24905V2.60066ZM20.751 24.4766H5.24915C4.54451 24.4766 3.97119 23.9032 3.97119 23.1986V2.8014C3.97119 2.09676 4.54451 1.52344 5.24915 1.52344H15.5019V5.24905C15.5019 6.79377 16.7586 8.0505 18.3033 8.0505H22.029V23.1986C22.029 23.9032 21.4557 24.4766 20.751 24.4766V24.4766Z" fill="#959595"/>
<path d="M9.73646 11.4224H6.4729C6.05223 11.4224 5.71118 11.7634 5.71118 12.1841V15.4477C5.71118 15.8683 6.05223 16.2094 6.4729 16.2094H9.73646C10.1571 16.2094 10.4982 15.8683 10.4982 15.4477V12.184C10.4982 11.7634 10.1572 11.4224 9.73646 11.4224ZM8.97474 14.6859H7.23462V12.9458H8.97474V14.6859Z" fill="#959595"/>
<path d="M9.73646 17.9495H6.4729C6.05223 17.9495 5.71118 18.2905 5.71118 18.7112V21.9748C5.71118 22.3954 6.05223 22.7365 6.4729 22.7365H9.73646C10.1571 22.7365 10.4982 22.3954 10.4982 21.9748V18.7112C10.4982 18.2905 10.1572 17.9495 9.73646 17.9495ZM8.97474 21.213H7.23462V19.4729H8.97474V21.213Z" fill="#959595"/>
<path d="M12.2383 12.1841C12.2383 12.6048 12.5793 12.9458 13 12.9458H16.2636C16.6842 12.9458 17.0253 12.6048 17.0253 12.1841C17.0253 11.7634 16.6842 11.4224 16.2636 11.4224H13C12.5793 11.4224 12.2383 11.7634 12.2383 12.1841Z" fill="#959595"/>
<path d="M19.5271 14.6859H13C12.5793 14.6859 12.2383 15.027 12.2383 15.4477C12.2383 15.8683 12.5793 16.2094 13 16.2094H19.5271C19.9477 16.2094 20.2888 15.8683 20.2888 15.4477C20.2888 15.027 19.9477 14.6859 19.5271 14.6859Z" fill="#959595"/>
<path d="M13 19.4729H16.2636C16.6842 19.4729 17.0253 19.1319 17.0253 18.7112C17.0253 18.2905 16.6842 17.9495 16.2636 17.9495H13C12.5793 17.9495 12.2383 18.2905 12.2383 18.7112C12.2383 19.1319 12.5793 19.4729 13 19.4729Z" fill="#959595"/>
<path d="M19.5271 21.213H13C12.5793 21.213 12.2383 21.5541 12.2383 21.9747C12.2383 22.3954 12.5793 22.7365 13 22.7365H19.5271C19.9477 22.7365 20.2888 22.3954 20.2888 21.9747C20.2888 21.5541 19.9477 21.213 19.5271 21.213Z" fill="#959595"/>
<path d="M6.4729 5.60285H10.5523C10.973 5.60285 11.314 5.26181 11.314 4.84113C11.314 4.42046 10.973 4.07941 10.5523 4.07941H6.4729C6.05223 4.07941 5.71118 4.42046 5.71118 4.84113C5.71118 5.26181 6.05223 5.60285 6.4729 5.60285V5.60285Z" fill="#959595"/>
<path d="M6.4729 8.86641H13C13.4206 8.86641 13.7617 8.52536 13.7617 8.10469C13.7617 7.68402 13.4206 7.34297 13 7.34297H6.4729C6.05223 7.34297 5.71118 7.68402 5.71118 8.10469C5.71118 8.52536 6.05223 8.86641 6.4729 8.86641V8.86641Z" fill="#959595"/>
</g>
<defs>
<clipPath id="clip0">
<rect width="26" height="26" fill="white"/>
</clipPath>
</defs>
</svg>
