<svg width="17" height="30" viewBox="0 0 17 30" fill="none" xmlns="http://www.w3.org/2000/svg">
    <path d="M15.6088 0.006242L11.7184 0C7.34777 0 4.52327 2.89785 4.52327 7.38304V10.7871H0.611717C0.273712 10.7871 0 11.0611 0 11.3991V16.3313C0 16.6693 0.274024 16.943 0.611717 16.943H4.52327V29.3883C4.52327 29.7263 4.79698 30 5.13498 30H10.2384C10.5764 30 10.8502 29.726 10.8502 29.3883V16.943H15.4237C15.7617 16.943 16.0354 16.6693 16.0354 16.3313L16.0373 11.3991C16.0373 11.2369 15.9727 11.0814 15.8581 10.9666C15.7436 10.8517 15.5875 10.7871 15.4252 10.7871H10.8502V7.90144C10.8502 6.51447 11.1807 5.81037 12.9874 5.81037L15.6081 5.80943C15.9458 5.80943 16.2195 5.53541 16.2195 5.19772V0.617958C16.2195 0.280578 15.9461 0.0068662 15.6088 0.006242Z" fill="white"/>
</svg>
