<svg width="25" height="25" viewBox="0 0 25 25" fill="none" xmlns="http://www.w3.org/2000/svg">
    <g clip-path="url(#clip0)">
        <path d="M24.3796 24.877H16.0256C15.6829 24.877 15.4052 24.5992 15.4052 24.2566V23.0764C15.4052 22.7338 15.6829 22.456 16.0256 22.456H20.8672L13.9551 15.544C13.7129 15.3017 13.7129 14.9089 13.9551 14.6667L14.7897 13.8321C14.9108 13.711 15.0696 13.6504 15.2283 13.6504C15.3871 13.6504 15.5458 13.711 15.6669 13.8321L22.5791 20.7442V15.9025C22.5791 15.5599 22.8569 15.2822 23.1994 15.2822H24.3796C24.7222 15.2822 24.9999 15.5599 24.9999 15.9025V24.2566C24.9999 24.5992 24.7223 24.877 24.3796 24.877Z" fill="white"/>
        <path d="M4.1328 22.456H8.97441C9.31703 22.456 9.59476 22.7338 9.59476 23.0764V24.2566C9.59476 24.5992 9.31703 24.877 8.97441 24.877H0.620354C0.277732 24.877 0 24.5992 0 24.2566V15.9025C0 15.5599 0.277732 15.2822 0.620354 15.2822H1.80051C2.14314 15.2822 2.42087 15.5599 2.42087 15.9025V20.7442L9.33297 13.8322C9.45406 13.711 9.61287 13.6505 9.77162 13.6505C9.93037 13.6505 10.0892 13.7111 10.2103 13.8322L11.0448 14.6667C11.2871 14.909 11.2871 15.3018 11.0448 15.544L4.1328 22.456Z" fill="white"/>
        <path d="M24.3796 9.71791H23.1994C22.8569 9.71791 22.5791 9.44011 22.5791 9.09755V4.25587L15.667 11.1679C15.4249 11.4102 15.0319 11.4102 14.7897 11.1679L13.9551 10.3334C13.7129 10.0912 13.7129 9.69837 13.9551 9.45606L20.8672 2.54401H16.0256C15.6829 2.54401 15.4052 2.26627 15.4052 1.92365V0.74355C15.4052 0.400928 15.6829 0.123196 16.0256 0.123196H24.3796C24.7222 0.123196 24.9999 0.400928 24.9999 0.74355V9.09755C24.9999 9.44017 24.7223 9.71791 24.3796 9.71791Z" fill="white"/>
        <path d="M10.2103 11.1679C9.96803 11.4102 9.57516 11.4102 9.33297 11.1679L2.42087 4.25582V9.09749C2.42087 9.44011 2.14314 9.71785 1.80051 9.71785H0.620354C0.277732 9.71785 0 9.44011 0 9.09749V0.743443C0 0.400822 0.277732 0.123089 0.620354 0.123089H8.97441C9.31703 0.123089 9.59476 0.400822 9.59476 0.743443V1.92354C9.59476 2.26616 9.31703 2.54389 8.97441 2.54389H4.1328L11.0448 9.456C11.2871 9.69818 11.2871 10.091 11.0448 10.3334L10.2103 11.1679Z" fill="white"/>
    </g>
    <defs>
        <clipPath id="clip0">
            <rect width="25" height="25" transform="matrix(1 0 0 -1 0 25)" fill="white"/>
        </clipPath>
    </defs>
</svg>
