<svg width="22" height="22" viewBox="0 0 22 22" fill="none" xmlns="http://www.w3.org/2000/svg">
<path d="M21.5703 17.1445H21.0546V12.3893C21.0546 12.152 20.8622 11.9596 20.6249 11.9596C20.3876 11.9596 20.1952 12.152 20.1952 12.3893V17.1445H19.9805H18.9922V15.4105V4.76953H19.6367C19.9446 4.76953 20.1952 5.02008 20.1952 5.32804V9.06641C20.1952 9.30368 20.3876 9.49609 20.6249 9.49609C20.8622 9.49609 21.0546 9.30368 21.0546 9.06641V5.32804C21.0546 4.54622 20.4185 3.91016 19.6367 3.91016H18.9922V1.58984C18.9922 1.35257 18.7998 1.16016 18.5625 1.16016H12.7188C12.0167 1.16016 11.3923 1.49866 11 2.02104C10.6077 1.49866 9.98332 1.16016 9.28125 1.16016H3.4375C3.20018 1.16016 3.00781 1.35257 3.00781 1.58984V3.91016H2.36332C1.58151 3.91016 0.945398 4.54622 0.945398 5.32804V17.1445H0.429688C0.192371 17.1445 0 17.3369 0 17.5742V18.3477C0 19.7218 1.118 20.8398 2.49219 20.8398H19.5078C20.882 20.8398 22 19.7218 22 18.3477V17.5742C22 17.3369 21.8076 17.1445 21.5703 17.1445ZM11.4297 6.11394V3.30859C11.4297 2.5978 12.008 2.01953 12.7188 2.01953H18.1328V14.9808H12.7188C12.2355 14.9808 11.789 15.1412 11.4297 15.4115V6.11394ZM11.4297 17.1292C11.4297 16.4184 12.008 15.8402 12.7188 15.8402H18.1328V17.1445H11.4289C11.4291 17.1394 11.4297 17.1344 11.4297 17.1292ZM3.86719 2.01953H9.28125C9.99204 2.01953 10.5703 2.5978 10.5703 3.30859V6.11394V15.4116C10.211 15.1413 9.76456 14.9808 9.28125 14.9808H3.86719V2.01953ZM3.86719 15.8402H9.28125C9.99204 15.8402 10.5703 16.4184 10.5703 17.1292C10.5703 17.1344 10.5709 17.1394 10.5711 17.1445H3.86719V15.8402ZM1.80482 5.32804C1.80482 5.02008 2.05537 4.76953 2.36337 4.76953H3.00781V15.4105V17.1445H1.80482V5.32804ZM21.1406 18.3477C21.1406 19.248 20.4081 19.9805 19.5078 19.9805H2.49219C1.59186 19.9805 0.859375 19.248 0.859375 18.3477V18.0039H21.1406V18.3477Z" fill="#4B4B4B"/>
<path d="M11.9603 18.5625H10.0625C9.82518 18.5625 9.63281 18.7549 9.63281 18.9922C9.63281 19.2295 9.82518 19.4219 10.0625 19.4219H11.9603C12.1976 19.4219 12.39 19.2295 12.39 18.9922C12.39 18.7549 12.1976 18.5625 11.9603 18.5625Z" fill="#4B4B4B"/>
<path d="M20.9288 10.4794C20.8489 10.3995 20.738 10.3535 20.625 10.3535C20.5116 10.3535 20.4011 10.3995 20.3212 10.4794C20.2413 10.5593 20.1953 10.6698 20.1953 10.7832C20.1953 10.8962 20.2413 11.0071 20.3212 11.087C20.4011 11.1669 20.5116 11.2129 20.625 11.2129C20.738 11.2129 20.8489 11.1669 20.9288 11.087C21.0087 11.0071 21.0547 10.8962 21.0547 10.7832C21.0547 10.6697 21.0087 10.5593 20.9288 10.4794Z" fill="black"/>
<path d="M16.0781 3.90918H13.5C13.2627 3.90918 13.0703 4.10159 13.0703 4.33887C13.0703 4.57614 13.2627 4.76855 13.5 4.76855H16.0781C16.3154 4.76855 16.5078 4.57614 16.5078 4.33887C16.5078 4.10159 16.3154 3.90918 16.0781 3.90918Z" fill="#4B4B4B"/>
<path d="M16.0781 5.97168H13.5C13.2627 5.97168 13.0703 6.16409 13.0703 6.40137C13.0703 6.63864 13.2627 6.83105 13.5 6.83105H16.0781C16.3154 6.83105 16.5078 6.63864 16.5078 6.40137C16.5078 6.16409 16.3154 5.97168 16.0781 5.97168Z" fill="#4B4B4B"/>
<path d="M16.0781 8.03418H13.5C13.2627 8.03418 13.0703 8.22659 13.0703 8.46387C13.0703 8.70114 13.2627 8.89355 13.5 8.89355H16.0781C16.3154 8.89355 16.5078 8.70114 16.5078 8.46387C16.5078 8.22659 16.3154 8.03418 16.0781 8.03418Z" fill="#4B4B4B"/>
<path d="M16.0781 10.0967H13.5C13.2627 10.0967 13.0703 10.2891 13.0703 10.5264C13.0703 10.7636 13.2627 10.9561 13.5 10.9561H16.0781C16.3154 10.9561 16.5078 10.7636 16.5078 10.5264C16.5078 10.2891 16.3154 10.0967 16.0781 10.0967Z" fill="#4B4B4B"/>
<path d="M16.0781 12.1592H13.5C13.2627 12.1592 13.0703 12.3516 13.0703 12.5889C13.0703 12.8261 13.2627 13.0186 13.5 13.0186H16.0781C16.3154 13.0186 16.5078 12.8261 16.5078 12.5889C16.5078 12.3516 16.3154 12.1592 16.0781 12.1592Z" fill="#4B4B4B"/>
<path d="M8.51562 8.02881H5.9375C5.70018 8.02881 5.50781 8.22122 5.50781 8.4585C5.50781 8.69577 5.70018 8.88818 5.9375 8.88818H8.51562C8.75294 8.88818 8.94531 8.69577 8.94531 8.4585C8.94531 8.22122 8.75294 8.02881 8.51562 8.02881Z" fill="#4B4B4B"/>
<path d="M8.51562 10.0967H5.9375C5.70018 10.0967 5.50781 10.2891 5.50781 10.5264C5.50781 10.7636 5.70018 10.9561 5.9375 10.9561H8.51562C8.75294 10.9561 8.94531 10.7636 8.94531 10.5264C8.94531 10.2891 8.75294 10.0967 8.51562 10.0967Z" fill="#4B4B4B"/>
<path d="M8.51277 12.1646H7.50391C7.26659 12.1646 7.07422 12.357 7.07422 12.5942C7.07422 12.8315 7.26659 13.0239 7.50391 13.0239H8.51277C8.75009 13.0239 8.94246 12.8315 8.94246 12.5942C8.94246 12.357 8.75009 12.1646 8.51277 12.1646Z" fill="#4B4B4B"/>
<path d="M6.24129 12.2906C6.16137 12.2106 6.05051 12.165 5.9375 12.165C5.82406 12.165 5.71363 12.2106 5.63328 12.2906C5.55336 12.3709 5.50781 12.4813 5.50781 12.5947C5.50781 12.7078 5.55336 12.8186 5.63328 12.8985C5.71363 12.9784 5.82406 13.0244 5.9375 13.0244C6.05051 13.0244 6.16137 12.9785 6.24129 12.8985C6.32121 12.8185 6.36719 12.7078 6.36719 12.5947C6.36719 12.4817 6.32121 12.3709 6.24129 12.2906Z" fill="#4B4B4B"/>
<path d="M8.5613 4.54054L7.06616 3.58225C6.81381 3.42052 6.49378 3.40939 6.23094 3.55312C5.96801 3.69689 5.80469 3.97236 5.80469 4.27203V6.18869C5.80464 6.48844 5.96801 6.76387 6.23094 6.90769C6.35374 6.97485 6.48901 7.00815 6.62402 7.00815C6.77802 7.00815 6.93176 6.96475 7.06616 6.87855L8.5613 5.92018C8.7975 5.76884 8.93848 5.51099 8.93853 5.23044C8.93853 4.9499 8.79755 4.692 8.5613 4.54054ZM6.66402 6.11556V4.34525L8.04499 5.2304L6.66402 6.11556Z" fill="#4B4B4B"/>
</svg>
