<svg width="22" height="22" viewBox="0 0 22 22" fill="none" xmlns="http://www.w3.org/2000/svg">
    <g clip-path="url(#clip0)">
        <path d="M19.0288 16.2445C18.5637 15.8192 18.2969 15.2163 18.2969 14.5904V10.3125C18.2969 10.0752 18.1045 9.88279 17.8672 9.88279C17.6299 9.88279 17.4375 10.0752 17.4375 10.3125V14.5904C17.4375 15.4571 17.8062 16.2911 18.449 16.8788C18.68 17.09 18.8125 17.3904 18.8125 17.7032C18.8125 18.3192 18.3113 18.8204 17.6954 18.8204H4.28898C3.67302 18.8204 3.17188 18.3192 3.17188 17.7032C3.17188 17.3905 3.30435 17.09 3.53539 16.8788C4.17821 16.2911 4.54688 15.4571 4.54688 14.5904V9.62498C4.54688 6.07102 7.43825 3.17965 10.9922 3.17965C11.9697 3.17965 12.9324 3.40193 13.8043 3.8247C13.5013 4.31154 13.3255 4.88551 13.3255 5.49997C13.3255 7.25327 14.7519 8.67966 16.5052 8.67966C18.2585 8.67966 19.6849 7.25327 19.6849 5.49997C19.6849 3.74667 18.2585 2.32027 16.5052 2.32027C15.6835 2.32027 14.9336 2.6336 14.3687 3.14704C13.7282 2.81295 13.0411 2.57671 12.3315 2.44475C12.4898 2.19768 12.5821 1.90438 12.5821 1.5898C12.5821 0.713197 11.8689 0 10.9922 0C10.1156 0 9.40236 0.713197 9.40236 1.5898C9.40236 1.90404 9.49435 2.197 9.65231 2.44394C6.26224 3.07494 3.6875 6.05474 3.6875 9.62498V14.5904C3.6875 15.2163 3.42075 15.8192 2.95557 16.2445C2.5469 16.618 2.3125 17.1497 2.3125 17.7032C2.3125 18.793 3.19916 19.6797 4.28898 19.6797H8.27597C8.48291 20.9926 9.62201 22 10.9922 22C12.3624 22 13.5015 20.9926 13.7084 19.6797H17.6954C18.7852 19.6797 19.6719 18.793 19.6719 17.7032C19.6719 17.1497 19.4375 16.618 19.0288 16.2445ZM16.5052 3.17965C17.7846 3.17965 18.8255 4.22057 18.8255 5.49997C18.8255 6.77937 17.7846 7.82028 16.5052 7.82028C15.2258 7.82028 14.1849 6.77937 14.1849 5.49997C14.1849 4.22057 15.2258 3.17965 16.5052 3.17965ZM10.9922 0.859334C11.395 0.859334 11.7227 1.18701 11.7227 1.58976C11.7227 1.99255 11.395 2.32023 10.9922 2.32023C10.5894 2.32023 10.2617 1.99255 10.2617 1.58976C10.2617 1.18701 10.5894 0.859334 10.9922 0.859334ZM10.9922 21.1406C10.0976 21.1406 9.34659 20.5158 9.15142 19.6797H12.833C12.6378 20.5158 11.8869 21.1406 10.9922 21.1406Z" fill="#959595"/>
        <path d="M6.17969 9.18628C5.94237 9.18628 5.75 9.37869 5.75 9.61597V9.6249C5.75 9.86218 5.94237 10.0546 6.17969 10.0546C6.41701 10.0546 6.60938 9.86218 6.60938 9.6249V9.61597C6.60938 9.37869 6.41701 9.18628 6.17969 9.18628Z" fill="#959595"/>
        <path d="M10.9945 4.38281C8.88594 4.38281 6.99105 5.63699 6.16708 7.57806C6.07436 7.79647 6.17628 8.04874 6.39469 8.14147C6.44947 8.16472 6.50641 8.17576 6.5624 8.17576C6.72963 8.17576 6.88866 8.07749 6.95814 7.91386C7.6471 6.29089 9.23145 5.24219 10.9945 5.24219C11.2318 5.24219 11.4241 5.04977 11.4241 4.8125C11.4241 4.57523 11.2318 4.38281 10.9945 4.38281Z" fill="#959595"/>
        <path d="M16.6586 4.1076C16.4981 4.04125 16.3132 4.07786 16.1903 4.20075L15.6962 4.69489C15.5284 4.86269 15.5284 5.13477 15.6962 5.3026C15.7964 5.40285 15.9341 5.44333 16.0644 5.4236V6.20185C16.0644 6.43913 16.2568 6.63154 16.4941 6.63154C16.7314 6.63154 16.9238 6.43913 16.9238 6.20185V4.50459C16.9238 4.33078 16.8191 4.17411 16.6586 4.1076Z" fill="#FF808B"/>
        <circle cx="16.5" cy="5.5" r="3.5" fill="#FF808B"/>
    </g>
    <defs>
        <clipPath id="clip0">
            <rect width="22" height="22" fill="white"/>
        </clipPath>
    </defs>
</svg>
