<svg width="26" height="26" viewBox="0 0 26 26" fill="none" xmlns="http://www.w3.org/2000/svg">
<path d="M6.5 0C4.25745 0.00269141 2.44019 1.81995 2.4375 4.0625V21.9375C2.44019 24.1801 4.25745 25.9973 6.5 26H23.5625V6.5H6.5C5.15379 6.5 4.0625 5.40871 4.0625 4.0625C4.0625 2.71629 5.15379 1.625 6.5 1.625H23.5625V0H6.5ZM15.4375 8.125H18.6875V13.1072L17.0625 12.025L15.4375 13.1089V8.125ZM6.5 8.125V13H8.125V8.125H13.8125V16.1428L17.0625 13.975L20.3125 16.1411V8.125H21.9375V24.375H8.125V21.125H6.5V24.375C5.15379 24.375 4.0625 23.2837 4.0625 21.9375V7.3125C4.76496 7.84134 5.62072 8.12657 6.5 8.125Z" fill="#959595"/>
<path d="M23.5625 3.25H6.5V4.875H23.5625V3.25Z" fill="#959595"/>
<path d="M8.125 14.625H6.5V16.25H8.125V14.625Z" fill="#959595"/>
<path d="M8.125 17.875H6.5V19.5H8.125V17.875Z" fill="#959595"/>
</svg>
