<svg width="26" height="26" viewBox="0 0 26 26" fill="none" xmlns="http://www.w3.org/2000/svg">
<path d="M20.8793 0H11.0324C9.78211 0 8.76489 1.01722 8.76489 2.26754V5.12004H10.3343V2.26754C10.3343 1.88258 10.6475 1.56937 11.0324 1.56937H20.8793C21.2643 1.56937 21.5775 1.88258 21.5775 2.26754V17.4605C21.5775 17.8455 21.2643 18.1586 20.8793 18.1586H18.5841V19.728H20.8793C22.1296 19.728 23.1468 18.7108 23.1468 17.4605V2.26754C23.1467 1.01722 22.1296 0 20.8793 0Z" fill="#959595"/>
<path d="M14.9679 6.27199H5.121C3.87068 6.27199 2.85352 7.28921 2.85352 8.53953V23.7325C2.85352 24.9828 3.87068 26 5.121 26H14.9679C16.2182 26 17.2354 24.9828 17.2354 23.7325V8.53953C17.2354 7.28921 16.2182 6.27199 14.9679 6.27199ZM15.666 23.7325C15.666 24.1174 15.3528 24.4306 14.9678 24.4306H5.121C4.73604 24.4306 4.42283 24.1174 4.42283 23.7325V8.53953C4.42283 8.15457 4.73604 7.84136 5.121 7.84136H14.9679C15.3528 7.84136 15.666 8.15457 15.666 8.53953V23.7325Z" fill="#959595"/>
</svg>
