<svg width="29" height="29" viewBox="0 0 29 29" fill="none" xmlns="http://www.w3.org/2000/svg">
    <g clip-path="url(#clip0)">
        <path d="M13.3737 0.463529L2.90055 10.9365C2.6016 11.2354 2.4375 11.6339 2.4375 12.0587C2.4375 12.484 2.60183 12.8823 2.90055 13.1812L3.85165 14.1321C4.15014 14.4308 4.54882 14.5954 4.97392 14.5954C5.39878 14.5954 5.8109 14.4308 6.10939 14.1321L12.2326 8.02233L12.2326 27.4333C12.2326 28.3085 12.9177 29 13.7931 29L15.1377 29C16.0132 29 16.7674 28.3085 16.7674 27.4333L16.7674 7.95301L22.9248 14.1318C23.2237 14.4306 23.6116 14.5951 24.0367 14.5951C24.4613 14.5951 24.8548 14.4306 25.1535 14.1318L26.1015 13.181C26.4005 12.882 26.5634 12.4838 26.5634 12.0585C26.5634 11.6336 26.3984 11.2352 26.0994 10.9362L15.6265 0.463294C15.3266 0.163629 14.9263 -0.00117357 14.5007 5.19475e-06C14.0737 -0.000937017 13.6731 0.163629 13.3737 0.463529Z" fill="white"/>
    </g>
    <defs>
        <clipPath id="clip0">
            <rect width="29" height="29" fill="white" transform="translate(0 29) rotate(-90)"/>
        </clipPath>
    </defs>
</svg>
