<svg width="26" height="26" viewBox="0 0 26 26" fill="none" xmlns="http://www.w3.org/2000/svg">
<g clip-path="url(#clip0)">
<path d="M23.997 16.333C23.6393 16.333 23.3494 16.6229 23.3494 16.9806V22.73C23.3482 23.8024 22.4793 24.6716 21.4068 24.6726H3.23767C2.16519 24.6716 1.29633 23.8024 1.29507 22.73V5.85587C1.29633 4.78364 2.16519 3.91453 3.23767 3.91326H8.98707C9.34474 3.91326 9.63461 3.62339 9.63461 3.26573C9.63461 2.90832 9.34474 2.61819 8.98707 2.61819H3.23767C1.45038 2.62022 0.00202355 4.06857 0 5.85587V22.7302C0.00202355 24.5175 1.45038 25.9659 3.23767 25.9679H21.4068C23.1941 25.9659 24.6425 24.5175 24.6445 22.7302V16.9806C24.6445 16.6229 24.3546 16.333 23.997 16.333V16.333Z" fill="#959595"/>
<path d="M24.388 0.952065C23.25 -0.185926 21.405 -0.185926 20.267 0.952065L8.71461 12.5045C8.63543 12.5837 8.57827 12.6818 8.54842 12.7896L7.02924 18.2741C6.96677 18.499 7.03026 18.7398 7.19518 18.905C7.36035 19.0699 7.60115 19.1334 7.82602 19.0711L13.3106 17.5517C13.4183 17.5219 13.5165 17.4647 13.5957 17.3855L25.1478 5.83286C26.284 4.69411 26.284 2.85066 25.1478 1.71191L24.388 0.952065ZM10.1255 12.9254L19.5803 3.47037L22.6295 6.5196L13.1745 15.9746L10.1255 12.9254ZM9.51644 14.1476L11.9525 16.584L8.58282 17.5176L9.51644 14.1476ZM24.2322 4.9172L23.5454 5.60394L20.4959 2.55446L21.1829 1.86772C21.815 1.23561 22.84 1.23561 23.4721 1.86772L24.2322 2.62756C24.8633 3.26043 24.8633 4.28459 24.2322 4.9172V4.9172Z" fill="#959595"/>
</g>
<defs>
<clipPath id="clip0">
<rect width="26" height="26" fill="white"/>
</clipPath>
</defs>
</svg>
