<svg width="15" height="15" viewBox="0 0 15 15" fill="none" xmlns="http://www.w3.org/2000/svg">
    <path d="M6.04624 10.8064C5.2044 10.8064 4.51562 11.4952 4.51562 12.337C4.51562 13.1788 5.2044 13.8676 6.04624 13.8676C6.88807 13.8676 7.57685 13.1788 7.57685 12.337C7.57685 11.4952 6.88807 10.8064 6.04624 10.8064ZM6.04624 12.9493C5.7095 12.9493 5.43399 12.6737 5.43399 12.337C5.43399 12.0003 5.7095 11.7248 6.04624 11.7248C6.38297 11.7248 6.65848 12.0003 6.65848 12.337C6.65848 12.6737 6.38297 12.9493 6.04624 12.9493Z" fill="#241D06"/>
    <path d="M10.5775 10.8064C9.73565 10.8064 9.04688 11.4952 9.04688 12.337C9.04688 13.1788 9.73565 13.8676 10.5775 13.8676C11.4193 13.8676 12.1081 13.1788 12.1081 12.337C12.1081 11.4952 11.4193 10.8064 10.5775 10.8064ZM10.5775 12.9493C10.2408 12.9493 9.96524 12.6737 9.96524 12.337C9.96524 12.0003 10.2408 11.7248 10.5775 11.7248C10.9142 11.7248 11.1897 12.0003 11.1897 12.337C11.1897 12.6737 10.9142 12.9493 10.5775 12.9493Z" fill="#241D06"/>
    <path d="M13.2238 4.7298C13.132 4.62266 13.0096 4.56144 12.8718 4.56144H4.83608L4.40751 2.44919C4.3769 2.26552 4.22384 2.12776 4.04016 2.08184L2.20343 1.74511C1.95853 1.69919 1.71363 1.86756 1.66771 2.11245C1.6218 2.35735 1.79016 2.60225 2.03506 2.64817L3.56567 2.92368L4.91261 9.73491C4.95853 9.94919 5.14221 10.1023 5.35649 10.1023H11.7851C11.9993 10.1023 12.183 9.94919 12.2289 9.75021L13.3004 5.11246C13.3463 4.99001 13.3157 4.83695 13.2238 4.7298ZM11.433 9.19919H5.75445L5.01976 5.4798H12.3055L11.433 9.19919Z" fill="black"/>
</svg>
