<svg width="23" height="23" viewBox="0 0 23 23" fill="none" xmlns="http://www.w3.org/2000/svg">
    <path d="M14.1953 9.70312C13.9474 9.70312 13.7461 9.9044 13.7461 10.1523C13.7461 10.4003 13.9474 10.6016 14.1953 10.6016C14.4433 10.6016 14.6445 10.4003 14.6445 10.1523C14.6445 9.9044 14.4433 9.70312 14.1953 9.70312Z" fill="white"/>
    <path d="M14.1953 12.3984C13.9474 12.3984 13.7461 12.5997 13.7461 12.8477C13.7461 13.0956 13.9474 13.2969 14.1953 13.2969C14.4433 13.2969 14.6445 13.0956 14.6445 12.8477C14.6445 12.5997 14.4433 12.3984 14.1953 12.3984Z" fill="white"/>
    <path d="M3.41406 14.1953C3.16611 14.1953 2.96484 14.3966 2.96484 14.6445C2.96484 14.8925 3.16611 15.0938 3.41406 15.0938C3.66201 15.0938 3.86328 14.8925 3.86328 14.6445C3.86328 14.3966 3.66201 14.1953 3.41406 14.1953Z" fill="white"/>
    <path d="M22.7585 6.16026C22.61 6.08288 22.4311 6.09446 22.2937 6.19027L18.5462 8.80469H17.3398V8.35547C17.3398 7.61233 16.7353 7.00781 15.9922 7.00781H14.3225C15.07 6.34872 15.5429 5.38519 15.5429 4.3125C15.5429 2.33085 13.9308 0.71875 11.9492 0.71875C10.5975 0.71875 9.41813 1.46926 8.80467 2.57511C8.19121 1.46926 7.01184 0.71875 5.66015 0.71875C3.6785 0.71875 2.0664 2.33085 2.0664 4.3125C2.0664 5.38519 2.53931 6.34872 3.28684 7.00781H1.34765C0.604514 7.00781 0 7.61233 0 8.35547V16.4414C0 17.1845 0.604514 17.7891 1.34765 17.7891H3.86327V19.1367C3.86327 19.3848 4.06437 19.5859 4.31249 19.5859H5.66015V21.832C5.66015 22.0802 5.86124 22.2812 6.10936 22.2812H11.5C11.7481 22.2812 11.9492 22.0802 11.9492 21.832V19.5859H13.2968C13.545 19.5859 13.7461 19.3848 13.7461 19.1367V17.7891H15.9922C16.7353 17.7891 17.3398 17.1845 17.3398 16.4414V15.0938H18.5462L22.2937 17.7083C22.4295 17.8029 22.6085 17.8164 22.7585 17.7382C22.907 17.6606 23 17.5072 23 17.3398V6.55859C23 6.39119 22.907 6.23782 22.7585 6.16026ZM11.9492 1.61719C13.4355 1.61719 14.6445 2.82639 14.6445 4.3125C14.6445 5.79878 13.4355 7.00781 11.9492 7.00781C10.4629 7.00781 9.25389 5.79878 9.25389 4.3125C9.25389 2.82639 10.4629 1.61719 11.9492 1.61719ZM9.57589 7.00781H8.03328C8.34194 6.73582 8.60375 6.41207 8.80467 6.04989C9.00559 6.41207 9.2674 6.73582 9.57589 7.00781ZM2.96484 4.3125C2.96484 2.82639 4.17387 1.61719 5.66015 1.61719C7.14642 1.61719 8.35545 2.82639 8.35545 4.3125C8.35545 5.79878 7.14642 7.00781 5.66015 7.00781C4.17387 7.00781 2.96484 5.79878 2.96484 4.3125ZM11.0508 21.3828H6.55858V19.5859H11.0508V21.3828ZM12.8476 18.6875H4.76171V17.7891H12.8476V18.6875ZM16.4414 16.4414C16.4414 16.6892 16.2399 16.8906 15.9922 16.8906H1.34765C1.09988 16.8906 0.898436 16.6892 0.898436 16.4414V8.35547C0.898436 8.10787 1.09988 7.90625 1.34765 7.90625H15.9922C16.2399 7.90625 16.4414 8.10787 16.4414 8.35547V16.4414ZM17.3398 9.70312H18.2382V14.1953H17.3398V9.70312ZM22.1015 16.4788L19.1367 14.4103V9.48834L22.1015 7.41983V16.4788Z" fill="white"/>
    <path d="M5.66015 2.96484C4.91701 2.96484 4.3125 3.56936 4.3125 4.3125C4.3125 5.05564 4.91701 5.66016 5.66015 5.66016C6.40329 5.66016 7.00781 5.05564 7.00781 4.3125C7.00781 3.56936 6.40329 2.96484 5.66015 2.96484ZM5.66015 4.76172C5.41238 4.76172 5.21094 4.56027 5.21094 4.3125C5.21094 4.0649 5.41238 3.86328 5.66015 3.86328C5.90792 3.86328 6.10937 4.0649 6.10937 4.3125C6.10937 4.56027 5.90792 4.76172 5.66015 4.76172Z" fill="white"/>
    <path d="M11.9492 5.66016C12.6924 5.66016 13.2969 5.05564 13.2969 4.3125C13.2969 3.56936 12.6924 2.96484 11.9492 2.96484C11.2061 2.96484 10.6016 3.56936 10.6016 4.3125C10.6016 5.05564 11.2061 5.66016 11.9492 5.66016ZM11.9492 3.86328C12.197 3.86328 12.3984 4.0649 12.3984 4.3125C12.3984 4.56027 12.197 4.76172 11.9492 4.76172C11.7014 4.76172 11.5 4.56027 11.5 4.3125C11.5 4.0649 11.7014 3.86328 11.9492 3.86328Z" fill="white"/>
    <path d="M10.1523 12.8477V10.1523C10.1523 9.90422 9.95124 9.70312 9.70311 9.70312H3.41406C3.16594 9.70312 2.96484 9.90422 2.96484 10.1523V12.8477C2.96484 13.0958 3.16594 13.2969 3.41406 13.2969H9.70311C9.95124 13.2969 10.1523 13.0958 10.1523 12.8477ZM9.25389 12.3984H3.86328V10.6016H9.25389V12.3984Z" fill="white"/>
    <path d="M14.1953 14.1953H5.21094C4.96281 14.1953 4.76172 14.3964 4.76172 14.6445C4.76172 14.8927 4.96281 15.0938 5.21094 15.0938H14.1953C14.4434 15.0938 14.6445 14.8927 14.6445 14.6445C14.6445 14.3964 14.4434 14.1953 14.1953 14.1953Z" fill="white"/>
</svg>
