<svg width="33" height="20" viewBox="0 0 33 20" fill="none" xmlns="http://www.w3.org/2000/svg">
    <path d="M27.1578 11.7654C26.6287 11.0972 26.78 10.7999 27.1578 10.2027C27.1646 10.1958 31.5325 4.16039 31.9825 2.11357L31.9852 2.11221C32.2088 1.3663 31.9852 0.818115 30.9038 0.818115H27.3255C26.4146 0.818115 25.9945 1.28857 25.7695 1.81493C25.7695 1.81493 23.9476 6.17584 21.3703 9.00266C20.5384 9.81948 20.1539 10.0813 19.6998 10.0813C19.4761 10.0813 19.1284 9.81948 19.1284 9.07357V2.11221C19.1284 1.21766 18.8734 0.818115 18.1193 0.818115H12.4927C11.9213 0.818115 11.5818 1.23539 11.5818 1.62402C11.5818 2.47221 12.8704 2.66721 13.0041 5.05357V10.2313C13.0041 11.3658 12.7982 11.5745 12.3413 11.5745C11.1249 11.5745 8.17256 7.19584 6.42295 2.18448C6.06976 1.21221 5.72474 0.819479 4.80698 0.819479H1.22732C0.205916 0.819479 0 1.28993 0 1.8163C0 2.7463 1.21641 7.37039 5.65656 13.4795C8.61575 17.6495 12.7832 19.909 16.5742 19.909C18.8529 19.909 19.1311 19.4072 19.1311 18.544C19.1311 14.5595 18.9252 14.1831 20.0666 14.1831C20.5957 14.1831 21.5067 14.4449 23.634 16.4563C26.0654 18.8413 26.465 19.909 27.826 19.909H31.4043C32.4243 19.909 32.9411 19.4072 32.6439 18.4172C31.9634 16.3349 27.365 12.0518 27.1578 11.7654Z" fill="white"/>
</svg>
