<svg width="75" height="75" viewBox="0 0 75 75" fill="none" xmlns="http://www.w3.org/2000/svg">
    <path d="M39.8438 19.9219C35.9036 19.9219 32.0519 21.0903 28.7758 23.2793C25.4996 25.4684 22.9462 28.5797 21.4383 32.22C19.9305 35.8602 19.536 39.8659 20.3047 43.7303C21.0734 47.5948 22.9707 51.1445 25.7569 53.9306C28.543 56.7168 32.0927 58.6141 35.9572 59.3828C39.8217 60.1515 43.8273 59.757 47.4675 58.2492C51.1078 56.7413 54.2191 54.1879 56.4082 50.9118C58.5972 47.6356 59.7656 43.7839 59.7656 39.8438C59.7597 34.5619 57.6589 29.4982 53.9241 25.7634C50.1893 22.0286 45.1256 19.9278 39.8438 19.9219ZM35.1563 56.768C32.5458 56.0422 30.1391 54.7213 28.125 52.909V37.5H35.1563V56.768ZM49.2188 54.6867C47.0881 56.0393 44.689 56.9129 42.1875 57.2473V32.8125H49.2188V54.6867ZM51.5625 52.909V31.6406C51.5625 31.3298 51.439 31.0318 51.2193 30.812C50.9995 30.5922 50.7014 30.4688 50.3906 30.4688H41.0156C40.7048 30.4688 40.4068 30.5922 40.187 30.812C39.9672 31.0318 39.8438 31.3298 39.8438 31.6406V57.4219C39.0595 57.4161 38.2765 57.3577 37.5 57.2473V36.3281C37.5 36.0173 37.3765 35.7193 37.1568 35.4995C36.937 35.2797 36.6389 35.1562 36.3281 35.1562H26.9531C26.6423 35.1562 26.3443 35.2797 26.1245 35.4995C25.9047 35.7193 25.7813 36.0173 25.7813 36.3281V50.3461C23.7349 47.6158 22.5275 44.3489 22.3062 40.944C22.0848 37.5392 22.8593 34.1435 24.5349 31.1712C26.2106 28.199 28.7151 25.7787 31.7429 24.2055C34.7706 22.6324 38.1908 21.9745 41.5861 22.312C44.9814 22.6495 48.2051 23.9679 50.8639 26.1063C53.5228 28.2448 55.5017 31.1108 56.5595 34.3547C57.6172 37.5987 57.7079 41.0804 56.8206 44.3751C55.9333 47.6697 54.1063 50.635 51.5625 52.909Z" fill="#FF808B"/>
    <path d="M65.625 17.5781H72.6562V19.9219H65.625V17.5781Z" fill="#FF808B"/>
    <path d="M65.625 22.2656H72.6562V24.6094H65.625V22.2656Z" fill="#FF808B"/>
    <path d="M64.609 27.5391L62.7188 30.8203C60.5891 25.4409 56.6416 20.978 51.5625 18.2074V5.85938C51.5625 4.92697 51.1921 4.03276 50.5328 3.37345C49.8735 2.71415 48.9793 2.34375 48.0469 2.34375H5.85938C4.92697 2.34375 4.03276 2.71415 3.37345 3.37345C2.71415 4.03276 2.34375 4.92697 2.34375 5.85938V69.1406C2.34375 70.073 2.71415 70.9672 3.37345 71.6265C4.03276 72.2859 4.92697 72.6562 5.85938 72.6562H48.0469C48.9793 72.6562 49.8735 72.2859 50.5328 71.6265C51.1921 70.9672 51.5625 70.073 51.5625 69.1406V61.4801L51.5848 61.466C51.7137 61.6207 51.8379 61.7754 51.9879 61.9348L60.2707 70.2176C60.9208 70.875 61.6952 71.3965 62.5489 71.7516C63.4026 72.1067 64.3184 72.2884 65.243 72.2859C66.6346 72.2868 67.9952 71.8747 69.1525 71.1018C70.3097 70.3289 71.2116 69.2299 71.7439 67.9441C72.2762 66.6583 72.415 65.2434 72.1426 63.8787C71.8703 62.514 71.1991 61.2608 70.2141 60.2777L61.9148 51.9785C61.7672 51.8355 61.616 51.7148 61.4648 51.5895C64.4318 46.1742 65.2246 39.8321 63.682 33.8531L66.3023 29.2969H72.6562V26.9531H65.625C65.4191 26.9529 65.2168 27.007 65.0384 27.1098C64.8601 27.2127 64.7119 27.3607 64.609 27.5391ZM9.375 4.6875H18.75V19.827L14.7949 16.6629C14.5871 16.4965 14.3288 16.4058 14.0625 16.4058C13.7962 16.4058 13.5379 16.4965 13.3301 16.6629L9.375 19.827V4.6875ZM48.0469 70.3125H5.85938C5.54857 70.3125 5.2505 70.189 5.03073 69.9693C4.81097 69.7495 4.6875 69.4514 4.6875 69.1406V5.85938C4.6875 5.54857 4.81097 5.2505 5.03073 5.03073C5.2505 4.81097 5.54857 4.6875 5.85938 4.6875H7.03125V22.2656C7.03117 22.4864 7.09348 22.7028 7.211 22.8897C7.32852 23.0767 7.49647 23.2266 7.69549 23.3223C7.89452 23.4179 8.11652 23.4554 8.33591 23.4304C8.55531 23.4054 8.76317 23.3189 8.93555 23.1809L14.0625 19.0793L19.1895 23.1809C19.3618 23.3189 19.5697 23.4054 19.7891 23.4304C20.0085 23.4554 20.2305 23.4179 20.4295 23.3223C20.6285 23.2266 20.7965 23.0767 20.914 22.8897C21.0315 22.7028 21.0938 22.4864 21.0938 22.2656V4.6875H48.0469C48.3577 4.6875 48.6557 4.81097 48.8755 5.03073C49.0953 5.2505 49.2188 5.54857 49.2188 5.85938V17.1C45.4815 15.5549 41.4209 14.9554 37.3965 15.3546C33.3722 15.7538 29.5085 17.1393 26.1476 19.3886C22.7868 21.6378 20.0325 24.6812 18.1289 28.2492C16.2253 31.8173 15.2311 35.7997 15.2344 39.8438H12.8906C12.5798 39.8438 12.2818 39.9672 12.062 40.187C11.8422 40.4068 11.7188 40.7048 11.7188 41.0156V66.7969C11.7188 67.1077 11.8422 67.4057 12.062 67.6255C12.2818 67.8453 12.5798 67.9688 12.8906 67.9688H22.2656C22.5764 67.9688 22.8745 67.8453 23.0943 67.6255C23.314 67.4057 23.4375 67.1077 23.4375 66.7969V58.1344C24.1801 58.8062 24.9628 59.4324 25.7812 60.0094V66.7969C25.7812 67.1077 25.9047 67.4057 26.1245 67.6255C26.3443 67.8453 26.6423 67.9688 26.9531 67.9688H36.3281C36.6389 67.9688 36.937 67.8453 37.1568 67.6255C37.3765 67.4057 37.5 67.1077 37.5 66.7969V64.3359C38.2723 64.4086 39.0527 64.4531 39.8438 64.4531V66.7969C39.8438 67.1077 39.9672 67.4057 40.187 67.6255C40.4068 67.8453 40.7048 67.9688 41.0156 67.9688H49.2188V69.1406C49.2188 69.4514 49.0953 69.7495 48.8755 69.9693C48.6557 70.189 48.3577 70.3125 48.0469 70.3125ZM21.0938 55.7449V65.625H14.0625V42.1875H15.3516C15.8292 47.1888 17.8339 51.922 21.0938 55.7449ZM28.125 61.4801C30.3264 62.6724 32.6977 63.5198 35.1562 63.9926V65.625H28.125V61.4801ZM49.2188 65.625H42.1875V64.3359C44.6052 64.1068 46.975 63.5178 49.2188 62.5887V65.625ZM60.273 53.6449L68.5605 61.9324C69.0162 62.3631 69.3808 62.8807 69.6329 63.4548C69.8849 64.0288 70.0192 64.6476 70.0279 65.2745C70.0366 65.9014 69.9194 66.5237 69.6833 67.1044C69.4472 67.6852 69.097 68.2128 68.6534 68.6558C68.2098 69.0989 67.6818 69.4484 67.1007 69.6838C66.5196 69.9192 65.8972 70.0356 65.2703 70.0262C64.6435 70.0167 64.0248 69.8817 63.4511 69.6289C62.8774 69.3762 62.3601 69.0109 61.9301 68.5547L53.659 60.2836C53.6402 60.2648 53.6285 60.2473 53.6109 60.2285C56.2181 58.4612 58.4651 56.2138 60.232 53.6062C60.2461 53.6227 60.2602 53.632 60.273 53.6449ZM39.8438 62.1094C35.44 62.1094 31.1352 60.8035 27.4736 58.3569C23.8121 55.9104 20.9582 52.4329 19.273 48.3644C17.5878 44.2959 17.1468 39.819 18.006 35.4999C18.8651 31.1808 20.9857 27.2135 24.0996 24.0996C27.2135 20.9857 31.1808 18.8651 35.4999 18.006C39.819 17.1468 44.2959 17.5878 48.3644 19.273C52.4329 20.9582 55.9104 23.8121 58.3569 27.4736C60.8035 31.1352 62.1094 35.44 62.1094 39.8438C62.1029 45.747 59.7549 51.4065 55.5807 55.5807C51.4065 59.7549 45.747 62.1029 39.8438 62.1094Z" fill="#FF808B"/>
    <path d="M44.5312 7.03125H46.875V9.375H44.5312V7.03125Z" fill="#FF808B"/>
    <path d="M32.8125 7.03125H42.1875V9.375H32.8125V7.03125Z" fill="#FF808B"/>
    <path d="M37.5 11.7188H46.875V14.0625H37.5V11.7188Z" fill="#FF808B"/>
    <path d="M23.4375 7.03125H30.4688V9.375H23.4375V7.03125Z" fill="#FF808B"/>
    <path d="M23.4375 11.7188H35.1562V14.0625H23.4375V11.7188Z" fill="#FF808B"/>
</svg>
