<svg width="328" height="233" viewBox="0 0 328 233" fill="none" xmlns="http://www.w3.org/2000/svg">
<g clip-path="url(#clip0)">
<path d="M0 105.883L202.106 218.555L327.12 148.496L124.865 35.8239L0 105.883Z" fill="url(#paint0_linear)"/>
<path d="M124.865 25.1345L327.12 137.662V142.14L202.106 212.199L0 99.527V95.1934L124.865 25.1345Z" fill="#80B4FF"/>
<path d="M0 95.1934L202.106 207.721L327.12 137.662L124.865 25.1345L0 95.1934Z" fill="#4588FF"/>
<path d="M126.502 12.5673C126.502 12.5673 163.262 16.7564 225.025 69.6255C225.025 69.6255 278.305 79.5927 319.976 120.328V135.351L202.106 201.076L8.63184 93.3156V78.2926L126.502 12.5673Z" fill="white"/>
<path d="M8.63184 78.2926C8.63184 78.2926 45.3919 82.4817 107.155 135.351C107.155 135.351 160.435 145.318 202.106 186.053V201.076L8.63184 93.3155V78.2926Z" fill="#F5F5F5"/>
<path d="M319.976 120.328L201.957 186.053V201.076L319.976 135.351V120.328Z" fill="#E2E2E2"/>
<path d="M311.642 91.8711L193.772 157.452C187.67 153.696 181.717 150.518 175.615 147.918C170.852 145.896 166.09 144.018 161.625 142.573C131.562 132.895 107.006 135.351 107.006 135.351L224.876 69.6256C225.025 69.6256 269.227 65.292 311.642 91.8711Z" fill="#F5F5F5"/>
<path d="M297.801 94.6156L294.974 96.2046C263.72 78.4371 232.169 76.8481 219.667 76.9926L224.43 74.248C239.759 74.6813 268.929 77.8593 297.801 94.6156Z" fill="url(#paint1_linear)"/>
<path d="M285.002 101.694L282.175 103.283C250.921 85.5152 219.37 83.9262 206.869 84.0707L211.631 81.3261C226.96 81.7595 256.279 84.9374 285.002 101.694Z" fill="url(#paint2_linear)"/>
<path d="M272.352 108.772L269.524 110.361C238.271 92.5933 206.72 91.0044 194.218 91.1488L198.981 88.4042C214.31 88.8376 243.629 92.0155 272.352 108.772Z" fill="url(#paint3_linear)"/>
<path d="M259.851 115.85L257.023 117.439C225.769 99.6715 194.367 98.0825 181.866 98.2269L186.628 95.4824C201.808 95.9157 230.978 99.0936 259.851 115.85Z" fill="url(#paint4_linear)"/>
<path d="M247.051 122.928L244.224 124.517C212.97 106.75 181.568 105.161 169.066 105.305L173.829 102.56C189.009 102.994 218.328 106.172 247.051 122.928Z" fill="url(#paint5_linear)"/>
<path d="M233.657 130.44L230.83 132.029C199.576 114.261 168.174 112.672 155.672 112.817L160.435 110.072C175.764 110.505 204.934 113.683 233.657 130.44Z" fill="url(#paint6_linear)"/>
<path d="M220.858 137.518L218.03 139.107C186.777 121.339 155.374 119.75 142.873 119.895L147.635 117.15C162.816 117.583 191.986 120.761 220.858 137.518Z" fill="url(#paint7_linear)"/>
<path d="M208.059 144.74L205.232 146.329C173.978 128.562 142.576 126.973 130.074 127.117L134.837 124.373C150.017 124.662 179.336 127.984 208.059 144.74Z" fill="url(#paint8_linear)"/>
<path d="M121.74 21.8122C134.39 25.4235 164.751 36.9796 207.761 72.659L210.44 71.2145C169.066 36.6907 139.599 24.2678 125.312 19.7899L121.74 21.8122Z" fill="url(#paint9_linear)"/>
<path d="M109.09 28.7458C121.889 32.3571 152.101 43.9132 194.963 79.5927L197.641 78.1482C156.417 43.6243 126.949 31.2015 112.513 26.7235L109.09 28.7458Z" fill="url(#paint10_linear)"/>
<path d="M96.2905 35.9684C108.941 39.5797 139.301 51.1358 182.312 86.8153L184.991 85.3708C143.617 50.8469 114.15 38.4241 99.8624 33.9461L96.2905 35.9684Z" fill="url(#paint11_linear)"/>
<path d="M83.6406 43.0465C96.4397 46.5134 126.651 58.2139 169.662 93.8934L172.341 92.4489C130.967 57.925 101.5 45.5022 87.2125 41.0242L83.6406 43.0465Z" fill="url(#paint12_linear)"/>
<path d="M70.9902 50.1246C83.6405 53.7359 114.001 65.292 157.012 100.971L159.691 99.527C118.168 65.0031 88.7006 52.5803 74.4132 48.1023L70.9902 50.1246Z" fill="url(#paint13_linear)"/>
<path d="M58.3398 57.2027C71.1389 60.814 101.351 72.3701 144.213 108.194L146.892 106.75C105.518 72.0812 76.0502 59.6584 61.7628 55.1804L58.3398 57.2027Z" fill="url(#paint14_linear)"/>
<path d="M45.541 64.2809C58.1913 67.8921 88.5518 79.4482 131.563 115.128L134.241 113.683C92.8678 79.1593 63.4002 66.7365 49.1128 62.2585L45.541 64.2809Z" fill="url(#paint15_linear)"/>
<path d="M32.8906 71.359C45.6897 74.9703 75.9014 86.5264 118.912 122.206L121.591 120.761C80.0686 86.2375 50.601 73.8147 36.3136 69.3367L32.8906 71.359Z" fill="url(#paint16_linear)"/>
<path d="M125.014 86.2374L129.777 86.6708L130.223 90.571L201.957 50.5579L196.302 46.5133L125.014 86.2374Z" fill="#6CE3FF"/>
<path opacity="0.5" d="M81.8547 90.4266C80.0688 92.3044 67.1209 98.3714 59.8284 100.538C58.9354 100.105 58.1913 99.527 57.2983 99.0936L80.5152 87.1042C80.6641 87.2486 83.7894 88.5487 81.8547 90.4266Z" fill="#898989"/>
<path d="M58.0424 6.21143C58.0424 6.21143 55.3635 9.38935 57.0006 14.4452C58.0424 17.6231 58.9353 17.912 59.233 19.6454C59.5306 21.3788 57.0006 24.4123 59.0842 29.3236C60.2748 31.7793 66.9719 28.8903 66.9719 28.8903L70.3949 24.5567L66.9719 15.4563L58.0424 6.21143Z" fill="#2A3049"/>
<path d="M66.8231 22.101L67.2696 26.579C67.2696 26.579 59.0841 29.757 58.7865 28.168C58.6376 26.7235 60.5724 25.8568 60.87 24.8456C61.1677 23.8345 60.87 22.9678 60.87 22.9678C60.87 22.9678 59.8283 20.9454 59.9771 18.6342" fill="#22293F"/>
<path d="M24.1097 138.673C24.1097 138.673 24.4074 138.962 24.2586 139.251C24.2586 139.54 23.8121 140.118 22.9191 140.551C22.0262 140.985 21.282 141.273 20.3891 141.996C19.4961 142.718 17.7102 144.451 16.6684 145.174C15.6266 146.04 14.2872 146.474 13.3942 146.474C12.6501 146.618 10.5665 146.907 9.07829 146.907C7.73885 146.763 6.69707 146.04 6.54824 145.462C6.39941 144.885 6.39941 144.018 6.39941 144.018" fill="#3A3D51"/>
<path d="M17.4126 129.284V134.629V137.084H22.175L23.6633 129.284H17.4126Z" fill="#FFE1BD"/>
<path d="M61.7631 78.4371C61.7631 78.4371 56.8518 91.7266 46.7316 95.1934C45.0945 95.7712 43.4575 96.2046 41.9692 96.4935C34.2302 98.3714 28.426 97.7935 28.426 97.7935C29.319 107.616 24.8542 125.962 23.6636 130.295C23.5147 130.873 22.9194 131.451 22.3241 131.595C22.1753 131.595 22.0265 131.595 22.0265 131.595C20.687 131.74 19.6453 131.595 18.7523 131.451C17.8593 131.306 17.264 130.584 17.264 129.717C16.9664 123.073 15.7758 91.4377 19.4964 88.982C28.7237 82.7706 51.1964 75.4036 55.81 73.8146C56.4053 73.6702 56.703 73.2368 57.0006 72.659L58.4889 69.0477L61.7631 78.4371Z" fill="#3A3D51"/>
<path d="M44.648 88.9821L41.9691 96.4935C34.2301 98.3714 28.4259 97.7936 28.4259 97.7936C29.3189 107.616 24.8541 125.962 23.6635 130.295C23.5146 130.873 22.9193 131.451 22.324 131.595C22.1752 131.595 22.0264 131.595 22.0264 131.595C26.3423 117.006 25.5982 94.1823 25.5982 94.1823C34.8254 94.7601 44.4991 89.1265 44.648 88.9821Z" fill="#333647"/>
<path d="M49.4102 133.184L51.4937 137.662C51.4937 137.662 57.8933 143.296 56.5538 136.362L53.8749 128.273" fill="#FFE1BD"/>
<path d="M83.6405 80.4594C83.194 84.504 82.0034 89.1265 76.1992 92.3044C71.1391 95.049 60.5724 100.105 47.7733 103.283C48.2198 104.294 48.8151 105.594 49.4104 107.038C51.6428 112.528 54.3217 126.395 55.2146 131.017C55.3635 131.74 55.2146 132.462 54.7682 133.04C54.6193 133.184 54.6193 133.329 54.4705 133.329C53.7264 134.051 52.5358 134.773 51.1963 134.773C50.3034 134.773 49.5592 134.195 49.2616 133.473C46.7315 128.417 34.0813 104.583 33.0395 99.527C32.8907 98.9492 32.7419 97.938 33.0395 97.2157C33.0395 96.9268 33.1884 96.7824 33.3372 96.6379C38.9926 90.8599 58.34 82.4817 58.34 82.4817L58.6377 69.0477L79.771 71.359L83.0452 71.6479C82.8963 71.6479 83.9381 76.9926 83.6405 80.4594Z" fill="#3A3D51"/>
<path d="M83.6405 80.4594C83.194 84.5041 82.0034 89.1265 76.1992 92.3044C71.1391 95.049 60.5724 100.105 47.7734 103.283C48.2199 104.294 48.8152 105.594 49.4105 107.038C51.6429 112.528 54.3217 126.395 55.2147 131.017C55.3635 131.74 55.2147 132.462 54.7682 133.04C53.4288 128.562 50.4523 119.172 49.5593 113.972C48.3687 108.05 43.3086 100.827 43.3086 100.827C43.3086 100.827 49.5593 99.2381 58.34 96.3491C67.1208 93.46 76.7945 89.271 79.4734 84.0707C82.3011 79.0149 79.4734 71.359 79.4734 71.359C79.4734 71.359 79.4734 71.359 79.6222 71.2145L82.8964 71.5034C82.8964 71.6479 83.9382 76.9926 83.6405 80.4594Z" fill="#333647"/>
<path d="M23.9608 139.251C23.2167 139.973 22.6214 140.118 20.5378 141.273C18.4542 142.429 16.2218 145.174 14.4359 145.751C12.65 146.329 9.22701 146.907 7.58993 146.185C6.69697 145.751 6.39931 145.029 6.25049 144.451C6.25049 143.874 6.39931 143.296 6.54814 142.862C6.99462 141.996 8.48288 141.273 10.2688 140.407C12.0547 139.684 13.8406 137.518 15.0312 136.507C16.2219 135.351 16.6683 134.195 16.966 133.618C17.1148 133.329 18.9007 133.762 19.496 134.629C19.7937 135.062 19.6449 135.206 19.6449 135.495C19.496 135.64 19.496 135.929 19.6449 136.073C19.7937 136.218 19.9425 136.218 20.0913 136.218C22.4726 136.362 22.6214 133.906 22.6214 133.906C24.4073 134.484 24.8538 138.529 23.9608 139.251Z" fill="#FBC006"/>
<path d="M59.233 139.54C59.233 139.54 59.8283 140.118 59.8283 140.696C59.8283 141.129 58.9354 143.007 58.1912 143.585C58.1912 143.585 58.0424 143.874 57.7448 144.307C57.4471 144.74 56.2565 147.196 55.2147 148.496C54.1729 149.796 51.7917 150.518 50.7499 150.807C49.7081 151.096 48.5175 151.385 46.7316 150.663C44.9457 150.085 44.7969 148.785 44.7969 148.785L49.7081 146.185" fill="#3A3D51"/>
<path d="M59.5307 140.118C59.5307 140.551 58.9354 141.996 57.7448 143.296C56.4053 145.896 55.0659 148.063 54.3218 148.64C53.4288 149.218 51.7917 149.94 50.0058 150.374C47.7734 150.952 44.7969 149.796 44.7969 148.063C44.7969 147.918 44.7969 147.918 44.7969 147.774C44.9457 145.896 47.6246 144.451 48.8152 143.874C50.0058 143.296 50.6011 139.54 50.8988 137.951C50.8988 137.662 51.1964 136.94 51.9405 137.084C52.6847 137.084 53.4288 137.373 53.7265 137.662C54.1729 138.095 54.0241 138.24 54.0241 138.529C54.0241 138.818 54.1729 138.962 54.4706 138.962C54.6194 138.962 54.6194 138.962 54.7682 138.962C55.2147 138.818 57.0006 137.229 56.703 136.218C56.703 136.218 57.1495 136.073 57.4471 136.507C57.7448 136.94 59.5307 138.962 59.5307 140.118Z" fill="#FBC006"/>
<path d="M64.7397 38.2796C64.7397 38.2796 62.0608 46.08 59.9773 51.2802C59.382 52.7247 58.7866 54.0248 58.3402 54.8915C58.1913 55.1804 58.0425 55.4693 57.8937 55.7582C54.3219 61.5363 44.797 69.9145 41.2252 73.2368C40.9275 73.5257 40.481 73.6702 40.0345 73.8146C39.2904 73.9591 38.3975 73.5257 37.951 72.9479C37.8021 72.659 37.8021 72.5146 37.6533 72.3701C37.6533 71.9368 37.8021 71.6479 37.8021 71.6479C39.1416 69.3366 46.2852 58.9361 49.1129 54.8915C50.4524 53.0136 51.4942 51.7136 52.2383 50.8469C52.5359 47.8134 53.4289 38.713 54.9172 33.3683C54.9172 33.2238 54.9172 33.2238 54.9172 33.0794C55.5125 30.9126 56.4054 29.4681 57.4472 28.3125C57.8937 27.7347 58.3402 27.4458 58.7866 27.0124C58.9355 27.0124 58.9355 26.868 59.0843 26.868C59.9773 26.4346 61.1679 26.0012 62.3585 25.7123C63.1026 25.7123 63.8467 26.0012 64.5909 26.4346C65.6327 27.1569 66.5256 28.3125 66.6744 30.1903C66.8233 31.9237 65.7815 35.1017 64.7397 38.2796Z" fill="#2EED89"/>
<path d="M54.9172 33.0793C54.7683 33.8016 53.2801 45.3577 53.1312 50.9913C53.1312 50.9913 38.9928 69.77 37.6533 72.0812C37.6533 71.6479 37.8021 71.359 37.8021 71.359C39.1416 69.3366 46.2852 58.9361 49.1129 54.8915C50.4524 53.0136 51.4942 51.7136 52.2383 50.8469C52.5359 47.8134 53.4289 38.7129 54.9172 33.3682C54.7683 33.2238 54.7683 33.2238 54.9172 33.0793Z" fill="#41F28D"/>
<path d="M59.9773 51.2802C59.382 52.7247 58.7867 54.0248 58.3402 54.8915C55.2148 60.6695 44.9458 69.6255 41.0764 73.2368C40.7787 73.5257 40.3322 73.6702 39.8857 73.8146C41.8205 71.7923 52.6848 60.6695 54.1731 58.9361C55.6613 56.9138 56.5543 55.4693 56.2566 54.1692C56.1078 52.8692 55.6613 52.4358 54.6195 50.269C52.9825 46.9467 53.1313 45.6466 53.1313 45.6466C53.1313 45.6466 57.2984 46.9467 57.5961 46.9467C57.8937 46.8022 58.9355 49.1134 59.9773 51.2802Z" fill="#27E076"/>
<path d="M56.8516 31.6349C56.8516 31.6349 57.1493 34.9573 55.9587 37.2685C54.768 39.5797 53.7263 41.7465 53.2798 45.0689L58.191 39.5797L56.8516 31.6349Z" fill="#27E076"/>
<path d="M64.7397 38.2796C64.7397 38.2796 62.0608 46.08 59.9773 51.2802C59.382 52.7247 58.7866 54.0248 58.3402 54.8915C58.1913 55.1804 58.0425 55.4693 57.8937 55.7582C54.3219 61.5363 44.797 69.9145 41.2252 73.2368C40.9275 73.5257 40.481 73.6702 40.0345 73.8146C39.2904 73.9591 38.3975 73.5257 37.951 72.9479C37.8021 72.659 37.8021 72.5146 37.6533 72.3701C37.6533 71.9368 37.8021 71.6479 37.8021 71.6479C39.1416 69.3366 46.2852 58.9361 49.1129 54.8915C50.4524 53.0136 51.4942 51.7136 52.2383 50.8469C52.5359 47.8134 53.4289 38.713 54.9172 33.3683C54.9172 33.2238 54.9172 33.2238 54.9172 33.0794C55.5125 30.9126 56.4054 29.4681 57.4472 28.3125C57.8937 27.7347 58.3402 27.4458 58.7866 27.0124C58.9355 27.0124 58.9355 26.868 59.0843 26.868C59.9773 26.4346 61.1679 26.0012 62.3585 25.7123C63.1026 25.7123 63.8467 26.0012 64.5909 26.4346C65.6327 27.1569 66.5256 28.3125 66.6744 30.1903C66.8233 31.9237 65.7815 35.1017 64.7397 38.2796Z" fill="#FBC006"/>
<path d="M82.896 70.2034C83.1936 70.7812 83.3425 71.2145 82.7472 71.6479C82.7472 71.6479 80.8124 73.9591 75.0082 74.1036C74.8594 74.1036 74.8594 74.1036 74.7106 74.1036C74.2641 74.1036 73.6688 74.1036 73.0735 73.9591C68.7575 73.3813 61.6138 70.9256 59.0838 69.4811C59.0838 69.4811 59.0838 69.4811 58.935 69.4811C58.6373 69.3367 57.7444 68.7589 57.7444 68.3255C58.1908 66.881 58.1908 65.0031 58.1908 65.0031C58.1908 61.9697 58.042 57.7806 57.5955 55.6138C57.5955 55.4693 57.5955 55.3249 57.4467 55.1804C57.4467 55.036 57.2979 54.7471 57.2979 54.6026C56.7026 52.5803 55.2143 50.558 54.3214 48.8246C53.7261 47.669 53.1307 46.6578 52.9819 45.9356C52.5354 41.8909 56.5538 39.1463 56.4049 35.6795C56.2561 32.9349 55.8096 30.1904 57.1491 28.3125C57.4467 27.8791 57.8932 27.4458 58.4885 27.0124C58.6373 27.0124 58.6373 26.868 58.7861 26.868C59.6791 26.4346 60.8697 26.0013 62.0603 25.7124C65.6322 24.9901 70.2458 25.279 73.9664 26.2902C73.9664 26.2902 86.0213 31.0571 87.212 35.3906C88.4026 39.7241 84.6819 47.8134 83.0448 51.8581C82.896 52.2914 82.7472 52.8692 82.4495 53.3026C81.1101 57.4917 80.5148 63.992 81.2589 66.5921C81.4077 66.7365 82.4495 69.3367 82.896 70.2034Z" fill="#FBC006"/>
<path d="M82.8961 71.6478C82.8961 71.6478 80.9614 73.9591 75.1572 74.1035C75.0083 74.1035 75.0083 74.1035 74.8595 74.1035C74.413 74.1035 73.8177 74.1035 73.2224 73.9591C74.2642 73.8146 75.306 73.5257 75.9013 72.9479C77.2407 71.6479 76.0501 65.0031 75.7525 62.9808C75.4548 61.1029 76.0501 57.3472 74.7107 56.9138L74.413 55.0359C74.413 55.0359 73.3713 56.336 70.8412 55.9027C67.8647 55.3249 66.5252 54.747 65.4835 54.4581C64.144 54.0248 62.5069 53.8803 59.6792 53.1581C56.5539 52.4358 56.2562 51.7136 56.2562 51.7136C55.6609 50.7024 55.0656 49.8357 54.6191 48.969C54.6191 48.969 56.1074 50.7024 58.191 51.1358C60.2745 51.5691 69.3529 53.8803 71.2877 53.5914C73.2224 53.3025 75.306 50.558 75.306 50.558L82.7473 53.447C81.4079 57.6361 80.8126 64.1364 81.5567 66.7365C81.5567 66.7365 82.5985 69.3366 83.045 70.2033C83.1938 70.7811 83.3426 71.2145 82.8961 71.6478Z" fill="#F9A208"/>
<path d="M77.5385 30.6237C77.3897 32.3571 70.6925 36.4018 65.4836 38.1352C65.4836 38.1352 63.2512 32.3571 63.8465 29.0348C63.9954 28.4569 64.293 27.8791 64.8883 27.5902C65.186 27.4458 65.4836 27.3013 65.6324 27.0124C66.2278 26.4346 66.5254 25.7124 66.5254 24.8457C66.5254 24.4123 66.5254 23.979 66.5254 23.6901C66.3766 22.6789 66.2278 21.8122 66.2278 21.8122L75.9015 16.6119C75.9015 16.6119 74.562 25.279 75.7526 26.7235C75.6038 27.0124 77.6874 29.0348 77.5385 30.6237Z" fill="#FFE1BD"/>
<path opacity="0.25" d="M75.0083 25.7123L72.9247 23.4011L72.1806 22.9678C72.9247 22.2455 73.6688 21.5232 74.1153 20.5121L66.3764 23.8345C66.3764 24.2678 66.3764 24.5567 66.3764 24.9901C66.3764 25.8568 66.0787 26.579 65.4834 27.1568C65.4834 27.1568 66.3764 27.0124 66.9717 26.1457C67.4181 25.5679 69.5017 24.4123 71.2876 23.5456C71.2876 24.4123 71.7341 26.4346 73.2224 27.3013C75.6036 28.7458 78.1336 28.4569 78.1336 28.4569L75.0083 25.7123Z" fill="#EDA38C"/>
<path d="M58.6377 6.78923C58.6377 6.78923 57.7448 12.7117 59.233 18.0564C60.8701 23.2567 63.1025 24.8457 64.2931 24.8457C65.4838 24.8457 72.9251 23.8345 75.0086 18.7787C77.0922 13.7229 76.6457 7.94484 75.7528 4.91137C74.8598 1.87789 69.5021 -0.577785 65.7814 2.01464e-05C62.0607 0.722277 59.0842 3.3224 58.6377 6.78923Z" fill="#FFE1BD"/>
<path d="M71.8831 84.7929V86.093L43.0108 74.9702L25.0028 82.1928L25.1516 81.9039H22.6216V82.915C22.6216 83.0595 22.7704 83.2039 22.9192 83.2039L53.2798 94.9045C53.4286 95.0489 53.7263 95.0489 53.8751 94.9045L72.9249 87.2486C73.0737 87.2486 73.2225 87.1041 73.2225 86.8152V85.5152L71.8831 84.7929Z" fill="#4B9CB5"/>
<path d="M72.3295 87.1042C72.4117 87.1042 72.4783 86.9748 72.4783 86.8153C72.4783 86.6557 72.4117 86.5264 72.3295 86.5264C72.2473 86.5264 72.1807 86.6557 72.1807 86.8153C72.1807 86.9748 72.2473 87.1042 72.3295 87.1042Z" fill="#48C8EF"/>
<path d="M71.4364 87.3931C71.5186 87.3931 71.5852 87.2637 71.5852 87.1041C71.5852 86.9446 71.5186 86.8152 71.4364 86.8152C71.3542 86.8152 71.2876 86.9446 71.2876 87.1041C71.2876 87.2637 71.3542 87.3931 71.4364 87.3931Z" fill="#48C8EF"/>
<path d="M70.5434 87.8264C70.6256 87.8264 70.6922 87.6971 70.6922 87.5375C70.6922 87.3779 70.6256 87.2486 70.5434 87.2486C70.4612 87.2486 70.3945 87.3779 70.3945 87.5375C70.3945 87.6971 70.4612 87.8264 70.5434 87.8264Z" fill="#48C8EF"/>
<path d="M43.0109 73.5258L22.7705 81.7595L53.5775 93.7489L73.0738 85.9486C73.3714 85.8041 73.3714 85.5152 73.0738 85.3708L43.0109 73.5258Z" fill="#48C8EF"/>
<path d="M42.8621 75.1147L25.3006 82.0483C25.1518 82.0483 25.1518 82.3373 25.3006 82.3373L52.2381 92.7377H52.387L69.9485 85.8041C70.0973 85.8041 70.0973 85.5152 69.9485 85.5152L42.8621 75.1147C42.8621 74.9702 42.8621 74.9702 42.8621 75.1147Z" fill="#6CE3FF"/>
<path d="M50.303 77.2814L45.094 79.4482C44.9452 79.4482 44.9452 79.5927 45.094 79.5927L53.4283 82.7706C53.5771 82.915 53.8748 82.915 54.0236 82.7706L59.2325 80.6038C59.3814 80.6038 59.3814 80.4594 59.2325 80.4594L50.8983 77.2814C50.7494 77.2814 50.4518 77.2814 50.303 77.2814Z" fill="#85EEFF"/>
<path d="M52.9821 94.1823C53.131 94.1823 53.131 94.1823 53.2798 94.0378L53.5774 93.7489L45.2432 73.3813C45.0943 73.0924 44.9455 72.9479 44.6479 72.8035L14.585 61.1029C14.4361 61.1029 14.4361 61.1029 14.2873 61.1029L13.8408 61.6807L14.8826 62.403L22.7704 81.615L52.5357 93.0267L52.3868 93.1711L52.9821 94.1823Z" fill="#B3E8F4"/>
<path d="M52.982 94.1823L44.7966 74.1035C44.6478 73.6702 44.3501 73.3813 43.9036 73.2368L13.8407 61.6807H13.6919V61.8252L22.0262 82.0484C22.0262 82.1928 22.175 82.3373 22.3238 82.3373L52.6844 94.0378C52.8332 94.1823 52.982 94.1823 52.982 94.1823Z" fill="#5AAFD1"/>
<path opacity="0.17" d="M33.8543 78.7373C34.1658 77.829 33.3435 76.7455 32.0178 76.3172C30.692 75.8889 29.3647 76.278 29.0533 77.1863C28.7418 78.0947 29.564 79.1782 30.8898 79.6065C32.2155 80.0348 33.5428 79.6457 33.8543 78.7373Z" fill="white"/>
<path d="M59.6796 77.7148L58.489 79.1594C57.8937 79.8816 57.0007 80.0261 55.9589 80.1705L54.3218 80.6039H54.173C54.173 80.6039 54.0242 80.6039 54.0242 80.7483L52.0894 82.1928C51.9406 82.1928 51.9406 82.3373 51.9406 82.4817C51.9406 82.4817 50.8988 84.0707 50.75 84.6485C50.75 84.793 51.0477 84.9374 51.3453 84.793C51.643 84.6485 52.8336 83.0595 52.8336 83.0595C52.8336 83.0595 51.9406 84.9374 51.643 85.6597C51.643 85.8041 51.9406 85.9486 52.3871 85.6597C52.8336 85.3708 53.7265 83.3484 53.7265 83.3484C53.7265 83.3484 53.1312 84.9374 53.1312 85.3708C53.1312 85.5152 53.28 85.6597 53.7265 85.5152C54.173 85.3708 54.9171 83.6373 54.9171 83.6373L55.5124 83.204L55.066 83.7818C55.066 83.7818 54.6195 84.793 54.4707 85.2263C54.4707 85.3708 54.7683 85.3708 55.2148 85.0819C55.6613 84.6485 56.2566 83.7818 56.7031 83.6373C57.0007 83.6373 57.1495 83.9262 58.489 83.7818C59.6796 83.6373 60.5725 81.7595 60.5725 81.7595L63.4002 79.0149L59.6796 77.7148Z" fill="#FFE1BD"/>
<path d="M86.0214 45.0688C86.0214 45.0688 81.7055 57.6361 79.6219 61.5363C76.4966 67.3144 66.2275 76.2703 62.3581 79.8816C61.9116 80.1705 61.4651 80.4594 61.0186 80.4594C60.2745 80.4594 59.5304 80.1705 59.2327 79.4483C59.0839 79.3038 59.0839 79.0149 58.9351 78.8705C58.9351 78.4371 58.9351 78.1482 59.0839 78.0037C60.4233 76.1259 67.567 65.5809 70.3947 61.5363C71.7341 59.6584 72.7759 58.3584 73.52 57.4917C73.8177 54.7471 74.5618 46.6578 75.9012 41.3131C76.0501 40.8798 76.0501 40.4464 76.1989 40.1575C77.0919 36.6907 79.0266 34.6684 80.5149 33.6572C82.1519 32.5016 84.2355 32.2127 86.0214 33.3683C86.3191 33.5127 86.6167 33.8016 86.9144 34.0905C87.5097 34.8128 87.9562 35.824 88.2538 37.124C88.105 38.713 87.0632 41.8909 86.0214 45.0688Z" fill="#2EED89"/>
<path d="M86.0214 45.0689C86.0214 45.0689 81.7054 57.6361 79.6218 61.5363C76.4965 67.3144 66.2275 76.2703 62.358 79.8816C61.9115 80.1705 61.465 80.4594 61.0186 80.4594C62.9533 78.5816 70.2458 71.5034 71.8829 69.77C73.8176 67.7477 77.8359 62.9808 79.473 59.6584C80.9613 56.3361 84.6819 45.2133 86.1702 40.7353C87.5096 36.4018 86.7655 34.0906 86.7655 33.9461C87.3608 34.6684 87.8073 35.6795 88.1049 36.9796C88.1049 38.713 87.0631 41.8909 86.0214 45.0689Z" fill="#27E076"/>
<path d="M75.7523 41.3131C75.6035 42.1798 74.4129 54.8915 74.4129 57.7806C74.4129 57.7806 60.2744 76.7037 58.7861 79.0149C58.7861 78.5816 58.7861 78.2926 58.935 78.1482C60.2744 76.2703 67.4181 65.7254 70.2458 61.6807C71.5852 59.8029 72.627 58.5028 73.3711 57.6361C73.6688 54.7471 74.4129 46.8023 75.7523 41.3131Z" fill="#41F28D"/>
<path d="M86.0214 45.0688C86.0214 45.0688 81.7055 57.6361 79.6219 61.5363C76.4966 67.3144 66.2275 76.2703 62.3581 79.8816C61.9116 80.1705 61.4651 80.4594 61.0186 80.4594C60.2745 80.4594 59.5304 80.1705 59.2327 79.4483C59.0839 79.3038 59.0839 79.0149 58.9351 78.8705C58.9351 78.4371 58.9351 78.1482 59.0839 78.0037C60.4233 76.1259 67.567 65.5809 70.3947 61.5363C71.7341 59.6584 72.7759 58.3584 73.52 57.4917C73.8177 54.7471 74.5618 46.6578 75.9012 41.3131C76.0501 40.8798 76.0501 40.4464 76.1989 40.1575C77.0919 36.6907 79.0266 34.6684 80.5149 33.6572C82.1519 32.5016 84.2355 32.2127 86.0214 33.3683C86.3191 33.5127 86.6167 33.8016 86.9144 34.0905C87.5097 34.8128 87.9562 35.824 88.2538 37.124C88.105 38.713 87.0632 41.8909 86.0214 45.0688Z" fill="#FBC006"/>
<path d="M80.3664 29.4681C78.4316 28.4569 76.1992 28.6014 74.2645 27.3013C74.1156 27.1569 73.9668 27.1569 73.818 27.0124C73.6692 26.868 73.5203 26.7235 73.3715 26.7235C70.8415 24.4123 72.1809 19.3565 72.1809 16.6119V16.4675C72.1809 12.7117 72.3297 9.96717 67.5673 10.9783C65.4837 11.4117 63.549 11.2672 62.0607 10.9783C58.9354 10.4005 57.1494 7.07814 58.6377 4.33356C58.6377 4.18911 58.7865 4.04466 58.9354 3.90021C62.2095 -1.15559 69.6509 -0.577782 73.6692 1.73344C76.9433 3.61131 78.2828 6.35588 78.134 11.2672C78.134 15.4563 79.771 15.3119 80.5152 19.0676C80.5152 19.3565 80.664 19.6454 80.664 19.9343C80.664 20.2232 80.8128 20.6566 80.8128 20.9455C81.1105 25.5679 80.3664 29.4681 80.3664 29.4681Z" fill="#2A3049"/>
<path d="M80.3664 29.4681C78.4316 28.457 76.1992 28.6014 74.2645 27.3013C74.1157 27.1569 73.9668 27.1569 73.818 27.0124C73.6692 26.868 73.5204 26.7235 73.3715 26.7235C70.8415 24.4123 72.1809 19.3565 72.1809 16.612L74.4133 15.3119C74.4133 15.3119 74.711 16.7564 74.4133 18.0565C74.1157 19.3565 73.818 19.3565 73.3715 20.801C72.9251 22.2456 73.0739 24.9901 74.5621 26.0013C76.0504 27.0124 78.4316 26.868 79.0269 27.1569C79.0269 27.1569 80.5152 24.2679 80.5152 19.2121C80.5152 19.501 80.664 19.7899 80.664 20.0788C80.664 20.3677 80.8129 20.801 80.8129 21.0899C81.1105 25.5679 80.3664 29.4681 80.3664 29.4681Z" fill="#22293F"/>
<path d="M71.5854 14.5896C71.5854 14.5896 72.3296 13.434 73.5202 13.5784C74.7108 13.7229 74.562 15.4563 74.2643 16.9008C73.8178 18.7787 71.8831 18.4898 71.8831 18.4898" fill="#FFE1BD"/>
<path d="M23.9608 139.251C23.2167 139.973 22.6214 140.118 20.5378 141.273C18.4542 142.429 16.2218 145.174 14.4359 145.751C12.65 146.329 9.22701 146.907 7.58993 146.185C6.69697 145.751 6.39931 145.029 6.25049 144.451C6.99462 145.318 7.73875 145.751 10.12 145.607C12.65 145.463 15.1801 144.74 16.6683 142.862C18.1566 140.985 19.1984 140.118 20.8355 139.396C22.4726 138.818 23.2167 137.951 23.0679 137.229C22.7702 136.507 22.1749 135.929 20.9843 136.218C19.7937 136.507 19.6449 135.784 19.6449 135.784C19.7937 135.929 19.9425 135.929 20.0913 135.929C22.4726 136.073 22.6214 133.617 22.6214 133.617C24.4073 134.484 24.8538 138.529 23.9608 139.251Z" fill="#F9A208"/>
<path d="M59.5307 140.118C59.5307 140.551 58.9354 141.996 57.7448 143.296C56.4053 145.896 55.0659 148.063 54.3218 148.64C53.4288 149.218 51.7917 149.94 50.0058 150.374C47.7734 150.952 44.7969 149.796 44.7969 148.063C47.1781 150.085 52.387 148.207 53.28 147.34C54.1729 146.474 54.3218 145.174 55.6612 143.874C57.0006 142.573 58.4889 140.985 57.7448 139.684C57.2983 138.818 55.5124 138.962 55.0659 139.107C54.6194 139.251 54.3218 138.962 54.3218 138.962C54.4706 138.962 54.4706 138.962 54.6194 138.962C55.0659 138.818 56.8518 137.229 56.5542 136.218C56.5542 136.218 57.0006 136.073 57.2983 136.507C57.7448 136.94 59.5307 138.962 59.5307 140.118Z" fill="#F9A208"/>
<path d="M294.825 226.5C292.444 227.944 291.402 227.366 288.425 228.378C285.598 229.389 280.091 232.711 277.71 233C275.329 233.289 272.501 231.989 271.757 230.111C270.864 228.233 273.245 226.789 275.775 225.489C278.305 224.189 284.407 219.855 284.407 219.855L292.741 219.133C292.295 219.71 291.848 219.999 291.848 219.999L291.104 224.333L294.974 225.055C294.825 225.055 295.42 225.777 294.825 226.5Z" fill="#595959"/>
<path d="M284.258 219.133C284.258 219.133 278.305 223.466 275.626 224.766C273.096 226.066 270.715 227.511 271.608 229.389C272.501 231.267 275.329 232.567 277.561 232.278C279.942 231.989 285.449 228.666 288.276 227.655C291.104 226.644 292.295 227.222 294.676 225.777C295.569 225.2 295.867 221.299 294.23 218.266" fill="#347EE8"/>
<path d="M322.06 198.621C322.06 198.765 322.06 198.909 322.06 198.909C321.614 199.921 321.018 200.354 318.935 201.654C316.851 202.81 315.512 206.132 313.726 207.577C311.94 209.166 309.857 210.466 307.773 210.61C305.689 210.755 303.159 209.31 302.862 207.865C302.564 206.421 303.606 205.843 304.648 205.265C305.689 204.688 308.666 201.943 309.261 201.221C309.857 200.498 311.196 198.332 311.196 198.332L318.042 192.843C319.084 193.276 319.828 193.998 320.423 194.865C320.126 194.865 319.828 194.865 319.828 194.865C319.679 195.009 319.084 196.598 319.084 196.598C319.084 196.598 319.679 197.465 319.828 197.465C319.977 197.465 321.465 197.609 321.465 197.609C321.465 197.609 322.06 198.043 322.06 198.621Z" fill="#595959"/>
<path d="M310.749 197.754C310.749 197.754 309.41 199.921 308.814 200.643C308.219 201.365 305.242 204.11 304.201 204.688C303.159 205.265 302.266 205.843 302.415 207.288C302.712 208.877 305.242 210.177 307.326 210.032C309.41 209.888 311.642 208.588 313.279 206.999C315.065 205.41 316.404 202.232 318.488 201.076C320.572 199.921 321.167 199.343 321.613 198.332C322.06 197.321 320.72 193.709 317.595 192.12" fill="#347EE8"/>
<path d="M318.488 191.976C316.702 198.187 309.856 197.898 309.856 197.898C309.856 197.898 304.052 191.976 298.099 185.187C293.783 180.42 289.467 175.219 286.937 171.175C286.342 170.308 285.895 169.441 285.597 168.719C285.151 167.708 284.556 166.264 284.258 164.53C281.133 152.252 280.091 126.25 280.091 126.25L297.95 134.918L297.801 162.219C297.801 162.219 299.587 163.808 301.671 166.119C303.01 167.564 304.35 169.297 305.689 171.175C308.963 176.375 318.488 191.976 318.488 191.976Z" fill="#3A3D51"/>
<path d="M318.488 191.976C316.702 198.187 309.856 197.898 309.856 197.898C309.856 197.898 304.052 191.976 298.099 185.187L299.141 173.919L300.927 166.263H301.671C303.01 167.708 304.35 169.441 305.689 171.319C308.963 176.375 318.488 191.976 318.488 191.976Z" fill="#242733"/>
<path d="M293.783 143.296C293.783 143.296 291.253 155.574 290.956 155.719C290.658 155.719 288.277 166.119 287.086 171.175C286.491 170.308 286.044 169.441 285.747 168.719C285.3 167.708 284.705 166.264 284.407 164.53C285.598 156.152 289.021 137.518 289.021 137.518H292.295L293.783 143.296Z" fill="#333647"/>
<path d="M312.982 138.529C312.237 142.285 306.88 156.007 303.01 166.264C300.629 172.619 299.141 179.409 298.545 186.198C297.653 198.187 295.867 216.099 295.271 219.566C295.271 219.566 294.676 219.999 293.634 220.577C291.402 221.588 287.532 222.6 283.514 218.844C283.514 218.844 283.365 180.709 283.514 173.919C283.663 167.275 290.211 139.829 290.211 139.829C290.211 139.829 279.942 136.651 279.645 126.25L307.922 129.862L312.833 130.44C312.982 130.44 314.172 132.895 312.982 138.529Z" fill="#3A3D51"/>
<path d="M312.982 138.529C312.238 142.285 306.88 156.007 303.01 166.264C300.629 172.619 299.141 179.409 298.546 186.198C297.653 198.187 295.867 216.099 295.271 219.566C295.271 219.566 294.676 219.999 293.634 220.577C294.23 211.188 296.313 182.153 296.611 176.664C297.057 170.164 301.671 159.619 304.499 150.085C307.326 140.696 306.731 131.017 306.731 131.017L308.07 129.717L312.982 130.295C312.982 130.44 314.172 132.895 312.982 138.529Z" fill="#333647"/>
<path d="M314.47 130.584C314.47 130.584 314.618 131.162 314.767 132.173C314.767 132.462 314.618 132.751 314.47 132.895C313.874 133.329 312.684 134.051 310.154 134.918C307.326 135.929 303.605 136.073 300.926 135.929C299.736 135.784 288.723 133.473 282.025 129.428C280.388 128.417 279.495 126.395 279.793 124.517C280.091 123.073 314.47 130.584 314.47 130.584Z" fill="#2268BC"/>
<path d="M319.679 89.5599C318.786 92.8822 317.744 96.3491 316.702 99.6715C316.256 101.26 315.66 102.849 315.065 104.294C312.981 109.927 310.749 115.417 311.94 121.484C312.386 123.795 313.726 126.828 313.428 129.284C313.279 130.728 312.981 132.029 310.451 133.618C309.856 133.906 309.261 134.195 308.665 134.484L308.368 134.629H308.219C307.624 134.773 307.028 134.918 306.582 135.062C305.242 135.351 303.754 135.351 302.415 135.206C301.819 135.206 301.075 135.062 300.48 134.918C296.462 134.195 288.872 132.317 282.472 128.417C280.388 127.262 279.347 124.373 279.942 120.472C280.24 118.45 280.686 115.706 281.133 113.539C281.579 110.939 281.877 108.194 281.728 105.594C281.728 104.438 281.579 103.138 281.579 101.983C280.388 94.6157 276.073 79.5927 278.156 75.5481C279.496 72.948 281.877 68.6144 281.877 68.6144C281.877 68.6144 287.086 67.1699 289.765 67.0255C290.211 67.0255 290.509 67.0255 290.955 67.0255C293.188 67.4588 295.42 67.7477 297.801 68.3255C299.289 68.6144 300.778 68.9033 302.117 69.3367C302.564 69.4811 303.01 69.6256 303.308 69.77C303.605 69.9145 304.052 70.0589 304.35 70.2034C306.433 70.9256 307.921 71.6479 309.112 72.2257C310.6 72.948 311.493 73.5258 312.535 74.1036C312.535 74.1036 312.684 74.1036 312.684 74.248C313.874 74.9703 315.66 76.1259 317.149 77.5704C318.637 78.8705 319.976 80.315 320.423 81.4706C320.572 81.7595 320.72 82.3373 320.72 83.0595V83.204C321.018 85.0819 320.274 87.5375 319.679 89.5599Z" fill="#347EE8"/>
<path d="M320.72 82.7706L318.339 83.0595C317.744 78.2926 303.605 71.2145 303.605 71.2145L303.308 69.6255C303.605 69.77 304.052 69.9145 304.349 70.0589C306.433 70.7812 307.921 71.5034 309.112 72.0812C310.6 72.8035 311.493 73.3813 312.535 73.9591C312.535 73.9591 312.684 73.9591 312.684 74.1035C313.874 74.8258 315.66 75.9814 317.148 77.4259C318.637 78.726 319.976 80.1705 320.423 81.3261C320.423 81.615 320.571 82.1928 320.72 82.7706Z" fill="#266FC6"/>
<path d="M303.159 62.1141V68.0366C303.159 68.0366 296.908 72.3701 293.634 71.7923C292.146 71.5034 291.402 69.77 291.699 67.1699L294.676 66.5921L303.159 62.1141Z" fill="#F2BA88"/>
<path d="M292.89 71.359L289.318 75.4036C289.318 75.4036 289.169 70.4923 291.551 68.0366C293.932 65.581 293.932 67.7477 293.932 67.7477C293.932 67.7477 291.848 70.2034 292.89 71.359Z" fill="white"/>
<path d="M285.895 54.1693C285.895 54.1693 285.448 59.0806 286.49 63.7031C287.532 68.1811 287.83 69.3367 289.764 70.0589C291.699 70.9256 293.336 70.9256 296.462 68.9033C299.587 66.881 301.373 63.7031 301.373 63.7031C301.373 63.7031 301.819 63.992 303.01 62.6919C304.796 60.8141 305.093 59.8029 305.093 57.2028C305.093 54.6026 304.349 51.2803 302.266 47.8134C300.182 44.3466 293.634 45.5022 290.657 46.9467C287.83 48.3912 286.49 51.1358 285.895 54.1693Z" fill="#FFD1A4"/>
<path d="M283.365 54.3137C286.639 59.9473 294.676 56.1916 294.676 56.1916C295.271 58.6473 297.057 58.7917 297.801 59.2251C298.694 59.6584 298.843 61.9696 298.843 61.9696H299.587C299.587 61.9696 299.587 59.6584 300.034 58.5028C300.48 57.3472 302.712 56.4805 303.754 58.2139C304.796 59.8029 303.605 61.5363 302.861 62.6919C302.712 64.7142 303.01 65.5809 303.01 65.5809C303.01 65.5809 304.201 64.4253 305.094 61.9696C305.987 59.514 306.582 54.4582 305.094 49.1135C304.945 48.5357 304.796 47.9579 304.498 47.5245C301.968 43.4799 294.973 42.6132 292.146 43.6243C289.765 44.3466 283.811 47.0912 282.77 50.7024C282.472 51.8581 282.621 53.1581 283.365 54.3137Z" fill="#2A3049"/>
<path d="M283.067 165.397C283.067 165.686 283.216 165.975 283.216 166.263C283.216 165.83 283.216 165.541 283.067 165.397Z" fill="#3A3A3A"/>
<path d="M303.159 67.4588C303.159 67.4588 303.605 67.8922 303.903 68.7589C304.201 69.3367 304.349 70.2034 304.349 70.2034C304.349 70.2034 301.819 75.2592 294.824 77.5704L294.08 72.0812C293.931 71.7923 300.033 70.9256 303.159 67.4588Z" fill="white"/>
<path d="M283.365 54.3137C286.639 59.9473 294.676 56.1916 294.676 56.1916C295.271 58.6473 297.057 58.7917 297.801 59.2251C298.694 59.6584 298.843 61.9697 298.843 61.9697H299.587C299.587 61.9697 299.587 59.6584 300.034 58.5028C300.48 57.3472 302.712 56.4805 303.754 58.2139C304.796 59.8029 303.605 61.5363 302.861 62.6919C302.712 64.7142 303.01 65.581 303.01 65.581C303.01 65.581 304.201 64.4253 305.094 61.9697C305.987 59.514 306.582 54.4582 305.094 49.1135C304.945 48.5357 304.796 47.9579 304.498 47.5245C303.159 48.6801 299.289 51.7136 295.122 53.447C290.062 55.4694 285.746 55.1805 284.407 54.1693C282.472 52.7248 282.77 50.8469 282.77 50.8469C282.472 51.8581 282.621 53.1581 283.365 54.3137Z" fill="#1C2235"/>
<path d="M311.047 138.818C311.047 138.818 310.898 141.851 310.6 142.429C310.451 142.862 310.154 143.151 310.005 143.44C309.707 144.018 308.07 146.763 307.772 148.496C307.624 149.507 308.368 152.541 308.665 153.118L308.814 153.263C308.814 153.263 308.963 153.263 309.112 153.263C310.154 153.118 310.154 151.963 310.154 151.096C310.154 150.663 310.154 149.363 310.451 149.363C311.642 150.085 311.791 152.974 311.94 154.13C312.237 155.719 311.344 158.752 312.088 158.752C312.386 158.752 314.916 157.741 315.363 156.73C316.256 155.719 316.702 154.563 316.851 153.263C317 151.674 316.702 150.229 316.404 148.64C316.256 147.629 315.958 146.474 315.809 145.174C315.66 144.307 316.107 140.84 316.107 140.84L311.047 138.818Z" fill="#FFD1A4"/>
<path d="M311.94 121.628C312.386 123.939 313.726 126.973 313.428 129.428C313.279 130.873 312.981 132.173 310.451 133.762C309.856 134.051 309.261 134.34 308.665 134.629L308.368 134.773C308.07 125.817 309.261 110.939 309.261 110.939C307.326 104.294 307.773 89.1265 307.773 89.1265C307.773 89.1265 314.47 96.6379 314.47 97.2157C314.47 97.6491 314.916 101.26 315.214 104.294C312.981 109.927 310.749 115.417 311.94 121.628Z" fill="#266FC6"/>
<path d="M323.399 111.805L316.702 142.285C316.702 142.285 316.404 142.429 315.809 142.573C314.767 142.862 312.684 142.862 309.856 141.562C309.856 141.562 310.451 117.872 311.344 110.794C311.344 110.794 306.879 93.7489 307.921 86.093C308.665 81.1817 312.981 79.4483 316.404 80.0261C318.339 80.315 319.976 81.3261 320.72 82.9151C320.72 82.7706 324.739 107.472 323.399 111.805Z" fill="#347EE8"/>
<path d="M277.114 100.249C277.114 100.249 281.43 91.5821 282.621 88.1153L281.579 68.6144C281.579 68.6144 277.561 69.3366 274.138 76.5592C270.566 83.7818 262.976 101.549 263.869 104.438C263.869 104.438 269.227 100.249 277.114 100.249Z" fill="#347EE8"/>
<path d="M301.67 95.6268V118.883C301.67 119.028 301.67 119.317 301.522 119.461L301.224 119.75V119.606L283.216 109.783V84.9374L282.77 84.2152L283.216 83.9263L300.48 93.749C301.224 94.1823 301.67 94.9046 301.67 95.6268Z" fill="#97A2CE"/>
<path d="M282.918 84.2151L300.182 94.0378C300.926 94.4712 301.373 95.1935 301.373 95.9157V119.317C301.373 119.75 300.926 120.039 300.48 119.75L283.067 109.783V84.2151H282.918Z" fill="#B4BBE1"/>
<path d="M277.412 87.2486L282.919 84.2151L283.365 84.5041L283.067 90.4266L277.412 87.2486Z" fill="#97A2CE"/>
<path d="M283.365 84.5041L278.007 87.5376V91.7267L283.365 87.9709V84.5041Z" fill="#8792B2"/>
<path d="M283.365 85.2263L278.603 87.9709L278.007 112.672L294.527 122.206L299.885 119.028C300.331 118.739 300.629 118.306 300.629 117.728V95.9157C300.629 95.3379 300.331 94.7601 299.885 94.4712L283.365 85.2263Z" fill="white"/>
<path d="M295.866 98.9492V122.206C295.866 122.35 295.866 122.639 295.718 122.784L295.42 123.073V122.928L277.71 112.961V88.2598L277.263 87.5376L277.71 87.2487L294.973 97.0713C295.42 97.3602 295.866 98.0825 295.866 98.9492Z" fill="#97A2CE"/>
<path d="M277.114 87.5375L294.378 97.3602C295.122 97.7936 295.569 98.5158 295.569 99.2381V122.639C295.569 123.073 295.122 123.361 294.676 123.073L277.263 113.105V87.5375H277.114Z" fill="#B4BBE1"/>
<path d="M302.415 110.361C302.266 109.639 301.671 109.494 301.671 109.494L298.843 110.794C298.992 110.65 299.587 110.216 299.885 109.928C300.48 109.35 300.183 108.772 299.885 108.627C299.587 108.627 297.057 109.639 296.462 110.072C296.164 110.216 295.867 110.65 295.569 110.939C294.974 111.516 294.527 111.516 294.23 111.516L291.848 110.65L289.318 112.528L289.914 115.417C289.914 115.417 294.527 117.872 296.016 117.583C300.778 116.428 302.117 114.117 302.117 114.117C302.415 113.539 302.564 111.083 302.415 110.361Z" fill="#FFD1A4"/>
<path d="M290.658 116.139C290.658 116.139 290.509 115.706 290.36 115.272C290.211 113.539 290.955 110.794 293.336 110.794C293.336 110.794 284.407 104.294 277.114 100.249C276.668 100.105 272.352 100.105 269.227 101.26C266.101 102.272 264.018 104.438 264.018 104.438C264.762 107.327 290.658 116.139 290.658 116.139Z" fill="#347EE8"/>
<path d="M323.399 111.805L316.702 142.285C316.702 142.285 316.404 142.429 315.809 142.573C316.256 140.407 321.465 113.972 321.613 109.494C321.911 104.872 316.404 80.0261 316.404 80.0261C318.339 80.315 319.976 81.3261 320.72 82.9151C320.72 82.7706 324.739 107.472 323.399 111.805Z" fill="#266FC6"/>
<path d="M113.703 215.955V217.544C113.703 217.833 113.703 218.121 113.554 218.41V218.555C113.554 218.555 113.554 218.699 113.406 218.699C113.406 218.699 113.406 218.844 113.257 218.844C113.108 218.988 113.108 219.133 112.959 219.277L112.81 219.422L112.661 219.566C112.661 219.566 112.513 219.71 112.513 219.855C112.066 220.144 111.62 220.577 110.876 221.01C108.494 222.166 105.964 223.033 104.178 224.044C103.583 224.333 102.095 225.344 102.095 225.344C102.095 225.344 100.904 226.355 99.8624 226.933C98.8206 227.511 96.5882 228.522 94.5047 228.377C92.4211 228.089 91.3793 226.789 91.2305 226.066V224.766L99.2671 221.877L113.703 215.955Z" fill="#3A3A3A"/>
<path d="M99.8625 215.521C99.8625 215.521 102.244 215.377 106.262 214.799C110.28 214.077 112.959 213.932 113.555 215.088C114.001 216.244 114.15 217.544 110.578 219.855C107.006 222.166 104.327 222.455 101.351 224.622C99.2672 226.211 97.3325 226.644 95.2489 226.789C93.1653 226.933 91.6771 226.211 91.2306 225.344C90.1888 223.322 91.2306 219.71 91.2306 219.71L99.8625 215.521Z" fill="#347EE8"/>
<path d="M128.139 225.2V226.644C128.139 227.222 127.842 227.8 127.246 228.233C125.907 228.955 123.079 230.111 119.061 230.689C115.043 231.122 113.703 231.267 113.703 231.267C113.703 231.267 111.917 231.411 110.727 231.555C109.536 231.7 107.452 231.7 106.411 230.833C106.262 230.689 105.964 230.544 105.964 230.4C105.964 230.4 105.815 230.255 105.815 230.111C105.667 229.822 105.667 229.533 105.667 229.389V228.811V228.522L108.643 228.378L110.131 228.233L111.471 228.089L112.661 227.944L128.139 225.2Z" fill="#3A3A3A"/>
<path d="M116.531 221.588C116.531 221.588 118.317 223.177 120.4 223.177C122.484 223.177 126.502 223.177 127.544 223.755C127.991 224.044 128.288 224.477 128.288 225.055C128.288 225.489 128.139 226.066 127.693 226.644C126.949 227.8 121.74 229.389 117.87 229.678C114.001 229.967 113.703 229.967 111.917 230.255C110.131 230.544 108.197 230.689 107.006 230.111C104.922 229.1 104.922 226.211 106.113 224.189C107.155 222.311 116.531 221.588 116.531 221.588Z" fill="#347EE8"/>
<path d="M95.2488 80.7483L94.9512 81.4705L95.3977 83.7817L103.137 87.5375H103.583L104.774 87.393L106.708 87.1041V84.504C106.708 83.2039 107.453 81.9039 108.792 81.3261H108.941C109.387 81.1816 109.834 80.8927 110.28 80.4594L110.429 80.3149C111.917 78.7259 113.257 75.2591 112.959 67.7477C112.81 66.4476 112.513 64.1364 111.917 62.9808C110.727 60.814 108.346 59.5139 103.434 60.814C95.1 62.9808 91.5282 66.7365 91.0817 69.9144C90.6352 72.8034 95.2488 80.7483 95.2488 80.7483Z" fill="#FFD1A4"/>
<path d="M106.858 87.1042V84.504C106.858 83.204 107.602 81.9039 108.941 81.3261C108.495 81.4706 107.304 82.0484 105.667 82.9151C104.923 83.204 105.072 85.3707 105.072 87.3931L106.858 87.1042Z" fill="#F2BA88"/>
<path d="M113.406 97.0713L125.163 90.2821L124.419 96.3491L117.424 103.572L113.406 97.0713Z" fill="#FFD1A4"/>
<path d="M120.103 101.116L134.986 108.483C135.432 108.772 136.027 108.483 136.176 108.05L143.469 85.5152C143.766 84.6485 143.32 83.7818 142.576 83.4929L128.735 76.5592C127.991 76.1259 127.098 76.5592 126.949 77.4259L119.656 99.9603C119.508 100.394 119.656 100.827 120.103 101.116Z" fill="#0A2982"/>
<path d="M120.996 100.394L134.539 107.183C134.837 107.327 135.283 107.183 135.432 106.75L142.278 85.6596C142.575 84.6485 142.575 84.2151 141.534 83.7818L128.586 77.2815C128.288 77.137 127.842 77.2815 127.693 77.5704L120.698 99.6714C120.549 99.9603 120.698 100.249 120.996 100.394Z" fill="#205CE1"/>
<g opacity="0.5">
<path opacity="0.5" d="M140.79 85.2263L140.492 86.093L128.586 80.1705L128.884 79.4482L140.79 85.2263Z" fill="#6CE3FF"/>
<path opacity="0.5" d="M139.897 87.8264L139.599 88.5487L127.693 82.6262L127.842 81.9039L139.897 87.8264Z" fill="#6CE3FF"/>
<path opacity="0.5" d="M139.004 90.4265L138.706 91.2932L126.8 85.3707L127.097 84.504L139.004 90.4265Z" fill="#6CE3FF"/>
<path opacity="0.5" d="M138.111 93.1711L137.962 93.8933L125.907 87.9708L126.204 87.1041L138.111 93.1711Z" fill="#6CE3FF"/>
<path opacity="0.5" d="M137.366 95.7713L137.069 96.4935L125.014 90.571L125.311 89.8488L137.366 95.7713Z" fill="#6CE3FF"/>
<path opacity="0.5" d="M136.474 98.3714L136.176 99.2381L124.27 93.3156L124.419 92.4489L136.474 98.3714Z" fill="#6CE3FF"/>
<path opacity="0.5" d="M135.581 101.116L135.283 101.838L123.377 95.9157L123.675 95.049L135.581 101.116Z" fill="#6CE3FF"/>
<path opacity="0.5" d="M134.688 103.716L134.539 104.438L122.484 98.5158L122.782 97.7936L134.688 103.716Z" fill="#6CE3FF"/>
</g>
<path d="M132.456 104.149L135.134 106.316L135.581 106.75C135.581 106.75 136.176 104.294 137.218 103.283C137.664 102.994 138.706 102.56 139.302 102.416C139.599 102.272 139.897 102.127 140.195 101.838C140.641 101.116 141.534 99.6714 141.087 96.9269C141.087 96.4935 140.939 96.0602 140.79 95.7713C140.492 95.3379 140.046 95.3379 140.046 95.3379C140.046 95.3379 138.26 96.638 137.664 96.9269C137.218 97.2158 136.623 97.7936 136.325 97.3602C136.027 97.0713 137.367 95.4824 137.813 94.7601C138.111 94.0378 137.516 93.1711 137.218 93.46C136.92 93.7489 135.134 96.0602 134.39 97.938C133.497 99.9604 132.456 104.149 132.456 104.149Z" fill="#FFD1A4"/>
<path d="M134.39 104.438L134.985 106.316L135.432 106.75C135.432 106.75 136.027 104.294 137.069 103.283C137.515 102.994 138.557 102.56 139.153 102.416C139.45 102.272 139.748 102.127 140.046 101.838C140.492 101.116 141.385 99.6714 140.938 96.9268C140.938 96.4935 140.79 96.0601 140.641 95.7712C140.641 95.7712 140.641 96.2046 139.897 96.9268C139.153 97.5046 138.111 98.0825 137.515 98.5158C137.069 98.8047 136.176 99.9603 135.73 101.116C135.283 102.416 134.39 104.438 134.39 104.438Z" fill="#F2BA88"/>
<path d="M87.2123 152.685C88.9982 162.508 90.3376 174.642 90.3376 174.642C90.3376 174.642 87.2123 198.909 90.7841 220.144C90.9329 221.155 91.2306 223.322 92.57 224.044C93.3141 224.477 95.2489 224.766 96.886 224.044C96.886 224.044 97.0348 224.044 97.0348 223.9C102.244 221.155 101.648 217.544 102.393 215.232C102.393 205.843 101.351 182.586 103.434 177.531L105.22 157.019L104.476 142.285H86.1705H86.0217C86.0217 142.285 84.3846 146.329 87.2123 152.685Z" fill="#3A3A3A"/>
<path d="M92.8679 152.974C94.6538 158.608 96.8862 173.053 97.3326 176.664C97.3326 176.664 95.5467 204.688 97.035 223.9C102.244 221.155 101.649 217.544 102.393 215.232C102.393 205.843 101.351 182.586 103.435 177.531L105.22 157.019L104.476 142.285H91.6772C91.9749 142.285 91.0819 147.485 92.8679 152.974Z" fill="#2D2D2D"/>
<path d="M94.0586 147.196C94.6539 149.652 95.8445 153.263 98.0769 156.585C98.3746 157.163 98.821 157.596 99.1187 158.174C99.1187 158.463 100.16 161.641 101.202 166.119C102.393 170.597 103.732 176.086 104.625 180.853C104.03 186.776 102.542 207.432 105.518 225.344C105.667 226.644 106.709 227.655 107.899 227.944C108.495 228.089 109.239 228.233 109.983 228.089C110.578 228.089 111.174 227.944 111.62 227.655C114.597 226.355 116.829 221.733 116.829 221.733C116.829 221.733 116.978 191.976 118.466 184.175C118.764 182.731 118.913 181.142 119.061 179.697C119.359 174.931 119.954 166.119 120.103 162.508C120.401 155.43 120.401 149.507 120.252 146.763L105.072 146.907L94.0586 147.196Z" fill="#3A3A3A"/>
<path d="M104.922 147.051C105.071 147.918 105.071 148.496 105.071 148.496C105.071 148.496 105.22 152.252 107.155 157.741C109.09 163.374 111.024 176.52 111.173 181.431C111.322 186.053 108.941 207.721 109.834 228.089C110.429 228.089 111.024 227.944 111.471 227.655C114.447 226.355 116.68 221.733 116.68 221.733C116.68 221.733 116.828 191.976 118.317 184.175C118.614 182.731 118.763 181.142 118.912 179.697C119.21 174.931 119.805 166.119 119.954 162.508C120.251 155.43 120.251 149.507 120.103 146.763L104.922 147.051Z" fill="#2D2D2D"/>
<path d="M84.2358 105.594C86.617 112.816 88.1053 124.661 86.617 129.573C85.1288 134.484 84.2358 141.562 84.2358 141.562C85.5752 145.318 98.5231 153.263 105.816 153.985C106.709 154.13 107.602 153.985 108.494 153.841C114.894 152.974 120.847 147.485 120.847 147.485C120.847 147.485 119.359 127.117 118.615 114.117C118.019 105.449 116.68 100.105 115.936 97.5046C115.489 96.2046 115.192 95.4823 115.192 95.4823C114.448 94.4712 112.215 92.8822 109.239 91.0043C107.304 89.7043 105.071 88.4042 102.839 87.1042C99.8626 85.3707 96.886 83.7818 94.5048 82.6262C94.2072 82.4817 93.9095 82.3373 93.7607 82.1928C92.1236 81.3261 90.7842 80.8927 90.04 80.7483C86.617 80.1705 82.0034 81.9039 80.664 87.8264C79.1757 93.8934 81.8546 98.3714 84.2358 105.594Z" fill="#347EE8"/>
<path opacity="0.75" d="M109.239 129.573C109.685 135.062 108.792 148.929 108.494 153.841C114.894 152.974 120.847 147.485 120.847 147.485C120.847 147.485 119.359 127.117 118.615 114.117C118.019 105.449 116.68 100.105 115.936 97.5047C115.192 96.7824 114.745 96.2046 114.745 96.2046H106.411C106.411 96.2046 102.095 97.0713 103.583 106.75C105.071 116.428 108.643 122.784 109.239 129.573Z" fill="#205CE2"/>
<path d="M93.4631 85.3707C94.8025 87.1042 99.2673 89.5598 101.351 89.9932C103.434 90.4265 105.22 90.1376 106.113 90.1376C107.453 90.1376 108.643 90.8599 108.941 91.0043L107.75 89.1265L106.262 88.2598C106.262 88.2598 104.179 87.5375 103.732 87.2486C103.583 87.1042 103.137 87.1042 102.542 87.1042C101.351 86.9597 99.4161 86.8153 99.1185 86.8153C98.672 86.8153 95.3978 84.6485 95.249 84.504C95.1002 84.504 94.5049 83.3484 94.0584 82.6262C93.7607 82.4817 93.4631 82.3373 93.3143 82.1928C93.1654 82.9151 92.5701 84.0707 93.4631 85.3707Z" fill="#165BD6"/>
<path d="M88.8495 70.0589C89.5937 74.248 93.1655 80.7483 94.9514 81.3261C95.9932 81.7595 97.035 81.9039 97.9279 81.9039C99.4162 82.0484 100.607 81.0372 100.904 79.5927C101.202 78.4371 101.5 76.9926 102.095 75.837C103.435 73.5257 105.072 72.3701 105.816 72.8035C106.709 73.2368 106.56 74.6813 106.56 74.6813H107.155C107.155 74.6813 107.155 74.248 107.304 73.5257C107.304 72.9479 107.453 72.0812 107.453 71.5034C107.453 69.9145 107.899 68.4699 108.941 67.1699C109.536 66.4476 110.281 65.292 111.025 63.5586C111.471 62.403 111.62 61.2474 111.471 60.2362C111.173 57.0583 109.834 55.7582 108.495 54.8915C104.327 52.0025 95.6955 57.3472 92.5702 59.9473C90.7843 61.3918 89.5937 62.9808 88.9984 64.8587C88.5519 66.4476 88.5519 68.181 88.8495 70.0589Z" fill="#713E23"/>
<path d="M94.0586 82.1928L94.8027 81.4706C100.012 86.9597 106.709 87.2486 106.709 87.2486C106.709 87.2486 108.644 89.1265 109.09 91.1488L108.048 90.4266C107.453 90.1377 106.858 89.8488 106.114 89.7043C105.667 89.7043 104.774 89.5599 104.774 89.5599C100.458 89.5599 96.291 86.6708 94.0586 84.793C93.3145 84.2152 93.3145 82.9151 94.0586 82.1928Z" fill="white"/>
<path d="M113.406 219.277C113.406 219.422 113.257 219.566 113.108 219.71C113.257 219.422 113.257 219.277 113.406 219.277Z" fill="#474747"/>
<path d="M112.959 219.855L113.108 219.711C112.959 219.711 112.959 219.855 112.959 219.855C112.81 219.855 112.959 219.855 112.959 219.855Z" fill="#474747"/>
<path d="M136.027 105.45C135.879 105.738 134.688 109.639 133.944 111.95C133.2 114.261 130.967 122.495 129.033 126.395C129.033 126.395 129.033 126.539 128.884 126.539C128.735 126.684 128.735 126.828 128.586 126.973C128.586 126.973 128.586 127.117 128.437 127.117C128.288 127.262 128.288 127.406 128.288 127.551C127.544 128.851 126.354 129.862 124.717 130.006H124.568C122.038 130.006 115.936 119.317 114.15 115.994C114.894 115.561 115.787 114.983 116.829 114.261C118.615 112.961 120.549 111.372 122.038 109.205C122.931 111.228 124.865 114.117 125.61 115.994C125.61 115.994 125.758 115.706 125.907 115.272C126.502 113.828 128.14 110.505 129.479 108.627C131.414 106.027 132.753 102.416 132.902 101.983C132.902 102.127 133.051 102.416 133.944 102.56C134.241 102.56 134.539 102.849 134.837 103.138C135.134 103.427 135.432 103.861 135.73 104.294C135.73 104.294 135.73 104.438 135.879 104.438C135.879 105.016 136.027 105.161 136.027 105.45Z" fill="#FFD1A4"/>
<path d="M136.027 105.449C135.879 105.738 134.688 109.639 133.944 111.95C133.2 114.261 130.967 122.495 129.033 126.395C129.033 126.395 129.033 126.539 128.884 126.539C128.735 126.684 128.735 126.828 128.586 126.973C128.586 126.973 128.586 127.117 128.437 127.117C128.288 127.262 128.288 127.406 128.288 127.551C127.544 128.851 126.354 129.862 124.717 130.006H124.568C122.038 130.006 115.936 119.317 114.15 115.994C114.894 115.561 115.787 114.983 116.829 114.261C118.615 117.439 123.824 126.828 125.907 126.828C126.8 126.828 128.735 120.906 130.223 117.294C131.711 113.683 134.986 103.283 134.986 103.283C135.283 103.572 135.581 104.005 135.879 104.438C135.879 104.438 135.879 104.583 136.027 104.583C135.879 105.016 136.027 105.161 136.027 105.449Z" fill="#F2BA88"/>
<path d="M123.228 110.072C120.996 113.25 116.978 115.994 114.894 117.294C114.299 117.728 113.703 118.017 113.406 118.161C112.959 117.439 106.262 107.327 105.667 103.861C105.518 103.572 105.518 103.427 105.518 103.138C104.625 98.5158 106.113 96.7824 106.262 96.4935L106.411 96.3491C109.387 92.8822 114.299 92.7378 117.126 97.938C118.317 100.249 120.996 105.016 123.228 110.072Z" fill="#347EE8"/>
<path d="M88.8495 70.0589C89.5937 74.248 93.1655 80.7483 94.9514 81.3261C95.9932 81.7595 97.035 81.9039 97.9279 81.9039C99.4162 82.0484 100.607 81.0372 100.904 79.5927C101.202 78.4371 101.5 76.9926 102.095 75.837C103.435 73.5257 105.072 72.3701 105.816 72.8035C106.709 73.2368 106.56 74.6813 106.56 74.6813H107.155C107.155 74.6813 107.155 74.248 107.304 73.5257C107.304 72.9479 107.453 72.0812 107.453 71.5034C107.453 69.9144 107.899 68.4699 108.941 67.1699C109.536 66.4476 110.281 65.292 111.025 63.5586C111.471 62.403 111.62 61.2474 111.471 60.2362C111.025 61.2474 107.602 69.0477 98.0768 70.9256C88.1054 72.9479 88.9984 65.292 88.9984 64.8587C88.5519 66.4476 88.5519 68.181 88.8495 70.0589Z" fill="#442312"/>
<path d="M115.341 143.296C114.448 144.74 111.62 146.907 108.197 146.329C107.602 146.185 107.006 146.185 106.262 146.04H106.113C98.9697 144.451 89.5936 139.54 87.0636 136.218C83.9382 131.884 87.0636 108.05 91.826 99.0936C93.1654 96.7824 95.5467 95.9157 97.0349 96.2046C97.0349 96.2046 106.56 99.6715 109.536 103.283C112.662 106.605 117.871 138.673 115.341 143.296Z" fill="#FBC006"/>
<path d="M115.341 143.296C114.448 144.74 111.62 146.907 108.197 146.329C107.602 146.185 107.006 146.185 106.262 146.04C108.495 146.618 110.132 144.162 110.132 142.429C110.132 140.696 107.899 114.261 105.369 106.894C104.625 104.727 94.9515 100.394 91.8262 99.0936C93.1656 96.7824 95.5468 95.9157 97.0351 96.2046C97.0351 96.2046 106.56 99.6715 109.536 103.283C112.662 106.605 117.871 138.673 115.341 143.296Z" fill="#FFD04D"/>
<path d="M100.904 97.7936C100.904 97.7936 102.839 94.0378 105.22 92.5933C107.601 91.1488 109.834 91.4377 109.834 91.4377L113.406 93.8934C113.406 93.8934 111.322 93.8934 109.09 95.4823C107.75 96.4935 105.518 100.105 105.518 100.105L100.904 97.7936Z" fill="#FFD04D"/>
<path d="M119.359 125.962C119.359 125.962 118.764 130.151 114.597 132.895L115.192 138.095C115.192 138.095 117.424 136.795 119.657 132.173L119.359 125.962Z" fill="#FFD04D"/>
</g>
<defs>
<linearGradient id="paint0_linear" x1="0" y1="127.186" x2="327.074" y2="127.186" gradientUnits="userSpaceOnUse">
<stop stop-color="#B4BBE1" stop-opacity="0.1"/>
<stop offset="1" stop-color="#B4BBE1" stop-opacity="0.3"/>
</linearGradient>
<linearGradient id="paint1_linear" x1="219.698" y1="85.2855" x2="297.755" y2="85.2855" gradientUnits="userSpaceOnUse">
<stop stop-color="#CED5EF"/>
<stop offset="0.3714" stop-color="#D5DDF1"/>
<stop offset="0.8656" stop-color="#DAE3F2"/>
</linearGradient>
<linearGradient id="paint2_linear" x1="207.015" y1="92.3568" x2="285.044" y2="92.3568" gradientUnits="userSpaceOnUse">
<stop stop-color="#CED5EF"/>
<stop offset="0.3714" stop-color="#D5DDF1"/>
<stop offset="0.8656" stop-color="#DAE3F2"/>
</linearGradient>
<linearGradient id="paint3_linear" x1="194.331" y1="99.4215" x2="272.361" y2="99.4215" gradientUnits="userSpaceOnUse">
<stop stop-color="#CED5EF"/>
<stop offset="0.3714" stop-color="#D5DDF1"/>
<stop offset="0.8656" stop-color="#DAE3F2"/>
</linearGradient>
<linearGradient id="paint4_linear" x1="181.788" y1="106.425" x2="259.803" y2="106.425" gradientUnits="userSpaceOnUse">
<stop stop-color="#CED5EF"/>
<stop offset="0.3714" stop-color="#D5DDF1"/>
<stop offset="0.8656" stop-color="#DAE3F2"/>
</linearGradient>
<linearGradient id="paint5_linear" x1="169.076" y1="113.51" x2="247.078" y2="113.51" gradientUnits="userSpaceOnUse">
<stop stop-color="#CED5EF"/>
<stop offset="0.3714" stop-color="#D5DDF1"/>
<stop offset="0.8656" stop-color="#DAE3F2"/>
</linearGradient>
<linearGradient id="paint6_linear" x1="155.638" y1="120.995" x2="233.64" y2="120.995" gradientUnits="userSpaceOnUse">
<stop stop-color="#CED5EF"/>
<stop offset="0.3714" stop-color="#D5DDF1"/>
<stop offset="0.8656" stop-color="#DAE3F2"/>
</linearGradient>
<linearGradient id="paint7_linear" x1="142.829" y1="128.148" x2="220.802" y2="128.148" gradientUnits="userSpaceOnUse">
<stop stop-color="#CED5EF"/>
<stop offset="0.3714" stop-color="#D5DDF1"/>
<stop offset="0.8656" stop-color="#DAE3F2"/>
</linearGradient>
<linearGradient id="paint8_linear" x1="130.02" y1="135.267" x2="208.022" y2="135.267" gradientUnits="userSpaceOnUse">
<stop stop-color="#CED5EF"/>
<stop offset="0.3714" stop-color="#D5DDF1"/>
<stop offset="0.8656" stop-color="#DAE3F2"/>
</linearGradient>
<linearGradient id="paint9_linear" x1="121.725" y1="46.2533" x2="210.334" y2="46.2533" gradientUnits="userSpaceOnUse">
<stop stop-color="#CED5EF"/>
<stop offset="0.3714" stop-color="#D5DDF1"/>
<stop offset="0.8656" stop-color="#DAE3F2"/>
</linearGradient>
<linearGradient id="paint10_linear" x1="109.155" y1="53.2701" x2="197.722" y2="53.2701" gradientUnits="userSpaceOnUse">
<stop stop-color="#CED5EF"/>
<stop offset="0.3714" stop-color="#D5DDF1"/>
<stop offset="0.8656" stop-color="#DAE3F2"/>
</linearGradient>
<linearGradient id="paint11_linear" x1="96.3358" y1="60.4008" x2="184.959" y2="60.4008" gradientUnits="userSpaceOnUse">
<stop stop-color="#CED5EF"/>
<stop offset="0.3714" stop-color="#D5DDF1"/>
<stop offset="0.8656" stop-color="#DAE3F2"/>
</linearGradient>
<linearGradient id="paint12_linear" x1="83.6878" y1="67.4623" x2="172.269" y2="67.4623" gradientUnits="userSpaceOnUse">
<stop stop-color="#CED5EF"/>
<stop offset="0.3714" stop-color="#D5DDF1"/>
<stop offset="0.8656" stop-color="#DAE3F2"/>
</linearGradient>
<linearGradient id="paint13_linear" x1="70.9323" y1="74.5655" x2="159.52" y2="74.5655" gradientUnits="userSpaceOnUse">
<stop stop-color="#CED5EF"/>
<stop offset="0.3714" stop-color="#D5DDF1"/>
<stop offset="0.8656" stop-color="#DAE3F2"/>
</linearGradient>
<linearGradient id="paint14_linear" x1="58.2839" y1="81.627" x2="146.858" y2="81.627" gradientUnits="userSpaceOnUse">
<stop stop-color="#CED5EF"/>
<stop offset="0.3714" stop-color="#D5DDF1"/>
<stop offset="0.8656" stop-color="#DAE3F2"/>
</linearGradient>
<linearGradient id="paint15_linear" x1="45.5647" y1="88.7093" x2="134.16" y2="88.7093" gradientUnits="userSpaceOnUse">
<stop stop-color="#CED5EF"/>
<stop offset="0.3714" stop-color="#D5DDF1"/>
<stop offset="0.8656" stop-color="#DAE3F2"/>
</linearGradient>
<linearGradient id="paint16_linear" x1="32.8235" y1="95.809" x2="121.397" y2="95.809" gradientUnits="userSpaceOnUse">
<stop stop-color="#CED5EF"/>
<stop offset="0.3714" stop-color="#D5DDF1"/>
<stop offset="0.8656" stop-color="#DAE3F2"/>
</linearGradient>
<clipPath id="clip0">
<rect width="327.12" height="233" fill="white"/>
</clipPath>
</defs>
</svg>
