<svg width="77" height="76" viewBox="0 0 77 76" fill="none" xmlns="http://www.w3.org/2000/svg">
    <path d="M76.1156 9.31265C76.07 9.26978 67.0551 0.672438 67.0551 0.672438C66.7105 0.341765 66.354 0 65.6885 0H29.3954C28.3354 0 27.4728 0.862357 27.4728 1.92243V7.82582L14.6814 10.0185C13.6561 10.1984 12.9666 11.1796 13.1442 12.2039L13.7934 15.9891C9.63571 17.3882 5.36709 18.8305 1.24628 20.3107C0.272547 20.6667 -0.238452 21.7494 0.10901 22.729L8.30612 45.5158C8.47101 45.9743 8.90316 46.2598 9.3641 46.2598C9.49031 46.2598 9.61892 46.2384 9.74454 46.1931C10.3288 45.983 10.6321 45.339 10.4219 44.7547L2.34607 22.305C6.2284 20.915 10.2489 19.5545 14.1782 18.232L18.0412 40.7532L22.4862 66.6902C22.6468 67.6058 23.4516 68.2572 24.3599 68.2572C24.4628 68.2572 24.5671 68.2488 24.6717 68.2316L36.7108 66.1656L46.1184 64.553L31.9695 69.6385L20.8119 73.6502L12.1466 49.5484C11.9366 48.9641 11.2928 48.6609 10.7084 48.8709C10.1241 49.0809 9.82083 49.7249 10.0308 50.3092L18.819 74.7535C19.1001 75.5221 19.8283 76 20.598 76C20.8107 76 21.0267 75.9634 21.2371 75.8865L32.7299 71.7545L58.826 62.3748L63.8115 61.5203H74.8245C75.8846 61.5203 76.7471 60.6559 76.7471 59.5935V10.5794C76.7473 9.90654 76.3821 9.56328 76.1156 9.31265ZM73.137 9.57887H67.5114L67.372 9.57946C67.1026 9.58126 66.472 9.58591 66.312 9.42702C66.2752 9.3903 66.232 9.26768 66.232 9.03998L66.219 2.9819L73.137 9.57887ZM74.4988 59.2715H29.7213V37.3615C29.7213 36.7406 29.2179 36.2373 28.5971 36.2373C27.9762 36.2373 27.4728 36.7406 27.4728 37.3615V59.5932C27.4728 60.6555 28.3354 61.52 29.3954 61.52H50.5027L36.3307 63.9492L24.6414 65.9553L20.2573 40.3731L15.4202 12.173L27.4727 10.107V32.1451C27.4727 32.766 27.976 33.2693 28.5969 33.2693C29.2178 33.2693 29.7212 32.766 29.7212 32.1451V2.2483H63.9689L63.9836 9.04253C63.9836 9.86607 64.234 10.5322 64.7279 11.0227C65.4869 11.7762 66.5597 11.8287 67.2257 11.8287C67.2829 11.8287 67.3372 11.8282 67.388 11.8279L74.4988 11.8275V59.2715Z" fill="#00FFD1"/>
    <path d="M35.1406 17.4563C35.1406 18.0771 35.644 18.5805 36.2649 18.5805H68.4082C69.029 18.5805 69.5324 18.0771 69.5324 17.4563C69.5324 16.8354 69.029 16.332 68.4082 16.332H36.2649C35.644 16.332 35.1406 16.8354 35.1406 17.4563Z" fill="#00FFD1"/>
    <path d="M68.4082 24.3184H36.2649C35.644 24.3184 35.1406 24.8217 35.1406 25.4426C35.1406 26.0635 35.644 26.5668 36.2649 26.5668H68.4082C69.029 26.5668 69.5324 26.0635 69.5324 25.4426C69.5324 24.8217 69.029 24.3184 68.4082 24.3184Z" fill="#00FFD1"/>
    <path d="M68.4082 32.3066H36.2649C35.644 32.3066 35.1406 32.81 35.1406 33.4309C35.1406 34.0517 35.644 34.5551 36.2649 34.5551H68.4082C69.029 34.5551 69.5324 34.0517 69.5324 33.4309C69.5324 32.81 69.029 32.3066 68.4082 32.3066Z" fill="#00FFD1"/>
    <path d="M68.4082 40.293H36.2649C35.644 40.293 35.1406 40.7963 35.1406 41.4172C35.1406 42.0381 35.644 42.5414 36.2649 42.5414H68.4082C69.029 42.5414 69.5324 42.0381 69.5324 41.4172C69.5324 40.7963 69.029 40.293 68.4082 40.293Z" fill="#00FFD1"/>
    <path d="M68.4082 48.2793H36.2649C35.644 48.2793 35.1406 48.7827 35.1406 49.4035C35.1406 50.0244 35.644 50.5278 36.2649 50.5278H68.4082C69.029 50.5278 69.5324 50.0244 69.5324 49.4035C69.5324 48.7827 69.029 48.2793 68.4082 48.2793Z" fill="#00FFD1"/>
</svg>
