<svg width="80" height="80" viewBox="0 0 80 80" fill="none" xmlns="http://www.w3.org/2000/svg">
<g clip-path="url(#clip0)">
<path d="M79.957 50.0659C79.7578 45.4823 78.9606 40.4005 77.7649 35.6176C76.5692 31.034 75.0745 26.7493 73.2809 23.4611C66.3059 11.2049 58.733 13.0982 49.6654 15.4896C46.7758 16.1871 43.6868 16.9843 40.4982 17.2832H39.5018C36.3132 16.9843 33.2243 16.1871 30.3346 15.4896C21.2671 13.1978 13.6942 11.2049 6.71911 23.5607C4.92553 26.849 3.33123 31.1336 2.23516 35.7172C1.03943 40.5001 0.242286 45.5819 0.0429994 50.1655C-0.156288 55.2474 0.34193 58.9342 1.43801 61.5249C2.53409 63.9163 4.12838 65.411 6.22089 66.0088C8.11412 66.5071 10.3063 66.3078 12.5981 65.3113C16.4842 63.717 20.9681 60.3292 25.3524 56.2438C28.4414 53.2545 34.2207 51.7598 40 51.7598C45.7793 51.7598 51.5587 53.2545 54.6476 56.2438C59.0319 60.3292 63.5159 63.717 67.402 65.3113C69.6938 66.2081 71.8859 66.5071 73.7791 66.0088C75.772 65.411 77.466 64.016 78.562 61.4252C79.6581 58.9342 80.1563 55.2474 79.957 50.0659ZM75.1742 60.0302C74.5763 61.4252 73.7791 62.2224 72.7827 62.5213C71.6866 62.8203 70.2916 62.621 68.6973 62.0231C65.2098 60.6281 61.1244 57.5392 57.1387 53.7527C53.3522 49.9662 46.6761 48.073 40 48.073C33.3239 48.073 26.6478 49.9662 22.7617 53.5534C18.6763 57.3399 14.5909 60.5285 11.2031 61.8238C9.60877 62.4217 8.21376 62.7206 7.11768 62.322C6.12125 62.0231 5.3241 61.226 4.72624 59.831C3.92909 57.9377 3.53052 54.8488 3.72981 50.2652C3.92909 45.9805 4.6266 41.098 5.82232 36.5144C6.9184 32.2297 8.31341 28.244 10.0073 25.2547C15.4877 15.39 21.8649 16.9843 29.4378 18.9771C32.5268 19.7743 35.7154 20.5714 39.2029 20.8704C39.3025 20.8704 39.3025 20.8704 39.4022 20.8704H40.4982C40.5979 20.8704 40.5979 20.8704 40.6975 20.8704C44.2847 20.5714 47.4733 19.7743 50.5622 18.9771C58.1351 17.0839 64.5123 15.39 69.9927 25.2547C71.6866 28.244 73.0816 32.1301 74.1777 36.5144C75.2738 41.098 76.0709 45.8809 76.2702 50.2652C76.4695 54.8488 76.0709 57.9377 75.1742 60.0302Z" fill="#004FFE"/>
<path d="M30.8312 30.6357C29.8348 29.7389 28.6391 29.0414 27.2441 28.9417C27.1444 27.6464 26.5466 26.351 25.6498 25.4542L25.5501 25.3546C24.4541 24.2585 23.0591 23.6606 21.4648 23.6606C19.8705 23.6606 18.3758 24.3581 17.3794 25.3546C16.4826 26.2514 15.7851 27.5467 15.6854 28.9417C14.2904 29.0414 13.0947 29.6393 12.0983 30.536L11.9986 30.6357C10.9025 31.7318 10.3047 33.1268 10.3047 34.7211C10.3047 36.3154 11.0022 37.81 11.9986 38.8065C12.9951 39.8029 14.1908 40.4007 15.6854 40.5004C15.7851 41.8954 16.3829 43.1908 17.3794 44.0876C18.4755 45.1836 19.8705 45.7815 21.4648 45.7815C23.0591 45.7815 24.5537 45.084 25.5501 44.0876C26.4469 43.0911 27.1444 41.8954 27.2441 40.5004C28.6391 40.4007 29.9345 39.8029 30.8312 38.8065C31.9273 37.7104 32.5252 36.3154 32.5252 34.7211C32.5252 33.1268 31.8277 31.6321 30.8312 30.6357ZM28.3402 36.2157C27.9416 36.6143 27.4434 36.8136 26.8455 36.8136H25.4505C24.4541 36.8136 23.5573 37.6107 23.5573 38.7068V40.0022C23.5573 40.6 23.358 41.0983 22.9594 41.4968C22.5608 41.8954 22.0626 42.0947 21.4648 42.0947C20.8669 42.0947 20.3687 41.8954 19.9701 41.4968C19.5715 41.0983 19.3722 40.6 19.3722 40.0022V38.6072C19.3722 37.6107 18.5751 36.7139 17.479 36.7139H16.084C15.4861 36.7139 14.9879 36.5147 14.5894 36.1161C14.2904 35.8172 13.9915 35.3189 13.9915 34.7211C13.9915 34.1232 14.1908 33.625 14.5894 33.2264C14.5894 33.2264 14.5894 33.2264 14.689 33.1268C15.0876 32.8278 15.5858 32.6286 16.084 32.6286H17.479C18.4755 32.6286 19.3722 31.8314 19.3722 30.7353V29.3403C19.3722 28.7425 19.5715 28.2442 19.9701 27.8457C20.3687 27.4471 20.8669 27.2478 21.4648 27.2478C22.0626 27.2478 22.5608 27.4471 22.9594 27.8457C22.9594 27.8457 22.9594 27.8457 23.0591 27.9453C23.358 28.3439 23.5573 28.8421 23.5573 29.3403V30.7353C23.5573 31.7318 24.3544 32.6286 25.4505 32.6286H26.8455C27.4434 32.6286 27.9416 32.8278 28.3402 33.2264C28.7387 33.625 28.938 34.1232 28.938 34.7211C28.938 35.3189 28.7387 35.8171 28.3402 36.2157Z" fill="#004FFE"/>
<path d="M57.3391 31.1337C59.2652 31.1337 60.8266 29.5723 60.8266 27.6462C60.8266 25.7201 59.2652 24.1587 57.3391 24.1587C55.413 24.1587 53.8516 25.7201 53.8516 27.6462C53.8516 29.5723 55.413 31.1337 57.3391 31.1337Z" fill="#004FFE"/>
<path d="M57.3391 45.2831C59.2652 45.2831 60.8266 43.7217 60.8266 41.7956C60.8266 39.8695 59.2652 38.3081 57.3391 38.3081C55.413 38.3081 53.8516 39.8695 53.8516 41.7956C53.8516 43.7217 55.413 45.2831 57.3391 45.2831Z" fill="#004FFE"/>
<path d="M50.2649 38.2084C52.191 38.2084 53.7524 36.647 53.7524 34.7209C53.7524 32.7948 52.191 31.2334 50.2649 31.2334C48.3388 31.2334 46.7773 32.7948 46.7773 34.7209C46.7773 36.647 48.3388 38.2084 50.2649 38.2084Z" fill="#004FFE"/>
<path d="M64.4133 38.2084C66.3394 38.2084 67.9008 36.647 67.9008 34.7209C67.9008 32.7948 66.3394 31.2334 64.4133 31.2334C62.4872 31.2334 60.9258 32.7948 60.9258 34.7209C60.9258 36.647 62.4872 38.2084 64.4133 38.2084Z" fill="#004FFE"/>
</g>
<defs>
<clipPath id="clip0">
<rect width="80" height="80" fill="white"/>
</clipPath>
</defs>
</svg>
