<svg width="71" height="71" viewBox="0 0 71 71" fill="none" xmlns="http://www.w3.org/2000/svg">
    <path d="M65.675 71H5.325C2.38915 71 0 68.6108 0 65.675V5.325C0 2.38915 2.38915 0 5.325 0H65.675C68.6108 0 71 2.38915 71 5.325V65.675C71 68.6108 68.6108 71 65.675 71ZM5.325 2.36667C3.69437 2.36667 2.36667 3.69318 2.36667 5.325V65.675C2.36667 67.3068 3.69437 68.6333 5.325 68.6333H65.675C67.3068 68.6333 68.6333 67.3068 68.6333 65.675V5.325C68.6333 3.69318 67.3056 2.36667 65.675 2.36667H5.325Z" fill="#561BFB"/>
    <path d="M10.651 11.8334H5.91771C5.26451 11.8334 4.73438 11.3044 4.73438 10.6501V5.91673C4.73438 5.26235 5.26451 4.7334 5.91771 4.7334H10.651C11.3042 4.7334 11.8344 5.26235 11.8344 5.91673V10.6501C11.8344 11.3044 11.3042 11.8334 10.651 11.8334ZM7.10104 9.46673H9.46771V7.10006H7.10104V9.46673Z" fill="#561BFB"/>
    <path d="M20.1159 11.8334H15.3826C14.7294 11.8334 14.1992 11.3044 14.1992 10.6501V5.91673C14.1992 5.26235 14.7294 4.7334 15.3826 4.7334H20.1159C20.7691 4.7334 21.2992 5.26235 21.2992 5.91673V10.6501C21.2992 11.3044 20.7691 11.8334 20.1159 11.8334ZM16.5659 9.46673H18.9325V7.10006H16.5659V9.46673Z" fill="#561BFB"/>
    <path d="M29.5846 11.8334H24.8513C24.1981 11.8334 23.668 11.3044 23.668 10.6501V5.91673C23.668 5.26235 24.1981 4.7334 24.8513 4.7334H29.5846C30.2378 4.7334 30.768 5.26235 30.768 5.91673V10.6501C30.768 11.3044 30.2378 11.8334 29.5846 11.8334ZM26.0346 9.46673H28.4013V7.10006H26.0346V9.46673Z" fill="#561BFB"/>
    <path d="M69.8167 16.5667H1.18333C0.530133 16.5667 0 16.0377 0 15.3833V5.325C0 2.38915 2.38915 0 5.325 0H65.675C68.6109 0 71 2.38915 71 5.325V15.3833C71 16.0377 70.4699 16.5667 69.8167 16.5667ZM2.36667 14.2H68.6333V5.325C68.6333 3.69318 67.3056 2.36667 65.675 2.36667H5.325C3.69437 2.36667 2.36667 3.69318 2.36667 5.325V14.2Z" fill="#561BFB"/>
    <path d="M33.1346 40.2333H7.1013C6.4481 40.2333 5.91797 39.7043 5.91797 39.0499V22.4833C5.91797 21.8289 6.4481 21.2999 7.1013 21.2999H33.1346C33.7878 21.2999 34.318 21.8289 34.318 22.4833V39.0499C34.318 39.7043 33.7878 40.2333 33.1346 40.2333ZM8.28464 37.8666H31.9513V23.6666H8.28464V37.8666Z" fill="#561BFB"/>
    <path d="M57.9839 29.5833H39.0505C38.3973 29.5833 37.8672 29.0544 37.8672 28.4C37.8672 27.7456 38.3973 27.2167 39.0505 27.2167H57.9839C58.6371 27.2167 59.1672 27.7456 59.1672 28.4C59.1672 29.0544 58.6371 29.5833 57.9839 29.5833Z" fill="#561BFB"/>
    <path d="M63.9005 24.8501H39.0505C38.3973 24.8501 37.8672 24.3211 37.8672 23.6667C37.8672 23.0123 38.3973 22.4834 39.0505 22.4834H63.9005C64.5537 22.4834 65.0839 23.0123 65.0839 23.6667C65.0839 24.3211 64.5537 24.8501 63.9005 24.8501Z" fill="#561BFB"/>
    <path d="M50.8839 40.2334H39.0505C38.3973 40.2334 37.8672 39.7045 37.8672 39.0501V34.3168C37.8672 33.6624 38.3973 33.1334 39.0505 33.1334H50.8839C51.5371 33.1334 52.0672 33.6624 52.0672 34.3168V39.0501C52.0672 39.7045 51.5371 40.2334 50.8839 40.2334ZM40.2339 37.8668H49.7005V35.5001H40.2339V37.8668Z" fill="#561BFB"/>
    <path d="M11.8321 35.5C11.5291 35.5 11.2262 35.384 10.9954 35.1532C10.5328 34.6906 10.5328 33.9427 10.9954 33.48L15.7288 28.7467C16.1903 28.284 16.9405 28.284 17.402 28.7467C17.8647 29.2094 17.8647 29.9572 17.402 30.4199L12.6687 35.1532C12.4379 35.384 12.135 35.5 11.8321 35.5Z" fill="#561BFB"/>
    <path d="M21.2998 35.5C20.9968 35.5 20.6939 35.384 20.4632 35.1532L15.7298 30.4199C15.2671 29.9572 15.2671 29.2094 15.7298 28.7467C16.1913 28.284 16.9416 28.284 17.4031 28.7467L22.1364 33.48C22.5991 33.9427 22.5991 34.6906 22.1364 35.1532C21.9056 35.384 21.6027 35.5 21.2998 35.5Z" fill="#561BFB"/>
    <path d="M18.9336 33.1332C18.6307 33.1332 18.3278 33.0173 18.097 32.7865C17.6343 32.3238 17.6343 31.576 18.097 31.1133L22.8303 26.38C23.2918 25.9173 24.0421 25.9173 24.5036 26.38C24.9663 26.8427 24.9663 27.5905 24.5036 28.0532L19.7702 32.7865C19.5395 33.0173 19.2366 33.1332 18.9336 33.1332Z" fill="#561BFB"/>
    <path d="M28.4013 33.1332C28.0984 33.1332 27.7955 33.0173 27.5647 32.7865L22.8314 28.0532C22.3687 27.5905 22.3687 26.8427 22.8314 26.38C23.2929 25.9173 24.0431 25.9173 24.5046 26.38L29.238 31.1133C29.7006 31.576 29.7006 32.3238 29.238 32.7865C29.0072 33.0173 28.7043 33.1332 28.4013 33.1332Z" fill="#561BFB"/>
    <path d="M33.1346 63.9H7.1013C6.4481 63.9 5.91797 63.3711 5.91797 62.7167V46.15C5.91797 45.4956 6.4481 44.9667 7.1013 44.9667H33.1346C33.7878 44.9667 34.318 45.4956 34.318 46.15V62.7167C34.318 63.3711 33.7878 63.9 33.1346 63.9ZM8.28464 61.5333H31.9513V47.3333H8.28464V61.5333Z" fill="#561BFB"/>
    <path d="M57.9839 53.25H39.0505C38.3973 53.25 37.8672 52.721 37.8672 52.0666C37.8672 51.4122 38.3973 50.8833 39.0505 50.8833H57.9839C58.6371 50.8833 59.1672 51.4122 59.1672 52.0666C59.1672 52.721 58.6371 53.25 57.9839 53.25Z" fill="#561BFB"/>
    <path d="M63.9005 48.5167H39.0505C38.3973 48.5167 37.8672 47.9877 37.8672 47.3334C37.8672 46.679 38.3973 46.15 39.0505 46.15H63.9005C64.5537 46.15 65.0839 46.679 65.0839 47.3334C65.0839 47.9877 64.5537 48.5167 63.9005 48.5167Z" fill="#561BFB"/>
    <path d="M50.8839 63.8999H39.0505C38.3973 63.8999 37.8672 63.371 37.8672 62.7166V57.9833C37.8672 57.3289 38.3973 56.7999 39.0505 56.7999H50.8839C51.5371 56.7999 52.0672 57.3289 52.0672 57.9833V62.7166C52.0672 63.371 51.5371 63.8999 50.8839 63.8999ZM40.2339 61.5333H49.7005V59.1666H40.2339V61.5333Z" fill="#561BFB"/>
    <path d="M11.8321 59.1667C11.5291 59.1667 11.2262 59.0507 10.9954 58.82C10.5328 58.3573 10.5328 57.6094 10.9954 57.1467L15.7288 52.4134C16.1903 51.9507 16.9405 51.9507 17.402 52.4134C17.8647 52.8761 17.8647 53.624 17.402 54.0867L12.6687 58.82C12.4379 59.0507 12.135 59.1667 11.8321 59.1667Z" fill="#561BFB"/>
    <path d="M21.2998 59.1667C20.9968 59.1667 20.6939 59.0507 20.4632 58.82L15.7298 54.0867C15.2671 53.624 15.2671 52.8761 15.7298 52.4134C16.1913 51.9507 16.9416 51.9507 17.4031 52.4134L22.1364 57.1467C22.5991 57.6094 22.5991 58.3573 22.1364 58.82C21.9056 59.0507 21.6027 59.1667 21.2998 59.1667Z" fill="#561BFB"/>
    <path d="M18.9336 56.7999C18.6307 56.7999 18.3278 56.6839 18.097 56.4532C17.6343 55.9905 17.6343 55.2426 18.097 54.7799L22.8303 50.0466C23.2918 49.5839 24.0421 49.5839 24.5036 50.0466C24.9663 50.5093 24.9663 51.2571 24.5036 51.7198L19.7702 56.4532C19.5395 56.6839 19.2366 56.7999 18.9336 56.7999Z" fill="#561BFB"/>
    <path d="M28.4013 56.7999C28.0984 56.7999 27.7955 56.6839 27.5647 56.4532L22.8314 51.7198C22.3687 51.2571 22.3687 50.5093 22.8314 50.0466C23.2929 49.5839 24.0431 49.5839 24.5046 50.0466L29.238 54.7799C29.7006 55.2426 29.7006 55.9905 29.238 56.4532C29.0072 56.6839 28.7043 56.7999 28.4013 56.7999Z" fill="#561BFB"/>
</svg>
