<svg width="76" height="76" viewBox="0 0 76 76" fill="none" xmlns="http://www.w3.org/2000/svg">
    <path d="M67.2731 3.05931C63.1872 -1.01977 56.5706 -1.01977 52.4847 3.05931L48.7828 6.78179L9.37699 46.1704L9.29324 46.2548C9.27296 46.2751 9.27296 46.2967 9.25137 46.2967C9.2095 46.3595 9.14669 46.4217 9.10547 46.4845C9.10547 46.5055 9.08388 46.5055 9.08388 46.5264C9.04201 46.5892 9.02172 46.6311 8.9792 46.6939C8.95891 46.7148 8.95891 46.7351 8.93798 46.7567C8.91704 46.8195 8.8961 46.8614 8.87451 46.9242C8.87451 46.9445 8.85423 46.9445 8.85423 46.9661L0.111263 73.2597C-0.14521 74.0082 0.0497619 74.8372 0.613086 75.3928C1.00892 75.7834 1.5428 76.0019 2.09827 76C2.3253 75.9961 2.55037 75.9607 2.76759 75.8953L29.0384 67.1306C29.0586 67.1306 29.0586 67.1306 29.0802 67.1103C29.1463 67.0906 29.2098 67.0625 29.268 67.0259C29.2844 67.0239 29.2988 67.0167 29.3105 67.0056C29.3727 66.9637 29.4564 66.9212 29.5193 66.8793C29.5814 66.8381 29.6449 66.7753 29.7077 66.7334C29.7286 66.7118 29.7489 66.7118 29.7489 66.6915C29.7705 66.6706 29.8124 66.6503 29.8333 66.6077L72.941 23.496C77.0197 19.4097 77.0197 12.7925 72.941 8.70683L67.2731 3.05931ZM28.369 62.2146L13.8116 47.6564L50.2471 11.2175L64.8045 25.7757L28.369 62.2146ZM11.7611 51.5261L24.4788 64.2443L5.38204 70.6031L11.7611 51.5261ZM69.9922 20.5672L67.7749 22.8057L53.2168 8.24618L55.4557 6.00838C57.9046 3.56119 61.8741 3.56119 64.3236 6.00838L70.0125 11.6978C72.4431 14.158 72.4339 18.1187 69.9922 20.5672Z" fill="#00C2FF"/>
</svg>
