<svg width="70" height="71" viewBox="0 0 70 71" fill="none" xmlns="http://www.w3.org/2000/svg">
    <path d="M22.8457 17.75H24.859C25.6247 17.75 26.2457 17.1292 26.2457 16.3633C26.2457 15.5974 25.6247 14.9766 24.859 14.9766H22.8457C22.6702 14.9766 22.5273 14.8337 22.5273 14.6582V13.3125H24.3291C25.0949 13.3125 25.7158 12.6917 25.7158 11.9258C25.7158 11.1599 25.0949 10.5391 24.3291 10.5391H22.5273V9.19339C22.5273 9.01783 22.6702 8.875 22.8457 8.875H24.859C25.6247 8.875 26.2457 8.25417 26.2457 7.48828C26.2457 6.7224 25.6247 6.10156 24.859 6.10156H22.8457C21.1409 6.10156 19.7539 7.48856 19.7539 9.19339V14.6582C19.7539 16.363 21.1409 17.75 22.8457 17.75Z" fill="#36FC19"/>
    <path d="M32.2048 14.9766H29.8242C29.0585 14.9766 28.4375 15.5974 28.4375 16.3633C28.4375 17.1292 29.0585 17.75 29.8242 17.75H32.2048C34.1929 17.75 35.8103 16.1325 35.8103 14.1445C35.8103 12.1565 34.1929 10.5391 32.2048 10.5391H32.043C31.5841 10.5391 31.2109 10.1659 31.2109 9.70703C31.2109 9.24817 31.5841 8.875 32.043 8.875H33.6394C34.4051 8.875 35.0261 8.25417 35.0261 7.48828C35.0261 6.7224 34.4051 6.10156 33.6394 6.10156H32.043C30.0548 6.10156 28.4375 7.71903 28.4375 9.70703C28.4375 11.695 30.0548 13.3125 32.043 13.3125H32.2048C32.6637 13.3125 33.0368 13.6857 33.0368 14.1445C33.0368 14.6034 32.6637 14.9766 32.2048 14.9766Z" fill="#36FC19"/>
    <path d="M16.9512 6.10156H12.375C11.6093 6.10156 10.9883 6.7224 10.9883 7.48828C10.9883 8.25417 11.6093 8.875 12.375 8.875H13.2764V16.3633C13.2764 17.1292 13.8973 17.75 14.6631 17.75C15.4288 17.75 16.0498 17.1292 16.0498 16.3633V8.875H16.9512C17.7169 8.875 18.3379 8.25417 18.3379 7.48828C18.3379 6.7224 17.7171 6.10156 16.9512 6.10156Z" fill="#36FC19"/>
    <path d="M39.0703 8.875H39.9717V16.3633C39.9717 17.1292 40.5927 17.75 41.3584 17.75C42.1241 17.75 42.7451 17.1292 42.7451 16.3633V8.875H43.6465C44.4122 8.875 45.0332 8.25417 45.0332 7.48828C45.0332 6.7224 44.4122 6.10156 43.6465 6.10156H39.0703C38.3046 6.10156 37.6836 6.7224 37.6836 7.48828C37.6836 8.25417 38.3046 8.875 39.0703 8.875Z" fill="#36FC19"/>
    <path d="M15.7344 23.2969H10.1875C9.42175 23.2969 8.80078 23.9177 8.80078 24.6836V30.2305C8.80078 30.9964 9.42175 31.6172 10.1875 31.6172H15.7344C16.5001 31.6172 17.1211 30.9964 17.1211 30.2305V24.6836C17.1211 23.9177 16.5003 23.2969 15.7344 23.2969ZM14.3477 28.8438H11.5742V26.0703H14.3477V28.8438Z" fill="#36FC19"/>
    <path d="M43.9062 30.2305C43.9062 30.5952 44.0545 30.953 44.3126 31.2109C44.5706 31.4688 44.9283 31.6172 45.293 31.6172C45.6577 31.6172 46.0154 31.4688 46.2732 31.2109C46.5326 30.953 46.6797 30.5952 46.6797 30.2305C46.6797 29.8658 46.5326 29.508 46.2732 29.2501C46.0154 28.9921 45.6589 28.8438 45.293 28.8438C44.9283 28.8438 44.5705 28.9921 44.3126 29.2501C44.0545 29.508 43.9062 29.8658 43.9062 30.2305Z" fill="#36FC19"/>
    <path d="M39.7471 28.8438H21.2344C20.4686 28.8438 19.8477 29.4646 19.8477 30.2305C19.8477 30.9964 20.4686 31.6172 21.2344 31.6172H39.7471C40.5128 31.6172 41.1338 30.9964 41.1338 30.2305C41.1338 29.4646 40.513 28.8438 39.7471 28.8438Z" fill="#36FC19"/>
    <path d="M15.7344 37.7188H10.1875C9.42175 37.7188 8.80078 38.3396 8.80078 39.1055V44.6523C8.80078 45.4182 9.42175 46.0391 10.1875 46.0391H15.7344C16.5001 46.0391 17.1211 45.4182 17.1211 44.6523V39.1055C17.1211 38.3396 16.5003 37.7188 15.7344 37.7188ZM14.3477 43.2656H11.5742V40.4922H14.3477V43.2656Z" fill="#36FC19"/>
    <path d="M15.7344 52.1406H10.1875C9.42175 52.1406 8.80078 52.7615 8.80078 53.5273V59.0742C8.80078 59.8401 9.42175 60.4609 10.1875 60.4609H15.7344C16.5001 60.4609 17.1211 59.8401 17.1211 59.0742V53.5273C17.1211 52.7615 16.5003 52.1406 15.7344 52.1406ZM14.3477 57.6875H11.5742V54.9141H14.3477V57.6875Z" fill="#36FC19"/>
    <path d="M33.1428 57.6875H21.2344C20.4686 57.6875 19.8477 58.3083 19.8477 59.0742C19.8477 59.8401 20.4686 60.4609 21.2344 60.4609H33.1428C33.9086 60.4609 34.5295 59.8401 34.5295 59.0742C34.5295 58.3083 33.9087 57.6875 33.1428 57.6875Z" fill="#36FC19"/>
    <path d="M66.4237 11.0369C65.2046 10.333 63.7844 10.1462 62.425 10.5105C61.0653 10.8748 59.929 11.7468 59.2254 12.9658L57.8907 15.2775V15.2776V15.2778L56.0234 18.512V4.71484C56.0234 2.11502 53.9084 0 51.3086 0H4.71484C2.11502 0 0 2.11502 0 4.71484V66.2852C0 68.885 2.11502 71 4.71484 71H51.3086C53.9084 71 56.0234 68.885 56.0234 66.2852V39.7988C56.0234 39.7359 56.0178 39.6744 56.0096 39.6137L67.0178 20.547L68.3525 18.2352C69.8052 15.7189 68.94 12.4898 66.4237 11.0369ZM63.1429 13.1894C63.7868 13.0166 64.4595 13.1053 65.037 13.4387C66.229 14.1269 66.6388 15.6565 65.9505 16.8485L65.3092 17.9594L60.9858 15.4633L61.6272 14.3524C61.9607 13.775 62.4987 13.3619 63.1429 13.1894ZM46.264 50.9467L41.9406 48.4506L59.5991 17.8651L63.9225 20.3612L46.264 50.9467ZM41.1456 51.1939L44.2857 53.0069L40.512 55.9174L41.1456 51.1939ZM53.2499 66.2852C53.2499 67.3557 52.379 68.2266 51.3085 68.2266H4.71471C3.64416 68.2266 2.7733 67.3557 2.7733 66.2852V4.71484C2.7733 3.6443 3.64416 2.77344 4.71471 2.77344H51.3085C52.379 2.77344 53.2499 3.6443 53.2499 4.71484V23.2969C53.2499 23.3027 53.2507 23.3082 53.2507 23.3139L41.7318 43.2656H21.234C20.4682 43.2656 19.8473 43.8865 19.8473 44.6523C19.8473 45.4182 20.4682 46.0391 21.234 46.0391H40.1305L38.8455 48.2647C38.7551 48.4214 38.6961 48.5944 38.672 48.7737L37.3149 58.8898C37.2402 59.447 37.5091 59.994 37.996 60.2751C38.2115 60.3995 38.4507 60.4609 38.6892 60.4609C38.9893 60.4609 39.2881 60.3636 39.5362 60.1722L47.6184 53.9389C47.7617 53.8284 47.8819 53.6908 47.9724 53.5343L53.2499 44.3936V66.2852Z" fill="#36FC19"/>
</svg>
