<svg width="80" height="80" viewBox="0 0 80 80" fill="none" xmlns="http://www.w3.org/2000/svg">
    <g clip-path="url(#clip0)">
        <path d="M79.957 50.0664C79.7578 45.4828 78.9606 40.401 77.7649 35.6181C76.5692 31.0345 75.0745 26.7498 73.2809 23.4616C66.3059 11.2054 58.733 13.0987 49.6654 15.4901C46.7758 16.1876 43.6868 16.9847 40.4982 17.2837H39.5018C36.3132 16.9847 33.2243 16.1876 30.3346 15.4901C21.2671 13.1983 13.6942 11.2054 6.71911 23.5612C4.92553 26.8495 3.33123 31.1341 2.23516 35.7177C1.03943 40.5006 0.242286 45.5824 0.0429994 50.166C-0.156288 55.2478 0.34193 58.9347 1.43801 61.5254C2.53409 63.9168 4.12838 65.4115 6.22089 66.0093C8.11412 66.5075 10.3063 66.3083 12.5981 65.3118C16.4842 63.7175 20.9681 60.3297 25.3524 56.2443C28.4414 53.255 34.2207 51.7603 40 51.7603C45.7793 51.7603 51.5587 53.255 54.6476 56.2443C59.0319 60.3297 63.5159 63.7175 67.402 65.3118C69.6938 66.2086 71.8859 66.5075 73.7791 66.0093C75.772 65.4115 77.466 64.0165 78.562 61.4257C79.6581 58.9346 80.1563 55.2478 79.957 50.0664ZM75.1742 60.0307C74.5763 61.4257 73.7791 62.2229 72.7827 62.5218C71.6866 62.8207 70.2916 62.6215 68.6973 62.0236C65.2098 60.6286 61.1244 57.5396 57.1387 53.7532C53.3522 49.9667 46.6761 48.0735 40 48.0735C33.3239 48.0735 26.6478 49.9667 22.7617 53.5539C18.6763 57.3404 14.5909 60.5289 11.2031 61.8243C9.60877 62.4222 8.21376 62.7211 7.11768 62.3225C6.12125 62.0236 5.3241 61.2264 4.72624 59.8314C3.92909 57.9382 3.53052 54.8493 3.72981 50.2657C3.92909 45.981 4.6266 41.0985 5.82232 36.5149C6.9184 32.2302 8.31341 28.2445 10.0073 25.2552C15.4877 15.3905 21.8649 16.9847 29.4378 18.9776C32.5268 19.7748 35.7154 20.5719 39.2029 20.8708C39.3025 20.8708 39.3025 20.8708 39.4022 20.8708H40.4982C40.5979 20.8708 40.5979 20.8708 40.6975 20.8708C44.2847 20.5719 47.4733 19.7748 50.5622 18.9776C58.1351 17.0844 64.5123 15.3905 69.9927 25.2552C71.6866 28.2445 73.0816 32.1306 74.1777 36.5149C75.2738 41.0985 76.0709 45.8814 76.2702 50.2657C76.4695 54.8493 76.0709 57.9382 75.1742 60.0307Z" fill="#004FFE"/>
        <path d="M30.8312 30.6352C29.8348 29.7384 28.6391 29.0409 27.2441 28.9413C27.1444 27.6459 26.5466 26.3505 25.6498 25.4537L25.5501 25.3541C24.4541 24.258 23.0591 23.6602 21.4648 23.6602C19.8705 23.6602 18.3758 24.3577 17.3794 25.3541C16.4826 26.2509 15.7851 27.5463 15.6854 28.9413C14.2904 29.0409 13.0947 29.6388 12.0983 30.5356L11.9986 30.6352C10.9025 31.7313 10.3047 33.1263 10.3047 34.7206C10.3047 36.3149 11.0022 37.8095 11.9986 38.806C12.9951 39.8024 14.1908 40.4003 15.6854 40.4999C15.7851 41.8949 16.3829 43.1903 17.3794 44.0871C18.4755 45.1831 19.8705 45.781 21.4648 45.781C23.0591 45.781 24.5537 45.0835 25.5501 44.0871C26.4469 43.0906 27.1444 41.8949 27.2441 40.4999C28.6391 40.4003 29.9345 39.8024 30.8312 38.806C31.9273 37.7099 32.5252 36.3149 32.5252 34.7206C32.5252 33.1263 31.8277 31.6316 30.8312 30.6352ZM28.3402 36.2152C27.9416 36.6138 27.4434 36.8131 26.8455 36.8131H25.4505C24.4541 36.8131 23.5573 37.6102 23.5573 38.7063V40.0017C23.5573 40.5995 23.358 41.0978 22.9594 41.4963C22.5608 41.8949 22.0626 42.0942 21.4648 42.0942C20.8669 42.0942 20.3687 41.8949 19.9701 41.4963C19.5715 41.0978 19.3722 40.5995 19.3722 40.0017V38.6067C19.3722 37.6102 18.5751 36.7135 17.479 36.7135H16.084C15.4861 36.7135 14.9879 36.5142 14.5894 36.1156C14.2904 35.8167 13.9915 35.3184 13.9915 34.7206C13.9915 34.1227 14.1908 33.6245 14.5894 33.2259C14.5894 33.2259 14.5894 33.2259 14.689 33.1263C15.0876 32.8274 15.5858 32.6281 16.084 32.6281H17.479C18.4755 32.6281 19.3722 31.8309 19.3722 30.7348V29.3398C19.3722 28.742 19.5715 28.2438 19.9701 27.8452C20.3687 27.4466 20.8669 27.2473 21.4648 27.2473C22.0626 27.2473 22.5608 27.4466 22.9594 27.8452C22.9594 27.8452 22.9594 27.8452 23.0591 27.9448C23.358 28.3434 23.5573 28.8416 23.5573 29.3398V30.7348C23.5573 31.7313 24.3544 32.6281 25.4505 32.6281H26.8455C27.4434 32.6281 27.9416 32.8274 28.3402 33.2259C28.7387 33.6245 28.938 34.1227 28.938 34.7206C28.938 35.3184 28.7387 35.8167 28.3402 36.2152Z" fill="#004FFE"/>
        <path d="M57.3391 31.1332C59.2652 31.1332 60.8266 29.5718 60.8266 27.6457C60.8266 25.7196 59.2652 24.1582 57.3391 24.1582C55.413 24.1582 53.8516 25.7196 53.8516 27.6457C53.8516 29.5718 55.413 31.1332 57.3391 31.1332Z" fill="#004FFE"/>
        <path d="M57.3391 45.2836C59.2652 45.2836 60.8266 43.7222 60.8266 41.7961C60.8266 39.87 59.2652 38.3086 57.3391 38.3086C55.413 38.3086 53.8516 39.87 53.8516 41.7961C53.8516 43.7222 55.413 45.2836 57.3391 45.2836Z" fill="#004FFE"/>
        <path d="M50.2649 38.2094C52.191 38.2094 53.7524 36.648 53.7524 34.7219C53.7524 32.7958 52.191 31.2344 50.2649 31.2344C48.3388 31.2344 46.7773 32.7958 46.7773 34.7219C46.7773 36.648 48.3388 38.2094 50.2649 38.2094Z" fill="#004FFE"/>
        <path d="M64.4133 38.2094C66.3394 38.2094 67.9008 36.648 67.9008 34.7219C67.9008 32.7958 66.3394 31.2344 64.4133 31.2344C62.4872 31.2344 60.9258 32.7958 60.9258 34.7219C60.9258 36.648 62.4872 38.2094 64.4133 38.2094Z" fill="#004FFE"/>
    </g>
    <defs>
        <clipPath id="clip0">
            <rect width="80" height="80" fill="white"/>
        </clipPath>
    </defs>
</svg>
