<svg width="76" height="76" viewBox="0 0 76 76" fill="none" xmlns="http://www.w3.org/2000/svg">
    <g clip-path="url(#clip0)">
        <path d="M72.4441 64.3287L67.4194 62.8946V60.7051C68.9199 59.3578 69.871 57.4102 69.871 55.2381V52.7864C69.871 48.7302 66.5724 45.4316 62.5161 45.4316V22.1413H64.9677V14.7864H53.9355V10.3968L58.807 8.65742L38 1.22656L17.193 8.65742L22.0645 10.3968V14.7864H11.0323V22.1413H13.4839V45.4316C9.42758 45.4316 6.12903 48.7302 6.12903 52.7864V55.2381C6.12903 57.409 7.08011 59.3566 8.58065 60.7051V62.8958L3.55592 64.3299C1.46223 64.9266 0 66.8659 0 69.0445V74.851H76V69.0445C76 66.8659 74.5378 64.9266 72.4441 64.3287ZM64.9677 63.4805C64.6637 63.9498 63.8191 65.0445 62.5161 65.0445C61.2131 65.0445 60.3686 63.9498 60.0645 63.4805V62.1637C60.833 62.4373 61.6554 62.5929 62.5161 62.5929C63.3768 62.5929 64.1992 62.4361 64.9677 62.1637V63.4805ZM67.4194 52.7864V55.2381C67.4194 57.9423 65.2203 60.1413 62.5161 60.1413C59.8119 60.1413 57.6129 57.9423 57.6129 55.2381V52.7864C57.6129 50.0823 59.8119 47.8832 62.5161 47.8832C65.2203 47.8832 67.4194 50.0823 67.4194 52.7864ZM36.7742 15.6495V20.4408L29.4194 17.9892V13.0238L36.7742 15.6495ZM39.2258 15.6495L51.4839 11.2718V16.354L39.2258 20.4408V15.6495ZM38 3.8302L51.5156 8.65742L38 13.4846L31.5202 11.1701L38.4304 8.57901L37.5685 6.28301L27.9434 9.8928L24.4844 8.65742L38 3.8302ZM26.9677 12.1475V17.1716L24.5161 16.354V11.2718L26.9677 12.1475ZM15.9355 22.1413H18.3871V27.0445H20.8387V19.6897H13.4839V17.2381H22.0645V18.1221L26.9677 19.7561V24.8185C25.5444 25.3261 24.5161 26.674 24.5161 28.2703V34.3994H31.871V28.2703C31.871 26.674 30.8427 25.3261 29.4194 24.8185V20.5725L38 23.4323L53.9355 18.1209V17.2381H62.5161V19.6897H55.1613V27.0445H57.6129V22.1413H60.0645V45.8608C57.2119 46.8729 55.1613 49.5909 55.1613 52.7864V55.2381C55.1613 57.409 56.1124 59.3566 57.6129 60.7051V62.8958L52.5882 64.3299C51.6592 64.5956 50.8662 65.1355 50.2581 65.8328C49.65 65.1355 48.8569 64.5956 47.928 64.3299L42.9032 62.8946V60.7051C44.4038 59.3578 45.3548 57.4102 45.3548 55.2381V52.7864C45.3548 48.7302 42.0563 45.4316 38 45.4316C33.9437 45.4316 30.6452 48.7302 30.6452 52.7864V55.2381C30.6452 57.409 31.5962 59.3566 33.0968 60.7051V62.8958L28.072 64.3299C27.1431 64.5956 26.35 65.1355 25.7419 65.8328C25.1338 65.1355 24.3408 64.5956 23.4118 64.3299L18.3871 62.8946V60.7051C19.8876 59.3578 20.8387 57.4102 20.8387 55.2381V52.7864C20.8387 49.5909 18.7881 46.8729 15.9355 45.8608V22.1413ZM29.4194 28.2703V31.9477H26.9677V28.2703C26.9677 27.5934 27.5172 27.0445 28.1935 27.0445C28.8699 27.0445 29.4194 27.5934 29.4194 28.2703ZM49.0323 72.3994H26.9677V69.0445C26.9677 67.9546 27.6998 66.9862 28.7454 66.6869L33.7953 65.2444C34.5063 66.171 35.8902 67.4961 38 67.4961C40.1098 67.4961 41.4937 66.171 42.2047 65.2432L47.2546 66.6857C48.3014 66.985 49.0323 67.9534 49.0323 69.0434V72.3994ZM38 60.1413C35.2958 60.1413 33.0968 57.9423 33.0968 55.2381V52.7864C33.0968 50.0823 35.2958 47.8832 38 47.8832C40.7042 47.8832 42.9032 50.0823 42.9032 52.7864V55.2381C42.9032 57.9423 40.7042 60.1413 38 60.1413ZM38 62.5929C38.8607 62.5929 39.6831 62.4361 40.4516 62.1637V63.4805C40.1476 63.9498 39.303 65.0445 38 65.0445C36.697 65.0445 35.8524 63.9498 35.5484 63.4805V62.1637C36.3169 62.4361 37.1393 62.5929 38 62.5929ZM8.58065 52.7864C8.58065 50.0823 10.7797 47.8832 13.4839 47.8832C16.1881 47.8832 18.3871 50.0823 18.3871 52.7864V55.2381C18.3871 57.9423 16.1881 60.1413 13.4839 60.1413C10.7797 60.1413 8.58065 57.9423 8.58065 55.2381V52.7864ZM13.4839 62.5929C14.3446 62.5929 15.167 62.4361 15.9355 62.1637V63.4805C15.6314 63.9498 14.7869 65.0445 13.4839 65.0445C12.1809 65.0445 11.3363 63.9498 11.0323 63.4805V62.1637C11.8008 62.4361 12.6232 62.5929 13.4839 62.5929ZM2.45161 69.0445C2.45161 67.9546 3.18363 66.9862 4.22927 66.6869L9.27914 65.2444C9.9902 66.171 11.374 67.4961 13.4839 67.4961C15.5937 67.4961 16.9775 66.171 17.6886 65.2432L22.7385 66.6857C23.7853 66.985 24.5161 67.9534 24.5161 69.0434V72.3994H2.45161V69.0445ZM73.5484 72.3994H51.4839V69.0445C51.4839 67.9546 52.2159 66.9862 53.2615 66.6869L58.3114 65.2444C59.0225 66.171 60.4063 67.4961 62.5161 67.4961C64.626 67.4961 66.0098 66.171 66.7209 65.2432L71.7707 66.6857C72.8176 66.985 73.5484 67.9534 73.5484 69.0434V72.3994Z" fill="#FF00C7"/>
        <path d="M55.1602 29.4961H57.6118V31.9477H55.1602V29.4961Z" fill="#FF00C7"/>
        <path d="M55.1602 34.3984H57.6118V36.85H55.1602V34.3984Z" fill="#FF00C7"/>
        <path d="M50.2578 20.9141H52.7094V41.7528H50.2578V20.9141Z" fill="#FF00C7"/>
        <path d="M45.3555 23.3652H47.8071V25.8169H45.3555V23.3652Z" fill="#FF00C7"/>
        <path d="M45.3555 28.2695H47.8071V30.7211H45.3555V28.2695Z" fill="#FF00C7"/>
        <path d="M45.3555 33.1719H47.8071V46.6557H45.3555V33.1719Z" fill="#FF00C7"/>
        <path d="M18.3867 29.4961H20.8383V31.9477H18.3867V29.4961Z" fill="#FF00C7"/>
        <path d="M18.3867 34.3984H20.8383V36.85H18.3867V34.3984Z" fill="#FF00C7"/>
        <path d="M28.1953 36.8496H30.6469V46.6561H28.1953V36.8496Z" fill="#FF00C7"/>
        <path d="M23.2891 36.8496H25.7407V41.7528H23.2891V36.8496Z" fill="#FF00C7"/>
        <path d="M34.7256 44.5095L37.9996 43.7189L41.2736 44.5107L41.531 41.1529L43.2961 38.2835L40.1813 37.0015L37.9996 34.4355L35.8179 37.0003L32.7031 38.2824L34.4682 41.1517L34.7256 44.5095ZM37.2999 39.0425L37.9996 38.2189L38.6993 39.0425L39.697 39.4531L39.1308 40.3736L39.0488 41.4498L37.9996 41.1948L36.9504 41.4498L36.8684 40.3736L36.3021 39.4531L37.2999 39.0425Z" fill="#FF00C7"/>
        <path d="M36.7734 25.8184H39.225V28.27H36.7734V25.8184Z" fill="#FF00C7"/>
        <path d="M36.7734 30.7207H39.225V33.1723H36.7734V30.7207Z" fill="#FF00C7"/>
    </g>
    <defs>
        <clipPath id="clip0">
            <rect width="76" height="76" fill="white"/>
        </clipPath>
    </defs>
</svg>
