<svg width="69" height="71" viewBox="0 0 69 71" fill="none" xmlns="http://www.w3.org/2000/svg">
<path d="M67.4299 57.9332C68.184 57.9332 68.7953 57.3219 68.7953 56.5678V1.36538C68.7953 0.61135 68.184 0 67.4299 0H20.2013C19.4473 0 18.8359 0.61135 18.8359 1.36538V63.0807C18.8344 64.0668 19.0198 65.0445 19.3821 65.9617C19.3785 66.0163 19.3785 66.0709 19.3821 66.1255C20.6036 69.0872 23.4969 71.0143 26.7006 70.9999H67.4299C68.184 70.9999 68.7953 70.3886 68.7953 69.6345C68.7953 68.8805 68.184 68.2692 67.4299 68.2692H26.7006C25.4372 68.2516 24.2255 67.7648 23.3008 66.9038H53.1753C53.9294 66.9038 54.5407 66.2924 54.5407 65.5384C54.5407 64.7844 53.9294 64.173 53.1753 64.173H21.6896C21.6096 63.8144 21.5684 63.4482 21.5667 63.0807C21.5672 62.7274 21.6037 62.3751 21.6759 62.0294H44.1365C44.8905 62.0294 45.5019 61.418 45.5019 60.664C45.5019 59.9099 44.8905 59.2986 44.1365 59.2986H23.2461C24.1853 58.4259 25.4185 57.9385 26.7006 57.9332H67.4299ZM21.5531 57.0867V2.73077H66.0645V55.1615H26.7006C24.8086 55.1608 22.9804 55.8447 21.5531 57.0867Z" fill="#FBC006"/>
<path d="M16.3205 7.63213C16.321 6.15018 15.1394 4.9384 13.658 4.90137H2.73492C1.22668 4.90137 0.00415015 6.1239 0.00415015 7.63213V11.6191C0.00909967 12.0998 0.14103 12.5709 0.386458 12.9844C0.14103 13.398 0.00909967 13.869 0.00415015 14.3498V45.0573C0.00193141 45.1027 0.00193141 45.1483 0.00415015 45.1938C-0.0115518 45.3138 0.0176333 45.4353 0.0860732 45.5352C0.0860732 45.5352 0.0860732 45.6034 0.0860732 45.6444L6.91299 60.0628C7.23385 60.7454 8.04711 61.0384 8.72946 60.7177C9.01739 60.5824 9.24899 60.3508 9.38433 60.0628L16.2113 45.6444C16.2113 45.6444 16.2113 45.5761 16.2113 45.5352C16.2478 45.3759 16.2841 45.2165 16.3205 45.0573V14.3498C16.3155 13.869 16.1836 13.398 15.9382 12.9844C16.1836 12.5709 16.3155 12.0998 16.3205 11.6191V7.63213ZM2.73492 14.3498H6.83107V42.3948L2.73492 43.3506V14.3498ZM8.19645 56.308L7.40453 54.615L8.19645 53.864L8.98837 54.615L8.19645 56.308ZM10.2172 52.0344L9.13857 50.9967C8.61119 50.4939 7.78171 50.4939 7.25434 50.9967L6.17568 52.0344L3.33569 46.0131L8.2101 44.8798L13.0845 46.0131L10.2172 52.0344ZM13.658 43.3642L9.56183 42.4084V14.3498H13.658V43.3642ZM13.658 11.6191V11.6327H2.73492V7.63213H13.658V11.6191Z" fill="#FBC006"/>
<path d="M37.949 30.7346L34.8769 23.2114L34.5219 22.2966C34.4314 22.0711 34.3171 21.8559 34.1805 21.6548C34.0414 21.4574 33.8593 21.2939 33.648 21.177C33.3917 21.042 33.1046 20.9761 32.8151 20.9858C32.5301 20.9771 32.2477 21.043 31.9959 21.177C31.7822 21.2966 31.5998 21.4651 31.4634 21.6685C31.3088 21.9088 31.1806 22.1652 31.0811 22.4331L30.7671 23.225L27.7632 30.8439C27.6449 31.1443 27.5584 31.381 27.5038 31.5539C27.4517 31.7126 27.4243 31.8783 27.4219 32.0454C27.4275 32.328 27.5512 32.5955 27.7632 32.7827C27.9733 32.9926 28.2582 33.1106 28.5551 33.1104C28.8461 33.1381 29.1322 33.0206 29.3198 32.7964C29.5551 32.4253 29.7432 32.0263 29.8796 31.6085L30.4394 30.0383H35.2046L35.7644 31.5539L36.0374 32.1819C36.1112 32.3704 36.2074 32.5491 36.3242 32.7144C36.416 32.83 36.5327 32.9233 36.6655 32.9875C36.8154 33.056 36.9789 33.0886 37.1434 33.0831C37.4518 33.087 37.7483 32.9635 37.9626 32.7418C38.1753 32.5494 38.2989 32.2775 38.304 31.9908C38.2589 31.5547 38.1388 31.1297 37.949 30.7346ZM31.0674 28.3452L32.8015 23.5118L34.5628 28.3452H31.0674Z" fill="#FBC006"/>
<path d="M47.4544 26.6798C48.5242 26.2736 49.2273 25.2435 49.2157 24.0993C49.2185 23.769 49.163 23.4408 49.0519 23.1298C48.9404 22.8204 48.7739 22.5335 48.5604 22.2833C48.3516 22.034 48.1023 21.8216 47.823 21.6552C47.4831 21.454 47.1076 21.3195 46.7171 21.2593C46.2564 21.1862 45.7908 21.1497 45.3244 21.15H41.474C41.0746 21.113 40.677 21.2357 40.3681 21.4914C40.1103 21.8046 39.9875 22.2074 40.0267 22.611V31.4041C39.9917 31.8009 40.1088 32.1963 40.3544 32.51C40.662 32.7684 41.0608 32.8915 41.4604 32.8514H45.0513C45.5987 32.8597 46.146 32.8324 46.6898 32.7694C47.1113 32.7193 47.5245 32.6136 47.9186 32.4554C48.4803 32.2149 48.9563 31.8104 49.284 31.2948C49.6219 30.7651 49.7974 30.1481 49.7892 29.5198C49.8001 28.1331 48.817 26.9374 47.4544 26.6798ZM42.4025 22.9387H44.3277C44.9822 22.9027 45.6372 23.0003 46.2529 23.2254C46.6882 23.4458 46.9393 23.9151 46.8809 24.3997C46.8825 24.664 46.8116 24.9236 46.6761 25.1506C46.5179 25.4481 46.2554 25.6768 45.9388 25.7923C45.4952 25.9186 45.0344 25.9739 44.5734 25.9562H42.4025V22.9387ZM47.3725 29.356C47.3634 30.5212 46.5578 31.1037 44.9557 31.1037V31.131H42.4025V27.6766H44.8738C45.522 27.6322 46.1697 27.7692 46.7444 28.0725C47.1788 28.348 47.4216 28.844 47.3725 29.356Z" fill="#FBC006"/>
<path d="M61.16 28.2092C60.7808 28.0836 60.3631 28.1724 60.0677 28.4413C59.8991 28.6685 59.7699 28.9223 59.6854 29.1923C59.4898 29.7851 59.1184 30.3042 58.6204 30.6806C58.1111 31.0296 57.5035 31.2066 56.8863 31.1858C56.3037 31.1991 55.7295 31.0426 55.2342 30.7352C54.7369 30.4049 54.3549 29.9276 54.1419 29.3698C53.8646 28.6426 53.7347 27.8675 53.7596 27.0896C53.6919 25.9703 53.9992 24.8605 54.6335 23.9356C55.1849 23.2083 56.0562 22.7957 56.9683 22.8296C57.5148 22.8175 58.0522 22.9697 58.5112 23.2665C58.9825 23.6243 59.3579 24.0935 59.6035 24.6319C59.7328 24.9064 59.9032 25.1596 60.1087 25.3829C60.4785 25.6218 60.954 25.6218 61.3238 25.3829C61.6172 25.2107 61.7908 24.8898 61.7744 24.55C61.751 23.9733 61.5455 23.4188 61.1873 22.9662C60.7367 22.3802 60.1511 21.9117 59.4806 21.6008C58.6926 21.2077 57.8213 21.0109 56.941 21.0273C56.1886 21.0207 55.4421 21.1598 54.7427 21.4369C54.0622 21.7092 53.4478 22.1234 52.9404 22.6521C52.4209 23.2012 52.0211 23.8521 51.7662 24.5637C51.4805 25.3793 51.3417 26.2392 51.3565 27.1033C51.3589 27.6308 51.4139 28.1568 51.5204 28.6735C51.6252 29.1783 51.7902 29.6688 52.0119 30.1344C52.2222 30.5806 52.4883 30.998 52.8038 31.3769C53.1259 31.7637 53.5087 32.0958 53.9371 32.36C54.3611 32.6121 54.8217 32.7962 55.3025 32.9061C55.8582 33.0295 56.4264 33.0891 56.9956 33.0836C57.7295 33.0971 58.4586 32.9623 59.1392 32.6877C59.7103 32.4556 60.2264 32.1069 60.6548 31.6636C61.0204 31.2914 61.3163 30.8567 61.5286 30.3802C61.7002 29.9975 61.7932 29.5843 61.8017 29.165C61.8121 28.7426 61.5549 28.3596 61.16 28.2092Z" fill="#FBC006"/>
</svg>
