<svg width="224" height="295" viewBox="0 0 224 295" fill="none" xmlns="http://www.w3.org/2000/svg">
    <rect y="80" width="224" height="215" rx="25" fill="#F5F5FB"/>
    <path d="M52.3712 235H49.6321L48.7676 232.152H44.3995L43.535 235H40.7959L45.0183 222.979H48.1215L52.3712 235ZM45.0365 230.022H48.1579L46.802 225.645C46.7049 225.317 46.6321 225.048 46.5836 224.835C46.4198 225.49 45.9041 227.219 45.0365 230.022ZM56.1837 222.26V235H53.6903V222.26H56.1837ZM61.299 235.319V239.031H58.8055V225.845H60.8349L61.1898 227.028H61.299C61.8935 226.124 62.7459 225.672 63.8561 225.672C64.9663 225.672 65.8278 226.091 66.4405 226.928C67.0533 227.759 67.3596 228.912 67.3596 230.386C67.3657 231.86 67.0472 233.031 66.4041 233.899C65.761 234.76 64.9056 235.182 63.8379 235.164C62.7519 235.164 61.9056 234.772 61.299 233.99H61.1716C61.2565 234.785 61.299 235.228 61.299 235.319ZM64.8116 230.377C64.8116 229.467 64.6721 228.791 64.393 228.348C64.1139 227.899 63.6741 227.674 63.0735 227.674C62.4729 227.674 62.03 227.866 61.7449 228.248C61.4597 228.63 61.3111 229.255 61.299 230.122V230.386C61.299 231.363 61.4446 232.067 61.7358 232.497C62.027 232.928 62.4911 233.144 63.1281 233.144C64.2504 233.144 64.8116 232.221 64.8116 230.377ZM77.8767 229.03V235H75.3742V229.649C75.3742 228.333 74.8828 227.674 73.9 227.674C73.2023 227.674 72.6957 227.911 72.3803 228.384C72.0708 228.857 71.9161 229.628 71.9161 230.696V235H69.4227V222.26H71.9161V224.853C71.9161 225.314 71.8797 226.036 71.8069 227.019H71.9343C72.4864 226.121 73.3722 225.672 74.5916 225.672C75.6593 225.672 76.4723 225.961 77.0304 226.537C77.5946 227.113 77.8767 227.944 77.8767 229.03ZM88.0064 235H86.2592L85.7769 233.753H85.7132C85.2885 234.287 84.8547 234.657 84.4118 234.863C83.969 235.064 83.3896 235.164 82.6737 235.164C81.788 235.164 81.0933 234.912 80.5898 234.408C80.0863 233.899 79.8345 233.174 79.8345 232.234C79.8345 231.293 80.1682 230.589 80.8355 230.122C81.5089 229.655 82.5403 229.397 83.9295 229.349L85.5221 229.303V228.903C85.5221 227.975 85.0458 227.511 84.0933 227.511C83.3714 227.511 82.513 227.729 81.518 228.166L80.6899 226.482C81.7395 225.93 82.8952 225.654 84.157 225.654C85.425 225.654 86.3835 225.927 87.0327 226.473C87.6818 227.013 88.0064 227.823 88.0064 228.903V235ZM85.5221 231.515V230.759L84.5574 230.787C83.8234 230.811 83.2804 230.944 82.9285 231.187C82.5767 231.424 82.4007 231.788 82.4007 232.279C82.4007 232.983 82.8042 233.335 83.611 233.335C84.1934 233.335 84.6576 233.171 85.0034 232.843C85.3492 232.51 85.5221 232.067 85.5221 231.515ZM100.936 229.385C100.93 228.772 100.772 228.296 100.463 227.957C100.153 227.617 99.7318 227.447 99.1979 227.447C98.6701 227.447 98.2546 227.617 97.9512 227.957C97.6479 228.29 97.475 228.766 97.4325 229.385H100.936ZM102.765 234.518C101.904 234.948 100.83 235.164 99.5437 235.164C98.0695 235.164 96.9168 234.76 96.0857 233.953C95.2606 233.141 94.8481 231.976 94.8481 230.459C94.8481 228.942 95.2303 227.765 95.9947 226.928C96.7712 226.091 97.8177 225.672 99.1342 225.672C100.457 225.672 101.479 226.042 102.201 226.783C102.923 227.523 103.284 228.539 103.284 229.831V231.041H97.3779C97.4022 231.757 97.6115 232.315 98.0058 232.716C98.4062 233.11 98.9583 233.307 99.662 233.307C100.712 233.307 101.746 233.068 102.765 232.588V234.518ZM110.814 233.817C110.243 234.715 109.397 235.164 108.275 235.164C107.159 235.164 106.294 234.748 105.681 233.917C105.069 233.074 104.762 231.906 104.762 230.414C104.762 228.921 105.075 227.759 105.699 226.928C106.33 226.091 107.207 225.672 108.329 225.672C109.452 225.672 110.316 226.121 110.923 227.019H111.005C110.877 226.334 110.814 225.724 110.814 225.19V222.26H113.316V235H111.405L110.923 233.817H110.814ZM107.292 230.468C107.292 232.27 107.893 233.171 109.094 233.171C109.731 233.171 110.198 232.986 110.495 232.616C110.799 232.24 110.962 231.609 110.987 230.723V230.459C110.987 229.476 110.835 228.772 110.532 228.348C110.228 227.917 109.734 227.702 109.048 227.702C108.49 227.702 108.056 227.941 107.747 228.421C107.444 228.894 107.292 229.576 107.292 230.468ZM124.334 235H122.423L122.086 233.826H121.95C121.683 234.257 121.303 234.587 120.812 234.818C120.321 235.049 119.763 235.164 119.138 235.164C118.07 235.164 117.26 234.879 116.708 234.308C116.162 233.732 115.889 232.901 115.889 231.815V225.845H118.382V231.196C118.382 231.857 118.501 232.352 118.737 232.679C118.974 233.007 119.347 233.171 119.857 233.171C120.554 233.171 121.058 232.94 121.367 232.479C121.683 232.012 121.84 231.236 121.84 230.15V225.845H124.334V235ZM130.678 235.164C127.826 235.164 126.401 233.599 126.401 230.468C126.401 228.915 126.786 227.729 127.557 226.91C128.333 226.085 129.446 225.672 130.896 225.672C131.94 225.672 132.889 225.879 133.745 226.291L133.007 228.23C132.104 227.866 131.4 227.684 130.896 227.684C129.598 227.684 128.949 228.594 128.949 230.414C128.949 232.234 129.598 233.144 130.896 233.144C131.8 233.144 132.656 232.877 133.462 232.343V234.481C133.068 234.736 132.665 234.912 132.252 235.009C131.846 235.112 131.321 235.164 130.678 235.164ZM143.149 235H141.402L140.919 233.753H140.856C140.431 234.287 139.997 234.657 139.554 234.863C139.112 235.064 138.532 235.164 137.816 235.164C136.931 235.164 136.236 234.912 135.732 234.408C135.229 233.899 134.977 233.174 134.977 232.234C134.977 231.293 135.311 230.589 135.978 230.122C136.651 229.655 137.683 229.397 139.072 229.349L140.665 229.303V228.903C140.665 227.975 140.188 227.511 139.236 227.511C138.514 227.511 137.656 227.729 136.661 228.166L135.832 226.482C136.882 225.93 138.038 225.654 139.3 225.654C140.568 225.654 141.526 225.927 142.175 226.473C142.824 227.013 143.149 227.823 143.149 228.903V235ZM140.665 231.515V230.759L139.7 230.787C138.966 230.811 138.423 230.944 138.071 231.187C137.719 231.424 137.543 231.788 137.543 232.279C137.543 232.983 137.947 233.335 138.754 233.335C139.336 233.335 139.8 233.171 140.146 232.843C140.492 232.51 140.665 232.067 140.665 231.515ZM148.478 232.133C148.478 232.479 148.575 232.74 148.769 232.916C148.964 233.086 149.258 233.171 149.652 233.171C150.046 233.171 150.544 233.077 151.145 232.889V234.745C150.526 235.024 149.74 235.164 148.788 235.164C147.841 235.164 147.137 234.915 146.676 234.418C146.215 233.92 145.985 233.159 145.985 232.133V227.72H144.784V226.664L146.158 225.827L146.886 223.898H148.478V225.845H151.044V227.72H148.478V232.133ZM155.483 225.845V235H152.989V225.845H155.483ZM154.245 224.708C153.335 224.708 152.88 224.301 152.88 223.488C152.88 222.669 153.332 222.26 154.236 222.26C155.146 222.26 155.601 222.666 155.601 223.479C155.601 223.874 155.486 224.177 155.255 224.389C155.025 224.602 154.688 224.708 154.245 224.708ZM163.419 228.357C163.122 227.908 162.642 227.684 161.981 227.684C161.32 227.684 160.84 227.908 160.543 228.357C160.246 228.8 160.097 229.485 160.097 230.414C160.097 231.336 160.249 232.024 160.552 232.479C160.856 232.934 161.335 233.162 161.99 233.162C162.645 233.162 163.122 232.934 163.419 232.479C163.722 232.024 163.874 231.336 163.874 230.414C163.874 229.485 163.722 228.8 163.419 228.357ZM162.008 225.672C163.337 225.654 164.411 226.082 165.23 226.956C166.049 227.823 166.446 228.973 166.422 230.404C166.422 231.897 166.028 233.065 165.239 233.908C164.456 234.745 163.364 235.164 161.963 235.164C160.634 235.176 159.56 234.745 158.741 233.872C157.928 232.998 157.531 231.842 157.549 230.404C157.549 228.912 157.938 227.75 158.714 226.919C159.497 226.088 160.595 225.672 162.008 225.672ZM176.947 229.03V235H174.444V229.649C174.444 228.982 174.326 228.487 174.09 228.166C173.853 227.838 173.48 227.674 172.97 227.674C172.279 227.674 171.775 227.908 171.46 228.375C171.144 228.836 170.986 229.61 170.986 230.696V235H168.493V225.845H170.404L170.741 227.019H170.877C171.15 226.582 171.529 226.249 172.015 226.018C172.506 225.788 173.064 225.672 173.689 225.672C174.757 225.672 175.567 225.961 176.119 226.537C176.671 227.107 176.947 227.938 176.947 229.03ZM76.2492 264.319V268.031H73.7557V254.845H75.785L76.14 256.028H76.2492C76.8437 255.124 77.6961 254.672 78.8063 254.672C79.9165 254.672 80.778 255.091 81.3907 255.928C82.0035 256.759 82.3098 257.912 82.3098 259.386C82.3159 260.86 81.9974 262.031 81.3543 262.899C80.7112 263.76 79.8558 264.182 78.7881 264.164C77.7021 264.164 76.8558 263.772 76.2492 262.99H76.1218C76.2067 263.785 76.2492 264.228 76.2492 264.319ZM79.7618 259.377C79.7618 258.467 79.6223 257.791 79.3432 257.348C79.0641 256.899 78.6243 256.674 78.0237 256.674C77.4231 256.674 76.9802 256.866 76.6951 257.248C76.4099 257.63 76.2613 258.255 76.2492 259.122V259.386C76.2492 260.363 76.3948 261.067 76.686 261.497C76.9772 261.928 77.4413 262.144 78.0783 262.144C79.2006 262.144 79.7618 261.221 79.7618 259.377ZM86.8663 251.26V264H84.3729V251.26H86.8663ZM97.0503 264H95.3031L94.8208 262.753H94.7571C94.3324 263.287 93.8987 263.657 93.4558 263.863C93.0129 264.064 92.4335 264.164 91.7177 264.164C90.8319 264.164 90.1373 263.912 89.6338 263.408C89.1302 262.899 88.8784 262.174 88.8784 261.234C88.8784 260.293 89.2121 259.589 89.8795 259.122C90.5529 258.655 91.5842 258.397 92.9735 258.349L94.566 258.303V257.903C94.566 256.975 94.0898 256.511 93.1373 256.511C92.4153 256.511 91.5569 256.729 90.562 257.166L89.7339 255.482C90.7834 254.93 91.9391 254.654 93.201 254.654C94.4689 254.654 95.4275 254.927 96.0766 255.473C96.7258 256.013 97.0503 256.823 97.0503 257.903V264ZM94.566 260.515V259.759L93.6014 259.787C92.8673 259.811 92.3243 259.944 91.9725 260.187C91.6206 260.424 91.4447 260.788 91.4447 261.279C91.4447 261.983 91.8481 262.335 92.655 262.335C93.2374 262.335 93.7015 262.171 94.0473 261.843C94.3931 261.51 94.566 261.067 94.566 260.515ZM102.38 261.133C102.38 261.479 102.477 261.74 102.671 261.916C102.865 262.086 103.159 262.171 103.553 262.171C103.948 262.171 104.445 262.077 105.046 261.889V263.745C104.427 264.024 103.641 264.164 102.689 264.164C101.743 264.164 101.039 263.915 100.578 263.418C100.117 262.92 99.8862 262.159 99.8862 261.133V256.72H98.6849V255.664L100.059 254.827L100.787 252.898H102.38V254.845H104.946V256.72H102.38V261.133ZM111.95 254.845V256.72H109.793V264H107.291V256.72H105.917V255.519L107.291 254.845V254.172C107.291 253.128 107.549 252.367 108.064 251.888C108.58 251.408 109.402 251.169 110.531 251.169C111.392 251.169 112.156 251.296 112.824 251.551L112.187 253.389C111.677 253.232 111.231 253.153 110.849 253.153C110.473 253.153 110.203 253.253 110.039 253.453C109.875 253.653 109.793 253.926 109.793 254.272V254.845H111.95ZM118.709 257.357C118.412 256.908 117.932 256.684 117.271 256.684C116.61 256.684 116.13 256.908 115.833 257.357C115.536 257.8 115.387 258.485 115.387 259.414C115.387 260.336 115.539 261.024 115.842 261.479C116.146 261.934 116.625 262.162 117.28 262.162C117.935 262.162 118.412 261.934 118.709 261.479C119.012 261.024 119.164 260.336 119.164 259.414C119.164 258.485 119.012 257.8 118.709 257.357ZM117.298 254.672C118.627 254.654 119.701 255.082 120.52 255.956C121.339 256.823 121.736 257.973 121.712 259.404C121.712 260.897 121.318 262.065 120.529 262.908C119.746 263.745 118.654 264.164 117.253 264.164C115.924 264.176 114.85 263.745 114.031 262.872C113.218 261.998 112.821 260.842 112.839 259.404C112.839 257.912 113.228 256.75 114.004 255.919C114.787 255.088 115.885 254.672 117.298 254.672ZM128.897 254.672C129.213 254.672 129.492 254.697 129.735 254.745L129.553 257.084C129.346 257.029 129.101 257.002 128.815 257.002C128.015 257.002 127.39 257.208 126.941 257.621C126.498 258.027 126.276 258.601 126.276 259.341V264H123.783V254.845H125.676L126.04 256.383H126.167C126.459 255.861 126.847 255.446 127.332 255.137C127.817 254.827 128.339 254.672 128.897 254.672ZM139.594 259.404V264H137.091V258.649C137.091 257.982 136.979 257.487 136.754 257.166C136.53 256.838 136.184 256.674 135.717 256.674C135.08 256.674 134.616 256.908 134.325 257.375C134.033 257.836 133.888 258.61 133.888 259.696V264H131.394V254.845H133.305L133.642 256.019H133.779C134.021 255.595 134.373 255.264 134.834 255.027C135.301 254.791 135.835 254.672 136.436 254.672C137.813 254.672 138.741 255.121 139.22 256.019H139.448C139.685 255.588 140.043 255.258 140.522 255.027C141.001 254.791 141.544 254.672 142.151 254.672C143.206 254.672 143.995 254.942 144.517 255.482C145.038 256.022 145.299 256.872 145.299 258.03V264H142.797V258.649C142.797 257.982 142.685 257.487 142.46 257.166C142.236 256.838 141.89 256.674 141.423 256.674C140.804 256.674 140.343 256.896 140.039 257.339C139.742 257.776 139.594 258.464 139.594 259.404Z" fill="#6A6D7E"/>
    <path d="M52.5242 170.3L55.7547 173.203L61.993 166.726L58.7067 163.767L52.5242 170.3Z" fill="#CE7A63"/>
    <path d="M63.7195 176.386H67.8412L68.3982 166.782H64.2765L63.7195 176.386Z" fill="#CE7A63"/>
    <path d="M68.0642 175.939H63.4412C63.2741 175.939 63.1627 176.051 63.1627 176.219L62.9399 179.904C62.9399 180.295 63.2741 180.63 63.664 180.63C65.2793 180.574 66.0591 180.518 68.0642 180.518C69.3453 180.518 74.6367 180.63 76.3634 180.63C78.0343 180.63 78.0343 178.899 77.3102 178.731C74.024 178.061 69.958 177.056 68.7883 176.163C68.5655 175.995 68.287 175.939 68.0642 175.939Z" fill="#0F264C"/>
    <path d="M56.7016 172.031L52.7469 169.351C52.5798 169.239 52.4128 169.239 52.3014 169.351L49.2379 172.422C48.9594 172.645 49.0708 173.092 49.405 173.371C51.9672 175.325 53.8052 176.833 55.1977 178.452C56.8687 180.35 57.7598 180.63 61.6588 180.63C63.4411 180.63 64.4994 179.122 63.7753 178.899C57.2585 176.833 59.0409 175.939 57.4256 172.924C57.2028 172.533 56.9801 172.254 56.7016 172.031Z" fill="#0F264C"/>
    <path d="M83.6598 38.9177C83.7155 39.1411 83.8826 39.5319 83.994 39.8669L84.3281 40.872C84.5509 41.542 84.8294 42.212 85.1079 42.8262C85.6649 44.1105 86.2776 45.3947 87.0017 46.6231C88.3942 49.024 90.0094 51.2017 92.0146 52.5976L92.3488 52.8209C92.3488 52.8209 92.3488 52.8767 92.4045 52.8767C92.5716 52.9326 93.0172 52.8209 93.4628 52.5976C94.4096 52.1509 95.5793 51.2575 96.5819 50.3083C97.6402 49.3591 98.6427 48.2982 99.6453 47.1815C100.648 46.0647 101.595 44.8922 102.542 43.7755L105.215 45.3947C103.823 48.2982 102.207 51.0341 100.035 53.6026C98.9212 54.8868 97.7516 56.1152 96.0806 57.1761C95.2451 57.6786 94.1868 58.1812 92.8501 58.3487C92.1817 58.4045 91.4019 58.3487 90.6778 58.1253C90.2879 58.0137 89.9537 57.8461 89.6195 57.6786L89.0069 57.3436C87.3916 56.3944 85.9991 55.166 84.8294 53.8818C83.6041 52.5976 82.6015 51.2017 81.7103 49.7499C80.8191 48.2982 80.0393 46.8464 79.371 45.283C79.0368 44.5013 78.7583 43.7755 78.4241 42.9938C78.257 42.6029 78.1456 42.212 78.0342 41.8212C77.9228 41.4303 77.8114 41.0395 77.6443 40.537L83.6598 38.9177Z" fill="#CE7A63"/>
    <path d="M89.3969 48.8007L82.2674 52.7651C82.2674 52.7651 82.0446 52.43 81.7104 51.9275C81.4876 51.5367 81.1535 51.0341 80.7636 50.42C78.647 47.014 75.1937 40.7603 76.0849 38.136C77.4773 34.06 82.6016 34.1158 85.1081 38.8619C86.3891 41.3187 87.5588 44.1105 88.3386 46.0647C88.6171 46.7348 88.8399 47.2931 89.007 47.7398C89.2855 48.4099 89.3969 48.8007 89.3969 48.8007Z" fill="#0053CC"/>
    <path d="M89.0626 47.7956L81.7103 51.9275C81.4875 51.5367 81.1533 51.0341 80.7634 50.4199L88.3942 46.1206C88.6727 46.7348 88.8955 47.349 89.0626 47.7956Z" fill="#004DAA"/>
    <path d="M76.029 38.6385C77.6443 37.8568 79.4823 38.5269 81.3761 41.5979C83.2699 44.613 84.9408 49.7499 85.1079 51.2016L82.2673 52.7651C82.2673 52.7651 75.4163 42.7146 76.029 38.6385Z" fill="#004DAA"/>
    <path d="M102.096 44.5013L103.544 39.9228L107.22 42.6587C107.22 42.6587 105.215 46.7348 103.823 46.3439L102.096 44.5013Z" fill="#CE7A63"/>
    <path d="M107.387 38.1918L109.448 40.7603L107.165 42.6587L103.489 39.9228L107.387 38.1918Z" fill="#CE7A63"/>
    <path d="M61.9928 166.726L58.818 170.077L55.5317 167.117L58.7066 163.767L61.9928 166.726Z" fill="#BC6753"/>
    <path d="M64.2765 166.838H68.3983L68.1198 171.752H63.998L64.2765 166.838Z" fill="#BC6753"/>
    <path d="M82.6015 71.3026H60.4891C60.322 69.3484 60.7676 62.8714 60.4334 54.7193C60.2106 49.2474 59.5979 42.9379 58.2612 36.6843C58.1498 36.2376 58.0384 35.7909 57.9827 35.3442C57.9827 35.3442 59.0966 35.1209 60.7119 34.8975C62.0487 34.6742 63.7196 34.5067 65.3349 34.395C68.1756 34.2833 72.2416 34.1716 74.6923 34.395C76.1405 34.5067 77.5329 34.7858 78.6469 35.0092C80.0951 35.2884 81.042 35.5676 81.042 35.5676C81.042 35.5676 86.4448 48.019 82.6015 71.3026Z" fill="#0053CC"/>
    <path d="M60.4892 54.7193C60.2664 49.1916 59.6537 42.9379 58.3169 36.6843C59.7651 36.5726 62.3272 36.6843 62.7171 39.0852C63.1627 41.6537 62.6057 47.684 60.4892 54.7193Z" fill="#004DAA"/>
    <path d="M82.4343 71.0793C82.4343 71.0793 86.7788 101.287 88.2826 117.702C89.4523 130.88 61.0459 170.188 61.0459 170.188L55.5317 164.995C55.5317 164.995 76.3074 129.763 74.6921 115.078C73.1326 100.84 67.8969 71.0793 67.8969 71.0793H82.4343Z" fill="#0F264C"/>
    <path d="M74.6924 115.134C73.9126 107.819 72.1302 96.3172 70.5707 86.9367C71.3505 85.3733 73.6341 82.1907 73.6341 82.1907C75.6393 89.1702 80.0395 115.525 73.8012 151.092C67.2844 161.645 61.0462 170.244 61.0462 170.244L60.2107 156.676C66.1705 145.285 75.7507 125.296 74.6924 115.134Z" fill="#0A1B35"/>
    <path d="M55.1421 164.716L61.3247 170.523L63.3298 168.402L56.2561 161.925L55.1421 164.716Z" fill="#9FC6FF"/>
    <path d="M74.5809 71.0793C74.5809 71.0793 74.9708 102.738 74.3024 114.576C73.5783 127.53 69.9022 170.523 69.9022 170.523H62.3272C62.3272 170.523 62.55 128.59 62.1044 115.748C61.6031 101.789 60.322 71.0793 60.322 71.0793H74.5809Z" fill="#0F264C"/>
    <path d="M61.9929 170.579H70.1806L70.6262 167.676L61.603 168.122L61.9929 170.579Z" fill="#9FC6FF"/>
    <path d="M61.9929 41.3187L60.9903 42.9938C60.6561 43.5521 60.3219 44.1663 60.0434 44.7805C59.4307 45.9531 58.8181 47.1256 58.2054 48.354C57.6484 49.5266 57.0914 50.755 56.5901 51.9834C56.1445 53.2118 55.6432 54.4401 55.309 55.6127L55.2533 55.8361L55.1976 55.9477C55.1976 56.0036 55.1976 55.9477 55.1976 55.9477C55.1976 55.9477 55.1976 56.0036 55.1419 56.0594C55.1419 56.1711 55.1419 56.3386 55.1419 56.5619C55.1976 57.0086 55.309 57.567 55.4761 58.1253C55.8103 59.242 56.3116 60.4704 56.8686 61.643C57.9826 64.044 59.3193 66.5007 60.7118 68.8459L58.2611 70.7443C56.2002 68.6225 54.4178 66.4449 52.7469 63.9881C51.9671 62.7597 51.1316 61.4755 50.5189 59.9679C50.1847 59.2421 49.9062 58.4045 49.6835 57.4553C49.5721 57.0086 49.5164 56.4502 49.5164 55.8919C49.5164 55.6127 49.5164 55.2777 49.5721 54.9427L49.6278 54.7193L49.6835 54.5518L49.7392 54.2726C50.2961 51.2017 51.3544 48.4099 52.5241 45.7297C53.1368 44.3897 53.7495 43.0496 54.4178 41.7654C54.752 41.0953 55.1419 40.4811 55.4761 39.8669C55.866 39.1969 56.2002 38.6385 56.6458 37.9685L61.9929 41.3187Z" fill="#CE7A63"/>
    <path d="M63.4968 42.8821C62.55 45.6739 61.0461 48.9682 59.9321 51.2575C59.6536 51.8717 59.3751 52.43 59.1523 52.8767C58.7624 53.6584 58.5396 54.1051 58.5396 54.1051L50.1848 49.4707C50.1848 49.4707 50.2962 49.1357 50.4633 48.5215C50.6304 48.0748 50.7975 47.4606 51.0203 46.7906C52.4128 42.8262 55.2534 35.6792 58.0383 35.2884C62.1601 34.73 65.1678 37.8568 63.4968 42.8821Z" fill="#0053CC"/>
    <path d="M59.8765 51.2575C59.598 51.8717 59.3195 52.43 59.0967 52.8767L50.4077 48.5215C50.5748 48.0748 50.7419 47.4606 50.9647 46.7906L59.8765 51.2575Z" fill="#004DAA"/>
    <path d="M78.5355 37.5777C78.0899 39.0852 76.8646 41.0395 73.4669 42.0445L72.5758 42.3237L71.6846 42.1562C64.7222 40.872 62.1044 37.131 61.6588 36.4051L60.7119 34.8417C62.0487 34.6183 63.7197 34.4508 65.3349 34.3392C68.1756 34.2275 72.2416 34.1158 74.6923 34.3392C76.1405 34.4508 77.5329 34.73 78.6469 34.9534C78.8697 35.7909 78.814 36.6843 78.5355 37.5777Z" fill="#004DAA"/>
    <path d="M72.353 38.3035C66.7274 37.2985 65.0007 34.395 65.0007 34.395C67.0616 32.3849 66.2818 26.8571 65.5577 23.842L68.0642 25.9079L71.4618 28.7556C71.3504 29.2023 71.2947 29.7048 71.239 30.1515C71.0719 31.9941 71.5175 33.725 74.2467 34.3392C74.3024 34.3392 76.5304 37.0751 72.353 38.3035Z" fill="#CE7A63"/>
    <path d="M71.5173 28.7556C71.4059 29.2023 71.3502 29.7048 71.2945 30.1515C70.0134 29.8723 68.3425 28.5322 68.1197 27.248C68.064 26.7455 68.064 26.2988 68.064 25.9638L71.5173 28.7556Z" fill="#BC6753"/>
    <path d="M73.801 13.2331C75.8618 14.1824 76.9758 19.8776 74.358 21.1619C71.7958 22.3903 69.9578 11.5022 73.801 13.2331Z" fill="#0F264C"/>
    <path d="M64.4993 19.4868C65.3905 23.507 65.669 25.9079 68.064 27.7505C71.6287 30.4865 76.3631 28.0855 76.6973 23.8978C77.0315 20.1568 75.5277 14.1824 71.2945 13.0656C67.1728 11.8931 63.6638 15.4666 64.4993 19.4868Z" fill="#CE7A63"/>
    <path d="M59.8765 15.4666C57.927 16.36 59.041 19.0401 60.3778 20.7152C62.2159 23.0603 64.1653 24.177 65.5021 23.1161C66.6718 22.5019 67.5072 18.9843 66.449 16.8066C68.287 15.5783 72.0745 17.0858 73.2999 15.1316C74.4696 13.1773 75.3051 13.3448 77.4216 14.629C79.5382 15.9133 81.2092 10.7763 75.7507 9.82714C78.7584 11.1672 78.09 13.8473 75.8621 11.1114C74.3025 9.21294 70.5707 7.09117 68.0085 9.93881C66.0034 12.0606 59.3195 8.82209 59.8765 15.4666Z" fill="#0F264C"/>
    <path d="M63.6083 23.6745C64.3323 24.512 65.3349 25.0704 66.1704 25.1821C67.4515 25.4054 67.73 24.2328 67.0616 23.0603C66.5046 22.0552 65.1121 20.7152 63.9982 20.9944C62.8842 21.3294 62.7728 22.6694 63.6083 23.6745Z" fill="#CE7A63"/>
    <path d="M70.8491 19.8776C70.9048 20.2126 71.1276 20.436 71.3504 20.436C71.5732 20.436 71.6846 20.101 71.6289 19.766C71.5732 19.4309 71.3504 19.2076 71.1276 19.2076C70.9605 19.2634 70.7934 19.5426 70.8491 19.8776Z" fill="#0F264C"/>
    <path d="M74.581 19.4309C74.6367 19.7659 74.8595 19.9893 75.0823 19.9893C75.3051 19.9893 75.4165 19.6543 75.3608 19.3193C75.3051 18.9842 75.0823 18.7609 74.8595 18.7609C74.6924 18.8167 74.5253 19.0959 74.581 19.4309Z" fill="#0F264C"/>
    <path d="M73.4111 19.7101C73.4111 19.7101 74.4694 21.5527 75.4163 22.3344C74.915 22.9486 73.8567 22.8369 73.8567 22.8369L73.4111 19.7101Z" fill="#BA4D3C"/>
    <path d="M72.6871 23.8978C71.3503 23.8978 70.6262 23.0603 70.6262 23.0603C70.5705 23.0044 70.5705 22.9486 70.6262 22.9486C70.6819 22.8928 70.7376 22.8928 70.7376 22.9486C70.7376 22.9486 71.5731 23.8978 73.0213 23.7303C73.077 23.7303 73.1327 23.7861 73.1327 23.842C73.1327 23.8978 73.077 23.9537 73.0213 23.9537C72.9656 23.8978 72.7985 23.8978 72.6871 23.8978Z" fill="#0F264C"/>
    <path d="M69.5123 18.8167C69.4566 18.8167 69.4566 18.8167 69.4009 18.8167C69.2895 18.7609 69.2895 18.6492 69.3452 18.5376C69.8465 17.5884 70.7934 17.5325 70.7934 17.5325C70.9048 17.5325 71.0162 17.5884 71.0162 17.7C71.0162 17.8117 70.9605 17.9234 70.8491 17.9234C70.7934 17.9234 70.125 17.9792 69.7351 18.7051C69.6794 18.7609 69.568 18.8167 69.5123 18.8167Z" fill="#0F264C"/>
    <path d="M76.029 17.9234C75.9733 17.9234 75.9176 17.8675 75.8619 17.8117C75.3606 17.0858 74.6365 17.0858 74.6365 17.0858C74.5251 17.0858 74.4137 16.9741 74.4694 16.8625C74.4694 16.7508 74.5808 16.695 74.6922 16.695C74.6922 16.695 75.6391 16.695 76.2518 17.5883C76.3075 17.7 76.3075 17.8117 76.1961 17.8675C76.0847 17.9234 76.029 17.9234 76.029 17.9234Z" fill="#0F264C"/>
    <path d="M69.5122 176.609C69.1223 176.609 68.7324 176.554 68.3982 176.442C68.3425 176.442 68.3425 176.386 68.3425 176.386C68.3425 176.33 68.3425 176.33 68.3982 176.274C68.5096 176.163 69.6793 175.381 70.1806 175.604C70.292 175.66 70.3477 175.772 70.4034 175.884C70.4591 176.107 70.4034 176.274 70.292 176.386C70.1249 176.554 69.8464 176.609 69.5122 176.609ZM68.6767 176.33C69.4008 176.498 69.9578 176.442 70.1249 176.274C70.1806 176.219 70.2363 176.107 70.1806 175.939C70.1806 175.884 70.1249 175.828 70.0692 175.828C69.8464 175.716 69.178 176.051 68.6767 176.33Z" fill="#407BFF"/>
    <path d="M68.4541 176.498C68.4541 176.498 68.3984 176.498 68.4541 176.498C68.3984 176.498 68.3427 176.442 68.3427 176.386C68.3427 176.33 68.2313 175.158 68.6769 174.767C68.7883 174.655 68.8997 174.599 69.0668 174.655C69.2339 174.655 69.401 174.767 69.401 174.934C69.5124 175.381 68.8997 176.219 68.4541 176.498ZM69.0111 174.823C68.9554 174.823 68.844 174.879 68.7883 174.934C68.5655 175.158 68.5098 175.884 68.5098 176.274C68.844 175.995 69.2896 175.325 69.2339 174.99C69.2339 174.879 69.1782 174.823 69.0111 174.823Z" fill="#407BFF"/>
    <path d="M59.3751 174.264C58.7624 174.264 57.8712 173.762 57.3142 173.483C57.2585 173.483 57.2585 173.427 57.2585 173.371C57.2585 173.315 57.3142 173.315 57.3699 173.315C57.5927 173.315 59.5422 173.148 59.9321 173.594C59.9878 173.65 60.0435 173.762 59.9878 173.873C59.9321 174.041 59.8207 174.153 59.7093 174.208C59.5422 174.264 59.4865 174.264 59.3751 174.264ZM57.6484 173.483C58.5396 173.985 59.2637 174.208 59.5422 174.041C59.6536 173.985 59.7093 173.929 59.7093 173.818C59.7093 173.762 59.7093 173.762 59.7093 173.706C59.5422 173.483 58.4839 173.427 57.6484 173.483Z" fill="#407BFF"/>
    <path d="M57.3142 173.483C57.2585 173.483 57.2585 173.483 57.2585 173.427C57.2585 173.371 57.2585 173.371 57.2585 173.315C57.3142 173.259 58.0383 171.752 58.9852 172.198C59.2637 172.31 59.2637 172.478 59.2637 172.589C59.1523 173.092 57.9269 173.483 57.3142 173.483ZM58.651 172.366C58.1497 172.366 57.7041 173.036 57.537 173.315C58.1497 173.259 59.0409 172.868 59.0966 172.589C59.0966 172.533 59.0409 172.478 58.9295 172.422C58.8181 172.366 58.7067 172.366 58.651 172.366Z" fill="#407BFF"/>
    <path d="M59.6536 67.9525L63.7753 67.2266L61.6588 71.9726C61.6588 71.9726 57.927 71.9727 58.0941 70.0184L59.6536 67.9525Z" fill="#CE7A63"/>
    <path d="M66.8387 69.6275L64.9449 73.4802L61.6587 72.0285L63.7753 67.2266L66.8387 69.6275Z" fill="#CE7A63"/>
    <path opacity="0.9" d="M134.123 82.5257C135.07 80.1247 137.521 78.3938 140.027 78.3938H189.153C192.105 78.3938 194.111 80.7948 193.609 83.7541L178.069 176.721C177.568 179.68 174.783 182.081 171.831 182.081H48.6809C45.7289 182.081 43.7237 179.68 44.225 176.721L57.4256 97.6014C57.9269 94.6421 60.7119 92.2411 63.6639 92.2411H120.365C126.214 92.2411 131.895 88.221 134.123 82.5257Z" fill="#9FC6FF"/>
    <path opacity="0.9" d="M114.572 0L77.4214 129.428L162.418 153.94L199.569 24.512L114.572 0Z" fill="#DCE9FF"/>
    <path d="M146.222 34.8964C148.561 26.7468 143.867 18.2395 135.737 15.8947C127.608 13.5499 119.121 18.2555 116.782 26.4051C114.443 34.5546 119.137 43.062 127.267 45.4068C135.396 47.7516 143.883 43.0459 146.222 34.8964Z" fill="#407BFF"/>
    <path d="M143.171 34.0164C145.025 27.556 141.304 20.812 134.859 18.9532C128.415 17.0945 121.687 20.8248 119.833 27.2852C117.979 33.7455 121.7 40.4895 128.145 42.3483C134.589 44.2071 141.317 40.4768 143.171 34.0164Z" fill="white"/>
    <path d="M137.401 55.1646L110.37 47.3681L108.614 53.4851L135.645 61.2817L137.401 55.1646Z" fill="#407BFF"/>
    <path d="M110.542 102.964L95.6077 98.6568L88.8005 122.374L103.734 126.681L110.542 102.964Z" fill="#407BFF"/>
    <path d="M163.337 118.214L148.404 113.907L141.596 137.624L156.53 141.931L163.337 118.214Z" fill="#407BFF"/>
    <path d="M136.947 110.563L122.013 106.255L115.206 129.972L130.14 134.28L136.947 110.563Z" fill="#407BFF"/>
    <path d="M159.308 61.4515L141.002 56.1715L139.246 62.2885L157.552 67.5686L159.308 61.4515Z" fill="#407BFF"/>
    <path d="M173.514 79.8862L106.552 60.5724L105.829 63.0943L172.79 82.4081L173.514 79.8862Z" fill="white"/>
    <path d="M138.321 75.5365L105.028 65.9337L104.304 68.4556L137.597 78.0585L138.321 75.5365Z" fill="white"/>
    <path d="M166.283 83.6022L144.016 77.1797L143.293 79.7016L165.56 86.1241L166.283 83.6022Z" fill="white"/>
    <path d="M157.013 86.7155L103.487 71.2768L102.763 73.7988L156.29 89.2375L157.013 86.7155Z" fill="white"/>
    <path d="M163.537 94.3614L101.981 76.6069L101.258 79.1288L162.813 96.8833L163.537 94.3614Z" fill="white"/>
    <path d="M107.551 83.9922L100.432 81.9389L99.7083 84.4608L106.827 86.5142L107.551 83.9922Z" fill="white"/>
    <path d="M144.654 94.6974L113.234 85.6349L112.51 88.1568L143.93 97.2193L144.654 94.6974Z" fill="white"/>
    <path d="M165.882 106.584L98.9204 87.2701L98.1966 89.792L165.158 109.106L165.882 106.584Z" fill="white"/>
    <path opacity="0.9" d="M112.957 5.75111L77.4214 129.428L159.521 153.102L192.774 25.0704L112.957 5.75111Z" fill="#DCE9FF"/>
    <path opacity="0.9" d="M104.714 4.52274L72.0745 135.179L157.851 156.732L190.49 26.0755L104.714 4.52274Z" fill="#DCE9FF"/>
    <path d="M137.518 38.3008C139.574 30.075 134.589 21.7354 126.384 19.6738C118.178 17.6122 109.859 22.6094 107.802 30.8353C105.746 39.0612 110.731 47.4008 118.937 49.4623C127.142 51.5239 135.461 46.5267 137.518 38.3008Z" fill="#407BFF"/>
    <path d="M134.438 37.5273C136.069 31.0064 132.117 24.3953 125.612 22.7611C119.107 21.1268 112.512 25.0882 110.882 31.6091C109.252 38.13 113.204 44.741 119.708 46.3753C126.213 48.0095 132.808 44.0481 134.438 37.5273Z" fill="white"/>
    <path d="M129.402 58.8537L102.118 51.9989L100.575 58.1733L127.859 65.028L129.402 58.8537Z" fill="#407BFF"/>
    <path d="M104.24 107.572L89.1658 103.785L83.1809 127.725L98.2547 131.512L104.24 107.572Z" fill="#407BFF"/>
    <path d="M157.498 120.913L142.424 117.126L136.439 141.066L151.513 144.853L157.498 120.913Z" fill="#407BFF"/>
    <path d="M130.863 114.27L115.789 110.483L109.804 134.422L124.878 138.209L130.863 114.27Z" fill="#407BFF"/>
    <path d="M151.487 64.3918L133.009 59.7495L131.466 65.9239L149.943 70.5661L151.487 64.3918Z" fill="#407BFF"/>
    <path d="M166.369 82.3447L98.78 65.3639L98.1436 67.9095L165.732 84.8903L166.369 82.3447Z" fill="white"/>
    <path d="M131.025 79.1894L97.4197 70.7465L96.7833 73.2921L130.389 81.735L131.025 79.1894Z" fill="white"/>
    <path d="M159.271 86.2804L136.795 80.6337L136.159 83.1793L158.635 88.826L159.271 86.2804Z" fill="white"/>
    <path d="M150.099 89.682L96.071 76.1082L95.4346 78.6538L149.463 92.2276L150.099 89.682Z" fill="white"/>
    <path d="M156.875 97.1299L94.7427 81.5201L94.1063 84.0657L156.238 99.6755L156.875 97.1299Z" fill="white"/>
    <path d="M100.575 88.7183L93.3894 86.913L92.753 89.4585L99.9387 91.2638L100.575 88.7183Z" fill="white"/>
    <path d="M138.022 98.1049L106.307 90.1371L105.671 92.6827L137.385 100.65L138.022 98.1049Z" fill="white"/>
    <path d="M159.636 109.258L92.0469 92.2768L91.4105 94.8224L158.999 111.803L159.636 109.258Z" fill="white"/>
    <path opacity="0.7" d="M101.372 101.957C101.483 99.8907 103.321 98.3831 105.772 98.3831H154.843C157.795 98.3831 160.636 100.449 161.193 103.018L175.897 177.503C176.454 180.071 174.505 182.137 171.552 182.137H48.4581C45.5061 182.137 42.6654 180.071 42.1084 177.503L29.9661 114.966C29.4091 112.398 31.3586 110.332 34.3106 110.332H91.012C96.8604 110.332 101.093 106.87 101.372 101.957Z" fill="#9FC6FF"/>
</svg>
