<svg width="71" height="71" viewBox="0 0 71 71" fill="none" xmlns="http://www.w3.org/2000/svg">
    <path d="M35.5003 0H20.1168C19.4633 0 18.9335 0.529846 18.9335 1.18334V9.46674H1.18334C0.529846 9.46674 0 9.99658 0 10.6501V69.8172C0 70.4707 0.529846 71.0005 1.18334 71.0005H35.5003C36.1538 71.0005 36.6836 70.4707 36.6836 69.8172V1.18334C36.6836 0.529846 36.1538 0 35.5003 0ZM34.3169 61.5338H21.3002V59.1671H34.3169V61.5338ZM2.36668 17.7501H18.9335V53.2504H2.36668V17.7501ZM34.3169 13.0168H21.3002V9.46674H34.3169V13.0168ZM2.36668 55.6171H18.9335V59.1671H2.36668V55.6171ZM21.3002 56.8004V15.3834H34.3169V56.8004H21.3002ZM34.3169 2.36668V7.10005H21.3002V2.36668H34.3169ZM18.9335 11.8334V15.3834H2.36668V11.8334H18.9335ZM2.36668 61.5338H18.9335V68.6338H2.36668V61.5338ZM21.3002 68.6338V63.9005H34.3169V68.6338H21.3002Z" fill="#AD00FF"/>
    <path d="M70.9627 64.7855L56.7626 10.3518C56.6835 10.0467 56.4859 9.78611 56.2131 9.62721C55.941 9.4689 55.6168 9.42556 55.3123 9.50703L37.5622 14.2404C36.9336 14.408 36.558 15.0516 36.7221 15.6814L50.9222 70.1152C51.0014 70.4202 51.1995 70.6808 51.4723 70.8392C51.7444 70.9969 52.0686 71.0397 52.3725 70.9576L70.1226 66.2242C70.7501 66.0567 71.1251 65.4142 70.9627 64.7855ZM41.1949 23.4512L56.6586 19.3285L57.2151 21.4583L41.7524 25.5873L41.1949 23.4512ZM57.8125 23.7545L64.6757 50.081L49.2177 54.2053L42.3545 27.8771L57.8125 23.7545ZM65.2783 52.372L66.49 57.0158L51.0262 61.1384L49.8192 56.4963L65.2783 52.372ZM54.7727 12.0996L56.0612 17.0399L40.5974 21.1613L39.3101 16.2234L54.7727 12.0996ZM52.9121 68.3673L51.6236 63.4271L67.0874 59.3033L68.3748 64.2412L52.9121 68.3673Z" fill="#AD00FF"/>
    <path d="M15.3845 21.3008H5.91772C5.26422 21.3008 4.73438 21.8306 4.73438 22.4841V31.9509C4.73438 32.6044 5.26422 33.1342 5.91772 33.1342H15.3845C16.0379 33.1342 16.5678 32.6044 16.5678 31.9509V22.4841C16.5678 21.8306 16.0379 21.3008 15.3845 21.3008ZM14.2011 30.7675H7.10106V23.6675H14.2011V30.7675Z" fill="#AD00FF"/>
</svg>
