<svg width="71" height="71" viewBox="0 0 71 71" fill="none" xmlns="http://www.w3.org/2000/svg">
    <path d="M69.1697 22.3438C66.7367 19.9106 62.7778 19.9108 60.3439 22.3443C59.5954 23.0936 54.816 27.8768 54.0859 28.6076V12.1235C54.0859 10.4567 53.4368 8.8897 52.2581 7.71113L46.3749 1.8277C45.1964 0.648984 43.6292 0 41.9624 0H6.24414C2.80328 0 0.00390625 2.79937 0.00390625 6.24023V64.7598C0.00390625 68.2006 2.80328 71 6.24414 71H47.8457C51.2866 71 54.0859 68.2006 54.0859 64.7598V46.2652L69.1696 31.1689C71.6084 28.7302 71.6089 24.7827 69.1697 22.3438ZM41.6056 4.16016C41.9986 4.16016 42.7559 4.09207 43.4333 4.76934L49.3166 10.6528C49.9767 11.313 49.9259 12.0364 49.9259 12.4805H41.6056V4.16016ZM49.9258 64.7598C49.9258 65.9067 48.9928 66.8398 47.8457 66.8398H6.24414C5.09719 66.8398 4.16406 65.9067 4.16406 64.7598V6.24023C4.16406 5.09328 5.09719 4.16016 6.24414 4.16016H37.4453V14.5605C37.4453 15.7093 38.3766 16.6406 39.5254 16.6406H49.9258V32.7714C49.9258 32.7714 43.789 38.9134 43.7887 38.9135L40.8485 41.8539C40.6202 42.0822 40.448 42.3607 40.3459 42.667L37.4041 51.4921C37.1549 52.2395 37.3495 53.0636 37.9067 53.6207C38.4646 54.1785 39.289 54.3721 40.0353 54.1232L48.8604 51.1816C49.1667 51.0795 49.4451 50.9074 49.6734 50.679L49.9258 50.4266V64.7598ZM45.2609 43.3248L48.2025 46.2665L47.0788 47.3901L42.6664 48.8609L44.1372 44.4484L45.2609 43.3248ZM51.1436 43.3241L48.202 40.3825C49.7684 38.8148 56.7254 31.8518 58.2009 30.3751L61.1425 33.3167L51.1436 43.3241ZM66.2274 28.2278L64.0831 30.3739L61.1414 27.4322L63.2864 25.2854C64.0979 24.4743 65.4172 24.4745 66.2282 25.2854C67.039 26.0967 67.0433 27.4117 66.2274 28.2278Z" fill="#F0AD24"/>
    <path d="M39.5254 20.8008H10.4043C9.25554 20.8008 8.32422 21.7321 8.32422 22.8809C8.32422 24.0296 9.25554 24.9609 10.4043 24.9609H39.5254C40.6741 24.9609 41.6055 24.0296 41.6055 22.8809C41.6055 21.7321 40.6741 20.8008 39.5254 20.8008Z" fill="#F0AD24"/>
    <path d="M31.2051 29.1211H10.4043C9.25554 29.1211 8.32422 30.0524 8.32422 31.2012C8.32422 32.3499 9.25554 33.2812 10.4043 33.2812H31.2051C32.3538 33.2812 33.2852 32.3499 33.2852 31.2012C33.2852 30.0524 32.3538 29.1211 31.2051 29.1211Z" fill="#F0AD24"/>
    <path d="M31.2051 37.4414H10.4043C9.25554 37.4414 8.32422 38.3727 8.32422 39.5215C8.32422 40.6702 9.25554 41.6016 10.4043 41.6016H31.2051C32.3538 41.6016 33.2852 40.6702 33.2852 39.5215C33.2852 38.3727 32.3538 37.4414 31.2051 37.4414Z" fill="#F0AD24"/>
    <path d="M31.2051 45.7617H10.4043C9.25554 45.7617 8.32422 46.693 8.32422 47.8418C8.32422 48.9906 9.25554 49.9219 10.4043 49.9219H31.2051C32.3538 49.9219 33.2852 48.9906 33.2852 47.8418C33.2852 46.693 32.3538 45.7617 31.2051 45.7617Z" fill="#F0AD24"/>
    <path d="M39.5254 58.5195H27.0449C25.8962 58.5195 24.9648 59.4509 24.9648 60.5996C24.9648 61.7484 25.8962 62.6797 27.0449 62.6797H39.5254C40.6741 62.6797 41.6055 61.7484 41.6055 60.5996C41.6055 59.4509 40.6741 58.5195 39.5254 58.5195Z" fill="#F0AD24"/>
</svg>
