<svg width="22" height="22" viewBox="0 0 22 22" fill="none" xmlns="http://www.w3.org/2000/svg">
<g clip-path="url(#clip0)">
<path d="M20.8997 19.8H20.5331V9.90015C20.5331 9.29255 20.0405 8.80009 19.4331 8.80009H15.7665C15.1589 8.80009 14.6664 9.29255 14.6664 9.90015V19.8H13.9331V6.23341C13.9331 5.62598 13.4407 5.13352 12.8331 5.13352H12.3264L11.5469 3.57408C12.0556 3.41563 12.4704 3.04385 12.6835 2.55543C13.3579 2.55106 13.9972 2.25431 14.4358 1.74188C14.6874 1.43993 14.7383 1.01847 14.5656 0.665324C14.3519 0.249237 13.9199 -0.00890865 13.4521 0.000154961H8.548C8.08005 -0.00890865 7.64785 0.249069 7.43401 0.665324C7.26147 1.01847 7.31216 1.43993 7.56376 1.74188C8.00234 2.25414 8.64149 2.55106 9.31572 2.55543C9.52888 3.04385 9.94363 3.41563 10.4524 3.57408L9.67323 5.13352H9.16651C8.55908 5.13352 8.06645 5.62598 8.06645 6.23341V19.8H7.33314V13.5667C7.33314 12.9593 6.84068 12.4668 6.23325 12.4668H2.56651C1.95908 12.4668 1.46663 12.9593 1.46663 13.5667V19.8H1.09989C0.492457 19.8 0 20.2924 0 20.9C0 21.5075 0.492457 21.9999 1.09989 21.9999H20.8997C21.5073 21.9999 21.9998 21.5075 21.9998 20.9C21.9998 20.2924 21.5073 19.8 20.8997 19.8ZM15.3998 9.90015C15.3998 9.69756 15.5639 9.53341 15.7665 9.53341H19.4331C19.6355 9.53341 19.7998 9.69756 19.7998 9.90015V19.8H15.3998V9.90015ZM13.9041 0.982215C13.955 1.08057 13.9392 1.20025 13.8645 1.28215C13.6026 1.58495 13.2322 1.7726 12.8331 1.80499V0.733469H13.4521C13.6379 0.723231 13.8133 0.819742 13.9041 0.982215ZM8.09549 0.982215C8.18646 0.819574 8.36203 0.723231 8.548 0.733469H9.16651V1.80499C8.76771 1.7731 8.39744 1.58595 8.13544 1.2835C8.06007 1.20159 8.04396 1.08108 8.09549 0.982215ZM9.89982 1.83352V0.733469H12.0998V1.83352C12.0998 2.44112 11.6073 2.93358 10.9999 2.93358C10.3923 2.93358 9.89982 2.44112 9.89982 1.83352ZM10.9999 4.12008L11.5066 5.13352H10.4932L10.9999 4.12008ZM8.79994 6.23341C8.79994 6.03099 8.96409 5.86684 9.16651 5.86684H12.8331C13.0357 5.86684 13.1998 6.03099 13.1998 6.23341V19.8H8.79994V6.23341ZM2.19994 13.5667C2.19994 13.3643 2.36409 13.2001 2.56651 13.2001H6.23325C6.43567 13.2001 6.59983 13.3643 6.59983 13.5667V19.8H2.19994V13.5667ZM20.8997 21.2666H1.09989C0.897466 21.2666 0.733314 21.1025 0.733314 20.9C0.733314 20.6974 0.897466 20.5333 1.09989 20.5333H20.8997C21.1023 20.5333 21.2664 20.6974 21.2664 20.9C21.2664 21.1025 21.1023 21.2666 20.8997 21.2666Z" fill="black"/>
<path d="M17.9668 1.25197L18.0743 1.35939C18.2181 1.49837 18.4469 1.49652 18.5882 1.35503C18.7297 1.21353 18.7317 0.984925 18.5927 0.84108L17.8594 0.10759C17.8252 0.0735169 17.7845 0.0463257 17.7399 0.0280304C17.6501 -0.00889588 17.5494 -0.00889588 17.4598 0.0280304C17.4149 0.0463257 17.3743 0.0735169 17.3401 0.10759L16.6068 0.84108C16.468 0.984925 16.4698 1.21353 16.6113 1.35503C16.7528 1.49652 16.9814 1.49837 17.1252 1.35939L17.2335 1.25197V2.93362C17.2335 3.13605 17.3977 3.3002 17.6001 3.3002C17.8027 3.3002 17.9668 3.13605 17.9668 2.93362V1.25197Z" fill="black"/>
<path d="M17.6 4.03348C17.3976 4.03348 17.2334 4.19763 17.2334 4.40022V5.13354C17.2334 5.33597 17.3976 5.50012 17.6 5.50012C17.8026 5.50012 17.9667 5.33597 17.9667 5.13354V4.40022C17.9667 4.19763 17.8026 4.03348 17.6 4.03348Z" fill="black"/>
<path d="M4.54019 6.26179C4.4504 6.2247 4.34969 6.2247 4.26006 6.26179C4.21524 6.28009 4.17462 6.30711 4.14038 6.34135L3.40706 7.07467C3.26825 7.21852 3.2701 7.44712 3.41159 7.58862C3.55309 7.73011 3.78169 7.73213 3.92554 7.59315L4.03346 7.48523V8.06681C4.03346 8.2694 4.19762 8.43356 4.40004 8.43356C4.60263 8.43356 4.76679 8.2694 4.76679 8.06681V7.48523L4.87421 7.59282C5.01805 7.73162 5.24666 7.72978 5.38816 7.58828C5.52965 7.44679 5.53166 7.21818 5.39269 7.07434L4.65937 6.34101C4.62529 6.30694 4.58467 6.27992 4.54019 6.26179Z" fill="black"/>
<path d="M4.39978 9.16685C4.19736 9.16685 4.0332 9.331 4.0332 9.53342V11.3668C4.0332 11.5692 4.19736 11.7334 4.39978 11.7334C4.60237 11.7334 4.76653 11.5692 4.76653 11.3668V9.53342C4.76653 9.331 4.60237 9.16685 4.39978 9.16685Z" fill="black"/>
</g>
<defs>
<clipPath id="clip0">
<rect width="22" height="22" fill="white"/>
</clipPath>
</defs>
</svg>
