<svg width="75" height="75" viewBox="0 0 75 75" fill="none" xmlns="http://www.w3.org/2000/svg">
<path d="M65.625 49.2187H4.6875V16.4062C4.68824 15.7849 4.9354 15.1892 5.37478 14.7498C5.81416 14.3104 6.40987 14.0632 7.03125 14.0625H9.375V46.875H11.7188V7.03125C11.7195 6.40987 11.9667 5.81416 12.406 5.37478C12.8454 4.9354 13.4411 4.68824 14.0625 4.6875H56.25C56.8264 4.68711 57.3827 4.89963 57.812 5.28428L59.3755 3.53848C58.5166 2.76849 57.4035 2.34301 56.25 2.34375H14.0625C12.8197 2.34515 11.6283 2.83945 10.7495 3.71823C9.8707 4.597 9.3764 5.78848 9.375 7.03125V11.7187H7.03125C5.78848 11.7201 4.597 12.2145 3.71823 13.0932C2.83945 13.972 2.34515 15.1635 2.34375 16.4062V56.25C2.34515 57.4928 2.83945 58.6842 3.71823 59.563C4.597 60.4418 5.78848 60.9361 7.03125 60.9375H26.5499L23.7374 70.3125H21.0938V72.6562H49.2188V70.3125H46.5751L43.7626 60.9375H63.2812C64.524 60.9361 65.7155 60.4418 66.5943 59.563C67.473 58.6842 67.9674 57.4928 67.9688 56.25V21.0937H65.625V49.2187ZM44.1281 70.3125H26.1838L28.9963 60.9375H41.3156L44.1281 70.3125ZM65.625 56.25C65.6243 56.8714 65.3771 57.4671 64.9377 57.9065C64.4983 58.3458 63.9026 58.593 63.2812 58.5937H7.03125C6.40987 58.593 5.81416 58.3458 5.37478 57.9065C4.9354 57.4671 4.68824 56.8714 4.6875 56.25V51.5625H65.625V56.25Z" fill="#3BDED3"/>
<path d="M58.5938 28.125H60.9375V46.875H58.5938V28.125Z" fill="#3BDED3"/>
<path d="M14.0625 7.03125H16.4062V9.375H14.0625V7.03125Z" fill="#3BDED3"/>
<path d="M18.75 7.03125H21.0938V9.375H18.75V7.03125Z" fill="#3BDED3"/>
<path d="M23.4375 7.03125H25.7812V9.375H23.4375V7.03125Z" fill="#3BDED3"/>
<path d="M14.0625 11.7188H49.2188V14.0625H14.0625V11.7188Z" fill="#3BDED3"/>
<path d="M66.513 2.34377C65.7059 2.34152 64.9062 2.4994 64.1605 2.80827C63.4147 3.11714 62.7377 3.57087 62.1685 4.14319L33.1562 33.1557C33.0058 33.3057 32.8991 33.4937 32.8474 33.6996L31.4412 39.3246L30.5037 43.0746C30.4546 43.2709 30.4573 43.4766 30.5113 43.6715C30.5653 43.8665 30.6689 44.0442 30.812 44.1872C30.955 44.3303 31.1327 44.4339 31.3277 44.4879C31.5226 44.5419 31.7283 44.5446 31.9246 44.4955L35.6746 43.558L41.2996 42.1518C41.5055 42.1001 41.6935 41.9934 41.8435 41.843L70.8573 12.8321C71.7166 11.9728 72.3017 10.8781 72.5388 9.68631C72.7759 8.49451 72.6542 7.25917 72.1892 6.13652C71.7242 5.01387 70.9368 4.05431 69.9264 3.37921C68.916 2.70411 67.7282 2.34377 66.513 2.34377ZM41.0161 39.3583L39.1578 37.5L64.4536 12.2042L66.3119 14.0625L41.0161 39.3583ZM37.5005 35.8427L35.6422 33.9844L60.938 8.6886L62.7963 10.5469L37.5005 35.8427ZM35.7506 41.1241L33.8765 39.2499L34.6197 36.2763L38.7239 40.3805L35.7506 41.1241ZM69.1997 11.1744L67.9692 12.4049L62.5952 7.03127L63.8256 5.80081C64.1785 5.44794 64.5974 5.16802 65.0584 4.97704C65.5194 4.78606 66.0135 4.68775 66.5125 4.68773C67.0115 4.68771 67.5056 4.78598 67.9667 4.97692C68.4277 5.16787 68.8466 5.44775 69.1995 5.80059C69.5524 6.15342 69.8323 6.57231 70.0233 7.03332C70.2142 7.49434 70.3125 7.98846 70.3126 8.48747C70.3126 8.98648 70.2143 9.4806 70.0234 9.94163C69.8324 10.4027 69.5525 10.8216 69.1997 11.1744Z" fill="#3BDED3"/>
<path d="M28.125 17.5781C28.125 17.2673 28.0015 16.9693 27.7818 16.7495C27.562 16.5297 27.2639 16.4062 26.9531 16.4062H15.2344C14.9236 16.4062 14.6255 16.5297 14.4057 16.7495C14.186 16.9693 14.0625 17.2673 14.0625 17.5781V26.9531C14.0625 27.2639 14.186 27.562 14.4057 27.7818C14.6255 28.0015 14.9236 28.125 15.2344 28.125H26.9531C27.2639 28.125 27.562 28.0015 27.7818 27.7818C28.0015 27.562 28.125 27.2639 28.125 26.9531V17.5781ZM25.7812 25.7812H16.4062V18.75H25.7812V25.7812Z" fill="#3BDED3"/>
<path d="M28.125 31.6406C28.125 31.3298 28.0015 31.0318 27.7818 30.812C27.562 30.5922 27.2639 30.4688 26.9531 30.4688H15.2344C14.9236 30.4688 14.6255 30.5922 14.4057 30.812C14.186 31.0318 14.0625 31.3298 14.0625 31.6406V41.0156C14.0625 41.3264 14.186 41.6245 14.4057 41.8443C14.6255 42.064 14.9236 42.1875 15.2344 42.1875H26.9531C27.2639 42.1875 27.562 42.064 27.7818 41.8443C28.0015 41.6245 28.125 41.3264 28.125 41.0156V31.6406ZM25.7812 39.8438H16.4062V32.8125H25.7812V39.8438Z" fill="#3BDED3"/>
<path d="M37.5 16.4062H44.5312V18.75H37.5V16.4062Z" fill="#3BDED3"/>
<path d="M30.4688 21.0938H39.8438V23.4375H30.4688V21.0938Z" fill="#3BDED3"/>
<path d="M30.4688 25.7812H35.1562V28.125H30.4688V25.7812Z" fill="#3BDED3"/>
<path d="M30.4688 16.4062H35.1562V18.75H30.4688V16.4062Z" fill="#3BDED3"/>
<path d="M14.0625 44.5312H28.125V46.875H14.0625V44.5312Z" fill="#3BDED3"/>
<path d="M38.6719 44.5312H56.25V46.875H38.6719V44.5312Z" fill="#3BDED3"/>
<path d="M46.875 39.8438H56.25V42.1875H46.875V39.8438Z" fill="#3BDED3"/>
<path d="M51.5625 35.1562H56.25V37.5H51.5625V35.1562Z" fill="#3BDED3"/>
</svg>
