<svg width="69" height="71" viewBox="0 0 69 71" fill="none" xmlns="http://www.w3.org/2000/svg">
    <path d="M67.4299 57.9332C68.184 57.9332 68.7953 57.3219 68.7953 56.5678V1.36538C68.7953 0.61135 68.184 0 67.4299 0H20.2013C19.4473 0 18.8359 0.61135 18.8359 1.36538V63.0807C18.8344 64.0668 19.0198 65.0445 19.3821 65.9617C19.3785 66.0163 19.3785 66.0709 19.3821 66.1255C20.6036 69.0872 23.4969 71.0143 26.7006 70.9999H67.4299C68.184 70.9999 68.7953 70.3886 68.7953 69.6345C68.7953 68.8805 68.184 68.2692 67.4299 68.2692H26.7006C25.4372 68.2516 24.2255 67.7648 23.3008 66.9038H53.1753C53.9294 66.9038 54.5407 66.2924 54.5407 65.5384C54.5407 64.7844 53.9294 64.173 53.1753 64.173H21.6896C21.6096 63.8144 21.5684 63.4482 21.5667 63.0807C21.5672 62.7274 21.6037 62.3751 21.6759 62.0294H44.1365C44.8905 62.0294 45.5019 61.418 45.5019 60.664C45.5019 59.9099 44.8905 59.2986 44.1365 59.2986H23.2461C24.1853 58.4259 25.4185 57.9385 26.7006 57.9332H67.4299ZM21.5531 57.0867V2.73077H66.0645V55.1615H26.7006C24.8086 55.1608 22.9804 55.8447 21.5531 57.0867Z" fill="#FBC006"/>
    <path d="M16.3205 7.63311C16.321 6.15116 15.1394 4.93938 13.658 4.90234H2.73492C1.22668 4.90234 0.00415015 6.12487 0.00415015 7.63311V11.62C0.00909967 12.1008 0.14103 12.5719 0.386458 12.9854C0.14103 13.399 0.00909967 13.87 0.00415015 14.3508V45.0583C0.00193141 45.1037 0.00193141 45.1492 0.00415015 45.1948C-0.0115518 45.3148 0.0176333 45.4363 0.0860732 45.5361C0.0860732 45.5361 0.0860732 45.6044 0.0860732 45.6454L6.91299 60.0638C7.23385 60.7463 8.04711 61.0394 8.72946 60.7187C9.01739 60.5833 9.24899 60.3517 9.38433 60.0638L16.2113 45.6454C16.2113 45.6454 16.2113 45.5771 16.2113 45.5361C16.2478 45.3769 16.2841 45.2175 16.3205 45.0583V14.3508C16.3155 13.87 16.1836 13.399 15.9382 12.9854C16.1836 12.5719 16.3155 12.1008 16.3205 11.62V7.63311ZM2.73492 14.3508H6.83107V42.3958L2.73492 43.3515V14.3508ZM8.19645 56.309L7.40453 54.6159L8.19645 53.865L8.98837 54.6159L8.19645 56.309ZM10.2172 52.0354L9.13857 50.9977C8.61119 50.4949 7.78171 50.4949 7.25434 50.9977L6.17568 52.0354L3.33569 46.014L8.2101 44.8808L13.0845 46.014L10.2172 52.0354ZM13.658 43.3652L9.56183 42.4094V14.3508H13.658V43.3652ZM13.658 11.62V11.6337H2.73492V7.63311H13.658V11.62Z" fill="#FBC006"/>
    <path d="M37.949 30.7342L34.8769 23.2109L34.5219 22.2961C34.4314 22.0706 34.3171 21.8554 34.1805 21.6544C34.0414 21.4569 33.8593 21.2934 33.648 21.1765C33.3917 21.0415 33.1046 20.9756 32.8151 20.9853C32.5301 20.9766 32.2477 21.0425 31.9959 21.1765C31.7822 21.2961 31.5998 21.4646 31.4634 21.668C31.3088 21.9083 31.1806 22.1647 31.0811 22.4326L30.7671 23.2245L27.7632 30.8434C27.6449 31.1438 27.5584 31.3805 27.5038 31.5534C27.4517 31.7121 27.4243 31.8778 27.4219 32.0449C27.4275 32.3276 27.5512 32.595 27.7632 32.7822C27.9733 32.9922 28.2582 33.1101 28.5551 33.1099C28.8461 33.1376 29.1322 33.0201 29.3198 32.7959C29.5551 32.4248 29.7432 32.0258 29.8796 31.608L30.4394 30.0378H35.2046L35.7644 31.5534L36.0374 32.1815C36.1112 32.3699 36.2074 32.5486 36.3242 32.714C36.416 32.8295 36.5327 32.9229 36.6655 32.987C36.8154 33.0555 36.9789 33.0881 37.1434 33.0826C37.4518 33.0865 37.7483 32.963 37.9626 32.7413C38.1753 32.5489 38.2989 32.277 38.304 31.9903C38.2589 31.5542 38.1388 31.1293 37.949 30.7342ZM31.0674 28.3447L32.8015 23.5113L34.5628 28.3447H31.0674Z" fill="#FBC006"/>
    <path d="M47.4544 26.6789C48.5242 26.2727 49.2273 25.2425 49.2157 24.0983C49.2185 23.768 49.163 23.4398 49.0519 23.1289C48.9404 22.8194 48.7739 22.5325 48.5604 22.2823C48.3516 22.033 48.1023 21.8207 47.823 21.6543C47.4831 21.453 47.1076 21.3185 46.7171 21.2583C46.2564 21.1852 45.7908 21.1487 45.3244 21.1491H41.474C41.0746 21.112 40.677 21.2347 40.3681 21.4904C40.1103 21.8036 39.9875 22.2064 40.0267 22.61V31.4031C39.9917 31.7999 40.1088 32.1954 40.3544 32.509C40.662 32.7674 41.0608 32.8905 41.4604 32.8504H45.0513C45.5987 32.8588 46.146 32.8314 46.6898 32.7685C47.1113 32.7183 47.5245 32.6126 47.9186 32.4544C48.4803 32.214 48.9563 31.8095 49.284 31.2939C49.6219 30.7641 49.7974 30.1471 49.7892 29.5189C49.8001 28.1321 48.817 26.9364 47.4544 26.6789ZM42.4025 22.9377H44.3277C44.9822 22.9017 45.6372 22.9993 46.2529 23.2244C46.6882 23.4448 46.9393 23.9141 46.8809 24.3987C46.8825 24.663 46.8116 24.9226 46.6761 25.1496C46.5179 25.4471 46.2554 25.6758 45.9388 25.7914C45.4952 25.9177 45.0344 25.973 44.5734 25.9552H42.4025V22.9377ZM47.3725 29.355C47.3634 30.5202 46.5578 31.1027 44.9557 31.1027V31.13H42.4025V27.6756H44.8738C45.522 27.6312 46.1697 27.7683 46.7444 28.0716C47.1788 28.347 47.4216 28.843 47.3725 29.355Z" fill="#FBC006"/>
    <path d="M61.16 28.2083C60.7808 28.0826 60.3631 28.1714 60.0677 28.4404C59.8991 28.6675 59.7699 28.9213 59.6854 29.1913C59.4898 29.7841 59.1184 30.3033 58.6204 30.6796C58.1111 31.0286 57.5035 31.2056 56.8863 31.1848C56.3037 31.1981 55.7295 31.0416 55.2342 30.7342C54.7369 30.404 54.3549 29.9266 54.1419 29.3688C53.8646 28.6416 53.7347 27.8666 53.7596 27.0886C53.6919 25.9694 53.9992 24.8595 54.6335 23.9346C55.1849 23.2074 56.0562 22.7947 56.9683 22.8286C57.5148 22.8165 58.0522 22.9688 58.5112 23.2656C58.9825 23.6233 59.3579 24.0925 59.6035 24.6309C59.7328 24.9054 59.9032 25.1587 60.1087 25.3819C60.4785 25.6209 60.954 25.6209 61.3238 25.3819C61.6172 25.2097 61.7908 24.8888 61.7744 24.549C61.751 23.9723 61.5455 23.4178 61.1873 22.9652C60.7367 22.3793 60.1511 21.9108 59.4806 21.5998C58.6926 21.2067 57.8213 21.01 56.941 21.0263C56.1886 21.0197 55.4421 21.1588 54.7427 21.436C54.0622 21.7082 53.4478 22.1224 52.9404 22.6511C52.4209 23.2002 52.0211 23.8511 51.7662 24.5627C51.4805 25.3783 51.3417 26.2382 51.3565 27.1023C51.3589 27.6298 51.4139 28.1559 51.5204 28.6725C51.6252 29.1773 51.7902 29.6678 52.0119 30.1334C52.2222 30.5796 52.4883 30.997 52.8038 31.3759C53.1259 31.7627 53.5087 32.0948 53.9371 32.359C54.3611 32.6111 54.8217 32.7953 55.3025 32.9052C55.8582 33.0286 56.4264 33.0881 56.9956 33.0827C57.7295 33.0962 58.4586 32.9613 59.1392 32.6867C59.7103 32.4546 60.2264 32.1059 60.6548 31.6627C61.0204 31.2904 61.3163 30.8557 61.5286 30.3792C61.7002 29.9966 61.7932 29.5834 61.8017 29.164C61.8121 28.7416 61.5549 28.3586 61.16 28.2083Z" fill="#FBC006"/>
</svg>
