<svg width="112" height="71" viewBox="0 0 112 71" fill="none" xmlns="http://www.w3.org/2000/svg">
    <path d="M96.7096 31.2409C99.9841 28.9399 102.152 25.1122 102.152 20.7978C102.152 13.7398 96.4441 8.03147 89.3861 8.03147C82.3281 8.03147 76.6198 13.7398 76.6198 20.7978C76.6198 25.1122 78.766 28.9399 82.0626 31.2409C79.2527 32.2144 76.6862 33.7189 74.5179 35.6659C71.531 33.1215 68.0131 31.1745 64.1633 30.024C68.8317 27.192 71.9735 22.0368 71.9735 16.1736C71.9735 7.23497 64.7385 0 55.7999 0C46.8613 0 39.6264 7.25709 39.6264 16.1736C39.6264 22.0368 42.746 27.192 47.4366 30.024C43.631 31.1745 40.1574 33.0994 37.1926 35.5996C35.0243 33.6968 32.502 32.2144 29.7364 31.263C33.0109 28.962 35.1792 25.1343 35.1792 20.8199C35.1792 13.7619 29.4709 8.0536 22.4129 8.0536C15.3549 8.0536 9.64662 13.7619 9.64662 20.8199C9.64662 25.1343 11.7928 28.962 15.0894 31.263C6.3057 34.2942 0 42.6354 0 52.4369V53.8972C0 53.9414 0.0442505 53.9857 0.0885011 53.9857H27.1477C26.9928 55.2026 26.9043 56.4637 26.9043 57.7248V59.2294C26.9043 65.7342 32.1701 71 38.675 71H72.9691C79.474 71 84.7398 65.7342 84.7398 59.2294V57.7248C84.7398 56.4637 84.6513 55.2026 84.4964 53.9857H111.733C111.777 53.9857 111.821 53.9414 111.821 53.8972V52.4369C111.777 42.6133 105.493 34.272 96.7096 31.2409ZM80.1599 20.7756C80.1599 15.6868 84.2973 11.5494 89.3861 11.5494C94.4749 11.5494 98.6123 15.6868 98.6123 20.7756C98.6123 25.7981 94.5634 29.8912 89.5631 30.0019C89.4967 30.0019 89.4525 30.0019 89.3861 30.0019C89.3197 30.0019 89.2755 30.0019 89.2091 30.0019C84.1867 29.9134 80.1599 25.8202 80.1599 20.7756ZM43.1222 16.1736C43.1222 9.20411 48.7862 3.54004 55.7557 3.54004C62.7251 3.54004 68.3892 9.20411 68.3892 16.1736C68.3892 22.8997 63.1013 28.4089 56.4858 28.785C56.2424 28.785 55.9991 28.785 55.7557 28.785C55.5123 28.785 55.2689 28.785 55.0256 28.785C48.4101 28.4089 43.1222 22.8997 43.1222 16.1736ZM13.1203 20.7756C13.1203 15.6868 17.2577 11.5494 22.3465 11.5494C27.4353 11.5494 31.5728 15.6868 31.5728 20.7756C31.5728 25.7981 27.5238 29.8912 22.5235 30.0019C22.4572 30.0019 22.4129 30.0019 22.3465 30.0019C22.2801 30.0019 22.2359 30.0019 22.1695 30.0019C17.1692 29.9134 13.1203 25.8202 13.1203 20.7756ZM27.7672 50.4235H3.58429C4.57993 40.9981 12.545 33.6083 22.2138 33.5419C22.258 33.5419 22.3023 33.5419 22.3465 33.5419C22.3908 33.5419 22.435 33.5419 22.4793 33.5419C27.0813 33.564 31.2851 35.2677 34.5376 38.0333C31.3515 41.4849 28.9841 45.7329 27.7672 50.4235ZM81.1555 59.2294C81.1555 63.765 77.4606 67.46 72.9249 67.46H38.6307C34.095 67.46 30.4001 63.765 30.4001 59.2294V57.7248C30.4001 43.985 41.3743 32.7454 55.0256 32.3471C55.2689 32.3693 55.5344 32.3693 55.7778 32.3693C56.0212 32.3693 56.2867 32.3693 56.5301 32.3471C70.1814 32.7454 81.1555 43.985 81.1555 57.7248V59.2294ZM83.7884 50.4235C82.5715 45.7551 80.2484 41.5734 77.0844 38.1218C80.359 35.2898 84.607 33.5862 89.2533 33.5419C89.2976 33.5419 89.3419 33.5419 89.3861 33.5419C89.4304 33.5419 89.4746 33.5419 89.5189 33.5419C99.1876 33.6083 107.153 40.9981 108.148 50.4235H83.7884Z" fill="#3BDED3"/>
</svg>
