<svg width="56" height="56" viewBox="0 0 56 56" fill="none" xmlns="http://www.w3.org/2000/svg">
    <rect width="56" height="56" rx="17" fill="#561BFB" fill-opacity="0.1"/>
    <path d="M28 27.5312C27.1656 27.5312 26.35 27.7787 25.6562 28.2422C24.9624 28.7058 24.4217 29.3647 24.1024 30.1356C23.7831 30.9064 23.6995 31.7547 23.8623 32.573C24.0251 33.3914 24.4269 34.1431 25.0169 34.7331C25.6069 35.3231 26.3586 35.7249 27.177 35.8877C27.9953 36.0505 28.8436 35.9669 29.6144 35.6476C30.3853 35.3283 31.0442 34.7876 31.5078 34.0938C31.9713 33.4 32.2188 32.5844 32.2188 31.75C32.2175 30.6315 31.7726 29.5592 30.9817 28.7683C30.1908 27.9774 29.1185 27.5325 28 27.5312ZM28 35.0312C27.351 35.0312 26.7166 34.8388 26.177 34.4783C25.6374 34.1177 25.2169 33.6052 24.9685 33.0057C24.7202 32.4061 24.6552 31.7464 24.7818 31.1099C24.9084 30.4734 25.2209 29.8887 25.6798 29.4298C26.1387 28.9709 26.7234 28.6584 27.3599 28.5318C27.9964 28.4052 28.6561 28.4702 29.2557 28.7185C29.8552 28.9669 30.3677 29.3874 30.7283 29.927C31.0888 30.4666 31.2813 31.101 31.2813 31.75C31.2803 32.6199 30.9343 33.454 30.3191 34.0691C29.704 34.6843 28.8699 35.0303 28 35.0312Z" fill="#561BFB"/>
    <path d="M29.4062 31.2812H28.4688V29.4062C28.4688 29.2819 28.4194 29.1627 28.3315 29.0748C28.2435 28.9869 28.1243 28.9375 28 28.9375C27.8757 28.9375 27.7565 28.9869 27.6685 29.0748C27.5806 29.1627 27.5312 29.2819 27.5312 29.4062V31.75C27.5312 31.8743 27.5806 31.9935 27.6685 32.0815C27.7565 32.1694 27.8757 32.2188 28 32.2188H29.4062C29.5306 32.2188 29.6498 32.1694 29.7377 32.0815C29.8256 31.9935 29.875 31.8743 29.875 31.75C29.875 31.6257 29.8256 31.5065 29.7377 31.4185C29.6498 31.3306 29.5306 31.2812 29.4062 31.2812Z" fill="#561BFB"/>
    <path d="M28 39.7188C27.8757 39.7188 27.7565 39.7681 27.6685 39.856C27.5806 39.944 27.5312 40.0632 27.5312 40.1875V42.0625C27.5312 42.1868 27.5806 42.306 27.6685 42.394C27.7565 42.4819 27.8757 42.5312 28 42.5312C28.1243 42.5312 28.2435 42.4819 28.3315 42.394C28.4194 42.306 28.4688 42.1868 28.4688 42.0625V40.1875C28.4688 40.0632 28.4194 39.944 28.3315 39.856C28.2435 39.7681 28.1243 39.7188 28 39.7188Z" fill="#561BFB"/>
    <path d="M26.125 39.7188C26.0007 39.7188 25.8815 39.7681 25.7935 39.856C25.7056 39.944 25.6562 40.0632 25.6562 40.1875V42.0625C25.6562 42.1868 25.7056 42.306 25.7935 42.394C25.8815 42.4819 26.0007 42.5312 26.125 42.5312C26.2493 42.5312 26.3685 42.4819 26.4565 42.394C26.5444 42.306 26.5938 42.1868 26.5938 42.0625V40.1875C26.5938 40.0632 26.5444 39.944 26.4565 39.856C26.3685 39.7681 26.2493 39.7188 26.125 39.7188Z" fill="#561BFB"/>
    <path d="M29.875 39.7188C29.7507 39.7188 29.6315 39.7681 29.5435 39.856C29.4556 39.944 29.4062 40.0632 29.4062 40.1875V42.0625C29.4062 42.1868 29.4556 42.306 29.5435 42.394C29.6315 42.4819 29.7507 42.5312 29.875 42.5312C29.9993 42.5312 30.1185 42.4819 30.2065 42.394C30.2944 42.306 30.3438 42.1868 30.3438 42.0625V40.1875C30.3438 40.0632 30.2944 39.944 30.2065 39.856C30.1185 39.7681 29.9993 39.7188 29.875 39.7188Z" fill="#561BFB"/>
    <path d="M41.5199 18.9186C41.4019 18.4607 41.1482 18.0491 40.792 17.7381C40.4358 17.4271 39.9939 17.2312 39.5242 17.176C39.3141 16.5729 38.9437 16.0384 38.4528 15.6299C37.9619 15.2214 37.369 14.9543 36.7378 14.8572C36.1066 14.7602 35.4608 14.8369 34.8699 15.0791C34.279 15.3213 33.7651 15.7199 33.3836 16.232C33.3074 16.2256 33.2318 16.2227 33.1562 16.2227C32.4103 16.2227 31.695 16.519 31.1675 17.0464C30.6401 17.5739 30.3438 18.2892 30.3438 19.0352C30.3438 19.7811 30.6401 20.4965 31.1675 21.0239C31.695 21.5514 32.4103 21.8477 33.1562 21.8477H39.25C39.6076 21.8474 39.9604 21.7654 40.2814 21.6079C40.6024 21.4505 40.8832 21.2216 41.1023 20.939C41.3213 20.6563 41.4728 20.3274 41.5452 19.9772C41.6176 19.627 41.6089 19.2649 41.5199 18.9186ZM39.25 20.9102H33.1562C32.8947 20.9101 32.6361 20.8554 32.397 20.7495C32.1578 20.6436 31.9435 20.4888 31.7678 20.2951C31.5921 20.1014 31.4588 19.8731 31.3765 19.6248C31.2943 19.3766 31.2649 19.1139 31.2902 18.8536C31.3155 18.5932 31.395 18.3411 31.5236 18.1134C31.6522 17.8856 31.827 17.6873 32.0368 17.5311C32.2466 17.375 32.4867 17.2644 32.7418 17.2066C32.9968 17.1488 33.2611 17.1449 33.5178 17.1953C33.6114 17.2137 33.7084 17.2031 33.7958 17.1649C33.8833 17.1266 33.9569 17.0627 34.007 16.9815C34.2743 16.5467 34.6645 16.2011 35.1284 15.9884C35.5922 15.7756 36.1087 15.7053 36.6125 15.7863C37.1164 15.8673 37.5848 16.096 37.9586 16.4434C38.3323 16.7908 38.5946 17.2413 38.7121 17.7379C38.7376 17.844 38.7992 17.938 38.8863 18.0039C38.9733 18.0697 39.0806 18.1033 39.1896 18.0988C39.2096 18.0983 39.2301 18.0977 39.25 18.0977C39.5619 18.0973 39.8649 18.2008 40.1115 18.3918C40.358 18.5827 40.534 18.8503 40.6117 19.1524C40.6416 19.2671 40.6565 19.3853 40.6562 19.5039C40.6558 19.8767 40.5074 20.2341 40.2438 20.4977C39.9802 20.7614 39.6228 20.9097 39.25 20.9102Z" fill="#561BFB"/>
    <path d="M37.9234 32.4625C37.8219 32.0684 37.6057 31.7134 37.3021 31.4424C36.9986 31.1713 36.6214 30.9966 36.2184 30.9402C36.0216 30.3952 35.6728 29.918 35.2131 29.5653C34.7535 29.2125 34.2023 28.9989 33.625 28.9498V26.5938C33.625 26.4694 33.5756 26.3502 33.4877 26.2623C33.3998 26.1744 33.2806 26.125 33.1562 26.125V23.7812C33.1562 23.6569 33.1069 23.5377 33.019 23.4498C32.931 23.3619 32.8118 23.3125 32.6875 23.3125C32.5632 23.3125 32.444 23.3619 32.356 23.4498C32.2681 23.5377 32.2187 23.6569 32.2187 23.7812V24.25H31.9111L29.875 21.8066V20.0312C29.875 19.9069 29.8256 19.7877 29.7377 19.6998C29.6498 19.6119 29.5306 19.5625 29.4062 19.5625H29.3617L28.9352 15.2969C28.9235 15.1813 28.8694 15.0741 28.7832 14.9961C28.697 14.9182 28.585 14.875 28.4687 14.875V13.9375C28.4687 13.8132 28.4194 13.694 28.3315 13.606C28.2435 13.5181 28.1243 13.4688 28 13.4688C27.8757 13.4688 27.7565 13.5181 27.6685 13.606C27.5806 13.694 27.5312 13.8132 27.5312 13.9375V14.875C27.415 14.875 27.303 14.9182 27.2168 14.9961C27.1306 15.0741 27.0765 15.1813 27.0648 15.2969L26.6383 19.5625H26.5937C26.4694 19.5625 26.3502 19.6119 26.2623 19.6998C26.1744 19.7877 26.125 19.9069 26.125 20.0312V21.8066L24.0889 24.25H23.7812V23.7812C23.7812 23.6569 23.7319 23.5377 23.644 23.4498C23.556 23.3619 23.4368 23.3125 23.3125 23.3125C23.1882 23.3125 23.069 23.3619 22.981 23.4498C22.8931 23.5377 22.8437 23.6569 22.8437 23.7812V26.125C22.7194 26.125 22.6002 26.1744 22.5123 26.2623C22.4244 26.3502 22.375 26.4694 22.375 26.5938V33.826C21.6672 33.5758 20.8979 33.5587 20.1797 33.7773C19.4615 33.9959 18.8321 34.4386 18.3836 35.0406C18.3074 35.0342 18.2318 35.0312 18.1562 35.0312C17.4103 35.0312 16.695 35.3276 16.1675 35.855C15.6401 36.3825 15.3438 37.0978 15.3438 37.8438C15.3438 38.5897 15.6401 39.305 16.1675 39.8325C16.695 40.3599 17.4103 40.6562 18.1562 40.6562H23.3125V42.0625C23.3125 42.1868 23.3619 42.306 23.4498 42.394C23.5377 42.4819 23.6569 42.5312 23.7812 42.5312C23.9056 42.5312 24.0248 42.4819 24.1127 42.394C24.2006 42.306 24.25 42.1868 24.25 42.0625V38.7812H31.75V42.0625C31.75 42.1868 31.7994 42.306 31.8873 42.394C31.9752 42.4819 32.0944 42.5312 32.2187 42.5312C32.3431 42.5312 32.4623 42.4819 32.5502 42.394C32.6381 42.306 32.6875 42.1868 32.6875 42.0625V37.375H33.1562C33.2806 37.375 33.3998 37.3256 33.4877 37.2377C33.5756 37.1498 33.625 37.0306 33.625 36.9062V35.0312H35.9324C36.246 35.0309 36.5553 34.9589 36.8368 34.8207C37.1183 34.6826 37.3645 34.4819 37.5565 34.2341C37.7486 33.9863 37.8816 33.6978 37.9451 33.3908C38.0087 33.0837 38.0013 32.7662 37.9234 32.4625ZM27.9555 15.8125H28.0445L28.4195 19.5625H27.5805L27.9555 15.8125ZM27.0625 20.5H28.9375V21.4375H27.0625V20.5ZM26.8721 22.375H29.1279L30.6906 24.25H25.3094L26.8721 22.375ZM23.7812 25.1875H32.2187V26.125H23.7812V25.1875ZM23.3125 39.7188H18.1562C17.8947 39.7187 17.6361 39.664 17.397 39.5581C17.1578 39.4521 16.9435 39.2974 16.7678 39.1037C16.592 38.91 16.4588 38.6817 16.3765 38.4334C16.2943 38.1852 16.2649 37.9224 16.2902 37.6621C16.3155 37.4018 16.395 37.1497 16.5236 36.922C16.6522 36.6942 16.827 36.4959 17.0368 36.3397C17.2466 36.1836 17.4867 36.073 17.7418 36.0152C17.9968 35.9573 18.2611 35.9535 18.5178 36.0039C18.6114 36.0223 18.7084 36.0117 18.7958 35.9734C18.8833 35.9352 18.9569 35.8712 19.007 35.79C19.3465 35.2376 19.8818 34.8335 20.506 34.6583C21.1303 34.4831 21.7977 34.5498 22.375 34.8449V36.9062C22.375 37.0306 22.4244 37.1498 22.5123 37.2377C22.6002 37.3256 22.7194 37.375 22.8437 37.375H23.3125V39.7188ZM31.75 37.8438H24.25V37.375H31.75V37.8438ZM32.6875 36.4375H23.3125V27.0625H32.6875V36.4375ZM35.9324 34.0938H33.625V29.892C34.0507 29.9453 34.4497 30.1279 34.7685 30.4151C35.0872 30.7022 35.3102 31.0802 35.4074 31.498C35.4324 31.6043 35.4936 31.6985 35.5806 31.7644C35.6675 31.8303 35.7748 31.8637 35.8838 31.859C35.9002 31.8584 35.9166 31.8584 35.9324 31.8584C36.2288 31.8584 36.5131 31.9762 36.7227 32.1858C36.9323 32.3954 37.0501 32.6796 37.0501 32.9761C37.0501 33.2725 36.9323 33.5568 36.7227 33.7664C36.5131 33.976 36.2288 34.0938 35.9324 34.0938Z" fill="#561BFB"/>
</svg>
